<?xml version="1.0" encoding="utf-8"?>
<!-- Generator: Adobe Illustrator 17.0.0, SVG Export Plug-In . SVG Version: 6.00 Build 0)  -->
<!DOCTYPE svg PUBLIC "-//W3C//DTD SVG 1.1//EN" "http://www.w3.org/Graphics/SVG/1.1/DTD/svg11.dtd">
<svg version="1.1" id="Capa_1" xmlns="http://www.w3.org/2000/svg" xmlns:xlink="http://www.w3.org/1999/xlink" x="0px" y="0px"
	 width="20px" height="13.636px" viewBox="204.166 213.598 20 13.636" enable-background="new 204.166 213.598 20 13.636"
	 xml:space="preserve">
<g>
	<g id="visibility">
		<path fill="#A7A7A7" d="M214.166,213.598c-4.545,0-8.455,2.818-10,6.818c1.545,4,5.455,6.818,10,6.818s8.455-2.818,10-6.818
			C222.62,216.416,218.711,213.598,214.166,213.598z M214.166,224.962c-2.545,0-4.545-2-4.545-4.545s2-4.545,4.545-4.545
			s4.545,2,4.545,4.545S216.711,224.962,214.166,224.962z M214.166,217.689c-1.545,0-2.727,1.182-2.727,2.727
			s1.182,2.727,2.727,2.727s2.727-1.182,2.727-2.727S215.711,217.689,214.166,217.689z"/>
	</g>
</g>
</svg>
