<?xml version="1.0" encoding="utf-8"?>
<!-- Generator: Adobe Illustrator 17.0.0, SVG Export Plug-In . SVG Version: 6.00 Build 0)  -->
<!DOCTYPE svg PUBLIC "-//W3C//DTD SVG 1.1//EN" "http://www.w3.org/Graphics/SVG/1.1/DTD/svg11.dtd">
<svg version="1.1" id="Capa_1" xmlns="http://www.w3.org/2000/svg" xmlns:xlink="http://www.w3.org/1999/xlink" x="0px" y="0px"
	 width="12.586px" height="17.965px" viewBox="211.041 212.792 12.586 17.965"
	 enable-background="new 211.041 212.792 12.586 17.965" xml:space="preserve">
<g>
	<path fill="#A7A7A7" d="M216.912,230.476c-0.727-0.82-1.359-1.594-1.898-2.32c-0.54-0.727-1.084-1.523-1.635-2.391
		c-0.551-0.867-1.049-1.834-1.494-2.9c-0.445-1.066-0.715-2.057-0.809-2.971c-0.023-0.281-0.035-0.551-0.035-0.809
		c0-1.734,0.615-3.217,1.846-4.447s2.712-1.846,4.447-1.846c1.734,0,3.217,0.615,4.447,1.846s1.846,2.713,1.846,4.447
		c0,0.234-0.012,0.492-0.035,0.773c-0.094,0.938-0.369,1.945-0.826,3.023s-0.932,2.021-1.424,2.83s-1.049,1.629-1.67,2.461
		c-0.621,0.832-1.049,1.389-1.283,1.67c-0.234,0.281-0.422,0.492-0.563,0.633c-0.07,0.093-0.164,0.176-0.281,0.246
		c-0.07,0.022-0.129,0.035-0.176,0.035c-0.047,0-0.105-0.013-0.176-0.035C217.099,230.651,217.005,230.568,216.912,230.476z
		 M213.291,219.103c0,1.113,0.392,2.068,1.178,2.865c0.785,0.797,1.74,1.195,2.865,1.195s2.08-0.398,2.865-1.195
		c0.785-0.797,1.178-1.752,1.178-2.865s-0.393-2.068-1.178-2.865c-0.786-0.797-1.74-1.195-2.865-1.195s-2.08,0.398-2.865,1.195
		C213.683,217.034,213.291,217.989,213.291,219.103z"/>
</g>
</svg>
