<?xml version="1.0" encoding="utf-8"?>
<!-- Generator: Adobe Illustrator 17.0.0, SVG Export Plug-In . SVG Version: 6.00 Build 0)  -->
<!DOCTYPE svg PUBLIC "-//W3C//DTD SVG 1.1//EN" "http://www.w3.org/Graphics/SVG/1.1/DTD/svg11.dtd">
<svg version="1.1" id="Capa_1" xmlns="http://www.w3.org/2000/svg" xmlns:xlink="http://www.w3.org/1999/xlink" x="0px" y="0px"
	 width="18px" height="13.605px" viewBox="205.666 216.417 18 13.605" enable-background="new 205.666 216.417 18 13.605"
	 xml:space="preserve">
<g>
	<path fill="#A7A7A7" d="M212.767,227.913c-0.539,0-1.09-0.047-1.652-0.141c-1.148,0.703-2.695,1.055-4.641,1.055
		c0.609-0.75,1.09-1.57,1.441-2.461c-1.5-1.148-2.25-2.543-2.25-4.184c0-1.594,0.691-2.953,2.074-4.078s3.053-1.688,5.01-1.688
		s3.627,0.563,5.01,1.688s2.074,2.484,2.074,4.078c0,1.594-0.691,2.948-2.074,4.061
		C216.376,227.356,214.712,227.913,212.767,227.913z M223.666,224.784c0,1.359-0.563,2.543-1.688,3.551
		c0.281,0.586,0.633,1.137,1.055,1.652c-1.195,0-2.227-0.152-3.094-0.457c-0.867,0.329-1.77,0.492-2.707,0.492
		c-0.984,0-1.934-0.176-2.848-0.527c2.039-0.328,3.738-1.178,5.098-2.549s2.039-2.958,2.039-4.764c0-0.445-0.047-0.902-0.141-1.371
		C222.904,221.843,223.666,223.167,223.666,224.784z"/>
</g>
</svg>
