<?xml version="1.0" encoding="utf-8"?>
<!-- Generator: Adobe Illustrator 22.1.0, SVG Export Plug-In . SVG Version: 6.00 Build 0)  -->
<svg version="1.1" id="Слой_1" xmlns="http://www.w3.org/2000/svg" xmlns:xlink="http://www.w3.org/1999/xlink" x="0px" y="0px"
	 viewBox="0 0 152.2 56" style="enable-background:new 0 0 152.2 56;" xml:space="preserve">
<style type="text/css">
	.st0{fill:#FFFFFF;}
</style>
<g>
	<path class="st0" d="M124.1,56l-57-8.5V0h85.1v38.1L124.1,56z M69,45.7l54.4,8.2l26.7-16.7V2H69V45.7z"/>
</g>
<g>
	<path class="st0" d="M0,12.8h13.1v3.6H4.1v6.4h7.5v3.6H4.1v9.2H0L0,12.8L0,12.8z"/>
	<path class="st0" d="M16.2,12.8h4.1v3.6h-4.1V12.8z M16.2,19.2h4.1v16.3h-4.1V19.2z"/>
	<path class="st0" d="M24.6,19.2h3.9v1.9c0,0.6-0.1,1.2-0.1,1.2h0.1c0.7-1.4,2.5-3.5,5.8-3.5c3.6,0,5.7,1.9,5.7,6.2v10.5h-4.1v-9.7
		c0-2-0.5-3.3-2.6-3.3c-2.9,0-4.7,2.4-4.7,5.3v7.6h-4.1C24.6,35.6,24.6,19.2,24.6,19.2z"/>
	<path class="st0" d="M50.6,18.9c1.8,0,3.7,0.7,4.8,2.1h0.1c0,0-0.1-0.4-0.1-1v-7.2h4v22.7h-3.8v-1.4c0-0.6,0.1-1,0.1-1h-0.1
		c-1,1.7-2.8,2.8-5.2,2.8c-4.4,0-7.2-3.5-7.2-8.5C43.2,22.2,46.3,18.9,50.6,18.9z M51.4,32.5c2.1,0,4.1-1.5,4.1-5.2
		c0-2.5-1.3-5-4.1-5c-2.2,0-4.1,1.8-4.1,5.1C47.3,30.5,49,32.5,51.4,32.5z"/>
</g>
<g>
	<path class="st0" d="M76.7,32.9l10.1-14.5c0.9-1.3,1.7-2,1.7-2v-0.1c0,0-0.6,0.1-1.7,0.1h-9.5v-3.6h16.4v2.6L83.6,30
		c-0.9,1.3-1.7,2-1.7,2v0.1c0,0,0.6-0.1,1.7-0.1h10.2v3.6H76.7V32.9z"/>
	<path class="st0" d="M104.2,18.9c4.7,0,7.2,3.4,7.2,7.7c0,0.5-0.1,1.1-0.1,1.6H100c0.3,2.8,2.4,4.3,4.9,4.3c1.7,0,3.4-0.7,4.7-1.8
		l1.6,2.9c-1.7,1.5-4.2,2.3-6.6,2.3c-5.4,0-8.8-3.9-8.8-8.5C95.8,22.4,99.3,18.9,104.2,18.9z M107.3,25.4c0-2.2-1.4-3.5-3.3-3.5
		c-2.1,0-3.6,1.4-3.9,3.5H107.3z"/>
	<path class="st0" d="M114.8,19.2h3.9v1.9c0,0.6-0.1,1.2-0.1,1.2h0.1c0.8-1.6,2.8-3.5,5.3-3.5c2.5,0,4.1,1.2,4.7,3.4h0.1
		c0.9-1.7,3-3.4,5.6-3.4c3.4,0,5.3,1.9,5.3,6.2v10.5h-4v-9.7c0-1.9-0.4-3.3-2.2-3.3c-2.8,0-4.2,2.8-4.2,5.7v7.3h-4.1v-9.7
		c0-1.8-0.3-3.3-2.2-3.3c-2.8,0-4.2,2.9-4.2,5.7v7.3h-4.1L114.8,19.2L114.8,19.2z"/>
</g>
</svg>
