<svg width="60" height="34" viewBox="0 0 60 34" fill="none" xmlns="http://www.w3.org/2000/svg">
<path d="M8.44495 21.3035H5.48352L24.8351 0H27.7965L8.44495 21.3035Z" fill="#DAAC5F"/>
<path d="M18.8384 21.3035H12.0838L31.4354 0H38.19L18.8384 21.3035Z" fill="#DAAC5F"/>
<path d="M32.9547 13.3113H30.0403V16.2258H32.9547V13.3113Z" fill="#DAAC5F"/>
<path d="M37.7977 13.3113H34.8832V16.2258H37.7977V13.3113Z" fill="#DAAC5F"/>
<path d="M32.9547 17.8994H30.0403V20.8139H32.9547V17.8994Z" fill="#DAAC5F"/>
<path d="M37.7977 17.8994H34.8832V20.8139H37.7977V17.8994Z" fill="#DAAC5F"/>
<path d="M59.9799 32.0581C59.9799 32.0581 59.7451 31.9877 59.3058 31.8703C58.8664 31.7496 58.2158 31.602 57.3907 31.4243C55.7373 31.0755 53.3728 30.6696 50.5288 30.4114C49.1068 30.2806 47.5674 30.19 45.9441 30.1532C44.3175 30.1163 42.607 30.1397 40.8429 30.2269C39.9609 30.2705 39.0654 30.341 38.1599 30.4114C37.7071 30.455 37.2543 30.502 36.7982 30.5456C36.3421 30.5992 35.886 30.6529 35.4231 30.7065C34.9637 30.7568 34.5042 30.834 34.0414 30.8977C33.5785 30.9581 33.1191 31.0419 32.6562 31.1157C31.7306 31.2566 30.8049 31.4444 29.8826 31.6255L28.5008 31.9206C28.0414 32.0112 27.5852 32.1353 27.1291 32.2426L26.4449 32.4069C26.2035 32.4639 25.9653 32.521 25.7239 32.578C25.4891 32.6316 25.2577 32.6853 25.0229 32.739C24.7881 32.7926 24.5333 32.8396 24.2918 32.8932C24.0469 32.9435 23.8021 32.9938 23.5606 33.0442C23.3192 33.0878 23.0777 33.1314 22.8362 33.1716C22.5947 33.2152 22.3566 33.2554 22.1151 33.2923C21.8737 33.3259 21.6322 33.3594 21.3941 33.393C20.4349 33.5238 19.479 33.621 18.5366 33.6747C16.6518 33.7921 14.8105 33.7317 13.0833 33.5372C11.3527 33.3359 9.73952 32.9704 8.29402 32.5042C7.5763 32.2594 6.89212 32.0078 6.26495 31.7227C5.63778 31.4343 5.05086 31.1492 4.52096 30.8373C3.4578 30.2303 2.59921 29.5998 1.93516 29.0363C1.26774 28.4796 0.801563 27.9832 0.489656 27.6478C0.332027 27.4802 0.22135 27.3426 0.144212 27.2521C0.067074 27.1615 0.0301819 27.1146 0.0301819 27.1146C0.0301819 27.1146 0.234765 27.2487 0.620456 27.4902C1.00279 27.735 1.583 28.0671 2.32755 28.4427C3.07546 28.8183 3.99776 29.2275 5.0844 29.5931C6.16769 29.9653 7.41531 30.284 8.78703 30.5154C9.47456 30.6227 10.1923 30.73 10.9402 30.7803C11.3125 30.8172 11.6948 30.834 12.0771 30.8575C12.4662 30.8709 12.8552 30.8843 13.2543 30.8843C14.844 30.891 16.5243 30.7904 18.2515 30.5623C19.1135 30.4382 19.9922 30.3141 20.8742 30.1397C21.0956 30.0961 21.3169 30.0559 21.5383 30.0123C21.7596 29.9653 21.981 29.915 22.2057 29.8681C22.427 29.8211 22.6518 29.7742 22.8731 29.7272C23.0911 29.6736 23.3125 29.6233 23.5305 29.5696C23.7518 29.5159 23.9665 29.469 24.1945 29.4086C24.4259 29.3482 24.6573 29.2845 24.8888 29.2241L25.5662 29.0464L26.284 28.8653C27.2398 28.6137 28.2124 28.3991 29.1817 28.1912C30.1576 28.0101 31.1369 27.8222 32.1163 27.6847L32.8507 27.5774C33.0956 27.5439 33.3404 27.5204 33.5852 27.4902C34.0749 27.4399 34.5646 27.3728 35.0509 27.3359C35.5405 27.2957 36.0235 27.2487 36.5064 27.2186C36.9927 27.1951 37.4757 27.175 37.9519 27.1515C38.9111 27.1213 39.8569 27.1045 40.7893 27.1314C42.654 27.1682 44.4516 27.3158 46.1386 27.5372C47.8289 27.7619 49.412 28.0671 50.8541 28.4192C52.2963 28.7747 53.5942 29.1738 54.7278 29.5763C55.8614 29.9821 56.8239 30.3879 57.602 30.7568C58.3834 31.1191 58.9704 31.4544 59.3695 31.6791C59.7786 31.9173 59.9799 32.0581 59.9799 32.0581Z" fill="#81964E"/>
</svg>
