<?xml version="1.0" encoding="UTF-8"?><!DOCTYPE svg PUBLIC "-//W3C//DTD SVG 1.1//EN" "http://www.w3.org/Graphics/SVG/1.1/DTD/svg11.dtd"><svg xmlns="http://www.w3.org/2000/svg" xmlns:xlink="http://www.w3.org/1999/xlink"><defs>
<clipPath id="clip0_536_113">
<rect width="60" height="60" fill="white"/>
</clipPath>

<clipPath id="clip0_642_1057">
<rect width="60" height="60" fill="white"/>
</clipPath>

<clipPath id="clip0_551_3623">
<rect width="18" height="18" fill="white"/>
</clipPath>
</defs><symbol id="arrangement-1" viewBox="0 0 60 60"><g fill="none">
<path d="M1 60H36V58H22V38H42V40H44V37C44 36.9 44 36.8 43.9 36.7V36.6V36.5L38.9 28.5L37.2 29.6L38.1 31.1H33.5L31 27.1H35.6L35.9 27.6L37.6 26.5L33.9 20.5C33.7 20.2 33.3 20 33 20H11C10.7 20 10.3 20.2 10.2 20.4L0.2 36.4V36.5V36.6C0 36.8 0 36.9 0 37V42H2V38H20V58H17V43C17 42.4 16.6 42 16 42H6C5.4 42 5 42.4 5 43V58H2V44H0V59C0 59.6 0.4 60 1 60ZM19.3 25H14.7L12.8 22H17.4L19.3 25ZM19.8 22H25.4L27.3 25H21.7L19.8 22ZM20.6 27L23.1 31H18.5L16 27H20.6ZM24.3 33L26.2 36H21.6L19.7 33H24.3ZM26.7 33H32.3L34.2 36H28.6L26.7 33ZM39.3 33L41.2 36H36.6L34.7 33H39.3ZM31.1 31H25.5L23 27H28.6L31.1 31ZM34.3 25H29.7L27.8 22H32.4L34.3 25ZM2.8 36L11 22.9L19.2 36H2.8ZM7 44H15V58H7V44ZM34 9C34 6.8 32.2 5 30 5C27.8 5 26 6.8 26 9C26 11.2 27.8 13 30 13C32.2 13 34 11.2 34 9ZM30 11C28.9 11 28 10.1 28 9C28 7.9 28.9 7 30 7C31.1 7 32 7.9 32 9C32 10.1 31.1 11 30 11ZM31 1H30C29.4 1 29 1.4 29 2V4H31V3H32C32.6 3 33 2.6 33 2V0H31V1ZM29 17H30C30.6 17 31 16.6 31 16V14H29V15H28C27.4 15 27 15.4 27 16V18H29V17ZM37 12H39V10H38V9C38 8.4 37.6 8 37 8H35V10H36V11C36 11.6 36.4 12 37 12ZM22 9C22 9.6 22.4 10 23 10H25V8H24V7C24 6.4 23.6 6 23 6H21V8H22V9ZM34.2 6.2L35 5.5L35.7 6.2C36.1 6.6 36.7 6.6 37.1 6.2L38.5 4.8L37.1 3.4L36.4 4.1L35.7 3.4C35.3 3 34.7 3 34.3 3.4L32.9 4.8L34.2 6.2ZM23.6 13.9L24.3 14.6C24.7 15 25.3 15 25.7 14.6L27.1 13.2L25.7 11.8L25 12.5L24.3 11.8C23.9 11.4 23.3 11.4 22.9 11.8L21.5 13.2L22.9 14.6L23.6 13.9ZM36 13.9C36 13.6 35.9 13.4 35.7 13.2L34.3 11.8L32.9 13.2L33.6 13.9L32.9 14.6C32.5 15 32.5 15.6 32.9 16L34.3 17.4L35.7 16L35 15.4L35.7 14.7C35.8 14.5 35.9 14.2 36 13.9ZM24 4.1C24 4.4 24.1 4.6 24.3 4.8L25.7 6.2L27.1 4.8L26.4 4.1L27.1 3.4C27.5 3 27.5 2.4 27.1 2L25.7 0.6L24.3 2L25 2.7L24.3 3.4C24.2 3.5 24.1 3.8 24 4.1ZM47.2 4H46.9C45.3 4 44 5.3 44 6.8V7.1C44 8.7 45.3 9.9 46.8 9.9H53.1C54.7 9.9 55.9 8.6 55.9 7.1V6.8C56 5.3 54.7 4 53.2 4H52.9C52.3 2.4 50.6 1.6 49.1 2.2C48.1 2.5 47.5 3.1 47.2 4ZM49 5C49 4.4 49.4 4 50 4C50.6 4 51 4.4 51 5C51 5.6 51.4 6 52 6H53.2C53.6 6 54 6.4 54 6.8V7.1C54 7.6 53.6 8 53.2 8H46.9C46.4 8 46 7.6 46 7.2V6.8C46 6.4 46.4 6 46.8 6H48C48.6 6 49 5.6 49 5ZM12.8 4C12.3 2.4 10.6 1.6 9 2.2C8.1 2.5 7.5 3.1 7.2 4H6.8C5.3 4 4 5.3 4 6.8V7.1C4 8.7 5.3 10 6.8 10H13.1C14.7 10 15.9 8.7 15.9 7.2V6.8C16 5.3 14.7 4 13.2 4H12.8ZM14 6.8V7.1C14 7.6 13.6 8 13.2 8H6.8C6.4 8 6 7.6 6 7.2V6.8C6 6.4 6.4 6 6.8 6H8C8.6 6 9 5.6 9 5C9 4.4 9.4 4 10 4C10.6 4 11 4.4 11 5C11 5.6 11.4 6 12 6H13.2C13.6 6 14 6.4 14 6.8Z" fill="#81964D"/>
<path d="M59 44H56V42H54V44H42V42H40V44H37C36.4 44 36 44.4 36 45V49C36 49.6 36.4 50 37 50H38V59C38 59.6 38.4 60 39 60H57C57.6 60 58 59.6 58 59V50H59C59.6 50 60 49.6 60 49V45C60 44.4 59.6 44 59 44ZM58 48H57C56.4 48 56 48.4 56 49V58H40V49C40 48.4 39.6 48 39 48H38V46H58V48Z" fill="#81964D"/>
<path d="M46 53H48.1L47.1 54.4C46.8 54.9 46.9 55.5 47.4 55.8C47.9 56.1 48.5 56 48.8 55.5L50.8 52.5C51.1 52 51 51.4 50.5 51.1C50.4 51.1 50.2 51 50 51H47.9L48.9 49.6C49.2 49.1 49.1 48.5 48.6 48.2C48.1 47.9 47.5 48 47.2 48.5L45.2 51.5C44.9 52 45 52.6 45.5 52.9C45.6 52.9 45.8 53 46 53ZM25 42C24.4 42 24 42.4 24 43V51C24 51.6 24.4 52 25 52H33C33.6 52 34 51.6 34 51V43C34 42.4 33.6 42 33 42H25ZM32 50H26V44H32V50Z" fill="#81964D"/>
</g></symbol><symbol id="arrangement-10" viewBox="0 0 60 60"><g fill="none">
<path d="M11.8 7.2998C9.49998 7.2998 7.59998 9.1998 7.59998 11.4998C7.59998 13.7998 9.49998 15.6998 11.8 15.6998C14.1 15.6998 16 13.7998 16 11.4998C16 9.1998 14.1 7.2998 11.8 7.2998ZM11.8 13.6998C10.6 13.6998 9.59998 12.6998 9.59998 11.4998C9.59998 10.2998 10.6 9.2998 11.8 9.2998C13 9.2998 14 10.2998 14 11.4998C14 12.6998 13 13.6998 11.8 13.6998Z" fill="#81964D"/>
<path d="M11.8 2.6001C11.2 2.6001 10.8 3.1001 10.8 3.6001V5.8001C10.8 6.4001 11.3 6.8001 11.8 6.8001C12.1 6.8001 12.3 6.7001 12.5 6.5001C12.7 6.3001 12.8 6.1001 12.8 5.8001V3.6001C12.8 3.1001 12.3 2.6001 11.8 2.6001Z" fill="#81964D"/>
<path d="M11.8 16.2002C11.2 16.2002 10.8 16.7002 10.8 17.2002V19.4002C10.8 20.0002 11.3 20.4002 11.8 20.4002C12.1 20.4002 12.3 20.3002 12.5 20.1002C12.7 19.9002 12.8 19.7002 12.8 19.4002V17.2002C12.8 16.7002 12.3 16.2002 11.8 16.2002Z" fill="#81964D"/>
<path d="M6.10002 10.5H3.90002C3.30002 10.5 2.90002 11 2.90002 11.5C2.90002 12 3.40002 12.5 3.90002 12.5H6.10002C6.40002 12.5 6.60002 12.4 6.80002 12.2C7.00002 12 7.10002 11.8 7.10002 11.5C7.10002 11 6.60002 10.5 6.10002 10.5Z" fill="#81964D"/>
<path d="M19.7 10.5H17.5C16.9 10.5 16.5 11 16.5 11.5C16.5 12 17 12.5 17.5 12.5H19.7C20.3 12.5 20.7 12 20.7 11.5C20.7 11 20.2 10.5 19.7 10.5Z" fill="#81964D"/>
<path d="M18.1 5.1999C17.7 4.7999 17.1 4.7999 16.7 5.1999L15.2 6.6999C15 6.8999 14.9 7.0999 14.9 7.3999C14.9 7.6999 15 7.8999 15.2 8.0999C15.4 8.2999 15.6 8.3999 15.9 8.3999C16.2 8.3999 16.4 8.2999 16.6 8.0999L18.1 6.5999C18.3 6.3999 18.4 6.1999 18.4 5.8999C18.3 5.6999 18.2 5.3999 18.1 5.1999Z" fill="#81964D"/>
<path d="M8.40001 14.8C8.00001 14.4 7.40001 14.4 7.00001 14.8L5.50001 16.3C5.30001 16.5 5.20001 16.7 5.20001 17C5.20001 17.3 5.30001 17.5 5.50001 17.7C5.70001 17.9 5.90001 18 6.20001 18C6.50001 18 6.70001 17.9 6.90001 17.7L8.40001 16.2C8.60001 16 8.70001 15.8 8.70001 15.5C8.70001 15.3 8.60001 15 8.40001 14.8Z" fill="#81964D"/>
<path d="M8.40001 6.7999L6.90001 5.1999C6.70001 4.9999 6.50001 4.8999 6.20001 4.8999C5.90001 4.8999 5.70001 4.9999 5.50001 5.1999C5.30001 5.3999 5.20001 5.6999 5.20001 5.8999C5.20001 6.1999 5.30001 6.3999 5.50001 6.5999L7.00001 8.1999C7.20001 8.3999 7.40001 8.4999 7.70001 8.4999C8.00001 8.4999 8.20001 8.3999 8.40001 8.1999C8.60001 7.9999 8.70001 7.6999 8.70001 7.4999C8.70001 7.1999 8.60001 6.8999 8.40001 6.7999Z" fill="#81964D"/>
<path d="M18.1 16.4001L16.6 14.9001C16.2 14.5001 15.6 14.5001 15.2 14.9001C14.8 15.3001 14.8 15.9001 15.2 16.3001L16.7 17.8001C16.9 18.0001 17.1 18.1001 17.4 18.1001C17.7 18.1001 17.9 18.0001 18.1 17.8001C18.3 17.6001 18.4 17.4001 18.4 17.1001C18.4 16.8001 18.2 16.6001 18.1 16.4001Z" fill="#81964D"/>
<path d="M58.9 58H58C57.4 56 55.6 54.6 53.5 54.4C52.7 52.4 50.8 51.1 48.6 51.1C48.1 51.1 47.6 51.2 47.1 51.3C46.3 50.3 45.2 49.7 44 49.5V45.6C50.3 45.1 55.1 39.8 55.1 33.5C55.1 20.2 48.5 6.1 43.8 0.3C43.7 0.1 43.4 0 43.1 0C42.8 0 42.5 0.1 42.3 0.4C41 2 39.5 4.2 38.2 6.8C37.3 5.1 35.6 4.1 33.6 4.1C31.1 4.1 29 5.8 28.5 8.3C26.8 8.7 25.7 10.2 25.7 12C25.7 14.1 27.4 15.8 29.5 15.8H34.4C32.1 21.9 31 28 31 33.6C31 39.9 35.9 45.2 42.1 45.7V49.7C40.2 50.1 38.7 51.5 38.2 53.4C35.8 53.7 33.9 55.7 33.7 58.1H31C32.2 56.9 33 55.2 33 53.4C33 49.8 30.1 46.8 26.4 46.8C25.8 46.8 25.3 46.9 24.8 47L23.2 43.2H25.2C25.3 43.2 25.4 43.3 25.4 43.4C25.4 43.5 25.3 43.6 25.2 43.6C24.6 43.6 24.2 44.1 24.2 44.6C24.2 45.1 24.7 45.6 25.2 45.6C26.4 45.6 27.4 44.6 27.4 43.4C27.4 42.2 26.4 41.2 25.2 41.2H21.7H21.5C21.5 41.2 21.4 41.2 21.3 41.3C21.2 41.3 21.1 41.4 21 41.5C21 41.5 20.9 41.6 20.9 41.7C20.9 41.7 20.8 41.8 20.8 41.9C20.8 42 20.7 42.1 20.7 42.1V42.2V42.4V42.5V42.8H20.8L21.1 43.5H14.7L14.6 43.2H15C15.6 43.2 16 42.7 16 42.2C16 41.7 15.5 41.2 15 41.2H11.2C10.6 41.2 10.2 41.7 10.2 42.2C10.2 42.7 10.7 43.2 11.2 43.2H12.4L12.9 44.4L11.2 47.2C10.4 46.9 9.6 46.7 8.8 46.7C5.2 46.7 2.2 49.6 2.2 53.3C2.2 55 2.9 56.7 4.2 58H1C0.4 58 0 58.5 0 59C0 59.5 0.5 60 1 60H58.9C59.5 60 59.9 59.5 59.9 59C59.9 58.4 59.5 58 58.9 58ZM36.8 9.5C36.2 10.9 35.5 12.3 35 13.7H29.4C28.4 13.7 27.6 12.9 27.6 11.9C27.6 10.9 28.4 10.1 29.3 10.1C29.8 10.1 30.3 9.7 30.3 9.1C30.4 7.4 31.8 6 33.5 6C35.2 6 36.6 7.4 36.7 9.1C36.8 9.3 36.8 9.4 36.8 9.5ZM43.2 51.5C44.3 51.5 45.4 52.1 46 53.1C46.3 53.5 46.8 53.7 47.3 53.5C47.7 53.3 48.2 53.2 48.7 53.2C50.2 53.2 51.5 54.2 51.9 55.7C52 56.2 52.5 56.5 52.9 56.5H53.1C54.3 56.5 55.3 57.1 55.9 58.1H35.7C36 56.6 37.3 55.4 39 55.4C39.5 55.4 40 55 40.1 54.5C40.2 52.7 41.6 51.5 43.2 51.5ZM44.1 43.6V39.5L48 35.6C48.2 35.4 48.3 35.2 48.3 34.9C48.3 34.6 48.2 34.4 48 34.2C47.8 34 47.6 33.9 47.3 33.9C47 33.9 46.8 34 46.6 34.2L44.1 36.7V24.4C44.1 23.8 43.6 23.4 43.1 23.4C42.6 23.4 42.1 23.9 42.1 24.4V31.9L39.6 29.4C39.4 29.2 39.2 29.1 38.9 29.1C38.6 29.1 38.4 29.2 38.2 29.4C37.8 29.8 37.8 30.4 38.2 30.8L42.1 34.7V43.6C37 43.1 33 38.7 33 33.5C33 26.3 35 19.5 36.7 15.1V15C37.4 13.2 38.2 11.3 39 9.6C40.3 6.9 41.7 4.5 43.1 2.6C47.1 8.1 53.2 21 53.2 33.5C53.2 38.8 49.2 43.1 44.1 43.6ZM13.2 52.3H10.5L11.9 50C12.6 50.7 13 51.5 13.2 52.3ZM20.9 49.8L22.5 46.8L22.9 47.8C22.1 48.3 21.4 49 20.9 49.8ZM17.9 51L15.5 45.5H20.9L17.9 51ZM15.3 52.3C15.1 50.7 14.2 49.3 13 48.3L13.9 46.7L16.3 52.3H15.3ZM15.3 54.3H17.9C18.3 54.3 18.6 54.1 18.8 53.8L20.5 50.6C20.1 51.4 19.9 52.3 19.9 53.3C19.9 55 20.6 56.7 21.9 58H13.5C14.4 57 15.1 55.7 15.3 54.3ZM23.7 49.7L25.5 53.8C25.7 54.3 26.3 54.5 26.8 54.3C27 54.2 27.2 54 27.3 53.7C27.4 53.5 27.4 53.2 27.3 52.9L25.5 48.8C28.3 48.3 30.9 50.5 30.9 53.3C30.9 55.8 28.9 57.8 26.4 57.8C23.9 57.8 21.9 55.8 21.9 53.3C21.9 51.9 22.6 50.5 23.7 49.7ZM7.9 52.8C7.7 53.1 7.7 53.5 7.9 53.8C8.1 54.1 8.4 54.3 8.8 54.3H13.2C12.7 56.3 10.9 57.8 8.8 57.8C7.6 57.8 6.4 57.3 5.6 56.5C4.7 55.6 4.3 54.5 4.3 53.3C4.3 50.8 6.3 48.8 8.8 48.8C9.3 48.8 9.7 48.9 10.2 49L7.9 52.8Z" fill="#81964D"/>
<path d="M25.1 23.9002C24.6 21.7002 22.7 20.2002 20.5 20.2002C18.3 20.2002 16.3 21.8002 15.9 23.9002C14.4 24.3002 13.4 25.7002 13.4 27.2002C13.4 29.1002 15 30.7002 16.9 30.7002H24.3C26.2 30.7002 27.8 29.2002 27.8 27.2002C27.7 25.7002 26.6 24.4002 25.1 23.9002ZM25.7 27.3002C25.7 28.1002 25.1 28.7002 24.3 28.7002H16.9C16.1 28.7002 15.5 28.1002 15.5 27.3002C15.5 26.5002 16.1 25.9002 16.9 25.9002C17.4 25.9002 17.9 25.5002 17.9 24.9002C18 23.4002 19.2 22.3002 20.6 22.3002C22.1 22.3002 23.3 23.5002 23.3 24.9002C23.3 25.4002 23.8 25.9002 24.3 25.9002C25 25.8002 25.7 26.5002 25.7 27.3002Z" fill="#81964D"/>
</g></symbol><symbol id="arrangement-2" viewBox="0 0 60 60"><g fill="none">
<path fill-rule="evenodd" clip-rule="evenodd" d="M59 0C51.2 0 43.6 1.5 36.4 4.5C29.2 7.5 22.8 11.8 17.3 17.3C11.8 22.8 7.5 29.2 4.5 36.4C1.5 43.6 0 51.2 0 59C0 59.6 0.5 60 1 60C1.6 60 2 59.5 2 59C2 51.5 3.5 44.2 6.3 37.2C9.2 30.3 13.3 24 18.6 18.7C23.9 13.4 30.2 9.3 37.2 6.4C44.1 3.5 51.5 2 59 2C59.6 2 60 1.5 60 1C60 0.5 59.5 0 59 0Z" fill="#81964D"/>
<path d="M35.3 19.3999L36.4 21.0999C38.2 20.0999 40 19.0999 41.9 18.2999L41.1 16.3999C39.2 17.2999 37.2 18.2999 35.3 19.3999Z" fill="#81964D"/>
<path d="M59 29C55 29 51.2 29.8 47.5 31.3C43.8 32.8 40.6 35 37.8 37.8C35 40.6 32.8 43.9 31.3 47.5C29.7 51.2 29 55 29 59C29 59.6 29.5 60 30 60C30.5 60 31 59.5 31 59C31 55.3 31.7 51.7 33.1 48.3C34.5 44.9 36.5 41.8 39.2 39.2C41.8 36.6 44.9 34.6 48.3 33.1C51.7 31.7 55.3 31 59 31C59.6 31 60 30.5 60 30C60 29.5 59.5 29 59 29Z" fill="#81964D"/>
<path d="M52.2 13.3999C51.3 13.4999 50.4 13.6999 49.6 13.8999L50 15.8999C50.8 15.6999 51.6 15.5999 52.5 15.4999L52.2 13.3999Z" fill="#81964D"/>
<path d="M13.2 53.5999L15.2 53.7999C15.3 52.9999 15.4 52.0999 15.6 51.2999L13.6 50.8999C13.4 51.8999 13.3 52.6999 13.2 53.5999Z" fill="#81964D"/>
<path d="M29.6 26.1997L28.3 24.6997C27.5 25.3997 26.7 26.1997 26 26.9997C25.2 27.7997 24.5 28.5997 23.8 29.3997L25.4 30.6997C26.1 29.8997 26.8 29.0997 27.5 28.3997C28.1 27.5997 28.8 26.8997 29.6 26.1997Z" fill="#81964D"/>
<path d="M18.7 36.6001C17.6 38.5001 16.7 40.5001 16 42.5001L17.9 43.2001C18.6 41.3001 19.5 39.4001 20.5 37.6001L18.7 36.6001Z" fill="#81964D"/>
</g></symbol><symbol id="arrangement-3" viewBox="0 0 61 60"><g fill="none">
<path d="M59.0214 57.9959H50.4036V55.7913C50.4036 55.1901 49.9026 54.7893 49.4016 54.7893C48.9005 54.7893 48.3995 55.2903 48.3995 55.7913V57.9959H46.0948V43.5662H46.195C46.4956 43.7666 46.7962 43.967 47.197 44.0672L47.4977 44.1674C47.6981 44.2676 47.9987 44.3678 48.1991 44.468H48.2993V51.3823C48.2993 51.9835 48.8003 52.3843 49.3014 52.3843C49.8024 52.3843 50.3034 51.8833 50.3034 51.3823V44.969H50.604C55.3137 44.8688 59.1216 40.9608 59.0214 36.2511C59.0214 35.249 58.821 34.247 58.5203 33.3451C60.6247 30.9402 60.3241 27.3327 58.0193 25.1282C59.823 22.4226 59.1216 18.715 56.3158 16.8111C56.3158 16.8111 56.2156 16.8111 56.2156 16.7109C56.1154 14.8069 55.0131 13.2036 53.3096 12.5022C53.4098 12.1014 53.4098 11.7005 53.4098 11.1995C53.51 9.3958 52.8086 7.7925 51.6061 6.48981C50.4036 5.18713 48.8003 4.48569 46.9966 4.38548C46.8964 4.38548 46.7962 4.38548 46.7962 4.38548C43.4894 4.38548 40.5834 6.89064 40.2828 10.2977C39.9822 10.3979 39.7818 10.4981 39.4811 10.5983H39.3809V10.4981C38.8799 8.49394 37.2766 6.99085 35.2725 6.59002C35.0721 4.58589 34.07 2.88239 32.4667 1.5797C30.8634 0.377227 28.9595 -0.224011 26.9554 0.076608C22.8469 0.57764 19.9409 4.28527 20.4419 8.39373C20.4419 8.59415 20.5421 8.79456 20.5421 8.99497C20.2415 9.09518 19.9409 9.29559 19.6403 9.496H19.5401V9.3958C18.8386 6.38961 16.2333 4.28527 13.1269 4.28527C9.41924 4.38548 6.51326 7.39167 6.51326 11.0993C6.51326 11.5001 6.51326 11.901 6.61346 12.402C4.90996 13.1034 3.80769 14.8069 3.70748 16.6107C2.4048 17.5125 1.40274 18.8152 1.10212 20.3183C0.701291 22.0218 1.00191 23.6251 1.90377 24.9278C1.90377 24.9278 1.90377 25.028 2.00397 25.028C-0.300772 27.2325 -0.601391 30.7397 1.50294 33.2449C1.20232 34.1468 1.00191 35.1488 1.00191 36.1509C0.901704 40.9608 4.70954 44.8688 9.41924 44.969H9.71986V57.9959H7.51532C6.91408 57.9959 6.51326 58.4969 6.51326 58.9979C6.51326 59.499 7.01429 60 7.51532 60H59.0214C59.6226 60 60.0234 59.499 60.0234 58.9979C60.0234 58.4969 59.6226 57.9959 59.0214 57.9959ZM13.9285 57.9959H11.724V44.5682H11.8242C12.0246 44.468 12.225 44.3678 12.5256 44.2676L12.8263 44.1674C13.1269 43.967 13.5277 43.8668 13.8283 43.6664H13.9285V57.9959ZM13.8283 40.9608C13.6279 41.1612 13.3273 41.4618 13.1269 41.6622C12.3252 42.2635 11.4234 42.6643 10.5215 42.8647C10.1207 42.9649 9.82007 42.9649 9.41924 42.9649C5.81181 42.8647 2.90583 39.8585 3.00604 36.2511C3.00604 35.3492 3.20645 34.3472 3.60727 33.5455C3.80769 33.1447 3.70748 32.6437 3.40686 32.3431C1.80356 30.9402 1.70335 28.435 3.20645 26.9319C3.50707 26.6313 3.80769 26.4309 4.10831 26.2305C4.40893 26.03 4.60934 25.8296 4.60934 25.4288C4.60934 25.1282 4.50913 24.8276 4.30872 24.527C3.40686 23.7253 3.00604 22.8234 3.00604 21.7212C3.00604 20.7191 3.40686 19.7171 4.10831 18.9154C4.40893 18.6148 4.80975 18.3142 5.21058 18.1137C5.6114 17.9133 5.81181 17.5125 5.81181 17.1117V16.9113V16.8111C5.81181 15.4082 6.71367 14.3059 8.11656 14.0053C8.41718 14.0053 8.7178 13.8049 8.818 13.5043C9.01842 13.3038 9.01842 13.0032 8.91821 12.7026C8.7178 12.2016 8.61759 11.6003 8.61759 11.0993C8.61759 9.89683 9.01842 8.69435 9.92027 7.7925C10.8221 6.89064 11.9244 6.38961 13.2271 6.38961C15.8324 6.48981 17.8366 8.59415 17.8366 11.1995C17.8366 11.2997 17.8366 11.3999 17.9368 11.6003C17.9368 11.7005 17.8366 11.8007 17.8366 11.901C17.8366 11.901 17.8366 12.0012 17.7364 12.0012V12.1014C17.6362 12.3018 17.536 12.6024 17.536 12.8028V13.0032C17.536 13.3038 17.4357 13.5043 17.4357 13.8049C15.4316 14.9071 14.1289 17.0115 14.1289 19.3162C14.1289 20.6189 14.5298 21.9216 15.3314 23.0239C13.9285 24.2263 13.1269 26.03 13.1269 27.8338C13.1269 28.2346 13.1269 28.7356 13.2271 29.1364C13.4275 29.9381 13.7281 30.6395 14.1289 31.341V35.3492C14.1289 35.7501 14.1289 36.1509 14.2291 36.5517C14.2291 36.6519 14.2291 36.7521 14.2291 36.7521C14.3294 37.153 14.3294 37.4536 14.4296 37.8544L14.5298 38.0548C14.63 38.4556 14.7302 38.7563 14.9306 39.1571C15.0308 39.5579 15.2312 39.8585 15.4316 40.2593L15.5318 40.4598C15.7322 40.7604 15.8324 40.9608 16.0329 41.2614L16.1331 41.4618L15.3314 40.9608C14.7302 40.56 14.2291 40.6602 13.8283 40.9608ZM31.164 57.9959H28.9595V49.3781C28.9595 48.7769 28.4584 48.3761 27.9574 48.3761C27.4564 48.3761 26.9554 48.8771 26.9554 49.3781V57.9959H16.0329V43.466H16.1331C17.1351 43.8668 18.2374 43.967 19.3397 43.8668C20.6424 44.5682 22.1454 44.8688 23.6485 44.969C24.7508 44.969 25.8531 44.7686 26.8551 44.3678H26.9554V44.969C26.9554 45.5703 27.4564 45.9711 27.9574 45.9711C28.4584 45.9711 28.9595 45.4701 28.9595 44.969V43.2655C29.2601 43.0651 29.4605 42.8647 29.7611 42.6643C30.162 42.8647 30.5628 43.0651 30.9636 43.1653H31.164V57.9959ZM30.162 40.56C29.7611 40.2593 29.2601 40.3596 28.8593 40.6602C28.3582 41.061 27.8572 41.4618 27.3562 41.8627C26.1537 42.5641 24.851 42.8647 23.5483 42.8647C22.3459 42.8647 21.0432 42.5641 19.9409 41.9629C17.536 40.6602 15.9327 38.0548 15.9327 35.3492V31.0404C15.9327 30.84 15.8324 30.6395 15.7322 30.4391C15.3314 29.9381 15.131 29.3369 14.9306 28.7356C14.8304 28.435 14.8304 28.1344 14.8304 27.8338C14.8304 26.2305 15.7322 24.8276 17.1351 24.0259C17.3355 23.9257 17.536 23.7253 17.6362 23.4247C17.7364 23.1241 17.6362 22.9237 17.536 22.623C17.4357 22.5228 17.4357 22.4226 17.3355 22.3224C16.4337 21.5208 15.9327 20.3183 15.9327 19.1158C15.9327 17.4123 16.9347 15.809 18.538 15.1076C18.9388 14.9071 19.2395 14.5063 19.1393 14.1055V13.9051V13.8049C19.1393 13.6045 19.1393 13.4041 19.1393 13.2036C19.2395 12.6024 19.5401 12.1014 19.8407 11.7005C20.3417 11.0993 21.0432 10.6985 21.8448 10.5983C22.1454 10.5983 22.4461 10.3979 22.5463 10.0972C22.7467 9.79662 22.7467 9.496 22.6465 9.19538C22.4461 8.59415 22.3459 7.99291 22.3459 7.29146C22.3459 4.28527 24.7508 1.88032 27.757 1.88032C30.7632 1.88032 33.1681 4.28527 33.1681 7.29146C33.1681 7.8927 33.6692 8.29353 34.1702 8.29353C35.9739 8.29353 37.477 9.79662 37.477 11.6003C37.477 11.8007 37.477 11.901 37.477 12.1014C37.3768 12.402 37.3768 12.7026 37.1764 13.0032C36.976 13.5043 37.0762 14.0053 37.5772 14.3059C38.8799 15.1076 39.5813 16.5104 39.5813 18.0135C39.5813 18.715 39.3809 19.4164 39.0803 20.0177C39.0803 20.4185 39.0803 20.7191 39.0803 21.0197C39.1805 21.3204 39.3809 21.5208 39.5813 21.621C40.2828 22.0218 40.7838 22.7232 40.7838 23.5249C40.7838 23.8255 40.6836 24.1261 40.5834 24.4267C40.4832 24.7274 40.4832 25.028 40.5834 25.2284C40.6836 25.529 40.9842 25.7294 41.1847 25.8296C42.7879 26.3307 44.1908 27.6334 44.6919 29.2367C44.8923 29.8379 44.9925 30.4391 44.9925 31.0404C44.9925 33.0445 43.79 34.9484 41.9863 35.8503C41.6857 35.9505 41.5855 36.1509 41.4853 36.4515C40.884 38.5558 39.3809 40.2593 37.3768 41.061C35.7735 41.7624 34.07 41.9629 32.3665 41.4618C31.665 41.3616 30.8634 41.061 30.162 40.56ZM43.9904 57.9959H33.1681V43.7666H33.2683C34.7714 43.967 36.3747 43.7666 37.8778 43.1653C39.7818 44.0672 41.9863 44.1674 43.9904 43.466H44.0906V57.9959H43.9904ZM45.6939 40.7604C45.5937 40.7604 45.4935 40.7604 45.4935 40.7604H45.1929C45.0927 40.7604 44.9925 40.8606 44.8923 40.8606L44.5917 41.061C43.289 41.7624 41.7859 42.0631 40.383 41.7624H40.2828L40.383 41.6622L40.4832 41.562C40.6836 41.3616 40.9842 41.1612 41.1847 40.9608C41.1847 40.8606 41.2849 40.8606 41.2849 40.8606C41.2849 40.8606 41.2849 40.8606 41.3851 40.8606C41.6857 40.56 41.8861 40.2593 42.0865 39.9587L42.2869 39.7583C42.4873 39.4577 42.6877 39.2573 42.788 38.9567L42.9884 38.656C43.1888 38.3554 43.289 37.9546 43.4894 37.5538C45.7941 36.2511 47.197 33.7459 47.2972 31.0404C47.2972 28.1344 45.5937 25.529 42.9884 24.2263C42.9884 24.0259 43.0886 23.7253 43.0886 23.5249C43.0886 22.3224 42.5875 21.1199 41.6857 20.3183C41.9863 19.6168 42.0865 18.9154 42.0865 18.214C42.0865 16.31 41.1847 14.5063 39.7818 13.3038C39.7818 13.2036 39.882 13.1034 39.882 13.0032C40.383 12.5022 40.9842 12.2016 41.6857 12.2016C42.2869 12.2016 42.6877 11.7005 42.6877 11.1995C42.6877 8.69435 44.6919 6.59002 47.2972 6.59002C49.8024 6.59002 51.9067 8.59415 51.9067 11.1995C51.9067 11.8007 51.8065 12.3018 51.6061 12.8028C51.5059 13.1034 51.5059 13.4041 51.7063 13.7047C51.9067 14.0053 52.1071 14.1055 52.4078 14.2057C53.7104 14.4061 54.7125 15.6086 54.7125 17.0115V17.1117V17.3121C54.7125 17.7129 54.9129 18.1137 55.3137 18.3142C57.2177 19.216 58.1195 21.5208 57.2177 23.5249C57.0173 23.9257 56.7166 24.3265 56.416 24.6272C56.2156 24.8276 56.1154 25.1282 56.1154 25.529C56.1154 25.8296 56.3158 26.1303 56.6164 26.3307C58.4201 27.4329 59.0214 29.7377 58.0193 31.6416C57.8189 31.9422 57.6185 32.2428 57.3179 32.5435C57.0173 32.8441 56.917 33.3451 57.1175 33.7459C57.5183 34.6478 57.7187 35.5497 57.7187 36.4515C57.8189 40.0589 54.9129 43.0651 51.3055 43.1653C50.9047 43.1653 50.604 43.1653 50.2032 43.0651C48.1991 42.5641 46.9966 41.9629 46.0948 40.9608C45.9946 40.8606 45.8943 40.7604 45.7941 40.7604H45.6939Z" fill="#81964D"/>
<path d="M50.4038 26.7313C52.7085 26.7313 54.6125 24.8274 54.6125 22.5226C54.6125 20.2179 52.7085 18.314 50.4038 18.314C49.8026 18.314 49.4017 18.815 49.4017 19.316C49.4017 19.8171 49.9028 20.3181 50.4038 20.3181C51.6063 20.3181 52.6083 21.3202 52.6083 22.5226C52.6083 23.7251 51.6063 24.7272 50.4038 24.7272C49.8026 24.7272 49.4017 25.2282 49.4017 25.7292C49.4017 26.2303 49.9028 26.7313 50.4038 26.7313Z" fill="#81964D"/>
<path d="M30.2624 5.28722L30.1622 5.18701C29.5609 4.58578 28.7593 4.28516 27.9576 4.28516H27.8574C27.0558 4.28516 26.2541 4.68598 25.6529 5.28722C24.5506 6.4897 24.5506 8.39362 25.6529 9.59609C25.8533 9.7965 26.0537 9.89671 26.3543 9.89671C26.6549 9.89671 26.8554 9.7965 27.0558 9.59609C27.4566 9.19527 27.4566 8.59403 27.0558 8.1932C26.8554 7.99279 26.7551 7.69217 26.7551 7.39155C26.7551 7.09093 26.8554 6.79031 27.0558 6.5899C27.4566 6.18908 28.2582 6.18908 28.6591 6.5899C28.8595 6.89052 29.0599 6.99073 29.3605 6.99073C29.6611 6.99073 29.8615 6.89052 30.062 6.79031C30.2624 6.5899 30.3626 6.38949 30.4628 6.08887C30.563 5.78825 30.3626 5.48763 30.2624 5.28722Z" fill="#81964D"/>
<path d="M37.5774 35.3495C39.8821 35.3495 41.786 33.4455 41.786 31.1408C41.786 28.8361 39.8821 26.9321 37.5774 26.9321C36.9761 26.9321 36.5753 27.4332 36.5753 27.9342C36.5753 28.4352 37.0763 28.9363 37.5774 28.9363C38.7799 28.9363 39.7819 29.9383 39.7819 31.1408C39.7819 32.3433 38.7799 33.3453 37.5774 33.3453C36.9761 33.3453 36.5753 33.8464 36.5753 34.3474C36.5753 34.8484 36.9761 35.3495 37.5774 35.3495Z" fill="#81964D"/>
<path d="M1.00206 60.0002H3.1064C3.70763 60.0002 4.10846 59.4992 4.10846 58.9982C4.10846 58.4971 3.60743 57.9961 3.1064 57.9961H1.00206C0.400825 57.9961 0 58.4971 0 58.9982C0 59.4992 0.501032 60.0002 1.00206 60.0002Z" fill="#81964D"/>
<path d="M9.6198 32.1426C7.31505 32.1426 5.41113 34.0465 5.41113 36.3512C5.41113 38.656 7.31505 40.5599 9.6198 40.5599C10.221 40.5599 10.6219 40.0589 10.6219 39.5578C10.6219 39.0568 10.1208 38.5558 9.6198 38.5558C8.41732 38.5558 7.41526 37.5537 7.41526 36.3512C7.41526 35.1488 8.41732 34.1467 9.6198 34.1467C10.221 34.1467 10.6219 33.6457 10.6219 33.1446C10.6219 32.6436 10.221 32.1426 9.6198 32.1426Z" fill="#81964D"/>
<path d="M23.5485 15.0073C21.2438 15.0073 19.3398 16.9112 19.3398 19.216C19.3398 21.5207 21.2438 23.4247 23.5485 23.4247C24.1497 23.4247 24.5506 22.9236 24.5506 22.4226C24.5506 21.9216 24.0495 21.4205 23.5485 21.4205C22.346 21.4205 21.344 20.4185 21.344 19.216C21.344 18.0135 22.346 17.0115 23.5485 17.0115C24.1497 17.0115 24.5506 16.5104 24.5506 16.0094C24.5506 15.5084 24.1497 15.0073 23.5485 15.0073Z" fill="#81964D"/>
</g></symbol><symbol id="arrangement-4" viewBox="0 0 60 60"><g fill="none">
<g clip-path="url(#clip0_536_113)">
<path d="M25.1 27.8999C23 27.8999 21.2 29.5999 21.2 31.7999C21.2 33.9999 22.9 35.6999 25.1 35.6999C27.3 35.6999 29 33.9999 29 31.7999C29 29.5999 27.3 27.8999 25.1 27.8999ZM25.1 33.6999C24 33.6999 23.2 32.7999 23.2 31.7999C23.2 30.6999 24.1 29.8999 25.1 29.8999C26.2 29.8999 27 30.7999 27 31.7999C27.1 32.7999 26.2 33.6999 25.1 33.6999ZM47.9 10.1999C43.6 9.39986 39.3 7.99986 35.4 5.89986C32.8 4.49986 30.3 2.89986 28 0.999859C26.3 -0.400141 23.9 -0.400141 22.1 0.899859C19.8 2.59986 17.3 4.19986 14.8 5.49986C10.8 7.59986 6.6 9.09986 2.3 10.0999C0.9 10.4999 0 11.5999 0 12.9999V28.7999C0.1 43.6999 10.4 56.5999 24.9 59.9999C25 59.9999 25.1 59.9999 25.2 59.9999C25.3 59.9999 25.3 59.9999 25.4 59.9999C39.9 56.6999 50.3 43.7999 50.3 28.8999V13.0999C50.3 11.6999 49.3 10.4999 47.9 10.1999ZM48.3 28.7999C48.2 42.6999 38.6 54.7999 25.1 57.9999C11.6 54.7999 2 42.7999 1.9 28.7999V12.9999C1.9 12.5999 2.2 12.1999 2.6 12.0999C7.1 11.0999 11.5 9.49986 15.6 7.29986C18.3 5.89986 20.8 4.29986 23.2 2.49986C24.2 1.69986 25.7 1.69986 26.7 2.49986C29.1 4.39986 31.7 6.09986 34.4 7.59986C38.5 9.69986 42.9 11.2999 47.5 12.0999C48 12.1999 48.3 12.5999 48.3 12.9999V28.7999ZM31.9 23.9999H30.9V22.0999C30.9 18.8999 28.3 16.2999 25.1 16.2999C21.9 16.2999 19.3 18.8999 19.3 22.0999V23.9999H18.3C16.7 23.9999 15.4 25.2999 15.4 26.8999V36.5999C15.4 38.1999 16.7 39.4999 18.3 39.4999H31.8C33.4 39.4999 34.7 38.1999 34.7 36.5999V26.8999C34.8 25.2999 33.5 23.9999 31.9 23.9999ZM21.3 22.0999C21.3 19.9999 23 18.1999 25.2 18.1999C27.4 18.1999 29.1 19.8999 29.1 22.0999V23.9999H21.4V22.0999H21.3ZM32.9 36.5999C32.9 37.0999 32.5 37.5999 31.9 37.5999H18.4C17.9 37.5999 17.4 37.1999 17.4 36.5999V26.8999C17.4 26.3999 17.8 25.8999 18.4 25.8999H31.9C32.4 25.8999 32.9 26.2999 32.9 26.8999V36.5999ZM42.1 14.4999C38.9 13.8999 35.9 12.7999 33 11.2999C30.8 10.1999 28.8 8.79986 26.9 7.19986C25.9 6.29986 24.4 6.29986 23.3 7.09986C21.4 8.59986 19.3 9.89986 17.1 10.9999C14.2 12.4999 11.1 13.5999 8 14.3999C6.7 14.6999 5.8 15.8999 5.8 17.1999V28.9999C5.9 40.3999 13.7 50.2999 24.9 52.8999C25.1 52.8999 25.2 52.9999 25.4 52.8999C36.5 50.2999 44.4 40.3999 44.5 28.9999V17.3999C44.5 15.9999 43.5 14.7999 42.1 14.4999ZM42.5 28.9999C42.4 39.4999 35.3 48.4999 25.1 50.9999C15 48.4999 7.8 39.3999 7.7 28.9999V17.2999C7.7 16.8999 8 16.4999 8.4 16.3999C11.7 15.5999 14.9 14.3999 18 12.7999C20.3 11.5999 22.4 10.1999 24.5 8.69986C24.8 8.39986 25.3 8.39986 25.7 8.69986C27.7 10.3999 29.9 11.7999 32.2 13.0999C35.2 14.6999 38.5 15.7999 41.8 16.4999C42.3 16.5999 42.6 16.9999 42.6 17.3999V28.9999H42.5Z" fill="#81964D"/>
</g>

</g></symbol><symbol id="arrangement-5" viewBox="0 0 60 60"><g fill="none">
<path d="M56.7 53.3H55.4V6.8C55.4 5 53.9 3.5 52.1 3.5H38.6V2.8C38.6 1.3 37.4 0 35.8 0C34.3 0 33 1.2 33 2.8V3.6H26.8V2.8C26.8 1.3 25.6 0 24 0C22.4 0 21.2 1.2 21.2 2.8V3.6H8C6.2 3.5 4.7 5 4.7 6.8V53.3H3.3C1.5 53.3 0 54.8 0 56.6V59C0 59.6 0.4 60 1 60H59C59.6 60 60 59.6 60 59V56.7C60 54.8 58.5 53.3 56.7 53.3ZM50.8 7H38.6V5.5H52C52.7 5.5 53.3 6.1 53.3 6.8V53.3H51.8V8C51.8 7.5 51.4 7 50.8 7ZM8 5.5H21.4V7H9.2C8.6 7 8.2 7.4 8.2 8V53.3H6.7V6.8C6.7 6.1 7.3 5.5 8 5.5ZM34.8 12.3V23.2H25.1V12.3C26.1 11.9 26.8 10.9 26.9 9.7V9H33.1V9.8C33.1 10.9 33.8 11.9 34.8 12.3ZM23.2 12.3V23.2H23C21.8 23.2 20.8 24.2 20.8 25.4V37C20.8 38.2 21.8 39.2 23 39.2H23.2V41.9H20.7C20.1 41.9 19.7 42.3 19.7 42.9V45.2C19.7 47 21.2 48.5 23 48.5H37C38.8 48.5 40.3 47 40.3 45.2V42.9C40.3 42.3 39.9 41.9 39.3 41.9H36.8V39.2H37C38.2 39.2 39.2 38.2 39.2 37V25.3C39.2 24.1 38.2 23.1 37 23.1H36.8V12.3C37.8 11.9 38.5 10.9 38.6 9.7V9H49.8V53.3H10.2V9H21.4V9.8C21.4 10.9 22.1 11.9 23.2 12.3ZM24.9 9.8C24.9 10.2 24.6 10.6 24.1 10.6C23.6 10.6 23.3 10.3 23.3 9.8V2.8C23.3 2.4 23.6 2 24.1 2C24.6 2 24.9 2.3 24.9 2.8V9.8ZM36.6 9.8C36.6 10.2 36.3 10.6 35.8 10.6C35.3 10.6 35 10.3 35 9.8V2.8C35 2.4 35.3 2 35.8 2C36.3 2 36.6 2.3 36.6 2.8V9.8ZM21.7 45.2V43.9H38.4V45.2C38.4 45.9 37.8 46.5 37.1 46.5H23C22.3 46.5 21.7 45.9 21.7 45.2ZM25.2 41.8V39.1H34.9V41.8H25.2ZM37.2 37C37.2 37.1 37.1 37.2 37 37.2H23C22.9 37.2 22.8 37.1 22.8 37V25.3C22.8 25.2 22.9 25.1 23 25.1H37C37.1 25.1 37.2 25.2 37.2 25.3V37ZM26.9 7V5.5H33.1V7H26.9ZM2 56.7C2 56 2.6 55.4 3.3 55.4H56.6C57.3 55.4 57.9 56 57.9 56.7V58H2V56.7Z" fill="#81964D"/>
<path d="M32.3 28.3999H27.6C26.1 28.3999 24.8 29.5999 24.8 31.1999C24.8 32.6999 26 33.9999 27.6 33.9999H32.3C33.8 33.9999 35.1 32.7999 35.1 31.1999C35.1 29.6999 33.9 28.3999 32.3 28.3999ZM32.3 31.8999H27.6C27.2 31.8999 26.8 31.5999 26.8 31.0999C26.8 30.5999 27.1 30.2999 27.6 30.2999H32.3C32.7 30.2999 33.1 30.5999 33.1 31.0999C33.1 31.5999 32.7 31.8999 32.3 31.8999Z" fill="#81964D"/>
</g></symbol><symbol id="arrangement-6" viewBox="0 0 60 60"><g fill="none">
<path d="M5.71287 60H10.4954H25.6046H54.2871C54.7896 60 55.1962 59.5934 55.1962 59.0909V28.7916C56.6804 28.535 57.9903 27.6656 58.8263 26.3512C59.7789 24.8553 59.9991 22.9661 59.4167 21.2971L52.1937 0.60902C52.0658 0.244141 51.7214 0 51.3352 0H8.66209C8.2759 0 7.93144 0.244141 7.8036 0.609908L0.583257 21.2979C0.000870436 22.967 0.221041 24.8562 1.17275 26.3512C2.00998 27.6662 3.32074 28.5358 4.80378 28.7919V59.0909C4.80378 59.5934 5.21039 60 5.71287 60ZM11.4045 58.1818V39.8864C11.4045 39.707 11.5509 39.5605 11.7303 39.5605H24.3705C24.5499 39.5605 24.6955 39.707 24.6955 39.8864V58.1818H11.4045ZM26.5137 58.1818V39.8864C26.5137 38.7038 25.5522 37.7424 24.3705 37.7424H11.7303C10.5477 37.7424 9.58627 38.7038 9.58627 39.8864V58.1818H6.62196V28.8075C8.29383 28.5539 9.72982 27.5829 10.6056 26.2148C11.6297 27.8143 13.4184 28.8796 15.4545 28.8796C17.4906 28.8796 19.2788 27.8145 20.3027 26.215C21.3266 27.8145 23.1148 28.8796 25.1509 28.8796C27.186 28.8796 28.974 27.8154 29.9984 26.2173C31.0218 27.8163 32.8094 28.8814 34.8446 28.8814C36.8831 28.8814 38.6732 27.8165 39.6982 26.2176C40.7226 27.8156 42.5105 28.8796 44.5454 28.8796C46.5815 28.8796 48.3697 27.8145 49.3936 26.215C50.2695 27.5832 51.7058 28.5542 53.378 28.8076V58.1818H26.5137ZM5.69711 12.1635H54.3015L55.6504 16.0272H4.34879L5.69711 12.1635ZM9.30751 1.81818H50.6898L53.6667 10.3453H6.33166L9.30751 1.81818ZM2.70684 25.3755C2.05165 24.3457 1.89895 23.0451 2.30023 21.8972L3.71425 17.8453H56.2851L57.6997 21.8972C58.101 23.0442 57.9483 24.3448 57.2931 25.3755C56.6797 26.3388 55.7395 26.93 54.6449 27.041C54.5117 27.0552 54.3776 27.0614 54.2418 27.0614C52.0694 27.0614 50.3027 25.2947 50.3027 23.1223C50.3027 22.6199 49.8961 22.2132 49.3936 22.2132C48.8911 22.2132 48.4845 22.6199 48.4845 23.1223C48.4845 25.2947 46.7178 27.0614 44.5454 27.0614C42.3795 27.0614 40.618 25.3048 40.6074 23.1414C40.6074 23.1364 40.6081 23.1317 40.6081 23.1268C40.6081 22.9996 40.5814 22.8789 40.5343 22.769C40.3965 22.4423 40.0734 22.2132 39.6964 22.2132C39.1939 22.2132 38.7873 22.6199 38.7873 23.1223C38.7873 23.1292 38.7883 23.1359 38.7883 23.1428C38.7793 25.3058 37.0142 27.0632 34.8446 27.0632C32.6755 27.0632 30.9111 25.2997 30.9086 23.1312C30.9086 23.1281 30.9091 23.1253 30.9091 23.1223C30.9091 22.6199 30.5025 22.2132 30 22.2132C29.4975 22.2132 29.0909 22.6199 29.0909 23.1223C29.0909 23.1239 29.09 23.1252 29.09 23.1268C29.09 23.1278 29.0902 23.1287 29.0902 23.1297C29.0861 25.2987 27.3208 27.0614 25.1509 27.0614C22.9785 27.0614 21.2118 25.2947 21.2118 23.1223C21.2118 22.6199 20.8052 22.2132 20.3027 22.2132C19.8002 22.2132 19.3936 22.6199 19.3936 23.1223C19.3936 25.2947 17.6269 27.0614 15.4545 27.0614C13.2821 27.0614 11.5145 25.2947 11.5145 23.1223C11.5145 22.6199 11.1079 22.2132 10.6054 22.2132C10.103 22.2132 9.69636 22.6199 9.69636 23.1223C9.69636 25.2947 7.92967 27.0614 5.75726 27.0614C5.62232 27.0614 5.48738 27.0552 5.35332 27.041C4.26046 26.93 3.32029 26.3388 2.70684 25.3755Z" fill="#81964D"/>
<path d="M22.5728 47.0169C23.0753 47.0169 23.4819 46.6103 23.4819 46.1078C23.4819 45.6053 23.0753 45.1987 22.5728 45.1987H21.4223C20.9198 45.1987 20.5132 45.6053 20.5132 46.1078V50.9941C20.5132 51.4966 20.9198 51.9032 21.4223 51.9032H22.5728C23.0753 51.9032 23.4819 51.4966 23.4819 50.9941C23.4819 50.4917 23.0753 50.0851 22.5728 50.0851H22.3314V47.0169H22.5728ZM49.3937 35.6816H31.2669C30.7644 35.6816 30.3578 36.0882 30.3578 36.5907V48.9558C30.3578 49.4583 30.7644 49.8649 31.2669 49.8649H49.3937C49.8962 49.8649 50.3028 49.4583 50.3028 48.9558V36.5907C50.3028 36.0882 49.8962 35.6816 49.3937 35.6816ZM48.4846 48.0467H32.176V37.4998H48.4846V48.0467Z" fill="#81964D"/>
<path d="M34.2028 46.2607C34.3804 46.4383 34.613 46.527 34.8456 46.527C35.0782 46.527 35.3108 46.4383 35.4883 46.2607L40.372 41.377C40.7271 41.0219 40.7271 40.4466 40.372 40.0915C40.0169 39.7364 39.4416 39.7364 39.0865 40.0915L34.2028 44.9752C33.8477 45.3303 33.8477 45.9056 34.2028 46.2607ZM34.0395 43.6471C34.2721 43.6471 34.5047 43.5583 34.6822 43.3807L37.492 40.5709C37.8472 40.2158 37.8472 39.6405 37.492 39.2854C37.1369 38.9303 36.5617 38.9303 36.2065 39.2854L33.3967 42.0952C33.0416 42.4503 33.0416 43.0256 33.3967 43.3807C33.5743 43.5583 33.8069 43.6471 34.0395 43.6471Z" fill="#81964D"/>
</g></symbol><symbol id="arrangement-7" viewBox="0 0 60 60"><g fill="none">
<path d="M59.1 51.6C57.7 51.6 56.9 52.2 56.4 52.6C56.1 52.9 55.8 53.1 55.1 53.1C54.3 53.1 54 52.9 53.6 52.5C53.1 52.1 52.3 51.5 50.9 51.5C49.5 51.5 48.7 52.1 48.2 52.5C47.8 52.8 47.5 53.1 46.7 53.1C45.9 53.1 45.6 52.9 45.2 52.5C44.7 52.1 43.9 51.5 42.5 51.5C41.1 51.5 40.3 52.1 39.8 52.5C39.4 52.8 39.1 53.1 38.3 53.1C37.5 53.1 37.2 52.9 36.8 52.5C36.3 52.1 35.5 51.5 34.1 51.5C32.7 51.5 31.9 52.1 31.4 52.5C31 52.8 30.7 53.1 29.9 53.1C29.1 53.1 28.8 52.9 28.4 52.5C27.9 52.1 27.1 51.5 25.7 51.5C24.3 51.5 23.5 52.1 23 52.5C22.6 52.8 22.3 53.1 21.5 53.1C20.7 53.1 20.4 52.9 20 52.5C19.5 52.1 18.7 51.5 17.3 51.5C15.9 51.5 15.1 52.1 14.6 52.5C14.2 52.8 13.9 53.1 13.1 53.1C12.3 53.1 12 52.9 11.6 52.5C11.1 52.1 10.3 51.5 8.90001 51.5C7.50001 51.5 6.70001 52.1 6.20001 52.5C5.80001 52.8 5.50001 53.1 4.70001 53.1C3.90001 53.1 3.60001 52.9 3.20001 52.5C2.70001 52.1 1.90001 51.5 0.500012 51.5H0.200012V53.5H0.500012C1.30001 53.5 1.60001 53.7 2.00001 54.1C2.50001 54.5 3.30001 55.1 4.70001 55.1C6.10001 55.1 6.90001 54.5 7.40001 54.1C7.80001 53.8 8.10001 53.5 8.90001 53.5C9.70001 53.5 10 53.7 10.4 54.1C10.9 54.5 11.7 55.1 13.1 55.1C14.5 55.1 15.3 54.5 15.8 54.1C16.2 53.8 16.5 53.5 17.3 53.5C18.1 53.5 18.4 53.7 18.8 54.1C19.3 54.5 20.1 55.1 21.5 55.1C22.9 55.1 23.7 54.5 24.2 54.1C24.6 53.8 24.9 53.5 25.7 53.5C26.5 53.5 26.8 53.7 27.2 54.1C27.8 54.6 28.5 55.1 29.8 55.1C31.2 55.1 32 54.5 32.5 54.1C32.9 53.8 33.2 53.5 34 53.5C34.8 53.5 35.1 53.7 35.5 54.1C36 54.5 36.8 55.1 38.2 55.1C39.6 55.1 40.4 54.5 40.9 54.1C41.3 53.8 41.6 53.5 42.4 53.5C43.2 53.5 43.5 53.7 43.9 54.1C44.4 54.5 45.2 55.1 46.6 55.1C48 55.1 48.8 54.5 49.3 54.1C49.7 53.8 50 53.5 50.8 53.5C51.6 53.5 51.9 53.7 52.3 54.1C52.8 54.5 53.6 55.1 55 55.1C56.4 55.1 57.2 54.5 57.7 54.1C58.2 53.7 58.4 53.5 59.2 53.5H59.5V51.5H59.1V51.6Z" fill="#81964D"/>
<path d="M59.1 56.4999C57.7 56.4999 56.9 57.0999 56.4 57.4999C56.1 57.8999 55.8 57.9999 55 57.9999C54.2 57.9999 53.9 57.7999 53.5 57.3999C53 56.9999 52.2 56.3999 50.8 56.3999C49.4 56.3999 48.6 56.9999 48.1 57.3999C47.7 57.6999 47.4 57.9999 46.6 57.9999C45.8 57.9999 45.5 57.7999 45.1 57.3999C44.6 56.9999 43.8 56.3999 42.4 56.3999C41 56.3999 40.2 56.9999 39.7 57.3999C39.3 57.7999 39 57.9999 38.3 57.9999C37.5 57.9999 37.2 57.7999 36.8 57.3999C36.3 56.9999 35.5 56.3999 34.1 56.3999C32.7 56.3999 31.9 56.9999 31.4 57.3999C31 57.7999 30.6 57.9999 29.9 57.9999C29.1 57.9999 28.8 57.7999 28.4 57.3999C27.9 56.9999 27.1 56.3999 25.7 56.3999C24.3 56.3999 23.5 56.9999 23 57.3999C22.6 57.6999 22.3 57.9999 21.5 57.9999C20.7 57.9999 20.4 57.7999 20 57.3999C19.5 56.9999 18.7 56.3999 17.3 56.3999C15.9 56.3999 15.1 56.9999 14.6 57.3999C14.2 57.6999 13.9 57.9999 13.1 57.9999C12.3 57.9999 12 57.7999 11.6 57.3999C11.1 56.9999 10.3 56.3999 8.90001 56.3999C7.50001 56.3999 6.70001 56.9999 6.20001 57.3999C5.80001 57.7999 5.50001 57.9999 4.70001 57.9999C3.90001 57.9999 3.60001 57.7999 3.20001 57.3999C2.70001 56.9999 1.90001 56.3999 0.500012 56.3999H0.200012V58.3999H0.500012C1.30001 58.3999 1.60001 58.5999 2.00001 58.9999C2.50001 59.3999 3.30001 59.9999 4.70001 59.9999C6.10001 59.9999 6.90001 59.3999 7.40001 58.9999C7.80001 58.6999 8.10001 58.3999 8.90001 58.3999C9.70001 58.3999 10 58.5999 10.4 58.9999C10.9 59.3999 11.7 59.9999 13.1 59.9999C14.5 59.9999 15.3 59.3999 15.8 58.9999C16.2 58.6999 16.5 58.3999 17.3 58.3999C18.1 58.3999 18.4 58.5999 18.8 58.9999C19.3 59.3999 20.1 59.9999 21.5 59.9999C22.9 59.9999 23.7 59.3999 24.2 58.9999C24.6 58.6999 24.9 58.3999 25.7 58.3999C26.5 58.3999 26.8 58.5999 27.2 58.9999C27.8 59.4999 28.5 59.9999 29.8 59.9999C31.2 59.9999 32 59.3999 32.5 58.9999C32.9 58.6999 33.2 58.3999 34 58.3999C34.8 58.3999 35.1 58.5999 35.5 58.9999C36 59.3999 36.8 59.9999 38.2 59.9999C39.6 59.9999 40.4 59.3999 40.9 58.9999C41.3 58.6999 41.6 58.3999 42.4 58.3999C43.2 58.3999 43.5 58.5999 43.9 58.9999C44.4 59.3999 45.2 59.9999 46.6 59.9999C48 59.9999 48.8 59.3999 49.3 58.9999C49.7 58.6999 50 58.3999 50.8 58.3999C51.6 58.3999 51.9 58.5999 52.3 58.9999C52.8 59.3999 53.6 59.9999 55 59.9999C56.4 59.9999 57.2 59.3999 57.7 58.9999C58.2 58.5999 58.4 58.3999 59.2 58.3999H59.5V56.3999H59.1V56.4999Z" fill="#81964D"/>
<path d="M59.1 46.6C57.7 46.6 56.9 47.2 56.4 47.6C56.1 47.9 55.8 48.1 55.1 48.1C54.3 48.1 54 47.9 53.6 47.5C53.1 47.1 52.3 46.5 50.9 46.5C49.5 46.5 48.7 47.1 48.2 47.5C47.8 47.8 47.5 48.1 46.7 48.1C45.9 48.1 45.6 47.9 45.2 47.5C44.7 47.1 43.9 46.5 42.5 46.5C41.1 46.5 40.3 47.1 39.8 47.5C39.4 47.8 39.1 48.1 38.3 48.1C37.5 48.1 37.2 47.9 36.8 47.5C36.3 47.1 35.5 46.5 34.1 46.5C32.7 46.5 31.9 47.1 31.4 47.5C31 47.8 30.7 48.1 29.9 48.1C29.1 48.1 28.8 47.9 28.4 47.5C27.9 47.1 27.1 46.5 25.7 46.5C24.3 46.5 23.5 47.1 23 47.5C22.6 47.8 22.3 48.1 21.5 48.1C20.7 48.1 20.4 47.9 20 47.5C19.5 47.1 18.7 46.5 17.3 46.5C15.9 46.5 15.1 47.1 14.6 47.5C14.2 47.8 13.9 48.1 13.1 48.1C12.3 48.1 12 47.9 11.6 47.5C11.1 47.1 10.3 46.5 8.90001 46.5C7.50001 46.5 6.70001 47.1 6.20001 47.5C5.80001 47.8 5.50001 48.1 4.70001 48.1C3.90001 48.1 3.60001 47.9 3.20001 47.5C2.70001 47.1 1.90001 46.5 0.500012 46.5H0.200012V48.5H0.500012C1.30001 48.5 1.60001 48.7 2.00001 49.1C2.50001 49.5 3.30001 50.1 4.70001 50.1C6.10001 50.1 6.90001 49.5 7.40001 49.1C7.80001 48.8 8.10001 48.5 8.90001 48.5C9.70001 48.5 10 48.7 10.4 49.1C10.9 49.5 11.7 50.1 13.1 50.1C14.5 50.1 15.3 49.5 15.8 49.1C16.2 48.8 16.5 48.5 17.3 48.5C18.1 48.5 18.4 48.7 18.8 49.1C19.3 49.5 20.1 50.1 21.5 50.1C22.9 50.1 23.7 49.5 24.2 49.1C24.6 48.8 24.9 48.5 25.7 48.5C26.5 48.5 26.8 48.7 27.2 49.1C27.8 49.6 28.5 50.1 29.8 50.1C31.2 50.1 32 49.5 32.5 49.1C32.9 48.8 33.2 48.5 34 48.5C34.8 48.5 35.1 48.7 35.5 49.1C36 49.5 36.8 50.1 38.2 50.1C39.6 50.1 40.4 49.5 40.9 49.1C41.3 48.8 41.6 48.5 42.4 48.5C43.2 48.5 43.5 48.7 43.9 49.1C44.4 49.5 45.2 50.1 46.6 50.1C48 50.1 48.8 49.5 49.3 49.1C49.7 48.8 50 48.5 50.8 48.5C51.6 48.5 51.9 48.7 52.3 49.1C52.8 49.5 53.6 50.1 55 50.1C56.4 50.1 57.2 49.5 57.7 49.1C58.2 48.7 58.4 48.5 59.2 48.5H59.5V46.5H59.1V46.6Z" fill="#81964D"/>
<path d="M47.7 41.7L47.1 39.8C47.4 39.7 47.7 39.3 47.7 38.9C47.7 38.3 47.3 37.9 46.7 37.9H31.3L30.8 36.8H35.4C36 36.8 36.4 36.4 36.4 35.8C36.4 35.2 36 34.8 35.4 34.8H29.9L28.2 30.9C28 30.4 27.4 30.2 26.9 30.4C26.4 30.6 26.2 31.2 26.4 31.7L29.4 38.9L28.5 41.7H26.7C26.7 41.6 26.7 41.6 26.6 41.5L20 22.9C20.4 22.9 20.8 23.1 21.1 23.3C21.4 23.5 21.8 23.6 22.1 23.4C22.4 23.3 22.6 23 22.7 22.7C22.9 21.9 23.5 21.4 24.1 21.1C24.9 20.9 25.6 21 26.2 21.4C26.5 21.6 26.9 21.7 27.2 21.5C27.5 21.4 27.7 21.1 27.8 20.8C28 20 28.6 19.5 29.2 19.2C29.9 19 30.6 19 31.2 19.4C31.6 19.7 32.2 19.6 32.4 19.3C32.8 19 32.9 18.5 32.7 18.1C30.2 11 22.3 7.09998 15 9.19998L14.8 8.49998C15 7.99998 14.4 7.79998 13.9 7.99998C13.4 8.19998 13.1 8.79998 13.3 9.29998L13.5 9.99998C6.5 13 2.9 20.9 5.3 28.3C5.5 28.8 5.9 29 6.3 29C6.8 29 7.1 28.7 7.3 28.3C7.5 27.6 8 27.1 8.7 26.9C9.5 26.7 10.2 26.8 10.8 27.2C11.1 27.4 11.5 27.5 11.8 27.3C12.1 27.2 12.3 26.9 12.4 26.6C12.6 25.8 13.2 25.3 13.8 25C14.6 24.8 15.3 24.9 15.9 25.3C16.2 25.5 16.6 25.6 16.9 25.4C17.2 25.3 17.4 25 17.5 24.7C17.6 24.3 17.9 23.9 18.2 23.7L24.7 41.8L0 41.6V43.5L29.5 43.6H59.6V41.6L47.7 41.7ZM30.8 41.7L31.4 39.9H45.1L45.7 41.8L30.8 41.7ZM18.5 21.2C17.9 21.4 17.4 21.8 17 22.2C15 16.1 14.8 12.4 15.1 11.5C15.8 12 18 15 20.3 21C19.8 20.9 19.1 21 18.5 21.2ZM17.6 11.2C20.5 11.8 23.6 14.8 25.6 19.1C25 19.1 24.5 19.1 23.9 19.4C23.3 19.6 22.8 19.9 22.3 20.4C21.2 17.7 19.4 13.6 17.6 11.2ZM21.2 10.7C25.2 11.3 28.7 13.7 30.7 17.2C30.2 17.2 29.6 17.2 29.1 17.4C28.5 17.6 27.9 18 27.5 18.4C25.9 15.1 23.7 12.4 21.2 10.7ZM10.1 24.7C9.4 24.6 8.8 24.7 8.1 24.9C7.6 25.1 7.1 25.4 6.7 25.7C6 21.7 7.3 17.6 10 14.7C9.2 17.5 9.2 21.1 10.1 24.7ZM13.2 12.8C13.2 15.9 14.6 20.5 15.3 22.9C14.7 22.8 14.1 22.9 13.5 23.1C12.9 23.3 12.4 23.6 12 24C10.7 19.3 11.2 15 13.2 12.8Z" fill="#81964D"/>
<path d="M48.4 3.8999C47.5 3.8999 46.6 4.2999 46 4.8999C45.3 5.5999 45 6.3999 45 7.2999C45 8.1999 45.4 9.0999 46 9.6999C46.7 10.3999 47.5 10.6999 48.4 10.6999C49.3 10.6999 50.2 10.2999 50.8 9.6999C51.5 8.9999 51.8 8.1999 51.8 7.2999C51.8 6.3999 51.4 5.4999 50.8 4.8999C50.2 4.2999 49.3 3.8999 48.4 3.8999ZM49.9 7.3999C49.9 7.7999 49.7 8.1999 49.5 8.4999C48.9 9.0999 47.9 9.0999 47.3 8.4999C47 8.1999 46.9 7.7999 46.9 7.3999C46.9 6.9999 47.1 6.5999 47.3 6.2999C47.6 5.9999 48 5.7999 48.4 5.7999C48.8 5.7999 49.2 5.9999 49.5 6.1999C49.8 6.5999 49.9 6.9999 49.9 7.3999Z" fill="#81964D"/>
<path d="M44.3 4.6999C44.5 4.8999 44.8 4.9999 45 4.9999C45.3 4.9999 45.5 4.8999 45.7 4.6999C46 4.4999 46.1 4.2999 46.1 3.9999C46.1 3.6999 46 3.4999 45.8 3.2999L44.7 2.1999C44.4 1.9999 44.1 1.8999 43.7 1.8999C43.3 1.9999 43 2.2999 42.9 2.5999C42.8 2.8999 42.9 3.2999 43.2 3.5999L44.3 4.6999Z" fill="#81964D"/>
<path d="M51.5 4.9999C51.6 4.9999 51.7 4.9999 51.8 4.9999C52.1 4.9999 52.3 4.8999 52.5 4.6999L53.6 3.5999C53.8 3.3999 53.9 3.0999 53.9 2.8999C53.9 2.6999 53.8 2.3999 53.6 2.1999C53.2 1.7999 52.5 1.7999 52.2 2.1999L51 3.2999C50.8 3.5999 50.7 3.8999 50.8 4.2999C50.9 4.5999 51.2 4.8999 51.5 4.9999Z" fill="#81964D"/>
<path d="M47.9 3.5C48.1 3.6 48.2 3.6 48.4 3.6C48.6 3.6 48.8 3.6 48.9 3.5C49.2 3.3 49.4 3 49.4 2.6V1C49.4 0.7 49.3 0.5 49.1 0.3C48.7 -0.1 48 -0.1 47.7 0.3C47.5 0.5 47.4 0.7 47.4 1V2.6C47.4 3 47.6 3.3 47.9 3.5Z" fill="#81964D"/>
<path d="M52.5 10.0002C52.2 9.8002 51.9 9.7002 51.5 9.7002C51.2 9.8002 50.9 10.1002 50.8 10.4002C50.7 10.7002 50.8 11.1002 51.1 11.4002L52.2 12.5002C52.4 12.7002 52.7 12.8002 52.9 12.8002C53.2 12.8002 53.4 12.7002 53.6 12.5002C53.8 12.3002 53.9 12.0002 53.9 11.8002C53.9 11.5002 53.8 11.3002 53.6 11.1002L52.5 10.0002Z" fill="#81964D"/>
<path d="M55.5 6.5998C55.3 6.3998 55 6.2998 54.8 6.2998H53.2C52.8 6.2998 52.5 6.4998 52.3 6.7998C52.1 7.0998 52.1 7.4998 52.3 7.7998C52.5 8.0998 52.8 8.2998 53.2 8.2998H54.8C55.1 8.2998 55.3 8.1998 55.5 7.9998C55.7 7.7998 55.8 7.4998 55.8 7.2998C55.8 7.0998 55.7 6.7998 55.5 6.5998Z" fill="#81964D"/>
<path d="M44.3 10.0002L43.2 11.1002C43 11.4002 42.9 11.7002 43 12.1002C43.1 12.4002 43.4 12.7002 43.7 12.8002C43.8 12.8002 43.9 12.8002 44 12.8002C44.3 12.8002 44.5 12.7002 44.7 12.5002L45.8 11.4002C46 11.2002 46.1 10.9002 46.1 10.7002C46.1 10.4002 46 10.2002 45.8 10.0002C45.4 9.6002 44.7 9.6002 44.3 10.0002Z" fill="#81964D"/>
<path d="M44.5 7.8999C44.7 7.5999 44.7 7.1999 44.5 6.8999C44.3 6.5999 44 6.3999 43.6 6.3999H42C41.6 6.3999 41.3 6.5999 41.1 6.8999C40.9 7.1999 40.9 7.5999 41.1 7.8999C41.3 8.1999 41.6 8.3999 42 8.3999H43.6C44 8.3999 44.3 8.1999 44.5 7.8999Z" fill="#81964D"/>
<path d="M48.9 11.2999C48.6 11.0999 48.2 11.0999 47.9 11.2999C47.6 11.4999 47.4 11.7999 47.4 12.1999V13.7999C47.4 14.1999 47.6 14.4999 47.9 14.6999C48.1 14.7999 48.2 14.7999 48.4 14.7999C48.6 14.7999 48.8 14.7999 48.9 14.6999C49.2 14.4999 49.4 14.1999 49.4 13.7999V12.1999C49.4 11.7999 49.2 11.3999 48.9 11.2999Z" fill="#81964D"/>
</g></symbol><symbol id="arrangement-8" viewBox="0 0 60 60"><g fill="none">
<g clip-path="url(#clip0_642_1057)">
<path d="M14 45C14 44.2 13.7 43.4 13.1 42.9C12.5 42.3 11.8 42 11 42C10.2 42 9.4 42.3 8.9 42.9C8.3 43.4 8 44.2 8 45C8 45.8 8.3 46.6 8.9 47.1C9.4 47.7 10.2 48 11 48C11.8 48 12.6 47.7 13.1 47.1C13.7 46.6 14 45.8 14 45ZM10 45C10 44.6 10.2 44.2 10.6 44.1C11 43.9 11.4 44 11.7 44.3C12 44.6 12.1 45 11.9 45.4C11.8 45.8 11.4 46 11 46C10.4 46 10 45.6 10 45Z" fill="#81964D"/>
<path d="M24.3 51.2001C24.6 51.5001 25 51.6001 25.4 51.4001C25.8 51.2001 26 50.9001 26 50.5001V40.0001C26 39.6001 25.8 39.2001 25.4 39.1001C25 38.9001 24.6 39.0001 24.3 39.3001L18.8 44.3001C18.6 44.5001 18.5 44.7001 18.5 45.0001C18.5 45.3001 18.6 45.5001 18.8 45.7001L24.3 51.2001ZM24 42.3001V48.1001L21 45.1001L24 42.3001Z" fill="#81964D"/>
<path d="M3.30006 44.1C3.00006 44.4 2.90006 45 3.20006 45.4C3.50006 45.9 12.7001 59 26.2001 60C26.7001 60 27.2001 60 27.7001 60C34.8001 60 41.7001 56.5 48.2001 49.6L53.3001 54.7C53.5001 54.9 53.8001 55 54.1001 55C54.4001 55 54.7001 54.8 54.8001 54.5C56.4001 51.6 57.3001 48.4 57.3001 45.1C57.3001 41.8 56.5001 38.6 54.9001 35.7L54.8001 35.5C54.6001 35.2 54.4001 35 54.1001 35C53.8001 35 53.5001 35.1 53.3001 35.3L48.4001 40.2C44.6001 36.5 37.5001 31 28.2001 31H28.1001C19.7001 31 11.4001 35.4 3.30006 44.1ZM28.1001 33C37.3001 33 44.3001 38.8 47.6001 42.3C47.8001 42.5 48.0001 42.6 48.3001 42.6C48.6001 42.6 48.8001 42.5 49.0001 42.3L53.7001 37.6C55.9001 42.2 55.9001 47.6 53.7001 52.3L48.8001 47.4C48.6001 47.2 48.3001 47.1 48.1001 47.1C47.8001 47.1 47.6001 47.2 47.4001 47.4C40.7001 54.8 33.6001 58.4 26.4001 57.9C22.0001 57.5 17.7001 55.9 14.1001 53.2C16.3001 51 17.4001 47.9 17.1001 44.8C16.7001 42.1 15.7001 39.6 14.0001 37.5C18.1001 34.7 23.0001 33.1 28.1001 33ZM12.3001 38.7C13.8001 40.5 14.7001 42.7 15.1001 45.1C15.4001 47.7 14.4001 50.3 12.5001 52.1C9.80006 50 7.40006 47.6 5.30006 44.9C7.40006 42.6 9.80006 40.6 12.3001 38.7Z" fill="#81964D"/>
<path d="M2.7 14.1C2.8 14.2 2.9 14.3 3 14.4V28.6C3 29.8 3.5 31 4.4 31.9C5.2 32.6 6.3 33 7.5 33C7.9 33 8.2 33 8.6 32.9C10 32.6 11.2 31.5 11.7 30.1L13 26.5C13.1 26.1 13 25.7 12.8 25.5C12.5 25.2 12.1 25.1 11.8 25.2L8.8 26.2L9.4 28.1L10.5 27.8L9.9 29.5C9.6 30.3 9 30.8 8.2 31C7.5 31.2 6.7 31 6.1 30.5C5.5 30 5.1 29.3 5.1 28.5V15C6 15 6.8 14.7 7.4 14L8.2 13.2C8.7 12.7 9.5 12.7 10 13.2L10.8 14C11.4 14.6 12.3 15 13.1 15C14 15 14.8 14.7 15.4 14L16.2 13.2C16.7 12.7 17.5 12.7 18 13.2L18.8 14C19.4 14.6 20.3 15 21.1 15C21.9 15 22.8 14.7 23.4 14L24.2 13.2C24.7 12.7 25.5 12.7 26 13.2L26.8 14C27.4 14.6 28.3 15 29.1 15C29.9 15 30.8 14.7 31.4 14L32.2 13.2C32.7 12.7 33.5 12.7 34 13.2L34.8 14C35.4 14.6 36.3 14.9 37.1 14.9C37.9 14.9 38.8 14.6 39.4 14L40.2 13.2C40.7 12.7 41.5 12.7 42 13.2L42.8 14C43.4 14.6 44.3 15 45.1 15C45.9 15 46.8 14.7 47.4 14L48.2 13.2C48.7 12.7 49.5 12.7 50 13.2L50.8 14C51.4 14.6 52.3 15 53.1 15C54 15 54.8 14.7 55.4 14L56.2 13.2C56.7 12.7 57.5 12.7 58 13.2L58.4 13.6C58.8 14 59.4 14 59.8 13.6C60.2 13.2 60.2 12.6 59.8 12.2L59.4 11.8C58.8 11.2 57.9 10.8 57.1 10.8C56.3 10.8 55.4 11.1 54.8 11.8L54 12.6C53.5 13.1 52.7 13.1 52.2 12.6L51.4 11.8C50.8 11.2 49.9 10.8 49.1 10.8C48.3 10.8 47.4 11.1 46.8 11.8L46 12.6C45.5 13.1 44.7 13.1 44.2 12.6L43.4 11.8C42.8 11.2 41.9 10.8 41.1 10.8C40.3 10.8 39.4 11.1 38.8 11.8L38 12.6C37.5 13.1 36.7 13.1 36.2 12.6L35.4 11.8C34.7 11.3 33.9 11 33 11C32.1 11 31.3 11.3 30.7 11.9L29.9 12.7C29.4 13.2 28.6 13.2 28.1 12.7L27.3 11.9C26.7 11.3 25.8 10.9 25 10.9C24.1 10.9 23.3 11.2 22.7 11.9L21.9 12.7C21.4 13.2 20.6 13.2 20.1 12.7L19.3 11.9C18.7 11.3 17.8 10.9 17 10.9C16.2 10.9 15.3 11.2 14.7 11.9L13.9 12.7C13.4 13.2 12.6 13.2 12.1 12.7L11.3 11.9C10.7 11.3 9.8 10.9 9 10.9C8.2 10.9 7.3 11.2 6.7 11.9L5.9 12.7C5.7 12.9 5.3 13 5 13V0H3V11.6L1.7 10.3C1.3 9.9 0.7 9.9 0.3 10.3C-0.1 10.7 -0.1 11.3 0.3 11.7L2.7 14.1Z" fill="#81964D"/>
<path d="M35.9 22.9999L36.7 22.1999C37.2 21.6999 38 21.6999 38.5 22.1999L39.2 22.9999C39.8 23.5999 40.7 23.8999 41.5 23.8999C42.4 23.8999 43.2 23.5999 43.8 22.9999L44.6 22.1999C45.1 21.6999 45.9 21.6999 46.4 22.1999L47.1 22.9999C47.7 23.5999 48.6 23.9999 49.4 23.9999C50.3 23.9999 51.1 23.6999 51.7 22.9999L52.5 22.1999C52.7 21.9999 52.8 21.7999 52.8 21.4999C52.8 21.1999 52.7 20.9999 52.5 20.7999C52.3 20.5999 52.1 20.4999 51.8 20.4999C51.5 20.4999 51.3 20.5999 51.1 20.7999L50.3 21.5999C49.8 22.0999 49 22.0999 48.5 21.5999L48 20.8999C47.4 20.2999 46.5 19.8999 45.7 19.8999C44.9 19.8999 44 20.1999 43.4 20.8999L42.6 21.6999C42.1 22.1999 41.3 22.1999 40.8 21.6999L40 20.8999C39.4 20.2999 38.5 19.9999 37.7 19.9999C36.9 19.9999 36 20.2999 35.4 20.8999L34.6 21.6999C34.1 22.1999 33.3 22.1999 32.8 21.6999C32.4 21.2999 31.8 21.2999 31.4 21.6999C31 22.0999 31 22.6999 31.4 23.0999C32 23.6999 32.9 23.9999 33.7 23.9999C34.5 23.9999 35.3 23.5999 35.9 22.9999Z" fill="#81964D"/>
<path d="M17.6 20.9999C18.5 20.9999 19.3 20.6999 19.9 19.9999L20.7 19.1999C21.2 18.6999 22 18.6999 22.5 19.1999L23.3 19.9999C23.9 20.5999 24.6 20.8999 25.4 20.9999C26.2 21.0999 27 20.7999 27.6 20.3999C28 20.0999 28.0999 19.3999 27.7999 18.9999C27.5 18.5999 26.7999 18.4999 26.4 18.7999C25.9 19.1999 25.2 19.0999 24.7 18.6999L23.9 17.8999C23.3 17.2999 22.4 16.8999 21.6 16.8999C20.7 16.8999 19.9 17.1999 19.3 17.8999L18.5 18.6999C18 19.1999 17.2 19.1999 16.7 18.6999L15.9 17.8999C15.3 17.2999 14.4 16.8999 13.6 16.8999C12.7 16.8999 11.9 17.1999 11.3 17.8999L10.5 18.6999C10.1 19.0999 10.1 19.6999 10.5 20.0999C10.9 20.4999 11.5 20.4999 11.9 20.0999L12.7 19.2999C13.2 18.7999 14 18.7999 14.5 19.2999L15.2 20.0999C15.9 20.6999 16.7 20.9999 17.6 20.9999Z" fill="#81964D"/>
</g>

</g></symbol><symbol id="arrangement-9" viewBox="0 0 60 60"><g fill="none">
<path d="M36.7001 39.2998H23.3C22.8 39.2998 22.3 39.6998 22.3 40.2998V58.9998C22.3 59.4998 22.7 59.9998 23.3 59.9998H36.8C37.3 59.9998 37.8 59.5998 37.8 58.9998V40.2998C37.7 39.7998 37.3001 39.2998 36.7001 39.2998ZM35.8 57.9998H24.2001V41.2998H35.7001L35.8 57.9998Z" fill="#81964D"/>
<path d="M18.3 39.2998H12.1C11.6 39.2998 11.1 39.6998 11.1 40.2998V46.0998C11.1 46.5998 11.5 47.0998 12.1 47.0998H18.3C18.6 47.0998 18.8 46.9998 19 46.7998C19.2 46.5998 19.3 46.3998 19.3 46.0998V40.2998C19.3 39.7998 18.8 39.2998 18.3 39.2998ZM13 45.1998V41.3998H17.2V45.1998H13Z" fill="#81964D"/>
<path d="M18.3 47.5H12.1C11.6 47.5 11.1 47.9 11.1 48.5V54.3C11.1 54.8 11.5 55.3 12.1 55.3H18.3C18.6 55.3 18.8 55.2 19 55C19.2 54.8 19.3 54.6 19.3 54.3V48.5C19.3 48 18.8 47.5 18.3 47.5ZM13 53.4V49.6H17.2V53.4H13Z" fill="#81964D"/>
<path d="M47.9 39.2998H41.7C41.2 39.2998 40.7 39.6998 40.7 40.2998V46.0998C40.7 46.5998 41.1 47.0998 41.7 47.0998H47.9C48.4 47.0998 48.9 46.6998 48.9 46.0998V40.2998C48.9 39.7998 48.4 39.2998 47.9 39.2998ZM46.9 41.2998V45.0998H42.7V41.2998H46.9Z" fill="#81964D"/>
<path d="M33.1 42.2002H26.9C26.4 42.2002 25.9 42.6002 25.9 43.2002V49.0002C25.9 49.5002 26.3 50.0002 26.9 50.0002H33.1C33.6 50.0002 34.1 49.6002 34.1 49.0002V43.2002C34.1 42.7002 33.6 42.2002 33.1 42.2002ZM27.9 48.1002V44.3002H32.1V48.1002H27.9Z" fill="#81964D"/>
<path d="M47.9 47.5H41.7C41.2 47.5 40.7 47.9 40.7 48.5V54.3C40.7 54.8 41.1 55.3 41.7 55.3H47.9C48.4 55.3 48.9 54.9 48.9 54.3V48.5C48.9 48 48.4 47.5 47.9 47.5ZM46.9 49.5V53.3H42.7V49.5H46.9Z" fill="#81964D"/>
<path d="M52.9 28H7.09998C6.59998 28 6.09998 28.4 6.09998 29V59C6.09998 59.5 6.49998 60 7.09998 60H52.9C53.2 60 53.4 59.9 53.6 59.7C53.8 59.5 53.9 59.3 53.9 59V29C53.9 28.4 53.4 28 52.9 28ZM51.9 30V58H8.09998V30H51.9Z" fill="#81964D"/>
<path d="M26.9 50.8999C26.4 50.8999 25.9 51.2999 25.9 51.8999V54.2999C25.9 54.7999 26.3 55.2999 26.9 55.2999C27.5 55.2999 27.9 54.8999 27.9 54.2999V51.8999C27.9 51.2999 27.4 50.8999 26.9 50.8999Z" fill="#81964D"/>
<path d="M56.3 19.8999H3.7C1.6 19.8999 0 21.5999 0 23.5999V27.1999C0 28.9999 1.3 29.9999 3.7 29.9999H56.2C58.7 29.9999 59.9 29.0999 59.9 27.2999V23.6999C60 21.5999 58.3 19.8999 56.3 19.8999ZM57.9 27.7999C57.6 27.9999 57.1 27.9999 56.5 27.9999H3.7H3.5C2.9 27.9999 2.4 27.9999 2.1 27.7999C2 27.6999 2 27.4999 2 27.1999V23.5999C2 22.5999 2.8 21.7999 3.8 21.7999H56.3C57.3 21.7999 58.1 22.5999 58.1 23.5999V27.1999C58 27.4999 58 27.6999 57.9 27.7999Z" fill="#81964D"/>
<path d="M30 0C24.5 0 19.3 2.1 15.4 6C11.5 9.9 9.30005 15.1 9.30005 20.6V20.9C9.30005 21.4 9.80005 21.9 10.3 21.9C10.6 21.9 10.8 21.8 11 21.6C11.2 21.4 11.3 21.2 11.3 20.9V20.6C11.3 10.3 19.7 2 30 2C40.3 2 48.7001 10.4 48.7001 20.6V20.9C48.7001 21.2 48.8 21.4 49 21.6C49.2001 21.8 49.4001 21.9 49.7001 21.9C50.2001 21.9 50.7001 21.5 50.7001 20.9V20.6C50.7001 9.2 41.4 0 30 0Z" fill="#81964D"/>
<path d="M30 4.1001C20.9 4.1001 13.4 11.5001 13.4 20.6001V20.9001C13.4 21.2001 13.5 21.4001 13.7 21.6001C13.9 21.8001 14.1 21.9001 14.4 21.9001C14.7 21.9001 14.9 21.8001 15.1 21.6001C15.3 21.4001 15.4 21.2001 15.4 20.9001V20.6001C15.4 12.6001 22 6.0001 30 6.0001C38 6.0001 44.6 12.5001 44.6 20.5001V20.8001C44.6 21.1001 44.7 21.3001 44.9 21.5001C45.1 21.7001 45.3 21.8001 45.6 21.8001C46.1 21.8001 46.6 21.4001 46.6 20.8001V20.5001C46.6 11.5001 39.1 4.1001 30 4.1001Z" fill="#81964D"/>
<path d="M30 8.2002C23.1 8.2002 17.5 13.8002 17.5 20.6002C17.5 20.7002 17.5 20.8002 17.5 20.9002C17.5 21.4002 18 21.9002 18.5 21.9002C18.8 21.9002 19 21.8002 19.2 21.6002C19.4 21.4002 19.5 21.2002 19.5 20.9002C19.5 20.8002 19.5 20.7002 19.5 20.7002C19.5 14.9002 24.2 10.2002 30 10.2002C35.8 10.2002 40.5 14.9002 40.5 20.7002C40.5 20.8002 40.5 20.9002 40.5 20.9002C40.5 21.4002 40.9 21.9002 41.5 21.9002C42 21.9002 42.5 21.5002 42.5 21.0002C42.5 20.9002 42.5 20.8002 42.5 20.7002C42.5 13.7002 36.9 8.2002 30 8.2002Z" fill="#81964D"/>
<path d="M30 12.2002C25.4 12.2002 21.6 15.9002 21.6 20.5002C21.6 20.6002 21.6 20.7002 21.6 20.8002C21.6 21.3002 22.1 21.7002 22.6 21.7002C23.1 21.7002 23.6 21.2002 23.5 20.7002C23.5 20.6002 23.5 20.5002 23.5 20.5002C23.5 17.0002 26.4 14.1002 29.9 14.1002C33.4 14.1002 36.3 17.0002 36.3 20.5002C36.3 20.6002 36.3 20.7002 36.3 20.7002C36.3 21.0002 36.4 21.2002 36.6 21.4002C36.8 21.6002 37 21.7002 37.3 21.7002C37.8 21.7002 38.3 21.3002 38.3 20.8002C38.3 20.7002 38.3 20.6002 38.3 20.5002C38.4 16.0002 34.6 12.2002 30 12.2002Z" fill="#81964D"/>
<path d="M24.1 22.2998C23.6 22.2998 23.1 22.6998 23.1 23.2998V25.1998C23.1 25.6998 23.5 26.1998 24.1 26.1998C24.6 26.1998 25.1 25.7998 25.1 25.1998V23.2998C25 22.6998 24.6 22.2998 24.1 22.2998Z" fill="#81964D"/>
<path d="M35.9 22.2998C35.4 22.2998 34.9 22.6998 34.9 23.2998V25.1998C34.9 25.6998 35.3 26.1998 35.9 26.1998C36.5 26.1998 36.9 25.7998 36.9 25.1998V23.2998C36.9 22.6998 36.5 22.2998 35.9 22.2998Z" fill="#81964D"/>
<path d="M33 24.1C32.9 23.9 32.6 23.7 32.4 23.7C31.9 23.6 31.4 24 31.3 24.5C31.2 25.1 30.7 25.5 30.1 25.5C29.5 25.5 29 25.1 28.9 24.5C28.8 24 28.3 23.6 27.8 23.7C27.5 23.7 27.3 23.9 27.2 24.1C27.1 24.3 27 24.6 27 24.8C27.3 26.3 28.6 27.4 30.2 27.4C31.7 27.4 33.1 26.3 33.4 24.8C33.2 24.6 33.1 24.3 33 24.1Z" fill="#81964D"/>
</g></symbol><symbol id="close" viewBox="0 0 18 18"><g fill="none">
<g clip-path="url(#clip0_551_3623)">
<path d="M17.4375 0.5625L0.5625 17.4375" stroke="#9DABB2" stroke-width="2" stroke-linecap="round" stroke-linejoin="round"/>
<path d="M0.5625 0.5625L17.4375 17.4375" stroke="#9DABB2" stroke-width="2" stroke-linecap="round" stroke-linejoin="round"/>
</g>

</g></symbol><symbol id="facebook" viewBox="0 0 40 40"><g fill="none">
<path d="M22.8287 20.0002H21.0105V26.6668H18.263V20.0002H16.9297V17.6567H18.263V16.1214C18.263 15.0305 18.7883 13.3335 21.0509 13.3335H23.1115V15.5961H21.6166C21.3741 15.5961 21.0105 15.7173 21.0105 16.2426V17.6163H23.0711L22.8287 20.0002Z" fill="white"/>
</g></symbol><symbol id="instagram" viewBox="0 0 40 40"><g fill="none">
<path d="M26.8691 17.0505C26.8287 16.3233 26.7075 15.8384 26.5459 15.4344C26.3843 14.9899 26.1014 14.5859 25.7782 14.2627C25.455 13.9394 25.0509 13.6566 24.6065 13.495C24.162 13.3334 23.7176 13.2122 22.9903 13.1718C22.263 13.1313 22.061 13.1313 20.2428 13.1313C18.4247 13.1313 18.2226 13.1313 17.4954 13.1718C16.7681 13.2122 16.2832 13.3334 15.8792 13.495C15.4348 13.6566 15.0307 13.9394 14.7075 14.2627C14.3843 14.5859 14.1014 14.9899 13.9398 15.4344C13.7782 15.8788 13.657 16.3233 13.6166 17.0505C13.5762 17.7778 13.5762 17.9798 13.5762 19.798C13.5762 21.6162 13.5762 21.8182 13.6166 22.5455C13.657 23.2728 13.7782 23.7576 13.9398 24.1616C14.1014 24.6061 14.3843 25.0101 14.7075 25.3334C15.0307 25.6566 15.4348 25.9394 15.8792 26.101C16.3236 26.2627 16.7681 26.3839 17.4954 26.4243C18.2226 26.4647 18.4247 26.4647 20.2428 26.4647C22.061 26.4647 22.263 26.4647 22.9903 26.4243C23.7176 26.3839 24.2024 26.2627 24.6065 26.101C25.4954 25.7374 26.2226 25.0505 26.5459 24.1616C26.7075 23.7172 26.8287 23.2324 26.8691 22.5455C26.9095 21.8182 26.9095 21.6162 26.9095 19.798C26.9095 17.9798 26.8691 17.7778 26.8691 17.0505ZM25.657 22.5051C25.6166 23.1515 25.5358 23.5152 25.4146 23.7576C25.1721 24.3233 24.7277 24.8081 24.162 25.0101C23.9196 25.0909 23.556 25.2122 22.9095 25.2526C22.2226 25.293 21.9802 25.293 20.2024 25.293C18.4247 25.293 18.2226 25.293 17.4954 25.2526C16.8489 25.2122 16.4853 25.1313 16.2428 25.0101C15.96 24.8889 15.6772 24.7273 15.4752 24.5253C15.2731 24.3233 15.0711 24.0404 14.9903 23.7576C14.9095 23.5152 14.7883 23.1515 14.7479 22.5051C14.7075 21.8182 14.7075 21.5758 14.7075 19.798C14.7075 18.0202 14.7075 17.8182 14.7479 17.0909C14.7883 16.4445 14.8691 16.0808 14.9903 15.8384C15.1115 15.5556 15.2731 15.2728 15.4752 15.0707C15.6772 14.8687 15.96 14.6667 16.2428 14.5859C16.4853 14.5051 16.8489 14.3839 17.4954 14.3435C18.1822 14.3031 18.4247 14.3031 20.2024 14.3031C21.9802 14.3031 22.1822 14.3031 22.9095 14.3435C23.556 14.3839 23.9196 14.4647 24.162 14.5859C24.4449 14.7071 24.7277 14.8687 24.9297 15.0707C25.1317 15.2728 25.3337 15.5556 25.4146 15.8384C25.4954 16.0808 25.6166 16.4445 25.657 17.0909C25.6974 17.7778 25.6974 18.0202 25.6974 19.798C25.6974 21.5758 25.6974 21.7778 25.657 22.5051Z" fill="white"/>
<path d="M20.2429 16.3638C18.3439 16.3638 16.8086 17.8991 16.8086 19.7981C16.8086 21.6971 18.3439 23.2325 20.2429 23.2325C22.1419 23.2325 23.6773 21.6971 23.6773 19.7981C23.6773 17.8991 22.1015 16.3638 20.2429 16.3638ZM20.2429 22.0203C19.0308 22.0203 18.0207 21.0102 18.0207 19.7981C18.0207 18.586 19.0308 17.5759 20.2429 17.5759C21.4551 17.5759 22.4652 18.586 22.4652 19.7981C22.4652 21.0102 21.4551 22.0203 20.2429 22.0203Z" fill="white"/>
<path d="M24.5654 16.2422C24.5654 16.6866 24.2017 17.0502 23.7573 17.0502C23.3129 17.0502 22.9492 16.6866 22.9492 16.2422C22.9492 15.7977 23.3129 15.4341 23.7573 15.4341C24.2422 15.4341 24.5654 15.7977 24.5654 16.2422Z" fill="white"/>
</g></symbol><symbol id="map-pin" viewBox="0 0 33 40"><g fill="none">
<path d="M32.107 16.0535C32.107 28.5396 16.0535 39.2419 16.0535 39.2419C16.0535 39.2419 0 28.5396 0 16.0535C6.3444e-08 11.7959 1.69135 7.71258 4.70196 4.70196C7.71258 1.69135 11.7959 0 16.0535 0C20.3112 0 24.3944 1.69135 27.4051 4.70196C30.4157 7.71258 32.107 11.7959 32.107 16.0535Z" fill="#81964D"/>
<path d="M16.0535 21.4045C19.0089 21.4045 21.4047 19.0087 21.4047 16.0533C21.4047 13.0979 19.0089 10.7021 16.0535 10.7021C13.0982 10.7021 10.7024 13.0979 10.7024 16.0533C10.7024 19.0087 13.0982 21.4045 16.0535 21.4045Z" fill="white"/>
</g></symbol><symbol id="menu" viewBox="0 0 30 22">
<rect x="6" width="24" height="2" rx="1"/>
<rect y="10" width="24" height="2" rx="1"/>
<rect x="6" y="20" width="24" height="2" rx="1"/>
</symbol><symbol id="phone" viewBox="0 0 40 40"><g fill="none">
<path d="M37.9276 28.9529V34.3724C37.9296 34.8755 37.8265 35.3735 37.625 35.8344C37.4234 36.2954 37.1278 36.7092 36.7571 37.0493C36.3864 37.3895 35.9487 37.6484 35.4721 37.8096C34.9955 37.9708 34.4905 38.0306 33.9894 37.9853C28.4306 37.3813 23.0909 35.4818 18.3995 32.4394C14.0347 29.6659 10.3341 25.9653 7.56057 21.6005C4.50757 16.8878 2.60763 11.5221 2.01466 5.93831C1.96952 5.43876 2.02889 4.93528 2.18899 4.45993C2.34909 3.98458 2.60641 3.54777 2.94458 3.17732C3.28274 2.80687 3.69434 2.51089 4.15316 2.30822C4.61198 2.10556 5.10798 2.00065 5.60957 2.00018H11.029C11.9057 1.99155 12.7556 2.302 13.4204 2.87367C14.0851 3.44534 14.5193 4.23922 14.642 5.10733C14.8707 6.84167 15.2949 8.54457 15.9065 10.1835C16.1496 10.8301 16.2022 11.5328 16.0581 12.2084C15.914 12.884 15.5793 13.5041 15.0936 13.9952L12.7994 16.2895C15.371 20.8121 19.1157 24.5567 23.6383 27.1284L25.9325 24.8341C26.4237 24.3484 27.0438 24.0137 27.7193 23.8696C28.3949 23.7256 29.0976 23.7782 29.7442 24.0212C31.3832 24.6328 33.0861 25.057 34.8204 25.2858C35.6979 25.4096 36.4994 25.8516 37.0723 26.5277C37.6451 27.2038 37.9495 28.067 37.9276 28.9529Z" fill="#81964D"/>
</g></symbol><symbol id="telegram" viewBox="0 0 40 40"><g fill="none">
<path d="M12.5135 18.4647L26.6145 13.0101C27.261 12.7677 27.8266 13.1717 27.6246 14.1414L25.2408 25.4546C25.0792 26.2627 24.5943 26.4647 23.9074 26.0606L20.2307 23.3536L18.4529 25.0505C18.2913 25.3334 18.1297 25.495 17.7256 25.495L17.968 21.7778L24.7559 15.6364C25.0388 15.394 24.6751 15.2324 24.3115 15.4748L15.9478 20.7677L12.3519 19.6364C11.5438 19.394 11.5438 18.8687 12.5135 18.4647Z" fill="white"/>
</g></symbol><symbol id="twitter" viewBox="0 0 40 40"><g fill="none">
<path d="M28.2018 14.9092C27.5958 15.1921 26.9493 15.3537 26.2624 15.4345C26.9493 15.0305 27.4745 14.3436 27.7574 13.5759C27.1109 13.98 26.3836 14.2224 25.616 14.384C25.0099 13.7375 24.121 13.3335 23.1513 13.3335C21.2928 13.3335 19.7978 14.8284 19.7978 16.687C19.7978 16.9698 19.8382 17.2123 19.8786 17.4547C17.0908 17.3335 14.5857 15.9597 12.9292 13.9396C12.6463 14.4244 12.4847 15.0305 12.4847 15.6365C12.4847 16.8082 13.0908 17.8183 13.9797 18.4244C13.414 18.4244 12.8888 18.2628 12.4443 18.0203V18.0607C12.4443 19.6769 13.616 21.0506 15.1514 21.3739C14.8685 21.4547 14.5857 21.4951 14.2625 21.4951C14.0605 21.4951 13.818 21.4547 13.616 21.4547C14.0605 22.788 15.2726 23.7577 16.7675 23.7981C15.5958 24.687 14.1817 25.2526 12.6059 25.2526C12.3231 25.2526 12.0807 25.2526 11.7979 25.2122C13.2928 26.1011 15.0706 26.6668 16.9695 26.6668C23.1513 26.6668 26.5453 21.5355 26.5453 17.0911C26.5453 16.9294 26.5453 16.8082 26.5453 16.6466C27.1917 16.1618 27.7574 15.5961 28.2018 14.9092Z" fill="white"/>
</g></symbol>
<symbol id="infrastr" fill="#81964D" viewBox="0 0 60 60" style="enable-background:new 0 0 60 60;" xml:space="preserve">
  <path d="M60,21.3v-5.8H47.8c0.3-0.6,0.5-1.2,0.5-1.9c0-2.1-1.7-3.9-3.9-3.9H31c-2.1,0-3.9,1.7-3.9,3.9
	c0,0.7,0.2,1.4,0.5,1.9H15.5v5.8h2.9v36.8h-4.8v-3.9h-2.9V43.5h-2V15.4c3.8-0.5,6.8-3.7,6.8-7.7C15.5,3.5,12,0,7.7,0S0,3.5,0,7.7
	c0,3.9,3,7.2,6.8,7.7v28.1h-2v10.6H1.9V58H0v2h60v-1.9h-2.9V21.3H60z M1.9,7.7c0-3.2,2.6-5.8,5.8-5.8s5.8,2.6,5.8,5.8
	s-2.6,5.8-5.8,5.8S1.9,10.9,1.9,7.7z M6.8,45.5h1.9v8.7H6.8V45.5z M3.9,58.1v-1.9h7.7v1.9H3.9z M29,13.5c0-1.1,0.9-1.9,1.9-1.9h13.5
	c1.1,0,1.9,0.9,1.9,1.9s-0.9,1.9-1.9,1.9H31C29.9,15.5,29,14.6,29,13.5z M17.4,17.4H58v1.9H17.4V17.4z M55.2,32.9H20.3v-7.7h34.8
	v7.7H55.2z M25.2,45.5v-4.8h25.2v4.8H25.2z M48.4,47.4v1.9H27.1v-1.9H48.4z M48.4,51.3v6.8H27.1v-6.8H48.4z M50.3,58.1v-6.8h2.9
	v-1.9h-2.9v-1.9h1.9v-8.7h-29v8.7h1.9v1.9h-2.9v1.9h2.9v6.8h-4.8V34.8h34.8V58L50.3,58.1L50.3,58.1z M55.2,23.2H20.3v-1.9h34.8v1.9
	H55.2z"/>
</symbol>
<symbol id="lake" fill="#81964D" viewBox="0 0 60 60" style="enable-background:new 0 0 60 60;" xml:space="preserve">
  <path d="M59.5,55.9c-0.2-0.2-0.5-0.2-0.7-0.2c-0.3,0-0.5,0.2-0.7,0.4c-1,1.2-2.5,2-4,2s-3.1-0.7-4-2
  	c-0.4-0.5-1.2-0.5-1.6,0c-1,1.2-2.5,2-4,2c-1.6,0-3.1-0.7-4-2c-0.4-0.5-1.2-0.5-1.6,0c-1,1.2-2.5,2-4,2c-1.6,0-3.1-0.7-4-2
  	c-0.4-0.5-1.2-0.5-1.5,0c-1,1.2-2.5,2-4,2c-1.6,0-3.1-0.7-4-2c-0.4-0.5-1.2-0.5-1.6,0c-1,1.2-2.5,2-4,2s-3.1-0.7-4-2
  	c-0.2-0.2-0.5-0.4-0.8-0.4l0,0c-0.3,0-0.6,0.1-0.8,0.4c-1,1.2-2.5,2-4,2s-3.1-0.7-4-2c-0.2-0.2-0.4-0.3-0.7-0.4
  	c-0.3,0-0.5,0-0.7,0.2c-0.4,0.3-0.5,1-0.2,1.4c1,1.7,3,2.7,5.2,2.7c1.8,0,3.5-0.7,4.8-1.9c1.3,1.2,3,1.9,4.8,1.9s3.5-0.7,4.8-1.9
  	c1.3,1.2,3,1.9,4.8,1.9s3.5-0.7,4.8-1.9c1.3,1.2,3,1.9,4.8,1.9s3.5-0.7,4.8-1.9c1.3,1.2,3,1.9,4.8,1.9s3.5-0.7,4.8-1.9
  	c1.3,1.2,3,1.9,4.8,1.9c2.2,0,4.2-1,5.6-2.7C60,56.9,59.9,56.2,59.5,55.9z M0.4,57.1L0.4,57.1L0.4,57.1L0.4,57.1z"/>
  <path d="M59.5,47.6c-0.2-0.2-0.5-0.2-0.7-0.2c-0.3,0-0.5,0.2-0.7,0.4c-1,1.2-2.5,2-4,2c-1.6,0-3.1-0.7-4-2
  	c-0.4-0.5-1.2-0.5-1.6,0c-1,1.2-2.5,2-4,2c-1.6,0-3.1-0.7-4-2c-0.4-0.5-1.2-0.5-1.6,0c-1,1.2-2.5,2-4,2s-3.1-0.7-4-2
  	c-0.4-0.5-1.2-0.5-1.6,0c-1,1.2-2.5,2-4,2c-1.6,0-3.1-0.7-4-2c-0.4-0.5-1.2-0.5-1.6,0c-1,1.2-2.5,2-4,2s-3.1-0.7-4-2
  	c-0.2-0.2-0.5-0.4-0.8-0.4l0,0c-0.3,0-0.6,0.1-0.8,0.4c-1,1.2-2.5,2-4,2s-3.1-0.7-4-2c-0.2-0.2-0.4-0.3-0.7-0.4
  	c-0.3,0-0.5,0-0.7,0.2c-0.4,0.3-0.5,1-0.2,1.4c1.4,1.7,3.4,2.7,5.6,2.7c1.8,0,3.5-0.7,4.8-1.9c1.3,1.2,3,1.9,4.8,1.9
  	s3.5-0.7,4.8-1.9c1.3,1.2,3,1.9,4.8,1.9s3.5-0.7,4.8-1.9c1.3,1.2,3,1.9,4.8,1.9s3.5-0.7,4.8-1.9c1.3,1.2,3,1.9,4.8,1.9
  	s3.5-0.7,4.8-1.9c1.3,1.2,3,1.9,4.8,1.9c2.2,0,4.2-1,5.6-2.7C60,48.6,59.9,48,59.5,47.6z"/>
  <path d="M58.9,40.7h-0.8v-0.9c0-2.7-2.2-4.9-4.9-4.9s-4.9,2.2-4.9,4.9v0.9h-3.5v-10c0.9,0.5,1.9,0.8,3,0.8
  	c3.2,0,5.9-2.6,5.9-5.9c0-1.3-0.4-2.6-1.3-3.6c0.8-1,1.3-2.3,1.3-3.6c0-1.3-0.4-2.6-1.3-3.6c0.8-1,1.3-2.3,1.3-3.6
  	c0-2.5-1.6-4.8-4-5.6C49.6,2.5,47,0,43.9,0S38.2,2.5,38,5.6c-2.4,0.8-4,3-4,5.6c0,1.3,0.4,2.6,1.3,3.6c-0.8,1-1.3,2.3-1.3,3.6
  	s0.4,2.6,1.3,3.6c-0.8,1-1.3,2.3-1.3,3.6c0,3.2,2.6,5.9,5.9,5.9c1,0,2.1-0.3,3-0.8v10h-3.8v-0.9c0-2.7-2.2-4.9-4.9-4.9
  	c-1.3,0-2.6,0.5-3.5,1.5c-1.1-2.3-3.3-3.7-5.8-3.7c-3.5,0-6.4,2.9-6.4,6.4v1.5h-2.4v-10c0.9,0.5,1.9,0.8,3,0.8
  	c3.2,0,5.9-2.6,5.9-5.9c0-1.3-0.4-2.6-1.3-3.6c0.8-1,1.3-2.3,1.3-3.6s-0.4-2.6-1.3-3.6c0.8-1,1.3-2.3,1.3-3.6c0-2.5-1.6-4.8-4-5.6
  	c-0.2-3-2.8-5.5-5.9-5.5S9.4,2.5,9.2,5.6c-2.4,0.8-4,3-4,5.6c0,1.3,0.4,2.6,1.3,3.6c-0.8,1-1.3,2.3-1.3,3.6c0,1.3,0.4,2.6,1.3,3.6
  	c-0.8,1-1.3,2.3-1.3,3.6c0,3.2,2.6,5.9,5.9,5.9c1,0,2.1-0.3,3-0.8v10h-2.6v-0.9c0-2.7-2.2-4.9-4.9-4.9s-4.9,2.2-4.9,4.9v0.9H1
  	c-0.5,0-1,0.4-1,1c0,0.5,0.4,1,1,1h57.9c0.5,0,1-0.4,1-1C59.9,41.2,59.4,40.7,58.9,40.7z M3.8,40.7v-0.9c0-1.6,1.3-2.9,2.9-2.9
  	s2.9,1.3,2.9,2.9v0.9H3.8z M8.6,22.8c0.2-0.2,0.3-0.5,0.3-0.7s-0.1-0.5-0.3-0.7c-0.8-0.7-1.3-1.8-1.3-2.9s0.5-2.2,1.3-2.9
  	c0.2-0.2,0.3-0.5,0.3-0.7c0-0.3-0.1-0.5-0.3-0.7c-0.8-0.7-1.3-1.8-1.3-2.9c0-1.9,1.3-3.5,3.2-3.8C11,7.4,11.3,7,11.3,6.4
  	c0-0.1,0-0.2,0-0.3C11.2,3.7,13,2,15.1,2S19,3.7,19,5.9c0,0.1,0,0.2,0,0.3c0,0.5,0.3,1,0.8,1.1c1.8,0.3,3.2,2,3.2,3.8
  	c0,1.1-0.5,2.2-1.3,2.9c-0.2,0.2-0.3,0.5-0.3,0.7c0,0.3,0.1,0.5,0.3,0.7c0.8,0.7,1.3,1.8,1.3,2.9s-0.5,2.2-1.3,2.9
  	c-0.2,0.2-0.3,0.5-0.3,0.7c0,0.3,0.1,0.5,0.3,0.7c0.8,0.7,1.3,1.8,1.3,2.9c0,2.2-1.8,3.9-3.9,3.9c-1.1,0-2.2-0.5-3-1.4v-3.1L19,22
  	c0.4-0.4,0.4-1,0-1.4s-1-0.4-1.4,0l-1.5,1.5v-4.4l2.9-2.9c0.4-0.4,0.4-1,0-1.4s-1-0.4-1.4,0l-1.5,1.5v-4.6c0-0.5-0.4-1-1-1
  	c-0.5,0-1,0.4-1,1v4.6l-1.5-1.5c-0.4-0.4-1-0.4-1.4,0s-0.4,1,0,1.4l2.9,2.9v4.4l-1.5-1.5c-0.4-0.4-1-0.4-1.4,0s-0.4,1,0,1.4l2.9,2.9
  	V28c-0.7,0.9-1.8,1.4-3,1.4c-2.2,0-3.9-1.8-3.9-3.9C7.3,24.6,7.7,23.5,8.6,22.8z M20.5,40.7v-1.5c0-2.5,2-4.4,4.4-4.4
  	c2.5,0,4.5,2,4.5,4.4v1.5H20.5z M31.3,40.7v-0.9c0-1.6,1.3-2.9,2.9-2.9s2.9,1.3,2.9,2.9v0.9H31.3z M37.3,22.8
  	c0.2-0.2,0.3-0.5,0.3-0.7s-0.1-0.5-0.3-0.7c-0.8-0.7-1.3-1.8-1.3-2.9s0.5-2.2,1.3-2.9c0.2-0.2,0.3-0.5,0.3-0.7
  	c0-0.3-0.1-0.5-0.3-0.7c-0.8-0.7-1.3-1.8-1.3-2.9c0-1.9,1.3-3.5,3.2-3.8C39.7,7.2,40,6.7,40,6.2c0-0.1,0-0.2,0-0.3
  	c0-1,0.4-2,1.1-2.8C41.8,2.4,42.8,2,43.9,2c2.2,0,3.9,1.8,3.9,3.9c0,0.1,0,0.2,0,0.3c0,0.5,0.3,1,0.8,1.1c1.8,0.3,3.2,2,3.2,3.8
  	c0,1.1-0.5,2.2-1.3,2.9c-0.2,0.2-0.3,0.5-0.3,0.7c0,0.3,0.1,0.5,0.3,0.7c0.8,0.7,1.3,1.8,1.3,2.9s-0.5,2.2-1.3,2.9
  	c-0.2,0.2-0.3,0.5-0.3,0.7c0,0.3,0.1,0.5,0.3,0.7c0.8,0.7,1.3,1.8,1.3,2.9c0,2.2-1.8,3.9-3.9,3.9c-1.1,0-2.2-0.5-3-1.4v-3.1l2.9-2.9
  	c0.2-0.2,0.3-0.4,0.3-0.7c0-0.3-0.1-0.5-0.3-0.7c-0.4-0.4-1-0.4-1.4,0l-1.5,1.5v-4.4l2.9-2.9c0.2-0.2,0.3-0.4,0.3-0.7
  	s-0.1-0.5-0.3-0.7c-0.4-0.4-1-0.4-1.4,0l-1.5,1.5v-4.6c0-0.5-0.4-1-1-1c-0.5,0-1,0.4-1,1v4.6l-1.5-1.5c-0.4-0.4-1-0.4-1.4,0
  	c-0.2,0.2-0.3,0.4-0.3,0.7s0.1,0.5,0.3,0.7l2.9,2.9v4.4l-1.5-1.5c-0.4-0.4-1-0.4-1.4,0s-0.4,1,0,1.4l2.9,2.9V28
  	c-0.7,0.9-1.8,1.4-3,1.4c-2.2,0-3.9-1.8-3.9-3.9C36,24.6,36.5,23.5,37.3,22.8z M50.3,40.7v-0.9c0-1.6,1.3-2.9,2.9-2.9
  	s2.9,1.3,2.9,2.9v0.9H50.3z"/>
</symbol>
<symbol id="school" fill="#81964D" viewBox="0 0 60 60" style="enable-background:new 0 0 60 60;" xml:space="preserve">
  <path d="M59,38.7c0.5,0,1-0.4,1-1V1c0-0.5-0.4-1-1-1H1C0.4,0,0,0.4,0,1v36.8c0,0.5,0.4,1,1,1h16.2l-5.5,20.1
  	c-0.1,0.3,0,0.6,0.2,0.8c0.2,0.2,0.5,0.4,0.8,0.4h3.9c0.4,0,0.8-0.3,0.9-0.7L23,38.7h4.1V59c0,0.5,0.4,1,1,1h3.9c0.5,0,1-0.4,1-1
  	V38.7H37l3.2,9.7c-3,0.2-5.4,2.7-5.4,5.8c0,3.2,2.6,5.8,5.8,5.8H59c0.4,0,0.7-0.2,0.9-0.6c0.1-0.4,0.1-0.8-0.2-1.1l-3.2-3.2
  	c-0.3-0.3-0.4-0.6-0.4-1s0.1-0.7,0.4-1l3.2-3.2c0.3-0.3,0.4-0.7,0.2-1.1c-0.1-0.4-0.5-0.6-0.9-0.6H46.2L43,38.7L59,38.7z M1.9,1.9
  	h56.1v34.8H1.9V1.9z M15.7,58.1h-1.9l5.3-19.4H21L15.7,58.1z M31,58.1H29V38.7H31V58.1z M36.8,54.2c0-2.1,1.7-3.9,3.9-3.9v7.7
  	C38.5,58.1,36.8,56.3,36.8,54.2z M55.2,51.9c-0.6,0.6-1,1.5-1,2.3c0,0.9,0.3,1.7,1,2.3l1.5,1.5H42.6v-2.9h7.7v-1.9h-7.7v-2.9h14.1
  	L55.2,51.9z M44.1,48.4h-1.8l-3.2-9.7h1.8L44.1,48.4z"/>
  <path d="M55.2,3.9H4.8c-0.5,0-1,0.4-1,1v29c0,0.5,0.4,1,1,1h50.3c0.5,0,1-0.4,1-1v-29C56.1,4.3,55.7,3.9,55.2,3.9z
  	 M48.4,32.9h-5.8V31h5.8V32.9z M54.2,32.9h-3.9V30c0-0.5-0.4-1-1-1h-7.7c-0.5,0-1,0.4-1,1v2.9H5.8V5.8h48.4V32.9z"/>
  <path d="M13.7,27.8c0,0,0.1,0,0.1,0c0,0,0.1,0.1,0.1,0.1c0.2,0.8,0.8,1.4,1.6,1.5c0.8,0.2,1.6-0.2,2.1-0.8l2.3-3.2
  	c0,0,0.1-0.1,0.1-0.1c0.1,0,0.1,0.1,0.1,0.1l1.3,3.1c0.3,0.7,1,1.2,1.7,1.3c0.8,0.1,1.5-0.3,2-1c0,0,0.1-0.1,0.1-0.1
  	c0,0,0.1,0,0.1,0l1.3,1.3c0.7,0.7,1.9,0.8,2.7,0.2l3.1-2.3l-1.2-1.5l-3.1,2.3c-0.1,0-0.1,0-0.2,0l-1.3-1.3c-0.4-0.4-1.1-0.7-1.7-0.6
  	c-0.6,0.1-1.2,0.4-1.6,1c0,0,0,0.1-0.1,0.1c-0.1,0-0.1-0.1-0.1-0.1L22,24.7c-0.3-0.7-0.9-1.2-1.7-1.2c-0.8-0.1-1.5,0.2-1.9,0.9
  	l-2.3,3.2c0,0-0.1,0.1-0.1,0.1c-0.1,0-0.1-0.1-0.1-0.1c-0.2-0.7-0.6-1.2-1.3-1.4c-0.6-0.2-1.3-0.2-1.9,0.2l-4.5,3l1.1,1.6L13.7,27.8
  	z"/>
  <path d="M8.7,19.4H31v1.9H8.7V19.4z"/>
  <path d="M8.7,11.6H31v1.9H8.7V11.6z"/>
  <path d="M8.7,15.5H31v1.9H8.7V15.5z"/>
  <path d="M35.8,26.1c0.1,0,0.2,0,0.4-0.1l4.8-1.9c0.1,0,0.2-0.1,0.3-0.2L52,13.3c0.4-0.4,0.4-1,0-1.4L49.1,9
  	c-0.4-0.4-1-0.4-1.4,0L37.1,19.6c-0.1,0.1-0.2,0.2-0.2,0.3l-1.9,4.8c-0.1,0.4-0.1,0.8,0.2,1C35.3,26,35.6,26.1,35.8,26.1L35.8,26.1z
  	 M41.6,20.9l-1.5-1.5l5.4-5.4l1.5,1.5L41.6,20.9z M48.4,11l1.5,1.5l-1.5,1.5l-1.5-1.5L48.4,11z M38.6,20.9l0.1-0.1l1.5,1.5l-0.1,0.1
  	l-2.6,1L38.6,20.9z"/>
</symbol>
<symbol id="cafe" fill="#81964D" viewBox="0 0 60 60" style="enable-background:new 0 0 60 60;" xml:space="preserve">
  <path d="M57,18c0.8,0,1.6-0.3,2.1-0.9c0.6-0.6,0.9-1.3,0.9-2.1V3c0-0.8-0.3-1.6-0.9-2.1C58.6,0.3,57.8,0,57,0H3
  	C2.2,0,1.4,0.3,0.9,0.9S0,2.2,0,3v12c0,0.8,0.3,1.6,0.9,2.1C1.4,17.7,2.2,18,3,18h2v37H1c-0.6,0-1,0.4-1,1v3c0,0.3,0.1,0.5,0.3,0.7
  	S0.7,60,1,60h58c0.3,0,0.5-0.1,0.7-0.3S60,59.3,60,59v-3c0-0.3-0.1-0.5-0.3-0.7C59.5,55.1,59.3,55,59,55h-4V28h4
  	c0.3,0,0.5-0.1,0.7-0.3S60,27.3,60,27v-6c0-0.3-0.1-0.5-0.3-0.7C59.5,20.1,59.3,20,59,20h-4v-2H57z M2,15V3c0-0.6,0.4-1,1-1h54
  	c0.3,0,0.5,0.1,0.7,0.3C57.9,2.5,58,2.7,58,3v12c0,0.3-0.1,0.5-0.3,0.7C57.5,15.9,57.3,16,57,16H3C2.4,16,2,15.6,2,15z M43,25h-2v-2
  	h2V25z M39,30c0,0.3-0.1,0.5-0.3,0.7C38.5,30.9,38.3,31,38,31H22c-0.6,0-1-0.4-1-1v-2h9c0.3,0,0.5-0.1,0.7-0.3
  	c0.2-0.2,0.3-0.4,0.3-0.7v-7c0-0.3-0.1-0.5-0.3-0.7C30.5,19.1,30.3,19,30,19h-9v-1h18V30z M29,33h2v2h-2V33z M21,21h8v5h-8V21z
  	 M58,58H2v-1h56V58z M23,48v-1.6c1.2,0.5,2.5,0.7,3.7,0.6c1.7,0,3.3-0.3,4.8-1.1c1.2-0.6,2.6-0.9,4-0.9c0.5,0,1,0,1.5,0.1V48
  	c0,2.5-1.3,4.8-3.5,6.1c-2.2,1.3-4.8,1.3-7,0C24.3,52.8,23,50.5,23,48L23,48z M42,45c0,0.9-0.3,1.8-0.9,2.5
  	c-0.6,0.7-1.3,1.2-2.2,1.4c0-0.3,0-0.6,0-0.9v-6.9c0.9,0.2,1.6,0.7,2.2,1.4C41.7,43.3,42,44.1,42,45L42,45z M37,43.1
  	C36.5,43,36,43,35.5,43c-1.7,0-3.3,0.3-4.8,1.1c-1.2,0.6-2.6,0.9-3.9,0.9c-1.3,0-2.6-0.2-3.7-0.8V41h14L37,43.1z M53,55H35.6
  	c1.3-1.1,2.3-2.4,2.8-4c2.1-0.2,3.9-1.4,4.8-3.3c0.9-1.9,0.8-4.1-0.2-5.8C42,40.1,40.1,39,38,39H22c-0.6,0-1,0.4-1,1v8
  	c0,2.7,1.2,5.3,3.4,7H7V18h12v12c0,0.8,0.3,1.6,0.9,2.1c0.6,0.6,1.3,0.9,2.1,0.9h5v3c0,0.3,0.1,0.5,0.3,0.7c0.2,0.2,0.4,0.3,0.7,0.3
  	h4c0.3,0,0.5-0.1,0.7-0.3S33,36.3,33,36v-3h5c0.8,0,1.6-0.3,2.1-0.9c0.6-0.6,0.9-1.3,0.9-2.1v-3h2c0,0.3,0.1,0.5,0.3,0.7
  	c0.2,0.2,0.4,0.3,0.7,0.3h9L53,55z M58,26H45v-4h13V26z M53,20h-9c-0.6,0-1,0.4-1,1h-2v-3h12V20z"/>
  <path d="M30,15c1.6,0,3.1-0.6,4.2-1.8C35.4,12.1,36,10.6,36,9s-0.6-3.1-1.8-4.2C33.1,3.6,31.6,3,30,3s-3.1,0.6-4.2,1.8
  	C24.6,5.9,24,7.4,24,9c0,1.6,0.6,3.1,1.8,4.2C26.9,14.4,28.4,15,30,15L30,15z M30,5c1.1,0,2.1,0.4,2.8,1.2C33.6,6.9,34,7.9,34,9
  	s-0.4,2.1-1.2,2.8C32.1,12.6,31.1,13,30,13s-2.1-0.4-2.8-1.2C26.4,11.1,26,10.1,26,9s0.4-2.1,1.2-2.8C27.9,5.4,28.9,5,30,5z"/>
  <path d="M21,12V6c0-0.3-0.1-0.5-0.3-0.7C20.5,5.1,20.3,5,20,5H8C7.4,5,7,5.4,7,6v6c0,0.3,0.1,0.5,0.3,0.7S7.7,13,8,13
  	h12c0.3,0,0.5-0.1,0.7-0.3C20.9,12.5,21,12.3,21,12z M19,11H9V7h10V11z"/>
</symbol>
<symbol id="pharmacy" fill="#81964D" viewBox="0 0 60 60" style="enable-background:new 0 0 60 60;" xml:space="preserve">
  <path d="M29.3,45.7l-1.5,1.5L5.9,25.3c-3.4-3.4-4.8-8.5-3.5-13.2c1.3-4.7,5-8.4,9.7-9.6c4.7-1.3,9.8,0.1,13.2,3.5
    l1.9,1.9c0.2,0.2,0.4,0.3,0.7,0.3c0.3,0,0.5-0.1,0.7-0.3L30.4,6c2.5-2.5,5.8-3.9,9.3-4c0.1,0,0.2,0,0.3,0c3.4,0,6.6,1.2,9.1,3.5
    c2.6,2.4,4.2,5.6,4.4,9.1c0,0.5,0.5,1,1.1,0.9c0.3,0,0.5-0.1,0.7-0.3c0.2-0.2,0.3-0.5,0.2-0.7c-0.3-4-2.1-7.7-5.1-10.4
    c-3-2.7-6.8-4.1-10.9-4c-4,0.1-7.8,1.7-10.6,4.6l-1.2,1.2l-1.2-1.2c-3-2.9-6.9-4.5-11-4.5s-8.1,1.6-11,4.5c-2.9,3-4.5,6.9-4.5,11
    c0,4.2,1.6,8.1,4.5,11l22.6,22.6c0.2,0.2,0.4,0.3,0.6,0.3l0,0c0.3,0,0.5-0.1,0.7-0.3l2.2-2.2c0.2-0.2,0.3-0.4,0.3-0.7
    c0-0.3-0.1-0.5-0.3-0.7C30.3,45.3,29.7,45.3,29.3,45.7z"/>
  <path d="M59.7,17.3C59.5,17.1,59.3,17,59,17h0H30.6c-0.5,0-1,0.4-1,1v8.7c0,0.3,0.1,0.5,0.3,0.7
    c0.2,0.2,0.4,0.3,0.7,0.3h1.9l0,31.4c0,0.3,0.1,0.5,0.3,0.7c0.2,0.2,0.4,0.3,0.7,0.3h22.8c0.3,0,0.5-0.1,0.7-0.3
    c0.2-0.2,0.3-0.4,0.3-0.7V27.6H59c0.3,0,0.5-0.1,0.7-0.3c0.2-0.2,0.3-0.4,0.3-0.7V18C60,17.7,59.9,17.5,59.7,17.3z M55.2,27.6V58
    H34.4V27.6H55.2z M58,19v6.7H31.5V19H58z"/>
  <path d="M39.1,44.1h2.5v2.5c0,0.4,0.2,0.9,0.5,1.2c0.3,0.3,0.7,0.5,1.2,0.5h3c0.4,0,0.9-0.2,1.2-0.5
    c0.3-0.3,0.5-0.7,0.5-1.1l0-2.5h2.5c0.4,0,0.9-0.2,1.2-0.5c0.3-0.3,0.5-0.7,0.5-1.2v-3c0-0.4-0.2-0.9-0.5-1.2
    c-0.3-0.3-0.7-0.5-1.2-0.5l-2.5,0v-2.5c0-0.4-0.2-0.9-0.5-1.2c-0.3-0.3-0.7-0.5-1.2-0.5h-3c-0.4,0-0.9,0.2-1.2,0.5
    c-0.3,0.3-0.5,0.7-0.5,1.2v2.4h-2.5c-0.4,0-0.9,0.2-1.2,0.5c-0.3,0.3-0.5,0.7-0.5,1.2v3c0,0.4,0.2,0.9,0.5,1.2
    C38.3,43.9,38.7,44.1,39.1,44.1z M47,39.7h3.1v2.4H47c-0.5,0-1,0.4-1,1v3.1h-2.4v-3.1c0-0.3-0.1-0.5-0.3-0.7
    c-0.2-0.2-0.4-0.3-0.7-0.3l-3.1,0v-2.4h3.1c0.3,0,0.5-0.1,0.7-0.3c0.2-0.2,0.3-0.4,0.3-0.7v-3.1H46v3.1C46,39.2,46.4,39.7,47,39.7
    z"/>
  <path d="M32.7,58h-27c-1,0-1.9-0.4-2.6-1.1C2.4,56.3,2,55.3,2,54.3V37c0-1,0.4-1.9,1.1-2.6c0.7-0.7,1.6-1.1,2.6-1.1
    h5.1c0.5,0,1-0.4,1-1c0-0.5-0.4-1-1-1H5.7c-1.5,0-2.9,0.6-4,1.7C0.6,34.1,0,35.5,0,37v17.3c0,1.5,0.6,2.9,1.7,4
    c1.1,1.1,2.5,1.7,4,1.7h27c0.5,0,1-0.4,1-1C33.7,58.5,33.2,58,32.7,58z"/>
  <path d="M9.2,47c-1,0-2,0.4-2.8,1.1c-0.7,0.7-1.1,1.7-1.1,2.8c0,1,0.4,2,1.1,2.8c0.7,0.7,1.7,1.1,2.8,1.1
    c1,0,2-0.4,2.8-1.2c0.7-0.7,1.1-1.7,1.2-2.8c0-1-0.4-2-1.1-2.8C11.2,47.4,10.2,47,9.2,47z M10.6,52.3c-0.4,0.4-0.9,0.6-1.4,0.6
    c-0.5,0-1-0.2-1.4-0.6c-0.4-0.4-0.6-0.9-0.6-1.4c0-0.5,0.2-1,0.6-1.4C8.2,49.2,8.6,49,9.2,49c0.5,0,1,0.2,1.4,0.6
    c0.4,0.4,0.6,0.9,0.6,1.4C11.1,51.4,10.9,51.9,10.6,52.3z"/>
  <path d="M11.9,38.4c-0.9-0.9-2.3-1.3-3.5-1.1c-1.3,0.3-2.4,1.1-2.9,2.3c-0.5,1.2-0.4,2.6,0.4,3.7
    c0.7,1.1,2,1.7,3.3,1.7c1,0,2-0.4,2.8-1.1c0.7-0.7,1.1-1.7,1.1-2.8C13.1,40.2,12.7,39.2,11.9,38.4z M11.1,41.5
    c-0.1,0.6-0.4,1.1-1,1.4C9.6,43.2,9,43.2,8.4,43c-0.6-0.2-1-0.7-1.1-1.3c-0.2-0.6,0-1.2,0.3-1.7c0.4-0.5,0.9-0.8,1.5-0.8
    c0,0,0,0,0,0h0c0.5,0,1,0.2,1.4,0.6C11,40.2,11.2,40.9,11.1,41.5z"/>
  <path d="M22,53.7c0.7-0.7,1.1-1.7,1.2-2.8c0-1-0.4-2-1.1-2.8S20.2,47,19.2,47s-2,0.4-2.8,1.1
    c-0.7,0.7-1.1,1.7-1.1,2.8c0,1,0.4,2,1.1,2.8c0.7,0.7,1.7,1.1,2.8,1.1C20.2,54.8,21.2,54.4,22,53.7z M17.2,50.9
    c0-0.5,0.2-1,0.6-1.4c0.4-0.4,0.9-0.6,1.4-0.6c0.5,0,1,0.2,1.4,0.6c0.4,0.4,0.6,0.9,0.6,1.4c0,0.5-0.2,1-0.6,1.4
    c-0.4,0.4-0.9,0.6-1.4,0.6c-0.5,0-1-0.2-1.4-0.6C17.4,51.9,17.2,51.4,17.2,50.9z"/>
</symbol>
<symbol id="gas" fill="#81964D" viewBox="0 0 60 60" style="enable-background:new 0 0 60 60;" xml:space="preserve">
  <g>
  	<path d="M12.8,34H5.9c-0.5,0-1,0.4-1,1v4c0,0.5,0.4,1,1,1h6.9c0.5,0,1-0.4,1-1v-4C13.7,34.5,13.3,34,12.8,34z M11.8,38
  		h-5V36h5V38z"/>
  	<path d="M25.6,38h-1v-5c0-0.3-0.2-0.6-0.4-0.8l-3-2l-1.1,1.6l2.5,1.7V38h-1c-0.5,0-1,0.4-1,1v4c0,0.5,0.4,1,1,1h1v10
  		c0,0.3-0.1,0.5-0.3,0.7c-0.4,0.4-1.1,0.4-1.4,0c-0.2-0.2-0.3-0.5-0.3-0.7V35c0-0.5-0.4-1-1-1h-2v-3c0-0.5-0.4-1-1-1H2
  		c-0.5,0-1,0.4-1,1v21h0c-0.5,0-1,0.4-1,1v6c0,0.6,0.4,1,1,1h16.7c0.5,0,1-0.4,1-1v-6c0-0.6-0.4-1-1-1h0V36h1v18
  		c0,0.8,0.3,1.5,0.9,2.1c0.6,0.6,1.3,0.9,2.1,0.9c0.8,0,1.5-0.3,2.1-0.9c0.6-0.6,0.9-1.3,0.9-2.1V44h1c0.5,0,1-0.4,1-1v-4
  		C26.5,38.5,26.1,38,25.6,38z M2.9,32h12.9v20H2.9V32z M16.7,58H2v-4h14.8V58z M24.6,42L24.6,42L24.6,42l-2,0v0h-0.1V40h2V42z"/>
  </g>
  <g>
  	<path d="M46.3,34h-6.9c-0.5,0-1,0.4-1,1v4c0,0.5,0.4,1,1,1h6.9c0.5,0,1-0.4,1-1v-4C47.2,34.5,46.8,34,46.3,34z
  		 M45.3,38h-5V36h5V38z"/>
  	<path d="M59,38h-1v-5c0-0.3-0.2-0.6-0.4-0.8l-3-2l-1.1,1.6l2.5,1.7V38h-1c-0.5,0-1,0.4-1,1v4c0,0.5,0.4,1,1,1h1v10
  		c0,0.3-0.1,0.5-0.3,0.7c-0.4,0.4-1.1,0.4-1.4,0c-0.2-0.2-0.3-0.5-0.3-0.7V35c0-0.5-0.4-1-1-1h-2v-3c0-0.5-0.4-1-1-1H35.4
  		c-0.5,0-1,0.4-1,1v21h0c-0.5,0-1,0.4-1,1v6c0,0.5,0.4,1,1,1h16.7c0.5,0,1-0.4,1-1v-6c0-0.5-0.4-1-1-1h0V36h1v18
  		c0,0.8,0.3,1.5,0.9,2.1c0.6,0.6,1.3,0.9,2.1,0.9s1.5-0.3,2.1-0.9c0.6-0.6,0.9-1.3,0.9-2.1V44h1c0.5,0,1-0.4,1-1v-4
  		C60,38.5,59.6,38,59,38z M50.2,58H35.4V54h0h14.8h0V58z M36.4,52V32h12.9V52H36.4z M58.1,42L58.1,42L58.1,42l-2,0v0h-0.1V40h2V42z"
  		/>
  </g>
  <rect x="0" y="58" width="59" height="1.9"/>
  <g>
  	<rect x="1" width="59" height="1.9"/>
  </g>
  <g>
  	<path d="M51.1,11.9H35.3c-0.5,0-1-0.4-1-1V5c0-0.5,0.4-1,1-1h15.7c0.5,0,1,0.4,1,1v6C52,11.5,51.6,11.9,51.1,11.9z
  		 M36.3,10h13.8V5.9H36.3V10z"/>
  </g>
  <path d="M19.6,4h-6.9V1h-1.9v3H3.9c-0.5,0-1,0.4-1,1v6c0,0.5,0.4,1,1,1h15.7c0.5,0,1-0.4,1-1V5C20.6,4.4,20.2,4,19.6,4z
  	 M18.7,10H4.9V5.9h13.8V10z"/>
  <g>
  	<rect x="42.3" y="1" width="1.9" height="4"/>
  </g>
</symbol>
</svg>
