<?xml version="1.0" encoding="utf-8"?>
<!-- Generator: Adobe Illustrator 24.0.1, SVG Export Plug-In . SVG Version: 6.00 Build 0)  -->
<svg version="1.1" id="Слой_1" xmlns="http://www.w3.org/2000/svg" xmlns:xlink="http://www.w3.org/1999/xlink" x="0px" y="0px"
	 viewBox="0 0 512 512" style="enable-background:new 0 0 512 512;" xml:space="preserve">
<style type="text/css">
	.st0{fill:#101010;}
	.st1{fill:#73A942;}
</style>
<circle class="st0" cx="256" cy="256" r="256"/>
<g>
	<path class="st1" d="M248.6,347.5h-59.8l-52.3-80.8v80.8H86V164.5h50.4v77.1l48.3-77.1h58.3l-58.5,88.6L248.6,347.5z"/>
	<path class="st1" d="M398,250.8c8.7,4.2,15.5,10.2,20.5,18c5,7.8,7.4,16.7,7.4,26.7c0,14.8-5.7,27.2-17,37.1
		c-11.3,9.9-25.4,14.9-42.3,14.9h-84.2V164.5h82.6c16.2,0,29.6,4.4,40.2,13.3c10.6,8.9,15.9,20,15.9,33.5c0,8-2.1,15.6-6.3,22.6
		C410.8,241,405.2,246.6,398,250.8z M368.8,231.3c3.1-2.9,4.7-6.7,4.7-11.5c0-4.8-1.6-8.7-4.7-11.6c-3.1-3-7.3-4.4-12.5-4.4h-25.4
		v31.9h25.4C361.5,235.6,365.6,234.2,368.8,231.3z M358.3,306.2c5.4,0,9.8-1.6,13.1-4.7c3.3-3.1,5-7.1,5-12c0-4.9-1.7-8.9-5-12
		c-3.3-3.1-7.7-4.7-13.1-4.7h-27.4v33.5H358.3z"/>
</g>
</svg>
