<?xml version="1.0" encoding="utf-8"?>
<!-- Generator: Adobe Illustrator 17.0.0, SVG Export Plug-In . SVG Version: 6.00 Build 0)  -->
<!DOCTYPE svg PUBLIC "-//W3C//DTD SVG 1.1//EN" "http://www.w3.org/Graphics/SVG/1.1/DTD/svg11.dtd">
<svg version="1.1" id="Слой_1" xmlns="http://www.w3.org/2000/svg" xmlns:xlink="http://www.w3.org/1999/xlink" x="0px" y="0px"
	 width="38px" height="38px" viewBox="0 0 38 38" enable-background="new 0 0 38 38" xml:space="preserve">
<g id="Слой_2_1_">
</g>
<g>
	<circle fill="#B7B7B7" cx="19" cy="19" r="19"/>
	<path fill="#FFFFFF" d="M19.676,18.25c0.705-0.134,1.147-0.463,1.538-0.754c0.463-0.345,0.829-0.618,1.617-0.618
		c0.793,0,1.156,0.271,1.615,0.616c0.513,0.382,1.095,0.815,2.217,0.815c1.129,0,1.732-0.452,2.218-0.817
		c0.46-0.343,0.823-0.614,1.614-0.614H31v-2.206L19.203,7.004L19.197,7h-0.393L7.07,14.627L7,14.672v2.206h0.502
		c0.789,0,1.154,0.272,1.616,0.617c0.511,0.382,1.091,0.815,2.216,0.815c1.129,0,1.732-0.452,2.218-0.816
		c0.46-0.343,0.823-0.614,1.615-0.614c0.791,0,1.155,0.271,1.616,0.616c0.39,0.292,0.832,0.623,1.541,0.756l0.173,0.033v7.419H11.31
		L7.307,30.96L7.277,31H8.54l3.267-4.293h6.69V31h1.006v-4.293h5.435l3.264,4.285l0.008,0.01h1.262l-3.618-4.751l4.885-4.885
		l0.109-0.108l-0.712-0.71l-5.157,5.156h-5.476v-7.419L19.676,18.25z M11.335,17.305c-0.789,0-1.152-0.271-1.613-0.614
		c-0.391-0.293-0.834-0.624-1.543-0.757l-0.174-0.033v-0.683l9.893-6.43l-3.065,7.098L14.711,15.9
		c-0.84,0.101-1.328,0.467-1.76,0.791C12.49,17.034,12.126,17.305,11.335,17.305z M26.665,17.305c-0.792,0-1.156-0.272-1.617-0.618
		c-0.431-0.321-0.921-0.685-1.758-0.787l-0.122-0.014l-3.064-7.097l9.891,6.429V15.9l-0.172,0.032
		c-0.708,0.133-1.151,0.463-1.544,0.757C27.819,17.034,27.456,17.305,26.665,17.305z M22.094,15.936l-0.231,0.068
		c-0.543,0.159-0.917,0.438-1.249,0.686c-0.46,0.343-0.823,0.615-1.614,0.615s-1.155-0.271-1.617-0.617
		c-0.329-0.246-0.702-0.525-1.246-0.684l-0.231-0.068L19,8.771L22.094,15.936z"/>
</g>
</svg>
