<?xml version="1.0" encoding="utf-8"?>
<!-- Generator: Adobe Illustrator 17.0.0, SVG Export Plug-In . SVG Version: 6.00 Build 0)  -->
<!DOCTYPE svg PUBLIC "-//W3C//DTD SVG 1.1//EN" "http://www.w3.org/Graphics/SVG/1.1/DTD/svg11.dtd">
<svg version="1.1" id="Слой_1" xmlns="http://www.w3.org/2000/svg" xmlns:xlink="http://www.w3.org/1999/xlink" x="0px" y="0px"
	 width="38px" height="38px" viewBox="0 0 38 38" enable-background="new 0 0 38 38" xml:space="preserve">
<g id="Слой_2_1_">
</g>
<g>
	<circle fill="#B7B7B7" cx="19" cy="19" r="19"/>
	<path fill="#FFFFFF" d="M27.694,9.753h-0.948V8.804c0-1.075-0.875-1.949-1.951-1.949H10.306c-1.075,0-1.95,0.874-1.95,1.949v2.898
		c0,1.075,0.875,1.949,1.95,1.949h0.948v1.674c0,1.075,0.874,1.949,1.949,1.949c1.074,0,1.948-0.874,1.948-1.949v-1.164l0.299,0.105
		c0.713,0.252,1.596,0.023,2.103-0.539l0.065-0.074h7.175c1.076,0,1.951-0.874,1.951-1.949v-0.948h0.948
		c0.522,0,0.948,0.426,0.948,0.948v1.805c0,0.421-0.283,0.797-0.688,0.912l-8.041,2.298c-0.832,0.237-1.413,1.009-1.413,1.875v1.409
		h-2.397c-0.276,0-0.501,0.224-0.501,0.5v1.449c0,0.133,0.054,0.262,0.146,0.354l1.259,1.261l-0.828,4.14
		c-0.169,0.85,0.048,1.72,0.597,2.387c0.548,0.669,1.358,1.053,2.225,1.053c0.864,0,1.675-0.383,2.225-1.052
		c0.548-0.67,0.766-1.54,0.598-2.388l-0.83-4.14l1.262-1.261c0.092-0.094,0.145-0.223,0.145-0.354v-1.449
		c0-0.276-0.224-0.5-0.499-0.5h-2.4v-1.409c0-0.421,0.283-0.797,0.688-0.912l8.042-2.297c0.833-0.239,1.414-1.012,1.414-1.878
		v-1.805C29.643,10.627,28.768,9.753,27.694,9.753z M17.552,10.478c-0.276,0-0.501,0.225-0.501,0.501v1.448
		c0,0.523-0.426,0.949-0.948,0.949s-0.948-0.426-0.948-0.949v-1.448c0-0.276-0.225-0.501-0.501-0.501s-0.501,0.225-0.501,0.501
		v4.347c0,0.522-0.426,0.948-0.948,0.948s-0.948-0.426-0.948-0.948v-4.347c0-0.276-0.225-0.501-0.501-0.501s-0.5,0.225-0.5,0.501
		v1.673h-0.948c-0.523,0-0.949-0.426-0.949-0.948v-2.9c0-0.522,0.426-0.948,0.949-0.948h14.488c0.523,0,0.949,0.426,0.949,0.948
		l0.001,2.899c0,0.522-0.426,0.948-0.949,0.948h-6.744v-1.673C18.052,10.702,17.829,10.478,17.552,10.478z M21.399,21.743
		l-1.303,1.303c-0.119,0.119-0.171,0.289-0.137,0.451l0.881,4.402c0.111,0.554-0.03,1.121-0.389,1.557
		c-0.356,0.436-0.885,0.687-1.45,0.687c-0.564,0-1.093-0.251-1.449-0.687c-0.358-0.437-0.5-1.003-0.389-1.557l0.881-4.403
		c0.032-0.166-0.02-0.335-0.138-0.45l-1.304-1.313v-0.741h4.796L21.399,21.743L21.399,21.743z"/>
</g>
</svg>
