<?xml version="1.0" encoding="utf-8"?>
<!-- Generator: Adobe Illustrator 17.0.0, SVG Export Plug-In . SVG Version: 6.00 Build 0)  -->
<!DOCTYPE svg PUBLIC "-//W3C//DTD SVG 1.1//EN" "http://www.w3.org/Graphics/SVG/1.1/DTD/svg11.dtd">
<svg version="1.1" id="Слой_1" xmlns="http://www.w3.org/2000/svg" xmlns:xlink="http://www.w3.org/1999/xlink" x="0px" y="0px"
	 width="38px" height="38px" viewBox="0 0 38 38" enable-background="new 0 0 38 38" xml:space="preserve">
<g id="Слой_2_1_">
</g>
<g>
	<circle fill="#B7B7B7" cx="19.5" cy="19.5" r="19"/>
	<g>
		<path fill="#FFFFFF" d="M15.155,15.764c-0.029,1.17,0.358,2.191,1.09,2.873c0.09,0.084,0.21,0.129,0.337,0.129
			c0.14,0,0.272-0.056,0.363-0.153c0.092-0.097,0.14-0.224,0.134-0.358c-0.005-0.131-0.061-0.254-0.157-0.345
			c-1.157-1.079-0.919-3.26,0.067-4.489c1.242-1.551,1.521-4.311-0.067-5.792c-0.191-0.181-0.515-0.173-0.703,0.024
			c-0.184,0.201-0.173,0.516,0.026,0.701c1.037,0.969,1.023,3.13-0.032,4.445C15.569,13.605,15.183,14.684,15.155,15.764z"/>
		<path fill="#FFFFFF" d="M26.597,16.938h-1.894v-3.826c0-0.274-0.222-0.496-0.496-0.496h-4.752c-0.273,0-0.495,0.222-0.495,0.496
			s0.222,0.496,0.495,0.496h4.254l-0.013,3.689c-0.013,0.043-0.019,0.089-0.019,0.137v9.248c0,0.057,0.009,0.111,0.021,0.136
			l0.012,3.69H9.17V13.607h3.036l-0.092,0.205c-0.275,0.616-0.429,1.291-0.444,1.951c-0.03,1.17,0.356,2.19,1.089,2.874
			c0.186,0.173,0.524,0.163,0.702-0.025c0.186-0.199,0.175-0.514-0.025-0.702c-1.155-1.079-0.918-3.26,0.067-4.489
			c1.242-1.551,1.521-4.311-0.067-5.792c-0.187-0.175-0.525-0.161-0.701,0.024c-0.186,0.199-0.176,0.514,0.024,0.702
			c0.977,0.912,1.047,2.832,0.151,4.194l-0.042,0.065H8.674c-0.274,0-0.496,0.222-0.496,0.496v17.893
			c0,0.274,0.222,0.496,0.496,0.496h15.532c0.274,0,0.496-0.222,0.496-0.496v-3.826h1.894c2.33,0,4.225-1.895,4.225-4.224V21.16
			C30.822,18.832,28.927,16.938,26.597,16.938z M29.828,21.16v1.793c0,1.781-1.45,3.231-3.231,3.231h-1.894v-8.255h1.894
			C28.378,17.929,29.828,19.379,29.828,21.16z"/>
	</g>
</g>
</svg>
