<?xml version="1.0" encoding="utf-8"?>
<!-- Generator: Adobe Illustrator 17.0.0, SVG Export Plug-In . SVG Version: 6.00 Build 0)  -->
<!DOCTYPE svg PUBLIC "-//W3C//DTD SVG 1.1//EN" "http://www.w3.org/Graphics/SVG/1.1/DTD/svg11.dtd">
<svg version="1.1" id="Слой_1" xmlns="http://www.w3.org/2000/svg" xmlns:xlink="http://www.w3.org/1999/xlink" x="0px" y="0px"
	 width="38px" height="38px" viewBox="0 0 38 38" enable-background="new 0 0 38 38" xml:space="preserve">
<g id="Слой_2_1_">
</g>
<g id="Слой_2_3_">
	<g>
		<g>
			<circle fill="#B7B7B7" cx="19" cy="19" r="19"/>
		</g>
	</g>
	<g>
		<g>
			<g>
				<g>
					<path fill="#FFFFFF" d="M29.19,13.243l-0.048-0.03c-0.205-0.067-0.392-0.032-0.485,0.065l-4.284,3.167v-2.788
						c0-0.194-0.13-0.321-0.224-0.415L24.1,13.213c-0.2-0.066-0.389-0.033-0.485,0.064l-5.022,3.676
						c-0.152,0.077-0.207,0.276-0.207,0.391v1.976h-1.18l-1.427-5.795c-0.059-0.179-0.242-0.365-0.444-0.365h-2.613
						c-0.211,0-0.39,0.15-0.447,0.373L10.76,19.32H9.084c-0.245,0-0.497,0.186-0.497,0.497V31h20.826V13.657
						C29.413,13.464,29.289,13.341,29.19,13.243z M28.419,14.601v15.452h-4.092v-12.46L28.419,14.601z M23.379,14.601v15.451h-4.092
						V17.593L23.379,14.601z M15.167,24.933v5.12h-2.599v-5.12C12.568,24.933,15.167,24.933,15.167,24.933z M11.857,19.32
						l1.336-5.166h1.673l1.202,5.166H11.857z M15.617,23.94H12.07c-0.245,0-0.497,0.186-0.497,0.497v5.616H9.58v-9.786h8.711v9.786
						h-2.178v-5.616C16.114,24.192,15.928,23.94,15.617,23.94z"/>
					<path fill="#FFFFFF" d="M12.18,11.111c0.015,0.357,0.15,0.691,0.409,1.001c0.197,0.199,0.467,0.215,0.67,0.062
						c0.093-0.062,0.159-0.167,0.179-0.287c0.024-0.141-0.013-0.284-0.098-0.398c-0.114-0.171-0.167-0.327-0.167-0.491v-0.093
						c0-0.207-0.084-0.372-0.248-0.48c-0.343-0.196-0.499-0.396-0.499-0.5c0-0.164,0.187-0.368,0.505-0.55
						c0.205-0.137,0.291-0.339,0.228-0.578c-0.033-0.067-0.033-0.139-0.033-0.178c0-0.402,0.315-0.717,0.717-0.717
						s0.716,0.315,0.716,0.717c0,0.039,0,0.111-0.043,0.203c-0.054,0.218,0.03,0.415,0.251,0.561
						c0.317,0.159,0.492,0.352,0.492,0.542c0,0.195-0.18,0.378-0.476,0.49c-0.197,0.066-0.324,0.308-0.272,0.508v0.075
						c0,0.21-0.086,0.4-0.245,0.519c-0.197,0.197-0.13,0.511,0.046,0.689c0.085,0.085,0.254,0.144,0.412,0.144
						c0.148,0,0.276-0.05,0.371-0.144c0.306-0.306,0.482-0.692,0.501-1.091c0.447-0.289,0.702-0.72,0.702-1.19
						c0-0.467-0.258-0.877-0.746-1.189V8.664C15.553,7.762,14.791,7,13.89,7c-0.902,0-1.664,0.762-1.664,1.664v0.071
						c-0.469,0.302-0.746,0.742-0.746,1.189C11.48,10.377,11.722,10.786,12.18,11.111z"/>
				</g>
				<path display="none" fill="#FFFFFF" d="M20.41,24.509h2.169c0.189,0,0.377-0.141,0.377-0.377v-2.169
					c0-0.189-0.189-0.377-0.377-0.377H20.41c-0.189,0-0.377,0.141-0.377,0.377v2.169C20.032,24.32,20.174,24.509,20.41,24.509z
					 M20.787,22.34h1.462v1.462h-1.462V22.34z"/>
				<path display="none" fill="#FFFFFF" d="M25.549,24.509h2.169c0.189,0,0.377-0.141,0.377-0.377v-2.169
					c-0.047-0.189-0.189-0.377-0.377-0.377h-2.169c-0.189,0-0.377,0.141-0.377,0.377v2.169
					C25.172,24.32,25.313,24.509,25.549,24.509z M25.879,22.34h1.462v1.462h-1.462V22.34z"/>
			</g>
		</g>
	</g>
</g>
</svg>
