<?xml version="1.0" encoding="utf-8"?>
<!-- Generator: Adobe Illustrator 17.0.0, SVG Export Plug-In . SVG Version: 6.00 Build 0)  -->
<!DOCTYPE svg PUBLIC "-//W3C//DTD SVG 1.1//EN" "http://www.w3.org/Graphics/SVG/1.1/DTD/svg11.dtd">
<svg version="1.1" id="Слой_1" xmlns="http://www.w3.org/2000/svg" xmlns:xlink="http://www.w3.org/1999/xlink" x="0px" y="0px"
	 width="38px" height="38px" viewBox="0 0 38 38" enable-background="new 0 0 38 38" xml:space="preserve">
<g id="Слой_2_1_">
</g>
<g>
	<circle fill="#B7B7B7" cx="19" cy="19" r="19"/>
	<path fill="#FFFFFF" d="M26.475,7l-2.851,2.85v4.828H21.85V9.85L19,7l-2.85,2.85v4.828h-1.775V9.85L11.525,7l-2.85,2.85V31h5.7
		v-3.935h1.775V31h5.7v-3.935h1.774V31h5.702V9.85L26.475,7z M21.85,16.252v-0.595h1.774v0.595H21.85z M21.85,24.512V17.23h1.774
		v7.282H21.85z M23.624,25.493v0.594H21.85v-0.594H23.624z M26.474,8.385l1.871,1.871l0.001,19.765h-3.742V10.255L26.474,8.385z
		 M17.129,30.021V10.255L19,8.384l1.87,1.87v19.767H17.129z M14.376,16.252v-0.595h1.775v0.595H14.376z M14.376,24.512V17.23h1.775
		v7.282H14.376z M16.15,25.493v0.594h-1.775v-0.594H16.15z M9.654,30.021V10.255l1.871-1.87l1.871,1.87l0.001,19.766H9.654z"/>
</g>
</svg>
