<?xml version="1.0" encoding="utf-8"?>
<!-- Generator: Adobe Illustrator 17.0.0, SVG Export Plug-In . SVG Version: 6.00 Build 0)  -->
<!DOCTYPE svg PUBLIC "-//W3C//DTD SVG 1.1//EN" "http://www.w3.org/Graphics/SVG/1.1/DTD/svg11.dtd">
<svg version="1.1" id="Слой_1" xmlns="http://www.w3.org/2000/svg" xmlns:xlink="http://www.w3.org/1999/xlink" x="0px" y="0px"
	 width="38px" height="38px" viewBox="0 0 38 38" enable-background="new 0 0 38 38" xml:space="preserve">
<g id="Слой_2_1_">
</g>
<g>
	<circle fill="#B7B7B7" cx="19" cy="19" r="19"/>
	<g>
		<path fill="#FFFFFF" d="M27.206,10.741h-10.94c-1.281,0-2.324,1.043-2.324,2.324v1.366c0,1.233-1.004,2.237-2.237,2.237
			s-2.237-1.004-2.237-2.237V7.363c0-0.274-0.224-0.498-0.499-0.498S8.47,7.089,8.47,7.363v23.273c0,0.275,0.224,0.499,0.499,0.499
			s0.499-0.224,0.499-0.499v-7.542c0-1.233,1.004-2.237,2.237-2.237s2.237,1.004,2.237,2.237v0.91
			c-0.001,0.62,0.241,1.204,0.68,1.644c0.439,0.439,1.023,0.682,1.644,0.682h10.94c1.282,0,2.325-1.043,2.325-2.324v-10.94
			C29.53,11.784,28.488,10.741,27.206,10.741z M28.533,13.065v10.94c0,0.732-0.596,1.328-1.328,1.328h-10.94
			c-0.731,0-1.327-0.596-1.327-1.328v-10.94c0-0.731,0.596-1.327,1.327-1.327h10.94C27.937,11.738,28.533,12.333,28.533,13.065z
			 M13.94,20.763c-0.605-0.584-1.396-0.903-2.237-0.903c-0.84,0-1.631,0.319-2.237,0.903v-4c0.606,0.583,1.396,0.902,2.237,0.902
			s1.631-0.319,2.237-0.902C13.94,16.763,13.94,20.763,13.94,20.763z"/>
		<path fill="#FFFFFF" d="M24.057,13.021h-4.645v3.192H16.22v4.645h3.192v3.192h4.645v-3.192h3.192v-4.645h-3.192V13.021z
			 M23.061,19.86v3.192h-2.652V19.86h-3.192v-2.651h3.192v-3.191h2.652v3.191h3.192v2.651H23.061z"/>
	</g>
</g>
</svg>
