<?xml version="1.0" encoding="utf-8"?>
<!-- Generator: Adobe Illustrator 17.0.0, SVG Export Plug-In . SVG Version: 6.00 Build 0)  -->
<!DOCTYPE svg PUBLIC "-//W3C//DTD SVG 1.1//EN" "http://www.w3.org/Graphics/SVG/1.1/DTD/svg11.dtd">
<svg version="1.1" id="Слой_1" xmlns="http://www.w3.org/2000/svg" xmlns:xlink="http://www.w3.org/1999/xlink" x="0px" y="0px"
	 width="38px" height="38px" viewBox="0 0 38 38" enable-background="new 0 0 38 38" xml:space="preserve">
<g id="Слой_2_1_">
</g>
<g>
	<circle fill="#B7B7B7" cx="19" cy="19" r="19"/>
	<g>
		<path fill="#FFFFFF" d="M27.477,7.144C27.385,7.051,27.261,7,27.128,7H10.872c-0.271,0-0.491,0.219-0.491,0.49v23.019
			c0,0.271,0.22,0.492,0.491,0.492h16.256c0.27,0,0.491-0.22,0.491-0.492V7.491C27.62,7.359,27.57,7.237,27.477,7.144z
			 M18.508,30.017h-7.145V7.98h7.145h0.983h7.146v22.038h-7.146L18.508,30.017z"/>
		<path fill="#FFFFFF" d="M19,17.392c0.271,0,0.491-0.22,0.491-0.491v-1.803c0-0.27-0.22-0.491-0.491-0.491s-0.492,0.22-0.492,0.491
			v1.803C18.509,17.171,18.729,17.392,19,17.392z"/>
		<path fill="#FFFFFF" d="M19.492,26.599c0-0.27-0.22-0.491-0.491-0.491s-0.492,0.22-0.492,0.491v1.803c0,0.27,0.22,0.49,0.492,0.49
			c0.271,0,0.491-0.219,0.491-0.49V26.599z"/>
		<path fill="#FFFFFF" d="M19,23.192c0.271,0,0.491-0.22,0.491-0.491v-1.802c0-0.27-0.22-0.491-0.491-0.491s-0.492,0.22-0.492,0.491
			v1.802C18.509,22.972,18.729,23.192,19,23.192z"/>
		<path fill="#FFFFFF" d="M19,11.792c0.271,0,0.491-0.22,0.491-0.491V9.498c0-0.27-0.22-0.491-0.491-0.491s-0.492,0.22-0.492,0.491
			v1.803C18.509,11.572,18.729,11.792,19,11.792z"/>
	</g>
	<rect x="11" y="18.469" fill="#FFFFFF" width="16" height="0.983"/>
	<rect x="11" y="12.469" fill="#FFFFFF" width="16" height="0.983"/>
	<rect x="11" y="23.987" fill="#FFFFFF" width="16" height="0.983"/>
</g>
</svg>
