<?xml version="1.0" encoding="utf-8"?>
<!-- Generator: Adobe Illustrator 24.0.1, SVG Export Plug-In . SVG Version: 6.00 Build 0)  -->
<svg version="1.1" id="Слой_1" xmlns="http://www.w3.org/2000/svg" xmlns:xlink="http://www.w3.org/1999/xlink" x="0px" y="0px"
	 viewBox="0 0 60 60" style="enable-background:new 0 0 60 60;" xml:space="preserve">
<style type="text/css">
	.st0{fill:#81964D;}
</style>
<g>
	<path class="st0" d="M59,58h-8.6v-2.2c0-0.6-0.5-1-1-1s-1,0.5-1,1V58h-2.3V43.5h0.1c0.3,0.2,0.6,0.4,1,0.5l0.3,0.1
		c0.2,0.1,0.5,0.2,0.7,0.3h0.1v6.9c0,0.6,0.5,1,1,1s1-0.5,1-1V45h0.3c4.7-0.1,8.5-4,8.4-8.7c0-1-0.2-2-0.5-2.9l0,0l0,0
		c2.1-2.4,1.8-6-0.5-8.2l0,0l0,0c1.8-2.7,1.1-6.4-1.7-8.3c0,0-0.1,0-0.1-0.1l0,0l0,0c-0.1-1.9-1.2-3.5-2.9-4.2l0,0l0,0
		c0.1-0.4,0.1-0.8,0.1-1.3c0.1-1.8-0.6-3.4-1.8-4.7s-2.8-2-4.6-2.1c-0.1,0-0.2,0-0.2,0c-3.3,0-6.2,2.5-6.5,5.9l0,0l0,0
		c-0.3,0.1-0.5,0.2-0.8,0.3h-0.1v-0.1c-0.5-2-2.1-3.5-4.1-3.9l0,0l0,0c-0.2-2-1.2-3.7-2.8-5C30.9,0.5,29-0.1,27,0.2
		c-4.1,0.5-7,4.2-6.5,8.3c0,0.2,0.1,0.4,0.1,0.6l0,0l0,0c-0.3,0.1-0.6,0.3-0.9,0.5h-0.1V9.4c-0.7-3-3.3-5.1-6.4-5.1
		c-3.7,0.1-6.6,3.1-6.6,6.8c0,0.4,0,0.8,0.1,1.3l0,0l0,0c-1.7,0.7-2.8,2.4-2.9,4.2l0,0l0,0c-1.3,0.9-2.3,2.2-2.6,3.7
		C0.7,22,1,23.6,1.9,24.9c0,0,0,0.1,0.1,0.1l0,0l0,0c-2.3,2.2-2.6,5.7-0.5,8.2l0,0l0,0C1.2,34.1,1,35.1,1,36.1
		c-0.1,4.8,3.7,8.7,8.4,8.8h0.3v13H7.5c-0.6,0-1,0.5-1,1s0.5,1,1,1H59c0.6,0,1-0.5,1-1S59.6,58,59,58z M13.9,58h-2.2V44.6h0.1
		c0.2-0.1,0.4-0.2,0.7-0.3l0.3-0.1c0.3-0.2,0.7-0.3,1-0.5h0.1C13.9,43.6,13.9,58,13.9,58z M13.8,40.9c-0.2,0.2-0.5,0.5-0.7,0.7
		c-0.8,0.6-1.7,1-2.6,1.2c-0.4,0.1-0.7,0.1-1.1,0.1c-3.6-0.1-6.5-3.1-6.4-6.7c0-0.9,0.2-1.9,0.6-2.7c0.2-0.4,0.1-0.9-0.2-1.2
		c-1.6-1.4-1.7-3.9-0.2-5.4c0.3-0.3,0.6-0.5,0.9-0.7s0.5-0.4,0.5-0.8c0-0.3-0.1-0.6-0.3-0.9C3.4,23.7,3,22.8,3,21.7
		c0-1,0.4-2,1.1-2.8c0.3-0.3,0.7-0.6,1.1-0.8c0.4-0.2,0.6-0.6,0.6-1v-0.2v-0.1c0-1.4,0.9-2.5,2.3-2.8c0.3,0,0.6-0.2,0.7-0.5
		C9,13.3,9,13,8.9,12.7c-0.2-0.5-0.3-1.1-0.3-1.6c0-1.2,0.4-2.4,1.3-3.3s2-1.4,3.3-1.4c2.6,0.1,4.6,2.2,4.6,4.8c0,0.1,0,0.2,0.1,0.4
		l0,0l0,0c0,0.1-0.1,0.2-0.1,0.3c0,0,0,0.1-0.1,0.1v0.1c-0.1,0.2-0.2,0.5-0.2,0.7V13c0,0.3-0.1,0.5-0.1,0.8l0,0l0,0
		c-2,1.1-3.3,3.2-3.3,5.5c0,1.3,0.4,2.6,1.2,3.7l0,0l0,0c-1.4,1.2-2.2,3-2.2,4.8c0,0.4,0,0.9,0.1,1.3c0.2,0.8,0.5,1.5,0.9,2.2l0,0v4
		c0,0.4,0,0.8,0.1,1.2c0,0.1,0,0.2,0,0.2c0.1,0.4,0.1,0.7,0.2,1.1l0.1,0.2c0.1,0.4,0.2,0.7,0.4,1.1c0.1,0.4,0.3,0.7,0.5,1.1l0.1,0.2
		c0.2,0.3,0.3,0.5,0.5,0.8l0.1,0.2l-0.8-0.5C14.7,40.5,14.2,40.6,13.8,40.9z M31.2,58H29v-8.6c0-0.6-0.5-1-1-1s-1,0.5-1,1V58H16
		V43.4h0.1c1,0.4,2.1,0.5,3.2,0.4l0,0l0,0c1.3,0.7,2.8,1,4.3,1.1c1.1,0,2.2-0.2,3.2-0.6h0.1V45c0,0.6,0.5,1,1,1s1-0.5,1-1v-1.7l0,0
		c0.3-0.2,0.5-0.4,0.8-0.6l0,0l0,0c0.4,0.2,0.8,0.4,1.2,0.5h0.2C31.2,43.1,31.2,58,31.2,58z M30.2,40.5c-0.4-0.3-0.9-0.2-1.3,0.1
		c-0.5,0.4-1,0.8-1.5,1.2c-1.2,0.7-2.5,1-3.8,1c-1.2,0-2.5-0.3-3.6-0.9c-2.4-1.3-4-3.9-4-6.6V31c0-0.2-0.1-0.4-0.2-0.6
		c-0.4-0.5-0.6-1.1-0.8-1.7c-0.1-0.3-0.1-0.6-0.1-0.9c0-1.6,0.9-3,2.3-3.8c0.2-0.1,0.4-0.3,0.5-0.6c0.1-0.3,0-0.5-0.1-0.8
		c-0.1-0.1-0.1-0.2-0.2-0.3c-0.9-0.8-1.4-2-1.4-3.2c0-1.7,1-3.3,2.6-4c0.4-0.2,0.7-0.6,0.6-1v-0.2v-0.1c0-0.2,0-0.4,0-0.6
		c0.1-0.6,0.4-1.1,0.7-1.5c0.5-0.6,1.2-1,2-1.1c0.3,0,0.6-0.2,0.7-0.5c0.2-0.3,0.2-0.6,0.1-0.9c-0.2-0.6-0.3-1.2-0.3-1.9
		c0-3,2.4-5.4,5.4-5.4s5.4,2.4,5.4,5.4c0,0.6,0.5,1,1,1c1.8,0,3.3,1.5,3.3,3.3c0,0.2,0,0.3,0,0.5c-0.1,0.3-0.1,0.6-0.3,0.9
		c-0.2,0.5-0.1,1,0.4,1.3c1.3,0.8,2,2.2,2,3.7c0,0.7-0.2,1.4-0.5,2c0,0.4,0,0.7,0,1c0.1,0.3,0.3,0.5,0.5,0.6
		c0.7,0.4,1.2,1.1,1.2,1.9c0,0.3-0.1,0.6-0.2,0.9c-0.1,0.3-0.1,0.6,0,0.8c0.1,0.3,0.4,0.5,0.6,0.6c1.6,0.5,3,1.8,3.5,3.4
		c0.2,0.6,0.3,1.2,0.3,1.8c0,2-1.2,3.9-3,4.8c-0.3,0.1-0.4,0.3-0.5,0.6c-0.6,2.1-2.1,3.8-4.1,4.6c-1.6,0.7-3.3,0.9-5,0.4
		C31.7,41.3,30.9,41,30.2,40.5z M44,58H33.2V43.7h0.1c1.5,0.2,3.1,0,4.6-0.6l0,0l0,0c1.9,0.9,4.1,1,6.1,0.3h0.1L44,58L44,58z
		 M45.7,40.7c-0.1,0-0.2,0-0.2,0h-0.3c-0.1,0-0.2,0.1-0.3,0.1L44.6,41c-1.3,0.7-2.8,1-4.2,0.7h-0.1l0.1-0.1l0.1-0.1
		c0.2-0.2,0.5-0.4,0.7-0.6c0-0.1,0.1-0.1,0.1-0.1s0,0,0.1,0c0.3-0.3,0.5-0.6,0.7-0.9l0.2-0.2c0.2-0.3,0.4-0.5,0.5-0.8l0.2-0.3
		c0.2-0.3,0.3-0.7,0.5-1.1l0,0l0,0c2.3-1.3,3.7-3.8,3.8-6.5c0-2.9-1.7-5.5-4.3-6.8l0,0l0,0c0-0.2,0.1-0.5,0.1-0.7
		c0-1.2-0.5-2.4-1.4-3.2l0,0l0,0c0.3-0.7,0.4-1.4,0.4-2.1c0-1.9-0.9-3.7-2.3-4.9l0,0l0,0c0-0.1,0.1-0.2,0.1-0.3l0,0l0,0
		c0.5-0.5,1.1-0.8,1.8-0.8c0.6,0,1-0.5,1-1c0-2.5,2-4.6,4.6-4.6c2.5,0,4.6,2,4.6,4.6c0,0.6-0.1,1.1-0.3,1.6
		c-0.1,0.3-0.1,0.6,0.1,0.9c0.2,0.3,0.4,0.4,0.7,0.5c1.3,0.2,2.3,1.4,2.3,2.8v0.1v0.2c0,0.4,0.2,0.8,0.6,1c1.9,0.9,2.8,3.2,1.9,5.2
		c-0.2,0.4-0.5,0.8-0.8,1.1c-0.2,0.2-0.3,0.5-0.3,0.9c0,0.3,0.2,0.6,0.5,0.8c1.8,1.1,2.4,3.4,1.4,5.3c-0.2,0.3-0.4,0.6-0.7,0.9
		c-0.3,0.3-0.4,0.8-0.2,1.2c0.4,0.9,0.6,1.8,0.6,2.7c0.1,3.6-2.8,6.6-6.4,6.7l0,0c-0.4,0-0.7,0-1.1-0.1c-2-0.5-3.2-1.1-4.1-2.1
		C46,40.8,45.9,40.7,45.7,40.7L45.7,40.7L45.7,40.7z"/>
	<g>
		<path class="st0" d="M50.4,26.7c2.3,0,4.2-1.9,4.2-4.2s-1.9-4.2-4.2-4.2c-0.6,0-1,0.5-1,1s0.5,1,1,1c1.2,0,2.2,1,2.2,2.2
			s-1,2.2-2.2,2.2c-0.6,0-1,0.5-1,1S49.9,26.7,50.4,26.7z"/>
		<path class="st0" d="M30.3,5.3l-0.1-0.1c-0.6-0.6-1.4-0.9-2.2-0.9h-0.1c-0.8,0-1.6,0.4-2.2,1c-1.1,1.2-1.1,3.1,0,4.3
			c0.2,0.2,0.4,0.3,0.7,0.3l0,0l0,0c0.3,0,0.5-0.1,0.7-0.3c0.4-0.4,0.4-1,0-1.4c-0.2-0.2-0.3-0.5-0.3-0.8s0.1-0.6,0.3-0.8
			c0.4-0.4,1.2-0.4,1.6,0C28.8,6.9,29,7,29.3,7s0.5-0.1,0.7-0.2c0.2-0.2,0.3-0.4,0.4-0.7C30.6,5.8,30.4,5.5,30.3,5.3z"/>
		<path class="st0" d="M37.6,35.3c2.3,0,4.2-1.9,4.2-4.2s-1.9-4.2-4.2-4.2c-0.6,0-1,0.5-1,1s0.5,1,1,1c1.2,0,2.2,1,2.2,2.2
			s-1,2.2-2.2,2.2c-0.6,0-1,0.5-1,1S37,35.3,37.6,35.3z"/>
		<path class="st0" d="M1,60h2.1c0.6,0,1-0.5,1-1s-0.5-1-1-1H1c-0.6,0-1,0.5-1,1S0.5,60,1,60z"/>
		<path class="st0" d="M9.6,32.1c-2.3,0-4.2,1.9-4.2,4.2s1.9,4.2,4.2,4.2c0.6,0,1-0.5,1-1s-0.5-1-1-1c-1.2,0-2.2-1-2.2-2.2
			s1-2.2,2.2-2.2c0.6,0,1-0.5,1-1S10.2,32.1,9.6,32.1z"/>
		<path class="st0" d="M23.5,15c-2.3,0-4.2,1.9-4.2,4.2s1.9,4.2,4.2,4.2c0.6,0,1-0.5,1-1s-0.5-1-1-1c-1.2,0-2.2-1-2.2-2.2
			s1-2.2,2.2-2.2c0.6,0,1-0.5,1-1S24.1,15,23.5,15z"/>
	</g>
</g>
</svg>
