<?xml version="1.0" encoding="utf-8"?>
<!-- Generator: Adobe Illustrator 24.0.1, SVG Export Plug-In . SVG Version: 6.00 Build 0)  -->
<svg version="1.1" id="Слой_1" xmlns="http://www.w3.org/2000/svg" xmlns:xlink="http://www.w3.org/1999/xlink" x="0px" y="0px"
	 viewBox="0 0 60 60" style="enable-background:new 0 0 60 60;" xml:space="preserve">
<style type="text/css">
	.st0{fill:#81964D;}
</style>
<path class="st0" d="M59.5,55.9c-0.2-0.2-0.5-0.2-0.7-0.2c-0.3,0-0.5,0.2-0.7,0.4c-1,1.2-2.5,2-4,2s-3.1-0.7-4-2
	c-0.4-0.5-1.2-0.5-1.6,0c-1,1.2-2.5,2-4,2c-1.6,0-3.1-0.7-4-2c-0.4-0.5-1.2-0.5-1.6,0c-1,1.2-2.5,2-4,2c-1.6,0-3.1-0.7-4-2
	c-0.4-0.5-1.2-0.5-1.5,0c-1,1.2-2.5,2-4,2c-1.6,0-3.1-0.7-4-2c-0.4-0.5-1.2-0.5-1.6,0c-1,1.2-2.5,2-4,2s-3.1-0.7-4-2
	c-0.2-0.2-0.5-0.4-0.8-0.4l0,0c-0.3,0-0.6,0.1-0.8,0.4c-1,1.2-2.5,2-4,2s-3.1-0.7-4-2c-0.2-0.2-0.4-0.3-0.7-0.4
	c-0.3,0-0.5,0-0.7,0.2c-0.4,0.3-0.5,1-0.2,1.4c1,1.7,3,2.7,5.2,2.7c1.8,0,3.5-0.7,4.8-1.9c1.3,1.2,3,1.9,4.8,1.9s3.5-0.7,4.8-1.9
	c1.3,1.2,3,1.9,4.8,1.9s3.5-0.7,4.8-1.9c1.3,1.2,3,1.9,4.8,1.9s3.5-0.7,4.8-1.9c1.3,1.2,3,1.9,4.8,1.9s3.5-0.7,4.8-1.9
	c1.3,1.2,3,1.9,4.8,1.9c2.2,0,4.2-1,5.6-2.7C60,56.9,59.9,56.2,59.5,55.9z M0.4,57.1L0.4,57.1L0.4,57.1L0.4,57.1z"/>
<path class="st0" d="M59.5,47.6c-0.2-0.2-0.5-0.2-0.7-0.2c-0.3,0-0.5,0.2-0.7,0.4c-1,1.2-2.5,2-4,2c-1.6,0-3.1-0.7-4-2
	c-0.4-0.5-1.2-0.5-1.6,0c-1,1.2-2.5,2-4,2c-1.6,0-3.1-0.7-4-2c-0.4-0.5-1.2-0.5-1.6,0c-1,1.2-2.5,2-4,2s-3.1-0.7-4-2
	c-0.4-0.5-1.2-0.5-1.6,0c-1,1.2-2.5,2-4,2c-1.6,0-3.1-0.7-4-2c-0.4-0.5-1.2-0.5-1.6,0c-1,1.2-2.5,2-4,2s-3.1-0.7-4-2
	c-0.2-0.2-0.5-0.4-0.8-0.4l0,0c-0.3,0-0.6,0.1-0.8,0.4c-1,1.2-2.5,2-4,2s-3.1-0.7-4-2c-0.2-0.2-0.4-0.3-0.7-0.4
	c-0.3,0-0.5,0-0.7,0.2c-0.4,0.3-0.5,1-0.2,1.4c1.4,1.7,3.4,2.7,5.6,2.7c1.8,0,3.5-0.7,4.8-1.9c1.3,1.2,3,1.9,4.8,1.9
	s3.5-0.7,4.8-1.9c1.3,1.2,3,1.9,4.8,1.9s3.5-0.7,4.8-1.9c1.3,1.2,3,1.9,4.8,1.9s3.5-0.7,4.8-1.9c1.3,1.2,3,1.9,4.8,1.9
	s3.5-0.7,4.8-1.9c1.3,1.2,3,1.9,4.8,1.9c2.2,0,4.2-1,5.6-2.7C60,48.6,59.9,48,59.5,47.6z"/>
<path class="st0" d="M58.9,40.7h-0.8v-0.9c0-2.7-2.2-4.9-4.9-4.9s-4.9,2.2-4.9,4.9v0.9h-3.5v-10c0.9,0.5,1.9,0.8,3,0.8
	c3.2,0,5.9-2.6,5.9-5.9c0-1.3-0.4-2.6-1.3-3.6c0.8-1,1.3-2.3,1.3-3.6c0-1.3-0.4-2.6-1.3-3.6c0.8-1,1.3-2.3,1.3-3.6
	c0-2.5-1.6-4.8-4-5.6C49.6,2.5,47,0,43.9,0S38.2,2.5,38,5.6c-2.4,0.8-4,3-4,5.6c0,1.3,0.4,2.6,1.3,3.6c-0.8,1-1.3,2.3-1.3,3.6
	s0.4,2.6,1.3,3.6c-0.8,1-1.3,2.3-1.3,3.6c0,3.2,2.6,5.9,5.9,5.9c1,0,2.1-0.3,3-0.8v10h-3.8v-0.9c0-2.7-2.2-4.9-4.9-4.9
	c-1.3,0-2.6,0.5-3.5,1.5c-1.1-2.3-3.3-3.7-5.8-3.7c-3.5,0-6.4,2.9-6.4,6.4v1.5h-2.4v-10c0.9,0.5,1.9,0.8,3,0.8
	c3.2,0,5.9-2.6,5.9-5.9c0-1.3-0.4-2.6-1.3-3.6c0.8-1,1.3-2.3,1.3-3.6s-0.4-2.6-1.3-3.6c0.8-1,1.3-2.3,1.3-3.6c0-2.5-1.6-4.8-4-5.6
	c-0.2-3-2.8-5.5-5.9-5.5S9.4,2.5,9.2,5.6c-2.4,0.8-4,3-4,5.6c0,1.3,0.4,2.6,1.3,3.6c-0.8,1-1.3,2.3-1.3,3.6c0,1.3,0.4,2.6,1.3,3.6
	c-0.8,1-1.3,2.3-1.3,3.6c0,3.2,2.6,5.9,5.9,5.9c1,0,2.1-0.3,3-0.8v10h-2.6v-0.9c0-2.7-2.2-4.9-4.9-4.9s-4.9,2.2-4.9,4.9v0.9H1
	c-0.5,0-1,0.4-1,1c0,0.5,0.4,1,1,1h57.9c0.5,0,1-0.4,1-1C59.9,41.2,59.4,40.7,58.9,40.7z M3.8,40.7v-0.9c0-1.6,1.3-2.9,2.9-2.9
	s2.9,1.3,2.9,2.9v0.9H3.8z M8.6,22.8c0.2-0.2,0.3-0.5,0.3-0.7s-0.1-0.5-0.3-0.7c-0.8-0.7-1.3-1.8-1.3-2.9s0.5-2.2,1.3-2.9
	c0.2-0.2,0.3-0.5,0.3-0.7c0-0.3-0.1-0.5-0.3-0.7c-0.8-0.7-1.3-1.8-1.3-2.9c0-1.9,1.3-3.5,3.2-3.8C11,7.4,11.3,7,11.3,6.4
	c0-0.1,0-0.2,0-0.3C11.2,3.7,13,2,15.1,2S19,3.7,19,5.9c0,0.1,0,0.2,0,0.3c0,0.5,0.3,1,0.8,1.1c1.8,0.3,3.2,2,3.2,3.8
	c0,1.1-0.5,2.2-1.3,2.9c-0.2,0.2-0.3,0.5-0.3,0.7c0,0.3,0.1,0.5,0.3,0.7c0.8,0.7,1.3,1.8,1.3,2.9s-0.5,2.2-1.3,2.9
	c-0.2,0.2-0.3,0.5-0.3,0.7c0,0.3,0.1,0.5,0.3,0.7c0.8,0.7,1.3,1.8,1.3,2.9c0,2.2-1.8,3.9-3.9,3.9c-1.1,0-2.2-0.5-3-1.4v-3.1L19,22
	c0.4-0.4,0.4-1,0-1.4s-1-0.4-1.4,0l-1.5,1.5v-4.4l2.9-2.9c0.4-0.4,0.4-1,0-1.4s-1-0.4-1.4,0l-1.5,1.5v-4.6c0-0.5-0.4-1-1-1
	c-0.5,0-1,0.4-1,1v4.6l-1.5-1.5c-0.4-0.4-1-0.4-1.4,0s-0.4,1,0,1.4l2.9,2.9v4.4l-1.5-1.5c-0.4-0.4-1-0.4-1.4,0s-0.4,1,0,1.4l2.9,2.9
	V28c-0.7,0.9-1.8,1.4-3,1.4c-2.2,0-3.9-1.8-3.9-3.9C7.3,24.6,7.7,23.5,8.6,22.8z M20.5,40.7v-1.5c0-2.5,2-4.4,4.4-4.4
	c2.5,0,4.5,2,4.5,4.4v1.5H20.5z M31.3,40.7v-0.9c0-1.6,1.3-2.9,2.9-2.9s2.9,1.3,2.9,2.9v0.9H31.3z M37.3,22.8
	c0.2-0.2,0.3-0.5,0.3-0.7s-0.1-0.5-0.3-0.7c-0.8-0.7-1.3-1.8-1.3-2.9s0.5-2.2,1.3-2.9c0.2-0.2,0.3-0.5,0.3-0.7
	c0-0.3-0.1-0.5-0.3-0.7c-0.8-0.7-1.3-1.8-1.3-2.9c0-1.9,1.3-3.5,3.2-3.8C39.7,7.2,40,6.7,40,6.2c0-0.1,0-0.2,0-0.3
	c0-1,0.4-2,1.1-2.8C41.8,2.4,42.8,2,43.9,2c2.2,0,3.9,1.8,3.9,3.9c0,0.1,0,0.2,0,0.3c0,0.5,0.3,1,0.8,1.1c1.8,0.3,3.2,2,3.2,3.8
	c0,1.1-0.5,2.2-1.3,2.9c-0.2,0.2-0.3,0.5-0.3,0.7c0,0.3,0.1,0.5,0.3,0.7c0.8,0.7,1.3,1.8,1.3,2.9s-0.5,2.2-1.3,2.9
	c-0.2,0.2-0.3,0.5-0.3,0.7c0,0.3,0.1,0.5,0.3,0.7c0.8,0.7,1.3,1.8,1.3,2.9c0,2.2-1.8,3.9-3.9,3.9c-1.1,0-2.2-0.5-3-1.4v-3.1l2.9-2.9
	c0.2-0.2,0.3-0.4,0.3-0.7c0-0.3-0.1-0.5-0.3-0.7c-0.4-0.4-1-0.4-1.4,0l-1.5,1.5v-4.4l2.9-2.9c0.2-0.2,0.3-0.4,0.3-0.7
	s-0.1-0.5-0.3-0.7c-0.4-0.4-1-0.4-1.4,0l-1.5,1.5v-4.6c0-0.5-0.4-1-1-1c-0.5,0-1,0.4-1,1v4.6l-1.5-1.5c-0.4-0.4-1-0.4-1.4,0
	c-0.2,0.2-0.3,0.4-0.3,0.7s0.1,0.5,0.3,0.7l2.9,2.9v4.4l-1.5-1.5c-0.4-0.4-1-0.4-1.4,0s-0.4,1,0,1.4l2.9,2.9V28
	c-0.7,0.9-1.8,1.4-3,1.4c-2.2,0-3.9-1.8-3.9-3.9C36,24.6,36.5,23.5,37.3,22.8z M50.3,40.7v-0.9c0-1.6,1.3-2.9,2.9-2.9
	s2.9,1.3,2.9,2.9v0.9H50.3z"/>
</svg>
