<?xml version="1.0" encoding="utf-8"?>
<!-- Generator: Adobe Illustrator 24.0.1, SVG Export Plug-In . SVG Version: 6.00 Build 0)  -->
<svg version="1.1" id="Слой_1" xmlns="http://www.w3.org/2000/svg" xmlns:xlink="http://www.w3.org/1999/xlink" x="0px" y="0px"
	 viewBox="0 0 60 60" style="enable-background:new 0 0 60 60;" xml:space="preserve">
<style type="text/css">
	.st0{fill:#81964D;}
</style>
<g id="Слой_1_1_">
	<path class="st0" d="M59.1,51.6c-1.4,0-2.2,0.6-2.7,1c-0.3,0.3-0.6,0.5-1.3,0.5c-0.8,0-1.1-0.2-1.5-0.6c-0.5-0.4-1.3-1-2.7-1
		s-2.2,0.6-2.7,1c-0.4,0.3-0.7,0.6-1.5,0.6s-1.1-0.2-1.5-0.6c-0.5-0.4-1.3-1-2.7-1s-2.2,0.6-2.7,1c-0.4,0.3-0.7,0.6-1.5,0.6
		s-1.1-0.2-1.5-0.6c-0.5-0.4-1.3-1-2.7-1s-2.2,0.6-2.7,1c-0.4,0.3-0.7,0.6-1.5,0.6s-1.1-0.2-1.5-0.6c-0.5-0.4-1.3-1-2.7-1
		c-1.4,0-2.2,0.6-2.7,1c-0.4,0.3-0.7,0.6-1.5,0.6s-1.1-0.2-1.5-0.6c-0.5-0.4-1.3-1-2.7-1c-1.4,0-2.2,0.6-2.7,1
		c-0.4,0.3-0.7,0.6-1.5,0.6s-1.1-0.2-1.5-0.6c-0.5-0.4-1.3-1-2.7-1s-2.2,0.6-2.7,1c-0.4,0.3-0.7,0.6-1.5,0.6s-1.1-0.2-1.5-0.6
		c-0.5-0.4-1.3-1-2.7-1H0.2v2h0.3c0.8,0,1.1,0.2,1.5,0.6c0.5,0.4,1.3,1,2.7,1s2.2-0.6,2.7-1c0.4-0.3,0.7-0.6,1.5-0.6
		s1.1,0.2,1.5,0.6c0.5,0.4,1.3,1,2.7,1s2.2-0.6,2.7-1c0.4-0.3,0.7-0.6,1.5-0.6s1.1,0.2,1.5,0.6c0.5,0.4,1.3,1,2.7,1
		c1.4,0,2.2-0.6,2.7-1c0.4-0.3,0.7-0.6,1.5-0.6s1.1,0.2,1.5,0.6c0.6,0.5,1.3,1,2.6,1c1.4,0,2.2-0.6,2.7-1c0.4-0.3,0.7-0.6,1.5-0.6
		s1.1,0.2,1.5,0.6c0.5,0.4,1.3,1,2.7,1s2.2-0.6,2.7-1c0.4-0.3,0.7-0.6,1.5-0.6s1.1,0.2,1.5,0.6c0.5,0.4,1.3,1,2.7,1s2.2-0.6,2.7-1
		c0.4-0.3,0.7-0.6,1.5-0.6s1.1,0.2,1.5,0.6c0.5,0.4,1.3,1,2.7,1s2.2-0.6,2.7-1s0.7-0.6,1.5-0.6h0.3v-2L59.1,51.6L59.1,51.6z"/>
	<path class="st0" d="M59.1,56.5c-1.4,0-2.2,0.6-2.7,1C56.1,57.9,55.8,58,55,58s-1.1-0.2-1.5-0.6c-0.5-0.4-1.3-1-2.7-1
		s-2.2,0.6-2.7,1c-0.4,0.3-0.7,0.6-1.5,0.6s-1.1-0.2-1.5-0.6c-0.5-0.4-1.3-1-2.7-1s-2.2,0.6-2.7,1C39.3,57.8,39,58,38.3,58
		c-0.8,0-1.1-0.2-1.5-0.6c-0.5-0.4-1.3-1-2.7-1s-2.2,0.6-2.7,1C31,57.8,30.6,58,29.9,58c-0.8,0-1.1-0.2-1.5-0.6
		c-0.5-0.4-1.3-1-2.7-1c-1.4,0-2.2,0.6-2.7,1c-0.4,0.3-0.7,0.6-1.5,0.6s-1.1-0.2-1.5-0.6c-0.5-0.4-1.3-1-2.7-1c-1.4,0-2.2,0.6-2.7,1
		c-0.4,0.3-0.7,0.6-1.5,0.6s-1.1-0.2-1.5-0.6c-0.5-0.4-1.3-1-2.7-1s-2.2,0.6-2.7,1C5.8,57.8,5.5,58,4.7,58s-1.1-0.2-1.5-0.6
		c-0.5-0.4-1.3-1-2.7-1H0.2v2h0.3c0.8,0,1.1,0.2,1.5,0.6c0.5,0.4,1.3,1,2.7,1s2.2-0.6,2.7-1c0.4-0.3,0.7-0.6,1.5-0.6
		s1.1,0.2,1.5,0.6c0.5,0.4,1.3,1,2.7,1s2.2-0.6,2.7-1c0.4-0.3,0.7-0.6,1.5-0.6s1.1,0.2,1.5,0.6c0.5,0.4,1.3,1,2.7,1
		c1.4,0,2.2-0.6,2.7-1c0.4-0.3,0.7-0.6,1.5-0.6s1.1,0.2,1.5,0.6c0.6,0.5,1.3,1,2.6,1c1.4,0,2.2-0.6,2.7-1c0.4-0.3,0.7-0.6,1.5-0.6
		s1.1,0.2,1.5,0.6c0.5,0.4,1.3,1,2.7,1s2.2-0.6,2.7-1c0.4-0.3,0.7-0.6,1.5-0.6s1.1,0.2,1.5,0.6c0.5,0.4,1.3,1,2.7,1s2.2-0.6,2.7-1
		c0.4-0.3,0.7-0.6,1.5-0.6s1.1,0.2,1.5,0.6c0.5,0.4,1.3,1,2.7,1s2.2-0.6,2.7-1s0.7-0.6,1.5-0.6h0.3v-2L59.1,56.5L59.1,56.5z"/>
	<path class="st0" d="M59.1,46.6c-1.4,0-2.2,0.6-2.7,1c-0.3,0.3-0.6,0.5-1.3,0.5c-0.8,0-1.1-0.2-1.5-0.6c-0.5-0.4-1.3-1-2.7-1
		s-2.2,0.6-2.7,1c-0.4,0.3-0.7,0.6-1.5,0.6s-1.1-0.2-1.5-0.6c-0.5-0.4-1.3-1-2.7-1s-2.2,0.6-2.7,1c-0.4,0.3-0.7,0.6-1.5,0.6
		s-1.1-0.2-1.5-0.6c-0.5-0.4-1.3-1-2.7-1s-2.2,0.6-2.7,1c-0.4,0.3-0.7,0.6-1.5,0.6s-1.1-0.2-1.5-0.6c-0.5-0.4-1.3-1-2.7-1
		c-1.4,0-2.2,0.6-2.7,1c-0.4,0.3-0.7,0.6-1.5,0.6s-1.1-0.2-1.5-0.6c-0.5-0.4-1.3-1-2.7-1c-1.4,0-2.2,0.6-2.7,1
		c-0.4,0.3-0.7,0.6-1.5,0.6s-1.1-0.2-1.5-0.6c-0.5-0.4-1.3-1-2.7-1s-2.2,0.6-2.7,1c-0.4,0.3-0.7,0.6-1.5,0.6s-1.1-0.2-1.5-0.6
		c-0.5-0.4-1.3-1-2.7-1H0.2v2h0.3c0.8,0,1.1,0.2,1.5,0.6c0.5,0.4,1.3,1,2.7,1s2.2-0.6,2.7-1c0.4-0.3,0.7-0.6,1.5-0.6
		s1.1,0.2,1.5,0.6c0.5,0.4,1.3,1,2.7,1s2.2-0.6,2.7-1c0.4-0.3,0.7-0.6,1.5-0.6s1.1,0.2,1.5,0.6c0.5,0.4,1.3,1,2.7,1
		c1.4,0,2.2-0.6,2.7-1c0.4-0.3,0.7-0.6,1.5-0.6s1.1,0.2,1.5,0.6c0.6,0.5,1.3,1,2.6,1c1.4,0,2.2-0.6,2.7-1c0.4-0.3,0.7-0.6,1.5-0.6
		s1.1,0.2,1.5,0.6c0.5,0.4,1.3,1,2.7,1s2.2-0.6,2.7-1c0.4-0.3,0.7-0.6,1.5-0.6s1.1,0.2,1.5,0.6c0.5,0.4,1.3,1,2.7,1s2.2-0.6,2.7-1
		c0.4-0.3,0.7-0.6,1.5-0.6s1.1,0.2,1.5,0.6c0.5,0.4,1.3,1,2.7,1s2.2-0.6,2.7-1s0.7-0.6,1.5-0.6h0.3v-2L59.1,46.6L59.1,46.6z"/>
	<path class="st0" d="M47.7,41.7l-0.6-1.9c0.3-0.1,0.6-0.5,0.6-0.9c0-0.6-0.4-1-1-1H31.3l-0.5-1.1h4.6c0.6,0,1-0.4,1-1s-0.4-1-1-1
		h-5.5l-1.7-3.9c-0.2-0.5-0.8-0.7-1.3-0.5s-0.7,0.8-0.5,1.3l3,7.2l-0.9,2.8h-1.8c0-0.1,0-0.1-0.1-0.2L20,22.9c0.4,0,0.8,0.2,1.1,0.4
		c0.3,0.2,0.7,0.3,1,0.1c0.3-0.1,0.5-0.4,0.6-0.7c0.2-0.8,0.8-1.3,1.4-1.6c0.8-0.2,1.5-0.1,2.1,0.3c0.3,0.2,0.7,0.3,1,0.1
		c0.3-0.1,0.5-0.4,0.6-0.7c0.2-0.8,0.8-1.3,1.4-1.6c0.7-0.2,1.4-0.2,2,0.2c0.4,0.3,1,0.2,1.2-0.1c0.4-0.3,0.5-0.8,0.3-1.2
		C30.2,11,22.3,7.1,15,9.2l-0.2-0.7C15,8,14.4,7.8,13.9,8s-0.8,0.8-0.6,1.3l0.2,0.7c-7,3-10.6,10.9-8.2,18.3c0.2,0.5,0.6,0.7,1,0.7
		c0.5,0,0.8-0.3,1-0.7c0.2-0.7,0.7-1.2,1.4-1.4c0.8-0.2,1.5-0.1,2.1,0.3c0.3,0.2,0.7,0.3,1,0.1c0.3-0.1,0.5-0.4,0.6-0.7
		c0.2-0.8,0.8-1.3,1.4-1.6c0.8-0.2,1.5-0.1,2.1,0.3c0.3,0.2,0.7,0.3,1,0.1c0.3-0.1,0.5-0.4,0.6-0.7c0.1-0.4,0.4-0.8,0.7-1l6.5,18.1
		L0,41.6v1.9l29.5,0.1h30.1v-2L47.7,41.7z M30.8,41.7l0.6-1.8h13.7l0.6,1.9L30.8,41.7z M18.5,21.2c-0.6,0.2-1.1,0.6-1.5,1
		c-2-6.1-2.2-9.8-1.9-10.7C15.8,12,18,15,20.3,21C19.8,20.9,19.1,21,18.5,21.2z M17.6,11.2c2.9,0.6,6,3.6,8,7.9
		c-0.6,0-1.1,0-1.7,0.3c-0.6,0.2-1.1,0.5-1.6,1C21.2,17.7,19.4,13.6,17.6,11.2z M21.2,10.7c4,0.6,7.5,3,9.5,6.5
		c-0.5,0-1.1,0-1.6,0.2c-0.6,0.2-1.2,0.6-1.6,1C25.9,15.1,23.7,12.4,21.2,10.7z M10.1,24.7c-0.7-0.1-1.3,0-2,0.2l0,0
		c-0.5,0.2-1,0.5-1.4,0.8c-0.7-4,0.6-8.1,3.3-11C9.2,17.5,9.2,21.1,10.1,24.7z M13.2,12.8c0,3.1,1.4,7.7,2.1,10.1
		c-0.6-0.1-1.2,0-1.8,0.2l0,0c-0.6,0.2-1.1,0.5-1.5,0.9C10.7,19.3,11.2,15,13.2,12.8z"/>
	<g>
		<g>
			<path class="st0" d="M48.4,3.9L48.4,3.9c-0.9,0-1.8,0.4-2.4,1c-0.7,0.7-1,1.5-1,2.4s0.4,1.8,1,2.4c0.7,0.7,1.5,1,2.4,1
				s1.8-0.4,2.4-1c0.7-0.7,1-1.5,1-2.4s-0.4-1.8-1-2.4C50.2,4.3,49.3,3.9,48.4,3.9z M49.9,7.4c0,0.4-0.2,0.8-0.4,1.1
				c-0.6,0.6-1.6,0.6-2.2,0c-0.3-0.3-0.4-0.7-0.4-1.1s0.2-0.8,0.4-1.1C47.6,6,48,5.8,48.4,5.8s0.8,0.2,1.1,0.4
				C49.8,6.6,49.9,7,49.9,7.4z"/>
		</g>
		<g>
			<path class="st0" d="M44.3,4.7C44.5,4.9,44.8,5,45,5l0,0c0.3,0,0.5-0.1,0.7-0.3C46,4.5,46.1,4.3,46.1,4S46,3.5,45.8,3.3l-1.1-1.1
				c-0.3-0.2-0.6-0.3-1-0.3C43.3,2,43,2.3,42.9,2.6s0,0.7,0.3,1L44.3,4.7z"/>
			<path class="st0" d="M51.5,5c0.1,0,0.2,0,0.3,0c0.3,0,0.5-0.1,0.7-0.3l1.1-1.1c0.2-0.2,0.3-0.5,0.3-0.7s-0.1-0.5-0.3-0.7
				c-0.4-0.4-1.1-0.4-1.4,0L51,3.3c-0.2,0.3-0.3,0.6-0.2,1C50.9,4.6,51.2,4.9,51.5,5z"/>
			<path class="st0" d="M47.9,3.5c0.2,0.1,0.3,0.1,0.5,0.1s0.4,0,0.5-0.1c0.3-0.2,0.5-0.5,0.5-0.9V1c0-0.3-0.1-0.5-0.3-0.7
				c-0.4-0.4-1.1-0.4-1.4,0c-0.2,0.2-0.3,0.4-0.3,0.7v1.6C47.4,3,47.6,3.3,47.9,3.5z"/>
			<path class="st0" d="M52.5,10c-0.3-0.2-0.6-0.3-1-0.3c-0.3,0.1-0.6,0.4-0.7,0.7c-0.1,0.3,0,0.7,0.3,1l1.1,1.1
				c0.2,0.2,0.5,0.3,0.7,0.3l0,0c0.3,0,0.5-0.1,0.7-0.3s0.3-0.5,0.3-0.7c0-0.3-0.1-0.5-0.3-0.7L52.5,10z"/>
			<path class="st0" d="M55.5,6.6c-0.2-0.2-0.5-0.3-0.7-0.3h-1.6c-0.4,0-0.7,0.2-0.9,0.5s-0.2,0.7,0,1c0.2,0.3,0.5,0.5,0.9,0.5h1.6
				c0.3,0,0.5-0.1,0.7-0.3s0.3-0.5,0.3-0.7C55.8,7.1,55.7,6.8,55.5,6.6z"/>
			<path class="st0" d="M44.3,10l-1.1,1.1c-0.2,0.3-0.3,0.6-0.2,1c0.1,0.3,0.4,0.6,0.7,0.7c0.1,0,0.2,0,0.3,0c0.3,0,0.5-0.1,0.7-0.3
				l1.1-1.1c0.2-0.2,0.3-0.5,0.3-0.7c0-0.3-0.1-0.5-0.3-0.7C45.4,9.6,44.7,9.6,44.3,10z"/>
			<path class="st0" d="M44.5,7.9c0.2-0.3,0.2-0.7,0-1S44,6.4,43.6,6.4H42c-0.4,0-0.7,0.2-0.9,0.5s-0.2,0.7,0,1
				c0.2,0.3,0.5,0.5,0.9,0.5h1.6C44,8.4,44.3,8.2,44.5,7.9z"/>
			<path class="st0" d="M48.9,11.3c-0.3-0.2-0.7-0.2-1,0s-0.5,0.5-0.5,0.9v1.6c0,0.4,0.2,0.7,0.5,0.9c0.2,0.1,0.3,0.1,0.5,0.1
				s0.4,0,0.5-0.1c0.3-0.2,0.5-0.5,0.5-0.9v-1.6C49.4,11.8,49.2,11.4,48.9,11.3z"/>
		</g>
	</g>
</g>
<g id="Слой_2_1_">
</g>
</svg>
