<?xml version="1.0" encoding="utf-8"?>
<!-- Generator: Adobe Illustrator 24.0.1, SVG Export Plug-In . SVG Version: 6.00 Build 0)  -->
<svg version="1.1" id="Слой_1" xmlns="http://www.w3.org/2000/svg" xmlns:xlink="http://www.w3.org/1999/xlink" x="0px" y="0px"
	 viewBox="0 0 60 60" style="enable-background:new 0 0 60 60;" xml:space="preserve">
<style type="text/css">
	.st0{fill:#81964D;}
</style>
<g id="Слой_1_1_">
	<path class="st0" d="M56.7,53.3h-1.3V6.8c0-1.8-1.5-3.3-3.3-3.3H38.6V2.8c0-1.5-1.2-2.8-2.8-2.8C34.3,0,33,1.2,33,2.8v0.8h-6.2V2.8
		C26.8,1.3,25.6,0,24,0s-2.8,1.2-2.8,2.8v0.8H8C6.2,3.5,4.7,5,4.7,6.8v46.5H3.3c-1.8,0-3.3,1.5-3.3,3.3V59c0,0.6,0.4,1,1,1h58
		c0.6,0,1-0.4,1-1v-2.3C60,54.8,58.5,53.3,56.7,53.3z M50.8,7H38.6V5.5H52c0.7,0,1.3,0.6,1.3,1.3v46.5h-1.5V8
		C51.8,7.5,51.4,7,50.8,7z M8,5.5h13.4V7H9.2c-0.6,0-1,0.4-1,1v45.3H6.7V6.8C6.7,6.1,7.3,5.5,8,5.5z M34.8,12.3v10.9h-9.7V12.3
		c1-0.4,1.7-1.4,1.8-2.6V9h6.2v0.8C33.1,10.9,33.8,11.9,34.8,12.3z M23.2,12.3v10.9H23c-1.2,0-2.2,1-2.2,2.2V37c0,1.2,1,2.2,2.2,2.2
		h0.2v2.7h-2.5c-0.6,0-1,0.4-1,1v2.3c0,1.8,1.5,3.3,3.3,3.3h14c1.8,0,3.3-1.5,3.3-3.3v-2.3c0-0.6-0.4-1-1-1h-2.5v-2.7H37
		c1.2,0,2.2-1,2.2-2.2V25.3c0-1.2-1-2.2-2.2-2.2h-0.2V12.3c1-0.4,1.7-1.4,1.8-2.6V9h11.2v44.3H10.2V9h11.2v0.8
		C21.4,10.9,22.1,11.9,23.2,12.3z M24.9,9.8c0,0.4-0.3,0.8-0.8,0.8s-0.8-0.3-0.8-0.8v-7c0-0.4,0.3-0.8,0.8-0.8s0.8,0.3,0.8,0.8V9.8z
		 M36.6,9.8c0,0.4-0.3,0.8-0.8,0.8S35,10.3,35,9.8v-7C35,2.4,35.3,2,35.8,2s0.8,0.3,0.8,0.8V9.8z M21.7,45.2v-1.3h16.7v1.3
		c0,0.7-0.6,1.3-1.3,1.3H23C22.3,46.5,21.7,45.9,21.7,45.2z M25.2,41.8v-2.7h9.7v2.7H25.2z M37.2,37c0,0.1-0.1,0.2-0.2,0.2H23
		c-0.1,0-0.2-0.1-0.2-0.2V25.3c0-0.1,0.1-0.2,0.2-0.2h14c0.1,0,0.2,0.1,0.2,0.2V37z M26.9,7V5.5h6.2V7H26.9z M2,56.7
		c0-0.7,0.6-1.3,1.3-1.3h53.3c0.7,0,1.3,0.6,1.3,1.3V58H2V56.7z"/>
	<path class="st0" d="M32.3,28.4h-4.7c-1.5,0-2.8,1.2-2.8,2.8c0,1.5,1.2,2.8,2.8,2.8h4.7c1.5,0,2.8-1.2,2.8-2.8
		C35.1,29.7,33.9,28.4,32.3,28.4z M32.3,31.9h-4.7c-0.4,0-0.8-0.3-0.8-0.8s0.3-0.8,0.8-0.8h4.7c0.4,0,0.8,0.3,0.8,0.8
		S32.7,31.9,32.3,31.9z"/>
</g>
<g id="Слой_2_1_">
</g>
</svg>
