<?xml version="1.0" encoding="utf-8"?>
<!-- Generator: Adobe Illustrator 24.0.1, SVG Export Plug-In . SVG Version: 6.00 Build 0)  -->
<svg version="1.1" id="Слой_1" xmlns="http://www.w3.org/2000/svg" xmlns:xlink="http://www.w3.org/1999/xlink" x="0px" y="0px"
	 viewBox="0 0 60 60" style="enable-background:new 0 0 60 60;" xml:space="preserve">
<style type="text/css">
	.st0{fill:#81964D;}
</style>
<path class="st0" d="M5.7,60h4.8h15.1h28.7c0.5,0,0.9-0.4,0.9-0.9V28.8c1.5-0.3,2.8-1.1,3.6-2.4c1-1.5,1.2-3.4,0.6-5.1L52.2,0.6
	C52.1,0.2,51.7,0,51.3,0H8.7C8.3,0,7.9,0.2,7.8,0.6L0.6,21.3C0,23,0.2,24.9,1.2,26.4c0.8,1.3,2.1,2.2,3.6,2.4v30.3
	C4.8,59.6,5.2,60,5.7,60z M11.4,58.2V39.9c0-0.2,0.1-0.3,0.3-0.3h12.6c0.2,0,0.3,0.1,0.3,0.3v18.3H11.4z M26.5,58.2V39.9
	c0-1.2-1-2.1-2.1-2.1H11.7c-1.2,0-2.1,1-2.1,2.1v18.3h-3V28.8c1.7-0.3,3.1-1.2,4-2.6c1,1.6,2.8,2.7,4.8,2.7s3.8-1.1,4.8-2.7
	c1,1.6,2.8,2.7,4.8,2.7c2,0,3.8-1.1,4.8-2.7c1,1.6,2.8,2.7,4.8,2.7c2,0,3.8-1.1,4.9-2.7c1,1.6,2.8,2.7,4.8,2.7c2,0,3.8-1.1,4.8-2.7
	c0.9,1.4,2.3,2.3,4,2.6v29.4H26.5z M5.7,12.2h48.6l1.3,3.9H4.3L5.7,12.2z M9.3,1.8h41.4l3,8.5H6.3L9.3,1.8z M2.7,25.4
	c-0.7-1-0.8-2.3-0.4-3.5l1.4-4.1h52.6l1.4,4.1c0.4,1.1,0.2,2.4-0.4,3.5c-0.6,1-1.6,1.6-2.6,1.7c-0.1,0-0.3,0-0.4,0
	c-2.2,0-3.9-1.8-3.9-3.9c0-0.5-0.4-0.9-0.9-0.9c-0.5,0-0.9,0.4-0.9,0.9c0,2.2-1.8,3.9-3.9,3.9c-2.2,0-3.9-1.8-3.9-3.9c0,0,0,0,0,0
	c0-0.1,0-0.2-0.1-0.4c-0.1-0.3-0.5-0.6-0.8-0.6c-0.5,0-0.9,0.4-0.9,0.9c0,0,0,0,0,0c0,2.2-1.8,3.9-3.9,3.9c-2.2,0-3.9-1.8-3.9-3.9
	c0,0,0,0,0,0c0-0.5-0.4-0.9-0.9-0.9c-0.5,0-0.9,0.4-0.9,0.9c0,0,0,0,0,0c0,0,0,0,0,0c0,2.2-1.8,3.9-3.9,3.9c-2.2,0-3.9-1.8-3.9-3.9
	c0-0.5-0.4-0.9-0.9-0.9c-0.5,0-0.9,0.4-0.9,0.9c0,2.2-1.8,3.9-3.9,3.9s-3.9-1.8-3.9-3.9c0-0.5-0.4-0.9-0.9-0.9s-0.9,0.4-0.9,0.9
	c0,2.2-1.8,3.9-3.9,3.9c-0.1,0-0.3,0-0.4,0C4.3,26.9,3.3,26.3,2.7,25.4z"/>
<path class="st0" d="M22.6,47c0.5,0,0.9-0.4,0.9-0.9s-0.4-0.9-0.9-0.9h-1.2c-0.5,0-0.9,0.4-0.9,0.9V51c0,0.5,0.4,0.9,0.9,0.9h1.2
	c0.5,0,0.9-0.4,0.9-0.9c0-0.5-0.4-0.9-0.9-0.9h-0.2V47H22.6z M49.4,35.7H31.3c-0.5,0-0.9,0.4-0.9,0.9V49c0,0.5,0.4,0.9,0.9,0.9h18.1
	c0.5,0,0.9-0.4,0.9-0.9V36.6C50.3,36.1,49.9,35.7,49.4,35.7z M48.5,48H32.2V37.5h16.3V48z"/>
<path class="st0" d="M34.2,46.3c0.2,0.2,0.4,0.3,0.6,0.3s0.5-0.1,0.6-0.3l4.9-4.9c0.4-0.4,0.4-0.9,0-1.3c-0.4-0.4-0.9-0.4-1.3,0
	L34.2,45C33.8,45.3,33.8,45.9,34.2,46.3z M34,43.6c0.2,0,0.5-0.1,0.6-0.3l2.8-2.8c0.4-0.4,0.4-0.9,0-1.3c-0.4-0.4-0.9-0.4-1.3,0
	l-2.8,2.8c-0.4,0.4-0.4,0.9,0,1.3C33.6,43.6,33.8,43.6,34,43.6z"/>
</svg>
