<?xml version="1.0" encoding="utf-8"?>
<!-- Generator: Adobe Illustrator 24.0.1, SVG Export Plug-In . SVG Version: 6.00 Build 0)  -->
<svg version="1.1" id="Слой_1" xmlns="http://www.w3.org/2000/svg" xmlns:xlink="http://www.w3.org/1999/xlink" x="0px" y="0px"
	 viewBox="0 0 60 60" style="enable-background:new 0 0 60 60;" xml:space="preserve">
<style type="text/css">
	.st0{fill:#81964D;}
</style>
<path class="st0" d="M11.8,7.3c-2.3,0-4.2,1.9-4.2,4.2s1.9,4.2,4.2,4.2s4.2-1.9,4.2-4.2S14.1,7.3,11.8,7.3z M11.8,13.7
	c-1.2,0-2.2-1-2.2-2.2s1-2.2,2.2-2.2s2.2,1,2.2,2.2S13,13.7,11.8,13.7z"/>
<path class="st0" d="M11.8,2.6c-0.6,0-1,0.5-1,1v2.2c0,0.6,0.5,1,1,1c0.3,0,0.5-0.1,0.7-0.3s0.3-0.4,0.3-0.7V3.6
	C12.8,3.1,12.3,2.6,11.8,2.6z"/>
<path class="st0" d="M11.8,16.2c-0.6,0-1,0.5-1,1v2.2c0,0.6,0.5,1,1,1c0.3,0,0.5-0.1,0.7-0.3c0.2-0.2,0.3-0.4,0.3-0.7v-2.2
	C12.8,16.7,12.3,16.2,11.8,16.2z"/>
<path class="st0" d="M6.1,10.5H3.9c-0.6,0-1,0.5-1,1s0.5,1,1,1h2.2c0.3,0,0.5-0.1,0.7-0.3s0.3-0.4,0.3-0.7C7.1,11,6.6,10.5,6.1,10.5
	z"/>
<path class="st0" d="M19.7,10.5h-2.2c-0.6,0-1,0.5-1,1s0.5,1,1,1h2.2c0.6,0,1-0.5,1-1S20.2,10.5,19.7,10.5z"/>
<path class="st0" d="M18.1,5.2c-0.4-0.4-1-0.4-1.4,0l-1.5,1.5c-0.2,0.2-0.3,0.4-0.3,0.7c0,0.3,0.1,0.5,0.3,0.7s0.4,0.3,0.7,0.3
	s0.5-0.1,0.7-0.3l1.5-1.5c0.2-0.2,0.3-0.4,0.3-0.7C18.3,5.7,18.2,5.4,18.1,5.2z"/>
<path class="st0" d="M8.4,14.8c-0.4-0.4-1-0.4-1.4,0l-1.5,1.5c-0.2,0.2-0.3,0.4-0.3,0.7s0.1,0.5,0.3,0.7C5.7,17.9,5.9,18,6.2,18
	c0.3,0,0.5-0.1,0.7-0.3l1.5-1.5c0.2-0.2,0.3-0.4,0.3-0.7C8.7,15.3,8.6,15,8.4,14.8z"/>
<path class="st0" d="M8.4,6.8L6.9,5.2C6.7,5,6.5,4.9,6.2,4.9l0,0C5.9,4.9,5.7,5,5.5,5.2C5.3,5.4,5.2,5.7,5.2,5.9
	c0,0.3,0.1,0.5,0.3,0.7L7,8.2c0.2,0.2,0.4,0.3,0.7,0.3c0.3,0,0.5-0.1,0.7-0.3C8.6,8,8.7,7.7,8.7,7.5C8.7,7.2,8.6,6.9,8.4,6.8z"/>
<path class="st0" d="M18.1,16.4l-1.5-1.5c-0.4-0.4-1-0.4-1.4,0s-0.4,1,0,1.4l1.5,1.5c0.2,0.2,0.4,0.3,0.7,0.3c0.3,0,0.5-0.1,0.7-0.3
	c0.2-0.2,0.3-0.4,0.3-0.7S18.2,16.6,18.1,16.4z"/>
<path class="st0" d="M58.9,58H58c-0.6-2-2.4-3.4-4.5-3.6c-0.8-2-2.7-3.3-4.9-3.3c-0.5,0-1,0.1-1.5,0.2c-0.8-1-1.9-1.6-3.1-1.8v-3.9
	c6.3-0.5,11.1-5.8,11.1-12.1c0-13.3-6.6-27.4-11.3-33.2C43.7,0.1,43.4,0,43.1,0l0,0c-0.3,0-0.6,0.1-0.8,0.4C41,2,39.5,4.2,38.2,6.8
	c-0.9-1.7-2.6-2.7-4.6-2.7c-2.5,0-4.6,1.7-5.1,4.2c-1.7,0.4-2.8,1.9-2.8,3.7c0,2.1,1.7,3.8,3.8,3.8h4.9C32.1,21.9,31,28,31,33.6
	c0,6.3,4.9,11.6,11.1,12.1v4c-1.9,0.4-3.4,1.8-3.9,3.7c-2.4,0.3-4.3,2.3-4.5,4.7H31c1.2-1.2,2-2.9,2-4.7c0-3.6-2.9-6.6-6.6-6.6
	c-0.6,0-1.1,0.1-1.6,0.2l-1.6-3.8h2c0.1,0,0.2,0.1,0.2,0.2c0,0.1-0.1,0.2-0.2,0.2c-0.6,0-1,0.5-1,1s0.5,1,1,1c1.2,0,2.2-1,2.2-2.2
	s-1-2.2-2.2-2.2h-3.5h-0.2c0,0-0.1,0-0.2,0.1c-0.1,0-0.2,0.1-0.3,0.2c0,0-0.1,0.1-0.1,0.2c0,0-0.1,0.1-0.1,0.2
	c0,0.1-0.1,0.2-0.1,0.2v0.1v0.2v0.1v0.3h0.1l0.3,0.7h-6.4l-0.1-0.3H15c0.6,0,1-0.5,1-1s-0.5-1-1-1h-3.8c-0.6,0-1,0.5-1,1s0.5,1,1,1
	h1.2l0.5,1.2l-1.7,2.8c-0.8-0.3-1.6-0.5-2.4-0.5c-3.6,0-6.6,2.9-6.6,6.6c0,1.7,0.7,3.4,2,4.7H1c-0.6,0-1,0.5-1,1s0.5,1,1,1h57.9
	c0.6,0,1-0.5,1-1C59.9,58.4,59.5,58,58.9,58z M36.8,9.5c-0.6,1.4-1.3,2.8-1.8,4.2h-5.6c-1,0-1.8-0.8-1.8-1.8s0.8-1.8,1.7-1.8
	c0.5,0,1-0.4,1-1C30.4,7.4,31.8,6,33.5,6c1.7,0,3.1,1.4,3.2,3.1C36.8,9.3,36.8,9.4,36.8,9.5z M43.2,51.5c1.1,0,2.2,0.6,2.8,1.6
	c0.3,0.4,0.8,0.6,1.3,0.4c0.4-0.2,0.9-0.3,1.4-0.3c1.5,0,2.8,1,3.2,2.5c0.1,0.5,0.6,0.8,1,0.8h0.2c1.2,0,2.2,0.6,2.8,1.6H35.7
	c0.3-1.5,1.6-2.7,3.3-2.7l0,0c0.5,0,1-0.4,1.1-0.9C40.2,52.7,41.6,51.5,43.2,51.5z M44.1,43.6v-4.1l3.9-3.9c0.2-0.2,0.3-0.4,0.3-0.7
	s-0.1-0.5-0.3-0.7s-0.4-0.3-0.7-0.3l0,0c-0.3,0-0.5,0.1-0.7,0.3l-2.5,2.5V24.4c0-0.6-0.5-1-1-1s-1,0.5-1,1v7.5l-2.5-2.5
	c-0.2-0.2-0.4-0.3-0.7-0.3l0,0c-0.3,0-0.5,0.1-0.7,0.3c-0.4,0.4-0.4,1,0,1.4l3.9,3.9v8.9C37,43.1,33,38.7,33,33.5
	c0-7.2,2-14,3.7-18.4V15c0.7-1.8,1.5-3.7,2.3-5.4c1.3-2.7,2.7-5.1,4.1-7c4,5.5,10.1,18.4,10.1,30.9C53.2,38.8,49.2,43.1,44.1,43.6z
	 M13.2,52.3h-2.7l1.4-2.3C12.6,50.7,13,51.5,13.2,52.3z M20.9,49.8l1.6-3l0.4,1C22.1,48.3,21.4,49,20.9,49.8z M17.9,51l-2.4-5.5h5.4
	L17.9,51z M15.3,52.3c-0.2-1.6-1.1-3-2.3-4l0.9-1.6l2.4,5.6H15.3z M15.3,54.3h2.6c0.4,0,0.7-0.2,0.9-0.5l1.7-3.2
	c-0.4,0.8-0.6,1.7-0.6,2.7c0,1.7,0.7,3.4,2,4.7h-8.4C14.4,57,15.1,55.7,15.3,54.3z M23.7,49.7l1.8,4.1c0.2,0.5,0.8,0.7,1.3,0.5
	c0.2-0.1,0.4-0.3,0.5-0.6c0.1-0.2,0.1-0.5,0-0.8l-1.8-4.1c2.8-0.5,5.4,1.7,5.4,4.5c0,2.5-2,4.5-4.5,4.5s-4.5-2-4.5-4.5
	C21.9,51.9,22.6,50.5,23.7,49.7z M7.9,52.8c-0.2,0.3-0.2,0.7,0,1c0.2,0.3,0.5,0.5,0.9,0.5h4.4c-0.5,2-2.3,3.5-4.4,3.5
	c-1.2,0-2.4-0.5-3.2-1.3c-0.9-0.9-1.3-2-1.3-3.2c0-2.5,2-4.5,4.5-4.5c0.5,0,0.9,0.1,1.4,0.2L7.9,52.8z"/>
<path class="st0" d="M25.1,23.9c-0.5-2.2-2.4-3.7-4.6-3.7s-4.2,1.6-4.6,3.7c-1.5,0.4-2.5,1.8-2.5,3.3c0,1.9,1.6,3.5,3.5,3.5h7.4
	c1.9,0,3.5-1.5,3.5-3.5C27.7,25.7,26.6,24.4,25.1,23.9z M25.7,27.3c0,0.8-0.6,1.4-1.4,1.4h-7.4c-0.8,0-1.4-0.6-1.4-1.4
	s0.6-1.4,1.4-1.4c0.5,0,1-0.4,1-1c0.1-1.5,1.3-2.6,2.7-2.6c1.5,0,2.7,1.2,2.7,2.6c0,0.5,0.5,1,1,1C25,25.8,25.7,26.5,25.7,27.3z"/>
</svg>
