<?xml version="1.0" encoding="utf-8"?>
<!-- Generator: Adobe Illustrator 24.0.1, SVG Export Plug-In . SVG Version: 6.00 Build 0)  -->
<svg version="1.1" id="Слой_1" xmlns="http://www.w3.org/2000/svg" xmlns:xlink="http://www.w3.org/1999/xlink" x="0px" y="0px"
	 viewBox="0 0 60 60" style="enable-background:new 0 0 60 60;" xml:space="preserve">
<style type="text/css">
	.st0{fill:#81964D;}
</style>
<path class="st0" d="M25.1,27.9c-2.1,0-3.9,1.7-3.9,3.9s1.7,3.9,3.9,3.9S29,34,29,31.8l0,0C29,29.6,27.3,27.9,25.1,27.9z M25.1,33.7
	c-1.1,0-1.9-0.9-1.9-1.9c0-1.1,0.9-1.9,1.9-1.9c1.1,0,1.9,0.9,1.9,1.9C27.1,32.8,26.2,33.7,25.1,33.7L25.1,33.7z M47.9,10.2
	C43.6,9.4,39.3,8,35.4,5.9c-2.6-1.4-5.1-3-7.4-4.9c-1.7-1.4-4.1-1.4-5.9-0.1c-2.3,1.7-4.8,3.3-7.3,4.6c-4,2.1-8.2,3.6-12.5,4.6
	C0.9,10.5,0,11.6,0,13v15.8C0.1,43.7,10.4,56.6,24.9,60c0.1,0,0.2,0,0.3,0c0.1,0,0.1,0,0.2,0c14.5-3.3,24.9-16.2,24.9-31.1V13.1
	C50.3,11.7,49.3,10.5,47.9,10.2z M48.3,28.8c-0.1,13.9-9.7,26-23.2,29.2C11.6,54.8,2,42.8,1.9,28.8V13c0-0.4,0.3-0.8,0.7-0.9
	c4.5-1,8.9-2.6,13-4.8c2.7-1.4,5.2-3,7.6-4.8c1-0.8,2.5-0.8,3.5,0c2.4,1.9,5,3.6,7.7,5.1c4.1,2.1,8.5,3.7,13.1,4.5
	c0.5,0.1,0.8,0.5,0.8,0.9V28.8z M31.9,24h-1v-1.9c0-3.2-2.6-5.8-5.8-5.8s-5.8,2.6-5.8,5.8V24h-1c-1.6,0-2.9,1.3-2.9,2.9v9.7
	c0,1.6,1.3,2.9,2.9,2.9h13.5c1.6,0,2.9-1.3,2.9-2.9v-9.7C34.8,25.3,33.5,24,31.9,24z M21.3,22.1c0-2.1,1.7-3.9,3.9-3.9
	s3.9,1.7,3.9,3.9V24h-7.7L21.3,22.1L21.3,22.1z M32.9,36.6c0,0.5-0.4,1-1,1H18.4c-0.5,0-1-0.4-1-1v-9.7c0-0.5,0.4-1,1-1h13.5
	c0.5,0,1,0.4,1,1V36.6z M42.1,14.5c-3.2-0.6-6.2-1.7-9.1-3.2c-2.2-1.1-4.2-2.5-6.1-4.1c-1-0.9-2.5-0.9-3.6-0.1
	c-1.9,1.5-4,2.8-6.2,3.9c-2.9,1.5-6,2.6-9.1,3.4c-1.3,0.3-2.2,1.5-2.2,2.8V29c0.1,11.4,7.9,21.3,19.1,23.9c0.2,0,0.3,0.1,0.5,0
	c11.1-2.6,19-12.5,19.1-23.9V17.4C44.5,16,43.5,14.8,42.1,14.5L42.1,14.5z M42.5,29c-0.1,10.5-7.2,19.5-17.4,22
	C15,48.5,7.8,39.4,7.7,29V17.3c0-0.4,0.3-0.8,0.7-0.9c3.3-0.8,6.5-2,9.6-3.6c2.3-1.2,4.4-2.6,6.5-4.1c0.3-0.3,0.8-0.3,1.2,0
	c2,1.7,4.2,3.1,6.5,4.4c3,1.6,6.3,2.7,9.6,3.4c0.5,0.1,0.8,0.5,0.8,0.9V29H42.5z"/>
</svg>
