<?xml version="1.0" encoding="utf-8"?>
<!-- Generator: Adobe Illustrator 24.0.1, SVG Export Plug-In . SVG Version: 6.00 Build 0)  -->
<svg version="1.1" id="Слой_1" xmlns="http://www.w3.org/2000/svg" xmlns:xlink="http://www.w3.org/1999/xlink" x="0px" y="0px"
	 viewBox="0 0 60 60" style="enable-background:new 0 0 60 60;" xml:space="preserve">
<style type="text/css">
	.st0{fill:#81964D;}
</style>
<path class="st0" d="M59,38.7c0.5,0,1-0.4,1-1V1c0-0.5-0.4-1-1-1H1C0.4,0,0,0.4,0,1v36.8c0,0.5,0.4,1,1,1h16.2l-5.5,20.1
	c-0.1,0.3,0,0.6,0.2,0.8c0.2,0.2,0.5,0.4,0.8,0.4h3.9c0.4,0,0.8-0.3,0.9-0.7L23,38.7h4.1V59c0,0.5,0.4,1,1,1h3.9c0.5,0,1-0.4,1-1
	V38.7H37l3.2,9.7c-3,0.2-5.4,2.7-5.4,5.8c0,3.2,2.6,5.8,5.8,5.8H59c0.4,0,0.7-0.2,0.9-0.6c0.1-0.4,0.1-0.8-0.2-1.1l-3.2-3.2
	c-0.3-0.3-0.4-0.6-0.4-1s0.1-0.7,0.4-1l3.2-3.2c0.3-0.3,0.4-0.7,0.2-1.1c-0.1-0.4-0.5-0.6-0.9-0.6H46.2L43,38.7L59,38.7z M1.9,1.9
	h56.1v34.8H1.9V1.9z M15.7,58.1h-1.9l5.3-19.4H21L15.7,58.1z M31,58.1H29V38.7H31V58.1z M36.8,54.2c0-2.1,1.7-3.9,3.9-3.9v7.7
	C38.5,58.1,36.8,56.3,36.8,54.2z M55.2,51.9c-0.6,0.6-1,1.5-1,2.3c0,0.9,0.3,1.7,1,2.3l1.5,1.5H42.6v-2.9h7.7v-1.9h-7.7v-2.9h14.1
	L55.2,51.9z M44.1,48.4h-1.8l-3.2-9.7h1.8L44.1,48.4z"/>
<path class="st0" d="M55.2,3.9H4.8c-0.5,0-1,0.4-1,1v29c0,0.5,0.4,1,1,1h50.3c0.5,0,1-0.4,1-1v-29C56.1,4.3,55.7,3.9,55.2,3.9z
	 M48.4,32.9h-5.8V31h5.8V32.9z M54.2,32.9h-3.9V30c0-0.5-0.4-1-1-1h-7.7c-0.5,0-1,0.4-1,1v2.9H5.8V5.8h48.4V32.9z"/>
<path class="st0" d="M13.7,27.8c0,0,0.1,0,0.1,0c0,0,0.1,0.1,0.1,0.1c0.2,0.8,0.8,1.4,1.6,1.5c0.8,0.2,1.6-0.2,2.1-0.8l2.3-3.2
	c0,0,0.1-0.1,0.1-0.1c0.1,0,0.1,0.1,0.1,0.1l1.3,3.1c0.3,0.7,1,1.2,1.7,1.3c0.8,0.1,1.5-0.3,2-1c0,0,0.1-0.1,0.1-0.1
	c0,0,0.1,0,0.1,0l1.3,1.3c0.7,0.7,1.9,0.8,2.7,0.2l3.1-2.3l-1.2-1.5l-3.1,2.3c-0.1,0-0.1,0-0.2,0l-1.3-1.3c-0.4-0.4-1.1-0.7-1.7-0.6
	c-0.6,0.1-1.2,0.4-1.6,1c0,0,0,0.1-0.1,0.1c-0.1,0-0.1-0.1-0.1-0.1L22,24.7c-0.3-0.7-0.9-1.2-1.7-1.2c-0.8-0.1-1.5,0.2-1.9,0.9
	l-2.3,3.2c0,0-0.1,0.1-0.1,0.1c-0.1,0-0.1-0.1-0.1-0.1c-0.2-0.7-0.6-1.2-1.3-1.4c-0.6-0.2-1.3-0.2-1.9,0.2l-4.5,3l1.1,1.6L13.7,27.8
	z"/>
<path class="st0" d="M8.7,19.4H31v1.9H8.7V19.4z"/>
<path class="st0" d="M8.7,11.6H31v1.9H8.7V11.6z"/>
<path class="st0" d="M8.7,15.5H31v1.9H8.7V15.5z"/>
<path class="st0" d="M35.8,26.1c0.1,0,0.2,0,0.4-0.1l4.8-1.9c0.1,0,0.2-0.1,0.3-0.2L52,13.3c0.4-0.4,0.4-1,0-1.4L49.1,9
	c-0.4-0.4-1-0.4-1.4,0L37.1,19.6c-0.1,0.1-0.2,0.2-0.2,0.3l-1.9,4.8c-0.1,0.4-0.1,0.8,0.2,1C35.3,26,35.6,26.1,35.8,26.1L35.8,26.1z
	 M41.6,20.9l-1.5-1.5l5.4-5.4l1.5,1.5L41.6,20.9z M48.4,11l1.5,1.5l-1.5,1.5l-1.5-1.5L48.4,11z M38.6,20.9l0.1-0.1l1.5,1.5l-0.1,0.1
	l-2.6,1L38.6,20.9z"/>
</svg>
