<?xml version="1.0" encoding="utf-8"?>
<!-- Generator: Adobe Illustrator 24.0.1, SVG Export Plug-In . SVG Version: 6.00 Build 0)  -->
<svg version="1.1" id="Слой_1" xmlns="http://www.w3.org/2000/svg" xmlns:xlink="http://www.w3.org/1999/xlink" x="0px" y="0px"
	 viewBox="0 0 60 60" style="enable-background:new 0 0 60 60;" xml:space="preserve">
<style type="text/css">
	.st0{fill:#81964D;}
</style>
<path class="st0" d="M36.7,39.3H23.3c-0.5,0-1,0.4-1,1V59c0,0.5,0.4,1,1,1h13.5c0.5,0,1-0.4,1-1V40.3C37.7,39.8,37.3,39.3,36.7,39.3
	z M35.8,58H24.2V41.3h11.5L35.8,58z"/>
<path class="st0" d="M18.3,39.3h-6.2c-0.5,0-1,0.4-1,1v5.8c0,0.5,0.4,1,1,1h6.2c0.3,0,0.5-0.1,0.7-0.3s0.3-0.4,0.3-0.7v-5.8
	C19.3,39.8,18.8,39.3,18.3,39.3z M13,45.2v-3.8h4.2v3.8H13z"/>
<path class="st0" d="M18.3,47.5h-6.2c-0.5,0-1,0.4-1,1v5.8c0,0.5,0.4,1,1,1h6.2c0.3,0,0.5-0.1,0.7-0.3s0.3-0.4,0.3-0.7v-5.8
	C19.3,48,18.8,47.5,18.3,47.5z M13,53.4v-3.8h4.2v3.8H13z"/>
<path class="st0" d="M47.9,39.3h-6.2c-0.5,0-1,0.4-1,1v5.8c0,0.5,0.4,1,1,1h6.2c0.5,0,1-0.4,1-1v-5.8C48.9,39.8,48.4,39.3,47.9,39.3
	z M46.9,41.3v3.8h-4.2v-3.8H46.9z"/>
<path class="st0" d="M33.1,42.2h-6.2c-0.5,0-1,0.4-1,1V49c0,0.5,0.4,1,1,1h6.2c0.5,0,1-0.4,1-1v-5.8C34.1,42.7,33.6,42.2,33.1,42.2z
	 M27.9,48.1v-3.8h4.2v3.8H27.9z"/>
<path class="st0" d="M47.9,47.5h-6.2c-0.5,0-1,0.4-1,1v5.8c0,0.5,0.4,1,1,1h6.2c0.5,0,1-0.4,1-1v-5.8C48.9,48,48.4,47.5,47.9,47.5z
	 M46.9,49.5v3.8h-4.2v-3.8H46.9z"/>
<path class="st0" d="M52.9,28H7.1c-0.5,0-1,0.4-1,1v30c0,0.5,0.4,1,1,1h45.8c0.3,0,0.5-0.1,0.7-0.3s0.3-0.4,0.3-0.7V29
	C53.9,28.4,53.4,28,52.9,28z M51.9,30v28H8.1V30H51.9z"/>
<path class="st0" d="M26.9,50.9c-0.5,0-1,0.4-1,1v2.4c0,0.5,0.4,1,1,1s1-0.4,1-1v-2.4C27.9,51.3,27.4,50.9,26.9,50.9z"/>
<path class="st0" d="M56.3,19.9H3.7c-2.1,0-3.7,1.7-3.7,3.7v3.6C0,29,1.3,30,3.7,30h52.5c2.5,0,3.7-0.9,3.7-2.7v-3.6
	C60,21.6,58.3,19.9,56.3,19.9z M57.9,27.8C57.6,28,57.1,28,56.5,28H3.7H3.5c-0.6,0-1.1,0-1.4-0.2C2,27.7,2,27.5,2,27.2v-3.6
	c0-1,0.8-1.8,1.8-1.8h52.5c1,0,1.8,0.8,1.8,1.8v3.6C58,27.5,58,27.7,57.9,27.8z"/>
<path class="st0" d="M30,0c-5.5,0-10.7,2.1-14.6,6s-6.1,9.1-6.1,14.6v0.3c0,0.5,0.5,1,1,1l0,0c0.3,0,0.5-0.1,0.7-0.3
	c0.2-0.2,0.3-0.4,0.3-0.7v-0.3C11.3,10.3,19.7,2,30,2s18.7,8.4,18.7,18.6v0.3c0,0.3,0.1,0.5,0.3,0.7s0.4,0.3,0.7,0.3l0,0l0,0
	c0.5,0,1-0.4,1-1v-0.3C50.7,9.2,41.4,0,30,0z"/>
<path class="st0" d="M30,4.1c-9.1,0-16.6,7.4-16.6,16.5v0.3c0,0.3,0.1,0.5,0.3,0.7s0.4,0.3,0.7,0.3l0,0c0.3,0,0.5-0.1,0.7-0.3
	c0.2-0.2,0.3-0.4,0.3-0.7v-0.3C15.4,12.6,22,6,30,6s14.6,6.5,14.6,14.5v0.3c0,0.3,0.1,0.5,0.3,0.7s0.4,0.3,0.7,0.3l0,0
	c0.5,0,1-0.4,1-1v-0.3C46.6,11.5,39.1,4.1,30,4.1z M45.6,21.6L45.6,21.6L45.6,21.6L45.6,21.6z"/>
<path class="st0" d="M30,8.2c-6.9,0-12.5,5.6-12.5,12.4c0,0.1,0,0.2,0,0.3c0,0.5,0.5,1,1,1l0,0c0.3,0,0.5-0.1,0.7-0.3
	c0.2-0.2,0.3-0.4,0.3-0.7c0-0.1,0-0.2,0-0.2c0-5.8,4.7-10.5,10.5-10.5s10.5,4.7,10.5,10.5c0,0.1,0,0.2,0,0.2c0,0.5,0.4,1,1,1l0,0
	c0.5,0,1-0.4,1-0.9c0-0.1,0-0.2,0-0.3C42.5,13.7,36.9,8.2,30,8.2z M41.5,21.6L41.5,21.6L41.5,21.6L41.5,21.6z"/>
<path class="st0" d="M30,12.2c-4.6,0-8.4,3.7-8.4,8.3c0,0.1,0,0.2,0,0.3c0,0.5,0.5,0.9,1,0.9l0,0l0,0c0.5,0,1-0.5,0.9-1
	c0-0.1,0-0.2,0-0.2c0-3.5,2.9-6.4,6.4-6.4s6.4,2.9,6.4,6.4c0,0.1,0,0.2,0,0.2c0,0.3,0.1,0.5,0.3,0.7s0.4,0.3,0.7,0.3
	c0.5,0,1-0.4,1-0.9c0-0.1,0-0.2,0-0.3C38.4,16,34.6,12.2,30,12.2z"/>
<path class="st0" d="M24.1,22.3c-0.5,0-1,0.4-1,1v1.9c0,0.5,0.4,1,1,1c0.5,0,1-0.4,1-1v-1.9C25,22.7,24.6,22.3,24.1,22.3z"/>
<path class="st0" d="M35.9,22.3c-0.5,0-1,0.4-1,1v1.9c0,0.5,0.4,1,1,1s1-0.4,1-1v-1.9C36.9,22.7,36.5,22.3,35.9,22.3z"/>
<path class="st0" d="M33,24.1c-0.1-0.2-0.4-0.4-0.6-0.4c-0.5-0.1-1,0.3-1.1,0.8c-0.1,0.6-0.6,1-1.2,1s-1.1-0.4-1.2-1
	c-0.1-0.5-0.6-0.9-1.1-0.8c-0.3,0-0.5,0.2-0.6,0.4c-0.1,0.2-0.2,0.5-0.2,0.7c0.3,1.5,1.6,2.6,3.2,2.6c1.5,0,2.9-1.1,3.2-2.6
	C33.2,24.6,33.1,24.3,33,24.1z"/>
</svg>
