<?xml version="1.0" encoding="utf-8"?>
<!-- Generator: Adobe Illustrator 24.0.1, SVG Export Plug-In . SVG Version: 6.00 Build 0)  -->
<svg version="1.1" id="Слой_1" xmlns="http://www.w3.org/2000/svg" xmlns:xlink="http://www.w3.org/1999/xlink" x="0px" y="0px"
	 viewBox="0 0 60 60" style="enable-background:new 0 0 60 60;" xml:space="preserve">
<style type="text/css">
	.st0{fill:#81964D;}
</style>
<path class="st0" d="M57,18c0.8,0,1.6-0.3,2.1-0.9c0.6-0.6,0.9-1.3,0.9-2.1V3c0-0.8-0.3-1.6-0.9-2.1C58.6,0.3,57.8,0,57,0H3
	C2.2,0,1.4,0.3,0.9,0.9S0,2.2,0,3v12c0,0.8,0.3,1.6,0.9,2.1C1.4,17.7,2.2,18,3,18h2v37H1c-0.6,0-1,0.4-1,1v3c0,0.3,0.1,0.5,0.3,0.7
	S0.7,60,1,60h58c0.3,0,0.5-0.1,0.7-0.3S60,59.3,60,59v-3c0-0.3-0.1-0.5-0.3-0.7C59.5,55.1,59.3,55,59,55h-4V28h4
	c0.3,0,0.5-0.1,0.7-0.3S60,27.3,60,27v-6c0-0.3-0.1-0.5-0.3-0.7C59.5,20.1,59.3,20,59,20h-4v-2H57z M2,15V3c0-0.6,0.4-1,1-1h54
	c0.3,0,0.5,0.1,0.7,0.3C57.9,2.5,58,2.7,58,3v12c0,0.3-0.1,0.5-0.3,0.7C57.5,15.9,57.3,16,57,16H3C2.4,16,2,15.6,2,15z M43,25h-2v-2
	h2V25z M39,30c0,0.3-0.1,0.5-0.3,0.7C38.5,30.9,38.3,31,38,31H22c-0.6,0-1-0.4-1-1v-2h9c0.3,0,0.5-0.1,0.7-0.3
	c0.2-0.2,0.3-0.4,0.3-0.7v-7c0-0.3-0.1-0.5-0.3-0.7C30.5,19.1,30.3,19,30,19h-9v-1h18V30z M29,33h2v2h-2V33z M21,21h8v5h-8V21z
	 M58,58H2v-1h56V58z M23,48v-1.6c1.2,0.5,2.5,0.7,3.7,0.6c1.7,0,3.3-0.3,4.8-1.1c1.2-0.6,2.6-0.9,4-0.9c0.5,0,1,0,1.5,0.1V48
	c0,2.5-1.3,4.8-3.5,6.1c-2.2,1.3-4.8,1.3-7,0C24.3,52.8,23,50.5,23,48L23,48z M42,45c0,0.9-0.3,1.8-0.9,2.5
	c-0.6,0.7-1.3,1.2-2.2,1.4c0-0.3,0-0.6,0-0.9v-6.9c0.9,0.2,1.6,0.7,2.2,1.4C41.7,43.3,42,44.1,42,45L42,45z M37,43.1
	C36.5,43,36,43,35.5,43c-1.7,0-3.3,0.3-4.8,1.1c-1.2,0.6-2.6,0.9-3.9,0.9c-1.3,0-2.6-0.2-3.7-0.8V41h14L37,43.1z M53,55H35.6
	c1.3-1.1,2.3-2.4,2.8-4c2.1-0.2,3.9-1.4,4.8-3.3c0.9-1.9,0.8-4.1-0.2-5.8C42,40.1,40.1,39,38,39H22c-0.6,0-1,0.4-1,1v8
	c0,2.7,1.2,5.3,3.4,7H7V18h12v12c0,0.8,0.3,1.6,0.9,2.1c0.6,0.6,1.3,0.9,2.1,0.9h5v3c0,0.3,0.1,0.5,0.3,0.7c0.2,0.2,0.4,0.3,0.7,0.3
	h4c0.3,0,0.5-0.1,0.7-0.3S33,36.3,33,36v-3h5c0.8,0,1.6-0.3,2.1-0.9c0.6-0.6,0.9-1.3,0.9-2.1v-3h2c0,0.3,0.1,0.5,0.3,0.7
	c0.2,0.2,0.4,0.3,0.7,0.3h9L53,55z M58,26H45v-4h13V26z M53,20h-9c-0.6,0-1,0.4-1,1h-2v-3h12V20z"/>
<path class="st0" d="M30,15c1.6,0,3.1-0.6,4.2-1.8C35.4,12.1,36,10.6,36,9s-0.6-3.1-1.8-4.2C33.1,3.6,31.6,3,30,3s-3.1,0.6-4.2,1.8
	C24.6,5.9,24,7.4,24,9c0,1.6,0.6,3.1,1.8,4.2C26.9,14.4,28.4,15,30,15L30,15z M30,5c1.1,0,2.1,0.4,2.8,1.2C33.6,6.9,34,7.9,34,9
	s-0.4,2.1-1.2,2.8C32.1,12.6,31.1,13,30,13s-2.1-0.4-2.8-1.2C26.4,11.1,26,10.1,26,9s0.4-2.1,1.2-2.8C27.9,5.4,28.9,5,30,5z"/>
<path class="st0" d="M21,12V6c0-0.3-0.1-0.5-0.3-0.7C20.5,5.1,20.3,5,20,5H8C7.4,5,7,5.4,7,6v6c0,0.3,0.1,0.5,0.3,0.7S7.7,13,8,13
	h12c0.3,0,0.5-0.1,0.7-0.3C20.9,12.5,21,12.3,21,12z M19,11H9V7h10V11z"/>
</svg>
