<?xml version="1.0" encoding="utf-8"?>
<!-- Generator: Adobe Illustrator 24.0.1, SVG Export Plug-In . SVG Version: 6.00 Build 0)  -->
<svg version="1.1" xmlns="http://www.w3.org/2000/svg" xmlns:xlink="http://www.w3.org/1999/xlink" x="0px" y="0px"
	 viewBox="0 0 60 60" style="enable-background:new 0 0 60 60;" xml:space="preserve">
<style type="text/css">
	.st0{fill:#81964D;}
</style>
<g id="Слой_1">
	<g>
		<path class="st0" d="M29.3,45.7l-1.5,1.5L5.9,25.3c-3.4-3.4-4.8-8.5-3.5-13.2c1.3-4.7,5-8.4,9.7-9.6c4.7-1.3,9.8,0.1,13.2,3.5
			l1.9,1.9c0.2,0.2,0.4,0.3,0.7,0.3c0.3,0,0.5-0.1,0.7-0.3L30.4,6c2.5-2.5,5.8-3.9,9.3-4c0.1,0,0.2,0,0.3,0c3.4,0,6.6,1.2,9.1,3.5
			c2.6,2.4,4.2,5.6,4.4,9.1c0,0.5,0.5,1,1.1,0.9c0.3,0,0.5-0.1,0.7-0.3c0.2-0.2,0.3-0.5,0.2-0.7c-0.3-4-2.1-7.7-5.1-10.4
			c-3-2.7-6.8-4.1-10.9-4c-4,0.1-7.8,1.7-10.6,4.6l-1.2,1.2l-1.2-1.2c-3-2.9-6.9-4.5-11-4.5s-8.1,1.6-11,4.5c-2.9,3-4.5,6.9-4.5,11
			c0,4.2,1.6,8.1,4.5,11l22.6,22.6c0.2,0.2,0.4,0.3,0.6,0.3l0,0c0.3,0,0.5-0.1,0.7-0.3l2.2-2.2c0.2-0.2,0.3-0.4,0.3-0.7
			c0-0.3-0.1-0.5-0.3-0.7C30.3,45.3,29.7,45.3,29.3,45.7z"/>
		<path class="st0" d="M59.7,17.3C59.5,17.1,59.3,17,59,17h0H30.6c-0.5,0-1,0.4-1,1v8.7c0,0.3,0.1,0.5,0.3,0.7
			c0.2,0.2,0.4,0.3,0.7,0.3h1.9l0,31.4c0,0.3,0.1,0.5,0.3,0.7c0.2,0.2,0.4,0.3,0.7,0.3h22.8c0.3,0,0.5-0.1,0.7-0.3
			c0.2-0.2,0.3-0.4,0.3-0.7V27.6H59c0.3,0,0.5-0.1,0.7-0.3c0.2-0.2,0.3-0.4,0.3-0.7V18C60,17.7,59.9,17.5,59.7,17.3z M55.2,27.6V58
			H34.4V27.6H55.2z M58,19v6.7H31.5V19H58z"/>
		<path class="st0" d="M39.1,44.1h2.5v2.5c0,0.4,0.2,0.9,0.5,1.2c0.3,0.3,0.7,0.5,1.2,0.5h3c0.4,0,0.9-0.2,1.2-0.5
			c0.3-0.3,0.5-0.7,0.5-1.1l0-2.5h2.5c0.4,0,0.9-0.2,1.2-0.5c0.3-0.3,0.5-0.7,0.5-1.2v-3c0-0.4-0.2-0.9-0.5-1.2
			c-0.3-0.3-0.7-0.5-1.2-0.5l-2.5,0v-2.5c0-0.4-0.2-0.9-0.5-1.2c-0.3-0.3-0.7-0.5-1.2-0.5h-3c-0.4,0-0.9,0.2-1.2,0.5
			c-0.3,0.3-0.5,0.7-0.5,1.2v2.4h-2.5c-0.4,0-0.9,0.2-1.2,0.5c-0.3,0.3-0.5,0.7-0.5,1.2v3c0,0.4,0.2,0.9,0.5,1.2
			C38.3,43.9,38.7,44.1,39.1,44.1z M47,39.7h3.1v2.4H47c-0.5,0-1,0.4-1,1v3.1h-2.4v-3.1c0-0.3-0.1-0.5-0.3-0.7
			c-0.2-0.2-0.4-0.3-0.7-0.3l-3.1,0v-2.4h3.1c0.3,0,0.5-0.1,0.7-0.3c0.2-0.2,0.3-0.4,0.3-0.7v-3.1H46v3.1C46,39.2,46.4,39.7,47,39.7
			z"/>
		<path class="st0" d="M32.7,58h-27c-1,0-1.9-0.4-2.6-1.1C2.4,56.3,2,55.3,2,54.3V37c0-1,0.4-1.9,1.1-2.6c0.7-0.7,1.6-1.1,2.6-1.1
			h5.1c0.5,0,1-0.4,1-1c0-0.5-0.4-1-1-1H5.7c-1.5,0-2.9,0.6-4,1.7C0.6,34.1,0,35.5,0,37v17.3c0,1.5,0.6,2.9,1.7,4
			c1.1,1.1,2.5,1.7,4,1.7h27c0.5,0,1-0.4,1-1C33.7,58.5,33.2,58,32.7,58z"/>
		<path class="st0" d="M9.2,47c-1,0-2,0.4-2.8,1.1c-0.7,0.7-1.1,1.7-1.1,2.8c0,1,0.4,2,1.1,2.8c0.7,0.7,1.7,1.1,2.8,1.1
			c1,0,2-0.4,2.8-1.2c0.7-0.7,1.1-1.7,1.2-2.8c0-1-0.4-2-1.1-2.8C11.2,47.4,10.2,47,9.2,47z M10.6,52.3c-0.4,0.4-0.9,0.6-1.4,0.6
			c-0.5,0-1-0.2-1.4-0.6c-0.4-0.4-0.6-0.9-0.6-1.4c0-0.5,0.2-1,0.6-1.4C8.2,49.2,8.6,49,9.2,49c0.5,0,1,0.2,1.4,0.6
			c0.4,0.4,0.6,0.9,0.6,1.4C11.1,51.4,10.9,51.9,10.6,52.3z"/>
		<path class="st0" d="M11.9,38.4c-0.9-0.9-2.3-1.3-3.5-1.1c-1.3,0.3-2.4,1.1-2.9,2.3c-0.5,1.2-0.4,2.6,0.4,3.7
			c0.7,1.1,2,1.7,3.3,1.7c1,0,2-0.4,2.8-1.1c0.7-0.7,1.1-1.7,1.1-2.8C13.1,40.2,12.7,39.2,11.9,38.4z M11.1,41.5
			c-0.1,0.6-0.4,1.1-1,1.4C9.6,43.2,9,43.2,8.4,43c-0.6-0.2-1-0.7-1.1-1.3c-0.2-0.6,0-1.2,0.3-1.7c0.4-0.5,0.9-0.8,1.5-0.8
			c0,0,0,0,0,0h0c0.5,0,1,0.2,1.4,0.6C11,40.2,11.2,40.9,11.1,41.5z"/>
		<path class="st0" d="M22,53.7c0.7-0.7,1.1-1.7,1.2-2.8c0-1-0.4-2-1.1-2.8S20.2,47,19.2,47s-2,0.4-2.8,1.1
			c-0.7,0.7-1.1,1.7-1.1,2.8c0,1,0.4,2,1.1,2.8c0.7,0.7,1.7,1.1,2.8,1.1C20.2,54.8,21.2,54.4,22,53.7z M17.2,50.9
			c0-0.5,0.2-1,0.6-1.4c0.4-0.4,0.9-0.6,1.4-0.6c0.5,0,1,0.2,1.4,0.6c0.4,0.4,0.6,0.9,0.6,1.4c0,0.5-0.2,1-0.6,1.4
			c-0.4,0.4-0.9,0.6-1.4,0.6c-0.5,0-1-0.2-1.4-0.6C17.4,51.9,17.2,51.4,17.2,50.9z"/>
	</g>
</g>
<g id="Слой_2">
</g>
</svg>
