<?xml version="1.0" encoding="utf-8"?>
<!-- Generator: Adobe Illustrator 24.0.1, SVG Export Plug-In . SVG Version: 6.00 Build 0)  -->
<svg version="1.1" id="Слой_1" xmlns="http://www.w3.org/2000/svg" xmlns:xlink="http://www.w3.org/1999/xlink" x="0px" y="0px"
	 viewBox="0 0 60 60" style="enable-background:new 0 0 60 60;" xml:space="preserve">
<style type="text/css">
	.st0{fill:#81964D;}
</style>
<g>
	<path class="st0" d="M12.8,34H5.9c-0.5,0-1,0.4-1,1v4c0,0.5,0.4,1,1,1h6.9c0.5,0,1-0.4,1-1v-4C13.7,34.5,13.3,34,12.8,34z M11.8,38
		h-5V36h5V38z"/>
	<path class="st0" d="M25.6,38h-1v-5c0-0.3-0.2-0.6-0.4-0.8l-3-2l-1.1,1.6l2.5,1.7V38h-1c-0.5,0-1,0.4-1,1v4c0,0.5,0.4,1,1,1h1v10
		c0,0.3-0.1,0.5-0.3,0.7c-0.4,0.4-1.1,0.4-1.4,0c-0.2-0.2-0.3-0.5-0.3-0.7V35c0-0.5-0.4-1-1-1h-2v-3c0-0.5-0.4-1-1-1H2
		c-0.5,0-1,0.4-1,1v21h0c-0.5,0-1,0.4-1,1v6c0,0.6,0.4,1,1,1h16.7c0.5,0,1-0.4,1-1v-6c0-0.6-0.4-1-1-1h0V36h1v18
		c0,0.8,0.3,1.5,0.9,2.1c0.6,0.6,1.3,0.9,2.1,0.9c0.8,0,1.5-0.3,2.1-0.9c0.6-0.6,0.9-1.3,0.9-2.1V44h1c0.5,0,1-0.4,1-1v-4
		C26.5,38.5,26.1,38,25.6,38z M2.9,32h12.9v20H2.9V32z M16.7,58H2v-4h14.8V58z M24.6,42L24.6,42L24.6,42l-2,0v0h-0.1V40h2V42z"/>
</g>
<g>
	<path class="st0" d="M46.3,34h-6.9c-0.5,0-1,0.4-1,1v4c0,0.5,0.4,1,1,1h6.9c0.5,0,1-0.4,1-1v-4C47.2,34.5,46.8,34,46.3,34z
		 M45.3,38h-5V36h5V38z"/>
	<path class="st0" d="M59,38h-1v-5c0-0.3-0.2-0.6-0.4-0.8l-3-2l-1.1,1.6l2.5,1.7V38h-1c-0.5,0-1,0.4-1,1v4c0,0.5,0.4,1,1,1h1v10
		c0,0.3-0.1,0.5-0.3,0.7c-0.4,0.4-1.1,0.4-1.4,0c-0.2-0.2-0.3-0.5-0.3-0.7V35c0-0.5-0.4-1-1-1h-2v-3c0-0.5-0.4-1-1-1H35.4
		c-0.5,0-1,0.4-1,1v21h0c-0.5,0-1,0.4-1,1v6c0,0.5,0.4,1,1,1h16.7c0.5,0,1-0.4,1-1v-6c0-0.5-0.4-1-1-1h0V36h1v18
		c0,0.8,0.3,1.5,0.9,2.1c0.6,0.6,1.3,0.9,2.1,0.9s1.5-0.3,2.1-0.9c0.6-0.6,0.9-1.3,0.9-2.1V44h1c0.5,0,1-0.4,1-1v-4
		C60,38.5,59.6,38,59,38z M50.2,58H35.4V54h0h14.8h0V58z M36.4,52V32h12.9V52H36.4z M58.1,42L58.1,42L58.1,42l-2,0v0h-0.1V40h2V42z"
		/>
</g>
<rect x="0" y="58" class="st0" width="59" height="1.9"/>
<g>
	<rect x="1" class="st0" width="59" height="1.9"/>
</g>
<g>
	<path class="st0" d="M51.1,11.9H35.3c-0.5,0-1-0.4-1-1V5c0-0.5,0.4-1,1-1h15.7c0.5,0,1,0.4,1,1v6C52,11.5,51.6,11.9,51.1,11.9z
		 M36.3,10h13.8V5.9H36.3V10z"/>
</g>
<path class="st0" d="M19.6,4h-6.9V1h-1.9v3H3.9c-0.5,0-1,0.4-1,1v6c0,0.5,0.4,1,1,1h15.7c0.5,0,1-0.4,1-1V5C20.6,4.4,20.2,4,19.6,4z
	 M18.7,10H4.9V5.9h13.8V10z"/>
<g>
	<rect x="42.3" y="1" class="st0" width="1.9" height="4"/>
</g>
</svg>
