<?xml version="1.0" encoding="utf-8"?>
<!-- Generator: Adobe Illustrator 24.0.1, SVG Export Plug-In . SVG Version: 6.00 Build 0)  -->
<svg version="1.1" id="Слой_1" xmlns="http://www.w3.org/2000/svg" xmlns:xlink="http://www.w3.org/1999/xlink" x="0px" y="0px"
	 viewBox="0 0 60 60" style="enable-background:new 0 0 60 60;" xml:space="preserve">
<style type="text/css">
	.st0{fill:#81964D;}
</style>
<path class="st0" d="M60,21.3v-5.8H47.8c0.3-0.6,0.5-1.2,0.5-1.9c0-2.1-1.7-3.9-3.9-3.9H31c-2.1,0-3.9,1.7-3.9,3.9
	c0,0.7,0.2,1.4,0.5,1.9H15.5v5.8h2.9v36.8h-4.8v-3.9h-2.9V43.5h-2V15.4c3.8-0.5,6.8-3.7,6.8-7.7C15.5,3.5,12,0,7.7,0S0,3.5,0,7.7
	c0,3.9,3,7.2,6.8,7.7v28.1h-2v10.6H1.9V58H0v2h60v-1.9h-2.9V21.3H60z M1.9,7.7c0-3.2,2.6-5.8,5.8-5.8s5.8,2.6,5.8,5.8
	s-2.6,5.8-5.8,5.8S1.9,10.9,1.9,7.7z M6.8,45.5h1.9v8.7H6.8V45.5z M3.9,58.1v-1.9h7.7v1.9H3.9z M29,13.5c0-1.1,0.9-1.9,1.9-1.9h13.5
	c1.1,0,1.9,0.9,1.9,1.9s-0.9,1.9-1.9,1.9H31C29.9,15.5,29,14.6,29,13.5z M17.4,17.4H58v1.9H17.4V17.4z M55.2,32.9H20.3v-7.7h34.8
	v7.7H55.2z M25.2,45.5v-4.8h25.2v4.8H25.2z M48.4,47.4v1.9H27.1v-1.9H48.4z M48.4,51.3v6.8H27.1v-6.8H48.4z M50.3,58.1v-6.8h2.9
	v-1.9h-2.9v-1.9h1.9v-8.7h-29v8.7h1.9v1.9h-2.9v1.9h2.9v6.8h-4.8V34.8h34.8V58L50.3,58.1L50.3,58.1z M55.2,23.2H20.3v-1.9h34.8v1.9
	H55.2z"/>
</svg>
