<?xml version="1.0" encoding="utf-8"?>
<!-- Generator: Adobe Illustrator 17.0.0, SVG Export Plug-In . SVG Version: 6.00 Build 0)  -->
<!DOCTYPE svg PUBLIC "-//W3C//DTD SVG 1.1//EN" "http://www.w3.org/Graphics/SVG/1.1/DTD/svg11.dtd">
<svg version="1.1" id="Слой_1" xmlns="http://www.w3.org/2000/svg" xmlns:xlink="http://www.w3.org/1999/xlink" x="0px" y="0px"
	 width="38px" height="38px" viewBox="0 0 38 38" enable-background="new 0 0 38 38" xml:space="preserve">
<g id="Слой_2_1_">
</g>
<g>
	<circle fill="#1AD793" cx="19" cy="19" r="19"/>
	<g>
		<path fill="#FFFFFF" d="M31.49,17.388l-0.634-0.714l-2.065-6.665c-0.337-0.897-1.219-1.504-2.196-1.509H11.772
			c-0.972,0-1.856,0.615-2.202,1.537l-2.046,6.628l-0.865,0.8c-0.734,0.625-1.155,1.532-1.155,2.487v7.207
			C5.511,28.45,6.567,29.5,7.857,29.5h1.531c1.29,0,2.345-1.05,2.351-2.341V26.85h14.526v0.309c0.003,1.29,1.057,2.34,2.349,2.34
			h1.531c1.289,0,2.345-1.05,2.352-2.342v-7.42C32.49,18.849,32.121,17.99,31.49,17.388z M8.737,16.298l1.782-5.903
			c0.2-0.536,0.69-0.882,1.25-0.882h14.832c0.548,0,1.048,0.345,1.243,0.849l1.826,6.079h-1.494l-0.019-0.112
			c-0.298-1.873-1.95-3.285-3.844-3.285c-0.194,0-0.389,0.015-0.578,0.043c-1.695,0.249-3.016,1.551-3.288,3.24L20.43,16.44H8.936
			L8.737,16.298z M21.487,16.279c0.305-1.287,1.487-2.222,2.81-2.222c0.205,0,0.406,0.021,0.596,0.063
			c1.084,0.23,1.952,1.077,2.212,2.157l0.039,0.167h-5.697L21.487,16.279z M6.523,26.465l0.201,0.114
			c0.311,0.174,0.714,0.27,1.135,0.27h2.867l-0.001,0.308c-0.007,0.732-0.607,1.327-1.336,1.327h-1.53
			c-0.731,0-1.33-0.594-1.336-1.322C6.523,27.162,6.523,26.465,6.523,26.465z M30.13,25.815c-0.2,0.022-0.958,0.022-3.469,0.022
			H7.978l-0.13-0.001c-0.726-0.001-1.323-0.59-1.329-1.312v-4.572c0-0.662,0.292-1.287,0.805-1.721l0.823-0.775h22.017l0.615,0.653
			c0.443,0.421,0.697,1.015,0.697,1.63l0.004,4.813c-0.03,0.675-0.549,1.213-1.207,1.276V25.8L30.13,25.815z M27.277,26.85h2.868
			c0.431,0,0.824-0.093,1.136-0.27l0.202-0.115l-0.001,0.691c-0.006,0.731-0.606,1.326-1.337,1.326h-1.531
			c-0.73,0-1.33-0.594-1.337-1.322V26.85z"/>
		<path fill="#FFFFFF" d="M13.086,19.921H8.738c-0.279,0-0.505,0.227-0.505,0.507v3.014c0,0.28,0.227,0.509,0.505,0.509h4.348
			c0.279,0,0.507-0.228,0.507-0.509v-3.014c0-0.134-0.053-0.261-0.148-0.358C13.35,19.975,13.223,19.921,13.086,19.921z
			 M12.581,20.934v2.002H9.245v-2.002H12.581z"/>
		<path fill="#FFFFFF" d="M29.264,19.921h-4.348c-0.279,0-0.507,0.227-0.507,0.507v3.014c0,0.28,0.228,0.509,0.507,0.509h4.348
			c0.28,0,0.508-0.228,0.508-0.509v-3.014C29.772,20.149,29.544,19.921,29.264,19.921z M25.423,22.936v-2.002h3.334v2.002H25.423z"
			/>
	</g>
</g>
</svg>
