<?xml version="1.0" encoding="utf-8"?>
<!-- Generator: Adobe Illustrator 17.0.0, SVG Export Plug-In . SVG Version: 6.00 Build 0)  -->
<!DOCTYPE svg PUBLIC "-//W3C//DTD SVG 1.1//EN" "http://www.w3.org/Graphics/SVG/1.1/DTD/svg11.dtd">
<svg version="1.1" id="Слой_1" xmlns="http://www.w3.org/2000/svg" xmlns:xlink="http://www.w3.org/1999/xlink" x="0px" y="0px"
	 width="38px" height="38px" viewBox="0 0 38 38" enable-background="new 0 0 38 38" xml:space="preserve">
<g id="Слой_2_1_">
</g>
<g>
	<circle fill="#1AD793" cx="19" cy="19" r="19"/>
	<path fill="#FFFFFF" d="M30.346,22.703c-0.242-0.242-0.542-0.37-0.864-0.37h-1.311v-0.03c0-0.037,0.01-0.074,0.021-0.12
		c0.007-0.028,0.014-0.055,0.014-0.083v-2.392c0-0.028-0.007-0.054-0.017-0.099c-0.009-0.034-0.017-0.069-0.017-0.104v-0.029h1.311
		c0.337,0,0.663-0.138,0.846-0.353c0.242-0.242,0.37-0.542,0.37-0.864v-2.392c0-0.337-0.138-0.664-0.36-0.855
		c-0.264-0.227-0.596-0.363-0.889-0.363h-1.311V14.62c0-0.035,0.009-0.07,0.017-0.104c0.013-0.044,0.017-0.072,0.017-0.098v-2.392
		c0-0.336-0.138-0.663-0.353-0.847c-0.243-0.242-0.543-0.37-0.865-0.37h-1.311V10.78c0-0.032,0.009-0.065,0.019-0.109
		c0.009-0.033,0.015-0.064,0.015-0.093v-2.36c0-0.336-0.137-0.663-0.352-0.847c-0.242-0.242-0.542-0.37-0.864-0.37h-6.335
		c-0.248,0-0.48,0.088-0.688,0.261l-0.018,0.014l-0.019-0.013C17.196,7.127,16.969,7,16.71,7h-5.695
		c-0.337,0-0.664,0.137-0.848,0.353c-0.242,0.243-0.37,0.543-0.37,0.864v2.393c0,0.025,0.005,0.053,0.018,0.103
		c0.007,0.031,0.015,0.067,0.015,0.099v0.029H8.521c-0.312,0-0.612,0.119-0.824,0.329l-0.032,0.032
		c-0.237,0.237-0.362,0.532-0.362,0.855v2.392c0,0.336,0.137,0.663,0.352,0.847c0.243,0.242,0.543,0.37,0.865,0.37h1.31v0.029
		c0,0.04-0.011,0.079-0.016,0.103c-0.017,0.062-0.017,0.09-0.017,0.099v2.392c0,0.031,0.008,0.064,0.018,0.105
		c0.008,0.032,0.015,0.066,0.015,0.098v0.029H8.52c-0.311,0-0.61,0.119-0.826,0.33l-0.029,0.031
		c-0.238,0.237-0.363,0.533-0.363,0.857v2.392c0,0.336,0.138,0.663,0.353,0.847c0.243,0.242,0.543,0.37,0.864,0.37H9.83v0.03
		c0,0.039-0.011,0.078-0.016,0.105c-0.01,0.034-0.017,0.067-0.017,0.098v2.392c0,0.017,0.002,0.043,0.018,0.103
		c0.008,0.032,0.015,0.066,0.015,0.099v0.03H8.52c-0.314,0-0.613,0.12-0.826,0.331l-0.028,0.031
		c-0.239,0.236-0.364,0.531-0.364,0.855v2.359c0,0.336,0.138,0.663,0.353,0.847C7.899,30.872,8.198,31,8.52,31h4.245
		c0.246,0,0.469-0.081,0.725-0.265l0.015-0.012l0.017,0.012c0.206,0.137,0.433,0.264,0.691,0.264h6.37
		c0.246,0,0.469-0.081,0.724-0.265l0.017-0.012l0.016,0.012c0.205,0.136,0.431,0.263,0.691,0.263h4.952
		c0.341,0,0.661-0.133,0.848-0.351c0.242-0.243,0.37-0.543,0.37-0.865v-2.392c0-0.028-0.007-0.055-0.017-0.097
		c-0.009-0.035-0.017-0.07-0.017-0.106v-0.03l1.312,0.002c0.336,0,0.663-0.137,0.846-0.352c0.242-0.243,0.37-0.543,0.37-0.864V23.55
		C30.698,23.214,30.56,22.887,30.346,22.703z M27.186,27.392v2.391c0,0.073-0.037,0.116-0.074,0.154
		c-0.042,0.042-0.082,0.078-0.157,0.078h-4.953c-0.078,0-0.119-0.04-0.157-0.078c-0.035-0.036-0.074-0.075-0.074-0.154v-2.392
		c0-0.08,0.042-0.122,0.078-0.156c0.04-0.04,0.08-0.042,0.154-0.042h4.922l0.04-0.006c0.07-0.026,0.142,0.042,0.148,0.049
		C27.142,27.267,27.186,27.311,27.186,27.392z M20.819,27.426l-0.001,2.37l-0.003,0.003c-0.02,0.018-0.034,0.039-0.058,0.075
		c-0.017,0.024-0.032,0.048-0.049,0.065c-0.034,0.034-0.075,0.076-0.155,0.076h-6.335c-0.078,0-0.118-0.04-0.156-0.077
		c-0.034-0.033-0.075-0.074-0.075-0.154v-2.392c0-0.075,0.036-0.116,0.079-0.156c0.038-0.04,0.078-0.042,0.153-0.042h6.37
		c0.072,0,0.114,0.035,0.154,0.075C20.783,27.311,20.819,27.351,20.819,27.426z M16.909,10.608c0,0.076-0.039,0.117-0.074,0.155
		c-0.038,0.036-0.079,0.077-0.156,0.077h-5.661c-0.078,0-0.119-0.04-0.155-0.076c-0.034-0.034-0.076-0.075-0.076-0.155l-0.001-2.392
		c0-0.078,0.042-0.121,0.077-0.156c0.033-0.034,0.074-0.075,0.155-0.075h5.661c0.078,0,0.118,0.04,0.155,0.074
		c0.036,0.038,0.077,0.079,0.077,0.156v2.392H16.909z M17.893,8.216c0-0.041,0.037-0.116,0.076-0.155
		c0.037-0.036,0.078-0.076,0.155-0.076h6.37c0.078,0,0.121,0.042,0.155,0.075c0.036,0.038,0.077,0.079,0.077,0.156v2.393
		c0,0.077-0.04,0.118-0.076,0.155c-0.04,0.041-0.082,0.076-0.155,0.076h-6.37c-0.076,0-0.117-0.039-0.154-0.074
		c-0.044-0.043-0.078-0.083-0.078-0.156L17.893,8.216z M25.711,23.55c0-0.078,0.042-0.12,0.077-0.155
		c0.036-0.036,0.076-0.077,0.155-0.077h3.551l0.047,0.036c0.019,0.01,0.042,0.02,0.062,0.041c0.034,0.034,0.076,0.075,0.076,0.155
		v2.392c0,0.078-0.04,0.119-0.077,0.157c-0.036,0.035-0.076,0.074-0.155,0.074H25.91c-0.078,0-0.121-0.042-0.155-0.076
		c-0.043-0.042-0.043-0.119-0.043-0.155L25.711,23.55L25.711,23.55z M10.783,23.55c0-0.079,0.042-0.121,0.076-0.155
		c0.041-0.041,0.081-0.042,0.155-0.042h5.661c0.077,0,0.118,0.04,0.156,0.077c0.035,0.035,0.074,0.074,0.074,0.155v2.392
		c0,0.079-0.043,0.123-0.075,0.154c-0.036,0.037-0.076,0.077-0.155,0.077l-5.7-0.017c-0.056-0.032-0.088-0.064-0.117-0.093
		c-0.034-0.034-0.076-0.075-0.076-0.155V23.55H10.783z M27.187,14.45c0,0.08-0.042,0.121-0.074,0.154
		c-0.041,0.042-0.081,0.043-0.155,0.043h-4.954c-0.078,0-0.121-0.042-0.156-0.076c-0.036-0.037-0.076-0.078-0.076-0.155v-2.392
		c0-0.078,0.042-0.121,0.076-0.155c0.041-0.042,0.081-0.043,0.155-0.043l4.953,0.002c0.079,0,0.122,0.042,0.156,0.075
		c0.035,0.037,0.075,0.077,0.075,0.156C27.187,12.059,27.187,14.45,27.187,14.45z M20.784,19.741V22.1
		c0,0.078-0.042,0.12-0.077,0.155c-0.036,0.036-0.076,0.077-0.155,0.077h-6.369c-0.078,0-0.119-0.04-0.155-0.076
		c-0.034-0.033-0.075-0.074-0.075-0.155l-0.001-2.392c0-0.08,0.042-0.122,0.075-0.155c0.041-0.042,0.082-0.043,0.156-0.043h6.369
		c0.077,0,0.119,0.041,0.155,0.076C20.741,19.619,20.784,19.66,20.784,19.741z M21.769,22.134v-2.393
		c0-0.081,0.042-0.123,0.078-0.157c0.04-0.04,0.08-0.042,0.154-0.042h4.922l0.041-0.006c0.069-0.023,0.137,0.038,0.147,0.049
		c0.032,0.031,0.075,0.074,0.075,0.156v2.392c0,0.073-0.037,0.116-0.074,0.154c-0.04,0.041-0.081,0.077-0.157,0.077h-4.953
		c-0.079,0-0.122-0.042-0.157-0.076C21.808,22.253,21.769,22.213,21.769,22.134z M17.861,18.292V15.9c0-0.08,0.04-0.12,0.077-0.156
		c0.031-0.032,0.072-0.075,0.154-0.075h6.369c0.076,0,0.118,0.037,0.157,0.078c0.033,0.034,0.074,0.074,0.074,0.153v2.392
		c0,0.077-0.039,0.117-0.078,0.157c-0.039,0.039-0.079,0.074-0.154,0.074l-6.369,0.001c-0.079,0-0.119-0.041-0.156-0.078
		C17.903,18.413,17.861,18.374,17.861,18.292z M20.817,14.484c0,0.078-0.04,0.119-0.076,0.155l-6.557,0.009
		c-0.036,0-0.08,0-0.124-0.044c-0.032-0.031-0.075-0.072-0.075-0.154v-2.392c0-0.079,0.041-0.119,0.078-0.156
		c0.038-0.04,0.079-0.042,0.154-0.042h6.37c0.079,0,0.123,0.043,0.154,0.075c0.037,0.036,0.077,0.076,0.077,0.156L20.817,14.484
		L20.817,14.484z M16.908,15.865v2.393c0,0.078-0.042,0.121-0.074,0.154c-0.035,0.035-0.078,0.077-0.156,0.077l-5.662,0.001
		c-0.079,0-0.122-0.042-0.155-0.075c-0.034-0.034-0.076-0.075-0.076-0.155v-2.392c0-0.079,0.042-0.122,0.076-0.156
		c0.033-0.034,0.074-0.075,0.155-0.075h5.661c0.079,0,0.119,0.04,0.155,0.073C16.867,15.746,16.908,15.787,16.908,15.865z
		 M17.861,23.55c0-0.08,0.043-0.124,0.076-0.155c0.034-0.034,0.075-0.076,0.155-0.076l6.412,0.018
		c0.01,0.004,0.02,0.009,0.034,0.014c0.03,0.012,0.054,0.021,0.08,0.048c0.034,0.033,0.075,0.074,0.075,0.153v2.392
		c0,0.078-0.042,0.121-0.077,0.157c-0.035,0.035-0.074,0.074-0.155,0.074l-6.369-0.001c-0.077,0-0.118-0.04-0.155-0.077
		c-0.032-0.031-0.075-0.074-0.075-0.155V23.55H17.861z M25.789,15.745c0.034-0.034,0.075-0.076,0.155-0.076l3.539-0.002
		c0.078,0,0.121,0.042,0.156,0.076c0.035,0.037,0.075,0.077,0.075,0.155v2.422l-0.058,0.064c-0.016,0.027-0.036,0.047-0.053,0.063
		c-0.034,0.034-0.075,0.076-0.155,0.076H25.91c-0.078,0-0.121-0.042-0.142-0.06l-0.019-0.023c-0.037-0.073-0.037-0.113-0.037-0.148
		V15.9C25.712,15.823,25.752,15.783,25.789,15.745z M12.999,12.09v2.392c0,0.078-0.042,0.121-0.076,0.155l-4.401,0.011
		c-0.076,0-0.115-0.002-0.155-0.043c-0.034-0.034-0.076-0.075-0.076-0.155v-2.392c0-0.078,0.042-0.121,0.076-0.155
		c0.041-0.042,0.079-0.043,0.155-0.043h4.245c0.078,0,0.121,0.042,0.155,0.076C12.956,11.968,12.999,12.009,12.999,12.09z
		 M12.966,19.708V22.1c0,0.078-0.042,0.121-0.076,0.156c-0.037,0.036-0.078,0.076-0.155,0.076l-4.213-0.001
		c-0.077,0-0.118-0.04-0.155-0.076c-0.041-0.04-0.076-0.082-0.076-0.155v-2.392c0-0.078,0.042-0.121,0.074-0.154
		c0.042-0.043,0.081-0.045,0.157-0.045h4.245c0.076,0,0.117,0.039,0.156,0.076C12.963,19.624,12.966,19.664,12.966,19.708z
		 M12.999,29.797l-0.039,0.039l-0.007,0.042c-0.002,0.014-0.009,0.039-0.033,0.064c-0.035,0.034-0.073,0.073-0.154,0.073H8.522
		c-0.078,0-0.119-0.04-0.155-0.075c-0.04-0.04-0.077-0.116-0.077-0.156v-2.392c0-0.079,0.041-0.119,0.077-0.156
		c0.041-0.041,0.078-0.042,0.155-0.042h4.245c0.079,0,0.121,0.042,0.154,0.075c0.037,0.036,0.077,0.076,0.077,0.155L12.999,29.797z"
		/>
</g>
</svg>
