<?xml version="1.0" encoding="utf-8"?>
<!-- Generator: Adobe Illustrator 17.0.0, SVG Export Plug-In . SVG Version: 6.00 Build 0)  -->
<!DOCTYPE svg PUBLIC "-//W3C//DTD SVG 1.1//EN" "http://www.w3.org/Graphics/SVG/1.1/DTD/svg11.dtd">
<svg version="1.1" id="Слой_1" xmlns="http://www.w3.org/2000/svg" xmlns:xlink="http://www.w3.org/1999/xlink" x="0px" y="0px"
	 width="38px" height="38px" viewBox="0 0 38 38" enable-background="new 0 0 38 38" xml:space="preserve">
<g id="Слой_2_1_">
</g>
<g>
	<circle fill="#1AD793" cx="19" cy="19" r="19"/>
	<g>
		<path fill="#FFFFFF" d="M27.217,14.019l2.444-0.632l0.903-0.961l0.545-1.769L30.43,9.329l-1.874-1.627L26.013,6.88l-2.229,1.525
			l-0.117,1.88l0.928,2.673L27.217,14.019z M28.102,8.608l1.569,1.386l0.384,0.753l-0.406,1.216l-0.511,0.543l-1.851,0.479
			l-1.914-0.773l-0.712-2.056l0.076-1.21l1.438-0.983L28.102,8.608z"/>
		<path fill="#FFFFFF" d="M20.568,19.1l2.122-1.601l0.785-4.061l-2.627-1.108l-0.047-0.021l-4.176,1.407l-1.203,2.989l2.012,2.271
			l0.038,0.044L20.568,19.1z M17.367,14.502l3.396-1.146l1.594,0.673l-0.563,2.909l-1.549,1.169l-2.319-0.059l-1.365-1.542
			L17.367,14.502z"/>
		<path fill="#FFFFFF" d="M18.221,11.584l1.628-0.555l0.605-0.602l0.575-2.429l-1.6-1.137l-3.038,0.26L16.35,7.126l-1.806,1.512
			l-0.126,1.255l2.377,1.893L18.221,11.584z M16.74,8.082l2.418-0.208l0.76,0.54l-0.361,1.524l-0.298,0.251l-1.262,0.427
			l-0.919,0.136L15.45,9.456l0.031-0.263l0.092-0.134L16.74,8.082z"/>
		<path fill="#FFFFFF" d="M10.869,13.219l1.767-1.541l0.048-0.041l-0.046-1.886l-1.853-2.08l-3.319-0.4L7.007,8.813l1.857,4.764
			L10.869,13.219z M8.17,8.351l2.126,0.256l1.369,1.538l0.025,1.054l-1.255,1.098l-0.949,0.17l-1.44-3.693L8.17,8.351z"/>
		<path fill="#FFFFFF" d="M30.852,26.309l-3.209-1.322l-0.997,2.116l-1.168,1.677l0.812,2.237l2.824,0.121l2.005-1.683
			L30.852,26.309z M28.77,30.139l-1.78-0.075l-0.413-1.141l0.935-1.338l0.624-1.335l1.786,0.735l0.175,2.043L28.77,30.139z"/>
		<path fill="#FFFFFF" d="M21.027,27.202l-2.721-0.609l-2.701,1.217l0.488,2.833l4.093,0.487l0.03,0.004l2.731-0.956l-0.287-2.833
			L21.027,27.202z M20.114,30.133l-3.175-0.381l-0.234-1.356l1.71-0.771l2.49,0.56l0.86,0.073l0.126,1.251L20.114,30.133z"/>
		<path fill="#FFFFFF" d="M28.636,15.625l-2.944-0.769l-1.052,1.409l0.605,2.544l0.013,0.056l1.589,0.939l2.212,1.038l1.873-2.095
			l-2.268-3.085L28.636,15.625z M27.338,18.949l-1.216-0.718l-0.417-1.747l0.382-0.511l1.961,0.511l1.62,2.203l-0.854,0.954
			L27.338,18.949z"/>
		<path fill="#FFFFFF" d="M10.642,15.069l-1.101,1.402l-1.976,0.841l-0.482,2.597l1.646,0.94l3.767-0.741l0.061-0.013l1.1-1.95
			l0.021-0.035l-0.187-2.912l-0.937-0.976L10.642,15.069z M11.925,19.216l-3.024,0.595L8.18,19.4l0.258-1.392l1.693-0.72l1.196-1.45
			L12.32,15.4l0.211,0.219l0.144,2.267L11.925,19.216z"/>
		<path fill="#FFFFFF" d="M10.841,25.251l-0.815-0.589l-2.52,0.597l-0.107,0.026l0.078,1.985l-0.572,2.776l-0.023,0.11l2.391,0.963
			l0.192-0.094c1.114-0.52,2.312-1.076,3.514-1.618l0.403-0.181l-1.179-3.535L10.841,25.251z M8.012,29.553l0.452-2.155l0.004-0.017
			L8.41,26.057l1.411-0.335l0.614,0.444l0.999,0.315l0.736,2.21l-0.207,0.094c-0.682,0.31-1.371,0.632-2.04,0.944l-0.68,0.319
			L8.012,29.553z"/>
		<path fill="#FFFFFF" d="M13.586,21.265l-0.995,1.919l0.757,2.237l2.965-0.103l1.105-3.357l0.031-0.093l-1.654-1.219L13.586,21.265
			z M14.046,24.414l-0.39-1.15l0.605-1.166l1.334-0.372l0.694,0.511l-0.701,2.123L14.046,24.414z"/>
		<path fill="#FFFFFF" d="M26.374,22.272l0.014-0.061l-1.626-2.217L22.519,20.9l-2.586-0.42l-1.096,3.302l1.106,1.459l1.743,0.249
			l1.821,0.448l2.254-1.058L26.374,22.272z M21.866,24.52l-1.39-0.197l-0.547-0.721l0.67-2.017l1.994,0.325l0.037,0.007l1.789-0.724
			l0.905,1.233l-0.413,1.77L23.407,24.9L21.866,24.52z"/>
	</g>
</g>
</svg>
