<?xml version="1.0" encoding="utf-8"?>
<!-- Generator: Adobe Illustrator 17.0.0, SVG Export Plug-In . SVG Version: 6.00 Build 0)  -->
<!DOCTYPE svg PUBLIC "-//W3C//DTD SVG 1.1//EN" "http://www.w3.org/Graphics/SVG/1.1/DTD/svg11.dtd">
<svg version="1.1" id="Слой_1" xmlns="http://www.w3.org/2000/svg" xmlns:xlink="http://www.w3.org/1999/xlink" x="0px" y="0px"
	 width="38px" height="38px" viewBox="0 0 38 38" enable-background="new 0 0 38 38" xml:space="preserve">
<g id="Слой_2_1_">
	<circle fill="#1AD793" cx="19" cy="19" r="19"/>
	<path fill="#FFFFFF" d="M30.496,14.59L19.272,6.974c-0.161-0.11-0.384-0.11-0.545,0L7.504,14.59
		c-0.133,0.09-0.213,0.24-0.213,0.402v15.632c0,0.268,0.218,0.486,0.486,0.486h22.447c0.268,0,0.486-0.219,0.486-0.486V14.992
		C30.71,14.831,30.63,14.681,30.496,14.59z M26.215,21.721c-0.268,0-0.486,0.219-0.486,0.486v7.931h-3.837v-4.323
		c0-0.268-0.219-0.486-0.486-0.486h-4.325v-4.324c0-0.268-0.218-0.486-0.485-0.486h-4.325v-3.036h13.458v5.122
		c0,0.268,0.219,0.486,0.486,0.486s0.486-0.219,0.486-0.486v-5.122H11.299v12.656H8.262v-14.89L19,7.963l10.737,7.286v14.889h-3.036
		v-7.931C26.701,21.939,26.482,21.721,26.215,21.721z M13.874,22.923V21.49h0.632v1.433H13.874z M13.388,23.896h1.604
		c0.268,0,0.485-0.219,0.485-0.486v-1.92h0.632v3.838H12.27V21.49h0.632v1.919C12.903,23.677,13.121,23.896,13.388,23.896z
		 M13.874,27.733V26.3h0.632v1.433H13.874z M13.388,28.705h1.604c0.268,0,0.486-0.219,0.486-0.486v-1.918h0.632v3.837h-3.839v-3.837
		h0.632v1.918C12.903,28.486,13.121,28.705,13.388,28.705z M18.684,27.733V26.3h0.632v1.433H18.684z M18.198,28.705h1.604
		c0.268,0,0.486-0.219,0.486-0.486v-1.918h0.631v3.837h-3.838v-3.837h0.632v1.918C17.713,28.486,17.931,28.705,18.198,28.705z"/>
</g>
<rect x="11.3" y="17.344" fill="#FFFFFF" width="15.4" height="1"/>
</svg>
