<?xml version="1.0" encoding="utf-8"?>
<!-- Generator: Adobe Illustrator 17.0.0, SVG Export Plug-In . SVG Version: 6.00 Build 0)  -->
<!DOCTYPE svg PUBLIC "-//W3C//DTD SVG 1.1//EN" "http://www.w3.org/Graphics/SVG/1.1/DTD/svg11.dtd">
<svg version="1.1" id="Слой_1" xmlns="http://www.w3.org/2000/svg" xmlns:xlink="http://www.w3.org/1999/xlink" x="0px" y="0px"
	 width="38px" height="38px" viewBox="0 0 38 38" enable-background="new 0 0 38 38" xml:space="preserve">
<g id="Слой_2_1_">
	<circle fill="#1AD793" cx="19" cy="19" r="19"/>
</g>
<g>
	<path fill="#FFFFFF" d="M31.965,28.439c-0.049-0.352-0.1-0.703-0.151-1.055c-0.125-0.866-0.255-1.762-0.346-2.645
		c-0.022-0.215-0.09-0.868-0.917-0.868c-0.001,0-0.001,0-0.001,0c-0.576,0-0.914-0.243-1.096-0.789
		c-0.28-0.847-0.834-1.285-1.646-1.304c-0.01-0.01-0.02-0.021-0.027-0.032l0.007-0.062c0.044-0.4,0.09-0.814,0.212-1.186
		c0.049-0.151,0.1-0.374-0.017-0.561c-0.111-0.18-0.313-0.23-0.476-0.254c-0.198-0.03-0.396-0.056-0.595-0.081
		c-0.168-0.021-0.336-0.044-0.504-0.067c-0.932-0.133-1.864-0.266-2.795-0.404c-0.261-0.04-0.427,0.005-0.549,0.13
		c-0.142,0.146-0.153,0.354-0.148,0.519c0.006,0.188-0.012,0.378-0.035,0.575c-0.054-0.076-0.103-0.153-0.151-0.232
		c-0.224-0.365-0.359-0.586-0.653-0.586c-0.171,0-0.334,0.08-0.633,0.228c-0.175,0.085-0.352,0.167-0.549,0.259
		c-0.179-0.651-0.765-0.849-1.249-1.012l-0.092-0.031c-0.346-0.117-0.555-0.188-0.749-0.188c-0.366,0-0.548,0.233-0.911,0.697
		c-0.027,0.035-0.053,0.071-0.079,0.108c-0.048,0.068-0.093,0.133-0.137,0.163c-0.107,0.076-0.269,0.19-0.378,0.2
		c-0.376,0.029-0.763,0.025-1.14-0.012c-0.552-0.057-0.751,0.288-0.858,0.539c-0.237,0.56-0.521,1.219-0.837,1.87
		c-0.033,0.067-0.126,0.151-0.17,0.161c-0.716,0-1.082,0.453-1.293,0.795C13,23.318,13,23.319,12.999,23.32l-0.098-0.134
		c-0.193-0.261-0.376-0.51-0.552-0.764c-0.106-0.154-0.251-0.365-0.487-0.365c-0.19,0-0.338,0.141-0.474,0.284
		c-0.258,0.273-0.512,0.55-0.749,0.841c-0.139,0.17-0.263,0.233-0.481,0.233c0,0-0.001,0-0.001,0l-0.094-0.001
		c-0.211,0-0.423,0.021-0.635,0.041c-0.12,0.013-0.24,0.024-0.36,0.032c-0.356,0.022-0.571,0.228-0.604,0.576
		c-0.01,0.105-0.028,0.211-0.045,0.315c-0.032,0.188-0.064,0.383-0.059,0.587c0.016,0.527-0.194,0.802-0.726,0.945
		c-0.238,0.065-0.545,0.269-0.669,0.529c-0.223,0.466-0.418,0.95-0.607,1.418l-0.228,0.559c-0.105,0.253-0.188,0.495-0.058,0.691
		c0.131,0.195,0.385,0.212,0.656,0.212l8.989,0.002l15.493-0.001c0.304,0,0.53-0.013,0.673-0.178
		C32.026,28.979,32.009,28.758,31.965,28.439z M9.347,24.615l0.028-0.225l0.422-0.005c0.121,0,0.24,0.002,0.359,0.01l0.092,0.004
		c0.643-0.001,1.003-0.445,1.293-0.802c0.08-0.098,0.162-0.193,0.251-0.297c0.025,0.029,0.049,0.059,0.074,0.088
		c0.171,0.205,0.333,0.399,0.438,0.604c0.671,1.316,1.865,1.951,2.932,2.444c0.174,0.079,0.342,0.172,0.523,0.271
		c-0.102,0.074-0.202,0.146-0.302,0.219c-0.477,0.345-0.927,0.671-1.363,1.028c-0.378,0.311-0.769,0.443-1.306,0.443l-0.066-0.001
		c-0.809-0.016-1.617-0.021-2.426-0.021l-3.132,0.007c0.033-0.085,0.066-0.169,0.098-0.253c0.175-0.455,0.341-0.885,0.566-1.27
		c0.067-0.114,0.331-0.206,0.542-0.279l0.188-0.067c0.579-0.219,0.673-0.682,0.692-1.011C9.269,25.215,9.307,24.926,9.347,24.615z
		 M20.622,21.128c0.114,0,0.237-0.034,0.374-0.104c0.253-0.129,0.512-0.246,0.777-0.367l0.135-0.062
		c0.042,0.065,0.085,0.131,0.127,0.195c0.197,0.302,0.383,0.587,0.534,0.887c0.072,0.143,0.039,0.42,0.026,0.524
		c-0.081,0.684-0.181,1.372-0.295,2.038c-0.009,0.026-0.055,0.078-0.059,0.085c-1.002,0.167-2.007,0.313-3.068,0.46
		c-0.058,0-0.101-0.013-0.121-0.023c-1.03-0.551-2.057-1.107-3.098-1.672l-0.62-0.336l0.14-0.317
		c0.223-0.507,0.436-0.991,0.66-1.459c0.021-0.026,0.1-0.066,0.135-0.067c0.205-0.007,0.408-0.003,0.613,0.002
		c0.23,0.008,0.459,0.014,0.689,0.001c0.195-0.01,0.42-0.112,0.603-0.273c0.131-0.118,0.23-0.254,0.326-0.386
		c0.037-0.051,0.073-0.102,0.111-0.15c0.166-0.21,0.248-0.309,0.292-0.309c0.056,0,0.168,0.032,0.31,0.072l0.097,0.027
		c0.487,0.135,0.708,0.341,0.787,0.734C20.189,21.079,20.495,21.128,20.622,21.128z M23.722,21.195l0.144-1.068l3.11,0.444
		l-0.149,1.063L23.722,21.195z M26.683,22.57l-0.138,1.066l-3.112-0.444l0.014-0.113c0.04-0.319,0.078-0.625,0.132-0.926
		c0.009-0.006,0.019-0.011,0.026-0.015c0.867,0.113,1.733,0.238,2.622,0.365L26.683,22.57z M17.831,25.191l-0.097,0.071
		c-0.375,0.276-0.744,0.549-1.114,0.796c-0.041,0-0.083-0.012-0.099-0.021l-0.42-0.216c-0.671-0.343-1.365-0.698-2.018-1.089
		c-0.139-0.082-0.255-0.249-0.377-0.425c-0.051-0.071-0.101-0.144-0.154-0.213c0.069-0.287,0.61-0.646,0.99-0.646
		c0.063,0,0.117,0.011,0.155,0.031c0.839,0.449,1.674,0.906,2.509,1.363L17.831,25.191z M15.682,27.942
		c0.875-0.65,1.749-1.302,2.64-1.931c0.177-0.124,0.442-0.213,0.81-0.27c1.081-0.17,2.163-0.326,3.246-0.482l1.357-0.196
		c0.281-0.041,0.563-0.084,0.843-0.127c0.635-0.098,1.27-0.194,1.907-0.267l0.035-0.001c0.156,0,0.329,0.077,0.37,0.131
		c0.748,0.965,1.476,1.946,2.202,2.927l0.478,0.644H15.106L15.682,27.942z M30.539,28.11c-0.544-0.753-1.101-1.496-1.656-2.24
		c-0.436-0.582-0.871-1.164-1.3-1.75c-0.063-0.086-0.104-0.241-0.1-0.369c0.008-0.192,0.039-0.384,0.069-0.575
		c0.022-0.144,0.045-0.286,0.029-0.456c0.001-0.001,0.008-0.002,0.026-0.002l0.056,0.003c0.449,0.05,0.699,0.142,0.82,0.505
		c0.051,0.153,0.13,0.285,0.206,0.412c0.06,0.1,0.12,0.197,0.158,0.305c0.22,0.623,0.731,0.749,1.151,0.789
		c0.525,0.051,0.525,0.051,0.593,0.608c0.092,0.761,0.194,1.521,0.298,2.287l0.103,0.76C30.826,28.397,30.72,28.359,30.539,28.11z"
		/>
	<g>
		<path fill="#FFFFFF" d="M25.268,10.538c0.05-0.227,0.124-0.447,0.202-0.68c0.061-0.18,0.121-0.36,0.17-0.543
			c0.034-0.128-0.014-0.247-0.053-0.342c-0.011-0.028-0.022-0.056-0.03-0.083l-0.061-0.213l-0.284,0.11
			c-0.078,0.026-0.166,0.056-0.248,0.114c-0.091,0.065-0.132,0.165-0.179,0.276c-0.595,1.315-0.56,2.622,0.105,3.883
			c0.444,0.845,0.569,1.643,0.38,2.439c-0.04,0.165-0.103,0.327-0.169,0.498c-0.06,0.153-0.118,0.307-0.162,0.464
			c-0.037,0.131-0.008,0.257,0.019,0.369c0.008,0.037,0.017,0.073,0.021,0.108l0.021,0.15l0.404,0.054l0.071-0.09
			c0.025-0.033,0.053-0.064,0.081-0.096c0.07-0.08,0.149-0.171,0.202-0.284c0.61-1.318,0.582-2.637-0.082-3.921
			C25.249,11.921,25.118,11.218,25.268,10.538z"/>
		<path fill="#FFFFFF" d="M29.432,14.364c-0.416-0.801-0.504-1.558-0.27-2.314c0.044-0.142,0.104-0.279,0.163-0.416l0.072-0.17
			l0.318-0.371l-0.307-0.083c-0.025-0.006-0.051-0.017-0.077-0.026c-0.07-0.027-0.149-0.057-0.238-0.057l-0.084,0.01
			c-0.146,0.036-0.33,0.142-0.414,0.302c-0.567,1.095-0.586,2.209-0.053,3.221c0.529,1.003,0.571,1.921,0.13,2.891
			c-0.061,0.135-0.008,0.274,0.034,0.386c0.013,0.033,0.025,0.065,0.033,0.096l0.061,0.245l0.31-0.155
			c0.078-0.036,0.166-0.076,0.247-0.139c0.082-0.065,0.119-0.155,0.168-0.271C30.01,16.475,29.978,15.415,29.432,14.364z"/>
		<path fill="#FFFFFF" d="M22.426,15.38c-0.086-0.346-0.167-0.673-0.322-0.981c-0.447-0.89-0.484-1.688-0.118-2.511
			c0.059-0.132,0.031-0.269,0.008-0.389c-0.008-0.038-0.016-0.077-0.019-0.113l-0.028-0.324l-0.276,0.171
			c-0.032,0.02-0.07,0.038-0.108,0.055c-0.12,0.057-0.257,0.121-0.324,0.259c-0.485,1.009-0.472,2.063,0.037,3.046
			c0.433,0.833,0.46,1.639,0.085,2.463c-0.059,0.128-0.026,0.263-0.001,0.372c0.008,0.034,0.017,0.067,0.021,0.099l0.034,0.287
			l0.257-0.134c0.03-0.016,0.068-0.03,0.105-0.043c0.125-0.047,0.281-0.106,0.337-0.257c0.122-0.342,0.224-0.698,0.322-1.043
			l0.129-0.446l-0.018-0.057C22.501,15.684,22.463,15.531,22.426,15.38z"/>
	</g>
	<g display="none">
		<path display="inline" fill="#FFFFFF" d="M10.357,11.928c0.22-0.534,0.512-1.011,1.044-1.227c0.354-0.143,0.754-0.186,1.138-0.237
			c0.081-0.011,0.184,0.142,0.277,0.219c-0.089,0.068-0.179,0.196-0.268,0.195c-1.007-0.011-1.592,0.485-1.811,1.451
			c-0.048,0.213-0.187,0.245-0.378,0.156c-1.028-0.482-1.471-0.416-2.268,0.3c-0.079,0.071-0.24,0.05-0.362,0.072
			c0.016-0.123-0.01-0.277,0.054-0.363c0.474-0.635,1.426-0.92,2.199-0.68C10.1,11.852,10.219,11.886,10.357,11.928z"/>
		<path display="inline" fill="#FFFFFF" d="M23.959,7.747c0.627-0.454,1.276-0.572,1.975-0.319c0.13,0.047,0.271,0.104,0.364,0.199
			c0.088,0.09,0.118,0.236,0.174,0.358c-0.135,0.003-0.301,0.059-0.399,0.001c-0.447-0.266-0.911-0.328-1.386-0.137
			c-0.205,0.083-0.39,0.235-0.557,0.386c-0.201,0.182-0.333,0.179-0.482-0.061c-0.479-0.771-0.947-0.96-1.824-0.796
			c-0.112,0.021-0.247-0.082-0.371-0.128c0.097-0.1,0.177-0.258,0.292-0.289c0.794-0.219,1.479-0.02,2.035,0.596
			C23.832,7.612,23.883,7.666,23.959,7.747z"/>
		<path display="inline" fill="#FFFFFF" d="M16.908,15.552c0.267-0.507,0.617-0.909,1.158-1.067c0.274-0.08,0.572-0.107,0.859-0.104
			c0.109,0.001,0.217,0.155,0.325,0.239c-0.115,0.062-0.231,0.179-0.345,0.178c-0.847-0.008-1.341,0.323-1.635,1.14
			c-0.088,0.244-0.21,0.281-0.428,0.142c-0.786-0.503-1.291-0.466-2.01,0.104c-0.081,0.064-0.231,0.042-0.349,0.06
			c0.025-0.135,0.002-0.323,0.083-0.396c0.556-0.502,1.198-0.699,1.935-0.451C16.621,15.438,16.738,15.487,16.908,15.552z"/>
	</g>
	<g>
		<path fill="#FFFFFF" d="M10.211,16.37c-0.038-0.021-0.077-0.041-0.11-0.063l-0.275-0.188L9.79,16.449
			c-0.004,0.039-0.014,0.079-0.023,0.12c-0.029,0.127-0.062,0.272,0,0.41c0.302,0.681,0.279,1.339-0.075,2.07
			c-0.142,0.294-0.228,0.611-0.31,0.919c-0.036,0.134-0.072,0.268-0.112,0.399l-0.018,0.057l0.116,0.417
			c0.088,0.322,0.171,0.626,0.281,0.927c0.055,0.148,0.207,0.207,0.33,0.255c0.037,0.014,0.073,0.027,0.104,0.044l0.249,0.132
			l0.043-0.278c0.005-0.031,0.014-0.064,0.023-0.098c0.03-0.109,0.067-0.244,0.009-0.374c-0.329-0.724-0.299-1.412,0.095-2.166
			c0.435-0.831,0.444-1.744,0.027-2.639C10.463,16.504,10.33,16.433,10.211,16.37z"/>
		<path fill="#FFFFFF" d="M7.376,19.064c-0.035-0.016-0.071-0.031-0.101-0.049l-0.252-0.15l-0.047,0.29
			c-0.005,0.033-0.016,0.069-0.026,0.104c-0.032,0.113-0.072,0.254-0.015,0.388c0.239,0.559,0.216,1.089-0.07,1.668
			c-0.124,0.249-0.191,0.519-0.257,0.778c-0.028,0.112-0.056,0.224-0.089,0.333L6.503,22.48l0.015,0.056
			c0.028,0.104,0.054,0.205,0.079,0.306c0.063,0.252,0.124,0.49,0.212,0.726c0.054,0.141,0.187,0.216,0.293,0.276
			c0.034,0.02,0.067,0.038,0.096,0.06l0.259,0.188l0.056-0.314c0.007-0.037,0.019-0.076,0.031-0.116
			c0.035-0.118,0.079-0.265,0.025-0.405c-0.227-0.587-0.197-1.118,0.095-1.673c0.382-0.727,0.391-1.511,0.027-2.27
			C7.626,19.177,7.487,19.115,7.376,19.064z"/>
		<path fill="#FFFFFF" d="M13.814,16.262c-0.064-0.136-0.203-0.198-0.315-0.249c-0.035-0.016-0.07-0.031-0.1-0.048l-0.253-0.15
			L13.1,16.105c-0.005,0.034-0.015,0.069-0.025,0.105c-0.03,0.111-0.068,0.25-0.016,0.384c0.202,0.522,0.182,0.998-0.064,1.497
			c-0.109,0.223-0.177,0.464-0.243,0.696c-0.029,0.103-0.059,0.207-0.092,0.311l-0.019,0.058l0.097,0.348
			c0.068,0.251,0.133,0.488,0.226,0.724c0.056,0.142,0.2,0.199,0.315,0.245c0.034,0.013,0.067,0.026,0.095,0.041l0.236,0.128
			l0.055-0.263c0.006-0.031,0.018-0.063,0.029-0.097c0.037-0.11,0.083-0.248,0.024-0.381c-0.227-0.513-0.197-1.002,0.097-1.586
			C14.143,17.663,14.142,16.953,13.814,16.262z"/>
	</g>
	<path fill="#FFFFFF" d="M25.843,26.186c-0.725,0.223-1.382,0.425-2.039,0.626c-0.231,0.071-0.461,0.154-0.698,0.195
		c-0.095,0.016-0.207-0.067-0.312-0.105c0.057-0.098,0.095-0.258,0.175-0.284c0.969-0.311,1.941-0.61,2.92-0.887
		c0.105-0.03,0.299,0.066,0.377,0.163c0.343,0.427,0.67,0.868,0.974,1.322c0.069,0.102,0.022,0.282,0.029,0.426
		c-0.126-0.053-0.295-0.07-0.372-0.164c-0.282-0.344-0.527-0.718-0.798-1.072C26.027,26.311,25.913,26.245,25.843,26.186z"/>
	<path fill="#FFFFFF" d="M19.425,26.639c0.421,0.099,0.782,0.169,1.131,0.277c0.089,0.027,0.14,0.176,0.209,0.269
		c-0.111,0.051-0.221,0.105-0.333,0.152c-0.018,0.007-0.049-0.011-0.071-0.021c-0.617-0.288-1.106-0.147-1.5,0.413
		c-0.061,0.086-0.247,0.084-0.375,0.123c0.022-0.142-0.002-0.319,0.074-0.419c0.184-0.24,0.41-0.449,0.631-0.658
		C19.266,26.702,19.375,26.667,19.425,26.639z"/>
	<path fill="#FFFFFF" d="M10.493,25.994c-0.219,0.382-0.405,0.743-0.63,1.078c-0.071,0.106-0.245,0.144-0.371,0.213
		c-0.005-0.135-0.058-0.294-0.005-0.399c0.204-0.408,0.448-0.796,0.666-1.198c0.106-0.195,0.237-0.248,0.435-0.149
		c0.272,0.136,0.554,0.254,0.815,0.408c0.084,0.05,0.113,0.191,0.167,0.29c-0.116,0.033-0.25,0.118-0.346,0.088
		C10.986,26.25,10.764,26.121,10.493,25.994z"/>
	<path fill="#FFFFFF" d="M17.746,22.009c-0.263,0.251-0.509,0.51-0.784,0.732c-0.093,0.075-0.26,0.059-0.392,0.085
		c0.029-0.131,0.017-0.301,0.096-0.387c0.257-0.282,0.535-0.547,0.831-0.788c0.093-0.076,0.299-0.119,0.394-0.067
		c0.335,0.18,0.652,0.397,0.958,0.625c0.074,0.055,0.079,0.205,0.115,0.311c-0.119,0.013-0.265,0.077-0.352,0.031
		C18.321,22.396,18.051,22.204,17.746,22.009z"/>
	<path fill="#FFFFFF" d="M21.946,23.392c-0.048,0.058-0.086,0.146-0.142,0.161c-0.075,0.019-0.194,0.011-0.243-0.037
		c-0.432-0.433-0.858-0.873-1.269-1.326c-0.047-0.052-0.018-0.217,0.031-0.296c0.025-0.041,0.209-0.047,0.255-0.002
		c0.442,0.441,0.87,0.896,1.299,1.35C21.909,23.277,21.919,23.331,21.946,23.392z"/>
</g>
<rect x="7.339" y="28.454" display="none" fill="#696969" width="1.255" height="0.917"/>
</svg>
