<svg width="21" height="19" viewBox="0 0 21 19" fill="none" xmlns="http://www.w3.org/2000/svg">
  <path
    d="M9.3911 2.45143L2.1311 14.5714C1.98141 14.8306 1.90221 15.1245 1.90137 15.4239C1.90054 15.7232 1.97809 16.0175 2.12632 16.2776C2.27455 16.5376 2.48829 16.7544 2.74628 16.9062C3.00426 17.058 3.2975 17.1396 3.59681 17.1429H18.1168C18.4161 17.1396 18.7094 17.058 18.9673 16.9062C19.2253 16.7544 19.4391 16.5376 19.5873 16.2776C19.7355 16.0175 19.8131 15.7232 19.8122 15.4239C19.8114 15.1245 19.7322 14.8306 19.5825 14.5714L12.3225 2.45143C12.1697 2.19952 11.9546 1.99125 11.6978 1.8467C11.4411 1.70216 11.1514 1.62622 10.8568 1.62622C10.5622 1.62622 10.2725 1.70216 10.0158 1.8467C9.75905 1.99125 9.5439 2.19952 9.3911 2.45143V2.45143Z"
    stroke="#78A86D"
    stroke-width="2"
    stroke-linecap="round"
    stroke-linejoin="round"/>
  <path d="M10.8569 6.85712V10.2857" stroke="#78A86D" stroke-width="2" stroke-linecap="round" stroke-linejoin="round"/>
  <path d="M10.8569 13.7143H10.8655" stroke="#78A86D" stroke-width="2" stroke-linecap="round" stroke-linejoin="round"/>
</svg>
