<svg version="1.1" id="Слой_1" xmlns="http://www.w3.org/2000/svg" xmlns:xlink="http://www.w3.org/1999/xlink" x="0px" y="0px" viewBox="0 0 22 22" width="22" height="22" style="enable-background:new 0 0 22 22;" xml:space="preserve">
	<path fill="#E5A33B" d="M21.6,18.9c-0.1-0.1-0.2-0.2-0.3-0.2c-0.1,0-0.3-0.1-0.4,0c-1.4,0.2-2.8,0.2-4.2,0.2c-1-0.1-2-0.2-3-0.6
	l-3.3-9.5c2.4-0.8,4.8-1.3,7.3-1.6c0.2,0,0.3-0.1,0.4-0.2c0.1-0.1,0.2-0.2,0.3-0.3c0.1-0.1,0.1-0.3,0.1-0.4c0-0.2,0-0.3-0.1-0.4
	c-1-1.9-2.6-3.4-4.6-4.3c-2-0.9-4.2-1.1-6.2-0.6L7.5,0.6c0-0.1-0.1-0.2-0.2-0.3C7.2,0.2,7.1,0.1,7,0.1C6.9,0,6.8,0,6.7,0
	C6.5,0,6.4,0,6.3,0.1l0,0C6,0.1,5.8,0.3,5.7,0.5C5.6,0.8,5.6,1,5.7,1.3l0.1,0.2C3.8,2.4,2.2,3.9,1.3,5.8C0.3,7.7,0,9.9,0.4,12
	c0,0.2,0.1,0.3,0.2,0.4c0.1,0.1,0.2,0.2,0.4,0.3c0.1,0.1,0.3,0.1,0.5,0.1s0.3-0.1,0.4-0.1c2.1-1.3,4.4-2.4,6.7-3.3l2.8,8
	c-2.3-1-4.4-2-7.3-1.5c-1.5,0.3-2.8,1.2-3.8,2.3C0.1,18.4,0,18.6,0,18.8v2.1c0,0.3,0.1,0.5,0.3,0.7c0.2,0.2,0.4,0.3,0.7,0.3h20
	c0.3,0,0.5-0.1,0.7-0.3c0.2-0.2,0.3-0.4,0.3-0.7v-1.3c0-0.1,0-0.3-0.1-0.4C21.7,19.1,21.7,18.9,21.6,18.9L21.6,18.9z"/>
</svg>
