<svg xmlns="http://www.w3.org/2000/svg" width="16.695" height="16.695" viewBox="0 0 16.695 16.695">
  <g id="brickwall" transform="translate(0.35 0.35)">
    <path id="Контур_2806" data-name="Контур 2806" d="M.489,183.2h4.89a.469.469,0,0,0,.489-.445v-3.113a.469.469,0,0,0-.489-.445H.489a.469.469,0,0,0-.489.445v3.113a.469.469,0,0,0,.489.445Zm0-3.558h4.89v3.113H.489Zm0,0" transform="translate(0 -173.203)" fill="#3c4b5a" stroke="#3c4b5a" stroke-width="0.7"/>
    <path id="Контур_2807" data-name="Контур 2807" d="M.533,363.2H2.666a.534.534,0,0,0,.533-.533v-3.732a.534.534,0,0,0-.533-.533H.533a.534.534,0,0,0-.533.533v3.732A.534.534,0,0,0,.533,363.2Zm0-4.265H2.666v3.732H.533Zm0,0" transform="translate(0 -347.202)" fill="#3c4b5a" stroke="#3c4b5a" stroke-width="0.7"/>
    <path id="Контур_2808" data-name="Контур 2808" d="M15.463,0H.534A.534.534,0,0,0,0,.533V4.265A.534.534,0,0,0,.534,4.8h7.34a5.413,5.413,0,0,1,.386.8H7.731a.534.534,0,0,0-.533.533V9.864a.534.534,0,0,0,.533.533h.513c0,.12-.011.242-.009.36,0,.141.009.289.018.439H4.533A.534.534,0,0,0,4,11.73v3.732A.534.534,0,0,0,4.533,16h10.93A.534.534,0,0,0,16,15.462V.533A.534.534,0,0,0,15.463,0ZM.534.533H5a7.16,7.16,0,0,0,.036,1.119A2.377,2.377,0,0,0,6.306,3.146l.086.055A4.523,4.523,0,0,1,7.52,4.265H.534Zm7.2,5.6h.7a5.555,5.555,0,0,1,.2,1.364,5.192,5.192,0,0,1-.169,1.22c-.04.18-.079.361-.112.548s-.057.4-.074.6h-.54Zm-3.2,5.6H8.306a7.35,7.35,0,0,0,1.5,3.732H4.533Zm10.93,3.732H10.509a6.7,6.7,0,0,1-1.7-4.023c-.022-.239-.034-.471-.036-.689,0-.2,0-.4.016-.607a6.317,6.317,0,0,1,.087-.787c.032-.179.07-.353.108-.526a5.679,5.679,0,0,0,.181-1.343,6.121,6.121,0,0,0-.271-1.7,6.042,6.042,0,0,0-.635-1.393A5.175,5.175,0,0,0,6.682,2.754L6.6,2.7c-.5-.324-.934-.6-1.037-1.139A8.271,8.271,0,0,1,5.528.533h9.935Zm0,0" transform="translate(-0.001)" fill="#3c4b5a" stroke="#3c4b5a" stroke-width="0.7"/>
    <path id="Контур_2809" data-name="Контур 2809" d="M194.448,34.564c.08.277.353.465.792.749l.09.058a5.685,5.685,0,0,1,1.731,1.8,6.6,6.6,0,0,1,.695,1.524.267.267,0,1,0,.509-.16,7.143,7.143,0,0,0-.751-1.646,6.214,6.214,0,0,0-1.893-1.965l-.091-.059a2.439,2.439,0,0,1-.563-.433l0-.054a.267.267,0,1,0-.532.035c0,.038.005.073.008.1a.283.283,0,0,0,.009.048Zm0,0" transform="translate(-187.356 -33.063)" fill="#3c4b5a" stroke="#3c4b5a" stroke-width="0.7"/>
    <path id="Контур_2810" data-name="Контур 2810" d="M298.1,230.958a6.254,6.254,0,0,1-.2,1.483c-.035.16-.071.321-.1.487a5.809,5.809,0,0,0-.08.733c-.012.187-.017.377-.015.563,0,.2.014.42.034.644a6.292,6.292,0,0,0,1.327,3.444.267.267,0,1,0,.411-.34,5.846,5.846,0,0,1-1.207-3.154c-.019-.209-.029-.411-.032-.6q0-.259.014-.526a5.314,5.314,0,0,1,.073-.67c.028-.158.062-.312.1-.482a6.626,6.626,0,0,0,.206-1.59.266.266,0,0,0-.267-.262h0a.267.267,0,0,0-.262.271Zm0,0" transform="translate(-287.405 -223.481)" fill="#3c4b5a" stroke="#3c4b5a" stroke-width="0.7"/>
  </g>
</svg>
