<svg xmlns="http://www.w3.org/2000/svg" width="15.212" height="24.339" viewBox="0 0 15.212 24.339" class="inline-svg">
  <g transform="translate(-48)">
    <path d="M48.507,0A.507.507,0,0,0,48,.507v21.8a2.028,2.028,0,1,0,4.057,0V14.2h1.521a.507.507,0,0,0,.507-.507c0-5.175-.034-8.453-.705-10.549C52.674.939,51.217,0,48.507,0Z" transform="translate(0 0)" class="color-fill" />
    <path d="M110.085,0V6.085h-1.014V0h-2.028V6.085h-1.014V0H104V7.1a4.064,4.064,0,0,0,3.042,3.928V14.7h-.507a.507.507,0,0,0-.507.507v7.1a2.028,2.028,0,1,0,4.057,0v-7.1a.507.507,0,0,0-.507-.507h-.507V11.027A4.064,4.064,0,0,0,112.113,7.1V0Z"
      transform="translate(-48.901 0)" class="color-fill" />
  </g>
</svg>
