<svg width="25" height="25" viewBox="0 0 25 25" fill="none" xmlns="http://www.w3.org/2000/svg">
<path d="M11.1127 13.9299C11.2673 14.0764 11.4721 14.1582 11.6852 14.1582C11.8982 14.1582 12.1031 14.0764 12.2576 13.9299C12.7952 13.4204 17.5101 8.86475 17.5101 5.8367C17.5101 3.75557 16.3999 1.83256 14.5976 0.791997C12.7954 -0.248374 10.5749 -0.248374 8.77263 0.791997C6.97034 1.83256 5.86012 3.75557 5.86012 5.8367C5.86012 8.86456 10.5751 13.4201 11.1126 13.9299H11.1127ZM9.18875 5.8367C9.18875 5.1745 9.45176 4.53964 9.91984 4.07136C10.3881 3.60328 11.023 3.34026 11.6852 3.34026C12.3474 3.34026 12.9822 3.60328 13.4505 4.07136C13.9186 4.53963 14.1816 5.1745 14.1816 5.8367C14.1816 6.49889 13.9186 7.13375 13.4505 7.60203C12.9822 8.07011 12.3474 8.33313 11.6852 8.33313C11.0234 8.33239 10.3887 8.06918 9.9208 7.60108C9.45271 7.13319 9.18951 6.49846 9.18875 5.8367ZM22.5031 14.9903H0.867301C0.646635 14.9903 0.43488 15.078 0.278856 15.234C0.122831 15.39 0.0351562 15.6018 0.0351562 15.8224V24.1439C0.0351562 24.3645 0.122831 24.5763 0.278856 24.7323C0.43488 24.8883 0.646635 24.976 0.867301 24.976H22.5031C22.7237 24.976 22.9355 24.8883 23.0915 24.7323C23.2475 24.5763 23.3352 24.3645 23.3352 24.1439V15.8224C23.3352 15.6018 23.2475 15.39 23.0915 15.234C22.9355 15.078 22.7237 14.9903 22.5031 14.9903ZM2.53159 20.8153H0.867301V19.151H2.53159C2.82897 19.151 3.10368 19.3096 3.25227 19.5671C3.40087 19.8245 3.40087 20.1418 3.25227 20.3992C3.10368 20.6567 2.82896 20.8153 2.53159 20.8153ZM7.52446 20.8153H5.86017C5.56279 20.8153 5.28808 20.6567 5.13948 20.3992C4.99089 20.1418 4.99089 19.8245 5.13948 19.5671C5.28808 19.3096 5.5628 19.151 5.86017 19.151H7.52446C7.82184 19.151 8.09655 19.3096 8.24514 19.5671C8.39374 19.8245 8.39374 20.1418 8.24514 20.3992C8.09655 20.6567 7.82183 20.8153 7.52446 20.8153ZM12.5173 20.8153H10.853C10.5557 20.8153 10.2809 20.6567 10.1324 20.3992C9.98375 20.1418 9.98375 19.8245 10.1324 19.5671C10.2809 19.3096 10.5557 19.151 10.853 19.151H12.5173C12.8147 19.151 13.0894 19.3096 13.238 19.5671C13.3866 19.8245 13.3866 20.1418 13.238 20.3992C13.0894 20.6567 12.8147 20.8153 12.5173 20.8153ZM17.5102 20.8153H15.8459C15.5485 20.8153 15.2738 20.6567 15.1252 20.3992C14.9766 20.1418 14.9766 19.8245 15.1252 19.5671C15.2738 19.3096 15.5485 19.151 15.8459 19.151H17.5102C17.8076 19.151 18.0823 19.3096 18.2309 19.5671C18.3795 19.8245 18.3795 20.1418 18.2309 20.3992C18.0823 20.6567 17.8076 20.8153 17.5102 20.8153ZM22.5031 20.8153H20.8388C20.5414 20.8153 20.2667 20.6567 20.1181 20.3992C19.9695 20.1418 19.9695 19.8245 20.1181 19.5671C20.2667 19.3096 20.5414 19.151 20.8388 19.151H22.5031V20.8153Z" fill="#06B26B"/>
</svg>
