<svg xmlns="http://www.w3.org/2000/svg" width="18.201" height="20.801" viewBox="0 0 18.201 20.801" class="inline-svg">
  <g transform="translate(-16)">
    <path d="M22.067,1.733H21.2V.433A.433.433,0,0,0,20.767,0H17.3a.433.433,0,0,0-.433.433v1.3H16V3.467h6.067Z" class="color-fill" />
    <path d="M37.867,0H36.575a3.481,3.481,0,0,0-3.333,2.514L32.4,5.461a.433.433,0,0,1-.477.31l-3.216-.448a.433.433,0,0,1-.373-.429v-.56H24v14.3A2.167,2.167,0,0,0,26.167,20.8h13a2.167,2.167,0,0,0,2.167-2.167V3.467A3.467,3.467,0,0,0,37.867,0ZM36.747,16.721l-1.226,1.226L33.175,15.6H32.159l-2.346,2.346-1.226-1.226,2.346-2.346V13.36l-2.346-2.346,1.226-1.226,2.346,2.346h1.015l2.346-2.346,1.226,1.226L34.4,13.36v1.015Zm1.492-9.7-2.525-.365a.433.433,0,0,1-.361-.523l.713-3.19a.433.433,0,0,1,.423-.339H38.3a.433.433,0,0,1,.433.433V6.588a.433.433,0,0,1-.5.429Z"
      transform="translate(-7.133)" class="color-fill" />
  </g>
</svg>
