<svg xmlns="http://www.w3.org/2000/svg" width="16.523" height="16.523" viewBox="0 0 16.523 16.523">
  <path id="house-plan" d="M16.523,1.614v13.3a1.615,1.615,0,0,1-1.614,1.614H13.339a.645.645,0,1,1,0-1.291h1.571a.323.323,0,0,0,.323-.323V8.939h-5.7a.645.645,0,0,1,0-1.291h5.7V1.614a.323.323,0,0,0-.323-.323H7.618V3.184a.645.645,0,0,1-1.291,0V1.291H1.614a.323.323,0,0,0-.323.323v6H6.327V5.723a.645.645,0,0,1,1.291,0V10.8a.645.645,0,1,1-1.291,0V8.907H1.291v6a.323.323,0,0,0,.323.323H6.327V13.339a.645.645,0,0,1,1.291,0v1.893H10.8a.645.645,0,1,1,0,1.291H1.614A1.615,1.615,0,0,1,0,14.909V1.614A1.615,1.615,0,0,1,1.614,0h13.3A1.615,1.615,0,0,1,16.523,1.614Zm0,0" fill="#3c4b5a"/>
</svg>
