<svg xmlns="http://www.w3.org/2000/svg" width="20.767" height="23.632" viewBox="0 0 20.767 23.632" class="inline-svg">
  <g transform="translate(-31.04)">
    <path d="M346.369,377.44c-1.35,1.35-1.569,3.326-.49,4.406,1.179,1.179,3.207.71,4.406-.49,1.349-1.35,1.569-3.326.49-4.406C349.62,375.794,347.6,376.21,346.369,377.44Z" transform="translate(-299.654 -358.902)" fill="#B1A994" class="color-fill" />
    <path d="M36.621,381.792c1.08-1.08.86-3.056-.489-4.406-1.224-1.223-3.239-1.658-4.406-.489-1.079,1.08-.859,3.057.489,4.406C33.416,382.5,35.438,382.975,36.621,381.792Z" transform="translate(0 -358.847)" fill="#B1A994" class="color-fill" />
    <path d="M62.034,225.444a5.046,5.046,0,0,1,2.387.664,13.45,13.45,0,0,1,2.237-5.062,7.046,7.046,0,0,1-1.81-1.446A5.72,5.72,0,0,0,61,224.788a4.976,4.976,0,0,0,.068.786A4.017,4.017,0,0,1,62.034,225.444Z" transform="translate(-28.577 -209.464)"
      fill="#B1A994" class="color-fill" />
    <path d="M330.2,219.6a7.045,7.045,0,0,1-1.81,1.446,13.451,13.451,0,0,1,2.237,5.062,5.054,5.054,0,0,1,2.386-.662,4.035,4.035,0,0,1,.967.13,4.97,4.97,0,0,0,.068-.788A5.72,5.72,0,0,0,330.2,219.6Z" transform="translate(-283.627 -209.464)"
      fill="#B1A994" class="color-fill" />
    <path d="M167.826,263.287a6.682,6.682,0,0,1-4.022,0,12.035,12.035,0,0,0-2.353,5.365,4.748,4.748,0,0,1,1.136,5.586,10.124,10.124,0,0,0,6.455,0,4.75,4.75,0,0,1,1.136-5.586A12.033,12.033,0,0,0,167.826,263.287Zm-1.319,7.326h-1.385v-1.385h1.385Zm0-2.769h-1.385v-1.385h1.385Z"
      transform="translate(-124.391 -251.135)" fill="#B1A994" class="color-fill" />
    <path d="M78.769,5.539a5.539,5.539,0,1,0,11.077,0,2.769,2.769,0,1,0-2.22-4.41,5.442,5.442,0,0,0-6.637,0,2.766,2.766,0,1,0-2.22,4.41Zm7.616-2.077H87.77V4.846H86.385Zm.692,3.462C87.077,8.088,85.861,9,84.308,9s-2.769-.912-2.769-2.077,1.216-2.077,2.769-2.077S87.077,5.758,87.077,6.923ZM80.846,3.462h1.385V4.846H80.846Z"
      transform="translate(-42.885)" fill="#B1A994" class="color-fill" />
    <ellipse cx="1.385" cy="0.692" rx="1.385" ry="0.692" transform="translate(40.039 6.231)" fill="#B1A994" class="color-fill" />
  </g>
</svg>
