<svg version="1.1" width="23.3" height="25" xmlns="http://www.w3.org/2000/svg" xmlns:xlink="http://www.w3.org/1999/xlink" x="0px" y="0px" viewBox="0 0 23.3 25" style="enable-background:new 0 0 23.3 25;" xml:space="preserve">
	<path fill="#BFA272" d="M22.4,4.8c-0.6-0.7-1.5-1.2-2.4-1.3v0c-0.1-1-0.6-1.9-1.4-2.5c-0.7-0.7-1.7-1-2.7-1h-0.8C14,0,13,0.4,12.2,1.2
	c-0.2,0.2-0.4,0.4-0.6,0.7c-0.2-0.2-0.3-0.5-0.6-0.7C10.4,0.4,9.3,0,8.2,0H7.4c-1,0-1.9,0.4-2.7,1C4,1.7,3.5,2.6,3.4,3.6
	C2.4,3.7,1.6,4.1,1,4.8C0.3,5.6,0,6.5,0,7.4c0,0.1,0.1,0.3,0.2,0.4c0.1,0.1,0.2,0.2,0.4,0.2H2c0.1,0.4,0.4,0.7,0.7,0.9
	C3,9,3.4,9.2,3.8,9.2H4c0.4,0,0.8-0.1,1.1-0.3c0.3-0.2,0.6-0.5,0.7-0.9h1.5c0.1,0,0.3-0.1,0.4-0.2c0.1-0.1,0.2-0.2,0.2-0.4
	c0-0.9-0.3-1.8-0.9-2.5C6.2,4.2,5.3,3.7,4.4,3.6c0.1-0.7,0.5-1.3,1-1.8c0.5-0.5,1.2-0.7,2-0.7h0.8c0.8,0,1.6,0.3,2.1,0.9
	c0.4,0.4,0.6,0.8,0.7,1.3C11.1,3.5,11,3.8,11,4.1v13c-0.4,0.1-0.7,0.3-1,0.7c-0.2,0.3-0.4,0.7-0.4,1.1v5.1H8.3H8
	c-0.3,0-0.5,0.2-0.5,0.5C7.5,24.8,7.7,25,8,25h0.3h6.8h0.3c0.3,0,0.5-0.2,0.5-0.5c0-0.3-0.2-0.5-0.5-0.5h-0.3h-1.4v-5.1
	c0-0.4-0.1-0.8-0.4-1.1c-0.2-0.3-0.6-0.6-1-0.7v-13c0-0.3,0-0.6-0.1-0.9c0.1-0.5,0.4-0.9,0.7-1.3c0.6-0.6,1.3-0.9,2.1-0.9h0.8
	c0.7,0,1.4,0.3,2,0.7c0.5,0.5,0.9,1.1,1,1.8c-0.9,0.1-1.8,0.6-2.4,1.3c-0.6,0.7-0.9,1.6-0.9,2.5c0,0.1,0.1,0.3,0.2,0.4
	c0.1,0.1,0.2,0.2,0.4,0.2h1.5c0.1,0.4,0.4,0.7,0.7,0.9C18.6,9,19,9.2,19.4,9.2h0.2c0.4,0,0.8-0.1,1.1-0.3c0.3-0.2,0.6-0.5,0.7-0.9
	h1.5c0.1,0,0.3-0.1,0.4-0.2c0.1-0.1,0.2-0.2,0.2-0.4C23.3,6.5,23,5.6,22.4,4.8z"/>
</svg>
