<svg xmlns="http://www.w3.org/2000/svg" width="19.974" height="23.456" viewBox="0 0 19.974 23.456" class="inline-svg">
  <g transform="translate(0 0.001)">
    <path d="M124.911,158.457a4.469,4.469,0,1,0,4.469,4.469A4.474,4.474,0,0,0,124.911,158.457Zm2.653,3.627-3.2,3.2a.688.688,0,0,1-.973,0l-1.224-1.224a.688.688,0,0,1,.973-.973l.737.737,2.715-2.715a.688.688,0,0,1,.973.973Zm0,0"
      transform="translate(-114.924 -151.199)" class="color-fill" />
    <path d="M19.951,6.363V6.345c-.01-.225-.017-.464-.021-.729a2.486,2.486,0,0,0-2.341-2.435A9.647,9.647,0,0,1,11.023.413L11.008.4a1.5,1.5,0,0,0-2.04,0L8.952.413A9.648,9.648,0,0,1,2.387,3.181,2.486,2.486,0,0,0,.046,5.616c0,.263-.011.5-.021.729v.042c-.052,2.75-.118,6.173,1.027,9.279A11.812,11.812,0,0,0,3.885,20.08,14.824,14.824,0,0,0,9.43,23.36a1.715,1.715,0,0,0,.227.062,1.679,1.679,0,0,0,.66,0,1.716,1.716,0,0,0,.228-.062,14.833,14.833,0,0,0,5.54-3.282,11.829,11.829,0,0,0,2.834-4.415C20.068,12.547,20,9.118,19.951,6.363ZM9.987,17.573a5.846,5.846,0,1,1,5.846-5.846A5.852,5.852,0,0,1,9.987,17.573Zm0,0"
      transform="translate(0)" class="color-fill" />
  </g>
</svg>
