<svg width="25" height="25" viewBox="0 0 25 25" fill="none" xmlns="http://www.w3.org/2000/svg">
<g clip-path="url(#clip0_1800_830)">
<path d="M17.0471 7.52969C17.0471 8.93128 16.819 10.1697 16.3952 11.2454C15.9715 12.321 15.3196 13.2336 14.5047 13.9507C13.6571 14.7004 12.6467 15.2544 11.4409 15.6455C10.2349 16.0367 8.80079 16.2322 7.1709 16.2322H5.08483V24.1525C5.08483 24.2829 5.05221 24.3805 4.95437 24.511C4.85652 24.6088 4.72628 24.7065 4.53059 24.7717C4.33511 24.8369 4.0742 24.9022 3.74829 24.9348C3.42236 24.9674 3.03119 25 2.50982 25C2.02081 25 1.62987 24.9674 1.30392 24.9348C0.977987 24.9022 0.717304 24.8369 0.52162 24.7717C0.326145 24.7065 0.19569 24.6086 0.13046 24.511C0.0652296 24.4132 0 24.2829 0 24.1525L0.000431983 1.79273C0.000431983 1.20612 0.163504 0.749723 0.456821 0.45639C0.782751 0.163072 1.17393 0 1.69529 0H7.56252C8.14913 0 8.7034 0.0326145 9.25739 0.0652301C9.77879 0.0978446 10.4309 0.19569 11.1803 0.358547C11.9301 0.52162 12.6797 0.782325 13.4293 1.17347C14.179 1.56463 14.8308 2.08604 15.3848 2.67287C15.9062 3.29211 16.33 3.97659 16.6233 4.79151C16.9168 5.60621 17.0473 6.51878 17.0473 7.52922L17.0471 7.52969ZM11.7668 7.88823C11.7668 7.00829 11.6037 6.29118 11.3104 5.73697C11.017 5.18293 10.6259 4.75916 10.1695 4.4985C9.7131 4.2378 9.25692 4.07472 8.7679 3.9771C8.27889 3.91187 7.75751 3.87925 7.23587 3.87925H5.08461V12.2889H7.33352C8.14844 12.2889 8.8003 12.1911 9.35435 11.963C9.90839 11.7349 10.3322 11.4416 10.6907 11.0504C11.0492 10.6592 11.3099 10.2029 11.473 9.64881C11.7017 9.12719 11.7667 8.50793 11.7667 7.88847L11.7668 7.88823Z" fill="#5277F5"/>
</g>
<defs>
<clipPath id="clip0_1800_830">
<rect width="25" height="25" fill="white"/>
</clipPath>
</defs>
</svg>
