<svg version="1.1" id="Слой_1" xmlns="http://www.w3.org/2000/svg" xmlns:xlink="http://www.w3.org/1999/xlink" x="0px" y="0px" viewBox="0 0 17.5 25" style="enable-background:new 0 0 17.5 25;" xml:space="preserve">
	<path fill="#47C9CE" d="M8.8,5.4H7.2c-0.4,0-0.7,0.3-0.7,0.7v5.5c0,0.4,0.3,0.7,0.7,0.7s0.7-0.3,0.7-0.7V10h1C10,10,11,9,11,7.8V7.6
	C11,6.4,10,5.4,8.8,5.4L8.8,5.4z M9.6,7.8c0,0.4-0.4,0.8-0.8,0.8h-1V6.8h1c0.4,0,0.8,0.4,0.8,0.8V7.8z"/>
	<path fill="#47C9CE" d="M8.7,0C3.9,0,0,3.9,0,8.7c0,4.4,3.7,10.6,7.7,15.8c0.5,0.7,1.6,0.7,2.1,0c4-5.1,7.7-11.3,7.7-15.8
	C17.5,3.9,13.6,0,8.7,0L8.7,0z M8.7,14.6c-0.6,0-1.1-0.1-1.6-0.2c-1-0.3-1.8-0.8-2.5-1.5c-1.1-1.1-1.8-2.5-1.8-4.2
	c0-3.2,2.6-5.9,5.9-5.9s5.9,2.6,5.9,5.9C14.6,12,12,14.6,8.7,14.6L8.7,14.6z"/>
</svg>
