<svg version="1.1" id="Слой_1" xmlns="http://www.w3.org/2000/svg" xmlns:xlink="http://www.w3.org/1999/xlink" x="0px" y="0px" viewBox="0 0 25 25" style="enable-background:new 0 0 25 25;" xml:space="preserve">
	<path fill="#84A078" d="M21.8,23.1c-1.7-0.8-3.7-1.4-5.9-1.7v-6.4c0.4,0.2,0.9,0.3,1.3,0.3c1.6,0,3-1,3.5-2.5c1.5-0.4,2.7-1.8,2.7-3.5
	c0-1.2-0.6-2.3-1.5-3c0-0.1,0-0.3,0-0.4c0-2-1.6-3.7-3.7-3.7h-0.2C17.5,0.9,16.3,0,14.8,0c-1.5,0-2.8,0.9-3.4,2.2h-0.2
	c-2,0-3.7,1.6-3.7,3.7c0,0.1,0,0.3,0,0.4C6.7,6.9,6.1,8,6.1,9.2c0,1.7,1.1,3.1,2.7,3.5c0.5,1.4,1.9,2.5,3.5,2.5
	c0.5,0,0.9-0.1,1.3-0.3v6.1C12.9,21,12.1,21,11.2,21c-0.4,0-0.8,0-1.2,0v-1.9h0.8c0.4,0,0.7-0.3,0.7-0.7s-0.3-0.7-0.7-0.7l-6.9,0
	c-0.4,0-0.7,0.3-0.7,0.7s0.3,0.7,0.7,0.7h0.8l0,2.6c-1.5,0.3-2.9,0.8-4,1.4c-1,0.5-0.6,2,0.5,1.9c3.1-0.4,6.5-0.6,10.1-0.6
	s7,0.2,10.1,0.6C22.4,25.1,22.8,23.6,21.8,23.1L21.8,23.1z M19,8.3c0.4,0,0.8,0.3,0.8,0.8c0,0.4-0.3,0.8-0.8,0.8
	c-0.4,0-0.8-0.3-0.8-0.8C18.3,8.6,18.6,8.3,19,8.3z M17.1,4.4c0.4,0,0.8,0.3,0.8,0.8c0,0.4-0.3,0.8-0.8,0.8c-0.4,0-0.8-0.3-0.8-0.8
	C16.3,4.8,16.7,4.4,17.1,4.4z M10.5,10.2c-0.4,0-0.8-0.3-0.8-0.8c0-0.4,0.3-0.8,0.8-0.8c0.4,0,0.8,0.3,0.8,0.8
	C11.3,9.9,10.9,10.2,10.5,10.2z M12.3,6.3c-0.4,0-0.8-0.3-0.8-0.8c0-0.4,0.3-0.8,0.8-0.8c0.4,0,0.8,0.3,0.8,0.8
	C13,6,12.7,6.3,12.3,6.3z M6,19h2.6v2c-0.9,0.1-1.7,0.2-2.6,0.3V19z M15.1,12.2c-0.4,0-0.8-0.3-0.8-0.8c0-0.4,0.3-0.8,0.8-0.8
	c0.4,0,0.8,0.3,0.8,0.8C15.8,11.9,15.5,12.2,15.1,12.2z"/>
</svg>
