<svg xmlns="http://www.w3.org/2000/svg" width="23.333" height="20" viewBox="0 0 23.333 20" class="inline-svg">
  <g transform="translate(0 -16.5)">
    <path d="M22.155,21.449H16.667V17.712A1.187,1.187,0,0,0,15.488,16.5H8.013a1.245,1.245,0,0,0-1.246,1.212v3.737H1.246A1.241,1.241,0,0,0,0,22.662V35.288A1.241,1.241,0,0,0,1.246,36.5H22.155a1.184,1.184,0,0,0,1.178-1.212V22.662a1.184,1.184,0,0,0-1.178-1.212ZM8.384,18.116H15.05v3.333H8.384Zm7.475,12.525H13.333v2.525H10V30.641H7.475V27.308H10V24.783h3.333v2.525h2.525Z" fill="#47C9CE" class="color-fill" />
  </g>
</svg>
