<svg version="1.1" xmlns="http://www.w3.org/2000/svg" xmlns:xlink="http://www.w3.org/1999/xlink" x="0px" y="0px" viewBox="0 0 25 25" style="enable-background:new 0 0 25 25;" xml:space="preserve">
<g id="Слой_1">
	<path fill="#D86E83" d="M11.3,12.3c0,0.5-0.2,1-0.6,1.4c-0.4,0.4-0.8,0.6-1.4,0.6s-1-0.2-1.4-0.6c-0.4-0.4-0.6-0.8-0.6-1.4
		c0-0.5,0.2-1,0.6-1.4c0.4-0.4,0.8-0.6,1.4-0.6c0.5,0,1,0.2,1.4,0.6C11.1,11.3,11.3,11.8,11.3,12.3L11.3,12.3z M14.5,24.6
		c0,0.2-0.2,0.4-0.4,0.4h-2.6c-0.2,0-0.4-0.2-0.4-0.4v-3c0-2.2-3.4-2.2-3.4,0v3c0,0.2-0.2,0.4-0.4,0.4H4.6c-0.2,0-0.4-0.2-0.4-0.4
		c0-10.7,0-4.8,0-18.9h-2C2,5.7,1.8,5.5,1.8,5.4C1.7,5.2,1.8,5,1.9,4.9l5.8-4.3C8.2,0.2,8.8,0,9.3,0c0.6,0,1.1,0.2,1.6,0.5l5.8,4.3
		C16.9,5,17,5.2,16.9,5.4c-0.1,0.2-0.2,0.3-0.4,0.3h-2L14.5,24.6z M13.6,5.7h-1.1v2.2h1.1V5.7z M7,5.7v2.2h4.7V5.7H7z M5,5.7v2.2
		h1.1V5.7H5z M12.1,12.3c0-0.7-0.3-1.5-0.8-2c-0.5-0.5-1.2-0.8-2-0.8s-1.5,0.3-2,0.8c-0.5,0.5-0.8,1.2-0.8,2c0,0.7,0.3,1.5,0.8,2
		c0.5,0.5,1.2,0.8,2,0.8c0.7,0,1.5-0.3,2-0.8C11.8,13.8,12.1,13.1,12.1,12.3L12.1,12.3z"/>
</g>
<g id="Слой_3">
	<path fill="#D86E83" d="M3.7,18.1H3c-0.1,0-0.2,0-0.3,0.1c-0.1,0.1-0.1,0.2-0.1,0.3v1.6H1.7c-0.2,0-0.4,0.2-0.4,0.4v1.6H0.4
		c-0.2,0-0.4,0.2-0.4,0.4v2C0,24.8,0.2,25,0.4,25h4.1c-0.1-0.3-0.1-0.2-0.1-6.9L3.7,18.1z"/>
</g>
<g id="Слой_2">
	<path fill="#D86E83" d="M23.9,21.2c-2.5,0-3-1.5-3.7-3.7c-0.7-1.9-1.6-5.1-6.6-5.8v0.9c3.3,0.4,4.7,2,5.7,5.2c0.8,2.2,1.5,4.3,4.6,4.3
		c0.3,0,0.3,0.5,0,0.5c-3.4,0-4.3-2.4-5-4.6c-0.7-2-1.5-4.4-5.3-4.8c0,12.3,0,11.6-0.1,11.9h0.7v0c0.2,0,0.4-0.2,0.4-0.4v-3.4
		c0-1.6,2.5-1.6,2.5,0v3.4c0,0.2,0.2,0.4,0.4,0.4h6.3c0.2,0,0.4-0.2,0.4-0.4v-1.2C25.4,22.9,25.1,21.2,23.9,21.2L23.9,21.2z"/>
</g>
</svg>
