<svg xmlns="http://www.w3.org/2000/svg" width="18.04" height="18.28" viewBox="0 0 18.04 18.28" class="inline-svg">
  <g transform="translate(-1.98 -3.683)">
    <g transform="translate(0.019 0)">
      <g transform="translate(0 0)">
        <path d="M53.195,406.049a9.752,9.752,0,0,1-4.184.271,7.843,7.843,0,0,1-3.278-1.177v4.244c0,.185.119.341.259.341H63.514c.14,0,.259-.156.259-.341v-.926c-.123-.119-1.534-1.416-5.421-2.472A9.364,9.364,0,0,0,53.195,406.049Z"
          transform="translate(-43.772 -387.765)" class="color-fill" />
        <path d="M53.195,309.228a9.751,9.751,0,0,1-4.184.271,7.844,7.844,0,0,1-3.278-1.177V311.3c0,.009.009.017.011.026.017.052.375,1.01,3.4,1.549a8.976,8.976,0,0,0,3.872-.264,10.145,10.145,0,0,1,5.536-.051,16.5,16.5,0,0,1,5.215,2.228V311.64c-.125-.12-1.537-1.417-5.421-2.472A9.371,9.371,0,0,0,53.195,309.228Z"
          transform="translate(-43.772 -295.097)" class="color-fill" />
        <path d="M53.195,203.887a9.757,9.757,0,0,1-4.184.272,7.845,7.845,0,0,1-3.278-1.177v3.348c0,.009.009.017.011.026.017.052.375,1.01,3.4,1.549a8.982,8.982,0,0,0,3.873-.264,10.147,10.147,0,0,1,5.536-.052,16.508,16.508,0,0,1,5.215,2.228V206.3c-.123-.119-1.534-1.416-5.421-2.472A9.37,9.37,0,0,0,53.195,203.887Z"
          transform="translate(-43.772 -194.275)" class="color-fill" />
        <path d="M49.148,91.289a8.977,8.977,0,0,0,3.872-.264,10.144,10.144,0,0,1,5.536-.052A16.5,16.5,0,0,1,63.771,93.2V87.1c-.024-.007-.049-.011-.073-.018l-2.451-.758a10.353,10.353,0,0,0-7.278.43L53.2,87.1a11.134,11.134,0,0,1-7.465.568v2.047c0,.009.009.017.011.026C45.76,89.793,46.118,90.75,49.148,91.289Z"
          transform="translate(-43.771 -82.178)" class="color-fill" />
      </g>
    </g>
  </g>
</svg>
