<svg xmlns="http://www.w3.org/2000/svg" width="25.494" height="19.831" viewBox="0 0 25.494 19.831" class="inline-svg">
  <path d="M15.668,65.8a3.187,3.187,0,1,0-3.187,3.187A3.186,3.186,0,0,0,15.668,65.8Zm-4.239,0a1.053,1.053,0,1,1,1.052,1.053A1.052,1.052,0,0,1,11.429,65.8Z" transform="translate(-6.877 -49.158)" class="color-fill" />
  <path d="M63,33.634v6.5a6.276,6.276,0,0,1,1.052-.043,3.811,3.811,0,0,1,3.426,1.7,1.362,1.362,0,0,1,.985-.423H71.65v-4.78l-1.935-2.959Zm7.284,5.008H66.642V35h2.731l.91,1.451Z" transform="translate(-46.611 -27.716)"
    class="color-fill" />
  <path d="M1.337,30.418s7.512,1.393,8.508,5.008h3.442s.427-2.276,2.191-2.9V24.955h8.009l1.323-1.821H14.568l-1.252,2.731H0v1.821H1.366Z" transform="translate(0 -19.947)" class="color-fill" />
  <path d="M82.705,66.885a.5.5,0,0,0-.455.455v.91a.455.455,0,0,0,.455.455h3.187a.456.456,0,0,0,.455-.455v-.91a.456.456,0,0,0-.455-.455Z" transform="translate(-60.854 -52.317)" class="color-fill" />
  <path d="M61.171,65.8c0-.043,0-.085-.006-.127a3.106,3.106,0,1,0,.006.127Zm-4.239,0a1.053,1.053,0,1,1,1.052,1.053A1.052,1.052,0,0,1,56.932,65.8Z" transform="translate(-40.543 -49.158)" class="color-fill" />
  <path d="M18.038,13.853,17.563,12.7H16.2L15,10.884H13.238L11.36,13.16H9.918l-1.29,1.366H7.642L6.125,15.892H17.051Z" transform="translate(-4.532 -10.884)" class="color-fill" />
</svg>
