<svg xmlns="http://www.w3.org/2000/svg" width="27.931" height="19.233" viewBox="0 0 27.931 19.233" class="inline-svg">
  <g transform="translate(0 -64.055)">
    <path d="M.993,282.351l.529.052a1.557,1.557,0,0,0,1.436-.8l.1-.208a1.757,1.757,0,0,0,0-1.564,1.474,1.474,0,0,0-1.275-.577,2.65,2.65,0,0,0-1.31.546A2.3,2.3,0,0,0,0,281.255,1.127,1.127,0,0,0,.993,282.351Z" transform="translate(0 -206.082)"
      class="color-fill" />
    <path d="M70.239,293.68a3.17,3.17,0,0,1,1.252,1.038l1.232,1.727a1.791,1.791,0,0,0,1.566.665l1.161-.173a1.429,1.429,0,0,0,1.13-1.134l.315-2.172a1.553,1.553,0,0,0-.73-1.469l-2.042-1.126a2.317,2.317,0,0,0-1.791-.089l-.644.275a3.884,3.884,0,0,0-1.463,1.227l-.111.17C69.812,293.079,69.869,293.556,70.239,293.68Z"
      transform="translate(-66.273 -217.035)" class="color-fill" />
    <path d="M47.244,202.076l-1.517-.121a1.423,1.423,0,0,0-1.349.731,1.836,1.836,0,0,0,.23,1.619l.071.1c.321.444.768,1.131.992,1.525a1.1,1.1,0,0,0,1.337.355l.62-.242a4.262,4.262,0,0,0,1.514-1.095,1.353,1.353,0,0,0,0-1.541l-.319-.44A2.465,2.465,0,0,0,47.244,202.076Z"
      transform="translate(-41.97 -132.812)" class="color-fill" />
    <path d="M.46,225.377A2.666,2.666,0,0,1,1.7,224.8c.428-.069.548-.509.264-.979l-.21-.349a2.077,2.077,0,0,0-1.135-.948c-.341-.051-.619.356-.619.9v1.4C0,225.38.207,225.626.46,225.377Z" transform="translate(0 -152.309)"
      class="color-fill" />
    <path d="M148.3,247.989a2.032,2.032,0,0,0-1.595.641.767.767,0,0,0,.282,1.2l2.711,1.415a2.806,2.806,0,0,1,1.159,1.132,1.014,1.014,0,0,0,1.231.39l2.016-.592a.652.652,0,0,0,.364-1.082l-1.4-1.888a2.579,2.579,0,0,0-1.586-.9Z"
      transform="translate(-138.877 -176.443)" class="color-fill" />
    <path d="M212.911,345.447l1.511-.007a2.831,2.831,0,0,0,1.708-.7l1.27-1.25a1.1,1.1,0,0,0,.072-1.466l-2.546-3.051a1.721,1.721,0,0,0-1.6-.515l-3.1.807a1.648,1.648,0,0,0-1.117,1.237l-.085.553a2.4,2.4,0,0,0,.512,1.73l1.717,1.924A2.527,2.527,0,0,0,212.911,345.447Z"
      transform="translate(-198.102 -262.159)" class="color-fill" />
    <path d="M316.908,286.506a.838.838,0,0,0,1.226.037l1.161-.915a.766.766,0,0,0,.009-1.247l-.754-.612a1.681,1.681,0,0,0-1.665-.181l-.094.047c-.49.246-.716.727-.5,1.067a1.408,1.408,0,0,1,.283.884A1.479,1.479,0,0,0,316.908,286.506Z"
      transform="translate(-299.715 -210.056)" class="color-fill" />
    <path d="M360.794,333.2l.414.08a4.172,4.172,0,0,0,1.705-.04,1.236,1.236,0,0,0,.678-1.226l-.045-.945a1.847,1.847,0,0,0-.948-1.428l-1.645-.789a1.737,1.737,0,0,0-1.678.193l-.931.747a.955.955,0,0,0-.125,1.378l.942,1.087A3.38,3.38,0,0,0,360.794,333.2Z"
      transform="translate(-339.311 -252.965)" class="color-fill" />
    <path d="M411.046,247.9l-1.936-.494a2.469,2.469,0,0,0-1.8.33l-1.037.738a2.691,2.691,0,0,0-.962,1.525,1.305,1.305,0,0,0,.774,1.323l1.482.612a2.84,2.84,0,0,0,1.849.01l1.665-.632a1.68,1.68,0,0,0,1.009-1.367v-.795A1.448,1.448,0,0,0,411.046,247.9Z"
      transform="translate(-384.164 -175.845)" class="color-fill" />
    <path d="M298.393,222.316c.462-.3.4-.645-.129-.776l-2.241-.552a2.383,2.383,0,0,0-1.765.363l-2.162,1.634c-.438.331-.72.805-.627,1.053s.576.263,1.073.032l1.077-.5c.5-.231,1.024-.329,1.17-.217s.616.448,1.045.748.865.223.97-.172a2.646,2.646,0,0,1,1.03-1.255Z"
      transform="translate(-276.25 -150.814)" class="color-fill" />
    <path d="M403.714,157.394l-3.758-.808a1.436,1.436,0,0,0-1.468.667l-.8,1.469a.728.728,0,0,0,.493,1.109l1.6.381c.534.127,1.4.361,1.925.52l2.034.591a.763.763,0,0,0,1.037-.709V158.6A1.38,1.38,0,0,0,403.714,157.394Z"
      transform="translate(-376.841 -89.79)" class="color-fill" />
    <path d="M264.135,138.726l-.2-.729a2.417,2.417,0,0,0-1.181-1.366l-1.4-.623a2.483,2.483,0,0,0-1.813.02l-.6.285a1.554,1.554,0,0,0-.822,1.42l.051.63a.783.783,0,0,0,1.038.715l.493-.144a4.175,4.175,0,0,1,1.92-.015l1.83.5C263.972,139.568,264.284,139.255,264.135,138.726Z"
      transform="translate(-244.644 -70.157)" class="color-fill" />
    <path d="M262.3,203.721l-.625.217a1.325,1.325,0,0,0-.942,1.013,1.784,1.784,0,0,0,.451,1.122c.248.24.8.152,1.223-.2l1.689-1.385c.424-.348.406-.738-.041-.866A3.433,3.433,0,0,0,262.3,203.721Z" transform="translate(-247.132 -134.331)"
      class="color-fill" />
    <path d="M150.6,189.765l-3.947,1.015c-.531.137-.727.476-.435.755a3.069,3.069,0,0,0,1.523.617l2.479.277a1.007,1.007,0,0,0,1.107-.88l.122-1.042A.639.639,0,0,0,150.6,189.765Z" transform="translate(-138.468 -121.234)"
      class="color-fill" />
    <path d="M135.014,105.881a1.592,1.592,0,0,0-1.215-1.118l-1.781-.266a1.311,1.311,0,0,0-1.348.782l-1.119,2.879a1.721,1.721,0,0,0-.14,1.2c.122.15.652.147,1.179-.008l3.946-1.154a1.067,1.067,0,0,0,.729-1.251Z" transform="translate(-122.603 -40.43)"
      class="color-fill" />
    <path d="M380.577,144.683l-.282.083a1.1,1.1,0,0,0-.762,1.236c.107.525.454.588.771.14l.655-.927C381.275,144.768,381.1,144.528,380.577,144.683Z" transform="translate(-359.719 -78.487)" class="color-fill" />
  </g>
</svg>
