<svg xmlns="http://www.w3.org/2000/svg" width="26.034" height="16.567" viewBox="0 0 26.034 16.567" class="inline-svg">
  <g transform="translate(0 -85.333)">
    <g transform="translate(2.367 88.883)">
      <g transform="translate(0 0)">
        <path d="M49.175,149.333H43.258a.592.592,0,0,0-.592.592v1.183a.592.592,0,0,0,.592.592h5.917a.592.592,0,0,0,.592-.592v-1.183A.592.592,0,0,0,49.175,149.333Z" transform="translate(-42.666 -149.333)" class="color-fill" />
      </g>
    </g>
    <g transform="translate(10.65 88.883)">
      <g transform="translate(0 0)">
        <path d="M198.509,149.333h-5.917a.592.592,0,0,0-.592.592v1.183a.592.592,0,0,0,.592.592h5.917a.592.592,0,0,0,.592-.592v-1.183A.592.592,0,0,0,198.509,149.333Z" transform="translate(-192 -149.333)" class="color-fill" />
      </g>
    </g>
    <g transform="translate(16.567 92.433)">
      <g transform="translate(0 0)">
        <path d="M305.176,213.333h-5.917a.592.592,0,0,0-.592.592v1.183a.592.592,0,0,0,.592.592h5.917a.592.592,0,0,0,.592-.592v-1.183A.592.592,0,0,0,305.176,213.333Z" transform="translate(-298.667 -213.333)" class="color-fill" />
      </g>
    </g>
    <g transform="translate(18.934 95.983)">
      <g transform="translate(0 0)">
        <path d="M347.842,277.333h-5.917a.592.592,0,0,0-.592.592v1.183a.592.592,0,0,0,.592.592h5.917a.592.592,0,0,0,.592-.592v-1.183A.592.592,0,0,0,347.842,277.333Z" transform="translate(-341.333 -277.333)" class="color-fill" />
      </g>
    </g>
    <g transform="translate(0 99.534)">
      <g transform="translate(0 0)">
        <path d="M6.509,341.333H.592a.592.592,0,0,0-.592.592v1.183a.592.592,0,0,0,.592.592H6.509a.592.592,0,0,0,.592-.592v-1.183A.592.592,0,0,0,6.509,341.333Z" transform="translate(0 -341.333)" class="color-fill" />
      </g>
    </g>
    <g transform="translate(10.65 95.983)">
      <g transform="translate(0 0)">
        <path d="M198.509,277.333h-5.917a.592.592,0,0,0-.592.592v1.183a.592.592,0,0,0,.592.592h5.917a.592.592,0,0,0,.592-.592v-1.183A.592.592,0,0,0,198.509,277.333Z" transform="translate(-192 -277.333)" class="color-fill" />
      </g>
    </g>
    <g transform="translate(16.567 99.534)">
      <g transform="translate(0 0)">
        <path d="M305.176,341.333h-5.917a.592.592,0,0,0-.592.592v1.183a.592.592,0,0,0,.592.592h5.917a.592.592,0,0,0,.592-.592v-1.183A.592.592,0,0,0,305.176,341.333Z" transform="translate(-298.667 -341.333)" class="color-fill" />
      </g>
    </g>
    <g transform="translate(8.284 99.534)">
      <g transform="translate(0 0)">
        <path d="M155.842,341.333h-5.917a.592.592,0,0,0-.592.592v1.183a.592.592,0,0,0,.592.592h5.917a.592.592,0,0,0,.592-.592v-1.183A.592.592,0,0,0,155.842,341.333Z" transform="translate(-149.333 -341.333)" class="color-fill" />
      </g>
    </g>
    <g transform="translate(2.367 95.983)">
      <g transform="translate(0 0)">
        <path d="M49.175,277.333H43.258a.592.592,0,0,0-.592.592v1.183a.592.592,0,0,0,.592.592h5.917a.592.592,0,0,0,.592-.592v-1.183A.592.592,0,0,0,49.175,277.333Z" transform="translate(-42.666 -277.333)" class="color-fill" />
      </g>
    </g>
    <g transform="translate(8.284 92.433)">
      <g transform="translate(0 0)">
        <path d="M155.842,213.333h-5.917a.592.592,0,0,0-.592.592v1.183a.592.592,0,0,0,.592.592h5.917a.592.592,0,0,0,.592-.592v-1.183A.592.592,0,0,0,155.842,213.333Z" transform="translate(-149.333 -213.333)" class="color-fill" />
      </g>
    </g>
    <g transform="translate(8.284 85.333)">
      <g transform="translate(0 0)">
        <path d="M155.842,85.333h-5.917a.592.592,0,0,0-.592.592v1.183a.592.592,0,0,0,.592.592h5.917a.592.592,0,0,0,.592-.592V85.925A.592.592,0,0,0,155.842,85.333Z" transform="translate(-149.333 -85.333)" class="color-fill" />
      </g>
    </g>
  </g>
</svg>
