<svg xmlns="http://www.w3.org/2000/svg" width="29.999" height="17.912" viewBox="0 0 29.999 17.912" class="inline-svg">
  <g transform="translate(0 -106.273)">
    <path d="M27.4,113.989a3.179,3.179,0,0,1,.032.427.886.886,0,0,1-.221.6,5.738,5.738,0,0,0-10.37,1.356H10.58a3.331,3.331,0,0,0-.318-.707l6.264.007a5.445,5.445,0,0,1,2.058-2.836H15.842l-2.118-6.172a.514.514,0,0,0-.5-.387H7.739a.514.514,0,0,0-.514.514v6.387a.507.507,0,0,0,.043.2v.61H6.045a3.391,3.391,0,0,0-2.426,1.019,4.647,4.647,0,1,0,5.676,4.53c0-.093-.008-.184-.014-.276h.453A4.272,4.272,0,0,1,9.2,121.9H17.36a7.193,7.193,0,0,1-1.4-2.636h.764a5.739,5.739,0,0,0,10.931.924,3.18,3.18,0,0,0-.257-6.2ZM4.648,122.642a3.1,3.1,0,1,1,3.1-3.105A3.108,3.108,0,0,1,4.648,122.642Zm3.605-9.982V107.3h4.573l1.924,5.358Zm14.076,1.179a4.193,4.193,0,0,1,3.44,1.8,17.969,17.969,0,0,1-3.345.113,2.462,2.462,0,0,0-.347-.026H19.557a2.446,2.446,0,0,0-.813.14A4.2,4.2,0,0,1,22.329,113.839Zm0,8.395a4.206,4.206,0,0,1-4.015-2.973H19.1a2.159,2.159,0,0,0,.217-.012c.08.007.16.012.242.012h2.521c.087,0,.174-.006.259-.015a3.165,3.165,0,0,0,2.358,1.053H25.86A4.2,4.2,0,0,1,22.329,122.234Z" class="color-fill" />
  </g>
</svg>
