<svg xmlns="http://www.w3.org/2000/svg" width="22.308" height="20.576" viewBox="0 0 22.308 20.576" class="inline-svg">
  <g transform="translate(0 -18.463)">
    <path d="M21.962,23.151a1.768,1.768,0,0,0-.791-.576,2.158,2.158,0,0,1-.067.764L17.086,36.561a.963.963,0,0,1-.469.556,1.486,1.486,0,0,1-.75.208H3.5q-1.607,0-1.929-.938a.611.611,0,0,1,.014-.576.59.59,0,0,1,.509-.2H13.737a2.469,2.469,0,0,0,1.721-.462,5.231,5.231,0,0,0,.958-2.056l3.67-12.137a1.911,1.911,0,0,0-.241-1.741,1.765,1.765,0,0,0-1.527-.75H8.124a3.725,3.725,0,0,0-.683.12l.013-.04a2.8,2.8,0,0,0-.636-.074.9.9,0,0,0-.482.154,1.551,1.551,0,0,0-.355.315,2.306,2.306,0,0,0-.261.429q-.127.261-.214.482t-.2.469a3.019,3.019,0,0,1-.221.408q-.08.107-.228.281t-.241.308a.754.754,0,0,0-.12.241.872.872,0,0,0,.027.355,1.1,1.1,0,0,1,.04.341,5.079,5.079,0,0,1-.368,1.293,5.522,5.522,0,0,1-.569,1.132q-.054.067-.295.3a1.072,1.072,0,0,0-.295.408q-.054.067-.007.375a1.934,1.934,0,0,1,.034.429A5.488,5.488,0,0,1,2.726,27.4a8.2,8.2,0,0,1-.563,1.232,2.2,2.2,0,0,1-.228.308,1.127,1.127,0,0,0-.228.375,1.181,1.181,0,0,0,.007.375,1.048,1.048,0,0,1-.007.4,7.271,7.271,0,0,1-.4,1.226,8.944,8.944,0,0,1-.6,1.226,3.224,3.224,0,0,1-.221.315,3.269,3.269,0,0,0-.221.315.834.834,0,0,0-.107.281.666.666,0,0,0,.04.261A.743.743,0,0,1,.234,34q-.014.187-.054.5t-.04.361a2.43,2.43,0,0,0,.027,1.7A3.764,3.764,0,0,0,1.5,38.322a3.278,3.278,0,0,0,1.989.716H15.854a2.674,2.674,0,0,0,1.641-.583,2.764,2.764,0,0,0,1.025-1.44L22.2,24.879A1.894,1.894,0,0,0,21.962,23.151Zm-14.253.027.281-.857a.6.6,0,0,1,.221-.3.561.561,0,0,1,.342-.127H16.7a.292.292,0,0,1,.268.127.349.349,0,0,1,.027.3l-.282.857a.6.6,0,0,1-.221.3.561.561,0,0,1-.341.127H8a.292.292,0,0,1-.268-.127A.349.349,0,0,1,7.709,23.178ZM6.6,26.607l.281-.857a.6.6,0,0,1,.221-.3.56.56,0,0,1,.342-.127h8.144a.292.292,0,0,1,.268.127.349.349,0,0,1,.027.3l-.281.857a.6.6,0,0,1-.221.3.56.56,0,0,1-.342.127H6.892a.292.292,0,0,1-.268-.127A.349.349,0,0,1,6.6,26.607Z"
      transform="translate(0)" class="color-fill" />
  </g>
</svg>
