<svg xmlns="http://www.w3.org/2000/svg" width="20.645" height="20.616" viewBox="0 0 20.645 20.616" class="inline-svg">
  <g transform="translate(0 -0.338)">
    <g transform="translate(0 0.338)">
      <g transform="translate(0 0)">
        <path d="M19.964,230.45h0v-4.225a2.181,2.181,0,0,1-1.374.062v4.163H16.918V227.8a.452.452,0,0,0-.452-.452H14.937a.452.452,0,0,0-.452.452v2.647H12.451v-.424a.452.452,0,0,0-.452-.452H10.27a.452.452,0,0,0-.452.452v.424H7.212v-1.186a.453.453,0,0,0-.452-.452H4.183a.452.452,0,0,0-.452.452v1.186H2.722v-4.194a2.354,2.354,0,0,1-.687.113,2.353,2.353,0,0,1-.687-.113v4.194h0A1.006,1.006,0,0,0,.34,231.456v4.8a1,1,0,0,0,1.005,1.005H19.964a1.006,1.006,0,0,0,1.006-1.005v-4.8A1.007,1.007,0,0,0,19.964,230.45Z"
          transform="translate(-0.326 -216.642)" fill="#D96E83" class="color-fill" />
        <path d="M101.684,110.245a.324.324,0,0,0-.325.324v2.359a1.695,1.695,0,0,0,3.39,0v-2.359a.325.325,0,0,0-.325-.324Z" transform="translate(-97.059 -105.582)" fill="#D96E83" class="color-fill" />
        <path d="M202.669,110.245a.325.325,0,0,0-.325.324v2.359a1.695,1.695,0,0,0,3.39,0v-2.359a.325.325,0,0,0-.325-.324Z" transform="translate(-193.76 -105.582)" fill="#D96E83" class="color-fill" />
        <path d="M303.669,110.245a.325.325,0,0,0-.325.324v2.359a1.7,1.7,0,0,0,3.391,0v-2.359a.325.325,0,0,0-.325-.324Z" transform="translate(-290.475 -105.582)" fill="#D96E83" class="color-fill" />
        <path d="M.324,4.15h20a.325.325,0,0,0,.193-.585L16.264.4A.327.327,0,0,0,16.07.338H4.575A.326.326,0,0,0,4.381.4L.131,3.565a.325.325,0,0,0,.193.585Z" transform="translate(0 -0.338)" fill="#D96E83" class="color-fill" />
        <path d="M2.035,114.622a1.7,1.7,0,0,0,1.7-1.7v-2.359a.325.325,0,0,0-.325-.324H.665a.325.325,0,0,0-.325.324v2.359A1.7,1.7,0,0,0,2.035,114.622Z" transform="translate(-0.326 -105.581)" fill="#D96E83" class="color-fill" />
        <path d="M407.428,110.245h-2.74a.324.324,0,0,0-.325.324v2.359a1.695,1.695,0,0,0,3.39,0v-2.359A.325.325,0,0,0,407.428,110.245Z" transform="translate(-387.208 -105.582)" fill="#D96E83" class="color-fill" />
      </g>
    </g>
  </g>
</svg>
