<svg xmlns="http://www.w3.org/2000/svg" width="26.219" height="22.515" viewBox="0 0 26.219 22.515" class="inline-svg">
  <g transform="translate(0 -34.608)">
    <g transform="translate(0 34.608)">
      <path d="M220.591,131.521,205.364,141.9v6.706l15.227-10.6Z" transform="translate(-194.372 -126.334)" class="color-fill" />
      <path d="M9.788,251.836.025,247.919,0,255.348l9.788,3.668Z" transform="translate(0 -236.502)" class="color-fill" />
      <path d="M16.573,48.835,31.928,38.348l-10.051-3.74L6.464,44.652Zm4.579-5.5-4.017,2.75a2.138,2.138,0,0,1-1.946.257l-.856-.447c-.459-.239-.364-.73.2-1.1l3.891-2.551a2.274,2.274,0,0,1,1.815-.274l.919.348C21.676,42.514,21.682,42.969,21.152,43.331Zm5.192-5.424.971.254c.551.144.632.519.167.838L23.967,41.4a2.369,2.369,0,0,1-1.884.285l-.928-.333c-.5-.179-.491-.585,0-.908l3.43-2.248A2.489,2.489,0,0,1,26.344,37.908Zm-9.011,1.415,3.315-2.067a2.367,2.367,0,0,1,1.616-.281l.847.222c.48.126.513.464.061.756l-3.4,2.2a2.247,2.247,0,0,1-1.721.276l-.8-.288C16.815,39.985,16.859,39.619,17.333,39.323Zm-6.362,3.968L14.7,40.965a2.158,2.158,0,0,1,1.662-.266l.8.3c.451.17.415.576-.1.906L13.212,44.4a2.022,2.022,0,0,1-1.77.254l-.735-.383C10.312,44.062,10.435,43.625,10.971,43.291Z"
        transform="translate(-6.118 -34.608)" class="color-fill" />
    </g>
  </g>
</svg>
