<svg xmlns="http://www.w3.org/2000/svg" width="16.363" height="14.467" viewBox="0 0 16.363 14.467">
  <g id="stairs" transform="translate(0.25 -30.348)">
    <g id="Сгруппировать_2590" data-name="Сгруппировать 2590" transform="translate(0 30.598)">
      <g id="Сгруппировать_2589" data-name="Сгруппировать 2589" transform="translate(0 0)">
        <path id="Контур_2811" data-name="Контур 2811" d="M15.553,30.6H10.844a.31.31,0,0,0-.31.31v1.239a.31.31,0,0,0,.31.31h.62v2.317H5.577a.31.31,0,0,0-.31.31v1.239a.31.31,0,0,0,.31.31H6.2v2.317H.31a.31.31,0,0,0-.31.31V40.5a.31.31,0,0,0,.31.31H.743v3.445a.31.31,0,0,0,.31.31H6.685a.31.31,0,0,0,.192-.067l8.869-7.032a.31.31,0,0,0,.117-.243V30.908A.31.31,0,0,0,15.553,30.6ZM5.887,36.014v-.62h5.577v.62ZM.62,40.19v-.62H6.2v.62Zm14.624-7.136H13.972a.31.31,0,1,0,0,.62h1.271v3.4L6.577,43.945H1.363V42.017H2.635a.31.31,0,1,0,0-.62H1.363V40.81H6.506a.31.31,0,0,0,.31-.31V36.633h4.957a.31.31,0,0,0,.31-.31V32.457h3.16Zm0-1.217h-4.09v-.62h4.09Z" transform="translate(0 -30.598)" fill="#3c4b5a" stroke="#3c4b5a" stroke-width="0.5"/>
      </g>
    </g>
  </g>
</svg>
