<?xml version="1.0" encoding="utf-8"?>
<!-- Generator: Adobe Illustrator 17.0.0, SVG Export Plug-In . SVG Version: 6.00 Build 0)  -->
<!DOCTYPE svg PUBLIC "-//W3C//DTD SVG 1.1//EN" "http://www.w3.org/Graphics/SVG/1.1/DTD/svg11.dtd">
<svg version="1.1" id="Слой_1" xmlns="http://www.w3.org/2000/svg" xmlns:xlink="http://www.w3.org/1999/xlink" x="0px" y="0px"
	 width="38px" height="38px" viewBox="0 0 38 38" enable-background="new 0 0 38 38" xml:space="preserve">
<g id="Слой_2_1_">
	<circle fill="#CECECE" cx="19" cy="19" r="19"/>
	<g>
		<path fill="#FFFFFF" d="M30.535,18.942l-2.83-4.445c-0.09-0.14-0.242-0.224-0.408-0.224H21.22l-1.736-1.736V11.2h3.558
			c0.181,0,0.344-0.098,0.426-0.254c0.085-0.157,0.076-0.348-0.023-0.498l-0.63-0.944l0.63-0.943c0.1-0.151,0.109-0.342,0.023-0.497
			c-0.084-0.158-0.247-0.257-0.427-0.257h-3.558V7.484C19.483,7.217,19.267,7,19,7c-0.268,0-0.485,0.217-0.485,0.484v5.053
			l-1.736,1.736h-6.077c-0.166,0-0.319,0.083-0.408,0.224l-2.829,4.446c-0.094,0.149-0.099,0.337-0.015,0.492
			s0.247,0.251,0.425,0.251h0.728V31h7.926h4.944H29.4V19.686h0.728c0.177,0,0.339-0.096,0.424-0.25
			C30.636,19.28,30.63,19.092,30.535,18.942z M15.811,15.239l-3.477,3.478H8.756l2.212-3.478
			C10.968,15.239,15.811,15.239,15.811,15.239z M16.537,26.056l4.925-0.01l0.01,3.946l-4.935,0.01
			C16.537,30.002,16.537,26.056,16.537,26.056z M21.472,25.047h-4.944c-0.55,0-0.999,0.448-0.999,0.999v3.956
			c0,0.011,0.006,0.02,0.006,0.031H9.57V19.687h2.965l0.054-0.003l0.191-0.064l0.06-0.042c0.013-0.01,0.026-0.021,0.038-0.033
			L19,13.421l6.146,6.145l0.191,0.103l0.048-0.125l0,0l-0.013,0.133l0.046,0.007c0.014,0.001,0.03,0.002,0.046,0.002h2.965v10.346
			h-5.967c0-0.011,0.006-0.02,0.006-0.031v-3.956C22.47,25.495,22.022,25.047,21.472,25.047z M29.245,18.717h-3.579l-3.476-3.478
			h4.842L29.245,18.717z M21.829,9.236c-0.11,0.164-0.11,0.375,0,0.537l0.307,0.46h-2.653V8.776h2.652L21.829,9.236z"/>
		<path fill="#FFFFFF" d="M19,16.327c-1.605,0-2.91,1.305-2.91,2.909s1.305,2.909,2.91,2.909c1.604,0,2.909-1.305,2.909-2.909
			C21.908,17.632,20.604,16.327,19,16.327z M20.941,19.235c0,1.07-0.87,1.94-1.94,1.94s-1.94-0.87-1.94-1.94
			c0-1.069,0.87-1.939,1.94-1.939S20.941,18.166,20.941,19.235z"/>
		<path fill="#FFFFFF" d="M19,17.538c-0.268,0-0.485,0.217-0.485,0.485v0.728h-0.728c-0.267,0-0.484,0.217-0.484,0.484
			s0.217,0.484,0.484,0.484H19c0.267,0,0.483-0.217,0.483-0.484v-1.212C19.483,17.755,19.267,17.538,19,17.538z"/>
	</g>
</g>
</svg>
