<?xml version="1.0" encoding="utf-8"?>
<!-- Generator: Adobe Illustrator 17.0.0, SVG Export Plug-In . SVG Version: 6.00 Build 0)  -->
<!DOCTYPE svg PUBLIC "-//W3C//DTD SVG 1.1//EN" "http://www.w3.org/Graphics/SVG/1.1/DTD/svg11.dtd">
<svg version="1.1" id="Слой_1" xmlns="http://www.w3.org/2000/svg" xmlns:xlink="http://www.w3.org/1999/xlink" x="0px" y="0px"
	 width="38px" height="38px" viewBox="0 0 38 38" enable-background="new 0 0 38 38" xml:space="preserve">
<g>
	<circle fill="#CECECE" cx="19" cy="19" r="19"/>
	<g>
		<path fill="#FFFFFF" d="M27.669,22.158c-0.926,0.4-1.728,0.595-2.454,0.595c-0.902,0-1.593-0.3-2.272-0.595
			c-0.712-0.302-1.447-0.615-2.389-0.615c-0.753,0-1.552,0.201-2.438,0.614c-0.93,0.401-1.733,0.596-2.456,0.596
			c-0.902,0-1.596-0.3-2.272-0.595c-0.712-0.302-1.448-0.615-2.39-0.615c-0.753,0-1.552,0.201-2.44,0.614
			c-0.239,0.107-0.35,0.403-0.242,0.644c0.1,0.226,0.401,0.345,0.644,0.241c0.738-0.343,1.389-0.51,1.993-0.51
			c0.747,0,1.355,0.253,2.002,0.524l0.042,0.019c0.727,0.31,1.551,0.663,2.645,0.663c0.83,0,1.787-0.224,2.849-0.668
			c0.736-0.343,1.387-0.509,1.99-0.509c0.753,0,1.362,0.255,2.008,0.526c0.744,0.318,1.587,0.678,2.671,0.678
			c0.839,0,1.8-0.224,2.861-0.67c0.274-0.124,0.401-0.417,0.291-0.669C28.208,22.193,27.897,22.059,27.669,22.158z"/>
		<path fill="#FFFFFF" d="M8.96,26.674c0.74-0.343,1.392-0.51,1.993-0.51c0.747,0,1.355,0.253,2.002,0.524l0.042,0.019
			c0.727,0.31,1.551,0.663,2.64,0.663c0.832,0,1.791-0.224,2.854-0.669c0.736-0.343,1.387-0.509,1.99-0.509
			c0.753,0,1.362,0.255,2.008,0.527c0.744,0.317,1.587,0.677,2.67,0.677c0.839,0,1.8-0.224,2.86-0.669
			c0.123-0.055,0.223-0.165,0.268-0.297c0.04-0.116,0.029-0.239-0.02-0.326l-0.009-0.02c-0.06-0.332-0.38-0.414-0.588-0.322
			c-0.924,0.4-1.727,0.594-2.454,0.594c-0.904,0-1.598-0.301-2.271-0.593c-0.711-0.303-1.446-0.617-2.39-0.617
			c-0.752,0-1.55,0.202-2.438,0.615c-0.928,0.4-1.732,0.595-2.456,0.595c-0.905,0-1.599-0.301-2.272-0.593
			c-0.679-0.29-1.448-0.617-2.401-0.617c-0.753,0-1.548,0.202-2.439,0.621c-0.237,0.131-0.339,0.424-0.233,0.666
			C8.416,26.659,8.715,26.781,8.96,26.674z"/>
		<path fill="#FFFFFF" d="M27.643,29.42c-0.926,0.4-1.729,0.595-2.455,0.595c-0.906,0-1.599-0.302-2.272-0.595
			c-0.712-0.302-1.447-0.615-2.389-0.615c-0.75,0-1.549,0.201-2.44,0.614c-0.929,0.401-1.732,0.596-2.455,0.596
			c-0.908,0-1.601-0.302-2.272-0.595c-0.712-0.302-1.448-0.615-2.39-0.615c-0.751,0-1.55,0.201-2.433,0.613
			c-0.102,0.039-0.181,0.117-0.226,0.225c-0.052,0.124-0.051,0.271,0.003,0.394c0.1,0.227,0.402,0.345,0.644,0.241
			c0.738-0.343,1.39-0.509,1.993-0.509c0.752,0,1.361,0.255,2.006,0.526l0.029,0.012c0.729,0.313,1.555,0.668,2.649,0.668
			c0.835,0,1.794-0.224,2.855-0.669c0.737-0.342,1.387-0.508,1.99-0.508c0.751,0,1.359,0.254,2.01,0.526
			c0.742,0.318,1.583,0.678,2.668,0.678c0.837,0,1.798-0.224,2.86-0.669c0.116-0.051,0.212-0.15,0.262-0.271
			c0.052-0.123,0.053-0.259,0.003-0.372C28.181,29.455,27.869,29.323,27.643,29.42z"/>
		<path fill="#FFFFFF" d="M29.245,13.378h-2.587c-0.075-0.649-0.35-1.303-0.774-1.841l1.841-1.841c0.188-0.187,0.188-0.506,0-0.697
			c-0.173-0.175-0.527-0.171-0.696,0l-1.841,1.841c-0.575-0.428-1.211-0.696-1.841-0.772V7.481c0-0.27-0.212-0.481-0.482-0.481
			c-0.271,0-0.483,0.212-0.483,0.481v2.588c-0.649,0.075-1.302,0.349-1.841,0.773L18.7,9.001c-0.172-0.174-0.524-0.174-0.697,0
			c-0.187,0.189-0.187,0.507,0,0.697l1.841,1.841c-0.43,0.573-0.697,1.21-0.773,1.841h-2.587c-0.27,0-0.482,0.212-0.482,0.481
			c0,0.271,0.212,0.482,0.482,0.482h2.588c0.075,0.65,0.349,1.303,0.774,1.841l-1.841,1.841c-0.186,0.188-0.187,0.507,0,0.697
			c0.096,0.096,0.194,0.133,0.348,0.133c0.118,0,0.222-0.04,0.362-0.145l1.827-1.83c0.574,0.43,1.209,0.698,1.84,0.774v2.587
			c0,0.27,0.212,0.481,0.483,0.481c0.27,0,0.482-0.212,0.482-0.481v-2.588c0.649-0.075,1.302-0.35,1.841-0.774l1.841,1.842
			c0.096,0.094,0.196,0.132,0.348,0.132c0.12,0,0.224-0.04,0.364-0.147c0.176-0.179,0.17-0.499-0.015-0.683l-1.841-1.841
			c0.429-0.575,0.696-1.212,0.773-1.841h2.587c0.27-0.001,0.48-0.214,0.48-0.483C29.727,13.59,29.515,13.378,29.245,13.378z
			 M25.693,13.861c0,1.574-1.281,2.855-2.855,2.855s-2.855-1.281-2.855-2.855s1.281-2.855,2.855-2.855
			C24.412,11.006,25.693,12.287,25.693,13.861z"/>
	</g>
</g>
<g id="Слой_2_1_">
</g>
</svg>
