<?xml version="1.0" encoding="utf-8"?>
<!-- Generator: Adobe Illustrator 17.0.0, SVG Export Plug-In . SVG Version: 6.00 Build 0)  -->
<!DOCTYPE svg PUBLIC "-//W3C//DTD SVG 1.1//EN" "http://www.w3.org/Graphics/SVG/1.1/DTD/svg11.dtd">
<svg version="1.1" id="Слой_1" xmlns="http://www.w3.org/2000/svg" xmlns:xlink="http://www.w3.org/1999/xlink" x="0px" y="0px"
	 width="38px" height="38px" viewBox="0 0 38 38" enable-background="new 0 0 38 38" xml:space="preserve">
<g>
	<circle fill="#CECECE" cx="19" cy="19" r="19"/>
	<g>
		<path fill="#FFFFFF" d="M28.927,8.929C25.351,7.212,19.256,7.008,18.992,7c-0.059,0-6.264,0.174-9.918,1.929
			C8.907,9.011,8.798,9.183,8.796,9.368v9.795c0,0.3,0.114,7.405,10.036,11.797c0.061,0.026,0.129,0.04,0.196,0.04
			c0.069,0,0.136-0.014,0.198-0.042c9.793-4.355,9.975-11.497,9.978-11.8v-9.79C29.204,9.182,29.095,9.009,28.927,8.929z
			 M19.016,8.082l0.139-0.001V7.978c1.143,0.027,6.068,0.371,9.076,1.703v9.473c0,0.067-0.136,6.697-9.235,10.826
			C9.98,25.898,9.765,19.432,9.76,19.161v-9.48c3.059-1.355,7.953-1.647,9.018-1.696l-0.096,0.096h0.334V8.082z"/>
		<path fill="#FFFFFF" d="M15.745,15.704h-0.113c-0.52,0-0.944,0.423-0.944,0.943v4.629c0,0.513,0.418,0.935,0.933,0.943h6.753
			c0.52,0,0.944-0.423,0.944-0.943v-4.629c-0.002-0.52-0.426-0.943-0.945-0.943h-0.2c-0.251-1.564-1.627-2.74-3.21-2.74
			c-0.165,0-0.33,0.012-0.491,0.036C17.061,13.214,15.969,14.299,15.745,15.704z M15.65,21.244v-4.565h6.69v4.565H15.65z
			 M16.714,15.703c0.231-1.044,1.164-1.796,2.235-1.796c1.072,0.001,2.006,0.755,2.236,1.796H16.714z"/>
		<path fill="#FFFFFF" d="M18.993,17.697c-0.269,0-0.488,0.219-0.488,0.488v1.557c0,0.269,0.219,0.487,0.488,0.487
			s0.488-0.218,0.488-0.487v-1.557C19.482,17.916,19.263,17.697,18.993,17.697z"/>
	</g>
</g>
<g id="Слой_2_1_">
</g>
</svg>
