<?xml version="1.0" encoding="utf-8"?>
<!-- Generator: Adobe Illustrator 17.0.0, SVG Export Plug-In . SVG Version: 6.00 Build 0)  -->
<!DOCTYPE svg PUBLIC "-//W3C//DTD SVG 1.1//EN" "http://www.w3.org/Graphics/SVG/1.1/DTD/svg11.dtd">
<svg version="1.1" id="Слой_1" xmlns="http://www.w3.org/2000/svg" xmlns:xlink="http://www.w3.org/1999/xlink" x="0px" y="0px"
	 width="38px" height="38px" viewBox="0 0 38 38" enable-background="new 0 0 38 38" xml:space="preserve">
<g>
	<circle fill="#CECECE" cx="19" cy="19" r="19"/>
	<path fill="#FFFFFF" d="M28.194,24.652l-2.641-1.23v-1.634c0-0.193-0.106-0.365-0.277-0.448l-2.571-1.285v-4.199
		c0-0.117-0.04-0.229-0.11-0.314l-3.093-3.837V9.238h0.768c0.277,0,0.503-0.226,0.503-0.502s-0.226-0.501-0.503-0.501h-0.768V7.372
		c0-0.276-0.226-0.502-0.502-0.502s-0.501,0.226-0.501,0.502v0.861h-0.768c-0.276,0-0.502,0.226-0.502,0.502
		s0.226,0.502,0.502,0.502h0.768v2.465l-3.092,3.838c-0.072,0.087-0.111,0.199-0.111,0.314v4.2l-2.57,1.285
		c-0.172,0.084-0.278,0.256-0.278,0.448v1.634l-2.644,1.231c-0.175,0.084-0.288,0.263-0.288,0.454v6.022h18.97v-6.022
		C28.485,24.914,28.371,24.735,28.194,24.652z M10.519,30.126v-4.697l1.928-0.898v5.596L10.519,30.126L10.519,30.126z
		 M21.978,20.812l2.571,1.285v8.028h-3.623v-3.77c0-0.816-0.847-1.455-1.927-1.455s-1.926,0.639-1.926,1.455v3.77H13.45v-8.028
		l2.569-1.285c0.171-0.084,0.277-0.256,0.277-0.448v-4.33L19,12.68l2.701,3.353v4.331C21.701,20.557,21.807,20.729,21.978,20.812z
		 M19.922,26.356v3.77h-1.845v-3.77c0-0.184,0.359-0.451,0.922-0.451C19.563,25.905,19.922,26.173,19.922,26.356z M25.553,30.126
		V24.53l1.928,0.898v4.697L25.553,30.126L25.553,30.126z"/>
</g>
<g id="Слой_2_1_">
</g>
</svg>
