<svg xmlns="http://www.w3.org/2000/svg" width="16" height="16"><g fill="#1e3262"><path d="M13.175 7.975c.366-.544-.091-.907-.274-1.179.091-.272.274-.816-.548-1.36.091-.544-.548-1.088-1.1-1.36 0-.363-1.188-1.451-3.29-1.451a6.013 6.013 0 00-3.2.816 8.841 8.841 0 013.016-.544c2.01 0 2.65.816 2.65.816a10.957 10.957 0 00-3.2-.272 10.666 10.666 0 00-3.564 1s-.183.181-.183.272a13.741 13.741 0 013.564-1 6.978 6.978 0 013.564.453 3.546 3.546 0 01-.366.453 12.73 12.73 0 00-4.2-.091 9.078 9.078 0 00-3.2 1.36s-.183.181-.091.272A8.744 8.744 0 016.408 4.8c2.01-.272 3.016-.091 3.29.091a29.541 29.541 0 01-3.747.725 7.105 7.105 0 00-3.107 1.36 1.252 1.252 0 00-.183 1.632c0 .181-.366.725.457 1.179 0 .272-.457.907.914 1.451.091.725 1.371 1.632 3.381 1.9a3.841 3.841 0 003.016-.635 6.626 6.626 0 01-2.833.272 4.613 4.613 0 01-2.833-1.27 8.074 8.074 0 003.2.816 6.734 6.734 0 003.655-.725l.091-.181a10.615 10.615 0 01-3.747.453 7.491 7.491 0 01-3.381-1v-.181s-.091-.181.091-.091a8.587 8.587 0 003.929.816 8.629 8.629 0 003.655-.816s.183-.181.091-.181a12.24 12.24 0 01-4.021.725 9.981 9.981 0 01-3.2-.725l.64-.272a8.775 8.775 0 003.381.363 6.684 6.684 0 003.655-1.179s.091 0 0-.091a10.94 10.94 0 01-3.747 1 7.907 7.907 0 01-2.376-.272s1.188-.181 3.107-.544a5.334 5.334 0 003.389-1.445m-.914-2.086c.366.091.183.544.183.544l-.457-.272.274-.272m-1.279-1.088c.091 0 .274-.363.274-.363.274.181.457.363.457.544a4.172 4.172 0 01-.731-.181m-.366.363s.822.272 1.005.363a1.279 1.279 0 01-.366.363 10.162 10.162 0 00-1.188-.363 2.261 2.261 0 00.548-.363m-7.4 2.993h-.183a.319.319 0 01.091-.453 4.851 4.851 0 012.741-1.27 10.616 10.616 0 014.569-.363c.091.091 0 .091 0 .091s-2.741.544-3.564.725c-.914.181-3.107.635-3.655 1.27m.274 1.36c-.183-.091-.274-.453-.274-.453a3.642 3.642 0 00.366.272l-.091.181m1.736-1.632c.822-.272 3.838-.725 4.478-.907s1.736-.544 1.736-.544l.64.272a11.583 11.583 0 01-1.371.544 47.554 47.554 0 01-4.934 1 12.833 12.833 0 00-1.736.635l-.457-.363a8.209 8.209 0 011.645-.635m-1.188 2.9l-.274-.363v-.091c0 .091.457.181.457.181l-.183.272m.548-.544s-.457-.181-.548-.363l.183-.181a3.258 3.258 0 00.822.363c-.091-.091-.457.181-.457.181m1.188-.544l-.822-.363a10.06 10.06 0 011.736-.453 34.252 34.252 0 004.2-.816 4.625 4.625 0 001.645-.816v.544c-.914 1-4.386 1.451-5.117 1.632a58.01 58.01 0 00-1.645.272"/><path d="M8 0a8.024 8.024 0 00-8 8 8.024 8.024 0 008 8 8.024 8.024 0 008-8 8.024 8.024 0 00-8-8m0 15.6A7.7 7.7 0 01.3 7.9 7.7 7.7 0 018 .2a7.7 7.7 0 017.7 7.7A7.768 7.768 0 018 15.6"/></g></svg>