<svg xmlns="http://www.w3.org/2000/svg" width="111.979" height="54.221"><path d="M61.718 39.755h5.227c.581-.422.845-1.584.845-3.59l-.053-.9c0-1.214-.053-1.848-.053-1.9 0-.475.581-.739 1.637-.739v7.127h5.227V24.919h-6.442a10.722 10.722 0 00-3.854.634c-1.056.422-1.637 1.056-1.637 1.953v1.8c0 1.162 1.109 1.953 3.273 2.323-2.165.317-3.273 1.161-3.273 2.481l.106 1.637c0 2.371-.321 3.691-1.003 4.008zm5.966-9.714c0 .528.581.792 1.637.792V26.82c-1.056 0-1.637.264-1.637.792zM66.047 3.326h29.618a5.7 5.7 0 015.755 5.6v29.509a5.658 5.658 0 01-5.755 5.544H66.047a5.877 5.877 0 01-3.96-1.531.053.053 0 00.053.053h.211a74.277 74.277 0 008.764-.634c.264 0 .528.053.739.053h.053c5.649.528 11.721 1.056 14.36 0 3.009-1.267 2.957-4.646 2.9-6.6v-.106a5.94 5.94 0 00-.528-2.059l-.053-.053a3.645 3.645 0 00-2.8-.581c-.106-.634-.211-1.32-1.109-1.425-.634-.053-1.056-.053-1.32-.106.211-.106.422-.211.475-.37 0-.158-.053-.264-.264-.264A3.413 3.413 0 0182.15 29.3l-.317-.317-.211-.317h-.053a2.7 2.7 0 01-.581-2.006v-.16a4.093 4.093 0 00-.106-1 .572.572 0 010-.581c.158-.211.528 0 1 .158a1.953 1.953 0 00.581.264c.211.053.37 0 .422-.158.053-.317-.37-.845-.475-1.161 0 0-.211.053-.106 0h.053v-.106a.319.319 0 00-.157-.316 1.154 1.154 0 00.264-.158c.158-.106.264-.211.37-.264l.053-.053v-.106c0-.845-.739-1-1.267-1.056a1.384 1.384 0 00.48-.263h.053v-.053c0-.053.053-.211.106-.422l.053-.106v-.106c.053-.158-.053-.211-.211-.264a.317.317 0 01-.211-.053v-.211c.317-.106.634-.264.686-.422.053-.106 0-.211-.158-.264a2.678 2.678 0 01-.475-.106l-.422-.106c-.053 0-.053-.053-.106-.106a2.886 2.886 0 01-.317-1.8v-.264a1.243 1.243 0 00.422-.106c.528-.158.95-.264 1.161-.581a10.9 10.9 0 00.9-1.637.847.847 0 00-.211-.95l.158-.264c.106-.264.475-.37.845-.422a2.6 2.6 0 00.9-.317 1.312 1.312 0 00.581-1.214l.106.053.106.053.053-.053a.844.844 0 00.264-.528.86.86 0 01.158-.317c.106-.106.053-.264-.053-.422v-.106c.211 0 .317-.053.475-.053.158-.053.422-.106.9-.211a2.188 2.188 0 001.425-.053c.634.264 1.214.475 1.373.264V10.5a1.693 1.693 0 00.211-.95c0-.158.053-.317.053-.422a1.224 1.224 0 01.95.211l.158.106.158.158a1.59 1.59 0 00.845.422 1.018 1.018 0 01.528.158.194.194 0 00.053.158.538.538 0 00.264.422 2.454 2.454 0 00.475.158h.37l.264-.053a.551.551 0 01.053.581c0 .106-.053.158 0 .264a.786.786 0 00.211.475 1.145 1.145 0 00.317.37.194.194 0 00.158.053c2.165.158 2.429.581 2.534.9l.053.053c.106.158-.053.264-.211.528a3.841 3.841 0 00-.845 1.637 4.19 4.19 0 00.158 2.217 1.678 1.678 0 00.158.475 1.584 1.584 0 00.211.528l.053.106h.053a2.972 2.972 0 011.478.37.616.616 0 01.317.317.815.815 0 01-.158 1h.053c-.317.475-.158.792 0 1.267-.37.211-.686.422-.739.792a.211.211 0 00.106.211.9.9 0 00.317.317l.106.053a.729.729 0 00-.211.158v.06c-.053.053-.053.158 0 .158l-.053.053c-.158.106-.317.264-.528.211a1.462 1.462 0 00-.475-.053 1.154 1.154 0 00-.264.158 4.266 4.266 0 00-.581 1.478 1.312 1.312 0 00-.053.422.446.446 0 000 .37v.211l.158-.053a.164.164 0 01.106.053c.37 0 .739.422 1.056.95a8.953 8.953 0 01-.211 1.161 11.142 11.142 0 00-.158 1.109 3.739 3.739 0 00.053.739 2.871 2.871 0 010 .95 2.3 2.3 0 01-.37.317 2.235 2.235 0 01-.37.264c-.475.317-.739-.053-1-.37-.264-.264-.475-.581-.792-.581-.211-.053-.475.211-.634.37l-.106.053a.194.194 0 00-.158.053c-.106 0-.211.106-.317.211l-.106.106c-.158-.053-.317-.37-.528-.686-.264-.475-.528-.95-.9-.845a1.936 1.936 0 00-1 .95 1.154 1.154 0 00-.158.264c-.053.053-.053.158-.106.264l-.211.634a6.257 6.257 0 00-.528 3.009l.053 1c.053 1.848.158 4.276.475 4.7v.053a3.816 3.816 0 002.165.9 1.161 1.161 0 00.422.053h.317l.053-.053a3.7 3.7 0 001.584-.792 18.914 18.914 0 012.006-1.32h.053v-.053a2.423 2.423 0 011.584-.37h.053a1.757 1.757 0 00.317.158.4.4 0 01.106.264.194.194 0 00-.053.158 1.261 1.261 0 01-.158.37 1.075 1.075 0 00-.317.37v.053a.211.211 0 00-.106.211c-.053.158 0 .211.158.106.053 0 .106-.053.158-.106h.053v-.052c.053-.106.158-.158.317-.264a.939.939 0 00.475-1.214v-.053a1.678 1.678 0 00-1.373-.739h-.845a14.686 14.686 0 00-2.059.739 9.789 9.789 0 01-2.006.739h-.053a1.884 1.884 0 01-1-.106.749.749 0 01-.422-.475c-.106-.37-.317-1.9-.475-3.168 0-.211-.053-.475-.053-.739 0-.211-.053-.422-.053-.581v-.106A1.637 1.637 0 0192.709 34a1.439 1.439 0 00.317-.634 1.712 1.712 0 00-.053-.95.564.564 0 010-.422v-.053c.053.053.106.106.106.158a1.523 1.523 0 001.162.581c.264.37.792.211 1.109.158a.194.194 0 01.158-.053h.053a5.057 5.057 0 01.9 0 1.571 1.571 0 001.584-.422 1.477 1.477 0 00.475-.686 3.1 3.1 0 001-1.8v-.317a4.837 4.837 0 00-.634-2.059v-.053c0-.264.053-.581.053-.792 0-.634-.158-1.056-.581-1.161l-.053-.739a1.462 1.462 0 01.475.053h.053c.053.053.053.053.106.053a1.312 1.312 0 00.422.053 1.875 1.875 0 00.475-.211l.106-.053V24.6a.408.408 0 01.053-.158 1.054 1.054 0 01.158-.422c.106-.158-.053-.37-.211-.528l.158-.106.106-.053v-.103a4.382 4.382 0 00-.264-1.056l.053-.053a1.9 1.9 0 00.9-.581c0-.053 0-.053.053-.106.106-.264.053-.37-.053-.422a.1.1 0 00-.158 0 .979.979 0 01.106-.37c.158-.528.317-1.161 0-1.373-.053-.053-.106-.106-.158-.106a3.431 3.431 0 00-2.112-.9 17.018 17.018 0 01.37-3.484 4.558 4.558 0 00.157-1.369v-.053c0-.422-.053-1.267-2.745-1.584-.106-1-.686-1.214-1.214-1.214a.184.184 0 01-.106-.053 3.5 3.5 0 00-1.056-.317.729.729 0 00-.158-.211l-.267-.478a3.635 3.635 0 00-.581-.686 2.6 2.6 0 00-.9-.317 2.988 2.988 0 00-1.161.106.434.434 0 00-.264.264l-.053.053a1.4 1.4 0 01-.264.317 1.4 1.4 0 00-.317.264 8.97 8.97 0 01-.739.475 5.9 5.9 0 00-.95-.528 3.127 3.127 0 01-.317-.211.194.194 0 00-.158-.053 2.726 2.726 0 00-1.161.37l-.106.158c-.053 0-.053.053-.106.106 0 .053-.158.106-.264.106-.317.106-.686.211-.686.686v.053h.053c0 .106.053.211 0 .264 0 .053 0 .106-.053.106l-.053.053v.106l.053.264-.627-.316c-.158-.053-.211 0-.317.106a.574.574 0 01-.053.264 1.359 1.359 0 01-.37.792h-.06a2.664 2.664 0 01-.9.528c-.317.158-.581.264-.634.475-.158.581-.053.634.317.9-.211.211-.528.422-.792.686a10.959 10.959 0 00-1.109 1.056c-.264.317-.211.422-.211.792v.475a1.421 1.421 0 00-1 2.006v.053c.106.264.845.475 1.531.634l.158.158h.053a1.074 1.074 0 01.053.264c-.106 0-.158.053-.264.106-.211.106-.37.264-.264.422a.645.645 0 00.475.158v.053a.729.729 0 01-.158.211l-.053.053h-.053l-.264.106-.211.158h-.053v.053a.763.763 0 00-.106.37c-.053.106-.053.317-.106.475 0 .37.475.422.95.475l.475.053a.485.485 0 01-.317.211c-.053.053-.106.053-.106.106a.194.194 0 00-.158.053c-.422.158-.475.317-.422.528h-.317a.93.93 0 00-.686.475 2.238 2.238 0 00-.317.95 6.2 6.2 0 00.053 1.373 6.7 6.7 0 00.686 2.587l.158.317a.927.927 0 01.211.264h.053a4.559 4.559 0 00.739.686 6.878 6.878 0 00.792.528c.106.053.158.053.211.106v.053c0 .106.053.211.317.211a.909.909 0 01.634.528 1.622 1.622 0 00.95.792 7.086 7.086 0 001.109.053 1.546 1.546 0 00.37.845 2.3 2.3 0 001.584.158l.422-.106a1.413 1.413 0 01.106.581c0 .37.053.845.053 1.425a5.157 5.157 0 01-.317 2.27 2.837 2.837 0 01-1.214 1.531c-1.689 1.161-8.131 1.373-10.612 1.478-.422 0-.686.053-.845.053h-.053a11.76 11.76 0 00-1.373.158q-1.029.158-2.534.317c-.845 0-1.8.053-2.9.106-1.267.106-6.969-.211-6.969-.158a5.257 5.257 0 01-.95-3.062V8.922a5.7 5.7 0 015.755-5.596zm26.926 28.615zm-47.516-8.289h5.227c.581-.422.845-1.584.845-3.59v-.9c-.053-1.267-.053-1.9-.053-1.9 0-.528.528-.792 1.637-.792v7.18h5.227V8.711h-6.495a10.722 10.722 0 00-3.854.634 2.2 2.2 0 00-1.637 2.006v1.8c0 1.161 1.109 1.953 3.273 2.376-2.165.317-3.273 1.109-3.273 2.429l.106 1.637c0 2.423-.37 3.743-1.003 4.059zm6.019-9.767V11.4c0-.475.528-.739 1.637-.739v4.012c-1.113.004-1.637-.26-1.637-.788zm-20.96 7.233v-9.609c0-1.953 2.006-2.9 6.019-2.9 3.96 0 5.966.95 5.966 2.851v9.609c0 .9-.581 1.531-1.689 2.006a11.009 11.009 0 01-4.329.739c-4.014-.003-5.967-.901-5.967-2.696zm6.811.158V11.087c0-.317-.264-.475-.845-.475s-.845.158-.845.475v10.19c0 .264.264.422.845.422s.844-.158.844-.422zm-22.175 2.376V8.711h6.177a10.722 10.722 0 013.854.634 2.13 2.13 0 011.637 2.006v2.112c0 1-1 1.742-3.062 2.217 2.165.317 3.221 1 3.221 2.112v2.9a2.359 2.359 0 01-1.531 2.217 8.87 8.87 0 01-3.7.739zm6.705-9.662V11.4c0-.475-.475-.739-1.425-.739v4.118q1.425.004 1.425-.788zm0 6.969v-3.8q0-.792-1.425-.792v5.385q1.425 0 1.425-.792zm-10.242-7.021h-4.8v-2.957c0-.264-.211-.37-.686-.37-.528 0-.739.106-.739.37v10.348c0 .264.211.37.739.37.475 0 .686-.106.686-.37v-3.7h4.8v3.8c0 .739-.581 1.267-1.689 1.689a9.311 9.311 0 01-3.748.686c-4.065 0-6.071-.9-6.071-2.693v-9.602c0-1.953 2.006-2.9 6.071-2.9 3.643 0 5.438.845 5.438 2.64zm46.724 25.817h-5.016V26.873h-1.8v11.14c0 1.267-1.32 1.9-3.907 1.9a27.2 27.2 0 01-3.115-.158v-2.112a4.5 4.5 0 001.214.158 1.168 1.168 0 00.739-.158c.158-.106.211-.37.211-.845V24.972h11.674zm-15.416 0h-4.594v-8.289l-2.745 8.289h-3.537l-3.115-8.289v8.289h-4.065V24.972h6.705l2.376 7.655 2.059-7.655h6.916zm-19.534 0H13.252V24.972h10.084v1.9h-4.91v3.96h4.434v1.8h-4.434v5.227h4.963zM0 33.578h4.8v3.484c0 .37.317.581.9.581.634 0 .95-.211.95-.581v-3.431a.819.819 0 00-.475-.792 5.842 5.842 0 00-1.742-.211v-1.637c1.478 0 2.217-.317 2.217-.9v-2.585q0-.475-.95-.475t-.95.475V30.2H.158v-2.746c0-1.742 1.953-2.587 5.807-2.587a13.479 13.479 0 014.065.581c1.161.422 1.689 1.109 1.689 2.006v2.059q0 1.821-2.693 2.376c1.848.317 2.8 1.214 2.8 2.745V36.8c0 2.059-1.953 3.115-5.86 3.115-3.96 0-5.966-.95-5.966-2.8zM106.013.686h-.95V0h2.693v.686h-.95v2.851h-.792zm5.121 1.478V.739c-.158.422-.264.95-.422 1.32l-.422 1.373h-.634l-.37-1.32a12.869 12.869 0 01-.316-1.373c-.053.475-.053 1-.106 1.425l-.053 1.373h-.739L108.336 0h1.056l.317 1.161.317 1.267a11.466 11.466 0 01.37-1.267L110.765 0h1.056l.158 3.537h-.792zM.106 51.37a.114.114 0 00-.106.106l.264 2.112c0 .053 0 .106.053.106h.739a.114.114 0 00.106-.106v-1.215h3.484v1.214a.114.114 0 00.106.106h.739a.114.114 0 00.106-.106l.211-2.112a.114.114 0 00-.108-.105h-.9v-3.59a.114.114 0 00-.106-.106h-3.11a.184.184 0 00-.053.106A9.359 9.359 0 011 51.37zm2.429-2.745h1.213v2.745h-1.8a7.116 7.116 0 00.581-2.745zm6.23 3.854c1.637 0 2.217-.581 2.217-2.481s-.581-2.429-2.217-2.429C7.18 47.569 6.6 48.1 6.6 50s.58 2.479 2.164 2.479zm0-4.012c.95 0 1.056.158 1.056 1.531 0 1.425-.106 1.531-1.056 1.531-.9 0-1-.106-1-1.531-.004-1.373.102-1.532.999-1.532zM13.41 50c0-1.32.158-1.478 1-1.478a3.4 3.4 0 011.056.158c.053 0 .106 0 .106-.053l.158-.792a.194.194 0 00-.053-.158 12.045 12.045 0 00-1.425-.106c-1.531 0-2.006.528-2.006 2.429s.475 2.481 2.006 2.481a6.208 6.208 0 001.425-.158c.053 0 .053-.053.053-.106l-.158-.792c0-.053-.053-.106-.106-.053a3.4 3.4 0 01-1.056.158c-.842-.002-1-.16-1-1.53zm6.652-1.373a.184.184 0 00.106-.053v-.794a.114.114 0 00-.106-.106h-3.8a.114.114 0 00-.106.106v.792a.184.184 0 00.106.053h1.373v3.643a.184.184 0 00.053.106h.9a.114.114 0 00.106-.106v-3.643zm4.857-.739c0-.053 0-.053-.053-.053l-.95-.264a.184.184 0 00-.106.053l-.95 3.221-.158.792-.158-.792-1-3.221a.184.184 0 00-.106-.053l-.9.264c-.053 0-.106.053-.053.053l1.425 4.329c0 .106.106.158.211.158h.264c-.264.739-.475.9-1.056.9-.053 0-.053.053-.053.106l.106.792c0 .053.053.053.106.053a1.68 1.68 0 001.8-1.373zm4.8-.106a.114.114 0 00-.106-.106h-3.7a.114.114 0 00-.106.106v4.488a.114.114 0 00.106.106h.9a.114.114 0 00.106-.106v-3.645h1.742v3.643c0 .053 0 .106.053.106h.9a.114.114 0 00.106-.106zm5.385 0a.114.114 0 00-.104-.108h-.9a.114.114 0 00-.1.106v1.637h-1.742V47.78c0-.053 0-.106-.053-.106h-.9a.114.114 0 00-.106.106v4.488a.114.114 0 00.106.106h.9c.053 0 .053-.053.053-.106v-1.9H34v1.9a.114.114 0 00.106.106H35a.114.114 0 00.106-.106zm3.537 4.7c1.637 0 2.165-.581 2.165-2.481s-.581-2.429-2.165-2.429-2.159.528-2.159 2.428.58 2.479 2.164 2.479zm0-4.012c.9 0 1.056.158 1.056 1.531 0 1.425-.158 1.531-1.056 1.531s-1-.106-1-1.531c.002-1.376.108-1.535 1.005-1.535zm5.068 2.9a.114.114 0 00-.106.106l.264 2.112c0 .053 0 .106.053.106h.739a.114.114 0 00.106-.106v-1.215h3.537v1.214c0 .053 0 .106.053.106h.745a.114.114 0 00.106-.106l.211-2.112a.114.114 0 00-.106-.106h-.9V47.78a.184.184 0 00-.053-.106h-3.165a.184.184 0 00-.053.106 9.358 9.358 0 01-.528 3.59zm2.429-2.745h1.214v2.745h-1.8a7.116 7.116 0 00.581-2.745zM50 52.162v.053l.053.053.95.211a.114.114 0 00.106-.106 11.481 11.481 0 00.739-3.748h1.32v3.643c0 .053 0 .106.053.106h.9a.114.114 0 00.106-.106V47.78a.113.113 0 00-.106-.106h-3.226c-.053 0-.053.053-.053.106A9.05 9.05 0 0150 52.162zm8.5-2.376h-1.164c-.37 0-.475-.106-.475-.634 0-.422.106-.528.422-.528H58.5zm-1.8.634c-.739.158-.581 1.109-1.267 1.161a.053.053 0 00-.053.053l.106.792a.184.184 0 00.106.053c1.8 0 1.267-1.848 2.323-1.848h.585v1.637a.184.184 0 00.053.106h.95a.184.184 0 00.053-.106V47.78a.113.113 0 00-.106-.106h-2.22a1.311 1.311 0 00-1.478 1.478 1.186 1.186 0 00.948 1.268zM67 48.466a.114.114 0 00.106-.106l-.158-.739a.184.184 0 00-.106-.053c-1.8 0-1.32 1.689-2.693 2.27V47.78c0-.053 0-.106-.053-.106h-.9c-.053 0-.053.053-.053.106v4.488c0 .053 0 .106.053.106h.9c.053 0 .053-.053.053-.106V50.1c1.373.581.95 2.376 2.745 2.376a.184.184 0 00.106-.05l.158-.792a.184.184 0 00-.106-.053c-.845-.053-.739-1.214-1.689-1.689.895-.37.737-1.426 1.637-1.426zm3.221 1.689a1.976 1.976 0 01.95.264v.9a1.933 1.933 0 01-.95.211c-.739 0-.9-.106-.9-.686-.001-.53.105-.688.897-.688zm-.053-2.587a6.979 6.979 0 00-1.584.158c-.053 0-.053.053-.053.106l.106.739a.164.164 0 00.106.053 5.319 5.319 0 011.32-.158c.95 0 1.109.158 1.109 1.056v.422a1.761 1.761 0 00-1.32-.634c-1.214 0-1.689.422-1.689 1.584s.475 1.584 1.689 1.584a1.962 1.962 0 001.32-.634l.317.634c0 .053.053.053.106.053l.845-.37c.053 0 .053-.053.053-.106l-.264-.528v-2.058c-.005-1.531-.744-1.9-2.064-1.9zm6.019 2.323c-1.425-.634-.634-2.323-2.481-2.323a.053.053 0 00-.053.053l-.211.792a.184.184 0 00.106.053c.9.053.528 1 1.478 1.425-.95.475-.686 1.637-1.531 1.637a.114.114 0 00-.106.106l.211.739c.053.106.053.106.106.106 1.848 0 1.056-1.8 2.481-2.376v2.165a.114.114 0 00.106.106h.845a.114.114 0 00.106-.106V50.1c1.425.581.686 2.376 2.534 2.376 0 0 .053 0 .053-.106l.211-.739a.114.114 0 00-.106-.106c-.845 0-.581-1.162-1.531-1.637.95-.422.581-1.373 1.531-1.425l.053-.053-.211-.792a.053.053 0 00-.053-.053c-1.848 0-1.056 1.689-2.481 2.323V47.78a.113.113 0 00-.106-.106h-.845a.114.114 0 00-.106.106zm4.435 1.478a.184.184 0 00-.053.106l.211 2.112a.114.114 0 00.106.106h.739c.053 0 .053-.053.053-.106v-1.214h3.537v1.214a.114.114 0 00.106.106h.739a.184.184 0 00.053-.106l.211-2.112c0-.053 0-.106-.053-.106h-.9V47.78a.113.113 0 00-.106-.106H82.15a.114.114 0 00-.106.106 9.358 9.358 0 01-.528 3.59zm2.429-2.745h1.267v2.746h-1.852a6.267 6.267 0 00.581-2.745zm6.283 3.854c1.584 0 2.165-.581 2.165-2.481s-.581-2.429-2.165-2.429-2.169.532-2.169 2.432.581 2.479 2.165 2.479zm0-4.012c.9 0 1.056.158 1.056 1.531 0 1.425-.158 1.531-1.056 1.531s-1.06-.105-1.06-1.528c0-1.375.158-1.534 1.056-1.534zm6.6.211a.114.114 0 00.106-.106v-.791a.113.113 0 00-.106-.106h-2.961c-.053 0-.053.053-.053.106v4.488c0 .053 0 .106.053.106h.9a.114.114 0 00.106-.106v-3.59zm2.957 3.8c1.584 0 2.165-.581 2.165-2.481s-.581-2.429-2.165-2.429-2.17.533-2.17 2.433.528 2.479 2.165 2.479zm0-4.012c.9 0 1 .158 1 1.531 0 1.425-.106 1.531-1 1.531S97.83 51.423 97.83 50c0-1.375.158-1.534 1.056-1.534z" fill="#0e9543"/></svg>