<svg xmlns="http://www.w3.org/2000/svg" width="16.155" height="16.155"><path d="M.077.077h16v16h-16z" stroke="#000" stroke-miterlimit="3.864" stroke-width=".155"/><path d="M.577.577h14.9v14.9H.577z" fill="#fbf315"/><path d="M8.077 9.82l4.652 4.557 1.861-1.823-4.652-4.556.93-.911V5.34l.62-.608v1.445l.62.608 2.326-2.278.543.605a4.1 4.1 0 00-1.24-2.735 2.053 2.053 0 00-2.869-.076L8.697 4.428l.543.532-1.241 1.217-1.162-1.141.54-.532-2.171-2.2a2.053 2.053 0 00-2.866.073 3.9 3.9 0 00-1.163 2.735l.62-.608 2.248 2.2.62-.608v-1.44l.62.608V7.01l.93.987-4.65 4.557 1.86 1.823L8.077 9.82z"/></svg>