<?xml version="1.0" encoding="utf-8"?>
<!-- Generator: Adobe Illustrator 17.0.0, SVG Export Plug-In . SVG Version: 6.00 Build 0)  -->
<!DOCTYPE svg PUBLIC "-//W3C//DTD SVG 1.1//EN" "http://www.w3.org/Graphics/SVG/1.1/DTD/svg11.dtd">
<svg version="1.1" id="Слой_1" xmlns="http://www.w3.org/2000/svg" xmlns:xlink="http://www.w3.org/1999/xlink" x="0px" y="0px"
	 width="38px" height="38px" viewBox="0 0 38 38" enable-background="new 0 0 38 38" xml:space="preserve">
<g id="Слой_2_1_">
</g>
<g>
	<circle fill="#01D386" cx="19" cy="19" r="19"/>
	<g>
		<path fill="#FFFFFF" d="M26.197,7H11.803c-1.345,0-2.439,1.095-2.439,2.44v16.242c0,0.69,0.348,1.334,0.978,1.816v0.009
			c-0.012,0.038-0.018,0.068-0.018,0.095v1.679c0,0.964,0.755,1.719,1.719,1.719h0.48c0.965,0,1.72-0.755,1.72-1.719v-1.159h9.517
			v1.159c0,0.964,0.755,1.719,1.719,1.719h0.48c0.964,0,1.719-0.755,1.719-1.719v-1.66c0.601-0.459,0.96-1.183,0.96-1.939V9.44
			C28.637,8.095,27.543,7,26.197,7z M27.597,21.403v4.278c0,0.772-0.628,1.4-1.4,1.4H12.042c-0.738,0-1.639-0.646-1.639-1.4v-4.278
			H27.597z M11.363,28.016c0.251,0.071,0.473,0.106,0.68,0.106h1.159v1.159c0,0.381-0.299,0.68-0.68,0.68h-0.48
			c-0.381,0-0.68-0.299-0.68-0.68L11.363,28.016L11.363,28.016z M26.638,28.08l-0.001,1.2c0,0.381-0.299,0.68-0.68,0.68h-0.48
			c-0.381,0-0.68-0.299-0.68-0.68v-1.159h1.4C26.352,28.121,26.505,28.102,26.638,28.08z M27.597,11.879v8.484H10.403v-8.484
			C10.403,11.879,27.597,11.879,27.597,11.879z M27.598,9.44v1.4H10.403v-1.4c0-0.772,0.628-1.4,1.4-1.4h14.395
			C26.97,8.04,27.598,8.668,27.598,9.44z"/>
		<path fill="#FFFFFF" d="M13.002,25.482c0.815,0,1.479-0.664,1.479-1.48c0-0.394-0.153-0.766-0.432-1.045
			c-0.28-0.28-0.652-0.434-1.046-0.434c-0.816,0-1.48,0.664-1.48,1.48C11.522,24.818,12.186,25.482,13.002,25.482z M12.562,24.002
			c0-0.242,0.198-0.44,0.441-0.44c0.242,0,0.439,0.198,0.439,0.44c0,0.243-0.197,0.441-0.439,0.441
			C12.759,24.443,12.562,24.245,12.562,24.002z"/>
		<path fill="#FFFFFF" d="M24.998,25.482c0.816,0,1.48-0.664,1.48-1.48s-0.664-1.48-1.48-1.48s-1.48,0.664-1.48,1.48
			S24.182,25.482,24.998,25.482z M24.558,24.002c0-0.242,0.198-0.44,0.441-0.44c0.242,0,0.439,0.198,0.439,0.44
			c0,0.243-0.197,0.441-0.439,0.441C24.755,24.443,24.558,24.245,24.558,24.002z"/>
	</g>
</g>
</svg>
