<?xml version="1.0" encoding="utf-8"?>
<!-- Generator: Adobe Illustrator 17.0.0, SVG Export Plug-In . SVG Version: 6.00 Build 0)  -->
<!DOCTYPE svg PUBLIC "-//W3C//DTD SVG 1.1//EN" "http://www.w3.org/Graphics/SVG/1.1/DTD/svg11.dtd">
<svg version="1.1" id="Слой_1" xmlns="http://www.w3.org/2000/svg" xmlns:xlink="http://www.w3.org/1999/xlink" x="0px" y="0px"
	 width="38px" height="38px" viewBox="0 0 38 38" enable-background="new 0 0 38 38" xml:space="preserve">
<g id="Слой_2_1_">
</g>
<g>
	<circle fill="#01D385" cx="19" cy="19" r="19"/>
	<path fill="#FFFFFF" d="M31.431,18.609c0.001-1.089-0.465-2.119-1.278-2.837c0.3-0.515,0.457-1.097,0.455-1.69
		c-0.002-1.685-1.244-3.108-2.901-3.344c0.013-0.123,0.019-0.243,0.019-0.359c0.002-0.899-0.347-1.747-0.983-2.385
		c-0.636-0.639-1.481-0.991-2.38-0.993c-1.056,0-2.052,0.495-2.687,1.327C21.041,7.494,20.047,7,18.996,7
		c-0.7,0-1.372,0.214-1.944,0.62c-0.277,0.196-0.523,0.434-0.731,0.707c-0.636-0.83-1.629-1.323-2.68-1.323
		c-0.703,0-1.379,0.216-1.955,0.627c-0.997,0.711-1.526,1.895-1.395,3.106c-1.657,0.239-2.898,1.661-2.9,3.344
		c-0.001,0.597,0.156,1.18,0.455,1.69c-0.738,0.652-1.187,1.55-1.265,2.535c-0.081,1.01,0.236,1.989,0.893,2.759
		c0.115,0.136,0.24,0.263,0.371,0.379c-0.299,0.513-0.456,1.097-0.454,1.692c0.002,1.861,1.517,3.376,3.378,3.378h2.385V31h0.992
		v-4.487h4.358V31h0.993v-4.487h4.357V31h0.993v-4.487h2.384c1.86-0.002,3.376-1.517,3.378-3.378
		c0.002-0.595-0.155-1.178-0.454-1.69C30.968,20.726,31.432,19.697,31.431,18.609z M19.495,20.032
		c0.021-0.014,0.041-0.029,0.062-0.047l2.674-2.674c0.091-0.093,0.142-0.222,0.14-0.355c-0.003-0.133-0.057-0.257-0.152-0.349
		c-0.09-0.087-0.213-0.135-0.344-0.135c-0.132,0-0.254,0.048-0.346,0.137l-2.033,2.034v-5.797c0.001-0.13-0.049-0.254-0.142-0.348
		c-0.094-0.095-0.22-0.147-0.354-0.147c-0.274,0-0.497,0.223-0.497,0.497v2.711l-1.726-1.727c-0.185-0.178-0.524-0.171-0.701,0.013
		c-0.188,0.194-0.188,0.497,0.001,0.692l2.426,2.427v5.386l-1.624-1.624c-0.186-0.178-0.525-0.17-0.701,0.014
		c-0.188,0.194-0.188,0.497,0.001,0.691l2.323,2.323v1.767h-2.384c-1.312-0.001-2.382-1.07-2.385-2.384
		c-0.001-0.539,0.185-1.067,0.521-1.486c0.084-0.103,0.122-0.233,0.106-0.365c-0.015-0.131-0.08-0.25-0.183-0.332l-0.033-0.025
		c-0.619-0.418-1.039-1.051-1.183-1.783c-0.143-0.733,0.007-1.478,0.425-2.096c0.204-0.302,0.459-0.557,0.758-0.758
		c0.11-0.074,0.185-0.186,0.211-0.318c0.025-0.132-0.002-0.265-0.079-0.375l-0.022-0.029c-0.338-0.42-0.523-0.947-0.521-1.485
		c0.001-1.313,1.069-2.382,2.381-2.385l0.126,0.007c0.156,0,0.303-0.072,0.392-0.191c0.099-0.128,0.13-0.295,0.084-0.446
		c-0.067-0.223-0.101-0.455-0.101-0.688c0-0.142,0.014-0.289,0.042-0.438l0.005-0.026c0.026-0.133,0.068-0.275,0.122-0.411
		C17.145,8.59,18.015,7.998,19,7.997c0.985,0.001,1.854,0.593,2.216,1.51c0.055,0.137,0.097,0.279,0.126,0.436
		c0.027,0.14,0.042,0.287,0.043,0.437c0,0.231-0.034,0.462-0.101,0.686c-0.047,0.156-0.016,0.324,0.081,0.446
		c0.091,0.122,0.236,0.194,0.396,0.194l0,0l0.117-0.007c1.314,0.001,2.385,1.071,2.387,2.385c0.001,0.539-0.185,1.067-0.522,1.485
		c-0.169,0.214-0.134,0.527,0.078,0.698l0.032,0.023c1.278,0.862,1.619,2.603,0.76,3.881c-0.203,0.301-0.459,0.556-0.76,0.759
		c-0.11,0.074-0.185,0.187-0.21,0.317c-0.026,0.131,0.001,0.264,0.076,0.374l0.023,0.03c0.338,0.42,0.523,0.948,0.521,1.487
		c-0.001,1.313-1.071,2.382-2.385,2.384h-2.383C19.495,25.522,19.495,20.032,19.495,20.032z M8.904,21.65
		c0.084-0.102,0.121-0.232,0.106-0.365c-0.015-0.132-0.081-0.251-0.19-0.337l-0.027-0.02c-0.62-0.417-1.04-1.05-1.183-1.782
		c-0.143-0.733,0.007-1.478,0.425-2.096c0.203-0.302,0.459-0.557,0.758-0.758c0.109-0.073,0.184-0.185,0.211-0.318
		c0.025-0.13-0.002-0.263-0.079-0.375l-0.022-0.03c-0.338-0.418-0.523-0.946-0.521-1.484c0.001-1.314,1.07-2.383,2.379-2.384
		l0.133,0.006c0.152,0,0.297-0.072,0.388-0.193c0.099-0.127,0.129-0.294,0.083-0.445c-0.18-0.611-0.111-1.255,0.194-1.815
		c0.305-0.559,0.809-0.966,1.419-1.146c0.221-0.065,0.448-0.098,0.674-0.098c0.905,0,1.742,0.523,2.136,1.326
		c-0.048,0.147-0.086,0.303-0.116,0.475l-0.01,0.071c-0.046,0.285-0.054,0.573-0.022,0.858c-1.658,0.238-2.898,1.661-2.9,3.346
		c-0.002,0.596,0.156,1.181,0.456,1.692l-0.519,0.56l-0.022,0.031c-1.16,1.574-0.921,3.789,0.538,5.081
		c-0.145,0.247-0.257,0.514-0.333,0.792l-0.113,1.065l0.004,0.066c0.001,0.043,0.003,0.085,0.008,0.123
		c0.002,0.029,0.007,0.056,0.015,0.103l0.126-0.023l0,0l-0.122,0.059c0.01,0.071,0.021,0.143,0.037,0.216l0.046,0.178
		c0.014,0.052,0.027,0.104,0.043,0.153c0.011,0.037,0.024,0.071,0.037,0.101l0.023,0.061c0.02,0.055,0.041,0.108,0.063,0.157
		c0.014,0.034,0.03,0.066,0.045,0.097l0.037,0.074c0.024,0.045,0.047,0.091,0.073,0.134c0.015,0.027,0.033,0.054,0.05,0.081
		l0.029,0.046c0.034,0.053,0.068,0.105,0.104,0.157c0.03,0.042,0.06,0.082,0.09,0.12c0.039,0.052,0.08,0.1,0.143,0.171
		c0.026,0.029,0.053,0.059,0.079,0.088c0.016,0.016,0.032,0.033,0.05,0.05h-2.963c-1.312-0.001-2.381-1.069-2.384-2.38
		C8.383,22.597,8.568,22.069,8.904,21.65z M24.333,25.451c0.028-0.031,0.057-0.062,0.084-0.093c0.043-0.048,0.083-0.097,0.118-0.144
		c0.033-0.04,0.063-0.08,0.095-0.125c0.036-0.052,0.071-0.103,0.114-0.173c0.023-0.037,0.047-0.073,0.069-0.111
		c0.029-0.05,0.056-0.101,0.082-0.155l0.072-0.15c0.026-0.058,0.051-0.121,0.071-0.18l0.012-0.03
		c0.013-0.032,0.025-0.064,0.041-0.109c0.014-0.043,0.026-0.088,0.038-0.132l0.031-0.117c0.01-0.032,0.018-0.064,0.021-0.087
		c0.014-0.065,0.024-0.13,0.033-0.192l0.014-0.085c0.004-0.023,0.008-0.048,0.011-0.072c0.014-0.121,0.019-0.242,0.019-0.362
		c0.002-0.595-0.154-1.177-0.454-1.689c0.759-0.674,1.22-1.637,1.268-2.65l0.001-0.026l-0.086-0.986l-0.018-0.075
		c-0.184-0.753-0.585-1.419-1.165-1.933c0.3-0.514,0.457-1.097,0.455-1.691c-0.002-1.684-1.243-3.107-2.899-3.345
		c0.03-0.285,0.022-0.574-0.027-0.872L22.323,9.8c-0.027-0.157-0.066-0.315-0.116-0.468c0.4-0.806,1.235-1.325,2.138-1.325
		c0.356,0,0.701,0.079,1.027,0.235c1.061,0.508,1.591,1.696,1.26,2.824c-0.047,0.154-0.017,0.321,0.08,0.445
		c0.091,0.122,0.237,0.195,0.397,0.195l0,0l0.118-0.007c1.314,0.001,2.384,1.07,2.386,2.384c0.001,0.539-0.185,1.067-0.523,1.486
		c-0.082,0.105-0.119,0.235-0.104,0.366c0.016,0.132,0.081,0.25,0.182,0.33l0.033,0.024c1.279,0.862,1.619,2.603,0.76,3.881
		c-0.202,0.301-0.458,0.557-0.76,0.759c-0.108,0.074-0.183,0.185-0.21,0.317c-0.025,0.132,0.002,0.265,0.095,0.399
		c0.34,0.423,0.527,0.953,0.526,1.493c-0.001,1.313-1.07,2.382-2.383,2.384l-2.964-0.003C24.286,25.5,24.308,25.477,24.333,25.451z"
		/>
</g>
</svg>
