<?xml version="1.0" encoding="utf-8"?>
<!-- Generator: Adobe Illustrator 17.0.0, SVG Export Plug-In . SVG Version: 6.00 Build 0)  -->
<!DOCTYPE svg PUBLIC "-//W3C//DTD SVG 1.1//EN" "http://www.w3.org/Graphics/SVG/1.1/DTD/svg11.dtd">
<svg version="1.1" id="Слой_1" xmlns="http://www.w3.org/2000/svg" xmlns:xlink="http://www.w3.org/1999/xlink" x="0px" y="0px"
	 width="38px" height="38px" viewBox="0 0 38 38" enable-background="new 0 0 38 38" xml:space="preserve">
<g id="Слой_2_1_">
</g>
<g>
	<circle fill="#01D385" cx="19" cy="19" r="19"/>
	<g>
		<path fill="#FFFFFF" d="M24.837,15.436c-1.618-2.017-3.291-4.102-3.242-7.945c0-0.191-0.091-0.34-0.285-0.449
			C21.244,7.014,21.164,7,21.083,7c-0.074,0-0.183,0.013-0.279,0.076c-2.69,1.925-5.093,6.168-4.4,11.305l0.001,0.006L16.4,18.385
			c-0.882-0.511-1.441-1.352-2.033-2.242l-0.12-0.181c-0.194-0.316-0.395-0.642-0.624-0.948c-0.047-0.06-0.177-0.198-0.372-0.198
			l-0.043,0.004c-0.193,0-0.333,0.12-0.392,0.218c-1.285,2.001-2.599,4.405-2.599,7.055c-0.001,2.494,0.868,4.761,2.447,6.386
			C14.243,30.105,16.449,31,18.874,31c5.078,0,8.906-3.829,8.906-8.906C27.782,19.081,26.286,17.23,24.837,15.436z M20.629,8.528
			l0.004-0.003v0.006c0.248,3.572,1.944,5.683,3.441,7.546c1.461,1.807,2.722,3.367,2.722,6.015c0,4.517-3.407,7.923-7.924,7.923
			c-4.446,0-7.675-3.332-7.675-7.923c0.003-1.756,0.656-3.629,2.057-5.892l0.002-0.005l0.004,0.007
			c0.025,0.049,0.055,0.093,0.096,0.149c0.027,0.039,0.054,0.077,0.088,0.141c0.653,1.014,1.326,2.061,2.46,2.726
			c0.315,0.193,0.73,0.192,1.039,0.001c0.322-0.2,0.492-0.568,0.444-0.963C16.763,13.82,18.652,10.323,20.629,8.528z"/>
		<path fill="#FFFFFF" d="M24.198,26.297c0.177,0,0.321-0.076,0.42-0.224c0.95-1.5,1.432-3.172,1.432-4.97
			c0-0.271-0.22-0.491-0.491-0.491s-0.491,0.22-0.491,0.491c0,1.646-0.433,3.136-1.288,4.43c-0.145,0.217-0.076,0.539,0.15,0.692
			C24,26.271,24.098,26.297,24.198,26.297z"/>
		<path fill="#FFFFFF" d="M22.687,28.029c0.107,0,0.203-0.036,0.335-0.133c0.199-0.175,0.385-0.34,0.554-0.534
			c0.082-0.094,0.124-0.223,0.114-0.353c-0.01-0.133-0.07-0.256-0.163-0.336c-0.19-0.167-0.521-0.142-0.69,0.052
			c-0.127,0.151-0.318,0.314-0.471,0.445c-0.096,0.083-0.154,0.206-0.163,0.337c-0.008,0.13,0.034,0.258,0.112,0.347
			C22.442,28.012,22.617,28.029,22.687,28.029z"/>
	</g>
</g>
</svg>
