<?xml version="1.0" encoding="utf-8"?>
<!-- Generator: Adobe Illustrator 17.0.0, SVG Export Plug-In . SVG Version: 6.00 Build 0)  -->
<!DOCTYPE svg PUBLIC "-//W3C//DTD SVG 1.1//EN" "http://www.w3.org/Graphics/SVG/1.1/DTD/svg11.dtd">
<svg version="1.1" id="Слой_1" xmlns="http://www.w3.org/2000/svg" xmlns:xlink="http://www.w3.org/1999/xlink" x="0px" y="0px"
	 width="38px" height="38px" viewBox="0 0 38 38" enable-background="new 0 0 38 38" xml:space="preserve">
<g id="Слой_2_1_">
</g>
<g>
	<circle fill="#B7B7B7" cx="19" cy="19" r="19"/>
	<path fill="#FFFFFF" d="M29.885,10.37C30.499,10.369,31,9.869,31,9.256V8.883c0-0.159-0.073-0.303-0.197-0.395
		C29.505,7.515,27.963,7,26.345,7c-2.366,0-4.537,1.085-5.957,2.975c-0.958,1.279-1.486,2.863-1.486,4.463
		c0,0.167,0.006,0.334,0.016,0.497h-8.646c-0.929,0-1.684,0.755-1.684,1.684c0,0.929,0.755,1.685,1.684,1.685h0.869
		c-0.373,0.703-0.569,1.488-0.569,2.282v3.161c-0.43-0.706-0.762-1.47-0.989-2.275c-0.162-0.551-0.678-0.936-1.281-0.936
		c-0.707,0-1.291,0.573-1.303,1.28c0,0.114,0.015,0.226,0.046,0.331c0.635,2.259,1.912,4.262,3.693,5.79
		c0.513,0.45,1.069,0.858,1.652,1.211c0.368,0.226,0.746,0.433,1.122,0.612c1.704,0.81,3.6,1.239,5.486,1.239
		c1.889,0,3.786-0.429,5.487-1.239c0.222-0.107,0.446-0.224,0.704-0.368c0.575-0.32,1.131-0.692,1.651-1.11
		c2.001-1.565,3.422-3.687,4.11-6.135c0.105-0.374,0.026-0.781-0.211-1.089c-0.256-0.333-0.643-0.523-1.064-0.523
		c-0.357,0-0.691,0.137-0.942,0.386c-0.152,0.153-0.263,0.343-0.32,0.55c-0.293,1.034-0.758,2-1.385,2.873v-3.758
		c0-0.095-0.003-0.192-0.012-0.305c0.014-0.063,0.014-0.129,0-0.194l-0.113-0.582c-0.007-0.038-0.014-0.075-0.023-0.116
		l-0.873-4.347c-0.006-0.029-0.01-0.061-0.011-0.09c0-0.218,0.148-0.407,0.361-0.457c0.184-0.049,0.409,0.037,0.515,0.209
		l0.498,0.837c0.296,0.485,0.811,0.776,1.379,0.777c0.43-0.001,0.833-0.169,1.134-0.471c0.305-0.298,0.473-0.701,0.472-1.134
		c0-0.099-0.011-0.204-0.031-0.313l-0.735-3.677c-0.018-0.087,0.003-0.174,0.061-0.245C29.712,10.41,29.796,10.37,29.885,10.37z
		 M18.901,18.207c0,0.164-0.134,0.297-0.299,0.298h-3.967c-0.164,0-0.297-0.134-0.297-0.298v-2.282h4.564v2.282H18.901z
		 M25.007,14.959c0.001,0.094,0.011,0.188,0.029,0.281l0.961,4.805c0.028,0.181,0.042,0.364,0.042,0.546v5.13
		c0.001,0.272,0.223,0.494,0.495,0.494c0.135,0,0.266-0.056,0.357-0.153c1.16-1.21,2.016-2.703,2.477-4.321
		c0.011-0.042,0.035-0.082,0.061-0.111c0.144-0.133,0.383-0.122,0.518,0.027c0.053,0.067,0.071,0.15,0.05,0.228
		c-0.631,2.243-1.934,4.188-3.771,5.626c-0.474,0.378-0.985,0.721-1.518,1.021c-0.225,0.126-0.445,0.24-0.652,0.34
		c-1.571,0.747-3.32,1.142-5.059,1.142s-3.488-0.395-5.057-1.141c-0.357-0.174-0.706-0.363-1.035-0.565
		c-0.533-0.323-1.045-0.697-1.52-1.115c-1.635-1.4-2.807-3.238-3.39-5.311C7.989,21.86,7.986,21.84,7.986,21.83
		c0.011-0.168,0.149-0.299,0.314-0.299h0.03c0.135,0,0.255,0.088,0.295,0.213c0.402,1.41,1.114,2.742,2.062,3.851
		c0.167,0.199,0.495,0.229,0.698,0.057c0.111-0.095,0.174-0.233,0.174-0.378v-4.688c0-0.896,0.314-1.77,0.892-2.475
		c0.011-0.016,0.022-0.039,0.021-0.042c0.019-0.032,0.035-0.06,0.051-0.099c0.01-0.032,0.016-0.068,0.014-0.078
		c0.006-0.02,0.009-0.038,0.014-0.064l0.029-0.157h-0.055c-0.025-0.078-0.067-0.151-0.123-0.211l-0.047-0.045
		c-0.012-0.007-0.026-0.014-0.043-0.022c-0.062-0.041-0.126-0.063-0.17-0.063c-0.001,0-0.002,0-0.002,0l-0.074-0.015l-1.797,0.001
		c-0.383,0-0.695-0.312-0.695-0.695s0.312-0.695,0.695-0.695h3.076v2.282c0.001,0.711,0.578,1.288,1.288,1.288H18.6
		c0.711-0.001,1.288-0.578,1.288-1.288v-2.534c0.057-0.095,0.08-0.205,0.066-0.316c-0.044-0.301-0.067-0.611-0.067-0.919
		c0-3.554,2.892-6.446,6.447-6.446c1.313,0,2.575,0.392,3.673,1.146v0.12c0,0.068-0.056,0.124-0.125,0.124
		c-0.71,0-1.287,0.577-1.288,1.285c0,0.088,0.009,0.174,0.025,0.255l0.735,3.676c0.032,0.16-0.001,0.324-0.093,0.462
		c-0.092,0.136-0.232,0.23-0.391,0.262c-0.263,0.049-0.52-0.069-0.65-0.285L27.722,14.2c-0.268-0.433-0.748-0.701-1.256-0.701
		c-0.12,0-0.238,0.014-0.348,0.042C25.463,13.699,25.006,14.282,25.007,14.959z"/>
</g>
</svg>
