<?xml version="1.0" encoding="utf-8"?>
<!-- Generator: Adobe Illustrator 17.0.0, SVG Export Plug-In . SVG Version: 6.00 Build 0)  -->
<!DOCTYPE svg PUBLIC "-//W3C//DTD SVG 1.1//EN" "http://www.w3.org/Graphics/SVG/1.1/DTD/svg11.dtd">
<svg version="1.1" id="Слой_1" xmlns="http://www.w3.org/2000/svg" xmlns:xlink="http://www.w3.org/1999/xlink" x="0px" y="0px"
	 width="38px" height="38px" viewBox="0 0 38 38" enable-background="new 0 0 38 38" xml:space="preserve">
<g id="Слой_2_1_">
</g>
<g>
	<circle fill="#01D386" cx="19" cy="19" r="19"/>
	<g>
		<path fill="#FFFFFF" d="M19,7c-4.348,0-7.885,3.537-7.885,7.884c0,2.272,0.972,4.433,2.66,5.923
			c1.072,1.072,1.183,3.387,1.088,3.859l-0.03,0.166h0.042c0.016,0.086,0.056,0.175,0.143,0.263
			c0.091,0.091,0.245,0.155,0.373,0.155h7.188c0.143,0,0.271-0.054,0.372-0.155c0.096-0.096,0.155-0.25,0.154-0.407
			c-0.018-0.448-0.051-2.74,1.085-3.877l0.08-0.081c1.662-1.517,2.614-3.648,2.614-5.846C26.885,10.537,23.348,7,19,7z M25.8,14.856
			c0,1.993-0.847,3.87-2.331,5.158c-0.047,0.048-0.07,0.076-0.083,0.104l-0.003,0.011c-1.072,1.161-1.295,3.008-1.33,4.037h-6.135
			c-0.037-1.069-0.275-2.983-1.43-4.165c-1.49-1.293-2.345-3.168-2.345-5.144c0-3.765,3.063-6.828,6.828-6.828
			S25.8,11.09,25.8,14.856z"/>
		<path fill="#FFFFFF" d="M18.971,9.001c-0.281,0-0.528,0.247-0.528,0.529s0.247,0.529,0.528,0.529c2.802,0,5.082,2.279,5.082,5.08
			c0,0.282,0.247,0.529,0.528,0.529c0.282,0,0.529-0.247,0.529-0.528c0.014-1.626-0.612-3.16-1.762-4.319
			C22.185,9.647,20.631,9.001,18.971,9.001z"/>
		<path fill="#FFFFFF" d="M22.1,25.687h-6.257c-0.68,0-1.233,0.553-1.233,1.233s0.553,1.234,1.233,1.234h6.23h0.003
			c0.705-0.03,1.256-0.572,1.256-1.233C23.332,26.24,22.779,25.687,22.1,25.687z M22.249,26.891c0,0.085-0.039,0.177-0.149,0.177
			h-6.257c-0.069,0-0.177-0.048-0.177-0.177c0-0.115,0.061-0.176,0.177-0.176h6.229C22.146,26.715,22.249,26.77,22.249,26.891z"/>
		<path fill="#FFFFFF" d="M21.17,28.534h-4.396c-0.68,0-1.233,0.553-1.233,1.233s0.553,1.234,1.233,1.234h4.396
			c0.68,0,1.234-0.554,1.234-1.234C22.403,29.075,21.861,28.534,21.17,28.534z M21.17,29.915h-4.396
			c-0.069,0-0.177-0.048-0.177-0.176c0-0.116,0.061-0.177,0.177-0.177h4.396c0.069,0,0.177,0.048,0.177,0.177
			C21.346,29.86,21.243,29.915,21.17,29.915z"/>
	</g>
</g>
</svg>
