<?xml version="1.0" encoding="utf-8"?>
<!-- Generator: Adobe Illustrator 17.0.0, SVG Export Plug-In . SVG Version: 6.00 Build 0)  -->
<!DOCTYPE svg PUBLIC "-//W3C//DTD SVG 1.1//EN" "http://www.w3.org/Graphics/SVG/1.1/DTD/svg11.dtd">
<svg version="1.1" id="Слой_1" xmlns="http://www.w3.org/2000/svg" xmlns:xlink="http://www.w3.org/1999/xlink" x="0px" y="0px"
	 width="38px" height="38px" viewBox="0 0 38 38" enable-background="new 0 0 38 38" xml:space="preserve">
<g id="Слой_2_1_">
</g>
<g>
	<circle fill="#01D386" cx="19" cy="19" r="19"/>
	<g>
		<circle fill="#FFFFFF" cx="25.277" cy="22.739" r="0.749"/>
		<circle fill="#FFFFFF" cx="29.409" cy="20.804" r="0.748"/>
		<circle fill="#FFFFFF" cx="11.364" cy="18.921" r="0.749"/>
		<circle fill="#FFFFFF" cx="17.692" cy="12.592" r="0.748"/>
		<circle fill="#FFFFFF" cx="27.026" cy="16.486" r="0.748"/>
		<circle fill="#FFFFFF" cx="19.68" cy="24.57" r="0.749"/>
		<circle fill="#FFFFFF" cx="21.33" cy="19.731" r="0.748"/>
		<circle fill="#FFFFFF" cx="22.537" cy="23.116" r="0.749"/>
		<circle fill="#FFFFFF" cx="12.2" cy="25.145" r="0.748"/>
		<circle fill="#FFFFFF" cx="25.833" cy="13.806" r="0.749"/>
		<circle fill="#FFFFFF" cx="23.028" cy="16.358" r="0.748"/>
		<circle fill="#FFFFFF" cx="25.775" cy="19.391" r="0.749"/>
		<circle fill="#FFFFFF" cx="18.686" cy="17.667" r="1.085"/>
		<circle fill="#FFFFFF" cx="22.209" cy="27.629" r="0.749"/>
		<circle fill="#FFFFFF" cx="12.967" cy="29.278" r="1.085"/>
		<circle fill="#FFFFFF" cx="16.329" cy="29.372" r="0.748"/>
		<circle fill="#FFFFFF" cx="19.941" cy="30.375" r="0.749"/>
		<circle fill="#FFFFFF" cx="24.944" cy="29.48" r="0.749"/>
		<circle fill="#FFFFFF" cx="28.219" cy="30.014" r="0.748"/>
		<circle fill="#FFFFFF" cx="21.315" cy="8.25" r="0.749"/>
		<circle fill="#FFFFFF" cx="29.384" cy="8.843" r="0.748"/>
		<circle fill="#FFFFFF" cx="8.216" cy="8.514" r="0.748"/>
		<circle fill="#FFFFFF" cx="25.172" cy="7.623" r="0.748"/>
		<circle fill="#FFFFFF" cx="16.07" cy="26.087" r="0.748"/>
		<circle fill="#FFFFFF" cx="12.425" cy="8.119" r="0.748"/>
		<circle fill="#FFFFFF" cx="15.548" cy="15.417" r="0.748"/>
		<circle fill="#FFFFFF" cx="14.707" cy="10.672" r="1.085"/>
		<circle fill="#FFFFFF" cx="7.624" cy="24.226" r="0.749"/>
		<circle fill="#FFFFFF" cx="8.696" cy="21.17" r="0.749"/>
		<circle fill="#FFFFFF" cx="20.359" cy="14.109" r="0.748"/>
		<circle fill="#FFFFFF" cx="20.232" cy="10.855" r="0.749"/>
		<circle fill="#FFFFFF" cx="9.105" cy="14.267" r="0.748"/>
		<circle fill="#FFFFFF" cx="29.81" cy="28.025" r="0.749"/>
		<circle fill="#FFFFFF" cx="23.472" cy="11.137" r="1.085"/>
		<circle fill="#FFFFFF" cx="9.372" cy="11.138" r="0.749"/>
		<circle fill="#FFFFFF" cx="9.585" cy="27.342" r="0.749"/>
		<circle fill="#FFFFFF" cx="8.409" cy="29.642" r="0.748"/>
		<circle fill="#FFFFFF" cx="8.017" cy="17.142" r="0.748"/>
		<circle fill="#FFFFFF" cx="17.351" cy="8.054" r="0.748"/>
		<circle fill="#FFFFFF" cx="12.24" cy="12.728" r="0.749"/>
		<circle fill="#FFFFFF" cx="29.462" cy="13.854" r="0.748"/>
		<circle fill="#FFFFFF" cx="13.236" cy="22.008" r="1.085"/>
		<circle fill="#FFFFFF" cx="12.077" cy="15.568" r="0.749"/>
		<circle fill="#FFFFFF" cx="14.865" cy="18.923" r="0.749"/>
		<circle fill="#FFFFFF" cx="17.274" cy="21.589" r="0.749"/>
		<circle fill="#FFFFFF" cx="30.377" cy="17.069" r="0.748"/>
		<circle fill="#FFFFFF" cx="27.126" cy="10.665" r="0.748"/>
		<circle fill="#FFFFFF" cx="30.013" cy="23.849" r="0.748"/>
		<circle fill="#FFFFFF" cx="24.386" cy="25.626" r="0.748"/>
		<circle fill="#FFFFFF" cx="18.791" cy="27.447" r="0.748"/>
		<circle fill="#FFFFFF" cx="27.458" cy="26.175" r="1.085"/>
	</g>
</g>
</svg>
