<?xml version="1.0" encoding="utf-8"?>
<!-- Generator: Adobe Illustrator 17.0.0, SVG Export Plug-In . SVG Version: 6.00 Build 0)  -->
<!DOCTYPE svg PUBLIC "-//W3C//DTD SVG 1.1//EN" "http://www.w3.org/Graphics/SVG/1.1/DTD/svg11.dtd">
<svg version="1.1" id="Слой_1" xmlns="http://www.w3.org/2000/svg" xmlns:xlink="http://www.w3.org/1999/xlink" x="0px" y="0px"
	 width="38px" height="38px" viewBox="0 0 38 38" enable-background="new 0 0 38 38" xml:space="preserve">
<g id="Слой_2_1_">
</g>
<g>
	<circle fill="#CECECE" cx="19" cy="19" r="19"/>
</g>
<g id="Слой_2">
	<g>
		<path fill="#FFFFFF" d="M27.477,7.144C27.385,7.051,27.261,7,27.128,7H10.872c-0.271,0-0.491,0.219-0.491,0.49v23.019
			c0,0.271,0.22,0.492,0.491,0.492h16.256c0.27,0,0.491-0.22,0.491-0.492V7.491C27.62,7.359,27.57,7.237,27.477,7.144z
			 M18.508,30.017h-7.145V7.98h7.145h0.983h7.146v22.038h-7.146L18.508,30.017z"/>
	</g>
</g>
<g>
	<circle fill="#FFFFFF" cx="24.814" cy="22.594" r="0.749"/>
	<circle fill="#FFFFFF" cx="17.229" cy="12.447" r="0.748"/>
	<circle fill="#FFFFFF" cx="26.563" cy="16.34" r="0.748"/>
	<circle fill="#FFFFFF" cx="19.217" cy="24.424" r="0.749"/>
	<circle fill="#FFFFFF" cx="20.867" cy="19.585" r="0.748"/>
	<circle fill="#FFFFFF" cx="22.074" cy="22.971" r="0.749"/>
	<circle fill="#FFFFFF" cx="11.737" cy="24.999" r="0.748"/>
	<circle fill="#FFFFFF" cx="25.37" cy="13.66" r="0.749"/>
	<circle fill="#FFFFFF" cx="22.565" cy="16.212" r="0.748"/>
	<circle fill="#FFFFFF" cx="25.312" cy="19.245" r="0.749"/>
	<circle fill="#FFFFFF" cx="18.223" cy="17.521" r="1.085"/>
	<circle fill="#FFFFFF" cx="21.746" cy="27.484" r="0.749"/>
	<circle fill="#FFFFFF" cx="12.504" cy="29.133" r="1.085"/>
	<circle fill="#FFFFFF" cx="15.866" cy="29.227" r="0.748"/>
	<circle fill="#FFFFFF" cx="19.478" cy="30.229" r="0.749"/>
	<circle fill="#FFFFFF" cx="24.481" cy="29.335" r="0.749"/>
	<circle fill="#FFFFFF" cx="20.852" cy="8.104" r="0.749"/>
	<circle fill="#FFFFFF" cx="15.607" cy="25.941" r="0.748"/>
	<circle fill="#FFFFFF" cx="11.962" cy="7.974" r="0.748"/>
	<circle fill="#FFFFFF" cx="15.085" cy="15.271" r="0.748"/>
	<circle fill="#FFFFFF" cx="14.244" cy="10.526" r="1.085"/>
	<circle fill="#FFFFFF" cx="19.896" cy="13.964" r="0.748"/>
	<circle fill="#FFFFFF" cx="19.769" cy="10.71" r="0.749"/>
	<circle fill="#FFFFFF" cx="23.009" cy="10.991" r="1.085"/>
	<circle fill="#FFFFFF" cx="16.888" cy="7.909" r="0.748"/>
	<circle fill="#FFFFFF" cx="11.777" cy="12.582" r="0.749"/>
	<circle fill="#FFFFFF" cx="12.773" cy="21.863" r="1.085"/>
	<circle fill="#FFFFFF" cx="11.614" cy="15.423" r="0.749"/>
	<circle fill="#FFFFFF" cx="14.402" cy="18.777" r="0.749"/>
	<circle fill="#FFFFFF" cx="16.811" cy="21.443" r="0.749"/>
	<circle fill="#FFFFFF" cx="26.663" cy="10.52" r="0.748"/>
	<circle fill="#FFFFFF" cx="23.923" cy="25.48" r="0.748"/>
	<circle fill="#FFFFFF" cx="18.328" cy="27.301" r="0.748"/>
</g>
</svg>
