<?xml version="1.0" encoding="utf-8"?>
<!-- Generator: Adobe Illustrator 17.0.0, SVG Export Plug-In . SVG Version: 6.00 Build 0)  -->
<!DOCTYPE svg PUBLIC "-//W3C//DTD SVG 1.1//EN" "http://www.w3.org/Graphics/SVG/1.1/DTD/svg11.dtd">
<svg version="1.1" id="Слой_1" xmlns="http://www.w3.org/2000/svg" xmlns:xlink="http://www.w3.org/1999/xlink" x="0px" y="0px"
	 width="38px" height="38px" viewBox="0 0 38 38" enable-background="new 0 0 38 38" xml:space="preserve">
<g id="Слой_2_1_">
</g>
<g>
	<circle fill="#B7B7B7" cx="19" cy="19" r="19"/>
	<g>
		<path fill="#FFFFFF" d="M27.477,7.144C27.385,7.051,27.261,7,27.128,7H10.872c-0.271,0-0.491,0.219-0.491,0.49v23.019
			c0,0.271,0.22,0.492,0.491,0.492h16.256c0.27,0,0.491-0.22,0.491-0.492V7.491C27.62,7.359,27.57,7.237,27.477,7.144z M19,29.084
			c-0.271,0-0.492,0.219-0.492,0.49v0.443h-7.145V7.98h7.145v0.443c0,0.27,0.22,0.491,0.492,0.491c0.271,0,0.491-0.22,0.491-0.491
			V7.98h7.146v22.038h-7.146v-0.443C19.492,29.304,19.271,29.084,19,29.084z"/>
		<path fill="#FFFFFF" d="M19,18.351c0.271,0,0.491-0.22,0.491-0.491v-1.803c0-0.27-0.22-0.491-0.491-0.491s-0.492,0.22-0.492,0.491
			v1.803C18.509,18.13,18.729,18.351,19,18.351z"/>
		<path fill="#FFFFFF" d="M19.492,25.069c0-0.27-0.22-0.491-0.491-0.491s-0.492,0.22-0.492,0.491v1.803c0,0.27,0.22,0.49,0.492,0.49
			c0.271,0,0.491-0.219,0.491-0.49V25.069z"/>
		<path fill="#FFFFFF" d="M19,22.856c0.271,0,0.491-0.22,0.491-0.491v-1.802c0-0.27-0.22-0.491-0.491-0.491s-0.492,0.22-0.492,0.491
			v1.802C18.509,22.636,18.729,22.856,19,22.856z"/>
		<path fill="#FFFFFF" d="M19,13.844c0.271,0,0.491-0.22,0.491-0.491V11.55c0-0.27-0.22-0.491-0.491-0.491s-0.492,0.22-0.492,0.491
			v1.803C18.509,13.624,18.729,13.844,19,13.844z"/>
	</g>
</g>
</svg>
