<?xml version="1.0" encoding="utf-8"?>
<!-- Generator: Adobe Illustrator 17.0.0, SVG Export Plug-In . SVG Version: 6.00 Build 0)  -->
<!DOCTYPE svg PUBLIC "-//W3C//DTD SVG 1.1//EN" "http://www.w3.org/Graphics/SVG/1.1/DTD/svg11.dtd">
<svg version="1.1" id="Слой_1" xmlns="http://www.w3.org/2000/svg" xmlns:xlink="http://www.w3.org/1999/xlink" x="0px" y="0px"
	 width="38px" height="38px" viewBox="0 0 38 38" enable-background="new 0 0 38 38" xml:space="preserve">
<g>
	<circle fill="#B7B7B7" cx="19" cy="19" r="19"/>
	<g>
		<path fill="#FFFFFF" d="M16.88,26.678c-1.192,0-2.161,0.969-2.161,2.16c0,1.192,0.969,2.161,2.161,2.161
			c1.191,0,2.16-0.969,2.16-2.161C19.04,27.647,18.071,26.678,16.88,26.678z M18.051,28.839c0,0.645-0.525,1.171-1.171,1.171
			s-1.172-0.526-1.172-1.171s0.526-1.171,1.172-1.171C17.526,27.668,18.051,28.193,18.051,28.839z"/>
		<path fill="#FFFFFF" d="M24.985,26.678c-1.192,0-2.161,0.969-2.161,2.16c0,1.192,0.969,2.161,2.161,2.161
			c1.191,0,2.16-0.969,2.16-2.161C27.146,27.647,26.177,26.678,24.985,26.678z M26.156,28.839c0,0.645-0.525,1.171-1.171,1.171
			s-1.172-0.526-1.172-1.171s0.526-1.171,1.172-1.171C25.631,27.668,26.156,28.193,26.156,28.839z"/>
		<path fill="#FFFFFF" d="M16.309,15.503h9.245c0.273,0,0.496-0.222,0.496-0.496c-0.001-0.272-0.224-0.494-0.496-0.494h-9.245
			c-0.273,0-0.495,0.222-0.495,0.495C15.815,15.281,16.036,15.503,16.309,15.503z"/>
		<path fill="#FFFFFF" d="M25.05,17.864h-8.238c-0.272,0-0.494,0.222-0.494,0.495s0.222,0.495,0.494,0.495h8.238
			c0.273,0,0.496-0.222,0.496-0.495S25.324,17.864,25.05,17.864z"/>
		<path fill="#FFFFFF" d="M30.293,11.589c-0.215-0.265-0.536-0.416-0.878-0.416H12.054l-0.431-2.096
			c-0.073-0.36-0.32-0.664-0.658-0.811L8.132,7.037C7.892,6.934,7.594,7.054,7.493,7.29C7.441,7.408,7.438,7.541,7.486,7.663
			c0.047,0.122,0.14,0.216,0.259,0.268l2.907,1.263l3.137,15.23c0.108,0.524,0.575,0.903,1.111,0.903h12.594
			c0.269,0,0.487-0.218,0.487-0.488c0-0.269-0.218-0.487-0.487-0.487H14.772l-0.444-2.158h13.286c0.535,0,1.002-0.38,1.111-0.903
			l1.802-8.758C30.593,12.197,30.509,11.853,30.293,11.589z M29.609,12.147L27.74,21.22H14.125l-1.869-9.074h17.353
			C29.609,12.146,29.609,12.147,29.609,12.147z"/>
	</g>
</g>
<g id="Слой_2_1_">
</g>
</svg>
