<?xml version="1.0" encoding="utf-8"?>
<!-- Generator: Adobe Illustrator 17.0.0, SVG Export Plug-In . SVG Version: 6.00 Build 0)  -->
<!DOCTYPE svg PUBLIC "-//W3C//DTD SVG 1.1//EN" "http://www.w3.org/Graphics/SVG/1.1/DTD/svg11.dtd">
<svg version="1.1" id="Слой_1" xmlns="http://www.w3.org/2000/svg" xmlns:xlink="http://www.w3.org/1999/xlink" x="0px" y="0px"
	 width="38px" height="38px" viewBox="0 0 38 38" enable-background="new 0 0 38 38" xml:space="preserve">
<g id="Слой_2_1_">
</g>
<g>
	<circle fill="#01D386" cx="19" cy="19" r="19"/>
	<g>
		<path fill="#FFFFFF" d="M21.589,9.34h-8.226c-0.609,0-1.104,0.494-1.104,1.103v6.255c0,0.608,0.495,1.104,1.104,1.104h8.226
			c0.609,0,1.104-0.495,1.104-1.104v-6.254C22.693,9.835,22.197,9.34,21.589,9.34z M21.692,10.443v6.255
			c-0.003,0.059-0.047,0.103-0.103,0.103h-8.226c-0.056,0-0.103-0.047-0.103-0.103v-6.255c0-0.056,0.046-0.102,0.103-0.102h8.226
			C21.646,10.34,21.692,10.387,21.692,10.443z"/>
		<path fill="#FFFFFF" d="M28.38,11.239l-1.554-1.794c-0.058-0.067-0.135-0.103-0.218-0.103c-0.256,0.005-0.453,0.119-0.538,0.313
			c-0.079,0.177-0.05,0.384,0.075,0.531l1.48,1.707c0.348,0.4,0.546,0.643,0.546,1.012l-1.433,0.011c-0.331,0-0.6,0.268-0.6,0.6
			v2.439c0,0.554,0.451,1.005,1.006,1.005h1.027v7.635c0,0.286-0.233,0.519-0.52,0.519h-1.122c-0.305,0-0.413-0.279-0.413-0.519
			v-6.633c0-0.804-0.682-1.365-1.39-1.468v-8.39C24.726,7.496,24.231,7,23.623,7H11.329c-0.608,0-1.103,0.495-1.103,1.104
			l-0.012,18.99c-0.003,0.04-0.004,0.077-0.003,0.111H9.937c-0.594,0-1.089,0.484-1.103,1.082v1.61c0,0.295,0.114,0.572,0.322,0.78
			c0.209,0.209,0.486,0.324,0.78,0.324h15.096c0.609,0,1.104-0.494,1.104-1.103V28.31c0-0.609-0.495-1.105-1.104-1.105h-0.305
			c0.001-0.035,0-0.068-0.003-0.096V17.51c0.221,0.08,0.397,0.264,0.397,0.451v6.633c0,0.862,0.605,1.513,1.408,1.513h1.124
			c0.835,0,1.514-0.679,1.514-1.513V12.905C29.167,12.143,28.749,11.663,28.38,11.239z M28.171,13.912v2.054h-1.038v-2.054H28.171z
			 M9.96,28.207h15.117c0.042,0.009,0.074,0.043,0.084,0.103v1.587c0,0.056-0.046,0.101-0.103,0.101H9.961
			c-0.056,0-0.103-0.046-0.103-0.101L9.857,28.31C9.857,28.253,9.903,28.207,9.96,28.207z M23.737,8.104v19
			c0,0.056-0.046,0.102-0.103,0.102H11.329c-0.062,0-0.109-0.039-0.113-0.083L11.215,8.104c0-0.058,0.045-0.103,0.103-0.103h12.315
			C23.69,8,23.737,8.047,23.737,8.104z"/>
	</g>
</g>
</svg>
