<?xml version="1.0" encoding="utf-8"?>
<!-- Generator: Adobe Illustrator 17.0.0, SVG Export Plug-In . SVG Version: 6.00 Build 0)  -->
<!DOCTYPE svg PUBLIC "-//W3C//DTD SVG 1.1//EN" "http://www.w3.org/Graphics/SVG/1.1/DTD/svg11.dtd">
<svg version="1.1" id="Слой_1" xmlns="http://www.w3.org/2000/svg" xmlns:xlink="http://www.w3.org/1999/xlink" x="0px" y="0px"
	 width="38px" height="38px" viewBox="0 0 38 38" enable-background="new 0 0 38 38" xml:space="preserve">
<g>
	<circle fill="#01D386" cx="19" cy="19" r="19"/>
	<g>
		<path fill="#FFFFFF" d="M28.235,25.717l-0.002-12.895c0-1.565-1.501-2.838-3.346-2.838h-2.794l0.004-0.024
			c0.014-0.101,0.022-0.203,0.022-0.307C22.118,8.19,20.719,7,18.998,7c-1.719,0-3.118,1.19-3.118,2.653
			c0,0.103,0.007,0.205,0.02,0.306l0.004,0.025H13.11c-1.844,0-3.344,1.273-3.344,2.838v12.895c0,1.382,1.163,2.557,2.766,2.795
			l0.039,0.006l-1.459,1.875L11.891,31l1.902-2.445h10.413L26.108,31l0.779-0.607l-1.458-1.875l0.039-0.006
			C27.071,28.273,28.235,27.099,28.235,25.717z M18.998,11.32c-1.176,0-2.132-0.748-2.132-1.667s0.957-1.667,2.132-1.667
			s2.132,0.748,2.132,1.667S20.174,11.32,18.998,11.32z M27.245,12.822v12.895c0,1.02-1.058,1.85-2.358,1.85H13.11
			c-1.301,0-2.359-0.83-2.359-1.85V12.822c0-1.02,1.058-1.851,2.359-1.851h3.184l0.007,0.011c0.557,0.816,1.591,1.323,2.699,1.323
			s2.143-0.507,2.7-1.324l3.188-0.01C26.187,10.971,27.245,11.801,27.245,12.822z"/>
		<rect x="21.647" y="24.977" fill="#FFFFFF" width="2.731" height="0.988"/>
		<rect x="13.244" y="24.977" fill="#FFFFFF" width="2.73" height="0.988"/>
		<path fill="#FFFFFF" d="M23.379,13.686h-8.763c-0.644,0-1.24,0.277-1.595,0.74c-0.29,0.382-0.387,0.856-0.265,1.303l1.467,5.381
			c0.204,0.751,0.968,1.274,1.858,1.274h5.833c0.891,0,1.655-0.523,1.859-1.274l1.467-5.38c0.122-0.446,0.026-0.921-0.265-1.305
			C24.617,13.962,24.022,13.686,23.379,13.686z M24.287,15.471l-1.467,5.381c-0.086,0.317-0.467,0.547-0.907,0.547H16.08
			c-0.438,0-0.82-0.23-0.907-0.547l-1.467-5.381c-0.023-0.088-0.009-0.293,0.132-0.476c0.112-0.146,0.336-0.321,0.777-0.321h8.763
			c0.441,0,0.666,0.174,0.778,0.32C24.298,15.177,24.312,15.379,24.287,15.471z"/>
	</g>
</g>
<g id="Слой_2_1_">
</g>
</svg>
