<?xml version="1.0" encoding="utf-8"?>
<!-- Generator: Adobe Illustrator 17.0.0, SVG Export Plug-In . SVG Version: 6.00 Build 0)  -->
<!DOCTYPE svg PUBLIC "-//W3C//DTD SVG 1.1//EN" "http://www.w3.org/Graphics/SVG/1.1/DTD/svg11.dtd">
<svg version="1.1" id="Слой_1" xmlns="http://www.w3.org/2000/svg" xmlns:xlink="http://www.w3.org/1999/xlink" x="0px" y="0px"
	 width="38px" height="38px" viewBox="0 0 38 38" enable-background="new 0 0 38 38" xml:space="preserve">
<rect x="10.238" y="21.773" fill="#CC5454" width="1" height="1.048"/>
<g>
	<circle fill="#22D793" cx="19" cy="19" r="19"/>
	<g>
		<path fill="#FFFFFF" d="M23.544,12.898l-0.064-0.093c-1.15-1.617-2.35-3.344-3.257-5.107c-0.251-0.5-0.77-0.823-1.321-0.823
			c-0.574,0-1.08,0.315-1.32,0.82c-0.856,1.688-1.925,3.264-2.958,4.787l-0.152,0.225c-2.186,3.167-4.25,6.158-4.25,9.516
			c0,5.159,3.64,8.903,8.655,8.903c5.076,0,8.903-3.827,8.903-8.903C27.779,18.942,25.723,16.007,23.544,12.898z M26.766,22.221
			c-0.001,4.497-3.393,7.888-7.89,7.888c-4.427,0-7.64-3.317-7.64-7.888c0-3.001,1.959-5.871,4.037-8.916
			c1.12-1.642,2.277-3.34,3.197-5.152c0.107-0.217,0.294-0.263,0.432-0.263c0.137,0,0.323,0.046,0.433,0.265
			c0.967,1.883,2.224,3.664,3.333,5.234l0.065,0.095C24.807,16.459,26.766,19.269,26.766,22.221z"/>
		<path fill="#FFFFFF" d="M15.852,14.264l-0.152,0.232c-0.805,1.229-1.718,2.621-2.392,4.039c-0.06,0.122-0.065,0.261-0.017,0.391
			c0.048,0.126,0.146,0.233,0.286,0.302c0.067,0.023,0.14,0.044,0.211,0.044c0.163,0,0.376-0.088,0.455-0.275
			c0.681-1.433,1.589-2.829,2.473-4.13c0.148-0.24,0.085-0.548-0.16-0.736C16.339,13.989,15.993,14.048,15.852,14.264z"/>
		<path fill="#FFFFFF" d="M13.351,19.763c-0.055-0.022-0.117-0.035-0.183-0.035c-0.21,0-0.401,0.127-0.479,0.319
			c-0.106,0.289-0.198,0.55-0.246,0.813c-0.048,0.268,0.115,0.521,0.389,0.604l0.119,0.005c0.23,0,0.458-0.182,0.508-0.405
			c0.048-0.216,0.098-0.438,0.196-0.665C13.759,20.166,13.626,19.886,13.351,19.763z"/>
	</g>
</g>
<g id="Слой_2_1_">
</g>
</svg>
