<?xml version="1.0" encoding="utf-8"?>
<!-- Generator: Adobe Illustrator 22.1.0, SVG Export Plug-In . SVG Version: 6.00 Build 0)  -->
<svg version="1.1" id="Слой_1" xmlns="http://www.w3.org/2000/svg" xmlns:xlink="http://www.w3.org/1999/xlink" x="0px" y="0px"
	 viewBox="0 0 64 64" style="enable-background:new 0 0 64 64;" xml:space="preserve">
<style type="text/css">
	.st0{fill:#EAEBEC;}
	.st1{fill:#2F3645;}
</style>
<g>
	<g>
		<path class="st0" d="M64,62c0,1.1-0.9,2-2,2H2c-1.1,0-2-0.9-2-2V2c0-1.1,0.9-2,2-2h60c1.1,0,2,0.9,2,2V62z"/>
	</g>
</g>
<path class="st1" d="M50.9,38.4c-0.6-0.6-1.3-0.6-1.9,0L47,40.3c-0.8-0.4-1.7-0.6-2.5-0.6c0,0,0,0,0-0.2c0-1.3-0.6-2.5-1.5-3.4
	l-2.5-2.5c-1-1-1-2.3,0-3.3l2.7-2.5c1-1,1.5-2.1,1.5-3.4c0,0,0,0,0-0.2c1,0,1.7-0.2,2.5-0.6l1.9,1.9c0.6,0.6,1.3,0.6,1.9,0
	c0.6-0.6,0.6-1.3,0-1.9l-1.9-1.9c0.4-0.8,0.6-1.5,0.6-2.5c0-1.3-0.6-2.5-1.5-3.4c-1-1-2.1-1.5-3.4-1.5c-0.8,0-1.7,0.2-2.5,0.6
	l-1.9-1.9c-0.6-0.6-1.3-0.6-1.9,0s-0.6,1.3,0,1.9l1.9,1.9c-0.4,0.8-0.6,1.5-0.6,2.5c0,0,0,0,0,0.2c-1.3,0-2.7,0.6-3.6,1.5l-2.5,2.3
	c-0.8,0.8-2.3,0.8-3.3,0l-2.5-2.5c-1-1-2.3-1.5-3.6-1.5c0-1-0.2-1.7-0.6-2.5l1.9-1.9c0.2-0.2,0.4-0.6,0.4-1c0-0.4-0.2-0.8-0.4-1
	c-0.4-0.2-0.8-0.4-1.1-0.4l0,0c-0.4,0-0.6,0.2-1,0.4l-1.9,1.9c-0.8-0.4-1.5-0.6-2.3-0.6c-1.3,0-2.5,0.6-3.4,1.5s-1.5,2.1-1.5,3.4
	c0,0.8,0.2,1.7,0.6,2.5l-1.9,1.9c-0.6,0.6-0.6,1.3,0,1.9c0.6,0.6,1.3,0.6,1.9,0l1.9-1.9c0.8,0.4,1.7,0.6,2.5,0.6c0,0,0,0,0,0.2
	c0,1.3,0.6,2.5,1.5,3.4l2.5,2.5c1,1,1,2.3,0,3.3l-2.5,2.5c-1,1-1.5,2.1-1.5,3.4c0,0,0,0,0,0.2c-1,0-1.7,0.2-2.5,0.6l-1.9-1.9
	c-0.2-0.2-0.6-0.4-1-0.4l0,0c-0.4,0-0.8,0.2-1,0.4c-0.6,0.6-0.6,1.3,0,1.9l1.9,1.9c-0.4,0.8-0.6,1.5-0.6,2.5c0,1.3,0.6,2.5,1.5,3.4
	c1,1,2.1,1.5,3.4,1.5c0.8,0,1.7-0.2,2.5-0.6l1.9,1.9c0.6,0.6,1.3,0.6,1.9,0c0.2-0.2,0.4-0.6,0.4-1s-0.2-0.8-0.6-1.1L23.5,47
	c0.4-0.8,0.6-1.5,0.6-2.5c0,0,0,0,0-0.2c1.3,0,2.7-0.6,3.6-1.5l2.5-2.5c0.8-0.8,2.3-0.8,3.3,0l2.5,2.5c1,1,2.3,1.5,3.6,1.5
	c0,0,0,0,0,0.2c0,0.8,0.2,1.7,0.6,2.5L38.2,49c-0.6,0.6-0.6,1.3,0,1.9c0.2,0.2,0.6,0.4,1,0.4s0.8-0.2,1-0.4l1.9-1.9
	c0.8,0.4,1.5,0.6,2.5,0.6c1.3,0,2.5-0.6,3.4-1.5c1-1,1.5-2.1,1.5-3.4c0-0.8-0.2-1.7-0.6-2.5l1.9-1.9C51.5,40,51.5,39,50.9,38.4z
	 M21.4,44.7c0,0.6-0.2,1.1-0.6,1.5c-0.8,0.8-2.3,0.8-3.3,0c-0.4-0.4-0.6-1-0.6-1.5c0-0.6,0.2-1.1,0.6-1.5c0.4-0.4,1-0.6,1.5-0.6
	c0.6,0,1.1,0.2,1.5,0.6C21.2,43.6,21.4,44.2,21.4,44.7z M20.8,20.8L20.8,20.8c-1,1-2.3,1-3.3,0c-0.4-0.4-0.6-1-0.6-1.5
	c0-0.6,0.2-1.1,0.6-1.5c0.4-0.4,1-0.6,1.5-0.6c0.6,0,1.1,0.2,1.5,0.6C21.6,18.5,21.7,19.8,20.8,20.8z M21,21L21,21L21,21L21,21z
	 M43.2,17.5c0.4-0.4,1-0.6,1.5-0.6s1.1,0.2,1.5,0.6c0.4,0.6,0.8,1.1,0.8,1.7c0,0.6-0.2,1.1-0.6,1.5c-0.8,0.8-2.3,0.8-3.3,0
	c-0.4-0.4-0.6-1-0.6-1.5C42.4,18.7,42.6,18.1,43.2,17.5L43.2,17.5z M26.7,31.9c0-1.3-0.6-2.5-1.5-3.4L22.7,26
	c-0.4-0.6-0.6-1.1-0.6-1.7c0-0.6,0.2-1.1,0.6-1.5l0,0c0.8-0.8,2.3-0.8,3.3,0l2.5,2.5c1,1,2.1,1.5,3.4,1.5c1.3,0,2.5-0.6,3.4-1.5
	l2.5-2.5c0.8-0.8,2.3-0.8,3.3,0c0.4,0.4,0.6,1,0.6,1.5c0,0.6-0.2,1.1-0.6,1.5l-2.5,2.5c-1,1-1.5,2.1-1.5,3.4c0,1.3,0.6,2.5,1.5,3.4
	l2.5,2.5c0.4,0.4,0.6,1,0.6,1.5s-0.2,1.1-0.6,1.5c-0.8,0.8-2.3,0.8-3.3,0l-2.3-2.1c-1-1-2.1-1.5-3.4-1.5c-1.3,0-2.5,0.6-3.4,1.5
	L26,41.1c-0.8,0.8-2.3,0.8-3.3,0c-0.4-0.4-0.6-1-0.6-1.5c0-0.6,0.2-1.1,0.6-1.5l2.5-2.5C26.2,34.6,26.7,33.2,26.7,31.9z M46.3,46.3
	c-0.8,0.8-2.3,0.8-3.1,0l0,0c-0.4-0.4-0.6-1-0.6-1.5c0-0.6,0.2-1.1,0.6-1.5c0.8-0.8,2.3-0.8,3.1,0l0,0c0.4,0.4,0.6,1,0.6,1.5
	C47,45.3,46.7,45.9,46.3,46.3z"/>
</svg>
