<?xml version="1.0" encoding="utf-8"?>
<!-- Generator: Adobe Illustrator 22.1.0, SVG Export Plug-In . SVG Version: 6.00 Build 0)  -->
<svg version="1.1" id="Слой_1" xmlns="http://www.w3.org/2000/svg" xmlns:xlink="http://www.w3.org/1999/xlink" x="0px" y="0px"
	 viewBox="0 0 64 64" style="enable-background:new 0 0 64 64;" xml:space="preserve">
<style type="text/css">
	.st0{fill:#EAEBEC;}
	.st1{fill:#1AD793;}
</style>
<g>
	<path class="st0" d="M64,62c0,1.1-0.9,2-2,2H2c-1.1,0-2-0.9-2-2V2c0-1.1,0.9-2,2-2h60c1.1,0,2,0.9,2,2V62z"/>
</g>
<path class="st1" d="M53.4,22.8c-1.2-6.2-5.7-10.2-11.4-10.2c-3.2,0-6.6,1.3-10,3.8c-3.4-2.6-6.9-3.9-10.1-3.9
	c-5.7,0-10.2,4.1-11.4,10.4c-1.8,9.3,4,21.8,20.9,28.5c0.2,0.1,0.4,0.1,0.6,0.1c0.2,0,0.4,0,0.6-0.1C49.5,44.5,55.2,32.1,53.4,22.8z
	 M32,48.3c-14.9-6.2-20-16.9-18.5-24.9c0.9-4.8,4.2-7.9,8.4-7.9c2.8,0,6,1.4,9.1,3.9c0.6,0.5,1.4,0.5,1.9,0c3.2-2.5,6.3-3.8,9.1-3.8
	c4.2,0,7.4,3,8.4,7.8C52,31.3,46.9,42,32,48.3z"/>
</svg>
