<?xml version="1.0" encoding="utf-8"?>
<!-- Generator: Adobe Illustrator 22.1.0, SVG Export Plug-In . SVG Version: 6.00 Build 0)  -->
<svg version="1.1" id="Слой_1" xmlns="http://www.w3.org/2000/svg" xmlns:xlink="http://www.w3.org/1999/xlink" x="0px" y="0px"
	 viewBox="0 0 64 64" style="enable-background:new 0 0 64 64;" xml:space="preserve">
<style type="text/css">
	.st0{fill:#EAEBEC;}
	.st1{fill:#2F3645;}
</style>
<g>
	<path class="st0" d="M64,62c0,1.1-0.9,2-2,2H2c-1.1,0-2-0.9-2-2V2c0-1.1,0.9-2,2-2h60c1.1,0,2,0.9,2,2V62z"/>
</g>
<g>
	<path class="st1" d="M53.2,29.5c0,5.2-1.8,9.6-5.5,13.2c-3.7,3.7-8.1,5.5-13.2,5.5c-4.4,0-8.3-1.4-11.7-4.1l-8.7,8.6
		c-0.4,0.4-0.9,0.6-1.4,0.6s-1-0.2-1.4-0.6c-0.4-0.4-0.6-0.9-0.6-1.4s0.2-1,0.6-1.4l8.6-8.7c-2.8-3.4-4.1-7.3-4.1-11.7
		c0-5.2,1.8-9.6,5.5-13.2s8.1-5.5,13.2-5.5s9.6,1.8,13.2,5.5C51.4,19.9,53.2,24.3,53.2,29.5z M50.4,29.5c0-4.4-1.5-8.1-4.6-11.2
		c-3.1-3.1-6.8-4.6-11.2-4.6s-8.1,1.5-11.2,4.6s-4.6,6.8-4.6,11.2s1.5,8.1,4.6,11.2c3.1,3.1,6.8,4.6,11.2,4.6s8.1-1.5,11.2-4.6
		C48.8,37.6,50.4,33.8,50.4,29.5z M44.2,28.4c0.3,0.3,0.4,0.6,0.4,1s-0.1,0.8-0.4,1s-0.6,0.4-1,0.4H36v7.2c0,0.4-0.1,0.8-0.4,1
		s-0.6,0.4-1,0.4c-0.4,0-0.8-0.1-1-0.4s-0.4-0.6-0.4-1v-7.2h-7.2c-0.4,0-0.8-0.1-1-0.4s-0.4-0.6-0.4-1s0.1-0.8,0.4-1s0.6-0.4,1-0.4
		h7.2v-7.2c0-0.4,0.1-0.8,0.4-1s0.6-0.4,1-0.4c0.4,0,0.8,0.1,1,0.4s0.4,0.6,0.4,1V28h7.2C43.6,28,43.9,28.2,44.2,28.4z"/>
</g>
</svg>
