<?xml version="1.0" encoding="utf-8"?>
<!-- Generator: Adobe Illustrator 22.1.0, SVG Export Plug-In . SVG Version: 6.00 Build 0)  -->
<svg version="1.1" id="Слой_1" xmlns="http://www.w3.org/2000/svg" xmlns:xlink="http://www.w3.org/1999/xlink" x="0px" y="0px"
	 viewBox="0 0 38 38" style="enable-background:new 0 0 38 38;" xml:space="preserve">
<style type="text/css">
	.st0{fill:#A3D4FF;}
	.st1{fill:#65B1FC;}
	.st2{fill:#545965;}
	.st3{fill:#31373E;}
	.st4{fill:#F55757;}
	.st5{fill:#FF193D;}
	.st6{fill:#FFFFFF;}
	.st7{fill:#E9EDF5;}
	.st8{fill:#FF936B;}
	.st9{fill:#FF8257;}
	.st10{fill:#D5D8DB;}
	.st11{fill:#FFCE00;}
	.st12{fill:#FFA426;}
</style>
<path class="st0" d="M38,19c0,10.5-8.5,19-19,19S0,29.5,0,19S8.5,0,19,0S38,8.5,38,19z"/>
<path class="st1" d="M33.6,14.9L33,15.5L28.5,11l0.7,2.5l1.3,7.6l-5.1,1l-13.4,0.3l-2.8-0.9L7.8,18l1,4.6l-0.4,4.9L18.2,38
	c0.3,0,0.5,0,0.8,0c10.4,0,18.8-8.3,19-18.7L33.6,14.9z"/>
<g>
	<path class="st2" d="M9.9,28H9.2c-0.7,0-1.3-0.6-1.3-1.3v-3.2c0-0.7,0.6-1.3,1.3-1.3h0.7c0.7,0,1.3,0.6,1.3,1.3v3.2
		C11.2,27.4,10.6,28,9.9,28z"/>
	<path class="st3" d="M28.8,28h-0.7c-0.7,0-1.3-0.6-1.3-1.3v-3.2c0-0.7,0.6-1.3,1.3-1.3h0.7c0.7,0,1.3,0.6,1.3,1.3v3.2
		C30.1,27.4,29.5,28,28.8,28z"/>
	<path class="st4" d="M9.1,11.4l-0.8,2.5c-0.7,2.2-1,4.5-1,6.9v3.1c0,1.1,0.9,2,2,2h19.4c1.1,0,2-0.9,2-2v-3.1c0-2.3-0.3-4.6-1-6.9
		l-0.8-2.5c-0.3-0.9-1-1.4-1.9-1.4H11C10.1,10,9.3,10.5,9.1,11.4z"/>
	<path class="st5" d="M29.7,13.9l-0.8-2.5c-0.3-0.9-1-1.4-1.9-1.4h-8v15.9h9.7c1.1,0,2-0.9,2-2v-3.1C30.7,18.4,30.4,16.1,29.7,13.9z
		"/>
	<path class="st6" d="M29,14.2L28.3,12c-0.2-0.8-1-1.3-1.8-1.3h-15c-0.8,0-1.6,0.5-1.8,1.3L9,14.2c-0.2,0.7-0.4,1.5-0.6,2.3h21.1
		C29.4,15.7,29.2,15,29,14.2z"/>
	<path class="st7" d="M29,14.2L28.3,12c-0.2-0.8-1-1.3-1.8-1.3H19v5.8h10.6C29.4,15.7,29.2,15,29,14.2z"/>
	<path class="st8" d="M7.7,17.6H6.5c-1.2,0-2.1-0.9-2.1-2.1v-1.1h3.2L7.7,17.6L7.7,17.6z"/>
	<path class="st9" d="M31.5,17.6h-1.1v-3.2h3.2v1.1C33.5,16.7,32.6,17.6,31.5,17.6z"/>
	<path class="st6" d="M25.9,19.4H11.6l-3.1-0.7v0.1c0,1.3,0.9,2.4,2.2,2.7l1,0.2H26l1.4-0.3c1.3-0.3,2.3-1.4,2.3-2.8L25.9,19.4z"/>
	<path class="st7" d="M11.6,19.4h14.3v2.3H11.6V19.4z"/>
	<path class="st10" d="M19,19.4h6.9v2.3H19V19.4z"/>
	<path class="st8" d="M25.9,25.8H11.6l1.5-3.5h11.4L25.9,25.8z"/>
	<path class="st9" d="M24.4,22.4H19v3.5h6.9L24.4,22.4z"/>
	<path class="st11" d="M8.6,22.4h2.9v2H8.6V22.4z"/>
	<path class="st12" d="M26.6,22.4h2.9v2h-2.9V22.4z"/>
</g>
</svg>
