<?xml version="1.0" encoding="utf-8"?>
<!-- Generator: Adobe Illustrator 22.1.0, SVG Export Plug-In . SVG Version: 6.00 Build 0)  -->
<svg version="1.1" id="Слой_1" xmlns="http://www.w3.org/2000/svg" xmlns:xlink="http://www.w3.org/1999/xlink" x="0px" y="0px"
	 viewBox="0 0 38 38" style="enable-background:new 0 0 38 38;" xml:space="preserve">
<style type="text/css">
	.st0{fill:#06B26B;}
	.st1{fill:#0A9154;}
	.st2{fill:#AFB4C8;}
	.st3{fill:#FF5B5B;}
	.st4{fill:#F7183B;}
	.st5{fill:#E84F4F;}
	.st6{fill:#FFFFFF;}
	.st7{fill:#E9EDF5;}
</style>
<g id="beach">
	<circle class="st0" cx="19" cy="19" r="19"/>
	<path class="st1" d="M38,19.8L30.2,12l-23,0.6L21.6,27L7.7,27.4l2.3,2.3l-1.7,1.5l6.2,6.2c1.4,0.4,3,0.5,4.5,0.5
		C29.2,38,37.6,29.9,38,19.8z"/>
	<path class="st2" d="M18.3,12.8h0.8v16.5c-0.3,0.1-0.5,0.2-0.8,0L18.3,12.8L18.3,12.8z"/>
	<path class="st3" d="M14.3,14.6l4.3-9l4.3,9H14.3z"/>
	<path class="st4" d="M18.6,5.6l4.3,9h-4.3V5.6L18.6,5.6z"/>
	<path class="st5" d="M18.6,5.6c0,0-4.6,0.1-7.4,2.1S7,12,7,12l2.7,1.2L18.6,5.6z"/>
	<path class="st6" d="M18.6,5.6c-4.3,2-7.4,4.9-8.9,7.6l4.6,1.4L18.6,5.6L18.6,5.6L18.6,5.6z"/>
	<path class="st4" d="M18.6,5.6c0,0,4.6,0.1,7.5,2.1c2.8,2,4.2,4.2,4.2,4.2l-2.7,1.2L18.6,5.6L18.6,5.6z"/>
	<path class="st6" d="M18.6,5.6c4.3,2,7.4,4.9,8.9,7.6l-4.6,1.4L18.6,5.6L18.6,5.6L18.6,5.6z"/>
	<path class="st6" d="M7,12c-0.1,0.7,1.2,1.9,2.7,1.2L7,12z"/>
	<path class="st3" d="M9.7,13.2c0.1,0.8,2.8,2.2,4.6,1.4L9.7,13.2z"/>
	<path class="st6" d="M14.3,14.6c0,0,1.4,0.9,4.4,0.8s4.1-0.8,4.1-0.8H14.3z"/>
	<path class="st7" d="M18.6,15.4h0.1c3-0.1,4.1-0.8,4.1-0.8h-4.3V15.4L18.6,15.4L18.6,15.4z"/>
	<path class="st4" d="M27.5,13.2c-0.1,0.8-2.8,2.2-4.6,1.4L27.5,13.2z"/>
	<g>
		<path class="st7" d="M30.2,12c0.1,0.7-1.2,1.9-2.7,1.2L30.2,12z"/>
		<path class="st7" d="M18.6,4.5c0.2,0,0.3,1.2,0.3,1.2c-0.1,0.1-0.5,0.1-0.6,0C18.3,5.7,18.4,4.5,18.6,4.5L18.6,4.5
			C18.6,4.5,18.6,4.5,18.6,4.5z"/>
		<path class="st6" d="M7.8,26.5h16.5c0.3,0,0.5,0.2,0.5,0.5l0,0c0,0.3-0.2,0.5-0.5,0.5H7.8c-0.3,0-0.5-0.2-0.5-0.5l0,0
			C7.4,26.7,7.6,26.5,7.8,26.5z"/>
		<path class="st7" d="M24,26.6l7.5-5.5c0.4-0.1,0.6,0.5,0.3,0.7l-7.2,5.4C24.1,27.6,23.5,26.9,24,26.6z"/>
	</g>
	<path class="st4" d="M23.9,25.8l6.7-5c0.7-0.5,1.1,0.3,0.7,0.6l-6.8,5.1c-0.1,0.1-0.3,0.3-0.7,0.2H7.9c-0.2,0-0.4-0.2-0.4-0.5l0,0
		c0-0.3,0.2-0.5,0.4-0.5L23.9,25.8L23.9,25.8L23.9,25.8z"/>
	<g>
		<path class="st6" d="M8.2,30.9l5.7-4.2c0,0,0.1,0,0.1,0.1l0.2,0.3c0,0.1,0,0.1,0,0.2l-5.7,4.2c0,0-0.1,0-0.1-0.1l-0.2-0.3
			C8.2,31.1,8.2,31,8.2,30.9z"/>
		<path class="st7" d="M27.6,30.9l-5.7-4.2c0,0-0.1,0-0.1,0.1l-0.2,0.3c0,0.1,0,0.1,0,0.2l5.7,4.2c0,0,0.1,0,0.1-0.1l0.2-0.3
			C27.6,31.1,27.6,31,27.6,30.9z"/>
	</g>
</g>
</svg>
