<?xml version="1.0" encoding="utf-8"?>
<!-- Generator: Adobe Illustrator 22.1.0, SVG Export Plug-In . SVG Version: 6.00 Build 0)  -->
<svg version="1.1" id="Слой_1" xmlns="http://www.w3.org/2000/svg" xmlns:xlink="http://www.w3.org/1999/xlink" x="0px" y="0px"
	 viewBox="0 0 38 38" style="enable-background:new 0 0 38 38;" xml:space="preserve">
<style type="text/css">
	.st0{fill:#06B26B;}
	.st1{fill:#0A9154;}
	.st2{fill:#545965;}
	.st3{fill:#31373E;}
	.st4{fill:#FFFFFF;}
	.st5{fill:#E9EDF5;}
	.st6{fill:#AFB4C8;}
	.st7{fill:#9196AA;}
	.st8{fill:#FFCE00;}
	.st9{fill:#FFA426;}
	.st10{fill:#DCE1EB;}
</style>
<g id="bus_1_">
	<path class="st0" d="M38,19c0,10.5-8.5,19-19,19S0,29.5,0,19S8.5,0,19,0S38,8.5,38,19z"/>
	<g>
		<path class="st1" d="M31,9.4l-1.2-1.2C30,8.5,30.2,9,30.2,9.4H31z"/>
		<path class="st1" d="M37,13.1l-3.6-3.6v4.8h-2.2v-2.7h-0.9l0.6,13.5c-0.1,0.8-0.4,1.5-1,1.9v2.7c0,0.6-0.5,1.1-1.1,1.1h-2.2
			c-0.6,0-1.1-0.5-1.1-1.1v-2.1h-13v2.1c0,0.6-0.5,1.1-1.1,1.1H9.2c-0.2,0-0.4-0.1-0.6-0.2l7.1,7.1c1.1,0.2,2.2,0.3,3.3,0.3
			c10.5,0,19-8.5,19-19C38,16.9,37.7,14.9,37,13.1z"/>
	</g>
	<path class="st2" d="M11.4,30.8H9.2c-0.6,0-1.1-0.5-1.1-1.1v-7.1c0-0.6,0.5-1.1,1.1-1.1h2.2c0.6,0,1.1,0.5,1.1,1.1v7.1
		C12.5,30.3,12,30.8,11.4,30.8z"/>
	<path class="st3" d="M28.8,30.8h-2.2c-0.6,0-1.1-0.5-1.1-1.1v-7.1c0-0.6,0.5-1.1,1.1-1.1h2.2c0.6,0,1.1,0.5,1.1,1.1v7.1
		C29.9,30.3,29.4,30.8,28.8,30.8z"/>
	<path class="st4" d="M28.4,27.6H9.6c-1.4,0-2.5-1.1-2.4-2.5L7.9,9.4c0-1.3,1.1-2.3,2.4-2.3h17.5c1.3,0,2.3,1,2.4,2.3l0.7,15.7
		C30.8,26.5,29.7,27.6,28.4,27.6z"/>
	<path class="st5" d="M30.8,25.1L30.1,9.4C30,8.1,29,7.1,27.7,7.1H19v20.5h9.4C29.7,27.6,30.8,26.5,30.8,25.1z"/>
	<path class="st6" d="M27.9,17.7H10.1c-0.7,0-1.2-0.6-1.2-1.2l0.2-6.9c0-0.7,0.6-1.2,1.2-1.2h17.4c0.7,0,1.2,0.5,1.2,1.2l0.2,6.9
		C29.1,17.2,28.6,17.7,27.9,17.7z"/>
	<path class="st7" d="M28.9,9.5c0-0.7-0.6-1.2-1.2-1.2H19v9.4h8.9c0.7,0,1.2-0.6,1.2-1.2L28.9,9.5z"/>
	<path class="st8" d="M13.3,23H8.9v-2.7h2.4c1.1,0,2.1,0.9,2.1,2.1L13.3,23L13.3,23z"/>
	<path class="st9" d="M24.7,23h4.5v-2.7h-2.4c-1.1,0-2.1,0.9-2.1,2.1V23z"/>
	<path class="st5" d="M6.8,14.3H4.6V9.4h3.9v2.2H6.8V14.3z"/>
	<path class="st10" d="M33.4,14.3h-2.2v-2.7h-1.7V9.4h3.9V14.3z"/>
	<path class="st6" d="M8.9,23.2h20.3v2.2H8.9V23.2z"/>
	<path class="st7" d="M19,23.2h10.1v2.2H19V23.2z"/>
</g>
</svg>
