<?xml version="1.0" encoding="utf-8"?>
<!-- Generator: Adobe Illustrator 22.1.0, SVG Export Plug-In . SVG Version: 6.00 Build 0)  -->
<svg version="1.1" id="Слой_1" xmlns="http://www.w3.org/2000/svg" xmlns:xlink="http://www.w3.org/1999/xlink" x="0px" y="0px"
	 viewBox="0 0 38 38" style="enable-background:new 0 0 38 38;" xml:space="preserve">
<style type="text/css">
	.st0{fill:#FFCE00;}
	.st1{fill:#FFA426;}
	.st2{fill:#FFFFFF;}
	.st3{fill:#E9EDF5;}
	.st4{fill:#F55757;}
	.st5{fill:#FF193D;}
	.st6{fill:#FF936B;}
	.st7{fill:#FF8257;}
</style>
<g id="cafe">
	<path class="st0" d="M38,19c0,10.5-8.5,19-19,19S0,29.5,0,19S8.5,0,19,0S38,8.5,38,19z"/>
	<path class="st1" d="M38,19c0-0.2,0-0.5,0-0.7L26.2,6.5l-16.5,5l11,11l-9.2,5.6l3.3,3.3l-2.4,2l4.6,4.6C17.6,38,18.3,38,19,38
		C29.5,38,38,29.5,38,19z"/>
	<path class="st2" d="M27.2,9.6H10.8l1.1-4l14.2,0.9L27.2,9.6z"/>
	<path class="st3" d="M26.2,6.5L19,6v3.5h8.2L26.2,6.5z"/>
	<path class="st4" d="M25.7,33.3H12.3L10.8,10h16.4L25.7,33.3z"/>
	<path class="st5" d="M27.2,10H19v23.3h6.7L27.2,10z"/>
	<path class="st2" d="M27.3,16.5H10.7l0.7,11.5h15.1L27.3,16.5z"/>
	<path class="st3" d="M27.3,16.5H19v11.5h7.5L27.3,16.5z"/>
	<path class="st6" d="M9.6,8.7h18.7v2.8H9.6V8.7z"/>
	<path class="st7" d="M19,8.7h9.4v2.8H19V8.7z"/>
	<path class="st6" d="M21.8,20.1l-4.7,4.7c1,0.5,2.6,0.2,3.7-1C21.9,22.6,22.3,21.1,21.8,20.1z"/>
	<path class="st7" d="M21.8,20.1L19,22.8v2c0.6-0.2,1.3-0.5,1.8-1.1C21.9,22.6,22.3,21.1,21.8,20.1z"/>
	<path class="st6" d="M20.9,19.2c-1-0.5-2.6-0.2-3.7,1c-1.1,1.1-1.5,2.7-1,3.7L20.9,19.2z"/>
	<path class="st7" d="M19,19.1v2l1.9-1.9C20.4,18.9,19.7,18.9,19,19.1z"/>
</g>
</svg>
