<?xml version="1.0" encoding="utf-8"?>
<!-- Generator: Adobe Illustrator 22.1.0, SVG Export Plug-In . SVG Version: 6.00 Build 0)  -->
<svg version="1.1" id="Слой_1" xmlns="http://www.w3.org/2000/svg" xmlns:xlink="http://www.w3.org/1999/xlink" x="0px" y="0px"
	 viewBox="0 0 38 38" style="enable-background:new 0 0 38 38;" xml:space="preserve">
<style type="text/css">
	.st0{fill:#A3D4FF;}
	.st1{clip-path:url(#SVGID_2_);fill:#65B1FC;}
	.st2{fill:#FFA426;}
	.st3{fill:#68544F;}
	.st4{fill:#3E322E;}
	.st5{fill:#0A9154;}
	.st6{fill:#06B26B;}
	.st7{fill:#31373E;}
	.st8{fill:#545965;}
	.st9{fill:#00A03C;}
	.st10{fill:#FFCE00;}
</style>
<g id="park">
	<circle class="st0" cx="19" cy="19" r="19"/>
	<g>
		<defs>
			<circle id="SVGID_1_" cx="19" cy="19" r="19"/>
		</defs>
		<clipPath id="SVGID_2_">
			<use xlink:href="#SVGID_1_"  style="overflow:visible;"/>
		</clipPath>
		<path class="st1" d="M38.6,19c0-0.1-8.9-7.9-8.9-7.9l-1.3,1.3l-4.4-5.1L17,8.6L15.9,11l1.2,3.6h10.8l-12,6.6L13.3,25v4.4l-1.9,1.9
			L19,39c0.8,0.1,3,0,3.8,0C33.3,39,38.6,29.5,38.6,19z"/>
	</g>
	<g>
		<path class="st2" d="M7.8,30.9v-6c0-0.4,0.3-0.7,0.7-0.7h4.5c0.4,0,0.7,0.3,0.7,0.7v6c0,0.4-0.3,0.7-0.7,0.7s-0.7-0.3-0.7-0.7v-3
			h-3v3c0,0.4-0.3,0.7-0.7,0.7C8.1,31.7,7.8,31.3,7.8,30.9z"/>
		<path class="st3" d="M20.5,30.9h-3v-6h3V30.9z"/>
		<path class="st4" d="M19,30.9h-1.5v-6H19V30.9z"/>
		<path class="st5" d="M12.3,19.7c0,4.1,3,7.4,6.7,7.4s6.7-3.3,6.7-7.4c0-1.8-0.6-3.6-1.7-4.9c0.1-0.6,0.2-1.2,0.2-1.8
			c0-3.7-2.3-6.7-5.2-6.7s-5.2,3-5.2,6.7c0,0.6,0.1,1.2,0.2,1.8C12.9,16.2,12.3,17.9,12.3,19.7z"/>
		<path class="st6" d="M14,14.8c-0.1-0.6-0.2-1.2-0.2-1.8c0-3.7,2.3-6.7,5.2-6.7v20.8c-3.7,0-6.7-3.3-6.7-7.4
			C12.3,17.9,12.9,16.2,14,14.8z"/>
		<path class="st7" d="M26.4,30.9h-3v-6h3V30.9z"/>
		<path class="st8" d="M24.9,30.9h-1.5v-6h1.5V30.9z"/>
		<path class="st5" d="M18.3,19.7c0,4.1,3,7.4,6.7,7.4s6.7-3.3,6.7-7.4c0-1.8-0.6-3.6-1.7-4.9c0.1-0.6,0.2-1.2,0.2-1.8
			c0-3.7-2.3-6.7-5.2-6.7s-5.2,3-5.2,6.7c0,0.6,0.1,1.2,0.2,1.8C18.9,16.2,18.3,17.9,18.3,19.7z"/>
		<path class="st9" d="M7.1,30.2h23.8c0.4,0,0.7,0.3,0.7,0.7s-0.3,0.7-0.7,0.7H7.1c-0.4,0-0.7-0.3-0.7-0.7S6.7,30.2,7.1,30.2z"/>
		<path class="st10" d="M6.3,27.9c0-0.4,0.3-0.7,0.7-0.7h7.5c0.4,0,0.7,0.3,0.7,0.7s-0.3,0.7-0.7,0.7H7.1
			C6.7,28.6,6.3,28.3,6.3,27.9z"/>
		<g>
			<g>
				<path class="st6" d="M19.9,14.8c-0.1-0.6-0.2-1.2-0.2-1.8c0-3.7,2.3-6.7,5.2-6.7v20.8c-3.7,0-6.7-3.3-6.7-7.4
					C18.3,17.9,18.9,16.2,19.9,14.8z"/>
				<path class="st6" d="M7.1,30.2H19v1.5H7.1c-0.4,0-0.7-0.3-0.7-0.7S6.7,30.2,7.1,30.2z"/>
			</g>
		</g>
	</g>
</g>
</svg>
