<?xml version="1.0" encoding="utf-8"?>
<!-- Generator: Adobe Illustrator 22.1.0, SVG Export Plug-In . SVG Version: 6.00 Build 0)  -->
<svg version="1.1" id="Слой_1" xmlns="http://www.w3.org/2000/svg" xmlns:xlink="http://www.w3.org/1999/xlink" x="0px" y="0px"
	 viewBox="0 0 38 38" style="enable-background:new 0 0 38 38;" xml:space="preserve">
<style type="text/css">
	.st0{fill:#FFCE00;}
	.st1{fill:#FFA426;}
	.st2{fill:#F55757;}
	.st3{fill:#FF193D;}
	.st4{fill:#FF936B;}
	.st5{fill:#FF8257;}
	.st6{fill:#FFFFFF;}
	.st7{fill:#E9EDF5;}
</style>
<g id="garbage_1_">
	<path class="st0" d="M38,19c0,10.5-8.5,19-19,19S0,29.5,0,19S8.5,0,19,0S38,8.5,38,19z"/>
	<path class="st1" d="M38,19c0-1.1-0.1-2.1-0.3-3.1l-6.6-6.6L28.3,15l-5.8-5.8l-9.9,3.3L9.3,9.2l-3.1,3.7l11.8,11.8l-9.2,5.8
		l7.2,7.2c1,0.2,2,0.2,3.1,0.2C29.5,38,38,29.5,38,19z"/>
	<path class="st2" d="M29.3,30.5H8.7L7.1,11.7h23.8L29.3,30.5z"/>
	<path class="st3" d="M30.9,11.7H19v18.8h10.3L30.9,11.7z"/>
	<path class="st4" d="M28.7,9.2L28,10.3h-4.7l-0.8-1.1h-7l-0.8,1.1H10L9.3,9.2l-2.4,0l-0.8,3.7h25.7l-0.8-3.7H28.7z"/>
	<path class="st5" d="M31.1,9.2h-2.4L28,10.3h-4.7l-0.8-1.1H19v3.7h12.9L31.1,9.2z"/>
	<path class="st6" d="M13.2,27.6l-1-1.7l2.2-3.7l1.9,1.1l-1.2,2h2.1v2.2H13.2z"/>
	<path class="st7" d="M20.7,27.6v-2.2h2.2l-1.2-2.1l1.9-1.1l2.2,3.7l-1,1.7H20.7z"/>
	<path class="st6" d="M20.4,21L19,18.7L17.7,21l-1.9-1.1l2.3-4.1l1.9,0l2.4,4.1L20.4,21z"/>
	<path class="st7" d="M20,15.8l-1,0v2.8l1.4,2.3l1.9-1.1L20,15.8z"/>
</g>
</svg>
