<?xml version="1.0" encoding="utf-8"?>
<!-- Generator: Adobe Illustrator 22.1.0, SVG Export Plug-In . SVG Version: 6.00 Build 0)  -->
<svg version="1.1" id="Слой_1" xmlns="http://www.w3.org/2000/svg" xmlns:xlink="http://www.w3.org/1999/xlink" x="0px" y="0px"
	 viewBox="0 0 38 38" style="enable-background:new 0 0 38 38;" xml:space="preserve">
<style type="text/css">
	.st0{fill:#FF5B5B;}
	.st1{clip-path:url(#SVGID_2_);fill:#F7183B;}
	.st2{clip-path:url(#SVGID_2_);fill:#FFC612;}
	.st3{clip-path:url(#SVGID_2_);fill:#FC9E15;}
	.st4{clip-path:url(#SVGID_2_);fill:#FFE670;}
	.st5{clip-path:url(#SVGID_2_);fill:#FFCF00;}
</style>
<g id="gas">
	<circle class="st0" cx="19" cy="19" r="19"/>
	<g>
		<defs>
			<circle id="SVGID_1_" cx="19" cy="19" r="19"/>
		</defs>
		<clipPath id="SVGID_2_">
			<use xlink:href="#SVGID_1_"  style="overflow:visible;"/>
		</clipPath>
		<polygon class="st1" points="29.1,41.2 11.4,27.2 19,7.6 41.2,27.2 		"/>
		<path class="st2" d="M26.4,15.3c0,0,0.3,2-0.9,2.9c0,0,1.2-6.2-8.3-11.8c0.4,0.9,0.7,1.9,0.7,3.1c0,2.8-1.4,5-3.1,5
			c-1.1,0-2-0.9-2.6-2.3c-0.5,0.9-3.1,5.5-2.6,10.3c0.6,5.8,6,7.7,9.3,9.2c0,0,5.5-1.4,8.1-5.7C29.4,22,28.1,17,26.4,15.3z"/>
		<path class="st3" d="M26.4,15.3c0,0,0.3,2-0.9,2.9c0,0,1.1-5.4-6.5-10.7v24.2c0,0,5.5-1.4,8.1-5.7C29.4,22,28.1,17,26.4,15.3z"/>
		<path class="st4" d="M19,15.2c0,0,4.3,3.8,3.3,8.1c0,0,1.8-1.1,2.6-3.1c0,0,0.9,7.5-5.9,9.4c0,0-4.9-1.9-4.8-6.5
			c0,0,1.2,1.4,2,1.7c0,0-0.7-1.5,0-3.4C16.9,19.3,18,18.1,19,15.2z"/>
		<path class="st5" d="M24.9,20.2c-0.8,2-2.6,3.1-2.6,3.1c1-4.4-3.3-8.1-3.3-8.1v14.4C25.8,27.7,24.9,20.2,24.9,20.2z"/>
	</g>
</g>
</svg>
