<?xml version="1.0" encoding="utf-8"?>
<!-- Generator: Adobe Illustrator 22.1.0, SVG Export Plug-In . SVG Version: 6.00 Build 0)  -->
<svg version="1.1" id="Слой_1" xmlns="http://www.w3.org/2000/svg" xmlns:xlink="http://www.w3.org/1999/xlink" x="0px" y="0px"
	 viewBox="0 0 38 38" style="enable-background:new 0 0 38 38;" xml:space="preserve">
<style type="text/css">
	.st0{fill:#06B26B;}
	.st1{clip-path:url(#SVGID_2_);fill:#0A9154;}
	.st2{fill:#FFFFFF;}
	.st3{fill:#E9EDF5;}
	.st4{fill:#AFB4C8;}
	.st5{fill:#9196AA;}
	.st6{fill:#FFCE00;}
	.st7{fill:#FFA426;}
</style>
<g id="gas_station">
	<path class="st0" d="M38,19c0,10.5-8.5,19-19,19S0,29.5,0,19S8.5,0,19,0S38,8.5,38,19z"/>
	<g>
		<defs>
			<path id="SVGID_1_" d="M38,19c0,10.5-8.5,19-19,19S0,29.5,0,19S8.5,0,19,0S38,8.5,38,19z"/>
		</defs>
		<clipPath id="SVGID_2_">
			<use xlink:href="#SVGID_1_"  style="overflow:visible;"/>
		</clipPath>
		<path class="st1" d="M38.5,20.7c0-0.1,0-0.2,0-0.3L25.6,7.5l0.1,3.6l-3.6-3.6L8.5,31.1L17,39c0.8,0.1-0.9,0,0,0
			C27.5,39,38.5,31.2,38.5,20.7z"/>
	</g>
	<g>
		<path class="st2" d="M22.6,31.1h-14V8.6c0-0.9,0.7-1.7,1.7-1.7h10.7c0.9,0,1.7,0.7,1.7,1.7V31.1z"/>
		<path class="st3" d="M22.6,8.6c0-0.9-0.7-1.7-1.7-1.7h-5.4v24.2h7V8.6z"/>
		<path class="st4" d="M10.2,8.9h10.8v6.2H10.2V8.9z"/>
		<path class="st5" d="M15.5,8.9H21v6.2h-5.4V8.9z"/>
		<path class="st4" d="M25.6,7.5l-1.8,1.3l1.6,2.2v4.6h1.8V27c0,0.4-0.3,0.7-0.7,0.7s-0.7-0.3-0.7-0.7v-9.1h-3.3v2.2h1V27
			c0,1.6,1.3,2.9,2.9,2.9s2.9-1.3,2.9-2.9V12.7L25.6,7.5z"/>
		<path class="st5" d="M26.5,8.7v6.8h0.7V27c0,0.4-0.3,0.7-0.7,0.7V30c1.6,0,2.9-1.3,2.9-2.9V12.7L26.5,8.7z"/>
		<path class="st6" d="M18.1,23.5c0,1.4-1.2,2.6-2.6,2.6S13,25,13,23.5s2.6-4.6,2.6-4.6S18.1,22.1,18.1,23.5z"/>
		<path class="st7" d="M15.5,18.9l0,7.2c0,0,0,0,0,0c1.4,0,2.6-1.2,2.6-2.6S15.5,18.9,15.5,18.9z"/>
	</g>
</g>
</svg>
