<?xml version="1.0" encoding="utf-8"?>
<!-- Generator: Adobe Illustrator 22.1.0, SVG Export Plug-In . SVG Version: 6.00 Build 0)  -->
<svg version="1.1" id="Слой_1" xmlns="http://www.w3.org/2000/svg" xmlns:xlink="http://www.w3.org/1999/xlink" x="0px" y="0px"
	 viewBox="0 0 38 38" style="enable-background:new 0 0 38 38;" xml:space="preserve">
<style type="text/css">
	.st0{fill:#A3D4FF;}
	.st1{fill:#65B1FC;}
	.st2{fill:#AFB4C8;}
	.st3{fill:#9196AA;}
	.st4{fill:#ECECF1;}
	.st5{fill:#D3D3D8;}
</style>
<g id="Щебень">
	<g id="road_7_">
		<circle class="st0" cx="19" cy="19" r="19"/>
		<path class="st1" d="M24.8,16.1l-2.8-2.8L9.5,31.7l7.3,6.2C17.5,38,18.3,38,19,38c10.5,0,19-8.5,19-19c0-0.7,0-1.5-0.1-2.2
			L28.5,6.3L24.8,16.1z"/>
	</g>
	<path class="st2" d="M24.9,7.5v23c0,0.7-0.5,1.2-1.2,1.2h-9.5c-0.7,0-1.2-0.5-1.2-1.2v-23c0-0.7,0.5-1.2,1.2-1.2h9.5
		C24.4,6.3,24.9,6.9,24.9,7.5z"/>
	<path class="st2" d="M24.2,31.7c0.4,0,0.7-0.3,0.7-0.7V7.1c0-0.4-0.3-0.7-0.7-0.7H19v25.3H24.2z"/>
	<g>
		<path class="st2" d="M28.6,31.7V6.3h-3c-0.4,0-0.7,0.3-0.7,0.7v23.8c0,0.4,0.3,0.7,0.7,0.7H28.6z"/>
		<path class="st2" d="M9.4,6.3v25.3h3c0.4,0,0.7-0.3,0.7-0.7V7.1c0-0.4-0.3-0.7-0.7-0.7L9.4,6.3L9.4,6.3z"/>
	</g>
	<g>
		<circle class="st3" cx="17.5" cy="10.6" r="0.6"/>
		<circle class="st3" cx="17.3" cy="27" r="0.6"/>
		<circle class="st3" cx="14.8" cy="26.4" r="0.6"/>
		<circle class="st3" cx="14.3" cy="23.1" r="0.6"/>
		<circle class="st3" cx="18.3" cy="14.6" r="0.9"/>
		<circle class="st3" cx="15.6" cy="30.2" r="0.9"/>
		<circle class="st3" cx="16.4" cy="24" r="0.6"/>
		<circle class="st3" cx="16.2" cy="21.4" r="0.6"/>
		<circle class="st3" cx="14.5" cy="7" r="0.6"/>
		<circle class="st3" cx="15.8" cy="12.8" r="0.6"/>
		<circle class="st3" cx="15.1" cy="9.1" r="0.9"/>
		<circle class="st3" cx="17.2" cy="7" r="0.6"/>
		<circle class="st3" cx="13.1" cy="10.7" r="0.6"/>
		<circle class="st3" cx="14.5" cy="18.7" r="0.9"/>
		<circle class="st3" cx="13" cy="13" r="0.6"/>
		<circle class="st3" cx="15.2" cy="15.6" r="0.6"/>
		<circle class="st3" cx="17.1" cy="17.8" r="0.6"/>
		<circle class="st3" cx="18.3" cy="22.4" r="0.6"/>
	</g>
	<g>
		<circle class="st3" cx="23.5" cy="18.7" r="0.6"/>
		<circle class="st3" cx="23" cy="30.8" r="0.6"/>
		<circle class="st3" cx="20.4" cy="16.3" r="0.6"/>
		<circle class="st3" cx="20.4" cy="29" r="0.6"/>
		<circle class="st3" cx="21.3" cy="19" r="0.6"/>
		<circle class="st3" cx="24" cy="11.6" r="0.6"/>
		<circle class="st3" cx="21.7" cy="13.6" r="0.6"/>
		<circle class="st3" cx="23.9" cy="16" r="0.6"/>
		<circle class="st3" cx="23.3" cy="26.7" r="0.9"/>
		<circle class="st3" cx="21.1" cy="22.6" r="0.6"/>
		<circle class="st3" cx="19.9" cy="26" r="0.6"/>
		<circle class="st3" cx="23.2" cy="24.1" r="0.6"/>
		<circle class="st3" cx="20.4" cy="7.1" r="0.6"/>
		<circle class="st3" cx="19.6" cy="11.8" r="0.6"/>
		<circle class="st3" cx="19.5" cy="9.2" r="0.6"/>
		<circle class="st3" cx="22.1" cy="9.4" r="0.9"/>
		<circle class="st3" cx="23.7" cy="7.2" r="0.6"/>
		<circle class="st3" cx="22.8" cy="21" r="0.6"/>
		<circle class="st3" cx="19" cy="20.2" r="0.6"/>
	</g>
	<rect x="18.3" y="20.5" class="st4" width="1.5" height="4.5"/>
	<rect x="18.3" y="13.1" class="st4" width="1.5" height="4.5"/>
	<rect x="18.3" y="27.9" class="st4" width="1.5" height="3.8"/>
	<rect x="18.3" y="6.3" class="st4" width="1.5" height="3.8"/>
	<rect x="12.3" y="6.3" class="st4" width="1.5" height="25.3"/>
	<rect x="24.2" y="6.3" class="st5" width="1.5" height="25.3"/>
	<rect x="19" y="27.9" class="st5" width="0.7" height="3.8"/>
	<rect x="19" y="20.5" class="st5" width="0.7" height="4.5"/>
	<rect x="19" y="13.1" class="st5" width="0.7" height="4.5"/>
	<rect x="19" y="6.3" class="st5" width="0.7" height="3.8"/>
</g>
</svg>
