<?xml version="1.0" encoding="utf-8"?>
<!-- Generator: Adobe Illustrator 22.1.0, SVG Export Plug-In . SVG Version: 6.00 Build 0)  -->
<svg version="1.1" id="Слой_1" xmlns="http://www.w3.org/2000/svg" xmlns:xlink="http://www.w3.org/1999/xlink" x="0px" y="0px"
	 viewBox="0 0 38 38" style="enable-background:new 0 0 38 38;" xml:space="preserve">
<style type="text/css">
	.st0{fill:#FFCE00;}
	.st1{fill:#FFA426;}
	.st2{fill:#AFB4C8;}
	.st3{fill:#F7183B;}
	.st4{fill:#FF5B5B;}
	.st5{fill:#ECECF1;}
	.st6{fill:#D3D3D8;}
</style>
<g id="кирпич">
	<g id="road_3_">
		<circle class="st0" cx="19" cy="19" r="19"/>
		<path class="st1" d="M24.8,16.1l-2.8-2.8L9.5,31.7l7.3,6.2C17.5,38,18.3,38,19,38c10.5,0,19-8.5,19-19c0-0.7,0-1.5-0.1-2.2
			L28.5,6.3L24.8,16.1z"/>
	</g>
	<g>
		<path class="st2" d="M28.6,31.7V6.3h-3c-0.4,0-0.7,0.3-0.7,0.7v23.8c0,0.4,0.3,0.7,0.7,0.7H28.6z"/>
		<path class="st2" d="M9.4,6.3v25.3h3c0.4,0,0.7-0.3,0.7-0.7V7.1c0-0.4-0.3-0.7-0.7-0.7L9.4,6.3L9.4,6.3z"/>
	</g>
	<g>
		<path class="st3" d="M22.8,24.7h3.8v5.7h-3.8V24.7z"/>
		<path class="st3" d="M26.7,19v5.7H19V19H26.7z"/>
		<path class="st3" d="M22.8,13.3h3.8V19h-3.8V13.3z"/>
		<path class="st3" d="M26.7,7.6v5.7H19V7.6H26.7z"/>
		<path class="st4" d="M22.8,24.7v5.7h-7.7v-5.7H22.8z"/>
		<path class="st4" d="M22.8,13.3V19h-7.7v-5.7H22.8z"/>
		<path class="st4" d="M19,19v5.7h-7.7V19H19z"/>
		<path class="st4" d="M19,7.6v5.7h-7.7V7.6H19z"/>
		<path class="st4" d="M11.3,24.7h3.8v5.7h-3.8V24.7z"/>
		<path class="st4" d="M11.3,13.3h3.8V19h-3.8V13.3z"/>
		<path class="st2" d="M26.7,6.5H11.3c-0.4,0-0.7,0.5-0.7,1v22.9c0,0.6,0.3,1,0.7,1h15.4c0.4,0,0.7-0.5,0.7-1V7.6
			C27.4,7,27.1,6.5,26.7,6.5z M22.1,14.3V18h-6.3v-3.6H22.1z M26,14.3V18h-2.4v-3.6H26z M14.5,18H12v-3.6h2.4V18z M12,20h6.3v3.6H12
			V20z M22.1,25.8v3.6h-6.3v-3.6H22.1z M19.7,23.7V20H26v3.6H19.7z M26,12.2h-6.3V8.6H26V12.2z M18.3,8.6v3.6H12V8.6H18.3z M12,25.8
			h2.4v3.6H12V25.8z M23.5,29.4v-3.6H26v3.6H23.5z"/>
	</g>
	<rect x="18.3" y="20.5" class="st5" width="1.5" height="4.5"/>
	<rect x="18.3" y="13.1" class="st5" width="1.5" height="4.5"/>
	<rect x="18.3" y="27.9" class="st5" width="1.5" height="3.8"/>
	<rect x="18.3" y="6.3" class="st5" width="1.5" height="3.8"/>
	<rect x="11.7" y="6.3" class="st5" width="1.5" height="25.3"/>
	<rect x="24.8" y="6.3" class="st6" width="1.5" height="25.3"/>
	<rect x="19" y="27.9" class="st6" width="0.7" height="3.8"/>
	<rect x="19" y="20.5" class="st6" width="0.7" height="4.5"/>
	<rect x="19" y="13.1" class="st6" width="0.7" height="4.5"/>
	<rect x="19" y="6.3" class="st6" width="0.7" height="3.8"/>
</g>
</svg>
