<?xml version="1.0" encoding="utf-8"?>
<!-- Generator: Adobe Illustrator 22.1.0, SVG Export Plug-In . SVG Version: 6.00 Build 0)  -->
<svg version="1.1" id="Слой_1" xmlns="http://www.w3.org/2000/svg" xmlns:xlink="http://www.w3.org/1999/xlink" x="0px" y="0px"
	 viewBox="0 0 38 38" style="enable-background:new 0 0 38 38;" xml:space="preserve">
<style type="text/css">
	.st0{fill:#06B26B;}
	.st1{fill:#0A9154;}
	.st2{fill:#AFB4C8;}
	.st3{fill:#545965;}
	.st4{clip-path:url(#SVGID_2_);}
	.st5{fill:#9196AA;}
	.st6{fill:#ECECF1;}
	.st7{fill:#D3D3D8;}
</style>
<g id="гравий">
	<g id="road_4_">
		<g>
			<g>
				<circle class="st0" cx="19" cy="19" r="19"/>
			</g>
			<g>
				<path class="st1" d="M24.8,16.1l-2.8-2.8L9.5,31.7l7.3,6.2C17.5,38,18.3,38,19,38c10.5,0,19-8.5,19-19c0-0.7,0-1.5-0.1-2.2
					L28.5,6.3L24.8,16.1z"/>
			</g>
		</g>
	</g>
	<g>
		<path class="st2" d="M28.6,31.7V6.3h-3c-0.4,0-0.7,0.3-0.7,0.7v23.8c0,0.4,0.3,0.7,0.7,0.7H28.6z"/>
		<path class="st2" d="M9.4,6.3v25.3h3c0.4,0,0.7-0.3,0.7-0.7V7.1c0-0.4-0.3-0.7-0.7-0.7L9.4,6.3L9.4,6.3z"/>
	</g>
	<rect x="12" y="6.3" class="st3" width="13.9" height="25.3"/>
	<g>
		<defs>
			<rect id="SVGID_1_" x="12" y="6.3" width="13.9" height="25.3"/>
		</defs>
		<clipPath id="SVGID_2_">
			<use xlink:href="#SVGID_1_"  style="overflow:visible;"/>
		</clipPath>
		<g class="st4">
			<polygon class="st5" points="19.8,30 20.7,30.2 20.9,30.4 20.9,30.4 21.5,30.4 22.2,29.8 22.8,30.4 22.8,30.4 22.8,31 22.8,32.3 
				21.5,32.9 20.3,32.3 19.6,32.3 19.6,31 19.6,30.4 			"/>
			<polygon class="st5" points="17.9,25.6 18.8,25.8 19,25.3 19,25.3 19.6,25.3 20.3,25.3 21.5,26 20.9,26.6 20.9,26.6 20.9,27.9 
				19.6,28.5 18.4,28.5 17.7,27.9 17.1,27.2 17.7,26 			"/>
			<polygon class="st5" points="12,22.8 12.5,22.6 12.7,22.2 12.7,22.2 13.3,22.2 13.9,22.2 14.6,22.8 14.6,23.4 14.6,23.4 
				14.6,24.7 13.3,25.3 12,25.3 12.6,24.7 12,24.1 12,23.4 			"/>
			<polygon class="st5" points="22.8,22.2 23.4,22.2 24.1,22.2 24.1,22.2 24.7,22.2 25.3,22.2 25.3,22.8 26,23.4 26,23.4 26,24.7 
				24.7,25.3 23.4,25.3 22.8,24.7 22.2,24.1 22.2,22.8 			"/>
			<polygon class="st5" points="23.4,26.6 24.1,26.6 24.7,27.2 25.3,27.2 25.3,27.9 25.3,27.9 26,29.1 25.3,29.8 24.1,29.1 
				23.4,29.1 22.8,28.5 22.8,27.2 			"/>
			<polygon class="st5" points="17.1,22.2 17.7,22.2 19,22.2 19.6,22.2 19.6,22.8 19.6,23.4 19.6,23.4 19,24.1 18.4,24.1 17.7,24.1 
				16.5,23.4 16.5,22.8 			"/>
			<polygon class="st5" points="13.3,27.9 13.3,27.9 13.9,26.6 15.2,26.6 15.2,27.9 15.2,29.1 14.6,29.1 13.3,29.8 12.7,29.1 
				12.7,28.5 			"/>
			<polygon class="st5" points="12.7,33.6 12.7,33.6 13.3,32.3 14.6,32.9 15.2,34.2 14.6,35.5 13.9,35.5 12.7,35.5 12,34.8 12,34.2 
							"/>
			<polygon class="st5" points="17.7,34.2 17.7,34.2 18.4,33.6 20.3,34.2 20.9,34.2 20.9,35.5 19,36.1 18.4,35.5 17.7,35.5 
				17.1,34.8 			"/>
			<polygon class="st5" points="15.8,31 15.8,31 16.5,30.4 17.7,30.4 17.7,31 17.7,31.7 17.1,32.3 16.5,32.3 15.8,32.3 15.2,31.7 
							"/>
			<polygon class="st5" points="23.4,34.2 24.1,33.6 24.1,32.9 26,33.6 26,34.2 26,34.8 25.3,35.5 24.7,36.1 23.4,35.5 23.4,34.8 
							"/>
		</g>
		<g class="st4">
			<polygon class="st5" points="19.8,14.8 20.7,15 20.9,15.2 20.9,15.2 21.5,15.2 22.2,14.6 22.8,15.2 22.8,15.2 22.8,15.8 
				22.8,17.1 21.5,17.7 20.3,17.1 19.6,17.1 19.6,15.8 19.6,15.2 			"/>
			<polygon class="st5" points="17.9,10.4 18.8,10.6 19,10.1 19,10.1 19.6,10.1 20.3,10.1 21.5,10.8 20.9,11.4 20.9,11.4 20.9,12.7 
				19.6,13.3 18.4,13.3 17.7,12.7 17.1,12 17.7,10.8 			"/>
			<polygon class="st5" points="12,7.6 12.5,7.4 12.7,7 12.7,7 13.3,7 13.9,7 14.6,7.6 14.6,8.2 14.6,8.2 14.6,9.5 13.3,10.1 
				12,10.1 12.6,9.5 12,8.9 12,8.2 			"/>
			<polygon class="st5" points="22.8,7 23.4,7 24.1,7 24.1,7 24.7,7 25.3,7 25.3,7.6 26,8.2 26,8.2 26,9.5 24.7,10.1 23.4,10.1 
				22.8,9.5 22.2,8.9 22.2,7.6 			"/>
			<polygon class="st5" points="23.4,11.4 24.1,11.4 24.7,12 25.3,12 25.3,12.7 25.3,12.7 26,13.9 25.3,14.6 24.1,13.9 23.4,13.9 
				22.8,13.3 22.8,12 			"/>
			<polygon class="st5" points="17.1,7 17.7,7 19,7 19.6,7 19.6,7.6 19.6,8.2 19.6,8.2 19,8.9 18.4,8.9 17.7,8.9 16.5,8.2 16.5,7.6 
							"/>
			<polygon class="st5" points="13.3,12.7 13.3,12.7 13.9,11.4 15.2,11.4 15.2,12.7 15.2,13.9 14.6,13.9 13.3,14.6 12.7,13.9 
				12.7,13.3 			"/>
			<polygon class="st5" points="12.7,18.4 12.7,18.4 13.3,17.1 14.6,17.7 15.2,19 14.6,20.3 13.9,20.3 12.7,20.3 12,19.6 12,19 			
				"/>
			<polygon class="st5" points="17.7,19 17.7,19 18.4,18.4 20.3,19 20.9,19 20.9,20.3 19,20.9 18.4,20.3 17.7,20.3 17.1,19.6 			"/>
			<polygon class="st5" points="15.8,15.8 15.8,15.8 16.5,15.2 17.7,15.2 17.7,15.8 17.7,16.5 17.1,17.1 16.5,17.1 15.8,17.1 
				15.2,16.5 			"/>
			<polygon class="st5" points="23.4,19 24.1,18.4 24.1,17.7 26,18.4 26,19 26,19.6 25.3,20.3 24.7,20.9 23.4,20.3 23.4,19.6 			"/>
		</g>
		<g class="st4">
			<path class="st5" d="M23.9,10.6l1.5-0.4l0.5-0.6l0.3-1.1l-0.4-0.8l-1.1-1l-1.5-0.5l-1.3,0.9l-0.1,1.1l0.6,1.6L23.9,10.6z
				 M24.5,7.4l0.9,0.8l0.2,0.5l-0.2,0.7l-0.3,0.3L24,10l-1.2-0.5l-0.4-1.2l0-0.7L23.3,7L24.5,7.4z"/>
			<path class="st5" d="M19.9,13.7l1.3-1l0.5-2.4l-1.6-0.7l0,0l-2.5,0.8l-0.7,1.8l1.2,1.4l0,0L19.9,13.7z M18,10.9l2-0.7l1,0.4
				l-0.3,1.7l-0.9,0.7l-1.4,0l-0.8-0.9L18,10.9z"/>
			<path class="st5" d="M18.5,9.2l1-0.3l0.4-0.4L20.2,7l-1-0.7l-1.8,0.2l0,0l-1.1,0.9l-0.1,0.8l1.4,1.1L18.5,9.2z M17.6,7.1l1.5-0.1
				l0.5,0.3l-0.2,0.9l-0.2,0.2l-0.8,0.3l-0.6,0.1l-1-0.8l0-0.2l0.1-0.1L17.6,7.1z"/>
			<path class="st5" d="M14.1,10.2l1.1-0.9l0,0l0-1.1l-1.1-1.3l-2-0.2l-0.3,0.9l1.1,2.9L14.1,10.2z M12.5,7.2l1.3,0.2l0.8,0.9l0,0.6
				l-0.8,0.7l-0.6,0.1l-0.9-2.2L12.5,7.2z"/>
			<path class="st5" d="M26.1,18l-1.9-0.8l-0.6,1.3l-0.7,1l0.5,1.3l1.7,0.1l1.2-1L26.1,18z M24.9,20.3l-1.1,0l-0.2-0.7l0.6-0.8
				l0.4-0.8l1.1,0.4l0.1,1.2L24.9,20.3z"/>
			<path class="st5" d="M20.2,18.6l-1.6-0.4L17,18.9l0.3,1.7l2.5,0.3l0,0l1.6-0.6l-0.2-1.7L20.2,18.6z M19.7,20.3l-1.9-0.2l-0.1-0.8
				l1-0.5l1.5,0.3l0.5,0l0.1,0.8L19.7,20.3z"/>
			<path class="st5" d="M24.8,11.6L23,11.1L22.4,12l0.4,1.5l0,0l1,0.6l1.3,0.6l1.1-1.3L24.8,11.6L24.8,11.6z M24,13.6l-0.7-0.4
				l-0.3-1l0.2-0.3l1.2,0.3l1,1.3L24.9,14L24,13.6z"/>
			<path class="st5" d="M14,11.3l-0.7,0.8l-1.2,0.5l-0.3,1.6l1,0.6l2.3-0.4l0,0l0.7-1.2l0,0l-0.1-1.8l-0.6-0.6L14,11.3z M14.7,13.8
				l-1.8,0.4l-0.4-0.2l0.2-0.8l1-0.4l0.7-0.9l0.6-0.3l0.1,0.1l0.1,1.4L14.7,13.8z"/>
			<path class="st5" d="M14.1,17.4L13.6,17l-1.5,0.4l-0.1,0l0,1.2l-0.3,1.7l0,0.1l1.4,0.6l0.1-0.1c0.7-0.3,1.4-0.6,2.1-1l0.2-0.1
				l-0.7-2.1L14.1,17.4z M12.4,20l0.3-1.3l0,0l0-0.8l0.8-0.2l0.4,0.3l0.6,0.2l0.4,1.3l-0.1,0.1c-0.4,0.2-0.8,0.4-1.2,0.6l-0.4,0.2
				L12.4,20z"/>
			<path class="st5" d="M15.7,15l-0.6,1.2l0.5,1.3l1.8-0.1l0.7-2l0-0.1l-1-0.7L15.7,15z M16,16.9l-0.2-0.7l0.4-0.7l0.8-0.2l0.4,0.3
				l-0.4,1.3L16,16.9z"/>
			<path class="st5" d="M23.4,15.6L23.4,15.6l-1-1.4l-1.3,0.5l-1.6-0.3l-0.7,2l0.7,0.9l1,0.1l1.1,0.3l1.4-0.6L23.4,15.6z M20.7,16.9
				l-0.8-0.1l-0.3-0.4l0.4-1.2l1.2,0.2l0,0l1.1-0.4l0.5,0.7l-0.2,1.1l-0.9,0.4L20.7,16.9z"/>
		</g>
	</g>
	<rect x="18.3" y="20.5" class="st6" width="1.5" height="4.5"/>
	<rect x="18.3" y="13.1" class="st6" width="1.5" height="4.5"/>
	<rect x="18.3" y="27.9" class="st6" width="1.5" height="3.8"/>
	<rect x="18.3" y="6.3" class="st6" width="1.5" height="3.8"/>
	<rect x="11.7" y="6.3" class="st6" width="1.5" height="25.3"/>
	<rect x="24.8" y="6.3" class="st7" width="1.5" height="25.3"/>
	<rect x="19" y="27.9" class="st7" width="0.7" height="3.8"/>
	<rect x="19" y="20.5" class="st7" width="0.7" height="4.5"/>
	<rect x="19" y="13.1" class="st7" width="0.7" height="4.5"/>
	<rect x="19" y="6.3" class="st7" width="0.7" height="3.8"/>
</g>
</svg>
