<?xml version="1.0" encoding="utf-8"?>
<!-- Generator: Adobe Illustrator 22.1.0, SVG Export Plug-In . SVG Version: 6.00 Build 0)  -->
<svg version="1.1" id="Слой_1" xmlns="http://www.w3.org/2000/svg" xmlns:xlink="http://www.w3.org/1999/xlink" x="0px" y="0px"
	 viewBox="0 0 38 38" style="enable-background:new 0 0 38 38;" xml:space="preserve">
<style type="text/css">
	.st0{fill:#E9EDF5;}
	.st1{fill:#D5D8DB;}
	.st2{fill:#FF936B;}
	.st3{fill:#FF8257;}
	.st4{fill:#FF5B5B;}
	.st5{fill:#FF193D;}
	.st6{fill:#545965;}
	.st7{fill:#31373E;}
	.st8{fill:#FFFFFF;}
</style>
<g id="kindergarten">
	<path class="st0" d="M38,19c0,10.5-8.5,19-19,19S0,29.5,0,19S8.5,0,19,0S38,8.5,38,19z"/>
	<path class="st1" d="M38,19L27,8l-5.6,0.9l-4.6-0.1L16,8l-4.9,4.9l1.7,1.7l0.5,2.4l-3.6,7.9l1.7,1.7l1.1,3.5l7.9,7.9
		C30.3,37.2,38,29,38,19z"/>
	<path class="st2" d="M15.7,25.4h-4.5c-1.2,0-2.1-1-2.1-2.1v-1.4c0-2.7,2.2-5,5-5h1.7V25.4z"/>
	<path class="st3" d="M26.7,25.4h-4.5v-8.5h1.7c2.7,0,5,2.2,5,5v1.4C28.9,24.4,27.9,25.4,26.7,25.4z"/>
	<path class="st4" d="M19,31.1c-1.8,0-3.5-0.9-4.7-2.4c-1.2-1.5-1.9-3.5-1.9-5.7c0-2.1,0.7-4.1,1.9-5.7c1.2-1.6,2.9-2.4,4.7-2.4
		s3.5,0.9,4.7,2.4c1.2,1.5,1.9,3.5,1.9,5.7c0,2.1-0.7,4.1-1.9,5.7C22.5,30.2,20.8,31.1,19,31.1z"/>
	<path class="st5" d="M23.7,17.4c-1.2-1.6-2.9-2.4-4.7-2.4v16.2c1.8,0,3.5-0.9,4.7-2.4c1.2-1.5,1.9-3.5,1.9-5.7
		C25.6,20.9,24.9,18.9,23.7,17.4z"/>
	<path class="st2" d="M15.2,31c-2,0-3.7-1.7-3.7-3.7s1.7-3.7,3.7-3.7c2,0,3.7,1.7,3.7,3.7S17.3,31,15.2,31z"/>
	<path class="st3" d="M22.8,31c-2,0-3.7-1.7-3.7-3.7s1.7-3.7,3.7-3.7c2,0,3.7,1.7,3.7,3.7S24.8,31,22.8,31z"/>
	<path class="st6" d="M15.2,31.1c-2.1,0-3.8-1.7-3.8-3.8s1.7-3.8,3.8-3.8s3.8,1.7,3.8,3.8S17.3,31.1,15.2,31.1z M15.2,25
		c-1.3,0-2.4,1.1-2.4,2.4s1.1,2.4,2.4,2.4c1.3,0,2.4-1.1,2.4-2.4S16.5,25,15.2,25z"/>
	<path class="st7" d="M22.8,31.1c-2.1,0-3.8-1.7-3.8-3.8s1.7-3.8,3.8-3.8s3.8,1.7,3.8,3.8S24.9,31.1,22.8,31.1z M22.8,25
		c-1.3,0-2.4,1.1-2.4,2.4s1.1,2.4,2.4,2.4c1.3,0,2.4-1.1,2.4-2.4S24.1,25,22.8,25z"/>
	<path class="st3" d="M24.5,13.8c-1.9,0-3.4-1.5-3.4-3.4c0-1.9,1.5-3.4,3.4-3.4c1.9,0,3.4,1.5,3.4,3.4
		C27.9,12.3,26.4,13.8,24.5,13.8z"/>
	<path class="st2" d="M13.5,13.8c-1.9,0-3.4-1.5-3.4-3.4c0-1.9,1.5-3.4,3.4-3.4c1.9,0,3.4,1.5,3.4,3.4C17,12.3,15.4,13.8,13.5,13.8z
		"/>
	<path class="st4" d="M19,20.6c-3.4,0-6.1-2.8-6.1-6.1c0-3.4,2.8-6.1,6.1-6.1s6.1,2.8,6.1,6.1C25.1,17.9,22.4,20.6,19,20.6z"/>
	<path class="st5" d="M19,8.3v12.3c3.4,0,6.1-2.8,6.1-6.1S22.4,8.3,19,8.3z"/>
	<path class="st6" d="M17.7,13.2c0,0.4-0.3,0.7-0.7,0.7c-0.4,0-0.7-0.3-0.7-0.7c0-0.4,0.3-0.7,0.7-0.7
		C17.4,12.5,17.7,12.8,17.7,13.2z"/>
	<path class="st6" d="M21.7,13.2c0,0.4-0.3,0.7-0.7,0.7c-0.4,0-0.7-0.3-0.7-0.7c0-0.4,0.3-0.7,0.7-0.7
		C21.4,12.5,21.7,12.8,21.7,13.2z"/>
	<path class="st8" d="M22.7,17.5c0-1.4-1.2-2.6-2.6-2.6h-2.2c-1.4,0-2.6,1.2-2.6,2.6v1.8c1,0.8,2.3,1.2,3.7,1.2
		c1.4,0,2.7-0.5,3.7-1.2V17.5z"/>
	<path class="st0" d="M20.1,14.9H19v5.7c1.4,0,2.7-0.5,3.7-1.2v-1.8C22.7,16.1,21.5,14.9,20.1,14.9z"/>
	<path class="st6" d="M18.3,20.6c0.2,0,0.5,0,0.7,0s0.5,0,0.7,0v-2.8h-1.4V20.6z"/>
	<path class="st7" d="M19.7,17.8H19v2.8c0.2,0,0.5,0,0.7,0V17.8z"/>
</g>
</svg>
