<?xml version="1.0" encoding="utf-8"?>
<!-- Generator: Adobe Illustrator 22.1.0, SVG Export Plug-In . SVG Version: 6.00 Build 0)  -->
<svg version="1.1" id="Слой_1" xmlns="http://www.w3.org/2000/svg" xmlns:xlink="http://www.w3.org/1999/xlink" x="0px" y="0px"
	 viewBox="0 0 38 38" style="enable-background:new 0 0 38 38;" xml:space="preserve">
<style type="text/css">
	.st0{fill:#06B26B;}
	.st1{clip-path:url(#SVGID_2_);fill:#0A9154;}
	.st2{fill:#9196AA;}
	.st3{fill:#AFB4C8;}
	.st4{fill:#FFC612;}
	.st5{fill:#FC9E15;}
	.st6{fill:#FFFFFF;}
</style>
<g id="light_bulb">
	<circle class="st0" cx="19" cy="19" r="19"/>
	<g>
		<g>
			<defs>
				<circle id="SVGID_1_" cx="19" cy="19" r="19"/>
			</defs>
			<clipPath id="SVGID_2_">
				<use xlink:href="#SVGID_1_"  style="overflow:visible;"/>
			</clipPath>
			<polygon class="st1" points="26.2,39.7 16.7,30.2 16.3,28.4 16.2,24.2 13.5,21.4 24.9,8.5 41.2,26 			"/>
		</g>
		<g id="XMLID_1087_">
			<path id="XMLID_1088_" class="st2" d="M15.8,28.5c0,1.7,1.4,3.2,3.2,3.2s3.2-1.4,3.2-3.2v-0.2h-6.3V28.5z"/>
			<polygon id="XMLID_1089_" class="st3" points="19,26.3 18,26.3 15.8,26.3 15.8,28.3 22.2,28.3 22.2,26.3 20,26.3 			"/>
			<path id="XMLID_1090_" class="st4" d="M18,19.9c-1.5-0.4-2.7-1.9-2.7-3.5h2c0,0.9,0.7,1.7,1.7,1.7c0-4.2,0-9,0-11.7
				c-4.8,0-8.7,3.9-8.7,8.7c0,3.2,1.8,6,4.4,7.5l1.2,3.7H18V19.9z"/>
			<path id="XMLID_1091_" class="st5" d="M19,6.3c0,2.7,0,7.5,0,11.7c0.9,0,1.7-0.7,1.7-1.7h2c0,1.7-1.1,3.1-2.7,3.5v6.5h2.2
				l1.2-3.7c2.6-1.5,4.4-4.3,4.4-7.5C27.7,10.2,23.8,6.3,19,6.3z"/>
			<path id="XMLID_1092_" class="st6" d="M17.3,16.3h-2c0,1.7,1.1,3.1,2.7,3.5v6.5h2v-6.5c1.5-0.4,2.7-1.9,2.7-3.5h-2
				c0,0.9-0.7,1.7-1.7,1.7S17.3,17.3,17.3,16.3z"/>
		</g>
	</g>
</g>
</svg>
