<?xml version="1.0" encoding="utf-8"?>
<!-- Generator: Adobe Illustrator 22.1.0, SVG Export Plug-In . SVG Version: 6.00 Build 0)  -->
<svg version="1.1" id="Слой_1" xmlns="http://www.w3.org/2000/svg" xmlns:xlink="http://www.w3.org/1999/xlink" x="0px" y="0px"
	 viewBox="0 0 38 38" style="enable-background:new 0 0 38 38;" xml:space="preserve">
<style type="text/css">
	.st0{fill:#FFCE00;}
	.st1{fill:#FFA426;}
	.st2{clip-path:url(#SVGID_2_);}
	.st3{fill:#545965;}
	.st4{fill:#31373E;}
	.st5{fill:#4A7AFF;}
	.st6{fill:#0050B9;}
	.st7{fill:#DBEEFF;}
	.st8{fill:#E9EDF5;}
</style>
<g id="parcing">
	<path class="st0" d="M38,19c0,10.5-8.5,19-19,19S0,29.5,0,19S8.5,0,19,0S38,8.5,38,19z"/>
	<path class="st1" d="M19,38c10.5,0,19-8.5,19-19c0-1-0.1-2-0.2-3l-9.7-9.7L9.9,26.1l9.4,9.4l-2.7,2.4C17.4,37.9,18.2,38,19,38z"/>
	<g>
		<defs>
			<path id="SVGID_1_" d="M38,19c0,10.5-8.5,19-19,19S0,29.5,0,19S8.5,0,19,0S38,8.5,38,19z"/>
		</defs>
		<clipPath id="SVGID_2_">
			<use xlink:href="#SVGID_1_"  style="overflow:visible;"/>
		</clipPath>
		<g class="st2">
			<path class="st3" d="M16.6,38.5c0.8,0.1,1.6,0.2,2.4,0.2s1.6-0.1,2.4-0.2V19.4h-4.8V38.5z"/>
			<path class="st4" d="M19,19.4v19.2h0c0.8,0,1.6-0.1,2.4-0.2V19.4H19z"/>
			<path class="st5" d="M9.9,6.3h18.2v19.8H9.9V6.3z"/>
			<path class="st6" d="M19,6.3h9.1v19.8H19V6.3z"/>
			<path class="st7" d="M20.5,8.5h-6v15.2h3.1v-5.2h2.8c2.7,0,5-2.2,5-5C25.5,10.8,23.2,8.5,20.5,8.5z M20.5,15.3h-2.8v-3.7h2.8
				c1,0,1.8,0.8,1.8,1.8S21.5,15.3,20.5,15.3z"/>
			<path class="st8" d="M20.5,8.5H19v3.1h1.5c1,0,1.8,0.8,1.8,1.8s-0.8,1.8-1.8,1.8H19v3.1h1.5c2.7,0,5-2.2,5-5
				C25.5,10.8,23.2,8.5,20.5,8.5z"/>
		</g>
	</g>
</g>
</svg>
