<?xml version="1.0" encoding="utf-8"?>
<!-- Generator: Adobe Illustrator 22.1.0, SVG Export Plug-In . SVG Version: 6.00 Build 0)  -->
<svg version="1.1" id="Слой_1" xmlns="http://www.w3.org/2000/svg" xmlns:xlink="http://www.w3.org/1999/xlink" x="0px" y="0px"
	 viewBox="0 0 38 38" style="enable-background:new 0 0 38 38;" xml:space="preserve">
<style type="text/css">
	.st0{fill:#4A7AFF;}
	.st1{fill:#0053BF;}
	.st2{fill:#FFFFFF;}
	.st3{fill:#E9EDF5;}
	.st4{fill:#DBEEFF;}
	.st5{fill:#A3D4FF;}
	.st6{fill:#F55757;}
	.st7{fill:#FF193D;}
</style>
<g id="pharmacy">
	<path class="st0" d="M38,19c0,10.5-8.5,19-19,19S0,29.5,0,19S8.5,0,19,0S38,8.5,38,19z"/>
	<path class="st1" d="M38,19c0-0.1-7.6-6.6-7.6-6.6l-0.5,0.5l-6.5-5.5l-7.1,1.3L15.2,11l1.2,3.6h10.8L7.6,30.1l9,7.8
		C17.4,38,18.2,38,19,38C29.5,38,38,29.5,38,19z"/>
	<g>
		<g>
			<path class="st2" d="M12.2,9.2H9.9c-0.4,0-0.7,0.3-0.7,0.7v2.3c0,0.4,0.3,0.7,0.7,0.7h2.3c0.4,0,0.7-0.3,0.7-0.7V9.9
				C12.9,9.5,12.6,9.2,12.2,9.2z"/>
			<path class="st2" d="M28.1,9.2h-2.3c-0.4,0-0.7,0.3-0.7,0.7v2.3c0,0.4,0.3,0.7,0.7,0.7h2.3c0.4,0,0.7-0.3,0.7-0.7V9.9
				C28.8,9.5,28.5,9.2,28.1,9.2z"/>
			<path class="st2" d="M22.8,7h-7.6c-0.8,0-1.5,0.7-1.5,1.5v3.8c0,0.4,0.3,0.7,0.7,0.7h2.3c0.4,0,0.7-0.3,0.7-0.7v-1.6h3.1v1.6
				c0,0.4,0.3,0.7,0.7,0.7h2.3c0.4,0,0.7-0.3,0.7-0.7V8.4C24.2,7.6,23.6,7,22.8,7z"/>
			<path class="st3" d="M21.3,12.9h2.3c0.4,0,0.7-0.3,0.7-0.7V8.4c0-0.8-0.7-1.5-1.5-1.5H19v3.7h1.6v1.6
				C20.6,12.6,20.9,12.9,21.3,12.9z"/>
		</g>
		<path class="st4" d="M28.4,11.5H9.6c-1.4,0-2.6,1.2-2.6,2.6v14.3C7,29.9,8.1,31,9.6,31h18.9c1.4,0,2.6-1.2,2.6-2.6V14.1
			C31,12.7,29.9,11.5,28.4,11.5z"/>
		<path class="st5" d="M28.4,11.5H19V31h9.4c1.4,0,2.6-1.2,2.6-2.6V14.1C31,12.7,29.9,11.5,28.4,11.5z"/>
		<path class="st6" d="M23.5,19.1h-2.3v-2.3c0-0.4-0.3-0.7-0.7-0.7h-3c-0.4,0-0.7,0.3-0.7,0.7v2.3h-2.3c-0.4,0-0.7,0.3-0.7,0.7v3
			c0,0.4,0.3,0.7,0.7,0.7h2.3v2.3c0,0.4,0.3,0.7,0.7,0.7h3c0.4,0,0.7-0.3,0.7-0.7v-2.3h2.3c0.4,0,0.7-0.3,0.7-0.7v-3
			C24.2,19.4,23.9,19.1,23.5,19.1z"/>
		<path class="st7" d="M20.5,26.5c0.4,0,0.7-0.3,0.7-0.7v-2.3h2.3c0.4,0,0.7-0.3,0.7-0.7v-3c0-0.4-0.3-0.7-0.7-0.7h-2.3v-2.3
			c0-0.4-0.3-0.7-0.7-0.7H19v10.5H20.5z"/>
	</g>
</g>
</svg>
