<?xml version="1.0" encoding="utf-8"?>
<!-- Generator: Adobe Illustrator 22.1.0, SVG Export Plug-In . SVG Version: 6.00 Build 0)  -->
<svg version="1.1" id="Слой_1" xmlns="http://www.w3.org/2000/svg" xmlns:xlink="http://www.w3.org/1999/xlink" x="0px" y="0px"
	 viewBox="0 0 38 38" style="enable-background:new 0 0 38 38;" xml:space="preserve">
<style type="text/css">
	.st0{fill:#E9EDF5;}
	.st1{fill:#D5D8DB;}
	.st2{fill:#545965;}
	.st3{fill:#31373E;}
	.st4{fill:#4A7AFF;}
	.st5{fill:#0053BF;}
	.st6{fill:#FFCE00;}
	.st7{fill:#FFA426;}
</style>
<g id="playground_1_">
	<circle class="st0" cx="19" cy="19" r="19"/>
	<path class="st1" d="M22.4,37.7c8.3-1.5,14.8-8.5,15.5-17L26,8.4L8.6,12.7l11.1,11.5l-4.1,7.3L22.4,37.7z"/>
	<g>
		<path class="st2" d="M19,28.4c-0.5,0-0.8-0.4-0.8-0.8V12.9c0-0.5,0.4-0.8,0.8-0.8c0.5,0,0.8,0.4,0.8,0.8v14.6
			C19.8,28,19.5,28.4,19,28.4z"/>
		<path class="st3" d="M19.8,27.5V12.9c0-0.5-0.4-0.8-0.8-0.8v16.2C19.5,28.4,19.8,28,19.8,27.5z"/>
		<path class="st4" d="M25.6,31.7H12.4c-0.5,0-0.8-0.4-0.8-0.8c0-2.3,1.9-4.1,4.1-4.1h6.6c2.3,0,4.1,1.9,4.1,4.1
			C26.4,31.3,26.1,31.7,25.6,31.7z"/>
		<path class="st5" d="M22.3,26.7H19v5h6.6c0.5,0,0.8-0.4,0.8-0.8C26.4,28.6,24.6,26.7,22.3,26.7z"/>
		<path class="st2" d="M14,20.1c-0.5,0-0.8-0.4-0.8-0.8v-7.2c0-0.5,0.4-0.8,0.8-0.8c0.5,0,0.8,0.4,0.8,0.8v7.2
			C14.9,19.7,14.5,20.1,14,20.1z"/>
		<path class="st3" d="M24,20.1c-0.5,0-0.8-0.4-0.8-0.8v-7.2c0-0.5,0.4-0.8,0.8-0.8s0.8,0.4,0.8,0.8v7.2
			C24.8,19.7,24.4,20.1,24,20.1z"/>
		<path class="st6" d="M28.9,18.4h-5c-1.4,0-2.5,1.1-2.5,2.5v3.3c0,0.6,0.6,1,1.2,0.7l2.9-1.5l2.9,1.5c0.5,0.3,1.2-0.1,1.2-0.7v-5
			C29.7,18.8,29.4,18.4,28.9,18.4z"/>
		<path class="st7" d="M30.6,20.1h-1.7c-1.4,0-2.5-1.1-2.5-2.5s1.1-2.5,2.5-2.5c1.4,0,2.5,1.1,2.5,2.5v1.7
			C31.4,19.7,31,20.1,30.6,20.1z"/>
		<path class="st6" d="M14,18.4h-5c-0.5,0-0.8,0.4-0.8,0.8v5c0,0.6,0.6,1,1.2,0.7l2.9-1.5l2.9,1.5c0.5,0.3,1.2-0.1,1.2-0.7v-3.3
			C16.5,19.6,15.4,18.4,14,18.4z"/>
		<path class="st2" d="M30.6,31.7H7.4c-0.5,0-0.8-0.4-0.8-0.8C6.6,30.4,7,30,7.4,30h23.1c0.5,0,0.8,0.4,0.8,0.8
			C31.4,31.3,31,31.7,30.6,31.7z"/>
		<path class="st3" d="M30.6,30H19v1.7h11.6c0.5,0,0.8-0.4,0.8-0.8C31.4,30.4,31,30,30.6,30z"/>
		<g>
			<g>
				<path class="st7" d="M29.7,19.3v5c0,0.6-0.6,1-1.2,0.7l-2.9-1.5v-5.1h3.3C29.4,18.4,29.7,18.8,29.7,19.3z"/>
				<path class="st7" d="M16.5,20.9v3.3c0,0.6-0.6,1-1.2,0.7l-2.9-1.5v-5.1H14C15.4,18.4,16.5,19.6,16.5,20.9z"/>
			</g>
		</g>
		<path class="st6" d="M9.1,20.1H7.4c-0.5,0-0.8-0.4-0.8-0.8v-1.7c0-1.4,1.1-2.5,2.5-2.5s2.5,1.1,2.5,2.5S10.5,20.1,9.1,20.1z"/>
		<path class="st7" d="M30.6,12.9H7.4c-0.5,0-0.8-0.4-0.8-0.8c0-3.2,2.6-5.8,5.8-5.8h13.2c3.2,0,5.8,2.6,5.8,5.8
			C31.4,12.6,31,12.9,30.6,12.9z"/>
		<path class="st6" d="M25.6,6.3H19v6.6h11.6c0.5,0,0.8-0.4,0.8-0.8C31.4,8.9,28.8,6.3,25.6,6.3z"/>
		<path class="st6" d="M12.4,12.9v-2.5c0-2.3,1.8-4.1,4.1-4.1h5c2.3,0,4.1,1.8,4.1,4.1v2.5"/>
		<path class="st7" d="M21.5,6.3H19v6.6h6.6v-2.5C25.6,8.2,23.8,6.3,21.5,6.3z"/>
	</g>
</g>
</svg>
