<?xml version="1.0" encoding="utf-8"?>
<!-- Generator: Adobe Illustrator 22.1.0, SVG Export Plug-In . SVG Version: 6.00 Build 0)  -->
<svg version="1.1" id="Слой_1" xmlns="http://www.w3.org/2000/svg" xmlns:xlink="http://www.w3.org/1999/xlink" x="0px" y="0px"
	 viewBox="0 0 38 38" style="enable-background:new 0 0 38 38;" xml:space="preserve">
<style type="text/css">
	.st0{fill:#FF5B5B;}
	.st1{fill:#F7183B;}
	.st2{fill:#FFFFFF;}
	.st3{fill:#E9EDF5;}
	.st4{fill:#DCE1EB;}
	.st5{fill:#FFCE00;}
	.st6{fill:#FDBA12;}
	.st7{fill:#515662;}
	.st8{fill:#333940;}
	.st9{fill:#AFB4C8;}
	.st10{fill:#9196AA;}
</style>
<g id="school">
	<path class="st0" d="M38,19c0,10.5-8.5,19-19,19S0,29.5,0,19S8.5,0,19,0S38,8.5,38,19z"/>
	<path class="st1" d="M37.9,20.4L25.6,8L7.2,29.9l7.7,7.7c1.3,0.3,2.7,0.5,4.2,0.5C29,38,37.2,30.2,37.9,20.4z"/>
	<path class="st2" d="M7.2,14.8h23.7v15H7.2V14.8z"/>
	<path class="st3" d="M19,14.8h11.8v15H19V14.8z"/>
	<path class="st3" d="M25.6,29.9H12.4V8L19,3.8L25.6,8V29.9z"/>
	<path class="st4" d="M25.6,8L19,3.8h0l0,26h6.6V8z"/>
	<path class="st5" d="M23.4,11.8c0,2.4-2,4.4-4.4,4.4s-4.4-2-4.4-4.4c0-2.4,2-4.4,4.4-4.4S23.4,9.3,23.4,11.8z"/>
	<path class="st6" d="M19,16.2c2.4,0,4.4-2,4.4-4.4s-2-4.4-4.4-4.4V16.2z"/>
	<path class="st7" d="M19.8,12.6h-3.3v-1.5h1.8V8.6h1.5V12.6z"/>
	<path class="st8" d="M19,8.6h0.8v4H19V8.6z"/>
	<path class="st9" d="M21.8,29.9h-5.5v-5.2c0-1.5,1.2-2.8,2.8-2.8s2.8,1.2,2.8,2.8V29.9z"/>
	<path class="st10" d="M21.8,24.6c0-1.5-1.2-2.8-2.8-2.8c0,0,0,0,0,0v8h2.8V24.6z"/>
</g>
</svg>
