<?xml version="1.0" encoding="utf-8"?>
<!-- Generator: Adobe Illustrator 22.1.0, SVG Export Plug-In . SVG Version: 6.00 Build 0)  -->
<svg version="1.1" id="Слой_1" xmlns="http://www.w3.org/2000/svg" xmlns:xlink="http://www.w3.org/1999/xlink" x="0px" y="0px"
	 viewBox="0 0 38 38" style="enable-background:new 0 0 38 38;" xml:space="preserve">
<style type="text/css">
	.st0{fill:#FFCE00;}
	.st1{fill:#FFA426;}
	.st2{fill:#4A7AFF;}
	.st3{fill:#0053BF;}
	.st4{fill:#FF936B;}
	.st5{fill:#FF8257;}
	.st6{fill:#A3D4FF;}
	.st7{fill:#65B1FC;}
</style>
<g id="sea">
	<path class="st0" d="M38,19c0,10.5-8.5,19-19,19S0,29.5,0,19S8.5,0,19,0S38,8.5,38,19z"/>
	<path class="st1" d="M23.5,6.5l-9.1,9L31.8,33c3.4-3.1,5.6-7.3,6.1-12.1L23.5,6.5z"/>
	<path class="st2" d="M0.3,22.5C2,31.3,9.7,38,19,38s17-6.7,18.7-15.5H0.3z"/>
	<path class="st3" d="M19,22.5V38h0c9.3,0,17-6.7,18.7-15.5H19z"/>
	<path class="st4" d="M25.4,11.1c0,3.6-2.9,6.4-6.4,6.4s-6.4-2.9-6.4-6.4c0-3.6,2.9-6.4,6.4-6.4S25.4,7.6,25.4,11.1z"/>
	<path class="st5" d="M19,4.7C19,4.7,19,4.7,19,4.7l0,12.9h0c3.6,0,6.4-2.9,6.4-6.4C25.4,7.6,22.6,4.7,19,4.7z"/>
	<path class="st6" d="M27.5,27.5c-1.3,0-2-0.3-2.6-0.5c-0.5-0.2-0.9-0.4-1.7-0.4s-1.2,0.2-1.7,0.4c-0.6,0.2-1.3,0.5-2.6,0.5
		c-1.3,0-2-0.3-2.6-0.5c-0.5-0.2-0.9-0.4-1.7-0.4c-0.8,0-1.2,0.2-1.7,0.4c-0.6,0.2-1.3,0.5-2.6,0.5s-2-0.3-2.6-0.5
		c-0.5-0.2-0.9-0.4-1.7-0.4v-2.2c1.3,0,2,0.3,2.6,0.5c0.5,0.2,0.9,0.4,1.7,0.4c0.8,0,1.2-0.2,1.7-0.4c0.6-0.2,1.3-0.5,2.6-0.5
		s2,0.3,2.6,0.5c0.5,0.2,0.9,0.4,1.7,0.4c0.8,0,1.2-0.2,1.7-0.4c0.6-0.2,1.3-0.5,2.6-0.5c1.3,0,2,0.3,2.6,0.5
		c0.5,0.2,0.9,0.4,1.7,0.4s1.2-0.2,1.7-0.4c0.6-0.2,1.3-0.5,2.6-0.5v2.2c-0.8,0-1.2,0.2-1.7,0.4C29.5,27.2,28.8,27.5,27.5,27.5z"/>
	<path class="st7" d="M29.2,24.9c-0.5,0.2-0.9,0.4-1.7,0.4c-0.8,0-1.2-0.2-1.7-0.4c-0.6-0.2-1.3-0.5-2.6-0.5s-2,0.3-2.6,0.5
		c-0.5,0.2-0.9,0.4-1.7,0.4c0,0,0,0,0,0v2.2h0c1.3,0,2-0.3,2.6-0.5c0.5-0.2,0.9-0.4,1.7-0.4s1.2,0.2,1.7,0.4
		c0.6,0.2,1.3,0.5,2.6,0.5c1.3,0,2-0.3,2.6-0.5c0.5-0.2,0.9-0.4,1.7-0.4v-2.2C30.5,24.3,29.8,24.6,29.2,24.9z"/>
	<path class="st7" d="M32.8,30.6c-0.6-0.2-1.3-0.5-2.6-0.5s-2,0.3-2.6,0.5c-0.5,0.2-0.9,0.4-1.7,0.4c-0.8,0-1.2-0.2-1.7-0.4
		c-0.6-0.2-1.3-0.5-2.6-0.5v2.2c0.8,0,1.2,0.2,1.7,0.4c0.6,0.2,1.3,0.5,2.6,0.5c1.3,0,2-0.3,2.6-0.5c0.5-0.2,0.9-0.4,1.7-0.4
		s1.2,0.2,1.7,0.4c0.1,0,0.1,0.1,0.2,0.1c0.6-0.6,1.2-1.2,1.7-1.8C33.4,30.9,33.1,30.8,32.8,30.6z"/>
	<path class="st6" d="M12.1,31c-0.8,0-1.2-0.2-1.7-0.4c-0.6-0.2-1.3-0.5-2.6-0.5c-1.3,0-2,0.3-2.6,0.5c-0.3,0.1-0.6,0.3-1,0.3
		c0.5,0.6,1.1,1.3,1.7,1.8c0.1,0,0.1-0.1,0.2-0.1c0.5-0.2,0.9-0.4,1.7-0.4s1.2,0.2,1.7,0.4c0.6,0.2,1.3,0.5,2.6,0.5s2-0.3,2.6-0.5
		c0.5-0.2,0.9-0.4,1.7-0.4v-2.2c-1.3,0-2,0.3-2.6,0.5C13.3,30.8,12.9,31,12.1,31z"/>
</g>
</svg>
