<?xml version="1.0" encoding="utf-8"?>
<!-- Generator: Adobe Illustrator 22.1.0, SVG Export Plug-In . SVG Version: 6.00 Build 0)  -->
<svg version="1.1" id="Слой_1" xmlns="http://www.w3.org/2000/svg" xmlns:xlink="http://www.w3.org/1999/xlink" x="0px" y="0px"
	 viewBox="0 0 38 38" style="enable-background:new 0 0 38 38;" xml:space="preserve">
<style type="text/css">
	.st0{fill:#A3D4FF;}
	.st1{clip-path:url(#SVGID_2_);fill:#65B1FC;}
	.st2{fill:#FFCE00;}
	.st3{fill:#FFA426;}
	.st4{fill:#FFFFFF;}
	.st5{fill:#E9EDF5;}
	.st6{fill:#FFC612;}
	.st7{fill:#FC9E15;}
</style>
<g id="security">
	<circle class="st0" cx="19" cy="19" r="19"/>
	<g id="surface1">
		<g>
			<defs>
				<circle id="SVGID_1_" cx="19" cy="19" r="19"/>
			</defs>
			<clipPath id="SVGID_2_">
				<use xlink:href="#SVGID_1_"  style="overflow:visible;"/>
			</clipPath>
			<polygon class="st1" points="44.4,25.6 29.2,42.7 13.1,28.5 28.1,9.8 			"/>
		</g>
		<path class="st2" d="M28.6,23.3c-0.7,1.8-1.7,3.5-3.1,4.8c-1.5,1.5-3.5,2.7-6,3.5c-0.1,0-0.2,0.1-0.2,0.1c-0.1,0-0.2,0-0.3,0h0
			c-0.1,0-0.2,0-0.4,0c-0.1,0-0.2,0-0.2-0.1c-2.4-0.8-4.5-2-6-3.5c-1.4-1.3-2.4-2.9-3.1-4.8c-1.2-3.4-1.2-7.1-1.1-10l0,0
			c0-0.2,0-0.5,0-0.8c0-1.4,1.1-2.6,2.5-2.6c2.9-0.2,5.2-1.1,7.1-3l0,0c0.3-0.3,0.7-0.4,1.1-0.4c0.4,0,0.8,0.1,1.1,0.4l0,0
			c1.9,1.9,4.2,2.8,7.1,3c1.4,0.1,2.5,1.2,2.5,2.6c0,0.3,0,0.5,0,0.8l0,0C29.8,16.2,29.9,19.9,28.6,23.3z"/>
		<path class="st3" d="M28.6,23.3c-0.7,1.8-1.7,3.5-3.1,4.8c-1.5,1.5-3.5,2.7-6,3.5c-0.1,0-0.2,0.1-0.2,0.1c-0.1,0-0.2,0-0.3,0V6.3
			c0.4,0,0.8,0.1,1.1,0.4l0,0c1.9,1.9,4.2,2.8,7.1,3c1.4,0.1,2.5,1.2,2.5,2.6c0,0.3,0,0.5,0,0.8l0,0C29.8,16.2,29.9,19.9,28.6,23.3z
			"/>
		<path class="st4" d="M25.3,19c0,3.5-2.8,6.3-6.3,6.3h0c-3.5,0-6.3-2.8-6.3-6.3c0-3.5,2.8-6.3,6.3-6.3h0
			C22.5,12.7,25.3,15.5,25.3,19z"/>
		<path class="st5" d="M25.3,19c0,3.5-2.8,6.3-6.3,6.3V12.7C22.5,12.7,25.3,15.5,25.3,19z"/>
		<path class="st6" d="M21.9,18.1L19,20.9l-0.6,0.6c-0.1,0.1-0.3,0.2-0.5,0.2c-0.2,0-0.4-0.1-0.5-0.2L16,20.2
			c-0.3-0.3-0.3-0.8,0-1.1c0.3-0.3,0.8-0.3,1.1,0l0.8,0.8l2.9-2.9c0.3-0.3,0.8-0.3,1.1,0C22.2,17.3,22.2,17.8,21.9,18.1z"/>
		<path class="st7" d="M21.9,18.1L19,20.9v-2.1l1.8-1.8c0.3-0.3,0.8-0.3,1.1,0C22.2,17.3,22.2,17.8,21.9,18.1z"/>
	</g>
</g>
</svg>
