<?xml version="1.0" encoding="utf-8"?>
<!-- Generator: Adobe Illustrator 22.1.0, SVG Export Plug-In . SVG Version: 6.00 Build 0)  -->
<svg version="1.1" id="Слой_1" xmlns="http://www.w3.org/2000/svg" xmlns:xlink="http://www.w3.org/1999/xlink" x="0px" y="0px"
	 viewBox="0 0 38 38" style="enable-background:new 0 0 38 38;" xml:space="preserve">
<style type="text/css">
	.st0{fill:#FF5B5B;}
	.st1{fill:#F7183B;}
	.st2{fill:#FFFFFF;}
	.st3{fill:#FFCE00;}
	.st4{fill:#FFA426;}
	.st5{fill:#545965;}
	.st6{fill:#31373E;}
</style>
<g id="building">
	<circle class="st0" cx="19" cy="19" r="19"/>
	<path class="st1" d="M22.4,37.7c8.3-1.5,14.8-8.5,15.5-17L26,8.4L8.6,12.7l11.1,11.5l-4.1,7.3L22.4,37.7z"/>
	<path class="st2" d="M18.2,21.2h-1.3v-3.4c0-1.1,0.9-2,2-2h8.7c0.4,0,0.8-0.3,0.8-0.8v-3.9c0-0.4-0.3-0.8-0.8-0.8h-3.2V9.1h3.2
		c1.1,0,2,0.9,2,2v3.9c0,1.1-0.9,2-2,2h-8.7c-0.4,0-0.8,0.3-0.8,0.8L18.2,21.2L18.2,21.2z"/>
	<path class="st3" d="M25.4,13.2H9.7c-0.7,0-1.3-0.6-1.3-1.3V7.7c0-0.7,0.6-1.3,1.3-1.3h15.7c0.7,0,1.3,0.6,1.3,1.3v4.2
		C26.7,12.6,26.1,13.2,25.4,13.2z"/>
	<path class="st4" d="M25.4,6.3h-7.9v6.9h7.9c0.7,0,1.3-0.6,1.3-1.3V7.7C26.7,6.9,26.1,6.3,25.4,6.3z"/>
	<path class="st5" d="M16,31.7h3c0.4,0,0.8-0.4,0.8-0.8V21c0-0.4-0.4-0.8-0.8-0.8h-3c-0.4,0-0.8,0.4-0.8,0.8v9.9
		C15.2,31.3,15.6,31.7,16,31.7z"/>
	<path class="st6" d="M19,20.2h-1.5v11.5H19c0.4,0,0.8-0.4,0.8-0.8V21C19.8,20.5,19.5,20.2,19,20.2z"/>
</g>
</svg>
