<?xml version="1.0" encoding="utf-8"?>
<!-- Generator: Adobe Illustrator 22.1.0, SVG Export Plug-In . SVG Version: 6.00 Build 0)  -->
<svg version="1.1" id="Слой_1" xmlns="http://www.w3.org/2000/svg" xmlns:xlink="http://www.w3.org/1999/xlink" x="0px" y="0px"
	 viewBox="0 0 38 38" style="enable-background:new 0 0 38 38;" xml:space="preserve">
<style type="text/css">
	.st0{fill:#FF5B5B;}
	.st1{fill:#F7183B;}
	.st2{fill:#FFCE00;}
	.st3{fill:#FFA426;}
	.st4{fill:#FFFFFF;}
	.st5{fill:#E9EDF5;}
	.st6{fill:#DBEEFF;}
	.st7{fill:#A3D4FF;}
</style>
<g id="shop">
	<path class="st0" d="M38,19c0,10.5-8.5,19-19,19S0,29.5,0,19S8.5,0,19,0S38,8.5,38,19z"/>
	<path class="st1" d="M37.9,21l-6.2-6.2l0,0.1l-4.2-4.2L23.3,12l-4.9-4.9l-5.2,0.7l-6,22.6l6.9,6.9c1.6,0.4,3.2,0.6,4.9,0.6
		C28.8,38,36.9,30.5,37.9,21z"/>
	<path class="st2" d="M17.9,14.8h13.8v15.7H17.9V14.8z"/>
	<path class="st3" d="M24.8,14.8h6.9v15.7h-6.9V14.8z"/>
	<path class="st4" d="M28.7,17.8h-2.2v-4.3c0-0.9-0.7-1.7-1.7-1.7c-0.9,0-1.7,0.7-1.7,1.7v4.3h-2.2v-4.3c0-2.1,1.7-3.9,3.9-3.9
		c2.1,0,3.9,1.7,3.9,3.9V17.8z"/>
	<path class="st5" d="M24.8,9.6v2.2c0.9,0,1.7,0.7,1.7,1.7v4.3h2.2v-4.3C28.7,11.3,27,9.6,24.8,9.6z"/>
	<path class="st6" d="M7.2,11.9h16.4v18.6H7.2V11.9z"/>
	<path class="st7" d="M15.3,11.9h8.2v18.6h-8.2V11.9z"/>
	<path class="st4" d="M19.8,15.4h-2.2v-5.1c0-1.2-1-2.2-2.2-2.2c-1.2,0-2.2,1-2.2,2.2v5.1H11v-5.1c0-2.4,2-4.4,4.4-4.4
		c2.4,0,4.4,2,4.4,4.4V15.4z"/>
	<path class="st5" d="M15.4,5.9C15.4,5.9,15.3,5.9,15.4,5.9l0,2.2c0,0,0,0,0,0c1.2,0,2.2,1,2.2,2.2v5.1h2.2v-5.1
		C19.8,7.9,17.8,5.9,15.4,5.9z"/>
</g>
</svg>
