<?xml version="1.0" encoding="utf-8"?>
<!-- Generator: Adobe Illustrator 22.1.0, SVG Export Plug-In . SVG Version: 6.00 Build 0)  -->
<svg version="1.1" id="Слой_1" xmlns="http://www.w3.org/2000/svg" xmlns:xlink="http://www.w3.org/1999/xlink" x="0px" y="0px"
	 viewBox="0 0 38 38" style="enable-background:new 0 0 38 38;" xml:space="preserve">
<style type="text/css">
	.st0{fill:#4A7AFF;}
	.st1{fill:#0053BF;}
	.st2{fill:#F55757;}
	.st3{fill:#FF193D;}
	.st4{fill:#DBEEFF;}
	.st5{fill:#A3D4FF;}
	.st6{fill:#FF936B;}
	.st7{fill:#FF8257;}
	.st8{fill:#545965;}
	.st9{fill:#FFA426;}
	.st10{fill:#31373E;}
	.st11{fill:#FFFFFF;}
	.st12{fill:#E9EDF5;}
</style>
<g id="sportground">
	<circle class="st0" cx="19" cy="19" r="19"/>
	<path class="st1" d="M22.4,37.7c8.3-1.5,14.8-8.5,15.5-17L24.1,6.2L8.6,12.7l7.2,11.2l-0.2,7.6L22.4,37.7z"/>
	<g>
		<path class="st2" d="M6.4,6.3v12h17.9v-12H6.4z"/>
		<path class="st3" d="M15.3,6.3h8.9v12h-8.9V6.3z"/>
		<path class="st4" d="M7.8,7.8v9h14.9v-9H7.8z"/>
		<path class="st5" d="M15.3,7.8h7.5v9h-7.5V7.8z"/>
		<path class="st4" d="M13.8,20.5h3v10.4h-3V20.5z"/>
		<path class="st5" d="M15.3,20.5h1.5v10.4h-1.5V20.5z"/>
		<path class="st6" d="M27.1,31.6c0.9-0.1,1.7-0.4,2.5-1c0.2-0.1-1.1-1.8-0.9-2c0.2-0.2,1.8,1.1,2,0.9c0.6-0.7,0.9-1.6,1-2.5
			c0-0.3-1.4-0.5-1.4-0.8c0-0.3,1.5-0.5,1.4-0.8c-0.2-1-0.7-2-1.4-2.7c-0.8-0.8-1.8-1.3-2.8-1.4c-0.2,0-0.5,1.4-0.7,1.4
			c-0.3,0-0.5-1.5-0.8-1.4c-0.9,0.1-1.7,0.4-2.5,1c-0.2,0.1,1.1,1.8,0.9,2c-0.2,0.2-1.8-1.1-2-0.9c-0.5,0.7-0.8,1.6-0.9,2.5
			c0,0.3,1.4,0.5,1.4,0.8c0,0.2-1.5,0.5-1.4,0.7c0.2,1,0.6,2,1.4,2.7c0.8,0.8,1.7,1.3,2.8,1.4c0.3,0.1,0.6-1.4,0.9-1.4
			C26.7,30.2,26.9,31.6,27.1,31.6z"/>
		<path class="st7" d="M30.6,29.6c0.6-0.7,0.9-1.6,1-2.5c0-0.3-1.4-0.5-1.4-0.8c0-0.3,1.5-0.5,1.4-0.8c-0.2-1-0.7-2-1.4-2.7
			c-0.8-0.8-1.8-1.3-2.8-1.4c-0.2,0-0.5,1.4-0.7,1.4c-0.3,0-0.5-1.5-0.8-1.4c-0.9,0.1-1.7,0.4-2.5,1c-0.2,0.1,1.1,1.8,0.9,2l4.4,4.4
			C28.8,28.5,30.5,29.8,30.6,29.6z"/>
		<path class="st8" d="M11.6,30.2H19v1.5h-7.4V30.2z"/>
		<path class="st9" d="M27.1,31.6c-0.3-1-0.1-2.1,0.5-3l2,2c0.2-0.1,0.4-0.3,0.6-0.5c0.2-0.2,0.3-0.4,0.5-0.6l-2-2
			c0.9-0.6,2-0.7,3-0.5c0.1-0.5,0.1-1,0-1.6c-1.4-0.2-2.9,0.1-4,1l-1.1-1.1c0.7-0.9,1.1-2,1.1-3.1c0-0.3,0-0.6-0.1-0.9
			c-0.5-0.1-1-0.1-1.5,0c0.3,1,0.1,2.1-0.5,3l-2-2c-0.2,0.1-0.4,0.3-0.6,0.5c-0.2,0.2-0.3,0.4-0.5,0.6l2,2c-0.9,0.6-1.9,0.7-2.9,0.5
			c-0.1,0.5-0.1,1,0,1.5c1.4,0.2,2.8-0.1,4-1l1.1,1.1c-0.9,1.2-1.2,2.6-0.9,4C26.1,31.7,26.6,31.7,27.1,31.6z"/>
		<path class="st9" d="M30.1,30.2c0.2-0.2,0.3-0.4,0.5-0.6l-2-2c0.9-0.6,2-0.7,3-0.5c0.1-0.5,0.1-1,0-1.6c-1.4-0.2-2.9,0.1-4,1
			l-1.1-1.1c0.7-0.9,1.1-2,1.1-3.1c0-0.3,0-0.6-0.1-0.9c-0.5-0.1-1-0.1-1.5,0c0.3,1,0.1,2.1-0.5,3l-2-2c-0.2,0.1-0.4,0.3-0.6,0.5
			L30.1,30.2z"/>
		<path class="st10" d="M15.3,30.2H19v1.5h-3.7V30.2z"/>
		<path class="st11" d="M18.3,11.5l-0.4,2.3H16v-2.2h-1.5v2.2h-1.8l-0.4-2.3l-1.5,0.2l1.6,9.5h5.7l1.6-9.5L18.3,11.5z M14.6,19.8
			h-0.9l-0.2-1.5h1.1V19.8z M14.6,16.8h-1.3L13,15.3h1.6V16.8z M16.9,19.8H16v-1.5h1.1L16.9,19.8z M17.4,16.8H16v-1.5h1.6L17.4,16.8
			z"/>
		<path class="st12" d="M18.3,11.5l-0.4,2.3H16v-2.2h-0.7v9.6h2.8l1.6-9.5L18.3,11.5z M16.9,19.8H16v-1.5h1.1L16.9,19.8z M17.4,16.8
			H16v-1.5h1.6L17.4,16.8z"/>
		<path class="st2" d="M9.4,10.9h11.9v1.5H9.4V10.9z"/>
		<path class="st3" d="M15.3,10.9h6v1.5h-6V10.9z"/>
	</g>
</g>
</svg>
