<?xml version="1.0" encoding="utf-8"?>
<!-- Generator: Adobe Illustrator 22.1.0, SVG Export Plug-In . SVG Version: 6.00 Build 0)  -->
<svg version="1.1" id="Слой_1" xmlns="http://www.w3.org/2000/svg" xmlns:xlink="http://www.w3.org/1999/xlink" x="0px" y="0px"
	 viewBox="0 0 38 38" style="enable-background:new 0 0 38 38;" xml:space="preserve">
<style type="text/css">
	.st0{fill:#FF5B5B;}
	.st1{fill:#F7183B;}
	.st2{fill:#FFFFFF;}
	.st3{fill:#E9EDF5;}
	.st4{fill:#AFB4C8;}
	.st5{fill:#9196AA;}
	.st6{fill:#FDBA12;}
	.st7{fill:#FFCE00;}
</style>
<g id="stock">
	<g>
		<g>
			<g>
				<g>
					<g>
						<g>
							<g>
								<circle class="st0" cx="19" cy="19" r="19"/>
							</g>
						</g>
					</g>
				</g>
			</g>
			<g>
				<g>
					<g>
						<g>
							<g>
								<circle class="st0" cx="19" cy="19" r="19"/>
							</g>
						</g>
					</g>
				</g>
			</g>
		</g>
	</g>
	<path class="st1" d="M38,17.9l-7.4-7.4l-23.2,19l8.1,8.1c1.1,0.2,2.3,0.3,3.5,0.3c10.5,0,19-8.5,19-19C38,18.6,38,18.3,38,17.9z"/>
	<g>
		<polygon class="st2" points="30.6,29.6 7.4,29.6 7.4,10.6 19,4.2 30.6,10.6 		"/>
	</g>
	<g>
		<polygon class="st3" points="30.6,10.6 19,4.2 19,29.6 30.6,29.6 		"/>
	</g>
	<g>
		<polygon class="st4" points="28,29.6 10,29.6 10,12.7 19,7.8 28,12.7 		"/>
	</g>
	<g>
		<polygon class="st5" points="28,12.7 19,7.8 19,29.6 28,29.6 		"/>
	</g>
	<g>
		<g>
			<g>
				<rect x="19.9" y="23.2" class="st6" width="6.3" height="6.3"/>
			</g>
		</g>
		<g>
			<g>
				<rect x="11.7" y="23.2" class="st7" width="6.3" height="6.3"/>
			</g>
		</g>
	</g>
	<g>
		<g>
			<rect x="15.8" y="16.9" class="st7" width="6.3" height="6.3"/>
		</g>
	</g>
	<g>
		<g>
			<rect x="19" y="16.9" class="st6" width="3.1" height="6.3"/>
		</g>
	</g>
</g>
</svg>
