<?xml version="1.0" encoding="utf-8"?>
<!-- Generator: Adobe Illustrator 22.1.0, SVG Export Plug-In . SVG Version: 6.00 Build 0)  -->
<svg version="1.1" id="Слой_1" xmlns="http://www.w3.org/2000/svg" xmlns:xlink="http://www.w3.org/1999/xlink" x="0px" y="0px"
	 viewBox="0 0 38 38" style="enable-background:new 0 0 38 38;" xml:space="preserve">
<style type="text/css">
	.st0{fill:#FFCE00;}
	.st1{clip-path:url(#SVGID_2_);fill:#FFA426;}
	.st2{fill:#06B26B;}
	.st3{fill:#F55757;}
	.st4{fill:#545965;}
	.st5{fill:#31373E;}
	.st6{fill:#FFFFFF;}
	.st7{fill:#E9EDF5;}
</style>
<g id="TBO_1_">
	<path class="st0" d="M38,19c0,10.5-8.5,19-19,19S0,29.5,0,19S8.5,0,19,0S38,8.5,38,19z"/>
	<g>
		<defs>
			<path id="SVGID_1_" d="M38,19c0,10.5-8.5,19-19,19S0,29.5,0,19S8.5,0,19,0S38,8.5,38,19z"/>
		</defs>
		<clipPath id="SVGID_2_">
			<use xlink:href="#SVGID_1_"  style="overflow:visible;"/>
		</clipPath>
		<path class="st1" d="M38,23.7c0-1.1,0.2-0.2,0-1.3l-9.5-8.2l-0.2,1.1l-3.6,0.2l-4.4,5.1l-3.2-1.3h-3.8l4.6,5.7l-9.7,4.4l10.1,8.9
			c1,0.2,2.8,0,3.8,0C32.7,38.3,38,34.2,38,23.7z"/>
	</g>
	<g>
		<path class="st2" d="M12.1,22.5c-0.1,0-0.2,0-0.3-0.1c-0.2-0.1-0.3-0.2-0.4-0.4l-1.2-3.9c-0.1-0.4,0.1-0.8,0.5-0.9l3.7-1.2
			c0.2-0.1,0.4,0,0.6,0c0.2,0.1,0.3,0.2,0.4,0.4l1.2,3.9c0.1,0.4-0.1,0.8-0.5,0.9l-3.7,1.2C12.2,22.5,12.2,22.5,12.1,22.5z"/>
		<path class="st3" d="M23.4,25.6c-0.1,0-0.2,0-0.4-0.1l-3.7-2.1c-0.4-0.2-0.5-0.7-0.3-1l2.4-4.2c0.4-0.6,0.9-1.2,1.6-1.5
			c0.4-0.2,0.7-0.5,0.9-0.9l1.4-2.5c0.1-0.2,0.3-0.3,0.4-0.4c0.2-0.1,0.4,0,0.6,0.1l2,1.1c0.4,0.2,0.5,0.7,0.3,1l-1.4,2.5
			c-0.2,0.4-0.3,0.8-0.3,1.3c0.1,0.7-0.1,1.5-0.5,2.1L24,25.2C23.9,25.5,23.6,25.6,23.4,25.6z"/>
		<path class="st4" d="M28.5,22.5c-0.6-1.8-2.3-3.1-4.3-3.1c-0.5,0-1,0.1-1.4,0.2c-1.1-1.4-2.8-2.2-4.6-2.2c-2,0-3.8,1-4.9,2.6
			c-0.2,0-0.4,0-0.6,0c-1.9,0-3.5,1.5-3.6,3.4c-1.6,0.2-2.8,1.5-2.8,3.1c0,1.7,1.4,3.2,3.2,3.2H28c2,0,3.6-1.6,3.6-3.6
			C31.7,24.3,30.3,22.8,28.5,22.5z"/>
		<path class="st5" d="M18.1,22.8c-0.7,0-1.3,0.3-1.8,0.7c-0.5-0.5-1.1-0.7-1.8-0.7c-1.4,0-2.5,1.1-2.5,2.5c0,0.4,0.3,0.7,0.7,0.7
			s0.7-0.3,0.7-0.7c0-0.6,0.5-1,1-1s1,0.5,1,1c0,0.4,0.3,0.7,0.7,0.7c0.4,0,0.7-0.3,0.7-0.7c0-0.6,0.5-1,1-1c0.4,0,0.7-0.3,0.7-0.7
			C18.8,23.1,18.5,22.8,18.1,22.8z"/>
		<g>
			<path class="st6" d="M15.8,13.8c-0.2,0-0.4-0.1-0.5-0.2c-0.9-0.9-0.9-2.2,0-3.1c0.2-0.2,0.2-0.3,0.2-0.5c0-0.2-0.1-0.4-0.2-0.5
				c-0.3-0.3-0.3-0.8,0-1.1c0.3-0.3,0.8-0.3,1.1,0c0.4,0.4,0.7,1,0.7,1.6c0,0.6-0.2,1.1-0.7,1.5c-0.2,0.2-0.4,0.6,0,1
				c0.3,0.3,0.3,0.8,0,1.1C16.2,13.7,16,13.8,15.8,13.8z"/>
			<path class="st6" d="M19,13.8c-0.2,0-0.4-0.1-0.5-0.2c-0.4-0.4-0.7-1-0.7-1.6c0-0.6,0.2-1.1,0.7-1.5c0.2-0.2,0.4-0.6,0-1
				c-0.3-0.3-0.3-0.8,0-1.1c0.3-0.3,0.8-0.3,1.1,0c0.9,0.9,0.9,2.2,0,3.1c-0.2,0.2-0.2,0.3-0.2,0.5c0,0.2,0.1,0.4,0.2,0.5
				c0.3,0.3,0.3,0.8,0,1.1C19.4,13.7,19.2,13.8,19,13.8z"/>
		</g>
		<g>
			<path class="st7" d="M22.3,13.8c-0.2,0-0.4-0.1-0.5-0.2c-0.9-0.9-0.9-2.2,0-3.1c0.2-0.2,0.4-0.6,0-1c-0.3-0.3-0.3-0.8,0-1.1
				c0.3-0.3,0.8-0.3,1.1,0c0.9,0.9,0.9,2.2,0,3.1c-0.2,0.2-0.4,0.6,0,1c0.3,0.3,0.3,0.8,0,1.1C22.7,13.7,22.5,13.8,22.3,13.8z"/>
			<path class="st5" d="M28.5,22.5c-0.6-1.8-2.3-3.1-4.3-3.1c-0.5,0-1,0.1-1.4,0.2c-1-1.2-2.4-2-3.9-2.2v12.3H28
				c2,0,3.6-1.6,3.6-3.6C31.7,24.3,30.3,22.8,28.5,22.5z"/>
			<path class="st7" d="M19.6,8.4c-0.2-0.2-0.5-0.3-0.7-0.2v5.5c0.1,0,0.1,0,0.2,0c0.2,0,0.4-0.1,0.5-0.2c0.3-0.3,0.3-0.8,0-1.1
				c-0.1-0.1-0.2-0.3-0.2-0.5c0-0.2,0.1-0.3,0.2-0.5C20.5,10.6,20.5,9.3,19.6,8.4z"/>
		</g>
	</g>
</g>
</svg>
