<?xml version="1.0" encoding="utf-8"?>
<!-- Generator: Adobe Illustrator 22.1.0, SVG Export Plug-In . SVG Version: 6.00 Build 0)  -->
<svg version="1.1" id="Слой_1" xmlns="http://www.w3.org/2000/svg" xmlns:xlink="http://www.w3.org/1999/xlink" x="0px" y="0px"
	 viewBox="0 0 38 38" style="enable-background:new 0 0 38 38;" xml:space="preserve">
<style type="text/css">
	.st0{fill:#4A7AFF;}
	.st1{fill:#0053BF;}
	.st2{fill:#E9EDF5;}
	.st3{fill:#FF7045;}
	.st4{fill:#DE4726;}
	.st5{fill:#FFFFFF;}
	.st6{fill:#AFB4C8;}
	.st7{fill:#9196AA;}
</style>
<g id="temple">
	<path class="st0" d="M38,19c0,10.5-8.5,19-19,19S0,29.5,0,19S8.5,0,19,0S38,8.5,38,19z"/>
	<path class="st1" d="M38,19.8L26.9,8.7L19,5.9l-6.6,4.6l6.4,6.4L7.6,21.2l6.7,6.7l-6.1,3.8l5.6,5.6c1.7,0.5,3.4,0.7,5.2,0.7
		C29.2,38,37.6,29.9,38,19.8z"/>
	<path class="st2" d="M25.2,21.5H12.8V9.2L19,4.8l6.2,4.4V21.5z"/>
	<path class="st2" d="M19,21.5h6.2V9.2L19,4.8L19,21.5z"/>
	<path class="st3" d="M25.4,10.7L19,6.1l-6.4,4.5l-1.3-1.8L19,3.5l7.7,5.4L25.4,10.7z"/>
	<path class="st4" d="M19,6.1l6.4,4.5l1.3-1.8L19,3.5V6.1z"/>
	<path class="st5" d="M29.5,31.4H8.5V19.7L19,15.3l10.6,4.4V31.4z"/>
	<path class="st2" d="M29.5,19.7L19,15.3v0l0,16h10.6V19.7z"/>
	<path class="st3" d="M20.1,14.6v-2.3h1.7v-2.2h-1.7V8.4h-2.2v1.7h-1.7v2.2h1.7v2.3L7,19.1l0.8,2L19,16.5l11.1,4.6l0.8-2L20.1,14.6z
		"/>
	<path class="st4" d="M20.1,14.6v-2.3h1.7v-2.2h-1.7V8.4H19v8.1l11.1,4.6l0.8-2L20.1,14.6z"/>
	<path class="st6" d="M22.4,31.4h-6.9v-5.1c0-1.9,1.5-3.4,3.4-3.4s3.4,1.5,3.4,3.4V31.4z"/>
	<path class="st7" d="M22.4,26.3c0-1.9-1.5-3.4-3.4-3.4c0,0,0,0,0,0v8.5h3.5V26.3z"/>
</g>
</svg>
