<?xml version="1.0" encoding="utf-8"?>
<!-- Generator: Adobe Illustrator 22.1.0, SVG Export Plug-In . SVG Version: 6.00 Build 0)  -->
<svg version="1.1" id="Слой_1" xmlns="http://www.w3.org/2000/svg" xmlns:xlink="http://www.w3.org/1999/xlink" x="0px" y="0px"
	 viewBox="0 0 38 38" style="enable-background:new 0 0 38 38;" xml:space="preserve">
<style type="text/css">
	.st0{fill:#FF5B5B;}
	.st1{fill:#F7183B;}
	.st2{fill:#545965;}
	.st3{fill:#31373E;}
	.st4{fill:#FFFFFF;}
	.st5{fill:#E9EDF5;}
	.st6{fill:#AFB4C8;}
	.st7{fill:#9196AA;}
</style>
<g id="train_2_">
	<path class="st0" d="M38,19c0,10.5-8.5,19-19,19S0,29.5,0,19S8.5,0,19,0S38,8.5,38,19z"/>
	<path class="st1" d="M38,19c0-0.5,0-0.9-0.1-1.4l-9.9-9.9L9.3,28.9l9.1,9.1c0.2,0,0.4,0,0.6,0C29.5,38,38,29.5,38,19z"/>
	<path class="st2" d="M9,35.2C11.9,37,15.3,38,19,38s7.1-1,10-2.8l-2-8H11L9,35.2z"/>
	<path class="st3" d="M29,35.2l-2-8h-8V38h0C22.7,38,26.1,37,29,35.2z"/>
	<path class="st4" d="M23.4,31.1h-8.8c-4.4,0-7.9-3.8-7.6-8.2l0.8-10.4c0.3-4,3.6-7,7.6-7h7.2c4,0,7.3,3,7.6,7L31,22.8
		C31.4,27.3,27.9,31.1,23.4,31.1z"/>
	<path class="st5" d="M31,22.8l-0.8-10.4c-0.3-4-3.6-7-7.6-7H19v25.7h4.4C27.9,31.1,31.4,27.3,31,22.8z"/>
	<path class="st6" d="M28.3,17.7H9.7l0.6-6.3h17.5L28.3,17.7z"/>
	<path class="st7" d="M27.7,11.4H19v6.3h9.3L27.7,11.4z"/>
	<path class="st0" d="M15.9,24.4H9.7v-3.1h3.1C14.5,21.3,15.9,22.7,15.9,24.4z"/>
	<path class="st1" d="M22.1,24.4h6.2v-3.1h-3.1C23.5,21.3,22.1,22.7,22.1,24.4z"/>
</g>
</svg>
