<?xml version="1.0" encoding="utf-8"?>
<!-- Generator: Adobe Illustrator 24.0.1, SVG Export Plug-In . SVG Version: 6.00 Build 0)  -->
<svg version="1.1" id="Слой_1" xmlns="http://www.w3.org/2000/svg" xmlns:xlink="http://www.w3.org/1999/xlink" x="0px" y="0px"
	 viewBox="0 0 440.9 500" style="enable-background:new 0 0 440.9 500;" xml:space="preserve">

<path fill="#3092E8" d="M225.5,108.5c-66,0.1-119.7,53.8-119.8,119.8v0c0,66,53.7,119.8,119.8,119.8s119.8-53.7,119.8-119.8
	S291.6,108.5,225.5,108.5z M225.5,328.5c-55.3,0-100.3-45-100.3-100.3C125.3,173,170.3,128,225.5,128c55.3,0,100.3,45,100.3,100.3
	C325.8,283.5,280.8,328.5,225.5,328.5z"/>
<path fill="#3092E8" d="M439.6,382.3c-11.2-19.9-36-27.5-56.4-17.2l-62.5,29.5c-9.2-16.1-26.3-26.3-45-26.9l-58.9-1.6
	c-9-0.3-18.1-2.6-26.1-6.7l-6-3.1c-30.4-15.8-66.4-16.2-97-1.1l0.3-10.9c0.1-2.6-0.9-5.1-2.7-7c-1.8-1.9-4.2-3-6.8-3l-64.6-1.8
	c-5.4-0.1-9.9,4.1-10,9.5L0,483.7c-0.1,2.6,0.9,5.1,2.7,7c1.8,1.9,4.2,3,6.8,3l64.7,1.8h0.2c5.3,0,9.6-4.2,9.7-9.5l0.2-5.9l16-8.6
	c6.3-3.4,13.5-4.2,20.3-2.2l100.2,28.1c0.2,0.1,0.4,0.1,0.7,0.2c7.3,1.5,14.8,2.3,22.3,2.3c0,0,0.1,0,0.1,0c16,0,31.5-3.4,46-10.1
	c0.4-0.2,0.8-0.4,1.2-0.7l145.4-94C440.8,392.5,442.2,386.8,439.6,382.3z M64.9,475.8l-45.1-1.2l3.4-122.3l45.1,1.2L64.9,475.8z
	 M281.1,472.5c-17.5,7.9-36.6,10-55.4,6.2l-99.9-28c-11.7-3.3-24.1-2-34.8,3.8l-6.2,3.3l2.2-79.9c26.6-17.3,60.5-19,88.7-4.3l6,3.1
	c10.6,5.5,22.6,8.6,34.5,8.9l58.9,1.6c15.2,0.4,28.1,10.7,32,25.2l-85.7-2.4c-5.4-0.1-9.9,4.1-10,9.5c-0.1,5.4,4.1,9.9,9.5,10
	l96.9,2.7h0.2c5.3,0,9.6-4.2,9.7-9.5c0.1-3.2-0.1-6.5-0.6-9.7l64.3-30.4l0.3-0.1c8-4.1,17.7-3.1,24.8,2.4L281.1,472.5z"/>
<path fill="#3092E8" d="M225.5,0c-5.4,0-9.7,4.4-9.7,9.7v77.4c0,5.4,4.4,9.7,9.7,9.7s9.7-4.4,9.7-9.7V9.7C235.3,4.4,230.9,0,225.5,0z"
	/>
<path fill="#3092E8" d="M286.7,40.7c-5.4,0-9.7,4.4-9.7,9.7v36.7c0,5.4,4.4,9.7,9.7,9.7s9.7-4.4,9.7-9.7V50.5
	C296.4,45.1,292,40.7,286.7,40.7z"/>
<path fill="#3092E8" d="M164.4,40.7c-5.4,0-9.7,4.4-9.7,9.7v36.7c0,5.4,4.4,9.7,9.7,9.7c5.4,0,9.7-4.4,9.7-9.7V50.5
	C174.2,45.1,169.8,40.7,164.4,40.7z"/>
<g>
	<path fill="#3092E8" d="M278.7,244.5c-2.1-4.1-5.1-7.3-9.2-9.8c-4-2.4-8.8-3.7-14.3-3.7c-5.5,0-10.2,1.2-14.2,3.7
		c-4,2.4-7,5.7-9.1,9.8c-2,4-3,8.2-3,12.7c0,4.5,1,8.7,3,12.7c2.1,4,5.1,7.3,9.1,9.7c4,2.4,8.8,3.7,14.2,3.7
		c5.4,0,10.2-1.2,14.3-3.7c4-2.4,7.1-5.7,9.2-9.7c2-3.9,3-8.2,3-12.7C281.8,252.8,280.7,248.5,278.7,244.5z M250,251
		c0.7-0.9,2-2.2,5.3-2.2c3.3,0,4.6,1.2,5.3,2.2c1.3,1.8,1.9,3.8,1.9,6.2c0,2.4-0.6,4.4-1.9,6.2c-0.7,0.9-2,2.2-5.3,2.2
		c-3.3,0-4.6-1.2-5.3-2.2c-1.3-1.8-1.9-3.8-1.9-6.2C248.1,254.9,248.7,252.8,250,251z"/>
	<path fill="#3092E8" d="M210.4,220.5c4-2.4,7.1-5.7,9.2-9.8c2-4,3-8.2,3-12.7c0-4.5-1-8.7-3-12.7c-2.1-4-5.1-7.3-9.2-9.7
		c-4-2.4-8.8-3.7-14.3-3.7c-5.4,0-10.2,1.2-14.3,3.7c-4,2.4-7.1,5.7-9.2,9.7c-2,3.9-3,8.2-3,12.7c0,4.5,1,8.7,3,12.7
		c2.1,4.1,5.1,7.4,9.2,9.8c4,2.4,8.8,3.7,14.3,3.7C201.6,224.1,206.4,222.9,210.4,220.5z M201.4,204.2c-0.7,0.9-2,2.2-5.3,2.2
		c-3.3,0-4.6-1.2-5.3-2.2c-1.3-1.8-1.9-3.8-1.9-6.2c0-2.4,0.6-4.4,1.9-6.2c0.7-0.9,2-2.2,5.3-2.2c3.3,0,4.6,1.2,5.3,2.2
		c1.3,1.8,1.9,3.8,1.9,6.2C203.3,200.3,202.7,202.4,201.4,204.2z"/>
	<polygon fill="#3092E8" points="246.4,173.7 184.3,281.5 205.9,281.5 267.9,173.7 	"/>
</g>
</svg>
