<?xml version="1.0" encoding="utf-8"?>
<!-- Generator: Adobe Illustrator 24.0.1, SVG Export Plug-In . SVG Version: 6.00 Build 0)  -->
<svg version="1.1" id="Слой_1" xmlns="http://www.w3.org/2000/svg" xmlns:xlink="http://www.w3.org/1999/xlink" x="0px" y="0px"
	 viewBox="0 0 89.8 100" style="enable-background:new 0 0 89.8 100;" xml:space="preserve">
<path fill="#101010" d="M76.2,65.7c-8.4-3.6-19.5-5.5-31.3-5.5s-22.9,2-31.3,5.5C4.8,69.4,0,74.5,0,80.1c0,5.6,4.8,10.7,13.6,14.4
	C22,98,33.1,100,44.9,100c11.8,0,22.9-2,31.3-5.5c8.8-3.7,13.6-8.8,13.6-14.4C89.8,74.5,85,69.4,76.2,65.7z M75.1,91.8
	c-8,3.4-18.7,5.3-30.1,5.3c-11.4,0-22.1-1.9-30.1-5.3C7.2,88.6,2.9,84.3,2.9,80.1c0-4.2,4.3-8.5,11.8-11.7c8-3.4,18.7-5.3,30.1-5.3
	c11.4,0,22.1,1.9,30.1,5.3c7.5,3.2,11.8,7.5,11.8,11.7C86.9,84.3,82.6,88.6,75.1,91.8z"/>
<path fill="#73A942" d="M28.6,30.8h6.8l-5.5,8.1H24v2.9h3.9l-2.5,3.6H39v12.3h2.9V45.5h6.1v12.3h2.9V45.5h13.5l-9.9-14.7h6.8l-9.1-13.4
	h4.5L44.9,0L33.2,17.4h4.5L28.6,30.8z M44.9,5.2l6.2,9.2h-4.5l9.1,13.4h-6.8l9.9,14.7H31l7.9-11.7h7.3v-2.9H34.1l7.1-10.5h2.7v-2.9
	h-5.2L44.9,5.2z"/>
<path fill="#101010" d="M19.8,54.3v6.2h2.9v-6.2h4.7v4.6h2.9v-4.6H36v-2.9H13.6l8.4-12.5h-5.8L24,27.5h-3.8l4.9-7.2l3.5,5.2l2.4-1.6
	l-5.9-8.7L14.7,30.4h3.8l-7.7,11.4h5.8L8.1,54.3H19.8z"/>
<path fill="#101010" d="M63.8,52.6h-6.4l-3.3,3.3v2.4h2.9v-1.1l1.5-1.5h4l1.6,1.5v3.4h2.9v-0.6l1.3-1.3h2.4l1.3,1.3v2.2h2.9v-3.4
	l-3.1-3.1h-4.8L67,55.8L63.8,52.6z"/>
<path fill="#101010" d="M54.9,76.6c-0.1,0-0.3,0-0.4,0l0.1-2.9c0.1,0,0.2,0,0.4,0c2.3,0,3.3-0.3,4.5-0.7c1.3-0.4,2.7-0.9,5.4-0.9
	s4.2,0.5,5.4,0.9c1.2,0.4,2.3,0.7,4.5,0.7v2.9c-2.7,0-4.2-0.5-5.4-0.9c-1.2-0.4-2.3-0.7-4.5-0.7s-3.3,0.3-4.5,0.7
	C59,76.2,57.6,76.6,54.9,76.6C54.9,76.6,54.9,76.6,54.9,76.6z M52.3,76.5c-1.2-0.2-2.1-0.4-2.9-0.7l-0.2-0.1l0.9-2.8l0.2,0.1
	c0.7,0.2,1.4,0.5,2.4,0.6L52.3,76.5z M47.5,75.2c-0.8-0.1-1.6-0.2-2.6-0.2v-2.9c1.2,0,2.2,0.1,3.2,0.3L47.5,75.2z"/>
<path fill="#101010" d="M35.5,86c-2.7,0-4.2-0.5-5.4-0.9c-1.2-0.4-2.3-0.7-4.5-0.7c-0.1,0-0.3,0-0.4,0l-0.1-2.9c0.1,0,0.3,0,0.4,0
	c2.7,0,4.2,0.5,5.4,0.9c1.2,0.4,2.3,0.7,4.5,0.7c2.3,0,3.3-0.3,4.5-0.7c1.3-0.4,2.7-0.9,5.4-0.9v2.9c-2.3,0-3.3,0.3-4.5,0.7
	C39.7,85.6,38.2,86,35.5,86z M15.6,86v-2.9c1,0,1.9-0.1,2.6-0.2l0.5,2.9C17.8,85.9,16.8,86,15.6,86z M20.8,85.2l-0.9-2.8l0.2-0.1
	c0.8-0.3,1.7-0.5,2.9-0.7l0.4,2.9c-1,0.1-1.7,0.4-2.4,0.6L20.8,85.2z"/>
</svg>
