<?xml version="1.0" encoding="utf-8"?>
<!-- Generator: Adobe Illustrator 24.0.1, SVG Export Plug-In . SVG Version: 6.00 Build 0)  -->
<svg version="1.1" id="Layer_3" xmlns="http://www.w3.org/2000/svg" xmlns:xlink="http://www.w3.org/1999/xlink" x="0px" y="0px"
	 viewBox="0 0 41.3 41" style="enable-background:new 0 0 41.3 41;" xml:space="preserve">

<g>
	<path fill="#73A942" d="M14.6,40.4L0.9,27C0.3,26.6,0,25.9,0,25.2c0-0.7,0.2-1.4,0.7-1.9c0.5-0.5,1.1-0.8,1.8-0.8s1.3,0.2,1.9,0.7
		l11.4,11.1L36.5,1.1c0.4-0.5,0.9-0.9,1.6-1.1c0.7-0.2,1.3,0,1.9,0.4c0.6,0.4,1,0.9,1.1,1.6c0.2,0.7,0,1.4-0.4,2L18.5,39.9
		c-0.1,0.2-0.1,0.3-0.2,0.3c0,0-0.2,0.1-0.4,0.3l-0.1,0.1c-0.2,0.2-0.5,0.3-0.8,0.4c-0.1,0-0.2,0-0.2,0c-0.2,0.1-0.4,0.1-0.6,0
		c-0.2,0-0.3,0-0.5,0c-0.1-0.1-0.2-0.2-0.5-0.2c-0.2-0.1-0.3-0.1-0.4-0.1C14.7,40.5,14.7,40.5,14.6,40.4z"/>
</g>
</svg>
