<?xml version="1.0" encoding="utf-8"?>
<!-- Generator: Adobe Illustrator 24.0.1, SVG Export Plug-In . SVG Version: 6.00 Build 0)  -->
<svg version="1.1" id="Capa_1" xmlns="http://www.w3.org/2000/svg" xmlns:xlink="http://www.w3.org/1999/xlink" x="0px" y="0px"
	 viewBox="0 0 512 512" style="enable-background:new 0 0 512 512;" xml:space="preserve">

<path fill="#73A942" d="M359.7,279.5c13.7-21.2,24.1-45.8,24.1-71.6c0-24.3-9.1-46.5-24-63.4l-15-13.7c-15.9-11.7-35.4-18.6-56.6-18.6
	c-52.8,0-95.7,42.9-95.7,95.7c0,75.1,87.5,139.6,91.3,142.3c2.6,1.9,6.2,1.9,8.8,0c2-1.5,28.3-20.9,52.2-50.2l15-20
	C359.7,279.9,359.7,279.7,359.7,279.5z M288.1,334.7c-17.5-13.9-80.7-68.4-80.7-126.8c0-44.5,36.2-80.7,80.7-80.7
	s80.7,36.2,80.7,80.7C368.7,266.3,305.5,320.7,288.1,334.7z"/>
<path fill="#FFFFFF" d="M507.1,56.6L354.8,0.5c-1.5-0.6-3.2-0.6-4.7-0.2l-190,55.4L10.1,0.5C5.3-1.3,0,2.4,0,7.5v440.9
	c0,3.1,2,6,4.9,7.1l152.3,56.1c1.5,0.5,3.1,0.6,4.6,0.2l190.1-52.5L502,511.6c4.8,1.7,10-2,10-7.1V63.6
	C512,60.5,510,57.7,507.1,56.6z M167.3,69.3l177.3-51.7v16.4L167.3,85.7V69.3z M152.3,493.7L15,443.1V18.3l137.3,50.6v16.5
	l-110.4-36c-4.8-1.6-9.8,2.1-9.8,7.1V429c0,3.2,2,6,5,7.1l115.3,41.6V493.7z M344.7,445.7l-177.3,49v-16.6l177.3-51.7V445.7z
	 M344.7,300.1v110.6l-177.3,51.7V195.9c0-4.2-3.4-7.5-7.5-7.5s-7.5,3.4-7.5,7.5v265.8l-105.2-38V66.9l105.2,34.3v60.2
	c0,4.1,3.4,7.5,7.5,7.5c4.2,0,7.5-3.4,7.5-7.5v-60l177.3-51.7v81.2l15,13.7V50.8L464.9,94v356.6l-105.2-39.5V280L344.7,300.1z
	 M497,493.9L359.7,446v-18.9l110.1,41.4c4.8,1.8,10.2-1.9,10.2-7V89c0-3-1.8-5.8-4.7-7L359.7,34.5V18.3L497,68.9V493.9z"/>
<g>
	<g>
		<path fill="#73A942" d="M288.1,152.3c-30.7,0-55.6,24.9-55.6,55.6s24.9,55.6,55.6,55.6s55.6-24.9,55.6-55.6S318.7,152.3,288.1,152.3z
			 M288.1,248.5c-22.4,0-40.6-18.2-40.6-40.6c0-22.4,18.2-40.6,40.6-40.6c22.4,0,40.6,18.2,40.6,40.6
			C328.6,230.3,310.4,248.5,288.1,248.5z"/>
	</g>
</g>
<g>
	<g>
		<path fill="#73A942" d="M315.5,377.5l-10.6-5.3l10.6-5.3c3.7-1.9,5.2-6.4,3.4-10.1c-1.9-3.7-6.4-5.2-10.1-3.4l-20.7,10.3l-20.7-10.3
			c-3.7-1.9-8.2-0.4-10.1,3.4c-1.9,3.7-0.4,8.2,3.4,10.1l10.6,5.3l-10.6,5.3c-3.7,1.9-5.2,6.4-3.4,10.1c1.8,3.7,6.4,5.2,10.1,3.4
			l20.7-10.3l20.7,10.3c3.9,2,8.8,0.1,10.4-4C320.5,383.4,318.9,379.2,315.5,377.5z"/>
	</g>
</g>
</svg>
