<?xml version="1.0" encoding="utf-8"?>
<!-- Generator: Adobe Illustrator 24.0.1, SVG Export Plug-In . SVG Version: 6.00 Build 0)  -->
<svg version="1.1" xmlns="http://www.w3.org/2000/svg" xmlns:xlink="http://www.w3.org/1999/xlink" x="0px" y="0px"
	 viewBox="0 0 100 100" style="enable-background:new 0 0 100 100;" xml:space="preserve">
<g id="Capa_1">
	<g>
		<g>
			<g>
				<path fill="#101010" d="M48.5,38.8v9.4H100v-9.4H48.5z M97,45.3H51.5v-3.5H97V45.3z"/>
				<polygon fill="#101010" points="74.3,18 93.8,32.9 93.8,35.3 96.8,35.3 96.8,31.5 74.3,14.2 51.8,31.5 51.8,35.3 54.7,35.3 
					54.7,32.9 74.3,17.9 				"/>
				<g>
					<path fill="#101010" d="M9.6,69.3c-0.6,0-1.1,0.3-1.5,0.7l0,0v0.9h3.7L11,70C10.7,69.5,10.1,69.3,9.6,69.3z"/>
					<path fill="#101010" d="M9,66.4c0.4-0.1,1.1-0.1,2.1,0.3v-2.3h3.5v3.5h-1.7c1.5,1.4,2.7,3,2.7,3h2v-9.4H8.1v5.1
						C8.1,66.6,8.4,66.5,9,66.4z"/>
				</g>
				<g>
					<path fill="#101010" d="M84.6,70.6c0.6-0.9,2.4-2.9,2.4-2.9l0,0v-3h-9.4v9.4h5C82.6,74.1,84,71.5,84.6,70.6z M80.6,67.7h3.5v3.5
						h-3.5V67.7z"/>
					<path fill="#101010" d="M87.1,74.1v-1.7c-0.4,0.6-0.8,1.1-1.1,1.7H87.1z"/>
				</g>
				<path fill="#73A942" d="M5.8,68.1l-1.4,1.8C1.6,73.4,0,77.8,0,82.3C0,87,3.4,91,8,91.8l0.1,0V97H3v-4.9H0v7.8h100v-7.8h-3V97h-5.1
					v-5.2l0.1,0c4.6-0.8,8-4.7,8-9.4c0-4.5-1.6-8.9-4.4-12.4l-1.4-1.8c-0.9-1.2-2.3-1.8-3.8-1.8c-1.1,0-2.3,0.4-3.1,1.2l-0.2,0.2
					c0,0-1.8,2-2.4,2.9c-0.6,0.9-2,3.5-2,3.5l-0.1,0.2c-1.1,2.5-1.7,5.3-1.7,8c0,4.7,3.4,8.6,8,9.4l0.1,0V97h-8.4V80.9H67.9V97H51.5
					v-5.2l0.1,0c4.6-0.8,8-4.7,8-9.4c0-4.5-1.6-8.9-4.4-12.4l-1.4-1.8c-0.9-1.2-2.3-1.8-3.8-1.8c-1.5,0-2.9,0.7-3.8,1.8l-1.4,1.8
					c-2.8,3.5-4.4,7.9-4.4,12.4c0,4.7,3.4,8.6,8,9.4l0.1,0V97H33.7V80.9H21V97h-10v-5.2l0.1,0c4.6-0.8,8-4.7,8-9.4
					c0-4-1.2-7.9-3.5-11.2l-0.1-0.2c0,0-1.3-1.8-3-3.3S9.6,66.4,9,66.4c-0.6,0.1-0.9,0.1-0.9,0.1l-0.1,0C7.1,66.9,6.3,67.4,5.8,68.1
					z M88.8,88.7c-2.9-0.8-5-3.4-5-6.4c0-3.8,1.3-7.6,3.7-10.6L89,70c0.4-0.4,0.9-0.7,1.5-0.7s1.1,0.3,1.5,0.7l1.4,1.8
					c2.4,3,3.7,6.8,3.7,10.6c0,3-2,5.6-5,6.4l-0.2,0v-7.9h-3v7.9L88.8,88.7z M70.9,83.8h6.7V97h-6.7V83.8z M48.3,88.7
					c-2.9-0.8-5-3.4-5-6.4c0-3.8,1.3-7.6,3.7-10.6l1.4-1.8c0.4-0.4,0.9-0.7,1.5-0.7c0.6,0,1.1,0.3,1.5,0.7l1.4,1.8
					c2.4,3,3.7,6.8,3.7,10.6c0,3-2,5.6-5,6.4l-0.2,0v-7.9h-3v7.9L48.3,88.7z M24,83.8h6.7V97H24V83.8z M8.1,70
					c0.4-0.4,0.9-0.7,1.5-0.7c0.6,0,1.1,0.3,1.5,0.7l1.4,1.8c2.4,3,3.7,6.8,3.7,10.6c0,3-2,5.6-5,6.4l-0.2,0v-7.9h-3v7.9l-0.2,0
					C5,88,3,85.3,3,82.3c0-3.8,1.3-7.6,3.7-10.6L8.1,70z"/>
				<rect x="51.8" y="51.8" fill="#101010" width="3" height="12.7"/>
				<rect x="97" y="92.2" fill="#101010" width="3" height="7.8"/>
				<rect x="0.7" y="97" fill="#101010" width="96.6" height="3"/>
				<rect y="92.2" fill="#101010" width="3" height="7.8"/>
				<rect x="93.8" y="51.8" fill="#101010" width="3" height="12.7"/>
				<path fill="#101010" d="M77.6,51.8v9.4h9.4v-9.4H77.6z M84.1,58.2h-3.5v-3.5h3.5V58.2z"/>
				<path fill="#101010" d="M61.5,51.8v9.4h9.4v-9.4H61.5z M67.9,58.2h-3.5v-3.5h3.5V58.2z"/>
				<path fill="#101010" d="M21,22.6v9.4h9.4v-9.4H21z M27.5,29.1H24v-3.5h3.5V29.1z"/>
				<path fill="#101010" d="M34,22.6v9.4h9.4v-9.4H34z M40.4,29.1h-3.5v-3.5h3.5V29.1z"/>
				<path fill="#101010" d="M8.1,22.6v9.4h9.4v-9.4H8.1z M14.6,29.1h-3.5v-3.5h3.5V29.1z"/>
				<path fill="#101010" d="M21,35.6V45h9.4v-9.4H21z M27.5,42H24v-3.5h3.5V42z"/>
				<path fill="#101010" d="M34,35.6V45h9.4v-9.4H34z M40.4,42h-3.5v-3.5h3.5V42z"/>
				<path fill="#101010" d="M8.1,35.6V45h9.4v-9.4H8.1z M14.6,42h-3.5v-3.5h3.5V42z"/>
				<path fill="#101010" d="M21,48.5V58h9.4v-9.4H21z M27.5,55H24v-3.5h3.5V55z"/>
				<path fill="#101010" d="M34,48.5V58h9.4v-9.4H34z M40.4,55h-3.5v-3.5h3.5V55z"/>
				<path fill="#101010" d="M8.1,48.5V58h9.4v-9.4H8.1z M14.6,55h-3.5v-3.5h3.5V55z"/>
				<path fill="#101010" d="M21,61.5v9.4h9.4v-9.4H21z M27.5,67.9H24v-3.5h3.5V67.9z"/>
				<path fill="#101010" d="M34,61.5v9.4h9.4v-9.4H34z M40.4,67.9h-3.5v-3.5h3.5V67.9z"/>
				<path fill="#101010" d="M61.5,64.7v9.4h9.4v-9.4H61.5z M67.9,71.2h-3.5v-3.5h3.5V71.2z"/>
				<polygon fill="#101010" points="51.5,27.2 51.5,16.2 0,16.2 0,69.3 3,69.3 3,19.1 48.5,19.1 48.5,27.2 				"/>
				<path fill="#101010" d="M46.6,12.7V6.5h-3.2V0H8.1v6.5H4.9v6.2h3V9.4h35.8v3.2H46.6z M40.4,6.5H11.1V3h29.4V6.5z"/>
			</g>
		</g>
	</g>
	<path fill="#73A942" d="M15.5,70.3"/>
	<path fill="#73A942" d="M82.7,69.4"/>
</g>
<g id="Слой_2">
</g>
</svg>
