<?xml version="1.0" encoding="utf-8"?>
<!-- Generator: Adobe Illustrator 24.0.1, SVG Export Plug-In . SVG Version: 6.00 Build 0)  -->
<svg version="1.1" xmlns="http://www.w3.org/2000/svg" xmlns:xlink="http://www.w3.org/1999/xlink" x="0px" y="0px"
	 viewBox="0 0 100 100" style="enable-background:new 0 0 100 100;" xml:space="preserve">
<g id="_x31_">
	<path fill="#101010" d="M42.2,94.3c0,3.2,2.6,5.7,5.7,5.7h4.2c3.2,0,5.7-2.6,5.7-5.7V69c0-0.8-0.7-1.5-1.5-1.5s-1.5,0.7-1.5,1.5v25.3
		c0,1.5-1.2,2.7-2.7,2.7h-4.2c-1.5,0-2.7-1.2-2.7-2.7V69c0-0.8-0.7-1.5-1.5-1.5c-0.8,0-1.5,0.7-1.5,1.5V94.3z"/>
	<path fill="#101010" d="M90.1,0H9.9C4.5,0,0,4.5,0,9.9v50.6c0,5.5,4.5,9.9,9.9,9.9h80.1c5.5,0,9.9-4.5,9.9-9.9V9.9
		C100,4.5,95.5,0,90.1,0z M97,60.5c0,3.8-3.1,6.9-6.9,6.9H9.9c-3.8,0-6.9-3.1-6.9-6.9V9.9C3,6.1,6.1,3,9.9,3h80.1
		C93.9,3,97,6.1,97,9.9V60.5z"/>
	<g>
		<polygon fill="#73A942" points="30.8,43.6 30.8,27 28.5,27 21,37.6 21,27 18,27 18,43.6 20.3,43.6 27.7,33.1 27.7,43.6 		"/>
		<g>
			<polygon fill="#73A942" points="59.7,43.6 54.4,35.2 59.5,27 56.2,27 51.3,35.3 56.4,43.6 			"/>
			<polygon fill="#73A942" points="42.4,27 39.1,27 44.2,35.2 38.9,43.6 42.2,43.6 47.4,35.3 			"/>
			<rect x="47.8" y="27" fill="#73A942" width="3" height="16.6"/>
		</g>
		<path fill="#73A942" d="M78.4,31.6l2.6-1.5c-0.7-1-1.6-1.8-2.7-2.4c-1.3-0.7-2.6-1-4.1-1c-2.5,0-4.6,0.8-6.2,2.5
			c-1.6,1.6-2.5,3.7-2.5,6.2c0,2.4,0.8,4.5,2.5,6.2c1.6,1.6,3.7,2.5,6.2,2.5c1.5,0,2.9-0.3,4.2-1c1.1-0.6,2-1.4,2.7-2.4L78.4,39
			c-0.4,0.6-0.9,1-1.6,1.4c-0.8,0.4-1.7,0.6-2.6,0.6c-1.7,0-3-0.5-4.1-1.6c-1-1-1.5-2.4-1.5-4.1s0.5-3.1,1.5-4.1
			c1-1,2.4-1.6,4.1-1.6c1,0,1.8,0.2,2.6,0.6C77.5,30.6,78,31,78.4,31.6z"/>
	</g>
</g>
<g id="Слой_2">
</g>
</svg>
