<?xml version="1.0" encoding="utf-8"?>
<!-- Generator: Adobe Illustrator 24.0.1, SVG Export Plug-In . SVG Version: 6.00 Build 0)  -->
<svg version="1.1" id="Слой_1" xmlns="http://www.w3.org/2000/svg" xmlns:xlink="http://www.w3.org/1999/xlink" x="0px" y="0px"
	 viewBox="0 0 511.5 512" style="enable-background:new 0 0 511.5 512;" xml:space="preserve">
<path fill="#FFFFFF" d="M337.5,391.8c-3.4-0.6-6.8-0.9-10.2-0.9h-32.7v-20.9c18.8-12.6,31.3-34,31.3-58.3v-37.5
	c0-12.9-3.6-25.6-10.3-36.5l-12.8,7.8c5.3,8.6,8.1,18.5,8.1,28.7v7.9l-2-3.6c-6-11.1-17.6-18-30.2-18h-45.8
	c-12.6,0-24.2,6.9-30.2,18l-2,3.6v-7.9c0-30.4,24.7-55.1,55.1-55.1c14.6,0,28.4,5.7,38.8,16l10.6-10.6
	c-13.2-13.1-30.8-20.4-49.4-20.4c-38.6,0-70.1,31.4-70.1,70.1v37.5c0,24.3,12.4,45.7,31.3,58.3V391h-32.7
	c-33.7,0-61.1,27.4-61.1,61.1V512h15v-59.9c0-25.4,20.7-46.1,46.1-46.1h33.3c3.1,18.2,19.1,32.2,38.2,32.2s35.1-13.9,38.2-32.2h33.3
	c2.6,0,5.2,0.2,7.7,0.6L337.5,391.8z M279.5,399.4c0,13.1-10.7,23.8-23.8,23.8S232,412.5,232,399.4v-21.7c7.4,2.7,15.4,4.2,23.8,4.2
	s16.3-1.5,23.8-4.2V399.4z M255.8,366.9c-29.8,0-54-23.7-55-53.2l15.1-28c3.4-6.2,9.9-10.1,17-10.1h45.8c7.1,0,13.6,3.9,17,10.1
	l15.1,28C309.8,343.1,285.5,366.9,255.8,366.9z"/>
<path fill="#FFFFFF" d="M353.7,397l-6.5,13.5c15.9,7.6,26.1,24,26.1,41.6V512h15v-59.9C388.4,428.8,374.8,407.1,353.7,397z"/>
<path fill="#FFFFFF" d="M328.3,476h15v36h-15V476z"/>
<path fill="#FFFFFF" d="M168.2,476h15v36h-15V476z"/>
<path fill="#73A942" d="M133,70.8l-17.4-35.2L98.3,70.8l-38.8,5.6l28.1,27.4l-6.6,38.7l34.7-18.3l34.7,18.3l-6.6-38.7l28.1-27.4
	L133,70.8z M130.4,115l-14.8-7.8l-14.8,7.8l2.8-16.5l-12-11.7l16.5-2.4l7.4-15l7.4,15l16.5,2.4l-12,11.7L130.4,115z"/>
<path fill="#73A942" d="M278.1,70.8l-17.4-35.2l-17.4,35.2l-38.8,5.6l28.1,27.4l-6.6,38.7l34.7-18.3l34.7,18.3l-6.6-38.7l28.1-27.4
	L278.1,70.8z M275.5,115l-14.8-7.8L246,115l2.8-16.5l-12-11.7l16.5-2.4l7.4-15l7.4,15l16.5,2.4l-12,11.7L275.5,115z"/>
<path fill="#73A942" d="M395.9,35.6l-17.4,35.2l-38.8,5.6l28.1,27.4l-6.6,38.7l34.7-18.3l34.7,18.3l-6.6-38.7l28.1-27.4l-38.8-5.6
	L395.9,35.6z M410.7,115l-14.8-7.8l-14.8,7.8l2.8-16.5l-12-11.7l16.5-2.4l7.4-15l7.4,15l16.5,2.4l-12,11.7L410.7,115z"/>
<path fill="#FFFFFF" d="M484,0H371.8v15H484c6.9,0,12.5,5.6,12.5,12.5v130.1c0,6.9-5.6,12.5-12.5,12.5H143.1v53.1l-75.2-53.1H27.5
	c-6.9,0-12.5-5.6-12.5-12.5V74.3H0v83.4c0,15.2,12.3,27.5,27.5,27.5h35.7l95,67v-67H484c15.2,0,27.5-12.3,27.5-27.5V27.5
	C511.5,12.3,499.2,0,484,0z"/>
<path fill="#FFFFFF" d="M15,27.5C15,20.6,20.6,15,27.5,15h349.2V0H27.5C12.3,0,0,12.3,0,27.5v49.7h15V27.5z"/>
<path fill="#FFFFFF" d="M153.1,452.1h15c0-8.9,7.2-16.1,16.1-16.1v-15C167.1,421,153.1,435,153.1,452.1z"/>
</svg>
