<?xml version="1.0" encoding="utf-8"?>
<!-- Generator: Adobe Illustrator 24.0.1, SVG Export Plug-In . SVG Version: 6.00 Build 0)  -->
<svg version="1.1" xmlns="http://www.w3.org/2000/svg" xmlns:xlink="http://www.w3.org/1999/xlink" x="0px" y="0px"
	 viewBox="0 0 100 100" style="enable-background:new 0 0 100 100;" xml:space="preserve">
<g id="Layer_3">
	<g>
		<path fill="#101010" d="M100,98.5V8c0-4.4-3.6-8-8-8H11.2C5,0,0,5,0,11.2v3.2c0,0.8,0.7,1.5,1.5,1.5h89.1v52h-6.7v-3.5h1.7
			c0.8,0,1.5-0.7,1.5-1.5V43.5c0-0.8-0.7-1.5-1.5-1.5h-6.5c-0.8,0-1.5,0.7-1.5,1.5V55H66.2c-0.8,0-1.5,0.7-1.5,1.5v6.5
			c0,0.8,0.7,1.5,1.5,1.5h1.7v3.5h-8.2c-0.8,0-1.5,0.7-1.5,1.5v12.9c0,0.8,0.7,1.5,1.5,1.5h5V97H46.1l-1.8-3.7l0.1-0.1
			C44.8,93,45,92.5,45,92v-1.7h5c2.6,0,4.7-2.1,4.7-4.7v-55c0-2.6-2.1-4.7-4.7-4.7H4.7C2.1,25.9,0,28,0,30.6v55
			c0,2.6,2.1,4.7,4.7,4.7h5V92c0,0.5,0.3,0.9,0.7,1.2l0.1,0.1L8.7,97h-7v3h96.9C99.3,100,100,99.3,100,98.5z M51.7,85.6
			c0,1-0.8,1.7-1.7,1.7h-5v-3.5h6.7V85.6z M3,30.6c0-1,0.8-1.7,1.7-1.7H50c1,0,1.7,0.8,1.7,1.7v5H3V30.6z M3,38.6h48.8v26.1H3V38.6z
			 M9.7,87.3h-5c-1,0-1.7-0.8-1.7-1.7v-1.7h6.7V87.3z M3,80.8V67.7h48.8v13.2H3z M42,83.8v6.7h-6.7v-6.7H42z M32.3,83.8v3.5h-10
			v-3.5H32.3z M19.4,83.8v6.7h-6.7v-6.7H19.4z M15.1,97H12l1.7-3.5h3.1L15.1,97z M18.5,97l1.7-3.5h0.7c0.8,0,1.5-0.7,1.5-1.5v-1.7
			h10V92c0,0.8,0.7,1.5,1.5,1.5h0.7l1.7,3.5H18.5z M39.6,97l-1.7-3.5H41l1.7,3.5H39.6z M80.6,45h3.5v10h-3.5V45z M67.7,61.4V58h16.4
			v3.5H67.7z M80.8,64.4v3.5h-10v-3.5H80.8z M97,97H67.7V83.8H97V97z M97,80.8H61.2v-10H97V80.8z M97,67.9h-3.5V14.4
			c0-0.8-0.7-1.5-1.5-1.5H3v-1.7C3,6.7,6.7,3,11.2,3H92c2.7,0,5,2.2,5,5V67.9z"/>
		<path fill="#73A942" d="M12.8,69.5H9.6c-2.6,0-4.7,2.1-4.7,4.7S7,79,9.6,79h3.2c2.6,0,4.7-2.1,4.7-4.7S15.4,69.5,12.8,69.5z M12.8,76
			H9.6c-1,0-1.7-0.8-1.7-1.7c0-1,0.8-1.7,1.7-1.7h3.2c1,0,1.7,0.8,1.7,1.7C14.6,75.2,13.8,76,12.8,76z"/>
		<path fill="#73A942" d="M45.1,69.5h-3.2c-2.6,0-4.7,2.1-4.7,4.7s2.1,4.7,4.7,4.7h3.2c2.6,0,4.7-2.1,4.7-4.7S47.8,69.5,45.1,69.5z
			 M45.1,76h-3.2c-1,0-1.7-0.8-1.7-1.7c0-1,0.8-1.7,1.7-1.7h3.2c1,0,1.7,0.8,1.7,1.7C46.9,75.2,46.1,76,45.1,76z"/>
		<path fill="#73A942" d="M48.4,40.4h-42c-0.8,0-1.5,0.7-1.5,1.5v19.4c0,0.8,0.7,1.5,1.5,1.5h42c0.8,0,1.5-0.7,1.5-1.5V41.9
			C49.9,41.1,49.2,40.4,48.4,40.4z M46.9,59.8H7.8V43.4h39.1V59.8z"/>
		
			<rect x="12.5" y="50.1" transform="matrix(0.7071 -0.7071 0.7071 0.7071 -30.8542 28.7457)" fill="#73A942" width="13.5" height="3"/>
		<rect x="28.7" y="50.1" transform="matrix(0.707 -0.7072 0.7072 0.707 -26.12 40.183)" fill="#73A942" width="13.5" height="3"/>
		<rect x="12.9" y="6.5" fill="#73A942" width="3" height="3"/>
		<rect x="22.6" y="6.5" fill="#73A942" width="3" height="3"/>
		<rect x="32.3" y="6.5" fill="#73A942" width="3" height="3"/>
	</g>
</g>
<g id="Слой_2">
</g>
</svg>
