<?xml version="1.0" encoding="utf-8"?>
<!-- Generator: Adobe Illustrator 24.0.1, SVG Export Plug-In . SVG Version: 6.00 Build 0)  -->
<svg version="1.1" id="Capa_1" xmlns="http://www.w3.org/2000/svg" xmlns:xlink="http://www.w3.org/1999/xlink" x="0px" y="0px"
	 viewBox="0 0 76.2 100" style="enable-background:new 0 0 76.2 100;" xml:space="preserve">

<path d="M71.5,45.6L39.4,0.7C39.1,0.3,38.6,0,38.1,0s-1,0.3-1.3,0.7L4.7,45.6c0,0-0.1,0.1-0.1,0.1c-6.2,10.7-6.1,23.8,0.3,34.9
	c6.9,12,19.6,19.4,33.2,19.4c13.6,0,26.3-7.4,33.2-19.4c6.4-11.1,6.5-24.1,0.3-34.9C71.6,45.7,71.5,45.7,71.5,45.6z M68.4,79
	c-6.3,10.9-17.9,17.7-30.4,17.7C25.7,96.7,14,89.9,7.7,79c-5.9-10.2-6-21.6-0.4-31.4l0.1-0.2L38.1,4.5l0.1,0.1l30.7,43
	C74.4,57.4,74.3,68.8,68.4,79z"/>
<path fill="#73A942" d="M57.3,60.5c-0.9,0-1.6,0.7-1.6,1.6c0,9.9-8,17.9-17.9,17.9c-0.9,0-1.6,0.7-1.6,1.6c0,0.9,0.7,1.6,1.6,1.6
	c11.6,0,21-9.4,21-21c0-0.4-0.2-0.8-0.5-1.1C58.1,60.7,57.7,60.5,57.3,60.5z"/>
</svg>
