<?xml version="1.0" encoding="utf-8"?>
<!-- Generator: Adobe Illustrator 24.0.1, SVG Export Plug-In . SVG Version: 6.00 Build 0)  -->
<svg version="1.1" xmlns="http://www.w3.org/2000/svg" xmlns:xlink="http://www.w3.org/1999/xlink" x="0px" y="0px"
	 viewBox="0 0 100 100" style="enable-background:new 0 0 100 100;" xml:space="preserve">
<g id="Layer_1">
	<g>
		<path fill="#101010" d="M33.9,80.6c0.9,0,1.6-0.7,1.6-1.6c0-0.9-0.7-1.6-1.6-1.6h-6.5c-0.9,0-1.6,0.7-1.6,1.6c0,0.9,0.7,1.6,1.6,1.6
			H33.9z"/>
		<path fill="#101010" d="M72.6,80.6c0.9,0,1.6-0.7,1.6-1.6c0-0.9-0.7-1.6-1.6-1.6h-6.5c-0.9,0-1.6,0.7-1.6,1.6c0,0.9,0.7,1.6,1.6,1.6
			H72.6z"/>
		<path fill="#101010" d="M8,77.5c-0.9,0-1.6,0.7-1.6,1.6c0,0.9,0.7,1.6,1.6,1.6h6.5c0.9,0,1.6-0.7,1.6-1.6c0-0.9-0.7-1.6-1.6-1.6H8z"
			/>
		<path fill="#101010" d="M53.2,77.5h-6.5c-0.9,0-1.6,0.7-1.6,1.6c0,0.9,0.7,1.6,1.6,1.6h6.5c0.9,0,1.6-0.7,1.6-1.6
			C54.8,78.2,54.1,77.5,53.2,77.5z"/>
		<path fill="#101010" d="M92,80.6c0.9,0,1.6-0.7,1.6-1.6c0-0.9-0.7-1.6-1.6-1.6h-6.5c-0.9,0-1.6,0.7-1.6,1.6c0,0.9,0.7,1.6,1.6,1.6H92
			z"/>
		<path fill="#73A942" d="M9.6,3.2C4.3,3.2,0,7.6,0,12.9c0,5.3,4.3,9.6,9.6,9.6h24.2c4.4,0,8-3.6,8-8s-3.6-8-8-8l-1.1,0l-0.4-0.8
			c-2-3.5-5.7-5.7-9.8-5.7c-3.1,0-6,1.2-8.1,3.4l-0.6,0.7l-0.9-0.3C11.9,3.4,10.8,3.2,9.6,3.2z M14.6,7.8c0.4-0.1,0.8-0.4,1-0.7
			c1.5-2.5,4.1-3.9,6.9-3.9c3.6,0,6.7,2.3,7.7,5.7c0.1,0.4,0.4,0.7,0.8,0.9c0.4,0.2,0.8,0.2,1.2,0.1c0.5-0.2,1-0.3,1.6-0.3
			c2.7,0,4.9,2.2,4.9,4.9s-2.2,4.9-4.9,4.9H9.6c-3.6,0-6.5-2.9-6.5-6.5c0-3.6,2.9-6.5,6.5-6.5c1.3,0,2.6,0.4,3.7,1.2
			C13.7,7.8,14.2,7.9,14.6,7.8z"/>
		<path fill="#101010" d="M1.6,61.3h96.9c0.9,0,1.6-0.7,1.6-1.6c0-0.9-0.7-1.6-1.6-1.6h-21v-9.8l1.1-0.3c1.9-0.5,3.7-1.4,5.1-2.8
			l0.6-0.5l0.8,0.2c0.7,0.2,1.5,0.3,2.2,0.3c5.3,0,9.6-4.3,9.6-9.6c0-0.7-0.1-1.5-0.3-2.2l-0.2-0.8l0.5-0.6c2-2.1,3.1-4.9,3.1-7.8
			s-1.1-5.7-3.1-7.8l-0.5-0.6l0.2-0.8c0.2-0.7,0.3-1.5,0.3-2.2c0-5.3-4.3-9.6-9.6-9.6c-0.7,0-1.5,0.1-2.2,0.3l-0.8,0.2l-0.6-0.5
			c-2.1-2-4.9-3.1-7.8-3.1s-5.7,1.1-7.8,3.1l-0.6,0.5l-0.8-0.2c-0.7-0.2-1.5-0.3-2.2-0.3c-5.3,0-9.6,4.3-9.6,9.6
			c0,0.7,0.1,1.5,0.3,2.2l0.2,0.8l-0.5,0.6c-2,2.1-3.1,4.9-3.1,7.8s1.1,5.7,3.1,7.8l0.5,0.6l-0.2,0.8c-0.2,0.7-0.3,1.5-0.3,2.2
			c0,5.3,4.3,9.6,9.6,9.6c0.7,0,1.5-0.1,2.2-0.3l0.8-0.2l0.6,0.5c1.4,1.4,3.2,2.3,5.1,2.8l1.1,0.3v9.8H1.6c-0.9,0-1.6,0.7-1.6,1.6
			C0,60.6,0.7,61.3,1.6,61.3z M72.2,44.3c-1.1-0.6-2.2-1.4-2.9-2.5c0,0-0.8-1.1-1.9-0.5c-0.9,0.4-1.8,0.6-2.8,0.6
			c-3.6,0-6.5-2.9-6.5-6.5c0-1,0.2-1.9,0.6-2.8c0.3-0.7,0.1-1.5-0.5-1.9c-2.1-1.5-3.4-4-3.4-6.6s1.3-5,3.4-6.6
			c0.6-0.4,0.8-1.3,0.5-1.9c-0.4-0.9-0.6-1.8-0.6-2.8c0-3.6,2.9-6.5,6.5-6.5c1,0,1.9,0.2,2.8,0.6c0.7,0.3,1.5,0.1,1.9-0.5
			c1.5-2.1,4-3.4,6.6-3.4s5,1.3,6.6,3.4c0.4,0.6,1.3,0.8,1.9,0.5c0.9-0.4,1.8-0.6,2.8-0.6c3.6,0,6.5,2.9,6.5,6.5
			c0,1-0.2,1.9-0.6,2.8c-0.3,0.7-0.1,1.5,0.5,2c2.1,1.5,3.4,4,3.4,6.6s-1.3,5-3.4,6.6c-0.6,0.4-0.8,1.3-0.5,1.9
			c0.4,0.9,0.6,1.8,0.6,2.8c0,3.6-2.9,6.5-6.5,6.5c-1,0-1.9-0.2-2.8-0.6c-0.7-0.3-1.5-0.1-1.9,0.5c-0.8,1-1.8,1.9-2.9,2.5l-2.1,1.1
			V31.3l6-6c0.6-0.6,0.6-1.6,0-2.2c-0.6-0.6-1.6-0.6-2.2,0l-3.8,3.8v-9.1c0-0.9-0.7-1.6-1.6-1.6s-1.6,0.7-1.6,1.6v9.1l-3.8-3.8
			c-0.6-0.6-1.6-0.6-2.2,0c-0.3,0.3-0.5,0.7-0.5,1.1c0,0.4,0.2,0.8,0.5,1.1l6,6v14.1L72.2,44.3z"/>
		<path fill="#101010" d="M1.6,100h96.9c0.9,0,1.6-0.7,1.6-1.6s-0.7-1.6-1.6-1.6H1.6c-0.9,0-1.6,0.7-1.6,1.6S0.7,100,1.6,100z"/>
	</g>
</g>
<g id="Слой_3">
	<path d="M16.6,68l-0.3-0.8c-0.6-1.8-2-3.2-3.8-3.9c-1.8-0.7-3.8-0.5-5.4,0.4l-1.4,0.8c-1.2,0.7-1.9,2-1.7,3.4
		c0.2,1.4,1.1,2.5,2.5,2.9l5.8,1.6c0.1,0,0.2,0,0.3,0.1c0.2,0,0.5,0.1,0.7,0.1c0.9,0,1.8-0.4,2.5-1.1C16.7,70.5,17,69.2,16.6,68z
		 M13.1,69.9l-5.8-1.6c-0.5-0.1-0.6-0.5-0.6-0.7s0-0.5,0.4-0.8L8.5,66c0.6-0.3,1.2-0.5,1.8-0.5c0.2,0,0.5,0,0.7,0.1
		c0.2,0,0.4,0.1,0.6,0.2c1,0.4,1.8,1.2,2.2,2.3l0.3,0.8c0.1,0.3,0,0.6-0.2,0.8C13.7,69.9,13.4,69.9,13.1,69.9z"/>
	<path d="M44.4,90.2l-0.6-0.6c-1.4-1.3-3.3-1.9-5.2-1.7c-1.9,0.2-3.6,1.3-4.6,2.9l-0.8,1.3c-0.8,1.2-0.7,2.7,0.1,3.8
		c0.8,1.2,2.2,1.7,3.6,1.4l5.9-1.3c0.1,0,0.2,0,0.2-0.1c0.2-0.1,0.4-0.2,0.6-0.3c0.8-0.4,1.4-1.2,1.7-2.1
		C45.8,92.4,45.4,91.1,44.4,90.2z M42.3,93.5l-5.9,1.3c-0.5,0.1-0.7-0.2-0.8-0.3c-0.1-0.1-0.3-0.5,0-0.9l0.8-1.3
		c0.3-0.5,0.8-1,1.4-1.3c0.2-0.1,0.4-0.2,0.7-0.3c0.2-0.1,0.4-0.1,0.6-0.1c1.1-0.1,2.2,0.2,3,1l0.6,0.6c0.2,0.2,0.3,0.5,0.2,0.8
		C42.8,93.3,42.5,93.5,42.3,93.5z"/>
	<path d="M83.2,65.7L83,66.6c-0.3,1.9,0.2,3.8,1.4,5.2c1.2,1.5,3,2.3,4.9,2.2l1.6,0c1.4,0,2.6-0.9,3.2-2.2c0.5-1.3,0.2-2.8-0.8-3.7
		L89,63.9c-0.1-0.1-0.1-0.1-0.2-0.2c-0.2-0.1-0.4-0.3-0.6-0.4c-0.8-0.4-1.8-0.5-2.7-0.3C84.3,63.4,83.4,64.4,83.2,65.7z M87.1,65.8
		l4.3,4.2c0.3,0.3,0.2,0.7,0.2,0.9s-0.2,0.5-0.7,0.5l-1.6,0c-0.6,0-1.3-0.1-1.8-0.5c-0.2-0.1-0.4-0.3-0.6-0.4
		c-0.2-0.1-0.3-0.3-0.4-0.4c-0.7-0.8-1-2-0.8-3l0.2-0.9c0.1-0.3,0.2-0.5,0.5-0.6C86.6,65.5,86.9,65.6,87.1,65.8z"/>
	<path d="M64.8,65.2l-2.3-1.4c-0.6-0.4-1.4-0.5-2.1-0.2l-2.8,1.2c-0.8,0.3-1.3,1.1-1.4,1.9c-0.1,0.8,0.4,1.6,1.1,2.1l1.4,0.8
		c0.3,0.2,0.7,0.3,1.1,0.3c0.1,0,0.2,0,0.3,0l3.7-0.6c0.9-0.1,1.7-0.8,1.9-1.8C66,66.6,65.6,65.7,64.8,65.2z M63.5,67.1l-3.6,0.6
		l-1.4-0.8l2.7-1.2L63.5,67.1z"/>
	<path d="M68.5,89.7l2.7,0.4c0.7,0.1,1.5-0.1,2-0.7l2.1-2.2c0.6-0.6,0.8-1.5,0.5-2.3c-0.3-0.8-1-1.4-1.8-1.5l-1.6-0.2
		c-0.4-0.1-0.8,0-1.2,0.2c-0.1,0-0.2,0.1-0.3,0.2l-3.2,1.9c-0.8,0.5-1.2,1.4-1,2.3C66.8,88.9,67.5,89.6,68.5,89.7z M68.9,87.5
		l3.1-1.9l1.6,0.2l-2.1,2.2L68.9,87.5z"/>
	<path d="M10.6,93.1l-1-2.5c-0.3-0.7-0.9-1.2-1.6-1.3L5,88.6c-0.8-0.2-1.7,0.1-2.2,0.8c-0.5,0.7-0.7,1.6-0.3,2.3l0.7,1.5
		c0.2,0.4,0.4,0.7,0.7,0.9c0.1,0.1,0.2,0.1,0.3,0.2L7.5,96c0.8,0.4,1.8,0.3,2.5-0.3C10.7,95,10.9,94,10.6,93.1z M8.5,94l-3.3-1.7
		l-0.7-1.4l2.9,0.6L8.5,94z"/>
	<path d="M44.8,65.8l-3-1.2c-1.1-0.5-2.4-0.3-3.5,0.3l-4.2,2.8c-1.6,1-2.1,3.1-1.2,4.8l1.5,3c0.5,1,1.4,1.7,2.5,1.9
		c0.3,0.1,0.5,0.1,0.8,0.1c0.8,0,1.6-0.3,2.3-0.8l5.6-4.5c0.9-0.7,1.4-1.8,1.4-3C47.1,67.7,46.2,66.4,44.8,65.8z M40.8,67.1l3,1.2
		c0.4,0.2,0.6,0.5,0.6,1v0.1c0,0.3-0.1,0.6-0.4,0.8l-5.6,4.5c-0.2,0.2-0.6,0.3-0.9,0.2c-0.3-0.1-0.6-0.3-0.7-0.5l-1.5-3
		c-0.2-0.5-0.1-1,0.4-1.3l4.2-2.8C40,67,40.2,67,40.4,67C40.5,67,40.7,67,40.8,67.1z"/>
	<path d="M97.7,85.1l-3-1.2c-1.1-0.5-2.4-0.3-3.5,0.3L87.1,87c-1.6,1-2.1,3.1-1.2,4.8l1.5,3c0.5,1,1.4,1.7,2.5,1.9
		c0.3,0.1,0.5,0.1,0.8,0.1c0.8,0,1.6-0.3,2.3-0.8l5.6-4.5c0.9-0.7,1.4-1.8,1.4-3C100,87,99.1,85.7,97.7,85.1z M93.7,86.3l3,1.2
		c0.4,0.2,0.6,0.5,0.6,1v0.1c0,0.3-0.1,0.6-0.4,0.8l-5.6,4.5c-0.2,0.2-0.6,0.3-0.9,0.2c-0.3-0.1-0.6-0.3-0.7-0.5l-1.5-3
		c-0.2-0.5-0.1-1,0.4-1.3l4.2-2.8c0.2-0.1,0.4-0.2,0.6-0.2C93.4,86.3,93.6,86.3,93.7,86.3z"/>
	<g>
		<g>
			<path d="M23.8,83.7L23.2,82c-0.3-0.9-1.1-1.5-2-1.5c-0.9,0-1.8,0.5-2.2,1.3l-0.8,1.7c-0.3,0.7-0.3,1.5,0.1,2.2
				c0.4,0.7,1.1,1.1,1.9,1.1h1.4c0.7,0,1.4-0.4,1.9-1C24,85.2,24.1,84.4,23.8,83.7z M22.1,84.7C22,84.8,21.9,85,21.7,85h-1.4
				c-0.2,0-0.4-0.2-0.4-0.2c0-0.1-0.1-0.3,0-0.5l0.8-1.7c0.1-0.3,0.3-0.3,0.5-0.3c0,0,0,0,0,0c0.1,0,0.3,0,0.4,0.3l0.6,1.7
				C22.2,84.5,22.1,84.7,22.1,84.7z"/>
		</g>
	</g>
	<g>
		<g>
			<path d="M60,86l1.1-1.4c0.6-0.7,0.6-1.7,0.1-2.5c-0.5-0.8-1.4-1.2-2.3-1.1l-1.9,0.3c-0.8,0.1-1.4,0.6-1.8,1.3
				c-0.3,0.7-0.3,1.5,0.2,2.2l0.8,1.2c0.4,0.6,1.1,1,1.8,1C58.9,87,59.6,86.6,60,86z M58.2,85.2c-0.1,0-0.3,0-0.4-0.2L57,83.8
				c-0.1-0.2-0.1-0.4,0-0.5c0-0.1,0.1-0.3,0.4-0.3l1.9-0.3c0.3,0,0.4,0.1,0.5,0.2c0,0,0,0,0,0c0.1,0.1,0.1,0.3,0,0.6L58.6,85
				C58.5,85.1,58.3,85.2,58.2,85.2z"/>
		</g>
	</g>
	<g>
		<g>
			<path d="M23.8,64.9l1.1-1.4c0.6-0.7,0.6-1.7,0.1-2.5c-0.5-0.8-1.4-1.2-2.3-1.1l-1.9,0.3c-0.8,0.1-1.4,0.6-1.8,1.3
				c-0.3,0.7-0.3,1.5,0.2,2.2l0.8,1.2c0.4,0.6,1.1,1,1.8,1C22.7,65.9,23.4,65.5,23.8,64.9z M22,64.1c-0.1,0-0.3,0-0.4-0.2l-0.8-1.2
				c-0.1-0.2-0.1-0.4,0-0.5c0-0.1,0.1-0.3,0.4-0.3l1.9-0.3c0.3,0,0.4,0.1,0.5,0.2c0,0,0,0,0,0c0.1,0.1,0.1,0.3,0,0.6l-1.1,1.4
				C22.3,64,22.1,64.1,22,64.1z"/>
		</g>
	</g>
</g>
<g id="Слой_2">
</g>
</svg>
