<svg xmlns="http://www.w3.org/2000/svg" viewBox="0 0 137.68 13.97"><defs><style>.cls-1{fill:#73a942;}.cls-2{fill:#000;}</style></defs><title>logo</title><g id="Слой_2" data-name="Слой 2"><g id="NAV_BAR" data-name="NAV BAR"><g id="КП_Калипсо" data-name="КП Калипсо"><path class="cls-1" d="M7.48,13.63,3.66,7.76v5.87H0V.34H3.66v5.6L7.18.34h4.25L7.17,6.78l4.65,6.85Z"/><path class="cls-1" d="M24.94.34V13.63H21.23v-10H17.52v10H13.81V.34Z"/><path class="cls-2" d="M41,13.63,37.2,7.76v5.87H33.53V.34H37.2v5.6L40.71.34H45L40.7,6.78l4.66,6.85Z"/><path class="cls-2" d="M55.43,11.47H50.72L50,13.63H46.06L51.28.34h3.58L60.2,13.63h-4Zm-2.36-7L51.61,8.61h2.93Z"/><path class="cls-2" d="M74.47.34V13.63H70.81v-10H68.24L67.72,8.3c-.4,3.59-2.07,5.37-5.07,5.37H61.58V10.31h.63c1.13,0,1.7-.65,1.88-2.14L65,.34Z"/><path class="cls-2" d="M89.73.34V13.63h-3.6V6.55l-5.29,7.08H78V.34h3.6V7.46L86.85.34Z"/><path class="cls-2" d="M104.38.34V13.63h-3.71v-10H97v10H93.25V.34Z"/><path class="cls-2" d="M107.21,7a6.86,6.86,0,0,1,7.07-7A6.6,6.6,0,0,1,121,5.67h-3.71a3.15,3.15,0,0,0-3-2.25A3.33,3.33,0,0,0,111,7a3.3,3.3,0,0,0,3.27,3.54,3.05,3.05,0,0,0,3-2.44H121A6.63,6.63,0,0,1,114.28,14,6.86,6.86,0,0,1,107.21,7Z"/><path class="cls-2" d="M123.05,7c0-4.07,3-7,7.33-7s7.3,2.91,7.3,7-3,7-7.3,7S123.05,11.05,123.05,7Zm7.33,3.57A3.41,3.41,0,0,0,133.87,7a3.51,3.51,0,1,0-7,0,3.43,3.43,0,0,0,3.52,3.57Z"/></g></g></g></svg>