<?xml version="1.0" encoding="UTF-8"?><!DOCTYPE svg PUBLIC "-//W3C//DTD SVG 1.1//EN" "http://www.w3.org/Graphics/SVG/1.1/DTD/svg11.dtd"><svg xmlns="http://www.w3.org/2000/svg" xmlns:xlink="http://www.w3.org/1999/xlink"><symbol id="icon-001" viewBox="0 0 100 100">
    <path fill="#73A942" d="M70.3 54.6c2.7-4.1 4.7-8.9 4.7-14 0-4.7-1.8-9.1-4.7-12.4l-2.9-2.7c-3.1-2.3-6.9-3.6-11.1-3.6-10.3 0-18.7 8.4-18.7 18.7 0 14.7 17.1 27.3 17.8 27.8.5.4 1.2.4 1.7 0 .4-.3 5.5-4.1 10.2-9.8l3-4c0 .1 0 0 0 0zm-14 10.8C52.8 62.6 40.5 52 40.5 40.6c0-8.7 7.1-15.8 15.8-15.8S72 31.9 72 40.6c0 11.4-12.3 22-15.7 24.8z"/>
    <path fill="#101010" d="M99 11L69.3 0c-.3 0-.6 0-.9.1L31.3 10.9 2 .1C1-.3 0 .5 0 1.5v86.1c0 .6.4 1.2 1 1.4l29.7 11c.3.1.6.1.9 0l37.1-10.3L98 99.9c.9.3 2-.4 2-1.4V12.4c0-.6-.4-1.1-1-1.4zm-66.3 2.5L67.3 3.4v3.2L32.7 16.7v-3.2zm-3 82.9L2.9 86.5v-83l26.8 9.9v3.2l-21.6-7c-.9-.3-1.8.5-1.8 1.4v72.8c0 .6.4 1.2 1 1.4l22.5 8.1-.1 3.1zM67.3 87l-34.6 9.6v-3.2l34.6-10.1V87zm0-28.4v21.6L32.7 90.3v-52c0-.8-.7-1.5-1.5-1.5s-1.5.7-1.5 1.5v51.9L9.2 82.7V13.1l20.5 6.7v11.8c0 .8.7 1.5 1.5 1.5s1.5-.7 1.5-1.5V19.8L67.3 9.7v15.9l2.9 2.7V9.9l20.5 8.4V88l-20.5-7.7V54.7l-2.9 3.9zm29.8 37.9l-26.8-9.4v-3.7l21.5 8.1c.9.4 2-.4 2-1.4V17.4c0-.6-.4-1.1-.9-1.4L70.3 6.7V3.6l26.8 9.9v83z"/>
    <path fill="#73A942" d="M56.3 29.7c-6 0-10.9 4.9-10.9 10.9s4.9 10.9 10.9 10.9 10.9-4.9 10.9-10.9-5-10.9-10.9-10.9zm0 18.8c-4.4 0-7.9-3.6-7.9-7.9s3.6-7.9 7.9-7.9 7.9 3.6 7.9 7.9c0 4.4-3.6 7.9-7.9 7.9z"/>
    <path fill="#73A942" d="M61.6 73.7l-2.1-1 2.1-1c.7-.4 1-1.2.7-2-.4-.7-1.2-1-2-.7l-4 2-4-2c-.7-.4-1.6-.1-2 .7-.4.7-.1 1.6.7 2l2.1 1-2.1 1c-.7.4-1 1.2-.7 2 .4.7 1.2 1 2 .7l4-2 4 2c.8.4 1.7 0 2-.8.3-.7 0-1.5-.7-1.9z"/>
</symbol><symbol id="icon-002" viewBox="0 0 100 100">
    <path fill="#73A942" d="M88.6 0c-6.3 0-11.4 5.1-11.4 11.4s5.1 11.4 11.4 11.4c6.3 0 11.4-5.1 11.4-11.4S94.9 0 88.6 0zm0 19.7c-4.6 0-8.3-3.7-8.3-8.3s3.7-8.3 8.3-8.3c4.6 0 8.3 3.7 8.3 8.3s-3.7 8.3-8.3 8.3z"/>
    <path fill="#73A942" d="M25.7 0c-5.5 0-10.4 2.8-13.3 7.4l-.1.2H11.7c-3 0-5.9 1.2-8.1 3.3C1.2 13.2 0 16.1 0 19.3c0 .9.7 1.5 1.5 1.5h50.8c.8 0 1.4-.6 1.5-1.4.1-.5.1-1 .1-1.5 0-7.2-5.8-13-13-13-1.1 0-2.1.1-3.1.4l-.3.1-.2-.2C34.4 1.9 30.2 0 25.7 0zm11.8 8.8c1.1-.4 2.2-.6 3.4-.6 5.2 0 9.5 4 9.9 9.2v.5H3.2l.1-.5c1.1-4.3 5.2-7.1 9.6-6.5.7.1 1.3-.2 1.6-.8 2.1-4.3 6.4-6.9 11.1-6.9 4 0 7.7 1.9 10.1 5.1.5.5 1.2.7 1.8.5z"/>
    <path fill="#73A942" d="M89.2 89.3c0-.1-.1-.2-.1-.3-.1-.1-.1-.2-.2-.2-.1-.1-.2-.1-.2-.2-.1-.1-.2-.1-.3-.1-.1 0-.2-.1-.3-.1h-.6c-.1 0-.2 0-.3.1-.1 0-.2.1-.3.1-.1.1-.2.1-.2.2l-.2.2c-.1.1-.1.2-.1.3 0 .1-.1.2-.1.3v.6c0 .1 0 .2.1.3 0 .1.1.2.1.3.1.1.1.2.2.2.1.1.2.1.2.2.1.1.2.1.3.1.1 0 .2.1.3.1h.6c.1 0 .2 0 .3-.1.1 0 .2-.1.3-.1.1-.1.2-.1.2-.2l.2-.2c.1-.1.1-.2.1-.3 0-.1.1-.2.1-.3v-.3-.3c-.1-.1-.1-.2-.1-.3z"/>
    <path fill="#101010" d="M100 81.4c0-.8-.7-1.5-1.5-1.5h-4.1V56.5l1.3 1c.4.3 1.1.4 1.6.1.5-.3.8-.8.8-1.3V45.5c0-.5-.2-.9-.6-1.2l-27-19.8c-.5-.4-1.2-.4-1.8 0l-12.1 8.9-5.7-4.2c-.5-.4-1.2-.4-1.8 0l-5.7 4.2-12.1-8.9c-.5-.4-1.2-.4-1.8 0l-27 19.8c-.4.3-.6.7-.6 1.2v10.8c0 .6.3 1.1.8 1.3.5.3 1.1.2 1.6-.1l1.3-1v23.4H1.5c-.8 0-1.5.7-1.5 1.5v17.1c0 .8.7 1.5 1.5 1.5h97c.8 0 1.5-.7 1.5-1.5V81.4zM69.6 27.6l25.5 18.7v7.1l-24.6-18c-.5-.4-1.1-.4-1.6-.1l-.1.1-4.8 3.4-4.8-3.5 10.4-7.7zM77.8 49l-11.3-8.3 3.1-2.3 21.7 16V80H74.7V61.3l1.6 1.2c.3.1.7.2 1 .1l.1-.1.3-.1c.5-.3.8-.8.8-1.3V50.2c-.1-.5-.3-.9-.7-1.2zM50 32.3L75.5 51v7L50.9 40l-.1-.1c-.5-.3-1.1-.3-1.5 0l-.1.1-24.7 18v-7L50 32.3zm6.4 40.4H43.6c-.8 0-1.5.7-1.5 1.5v14.2H28.3V59L50 43l21.7 16v29.4H57.9V74.2c0-.8-.6-1.5-1.5-1.5zm-1.5 3v12.7H45V75.7h9.9zM22.4 62.3c.2.1.4.1.6.2.4 0 .7-.1 1-.3l1.3-1v18.7H8.6V54.3l21.7-16 3.1 2.3L22.2 49c-.3.2-.5.6-.6 1v11c0 .6.3 1.1.8 1.3zm-17.5-9v-7.1l25.5-18.7 10.5 7.7-4.9 3.6-4.8-3.5c-.5-.4-1.2-.4-1.8 0l-24.5 18zM3 82.9h22.3v5.6H3v-5.6zM97 97H3v-5.6h76.7c.8 0 1.5-.7 1.5-1.5s-.7-1.5-1.5-1.5h-5v-5.6H97V97z"/>
    <path fill="#73A942" d="M50 51.5c-4.5 0-8.1 3.6-8.1 8.1s3.6 8.1 8.1 8.1 8.1-3.6 8.1-8.1-3.6-8.1-8.1-8.1zm0 13.1c-2.8 0-5-2.2-5-5s2.2-5 5-5 5 2.2 5 5-2.2 5-5 5z"/>
</symbol><symbol id="icon-003" viewBox="0 0 100 100">
    <path fill="#101010" d="M48.5 38.8v9.4H100v-9.4H48.5zM97 45.3H51.5v-3.5H97v3.5z"/>
    <path fill="#101010" d="M74.3 18l19.5 14.9v2.4h3v-3.8L74.3 14.2 51.8 31.5v3.8h2.9v-2.4l19.6-15z"/>
    <g fill="#101010">
        <path d="M9.6 69.3c-.6 0-1.1.3-1.5.7v.9h3.7L11 70c-.3-.5-.9-.7-1.4-.7z"/>
        <path d="M9 66.4c.4-.1 1.1-.1 2.1.3v-2.3h3.5v3.5h-1.7c1.5 1.4 2.7 3 2.7 3h2v-9.4H8.1v5.1s.3-.1.9-.2z"/>
    </g>
    <g fill="#101010">
        <path d="M84.6 70.6c.6-.9 2.4-2.9 2.4-2.9v-3h-9.4v9.4h5s1.4-2.6 2-3.5zm-4-2.9h3.5v3.5h-3.5v-3.5z"/>
        <path d="M87.1 74.1v-1.7c-.4.6-.8 1.1-1.1 1.7h1.1z"/>
    </g>
    <path fill="#73A942" d="M5.8 68.1l-1.4 1.8C1.6 73.4 0 77.8 0 82.3 0 87 3.4 91 8 91.8h.1V97H3v-4.9H0v7.8h100v-7.8h-3V97h-5.1v-5.2h.1c4.6-.8 8-4.7 8-9.4 0-4.5-1.6-8.9-4.4-12.4l-1.4-1.8c-.9-1.2-2.3-1.8-3.8-1.8-1.1 0-2.3.4-3.1 1.2l-.2.2s-1.8 2-2.4 2.9c-.6.9-2 3.5-2 3.5l-.1.2c-1.1 2.5-1.7 5.3-1.7 8 0 4.7 3.4 8.6 8 9.4h.1V97h-8.4V80.9H67.9V97H51.5v-5.2h.1c4.6-.8 8-4.7 8-9.4 0-4.5-1.6-8.9-4.4-12.4l-1.4-1.8c-.9-1.2-2.3-1.8-3.8-1.8s-2.9.7-3.8 1.8L44.8 70c-2.8 3.5-4.4 7.9-4.4 12.4 0 4.7 3.4 8.6 8 9.4h.1V97H33.7V80.9H21V97H11v-5.2h.1c4.6-.8 8-4.7 8-9.4 0-4-1.2-7.9-3.5-11.2l-.1-.2s-1.3-1.8-3-3.3-2.9-1.3-3.5-1.3c-.6.1-.9.1-.9.1H8c-.9.4-1.7.9-2.2 1.6zm83 20.6c-2.9-.8-5-3.4-5-6.4 0-3.8 1.3-7.6 3.7-10.6L89 70c.4-.4.9-.7 1.5-.7s1.1.3 1.5.7l1.4 1.8c2.4 3 3.7 6.8 3.7 10.6 0 3-2 5.6-5 6.4h-.2v-7.9h-3v7.9l-.1-.1zm-17.9-4.9h6.7V97h-6.7V83.8zm-22.6 4.9c-2.9-.8-5-3.4-5-6.4 0-3.8 1.3-7.6 3.7-10.6l1.4-1.8c.4-.4.9-.7 1.5-.7s1.1.3 1.5.7l1.4 1.8c2.4 3 3.7 6.8 3.7 10.6 0 3-2 5.6-5 6.4h-.2v-7.9h-3v7.9zM24 83.8h6.7V97H24V83.8zM8.1 70c.4-.4.9-.7 1.5-.7s1.1.3 1.5.7l1.4 1.8c2.4 3 3.7 6.8 3.7 10.6 0 3-2 5.6-5 6.4H11v-7.9H8v7.9h-.2C5 88 3 85.3 3 82.3c0-3.8 1.3-7.6 3.7-10.6L8.1 70z"/>
    <path fill="#101010" d="M51.8 51.8h3v12.7h-3z"/>
    <path fill="#101010" d="M97 92.2h3v7.8h-3z"/>
    <path fill="#101010" d="M.7 97h96.6v3H.7z"/>
    <path fill="#101010" d="M0 92.2h3v7.8H0z"/>
    <path fill="#101010" d="M93.8 51.8h3v12.7h-3z"/>
    <path fill="#101010" d="M77.6 51.8v9.4H87v-9.4h-9.4zm6.5 6.4h-3.5v-3.5h3.5v3.5z"/>
    <path fill="#101010" d="M61.5 51.8v9.4h9.4v-9.4h-9.4zm6.4 6.4h-3.5v-3.5h3.5v3.5z"/>
    <path fill="#101010" d="M21 22.6V32h9.4v-9.4H21zm6.5 6.5H24v-3.5h3.5v3.5z"/>
    <path fill="#101010" d="M34 22.6V32h9.4v-9.4H34zm6.4 6.5h-3.5v-3.5h3.5v3.5z"/>
    <path fill="#101010" d="M8.1 22.6V32h9.4v-9.4H8.1zm6.5 6.5h-3.5v-3.5h3.5v3.5z"/>
    <path fill="#101010" d="M21 35.6V45h9.4v-9.4H21zm6.5 6.4H24v-3.5h3.5V42z"/>
    <path fill="#101010" d="M34 35.6V45h9.4v-9.4H34zm6.4 6.4h-3.5v-3.5h3.5V42z"/>
    <path fill="#101010" d="M8.1 35.6V45h9.4v-9.4H8.1zm6.5 6.4h-3.5v-3.5h3.5V42z"/>
    <path fill="#101010" d="M21 48.5V58h9.4v-9.4H21zm6.5 6.5H24v-3.5h3.5V55z"/>
    <path fill="#101010" d="M34 48.5V58h9.4v-9.4H34zm6.4 6.5h-3.5v-3.5h3.5V55z"/>
    <path fill="#101010" d="M8.1 48.5V58h9.4v-9.4H8.1zm6.5 6.5h-3.5v-3.5h3.5V55z"/>
    <path fill="#101010" d="M21 61.5v9.4h9.4v-9.4H21zm6.5 6.4H24v-3.5h3.5v3.5z"/>
    <path fill="#101010" d="M34 61.5v9.4h9.4v-9.4H34zm6.4 6.4h-3.5v-3.5h3.5v3.5z"/>
    <path fill="#101010" d="M61.5 64.7v9.4h9.4v-9.4h-9.4zm6.4 6.5h-3.5v-3.5h3.5v3.5z"/>
    <path fill="#101010" d="M51.5 27.2v-11H0v53.1h3V19.1h45.5v8.1z"/>
    <path fill="#101010" d="M46.6 12.7V6.5h-3.2V0H8.1v6.5H4.9v6.2h3V9.4h35.8v3.2h2.9zm-6.2-6.2H11.1V3h29.4v3.5z"/>
</symbol><symbol id="icon-004" viewBox="0 0 100 100">
    <path fill="#101010" d="M100 98.5V8c0-4.4-3.6-8-8-8H11.2C5 0 0 5 0 11.2v3.2c0 .8.7 1.5 1.5 1.5h89.1v52h-6.7v-3.5h1.7c.8 0 1.5-.7 1.5-1.5V43.5c0-.8-.7-1.5-1.5-1.5h-6.5c-.8 0-1.5.7-1.5 1.5V55H66.2c-.8 0-1.5.7-1.5 1.5V63c0 .8.7 1.5 1.5 1.5h1.7V68h-8.2c-.8 0-1.5.7-1.5 1.5v12.9c0 .8.7 1.5 1.5 1.5h5V97H46.1l-1.8-3.7.1-.1c.4-.2.6-.7.6-1.2v-1.7h5c2.6 0 4.7-2.1 4.7-4.7v-55c0-2.6-2.1-4.7-4.7-4.7H4.7C2.1 25.9 0 28 0 30.6v55c0 2.6 2.1 4.7 4.7 4.7h5V92c0 .5.3.9.7 1.2l.1.1L8.7 97h-7v3h96.9c.7 0 1.4-.7 1.4-1.5zM51.7 85.6c0 1-.8 1.7-1.7 1.7h-5v-3.5h6.7v1.8zM3 30.6c0-1 .8-1.7 1.7-1.7H50c1 0 1.7.8 1.7 1.7v5H3v-5zm0 8h48.8v26.1H3V38.6zm6.7 48.7h-5c-1 0-1.7-.8-1.7-1.7v-1.7h6.7v3.4zM3 80.8V67.7h48.8v13.2H3zm39 3v6.7h-6.7v-6.7H42zm-9.7 0v3.5h-10v-3.5h10zm-12.9 0v6.7h-6.7v-6.7h6.7zM15.1 97H12l1.7-3.5h3.1L15.1 97zm3.4 0l1.7-3.5h.7c.8 0 1.5-.7 1.5-1.5v-1.7h10V92c0 .8.7 1.5 1.5 1.5h.7l1.7 3.5H18.5zm21.1 0l-1.7-3.5H41l1.7 3.5h-3.1zm41-52h3.5v10h-3.5V45zM67.7 61.4V58h16.4v3.5H67.7zm13.1 3v3.5h-10v-3.5h10zM97 97H67.7V83.8H97V97zm0-16.2H61.2v-10H97v10zm0-12.9h-3.5V14.4c0-.8-.7-1.5-1.5-1.5H3v-1.7C3 6.7 6.7 3 11.2 3H92c2.7 0 5 2.2 5 5v59.9z"/>
    <path fill="#73A942" d="M12.8 69.5H9.6c-2.6 0-4.7 2.1-4.7 4.7S7 79 9.6 79h3.2c2.6 0 4.7-2.1 4.7-4.7s-2.1-4.8-4.7-4.8zm0 6.5H9.6c-1 0-1.7-.8-1.7-1.7 0-1 .8-1.7 1.7-1.7h3.2c1 0 1.7.8 1.7 1.7.1.9-.7 1.7-1.7 1.7z"/>
    <path fill="#73A942" d="M45.1 69.5h-3.2c-2.6 0-4.7 2.1-4.7 4.7s2.1 4.7 4.7 4.7h3.2c2.6 0 4.7-2.1 4.7-4.7s-2-4.7-4.7-4.7zm0 6.5h-3.2c-1 0-1.7-.8-1.7-1.7 0-1 .8-1.7 1.7-1.7h3.2c1 0 1.7.8 1.7 1.7.1.9-.7 1.7-1.7 1.7z"/>
    <path fill="#73A942" d="M48.4 40.4h-42c-.8 0-1.5.7-1.5 1.5v19.4c0 .8.7 1.5 1.5 1.5h42c.8 0 1.5-.7 1.5-1.5V41.9c0-.8-.7-1.5-1.5-1.5zm-1.5 19.4H7.8V43.4h39.1v16.4z"/>
    <path fill="#73A942" d="M13.41 55.333l9.546-9.546 2.121 2.121-9.545 9.546z"/>
    <path fill="#73A942" d="M29.602 55.307l9.544-9.547 2.122 2.12-9.545 9.548z"/>
    <path fill="#73A942" d="M12.9 6.5h3v3h-3z"/>
    <path fill="#73A942" d="M22.6 6.5h3v3h-3z"/>
    <path fill="#73A942" d="M32.3 6.5h3v3h-3z"/>
</symbol><symbol id="icon-005" viewBox="0 0 100 100">
    <path fill="#73A942" d="M46.7 58.8l4 4c.4.4.9.5 1.4.4.5-.1.9-.5 1.1-1.1.1-.5 0-1.1-.4-1.4l-4-4 4-4c.3-.3.4-.7.4-1 0-.4-.2-.8-.4-1-.6-.6-1.5-.6-2.1 0l-4 4-4-4c-.6-.6-1.5-.6-2.1 0-.6.6-.6 1.5 0 2.1l4 4-4 4c-.4.4-.5.9-.4 1.4.1.5.5.9 1.1 1.1.5.1 1.1 0 1.4-.4l4-4.1z"/>
    <path fill="#101010" d="M100 9.8c0-5.4-4.4-9.8-9.8-9.8s-9.8 4.4-9.8 9.8v.2H19.7v-.2c0-5.4-4.4-9.8-9.8-9.8S0 4.4 0 9.8v80.3c0 5.4 4.4 9.8 9.8 9.8h80.3c5.4 0 9.8-4.4 9.8-9.8V9.8zM80.3 13v15.2h-.2C70.5 26 65.6 17 64 13.3l-.1-.3h16.4zm-19.6 0v.1c1.4 3.7 6.8 15.8 19.4 18.1h.2v15.2l-.2-.1c-30.9-8.4-40.7-27.4-42.9-33.1L37 13h23.7zM3 9.8C3 6.1 6.1 3 9.8 3c3.8 0 6.9 3.1 6.9 6.9v73.3l-.3-.3c-3.7-3.4-9.4-3.4-13.1 0l-.3.2V9.8zM9.8 97C6.1 97 3 93.9 3 90.2c0-3.8 3.1-6.9 6.9-6.9s6.9 3.1 6.9 6.9c0 .8.7 1.5 1.5 1.5s1.5-.7 1.5-1.5V70h.2c17.5 2.6 33.4 12.3 43.8 26.7l.2.3H9.8zM95 95c-1.3 1.3-3 2-4.9 2H67.5C56.6 80.6 39.3 69.7 19.9 67.1h-.2v-29l.5 1.2c.1.3.3.6.4.9 2.5 5.5 6.5 10.2 11.6 13.5l2.1 1.2c.7.4 1.6.1 2-.6.4-.7.1-1.6-.6-2-.6-.3-1.3-.7-1.8-1.1-4.6-3-8.3-7.2-10.5-12.2-2.2-5-3.5-10.3-3.6-15.7V13h14.1v.1c.9 2.6 3.7 9.4 10.7 16.7 8.7 9.1 20.7 15.6 35.6 19.6h.1v19.1l-.3-.2c-5.3-4.9-13-8.5-22.9-10.9-.8-.2-1.6.3-1.8 1.1-.2.8.3 1.6 1.1 1.8 11.1 2.6 19.1 6.8 23.9 12.5V90.2c0 .8.7 1.5 1.5 1.5s1.5-.7 1.5-1.5c0-3.8 3.1-6.9 6.9-6.9 3.8 0 6.9 3.1 6.9 6.9-.1 1.8-.8 3.5-2.1 4.8zm1.7-12.1v-.1c-3.7-3.3-9.3-3.3-13.1.1l-.3.3V9.8c0-3.8 3.1-6.9 6.9-6.9C93.9 3 97 6.1 97 9.8v72.8l.3.3h-.6z"/>
</symbol><symbol id="icon-01_1scr" viewBox="0 0 512 512">
    <path fill="#73A942" d="M359.7 279.5c13.7-21.2 24.1-45.8 24.1-71.6 0-24.3-9.1-46.5-24-63.4l-15-13.7c-15.9-11.7-35.4-18.6-56.6-18.6-52.8 0-95.7 42.9-95.7 95.7 0 75.1 87.5 139.6 91.3 142.3 2.6 1.9 6.2 1.9 8.8 0 2-1.5 28.3-20.9 52.2-50.2l15-20c-.1-.1-.1-.3-.1-.5zm-71.6 55.2c-17.5-13.9-80.7-68.4-80.7-126.8 0-44.5 36.2-80.7 80.7-80.7s80.7 36.2 80.7 80.7c-.1 58.4-63.3 112.8-80.7 126.8z"/>
    <path fill="#FFF" d="M507.1 56.6L354.8.5c-1.5-.6-3.2-.6-4.7-.2l-190 55.4L10.1.5C5.3-1.3 0 2.4 0 7.5v440.9c0 3.1 2 6 4.9 7.1l152.3 56.1c1.5.5 3.1.6 4.6.2l190.1-52.5L502 511.6c4.8 1.7 10-2 10-7.1V63.6c0-3.1-2-5.9-4.9-7zM167.3 69.3l177.3-51.7V34L167.3 85.7V69.3zm-15 424.4L15 443.1V18.3l137.3 50.6v16.5l-110.4-36c-4.8-1.6-9.8 2.1-9.8 7.1V429c0 3.2 2 6 5 7.1l115.3 41.6v16zm192.4-48l-177.3 49v-16.6l177.3-51.7v19.3zm0-145.6v110.6l-177.3 51.7V195.9c0-4.2-3.4-7.5-7.5-7.5s-7.5 3.4-7.5 7.5v265.8l-105.2-38V66.9l105.2 34.3v60.2c0 4.1 3.4 7.5 7.5 7.5 4.2 0 7.5-3.4 7.5-7.5v-60l177.3-51.7v81.2l15 13.7V50.8L464.9 94v356.6l-105.2-39.5V280l-15 20.1zM497 493.9L359.7 446v-18.9l110.1 41.4c4.8 1.8 10.2-1.9 10.2-7V89c0-3-1.8-5.8-4.7-7L359.7 34.5V18.3L497 68.9v425z"/>
    <path fill="#73A942" d="M288.1 152.3c-30.7 0-55.6 24.9-55.6 55.6s24.9 55.6 55.6 55.6 55.6-24.9 55.6-55.6-25-55.6-55.6-55.6zm0 96.2c-22.4 0-40.6-18.2-40.6-40.6 0-22.4 18.2-40.6 40.6-40.6 22.4 0 40.6 18.2 40.6 40.6-.1 22.4-18.3 40.6-40.6 40.6z"/>
    <path fill="#73A942" d="M315.5 377.5l-10.6-5.3 10.6-5.3c3.7-1.9 5.2-6.4 3.4-10.1-1.9-3.7-6.4-5.2-10.1-3.4l-20.7 10.3-20.7-10.3c-3.7-1.9-8.2-.4-10.1 3.4-1.9 3.7-.4 8.2 3.4 10.1l10.6 5.3-10.6 5.3c-3.7 1.9-5.2 6.4-3.4 10.1 1.8 3.7 6.4 5.2 10.1 3.4l20.7-10.3 20.7 10.3c3.9 2 8.8.1 10.4-4 1.3-3.6-.3-7.8-3.7-9.5z"/>
</symbol><symbol id="icon-02_1scr" viewBox="0 0 512 512">
    <path fill="#73A942" d="M151.8 224.4h-8c-4.1 0-7.5 3.4-7.5 7.5s3.4 7.5 7.5 7.5h8c4.1 0 7.5-3.4 7.5-7.5s-3.4-7.5-7.5-7.5z"/>
    <path fill="#73A942" d="M76.4 360.7h-.8c-5.8 0-11.6.7-17.2 2-3.9.9-6.5 4.9-5.7 8.9.9 4.1 5 6.7 9 5.8 4.5-1 9.1-1.6 13.8-1.6h.8c4.2 0 7.5-3.4 7.5-7.5s-3.2-7.6-7.4-7.6z"/>
    <path fill="#73A942" d="M9.2 419.4c-4.1-.6-7.9 2.3-8.5 6.4-.5 3.5-.7 7.1-.7 10.6 0 2.5.1 5 .4 7.5.4 3.9 3.7 6.8 7.5 6.8h.7c4.1-.4 7.1-4.1 6.7-8.2-.2-2-.3-4-.3-6 0-2.9.2-5.7.6-8.5.6-4.3-2.3-8.1-6.4-8.6z"/>
    <path fill="#73A942" d="M273.1 343.4c-2.9-3-7.7-3-10.6-.1-3.5 3.4-7.3 6.4-11.5 8.9-3.6 2.1-4.7 6.7-2.6 10.3 1.4 2.4 3.9 3.7 6.5 3.7 1.3 0 2.6-.3 3.8-1.1 5.2-3.1 10-6.8 14.3-11.1 3-2.9 3-7.7.1-10.6z"/>
    <path fill="#73A942" d="M73.8 496.9c-4.9-.1-9.7-.9-14.4-2.2-4-1.1-8.1 1.2-9.2 5.2s1.2 8.1 5.2 9.2c5.8 1.6 11.9 2.5 17.9 2.7h.2c4 0 7.4-3.2 7.5-7.3.3-4-3-7.4-7.2-7.6z"/>
    <path fill="#73A942" d="M122.8 497h-16.4c-4.2 0-7.5 3.4-7.5 7.5s3.4 7.5 7.5 7.5h16.4c4.2 0 7.5-3.4 7.5-7.5 0-4.2-3.4-7.5-7.5-7.5z"/>
    <path fill="#73A942" d="M34.3 480.7c-3.6-3.3-6.7-7.1-9.4-11.1-2.3-3.5-6.9-4.4-10.4-2.2-3.5 2.3-4.4 6.9-2.2 10.4 3.3 5.1 7.3 9.7 11.7 13.9 1.4 1.4 3.3 2 5.1 2 6.8 0 10.1-8.5 5.2-13z"/>
    <path fill="#73A942" d="M37 379.8c-2.7-3.1-7.4-3.5-10.6-.8-4.6 3.9-8.7 8.4-12.2 13.4-2.2 3.1-1.7 7.4 1.1 10 3.3 3 8.6 2.4 11.1-1.2 2.8-3.9 6.1-7.6 9.8-10.7 3.1-2.9 3.5-7.6.8-10.7z"/>
    <path fill="#73A942" d="M319.3 497h-16.4c-4.1 0-7.5 3.4-7.5 7.5s3.4 7.5 7.5 7.5h16.4c4.1 0 7.5-3.4 7.5-7.5 0-4.2-3.4-7.5-7.5-7.5z"/>
    <path fill="#73A942" d="M231.3 367.7c-.2-4.1-3.8-7.3-7.9-7.1-1.1.1-2.3.1-3.5.1h-12.5c-4.1 0-7.5 3.4-7.5 7.5s3.4 7.5 7.5 7.5h12.5c1.4 0 2.9 0 4.3-.1 4.2-.2 7.3-3.8 7.1-7.9z"/>
    <path fill="#73A942" d="M252.3 231.7c-5.5-2.6-11.3-4.5-17.2-5.7-4.1-.8-8 1.8-8.9 5.9-.8 4.1 1.8 8 5.9 8.9 4.8 1 9.4 2.5 13.8 4.6 3.7 1.8 8.3.1 10-3.6 1.7-3.8.1-8.3-3.6-10.1z"/>
    <path fill="#73A942" d="M125.6 360.7h-16.4c-4.2 0-7.5 3.4-7.5 7.5s3.4 7.5 7.5 7.5h16.4c4.2 0 7.5-3.4 7.5-7.5s-3.4-7.5-7.5-7.5z"/>
    <path fill="#73A942" d="M289.4 270.1c-2.4-5.6-5.5-10.8-9.1-15.7-2.5-3.3-7.2-4-10.5-1.4-3.3 2.5-4 7.2-1.4 10.5 2.9 3.9 5.4 8.1 7.3 12.5 1.7 4 6.6 5.7 10.4 3.7 3.3-1.8 4.8-6.1 3.3-9.6z"/>
    <path fill="#73A942" d="M288.4 297.5c-4.1-.3-7.7 2.8-8 7-.3 4.9-1.3 9.7-2.8 14.3-1.2 3.7.8 7.9 4.4 9.3 4 1.5 8.5-.7 9.9-4.7 1.9-5.8 3-11.7 3.5-17.8.3-4.2-2.8-7.8-7-8.1z"/>
    <path fill="#73A942" d="M270.1 497h-16.4c-4.1 0-7.5 3.4-7.5 7.5s3.4 7.5 7.5 7.5h16.4c4.1 0 7.5-3.4 7.5-7.5.1-4.2-3.3-7.5-7.5-7.5z"/>
    <path fill="#73A942" d="M174.7 360.7h-16.4c-4.1 0-7.5 3.4-7.5 7.5s3.4 7.5 7.5 7.5h16.4c4.1 0 7.5-3.4 7.5-7.5s-3.4-7.5-7.5-7.5z"/>
    <path fill="#73A942" d="M221 497h-16.4c-4.1 0-7.5 3.4-7.5 7.5s3.4 7.5 7.5 7.5H221c4.1 0 7.5-3.4 7.5-7.5 0-4.2-3.3-7.5-7.5-7.5z"/>
    <path fill="#73A942" d="M171.9 497h-16.4c-4.1 0-7.5 3.4-7.5 7.5s3.4 7.5 7.5 7.5h16.4c4.1 0 7.5-3.4 7.5-7.5 0-4.2-3.4-7.5-7.5-7.5z"/>
    <path fill="#73A942" d="M200.9 224.4h-16.4c-4.1 0-7.5 3.4-7.5 7.5s3.4 7.5 7.5 7.5h16.4c4.1 0 7.5-3.4 7.5-7.5s-3.3-7.5-7.5-7.5z"/>
    <path fill="#73A942" d="M360.2 497h-8c-4.1 0-7.5 3.4-7.5 7.5s3.4 7.5 7.5 7.5h8c4.1 0 7.5-3.4 7.5-7.5 0-4.2-3.3-7.5-7.5-7.5z"/>
    <g>
        <path fill="#FFF" d="M95.7 0C42.9 0 0 42.9 0 95.7 0 170.8 87.5 235.3 91.3 238c2.6 1.9 6.2 1.9 8.8 0 3.7-2.7 91.3-67.2 91.3-142.3 0-52.8-43-95.7-95.7-95.7zm0 222.5C78.2 208.5 15 154.1 15 95.7 15 51.2 51.2 15 95.7 15s80.7 36.2 80.7 80.7c-.1 58.4-63.2 112.8-80.7 126.8z"/>
        <path fill="#FFF" d="M149.1 80.2c-1.2-4-5.3-6.3-9.3-5.1-4 1.2-6.3 5.3-5.1 9.3 1.1 3.7 1.6 7.5 1.6 11.3 0 22.4-18.2 40.6-40.6 40.6-22.4 0-40.6-18.2-40.6-40.6 0-22.4 18.2-40.6 40.6-40.6 6.6 0 12.8 1.5 18.6 4.5 3.7 1.9 8.2.5 10.1-3.2 1.9-3.7.5-8.2-3.2-10.1-7.8-4-16.6-6.2-25.5-6.2C65 40.1 40.1 65 40.1 95.7s24.9 55.6 55.6 55.6 55.6-24.9 55.6-55.6c0-5.3-.7-10.5-2.2-15.5z"/>
        <path fill="#FFF" d="M416.3 272.5c-52.8 0-95.7 42.9-95.7 95.7 0 75.1 87.5 139.6 91.3 142.3 2.6 1.9 6.2 1.9 8.8 0 3.7-2.7 91.3-67.2 91.3-142.3 0-52.7-42.9-95.7-95.7-95.7zm0 222.5c-17.5-13.9-80.7-68.4-80.7-126.8 0-44.5 36.2-80.7 80.7-80.7s80.7 36.2 80.7 80.7c0 58.4-63.2 112.9-80.7 126.8z"/>
        <path fill="#FFF" d="M416.3 312.6c-6.1 0-12.2 1-17.9 3-3.9 1.3-6 5.7-4.7 9.5 1.3 3.9 5.7 6 9.5 4.7 4.2-1.4 8.6-2.2 13.1-2.2 22.4 0 40.6 18.2 40.6 40.6 0 22.4-18.2 40.6-40.6 40.6-22.4 0-40.6-18.2-40.6-40.6 0-7.1 1.9-14.1 5.4-20.2 2.1-3.6.8-8.2-2.8-10.3-3.6-2.1-8.2-.8-10.3 2.8-4.8 8.4-7.4 18-7.4 27.7 0 30.7 24.9 55.6 55.6 55.6s55.6-24.9 55.6-55.6-24.8-55.6-55.5-55.6z"/>
    </g>
</symbol><symbol id="icon-03_1scr" viewBox="0 0 512 512">
    <path fill="#FFF" d="M323 .6c-3.8-1.6-8.2.2-9.8 4.1L276.7 93 142.6 57.5v-50c0-4.2-3.4-7.5-7.5-7.5s-7.5 3.4-7.5 7.5v55.8c0 3.4 2.3 6.4 5.6 7.3l146 38.6c3.6 1 7.4-1 8.9-4.4l39-94.4c1.5-3.9-.3-8.2-4.1-9.8z"/>
    <path fill="#FFF" d="M95 0c-4.2 0-7.5 3.4-7.5 7.5V43L9.4 22.3c-4-1.1-8.1 1.3-9.2 5.3-1.1 4 1.3 8.1 5.3 9.2L93.1 60c4.7 1.2 9.4-2.4 9.4-7.3V7.5c0-4.1-3.3-7.5-7.5-7.5z"/>
    <path fill="#FFF" d="M506.4 407.7l-87.2-23.1c-3.6-1-7.4.9-8.9 4.4l-46.5 112.6c-1.6 3.8.2 8.2 4.1 9.8.9.4 1.9.6 2.9.6 3 0 5.8-1.8 7-4.6l44-106.5 80.9 21.4c4 1.1 8.1-1.3 9.2-5.3.9-4.1-1.5-8.2-5.5-9.3z"/>
    <path fill="#FFF" d="M507.4 68.5c-3.8-1.6-8.2.2-9.8 4.1l-29.3 71.1-137.8-36.4 40-96.8c1.6-3.8-.2-8.2-4.1-9.8-3.8-1.6-8.2.2-9.8 4.1l-43.2 104.8c-.8 2-.7 4.3.2 6.2 1 1.9 2.7 3.4 4.8 3.9L470.8 160c3.6 1 7.4-1 8.9-4.4l31.8-77.2c1.5-3.9-.3-8.3-4.1-9.9z"/>
    <g fill="#73A942">
        <path d="M133.2 283.1l88.4 23.4 6.9-6.5-2.8-7.9-83.1-22V114.5l229 60.6c4 1.1 8.1-1.3 9.2-5.3 1.1-4-1.3-8.1-5.3-9.2L137 97.5c-4.7-1.2-9.4 2.4-9.4 7.3v171c0 3.4 2.3 6.4 5.6 7.3z"/>
        <path d="M224.3 289.6z"/>
        <path d="M459.1 182.7l-48.8-12.9c-4-1.1-8.1 1.3-9.2 5.3-1.1 4 1.3 8.1 5.3 9.2l40.5 10.7-57.8 140.2-165-43.6c-.1 0-.2 0-.3-.1l-3.7 16.3.4-1.6 171.1 45.3c3.6 1 7.4-1 8.9-4.4l63.6-154.2c1.8-4.2-.6-9-5-10.2z"/>
    </g>
    <g fill="#FFF">
        <path d="M226.8 278.7c1.3-5.8-4.7-10.9-10.2-8.6L188 282l35.9 9.5 2.9-12.8z"/>
        <path d="M380.1 374.3l-164.8-43.6c-.1 0-.2 0-.3-.1l5.2-22.8.4-1.6-14.5-3.8-31.8 140.3-39.4-61.7c-.8-1.3-2-2.3-3.4-2.9L64.1 350l125-52.1-23.9-6.3-62.6 26.1v-11c0-3.4-2.3-6.4-5.6-7.3L9.4 276.2c-4-1.1-8.1 1.3-9.2 5.3-1.1 4 1.3 8.1 5.3 9.2l81.9 21.7v11.5L41.7 343c-6 2.5-6 11.3 0 13.9l45.9 19.2v128.4c0 4.1 3.4 7.5 7.5 7.5s7.5-3.4 7.5-7.5V382.3l20.9 8.8 4.1 6.4v106.9c0 4.2 3.4 7.5 7.5 7.5s7.5-3.4 7.5-7.5V421l28.6 44.8c3.5 5.5 12.2 4 13.7-2.4l26.8-118.2L368 386.5l-47.5 115c-1.6 3.8.2 8.2 4.1 9.8.9.4 1.9.6 2.9.6 3 0 5.8-1.8 7-4.6l50.7-122.9c.8-2 .7-4.3-.2-6.2-1.1-1.9-2.8-3.4-4.9-3.9z"/>
    </g>
    <path fill="#FFF" d="M165.2 291.5L188 282l35.9 9.5-3.4 14.7-56.3-14.9"/>
    <path fill="#FFF" d="M97 86.9L9.4 63.8c-4-1.1-8.1 1.3-9.2 5.3-1.1 4 1.3 8.1 5.3 9.2l82 21.7v155.5L9.4 234.8c-4-1.1-8.1 1.3-9.2 5.3-1.1 4 1.3 8.1 5.3 9.2L93 272.4c4.7 1.2 9.4-2.4 9.4-7.3v-171c.1-3.3-2.1-6.3-5.4-7.2z"/>
    <path fill="#FFF" d="M506.4 366.2l-63.5-16.8 60.4-146.3c1.6-3.8-.2-8.2-4.1-9.8-3.8-1.6-8.2.2-9.8 4.1l-63.6 154.2c-1.7 4.1.7 9 5 10.1l71.8 19c.6.2 1.3.3 1.9.3 3.3 0 6.4-2.2 7.3-5.6 1-4-1.4-8.1-5.4-9.2z"/>
</symbol><symbol id="icon-04_1scr" viewBox="0 0 511.5 512">
    <path fill="#FFF" d="M337.5 391.8c-3.4-.6-6.8-.9-10.2-.9h-32.7V370c18.8-12.6 31.3-34 31.3-58.3v-37.5c0-12.9-3.6-25.6-10.3-36.5l-12.8 7.8c5.3 8.6 8.1 18.5 8.1 28.7v7.9l-2-3.6c-6-11.1-17.6-18-30.2-18h-45.8c-12.6 0-24.2 6.9-30.2 18l-2 3.6v-7.9c0-30.4 24.7-55.1 55.1-55.1 14.6 0 28.4 5.7 38.8 16l10.6-10.6c-13.2-13.1-30.8-20.4-49.4-20.4-38.6 0-70.1 31.4-70.1 70.1v37.5c0 24.3 12.4 45.7 31.3 58.3v21h-32.7c-33.7 0-61.1 27.4-61.1 61.1V512h15v-59.9c0-25.4 20.7-46.1 46.1-46.1h33.3c3.1 18.2 19.1 32.2 38.2 32.2s35.1-13.9 38.2-32.2h33.3c2.6 0 5.2.2 7.7.6l2.5-14.8zm-58 7.6c0 13.1-10.7 23.8-23.8 23.8S232 412.5 232 399.4v-21.7c7.4 2.7 15.4 4.2 23.8 4.2s16.3-1.5 23.8-4.2v21.7zm-23.7-32.5c-29.8 0-54-23.7-55-53.2l15.1-28c3.4-6.2 9.9-10.1 17-10.1h45.8c7.1 0 13.6 3.9 17 10.1l15.1 28c-1 29.4-25.3 53.2-55 53.2z"/>
    <path fill="#FFF" d="M353.7 397l-6.5 13.5c15.9 7.6 26.1 24 26.1 41.6V512h15v-59.9c.1-23.3-13.5-45-34.6-55.1z"/>
    <path fill="#FFF" d="M328.3 476h15v36h-15v-36z"/>
    <path fill="#FFF" d="M168.2 476h15v36h-15v-36z"/>
    <path fill="#73A942" d="M133 70.8l-17.4-35.2-17.3 35.2-38.8 5.6 28.1 27.4-6.6 38.7 34.7-18.3 34.7 18.3-6.6-38.7 28.1-27.4-38.9-5.6zm-2.6 44.2l-14.8-7.8-14.8 7.8 2.8-16.5-12-11.7 16.5-2.4 7.4-15 7.4 15 16.5 2.4-12 11.7 3 16.5z"/>
    <path fill="#73A942" d="M278.1 70.8l-17.4-35.2-17.4 35.2-38.8 5.6 28.1 27.4-6.6 38.7 34.7-18.3 34.7 18.3-6.6-38.7 28.1-27.4-38.8-5.6zm-2.6 44.2l-14.8-7.8L246 115l2.8-16.5-12-11.7 16.5-2.4 7.4-15 7.4 15 16.5 2.4-12 11.7 2.9 16.5z"/>
    <path fill="#73A942" d="M395.9 35.6l-17.4 35.2-38.8 5.6 28.1 27.4-6.6 38.7 34.7-18.3 34.7 18.3-6.6-38.7 28.1-27.4-38.8-5.6-17.4-35.2zm14.8 79.4l-14.8-7.8-14.8 7.8 2.8-16.5-12-11.7 16.5-2.4 7.4-15 7.4 15 16.5 2.4-12 11.7 3 16.5z"/>
    <path fill="#FFF" d="M484 0H371.8v15H484c6.9 0 12.5 5.6 12.5 12.5v130.1c0 6.9-5.6 12.5-12.5 12.5H143.1v53.1l-75.2-53.1H27.5c-6.9 0-12.5-5.6-12.5-12.5V74.3H0v83.4c0 15.2 12.3 27.5 27.5 27.5h35.7l95 67v-67H484c15.2 0 27.5-12.3 27.5-27.5V27.5C511.5 12.3 499.2 0 484 0z"/>
    <path fill="#FFF" d="M15 27.5C15 20.6 20.6 15 27.5 15h349.2V0H27.5C12.3 0 0 12.3 0 27.5v49.7h15V27.5z"/>
    <path fill="#FFF" d="M153.1 452.1h15c0-8.9 7.2-16.1 16.1-16.1v-15c-17.1 0-31.1 14-31.1 31.1z"/>
</symbol><symbol id="icon-arrow" viewBox="0 0 16 9.1">
    <path fill="#101010" d="M15.6.4c.5.5.5 1 0 1.5L8.7 8.8c-.1.2-.4.3-.7.3-.3 0-.6-.1-.7-.3L.4 1.9C-.1 1.4-.1.9.4.4s1-.5 1.5 0L8 6.5 14.2.4c.5-.5 1-.5 1.4 0z"/>
</symbol><symbol id="icon-arrow_right" viewBox="0 0 9.1 16">
    <style>
    </style>
    <path fill="#FFF" d="M.4.4c.5-.5 1-.5 1.5 0l6.9 6.9c.2.1.3.4.3.7 0 .3-.1.6-.3.7l-6.9 6.9c-.5.5-1 .5-1.5 0s-.5-1 0-1.5L6.5 8 .4 1.8C-.1 1.3-.1.9.4.4z"/>
</symbol><symbol id="icon-bank" viewBox="0 0 440.9 500">
    <path fill="#3092E8" d="M225.5 108.5c-66 .1-119.7 53.8-119.8 119.8 0 66 53.7 119.8 119.8 119.8s119.8-53.7 119.8-119.8-53.7-119.8-119.8-119.8zm0 220c-55.3 0-100.3-45-100.3-100.3.1-55.2 45.1-100.2 100.3-100.2 55.3 0 100.3 45 100.3 100.3 0 55.2-45 100.2-100.3 100.2z"/>
    <path fill="#3092E8" d="M439.6 382.3c-11.2-19.9-36-27.5-56.4-17.2l-62.5 29.5c-9.2-16.1-26.3-26.3-45-26.9l-58.9-1.6c-9-.3-18.1-2.6-26.1-6.7l-6-3.1c-30.4-15.8-66.4-16.2-97-1.1l.3-10.9c.1-2.6-.9-5.1-2.7-7-1.8-1.9-4.2-3-6.8-3l-64.6-1.8c-5.4-.1-9.9 4.1-10 9.5L0 483.7c-.1 2.6.9 5.1 2.7 7 1.8 1.9 4.2 3 6.8 3l64.7 1.8h.2c5.3 0 9.6-4.2 9.7-9.5l.2-5.9 16-8.6c6.3-3.4 13.5-4.2 20.3-2.2l100.2 28.1c.2.1.4.1.7.2 7.3 1.5 14.8 2.3 22.3 2.3h.1c16 0 31.5-3.4 46-10.1.4-.2.8-.4 1.2-.7l145.4-94c4.3-2.6 5.7-8.3 3.1-12.8zM64.9 475.8l-45.1-1.2 3.4-122.3 45.1 1.2-3.4 122.3zm216.2-3.3c-17.5 7.9-36.6 10-55.4 6.2l-99.9-28c-11.7-3.3-24.1-2-34.8 3.8l-6.2 3.3 2.2-79.9c26.6-17.3 60.5-19 88.7-4.3l6 3.1c10.6 5.5 22.6 8.6 34.5 8.9l58.9 1.6c15.2.4 28.1 10.7 32 25.2l-85.7-2.4c-5.4-.1-9.9 4.1-10 9.5-.1 5.4 4.1 9.9 9.5 10l96.9 2.7h.2c5.3 0 9.6-4.2 9.7-9.5.1-3.2-.1-6.5-.6-9.7l64.3-30.4.3-.1c8-4.1 17.7-3.1 24.8 2.4l-135.4 87.6z"/>
    <path fill="#3092E8" d="M225.5 0c-5.4 0-9.7 4.4-9.7 9.7v77.4c0 5.4 4.4 9.7 9.7 9.7s9.7-4.4 9.7-9.7V9.7c.1-5.3-4.3-9.7-9.7-9.7z"/>
    <path fill="#3092E8" d="M286.7 40.7c-5.4 0-9.7 4.4-9.7 9.7v36.7c0 5.4 4.4 9.7 9.7 9.7s9.7-4.4 9.7-9.7V50.5c0-5.4-4.4-9.8-9.7-9.8z"/>
    <path fill="#3092E8" d="M164.4 40.7c-5.4 0-9.7 4.4-9.7 9.7v36.7c0 5.4 4.4 9.7 9.7 9.7 5.4 0 9.7-4.4 9.7-9.7V50.5c.1-5.4-4.3-9.8-9.7-9.8z"/>
    <g fill="#3092E8">
        <path d="M278.7 244.5c-2.1-4.1-5.1-7.3-9.2-9.8-4-2.4-8.8-3.7-14.3-3.7s-10.2 1.2-14.2 3.7c-4 2.4-7 5.7-9.1 9.8-2 4-3 8.2-3 12.7s1 8.7 3 12.7c2.1 4 5.1 7.3 9.1 9.7 4 2.4 8.8 3.7 14.2 3.7 5.4 0 10.2-1.2 14.3-3.7 4-2.4 7.1-5.7 9.2-9.7 2-3.9 3-8.2 3-12.7.1-4.4-1-8.7-3-12.7zM250 251c.7-.9 2-2.2 5.3-2.2s4.6 1.2 5.3 2.2c1.3 1.8 1.9 3.8 1.9 6.2 0 2.4-.6 4.4-1.9 6.2-.7.9-2 2.2-5.3 2.2s-4.6-1.2-5.3-2.2c-1.3-1.8-1.9-3.8-1.9-6.2 0-2.3.6-4.4 1.9-6.2z"/>
        <path d="M210.4 220.5c4-2.4 7.1-5.7 9.2-9.8 2-4 3-8.2 3-12.7s-1-8.7-3-12.7c-2.1-4-5.1-7.3-9.2-9.7-4-2.4-8.8-3.7-14.3-3.7-5.4 0-10.2 1.2-14.3 3.7-4 2.4-7.1 5.7-9.2 9.7-2 3.9-3 8.2-3 12.7s1 8.7 3 12.7c2.1 4.1 5.1 7.4 9.2 9.8 4 2.4 8.8 3.7 14.3 3.7 5.5-.1 10.3-1.3 14.3-3.7zm-9-16.3c-.7.9-2 2.2-5.3 2.2s-4.6-1.2-5.3-2.2c-1.3-1.8-1.9-3.8-1.9-6.2 0-2.4.6-4.4 1.9-6.2.7-.9 2-2.2 5.3-2.2s4.6 1.2 5.3 2.2c1.3 1.8 1.9 3.8 1.9 6.2 0 2.3-.6 4.4-1.9 6.2z"/>
        <path d="M246.4 173.7l-62.1 107.8h21.6l62-107.8z"/>
    </g>
</symbol><symbol id="icon-beach" viewBox="0 0 97.5 100">
    <path fill="#101010" d="M92.4 96.8H78.7c.3-1.1.3-2.2-.2-3.2l-4.6-10.2L93.2 64c.5-.5.7-1.3.6-2-.2-.8-.7-1.3-1.4-1.6l-4.5-1.5c-4-1.3-8.5-.3-11.5 2.8L65.9 72.2c-.4.4-1 .7-1.7.7H52.3l8-29.7v-.1l-3.1-.8L49 72.9H35.3c-.9 0-1.6.7-1.6 1.6 0 .4.2.8.5 1.1.3.3.7.5 1.1.5l28.9.1c1.5 0 2.9-.6 4-1.7l10.4-10.6c2.1-2.2 5.3-2.9 8.2-2l3 1-19.6 19.7c-.8.8-1.9 1.3-3.1 1.3h-57c-.1-2.3.6-4.4 2.1-5.8 1.3-1.3 3.1-2 4.9-2h11.3c.9 0 1.6-.7 1.6-1.6 0-.9-.7-1.6-1.6-1.6H17.1c-2.7 0-5.3 1.1-7.2 3-2.1 2.1-3 4.9-3 9.1 0 1.2 1 2.2 2.2 2.2h3.4l-3 6.5c-.5 1-.5 2.2-.2 3.2H1.6c-.9 0-1.6.7-1.6 1.6 0 .9.7 1.6 1.6 1.6h90.8c.9 0 1.6-.7 1.6-1.6 0-1-.7-1.7-1.6-1.7zM18.9 87l-4.1 9c-.2.5-.7.8-1.2.8-.2 0-.4 0-.6-.1-.7-.3-1-1.1-.7-1.8L16 87h2.9zm26.3 0l-2.6 9.8H18l4.5-9.8h22.7zm3.3 0h17l4.5 9.8H45.9l2.6-9.8zM75 96.7c-.2.1-.4.1-.6.1-.5 0-1-.3-1.2-.8L69 86.8c.9-.2 1.7-.6 2.5-1.1l4.2 9.2c.2.7-.1 1.5-.7 1.8z"/>
    <path fill="#73A942" d="M89.4 18.9c-.5-.7-1.5-.8-2.2-.3-.7.5-.8 1.5-.3 2.2 4.5 5.7 7.1 12.9 7.4 20.1l-19.6-5.2c.8-5.2 1.1-10.5 1-15.8-.1-3-.4-6-.8-9 2.7 1.4 5.2 3.1 7.5 5.1.7.6 1.7.5 2.3-.1.6-.7.5-1.7-.1-2.3-3.8-3.4-8.2-5.9-13.2-7.6l1.4-3.9c.1-.4.1-.8-.1-1.2-.2-.4-.5-.7-.9-.8-.5-.1-.9-.1-1.3.1s-.7.5-.8.9l-1.4 4.1C51.5 1 34 8.7 25.5 23.8c-.1.2-.2.5-.2.9l.5 7.7c.1 1.5 1.2 2.8 2.6 3.2L43 39.5c1.5.4 3-.2 3.9-1.5l1.7-2.5.2 3c.1 1.5 1.2 2.8 2.6 3.2L66 45.6c1.5.4 3-.2 3.9-1.5l1.7-2.5.2 3c.1 1.5 1.2 2.8 2.6 3.2L89 51.7c.3.1.6.1.9.1 1.2 0 2.3-.6 3-1.6l4.3-6.4c.1-.2.3-.5.3-.9.1-8.5-2.8-17.1-8.1-24zm-42 12.8l-3.1 4.5c-.1.1-.3.2-.4.2l-14.6-3.9c-.2 0-.3-.2-.3-.3l-.4-5.5 18.8 5zM62 7.3c-2.2 2.5-4.3 5.1-6.1 7.8-2.8 4.2-5.2 8.8-7 13.6l-19.5-5.2C36.5 12.5 48.9 6.3 62 7.3zm-3.5 9.6c2.1-3.2 4.6-6.3 7.4-9.1 1.9.4 3.7.9 5.5 1.6.6 3.5 1 7.1 1.1 10.6.2 4.9-.1 9.9-.9 14.9L52 29.6c1.7-4.4 3.9-8.7 6.5-12.7zm11.8 20.9l-3.1 4.5c-.1.1-.3.2-.4.2l-14.6-3.9c-.2 0-.3-.2-.3-.3l-.4-5.5 18.8 5zm23 6.2l-3.1 4.5c-.1.1-.3.2-.4.2l-14.6-3.9c-.2 0-.3-.2-.3-.3l-.2-5.5 18.6 5z"/>
</symbol><symbol id="icon-bus" viewBox="0 0 90.7 40">
    <path d="M21.4 28.7c-3.1 0-5.7 2.5-5.7 5.7 0 3.1 2.5 5.7 5.7 5.7s5.7-2.5 5.7-5.7-2.6-5.7-5.7-5.7zm0 9.4c-2.1 0-3.8-1.7-3.8-3.8 0-2.1 1.7-3.8 3.8-3.8s3.8 1.7 3.8 3.8c0 2.1-1.7 3.8-3.8 3.8z"/>
    <path d="M31.9 35.3h40.9l.1.4c.6 2.6 2.9 4.3 5.5 4.3s4.9-1.8 5.5-4.3l.1-.4h5.8c.5 0 .9-.4.9-.9V7.2c0-3.9-3.2-7.2-7.2-7.2H64.2c-.5 0-.9.4-.9.9s.4.9.9.9h19.4c2.4 0 4.5 1.6 5.1 3.9l.2.6H76.5c-.5 0-.9.4-.9.9v12.5c0 .5.4.9.9.9h12.4v12.7H84l-.1-.4c-.6-2.5-2.9-4.4-5.5-4.4s-4.9 1.8-5.5 4.4l-.1.4h-1v-26c0-.5-.4-.9-.9-.9H59.8c-.5 0-.9.4-.9.9v11.6H12.1c-.5 0-.9.4-.9.9s.4.9.9.9h46.7v12.7h-27c-.5 0-.9.4-.9.9s.4 1 1 1zm45.5-16.5V8.2h11.5v10.6H77.4zm1 11.7c2.1 0 3.8 1.7 3.8 3.8 0 2.1-1.7 3.8-3.8 3.8s-3.8-1.7-3.8-3.8c0-2.1 1.7-3.8 3.8-3.8zM60.7 8.2H70v11.7h-1.3c-.5 0-.9.4-.9.9s.4.9.9.9H70v11.7h-9.3V8.2z"/>
    <path d="M71.6 1.6c.2-.2.3-.4.3-.7s-.1-.5-.3-.7c-.2-.1-.5-.2-.7-.2s-.5.1-.7.3c-.1.1-.2.4-.2.6s.1.5.3.7c.3.3.9.3 1.3 0z"/>
    <path d="M65.3 0H7.2C3.6 0 .6 2.6.1 6.1c-.1.2-.1.3-.1.4v27.9c0 .5.4.9.9.9h10.5c.5 0 .9-.4.9-.9s-.4-.9-.9-.9H1.9V15.2H7c.5 0 .9-.4.9-.9V6.5c.1-.5-.3-.9-.9-.9H2l.3-.7c.9-1.8 2.8-3 4.8-3h58.2c.5 0 .9-.4.9-.9s-.3-1-.9-1zM6.1 7.4v5.9H1.9V7.4h4.2z"/>
    <path d="M7 18.9c-.2 0-.5.1-.7.3-.2.2-.3.4-.3.7 0 .2.1.5.3.7.3.3 1 .3 1.3 0 .3-.3.4-.5.4-.8 0-.2-.1-.5-.3-.7-.2-.1-.4-.2-.7-.2z"/>
    <path fill="#73A942" d="M54.2 15.2c.5 0 .9-.4.9-.9V6.5c0-.5-.4-.9-.9-.9H26c-.5 0-1 .4-1 .9v7.8c0 .5.4.9.9.9h28.3zM26.9 7.4h26.4v5.9H26.9V7.4z"/>
    <path d="M20.4 5.6h-7.8c-.5 0-.9.4-.9.9v7.8c0 .5.4.9.9.9h7.8c.5 0 .9-.4.9-.9V6.5c0-.5-.4-.9-.9-.9zm-.9 7.8h-5.9v-6h5.9v6z"/>
</symbol><symbol id="icon-cafe" viewBox="0 0 99.8 100">
    <path fill="#101010" d="M7.1 86.7h.3l.7 8.8c.2 2.6 2.4 4.5 4.9 4.5h27.2c2.6 0 4.7-2 4.9-4.6l.7-8.8h.3c1.7 0 3.1-1.3 3.3-3L52 50.2c.1-.9-.2-1.7-.8-2.4-.6-.7-1.4-1.1-2.2-1.1h-.1v-.1l.8-10.3c2-.7 3.4-2.5 3.4-4.7V28c0-2.6-2-4.8-4.6-4.9h-.4v-4.8c0-2.7-2.2-5-5-5H10c-2.7 0-5 2.2-5 5v2h-.1c-1.3 0-2.6.5-3.5 1.4C.6 22.7 0 24 0 25.3v6.4c0 2.1 1.4 4 3.4 4.7l.8 10.4h-.1c-.9.1-1.7.5-2.2 1.1-.6.7-.8 1.5-.8 2.4l2.6 33.4c.3 1.7 1.7 3 3.4 3zm35.6.1l-.7 8.4c-.1.9-.8 1.6-1.7 1.6H13.1c-.9 0-1.6-.7-1.7-1.6l-.7-8.5 32 .1zm6.2-36.7l-2.6 33.4H7.1L4.5 50l44.4.1zM6.8 36.7h39.9v.1l-.8 10.1H7.6l-.8-10.2zm1.5-18.3c0-.9.8-1.7 1.7-1.7h33.4c.9 0 1.7.8 1.7 1.7V23H45L8.3 20.5v-2.1zm-5 13.3v-6.4c0-.9.8-1.7 1.7-1.7h.1l1.6.1 41.8 2.8c.9.1 1.6.8 1.6 1.7v3.6c0 .9-.8 1.7-1.7 1.7H5c-.9-.1-1.7-.9-1.7-1.8z"/>
    <path fill="#73A942" d="M16.2 77.2c1.9 1.8 4.4 2.8 6.9 2.8h.3c4.4-.2 8.4-2 11.4-5.1 2.8-2.8 4.6-6.3 5-9.8.4-3.5-.5-6.7-2.7-8.8-1.8-1.8-4.3-2.8-7.2-2.8-4 0-8.2 1.9-11.4 5.1-2.8 2.8-4.6 6.3-5 9.8-.4 3.5.5 6.7 2.7 8.8zm20.2-16.1c1 3.6-.5 8-3.9 11.4-2.1 2.1-4.7 3.6-7.3 4-.6.1-1.2.2-1.8.2-1.9 0-3.5-.6-4.7-1.7l-.1-.1h.1c.6-.3 1.3-.4 2-.5 4.1-.3 7.3-3.5 7.6-7.6.1-2.6 2.2-4.7 4.9-4.9 1.1.1 2.2-.2 3.2-.8zm-15.6-.2c2.4-2.6 5.7-4 9.1-4.2 1.7 0 3.4.6 4.7 1.7l.1.1h-.1c-.6.3-1.3.4-2 .5-4.1.3-7.3 3.5-7.6 7.6-.1 2.6-2.2 4.7-4.9 4.9-1.1.1-2.2.4-3.2.9h-.1v-.1c-.9-3.6.6-8 4-11.4z"/>
    <path fill="#101010" d="M54.9 81.7h23.5c.2 0 .4 0 .5-.1 0 0 .1 0 .1-.1.1 0 .1-.1.2-.1l9.8-6.6 8.5-2.8c1.5-.5 2.4-2 2.2-3.6L90 1.4v-.1c0-.1-.1-.2-.1-.3 0-.1-.1-.2-.2-.3V.6.5h-.1-.1c-.1-.1-.2-.2-.3-.2-.1 0-.2-.1-.2-.1-.1 0-.2-.1-.4-.1h-.2L29.8 0c-1.6 0-3 1.2-3.3 2.9l-.7 5.2c-.1.9.5 1.7 1.4 1.8.4.1.9-.1 1.2-.3.3-.3.6-.7.6-1.1l.7-5.3h56.8v.1l-1.3 10.1h-1.9c-.9 0-1.6.7-1.6 1.6 0 .9.7 1.6 1.6 1.6h1.5v.1L77 78.5H54.9c-.9 0-1.6.7-1.6 1.6s.7 1.6 1.6 1.6zm25.6-5l8.1-63.1.1.4 8 55-6.7 2.2V50c0-.9-.7-1.6-1.6-1.6-.9 0-1.6.7-1.6 1.6v22.5l-6.3 4.2z"/>
    <path fill="#101010" d="M76.7 13.4h-3.3c-.9 0-1.6.7-1.6 1.6 0 .9.7 1.6 1.6 1.6h3.3c.9 0 1.6-.7 1.6-1.6.1-.9-.7-1.6-1.6-1.6z"/>
    <path fill="#101010" d="M66.7 13.4h-3.3c-.9 0-1.6.7-1.6 1.6 0 .9.7 1.6 1.6 1.6h3.3c.9 0 1.6-.7 1.6-1.6.1-.9-.7-1.6-1.6-1.6z"/>
    <path fill="#101010" d="M56.7 13.4h-3.3c-.9 0-1.6.7-1.6 1.6 0 .9.7 1.6 1.6 1.6h3.3c.9 0 1.6-.7 1.6-1.6 0-.9-.7-1.6-1.6-1.6z"/>
    <path fill="#101010" d="M57 55h10c1.6 0 3-1.2 3.3-2.8l2.9-20c.1-.9-.2-1.9-.8-2.6-.6-.7-1.5-1.1-2.5-1.1H58.4c-.9 0-1.6.7-1.6 1.6 0 .9.7 1.6 1.6 1.6h11.5v.1l-2.9 20H57c-.9 0-1.6.7-1.6 1.6 0 .9.7 1.6 1.6 1.6z"/>
</symbol><symbol id="icon-car" viewBox="0 0 102.4 40">
    <path fill="#73A942" d="M53.7 15.6H59v1.9h-5.3z"/>
    <path fill="#101010" d="M29 33.6l.2-.5h47.5l.2.5c1 2.8 3.1 4.9 5.9 5.9 2.4.8 5 .7 7.3-.4s4-3 4.9-5.5l.2-.5h6.4c.5 0 .9-.4.9-.9V21.8c0-2.5-1.4-4.9-3.6-6.2-5.9-3.4-12.6-5.2-19.4-5.3H79l-5.9-3.2C64.6 2.5 55 0 45.3 0h-2C35 0 27 1.7 19.5 5.1c-2.3 1-4.5 2.2-6.6 3.5l-.3.1L.8 10.4c-.5.1-.8.5-.8.9v14c0 2.4 1.4 4.5 3.6 5.4L9.3 33c.1 0 .2.1.3.1h1.2l.2.5c1 2.8 3.1 4.9 5.9 5.9 2.4.8 5 .7 7.3-.4 2.2-1.2 4-3.1 4.8-5.5zm63.3 1.1c-1.1 1.7-2.9 2.9-4.9 3.3-.5.1-1 .2-1.5.2-3.7 0-6.8-2.6-7.6-6.2-.1-.5-.2-1-.2-1.5 0-3.7 2.6-6.9 6.2-7.6 2-.4 4.1 0 5.8 1.1 1.7 1.1 2.9 2.9 3.3 4.9.5 2 .1 4-1.1 5.8zM46.9 1.9h.8c8.5.4 16.9 2.7 24.4 6.8l3.1 1.7H46.9V1.9zm0 10.4h32c6.6 0 13.2 1.7 19 5 1.6.9 2.6 2.7 2.6 4.5v9.4h-5.1v-.8c0-5.3-4.3-9.6-9.6-9.6s-9.6 4.3-9.6 9.6v.8H46.9V12.3zM22.6 5.8c6.6-2.6 13.5-4 20.6-4H45v8.5H25.6l-4.1-4.1 1.1-.4zM11.8 25.4c0 .1-.1.2-.1.2 0 .1-.1.1-.1.2s-.1.2-.1.2l-.2.3c0 .1-.1.2-.1.2l-.2.7c-.1.1-.1.2-.1.3 0 .1 0 .2-.1.3l-.1.2c0 .2-.1.3-.1.4v.3l-.1.3v2.5L4.3 29c-1.5-.6-2.5-2-2.5-3.6v-7.9H7v-1.9H1.9v-3.5l11.3-1.6c.1 0 .2-.1.4-.1 1.8-1.1 3.7-2.1 5.6-3l.5-.2 4.9 4.9c.2.2.4.3.7.3h19.9v18.9H29.6v-.8c0-5.3-4.3-9.6-9.6-9.6-.3 0-.6 0-1 .1h-.2l-.4.1c-.2 0-.3 0-.4.1h-.2l-.4.1c-.2 0-.3.1-.4.1-.1 0-.1 0-.2.1l-.3.1c-.1 0-.2.1-.3.1-.1 0-.2.1-.2.1l-.3.1c-.1.1-.2.1-.3.1-.1.1-.2.1-.4.2-.1.1-.2.1-.3.2-.1 0-.1.1-.2.1-.1.1-.2.1-.2.2l-.3.2-.2.2-.2.2-.3.3-.2.2s-.1.1-.1.2c-.1.1-.1.2-.2.2l-.3.3c-.1.1-.2.2-.2.3l-.2.2c-.1.1-.2.3-.3.4zM21.5 38c-.5.1-1 .2-1.6.2-3.7 0-6.8-2.6-7.6-6.2-.1-.5-.2-1-.2-1.5 0-3.7 2.6-6.9 6.2-7.6 2-.4 4.1 0 5.8 1.1 1.7 1.1 2.9 2.9 3.3 4.9 1 4.1-1.7 8.2-5.9 9.1z"/>
    <path fill="#73A942" d="M86 35.4c-2.7 0-4.9-2.2-4.9-4.9s2.2-4.9 4.9-4.9 4.9 2.2 4.9 4.9-2.2 4.9-4.9 4.9zm0-8c-1.7 0-3.1 1.4-3.1 3.1 0 1.7 1.4 3.1 3.1 3.1s3.1-1.4 3.1-3.1c0-1.7-1.4-3.1-3.1-3.1z"/>
    <g>
        <path fill="#73A942" d="M20 35.4c-2.7 0-4.9-2.2-4.9-4.9s2.2-4.9 4.9-4.9 4.9 2.2 4.9 4.9-2.2 4.9-4.9 4.9zm0-8c-1.7 0-3.1 1.4-3.1 3.1 0 1.7 1.4 3.1 3.1 3.1s3.1-1.4 3.1-3.1c0-1.7-1.4-3.1-3.1-3.1z"/>
    </g>
</symbol><symbol id="icon-chek" viewBox="0 0 41.3 41">
    <path fill="#73A942" d="M14.6 40.4L.9 27c-.6-.4-.9-1.1-.9-1.8s.2-1.4.7-1.9c.5-.5 1.1-.8 1.8-.8s1.3.2 1.9.7l11.4 11.1L36.5 1.1c.4-.5.9-.9 1.6-1.1.7-.2 1.3 0 1.9.4.6.4 1 .9 1.1 1.6.2.7 0 1.4-.4 2L18.5 39.9c-.1.2-.1.3-.2.3 0 0-.2.1-.4.3l-.1.1c-.2.2-.5.3-.8.4h-.2c-.2.1-.4.1-.6 0h-.5c-.1-.1-.2-.2-.5-.2-.2-.1-.3-.1-.4-.1-.1-.2-.1-.2-.2-.3z"/>
</symbol><symbol id="icon-church" viewBox="0 0 93 100">
    <path fill="#73A942" d="M46.5 42.4c-4.8 0-8.7 3.9-8.7 8.7s3.9 8.7 8.7 8.7 8.7-3.9 8.7-8.7-3.9-8.7-8.7-8.7zm0 14.1c-3 0-5.4-2.4-5.4-5.4 0-3 2.4-5.4 5.4-5.4 3 0 5.4 2.4 5.4 5.4 0 3-2.4 5.4-5.4 5.4z"/>
    <path fill="#101010" d="M92.9 72c-.1-.4-.4-.7-.8-.9L64.7 58.3V39c0-.4-.2-.8-.4-1.1L48.1 20.8V9.4h3.2c.9 0 1.6-.7 1.6-1.6 0-.9-.7-1.6-1.6-1.6h-3.2V1.6c0-.9-.7-1.6-1.6-1.6-.9 0-1.6.7-1.6 1.6v4.5h-3.2c-.9 0-1.6.7-1.6 1.6 0 .9.7 1.6 1.6 1.6h3.2v11.4l-.1.1-16.1 17c-.3.3-.4.7-.4 1.1v19.3L.9 71.1c-.8.4-1.2 1.3-.8 2.1.4.8 1.4 1.2 2.2.8l4.3-2v26.4c0 .9.7 1.6 1.6 1.6h76.5c.9 0 1.6-.7 1.6-1.6V72l4.3 2c.8.4 1.8 0 2.1-.8.3-.4.3-.8.2-1.2zM28.2 96.8h-7.6V83.9c0-.9-.7-1.6-1.6-1.6-.9 0-1.6.7-1.6 1.6v12.9H9.8V70.5l18.4-8.6v34.9zm23.7 0H41.1V79.5c0-3 2.4-5.4 5.4-5.4 1.5 0 2.8.6 3.8 1.6s1.6 2.4 1.6 3.8v17.3zm9.6 0h-6.4V79.5c0-2.3-.9-4.5-2.5-6.1-1.6-1.6-3.8-2.5-6.1-2.5-4.8 0-8.6 3.9-8.6 8.7v17.3h-6.4V39.6l.1-.1 14.9-15.8 15 15.9v57.2zm21.6 0h-7.6v-8.7c0-.9-.7-1.6-1.6-1.6-.9 0-1.6.7-1.6 1.6v8.7h-7.6V61.9l18.4 8.6v26.3z"/>
</symbol><symbol id="icon-fire" viewBox="0 0 74.7 100">
    <path fill="#101010" d="M27.4 28.6c-1.9 7.3-2.1 15.6-2.1 21.2v.6l-.6-.1c-8.9-1.9-10.9-14.7-10.9-15.2-.1-.5-.4-1-.8-1.2-.2-.1-.5-.2-.8-.2-.2 0-.5.1-.7.2C11 34 .7 39.3 0 60.5v2.1C0 83.2 16.8 100 37.4 100c20.6 0 37.4-16.8 37.4-37.4 0-1-.1-2-.1-3l-.1-1C73.5 43.7 66.5 34.3 60.3 26c-5.8-7.8-10.8-14.5-10.8-24.5 0-.6-.3-1.1-.9-1.4-.5-.3-1.2-.2-1.7.1C37.8 6.9 30.1 18 27.4 28.6zm10 68.2c-7.2 0-13.1-6.3-13.1-14V82c.1-2.7.5-5 1.4-6.9l.5-1 .5 1c1 2.2 3 4.7 6.5 4.7.9 0 1.6-.7 1.6-1.6 0-3 .1-6.5.8-9.7.7-2.8 2.3-5.8 4.4-8.3l.6-.7.3.9c.9 3 2.6 5.4 4.3 7.8 2.5 3.5 5 7.2 5.5 13.4 0 .4.1.7.1 1.2-.3 7.7-6.2 14-13.4 14zM57.7 28c6.2 8.3 12.6 16.9 13.6 30.9l.1 1c.1.9.1 1.8.1 2.7 0 13.6-8.1 26-20.7 31.4l-1.7.7 1.1-1.5c2.2-3.1 3.4-6.7 3.4-10.4 0-.5 0-.9-.1-1.8-.5-6.7-3.4-10.9-6-14.6-2.3-3.3-4.3-6.1-4.3-10.1 0-.6-.3-1.2-.9-1.4-.5-.3-1.2-.2-1.7.2-3.9 3-7.2 8-8.4 12.8-.5 2-.8 4.5-.9 7.4v1.2l-.8-.9c-1.6-1.7-2-4.8-2-4.8-.1-.5-.4-.9-.8-1.2-.5-.2-1-.2-1.5 0-.5.3-4.9 2.8-5.2 12.3v1c0 3.7 1.2 7.3 3.4 10.4l1.1 1.5-1.6-.8C11.3 88.6 3.2 76.3 3.2 62.6v-2c.4-12.9 4.7-19.3 7.2-21.9l.6-.7.2.9c1 3.5 5 14.8 15.6 14.8.9 0 1.6-.7 1.6-1.6 0-7.1.2-15.2 2.1-22.8 2.1-8.5 8-17.7 15.2-24l.7-.6.1.9c1.2 9 6.1 15.5 11.2 22.4z"/>
    <path fill="#73A942" d="M62.2 45.5c-.5-.6-1.6-.7-2.3-.1-.7.6-.7 1.6-.1 2.3 6.2 6.9 5.5 17.6-1.3 23.7-.6.5-.7 1.6-.1 2.3.5.6 1.6.7 2.3.1 8.1-7.4 8.9-20 1.5-28.3z"/>
</symbol><symbol id="icon-forest" viewBox="0 0 99.9 100">
    <path fill="#101010" d="M98.5 97.1H82.2V74.4c.3 0 .6.1.9.1 4.5 0 8.2-3.7 8.2-8.2v-.1c4.5-.6 7.7-4.8 7-9.3-.2-1.2-.6-2.4-1.3-3.4 3.4-3 3.7-8.2.7-11.6-.5-.5-1-1-1.6-1.4 1.4-3.9-.3-8.2-4-10.1.1-.5.1-.9.1-1.4 0-4-2.8-7.4-6.7-8.1-.2-4.5-4-8.1-8.5-7.9-4.3.1-7.8 3.6-7.9 7.9-.5.1-.9.2-1.4.4.1-.6.2-1.3.2-1.9 0-4.8-3.5-8.9-8.3-9.7C59.8 4.4 55.4 0 50 0s-9.8 4.4-9.8 9.8c-4.8.8-8.3 4.9-8.3 9.7 0 .6.1 1.3.2 1.9-.4-.2-.9-.3-1.4-.4-.2-4.5-4-8.1-8.5-7.9-4.3.2-7.8 3.6-7.9 7.9-3.9.7-6.7 4.1-6.7 8.1 0 .5 0 .9.1 1.4-3.7 1.9-5.4 6.2-4 10.1-3.8 2.5-4.8 7.6-2.2 11.4.4.6.9 1.1 1.4 1.6C.4 57.4 1.5 62.5 5.3 65c1 .7 2.2 1.1 3.4 1.3v.1c0 4.5 3.7 8.2 8.2 8.2.3 0 .6 0 .9-.1v22.7H1.5c-.8 0-1.5.7-1.5 1.5s.7 1.5 1.5 1.5h97c.8 0 1.5-.7 1.5-1.5s-.7-1.6-1.5-1.6zM71.9 23.3c.3-.3.4-.8.3-1.2 0-.3-.1-.5-.1-.8 0-2.9 2.4-5.3 5.3-5.3s5.3 2.4 5.3 5.3c0 .3 0 .5-.1.8-.1.4.1.9.4 1.2.3.3.7.5 1.1.5 2.9 0 5.3 2.3 5.3 5.2 0 .6-.1 1.2-.3 1.8-.3.8.1 1.6.9 1.9h.1c2.8.9 4.3 3.8 3.5 6.6-.1.4-.3.7-.5 1.1-.4.7-.2 1.6.5 2l.1.1c2.7 1.2 3.9 4.3 2.7 6.9-.5 1.1-1.3 1.9-2.3 2.5-.7.4-1 1.3-.6 2 .1.1.1.2.2.3 2.1 2.1 2.1 5.4 0 7.5-1 1-2.3 1.6-3.8 1.6h-.4c-.8-.1-1.5.5-1.6 1.3v.4c.1.4.1.8.1 1.2 0 2.9-2.4 5.3-5.3 5.3-1.8 0-3.5-.9-4.5-2.5-.4-.7-1.3-.9-2-.4-.2.1-.3.3-.4.4-1.6 2.5-4.8 3.2-7.3 1.6-1.2-.8-2.1-2-2.4-3.5.1-.6.2-1.3.2-1.9v-.4c5.4-.6 9.3-5.4 8.7-10.7-.2-1.7-.8-3.2-1.7-4.6 4.2-3.4 4.7-9.6 1.3-13.8-.7-.8-1.4-1.5-2.3-2 1.3-3.4.6-7.2-1.8-9.9.8-.1 1.2-.3 1.4-.5zM57 75.1c3.2 0 6.2-1.6 8-4.2 1.5 2.2 4.1 3.6 6.8 3.6.3 0 .6 0 .9-.1v22.7H55.5V74.9c.5.1 1 .2 1.5.2zM35.2 22.9c.2-.4.2-.8.1-1.2-1.3-3.5.6-7.5 4.1-8.7.7-.3 1.5-.4 2.3-.4.5 0 .9-.2 1.3-.5.3-.3.4-.8.3-1.2-.1-.3-.1-.7-.1-1.1-.1-3.7 3-6.8 6.8-6.8s6.8 3.1 6.8 6.8c0 .4 0 .7-.1 1.1-.1.4.1.9.4 1.2.3.3.7.5 1.2.5 3.8 0 6.8 3 6.8 6.8 0 .8-.1 1.6-.4 2.3-.3.8.1 1.6.9 1.9h.1c3.6 1.1 5.6 4.9 4.5 8.5-.2.5-.4 1-.6 1.4-.4.7-.2 1.6.5 2l.1.1c3.5 1.5 5.1 5.5 3.6 9-.6 1.4-1.6 2.5-2.9 3.3-.7.4-1 1.3-.6 2 .1.1.1.2.2.3 2.7 2.7 2.7 7 0 9.7-1.3 1.3-3 2-4.9 2H65c-.8-.1-1.5.5-1.6 1.3v.4c.8 3.7-1.5 7.4-5.1 8.2-2.8.7-5.8-.6-7.3-3-.4-.7-1.3-.9-2-.5-.2.1-.3.3-.5.5-2 3.2-6.2 4.2-9.4 2.1-2.5-1.6-3.7-4.5-3-7.3.2-.8-.3-1.6-1.1-1.8h-1c-3.8 0-6.8-3.1-6.8-6.8 0-1.8.7-3.6 2-4.9.6-.6.6-1.5 0-2.1-.1-.1-.2-.2-.3-.2-3.3-1.9-4.5-6-2.6-9.3.7-1.3 1.9-2.3 3.2-2.9.7-.3 1.1-1.2.8-1.9 0-.1 0-.1-.1-.1-1.9-3.3-.8-7.5 2.5-9.3.4-.3.9-.5 1.4-.6.6-.1.9-.4 1.1-.8zm-7 51.6c2.7 0 5.2-1.3 6.8-3.6 2.1 3.1 5.8 4.6 9.5 4V97H27.2V74.4c.3 0 .7.1 1 .1zm-16.7-8.3c0-.4 0-.8.1-1.2.2-.8-.3-1.6-1.1-1.8h-.8c-2.9 0-5.3-2.4-5.3-5.3 0-1.4.6-2.8 1.6-3.8.6-.6.6-1.5 0-2.1-.1-.1-.2-.2-.3-.2-2.5-1.4-3.4-4.6-2-7.2.6-1 1.4-1.8 2.5-2.3.7-.3 1.1-1.2.8-1.9 0-.1 0-.1-.1-.1-1.5-2.5-.6-5.7 1.9-7.2.3-.2.7-.4 1.1-.5.8-.2 1.2-1.1 1-1.8v-.1c-1-2.7.4-5.8 3.2-6.7.6-.2 1.1-.3 1.7-.3.5 0 .9-.2 1.2-.5.3-.3.4-.8.3-1.2 0-.3-.1-.5-.1-.8 0-2.9 2.4-5.3 5.3-5.3s5.3 2.4 5.3 5.3c0 .3 0 .5-.1.8-.1.4.1.9.4 1.2.2.3.5.4.9.5-2.4 2.7-3.1 6.6-1.8 10-4.6 2.9-5.9 8.9-3 13.5.6.9 1.2 1.7 2 2.3-3.1 4.4-2 10.5 2.4 13.6 1.4 1 3 1.6 4.6 1.7v.4c0 .7.1 1.3.2 1.9-.5 2.9-3.3 4.7-6.1 4.2-1.4-.3-2.7-1.1-3.5-2.4-.4-.7-1.3-.9-2-.4-.2.1-.3.3-.4.4-1.6 2.5-4.8 3.2-7.3 1.6-1.7-.8-2.6-2.5-2.6-4.3zm9.2 30.9V73.5c.7-.4 1.3-.8 1.8-1.3.5.5 1.2 1 1.8 1.3v23.6h-3.6zm26.7 0V74c1-.5 1.8-1.1 2.6-1.9.7.8 1.6 1.4 2.6 1.9v23.1h-5.2zm28.2 0V73.5c.7-.4 1.3-.8 1.8-1.3.5.5 1.2 1 1.8 1.3v23.6h-3.6z"/>
    <path fill="#73A942" d="M56.7 24.1c-.2.8.2 1.6.9 1.8.1 0 .3.1.5.1.6 0 1.2-.4 1.4-1 .7-1.8.1-3.8-1.4-5-.6-.6-1.5-.5-2.1.1-.6.6-.5 1.5.1 2.1.7.4.9 1.2.6 1.9z"/>
    <path fill="#73A942" d="M59.6 56.2c-.8 0-1.5.7-1.5 1.5 0 1.5-.1 1.6-.9 2.4-.6.6-.5 1.5.1 2.1.6.6 1.5.5 2.1-.1 1.2-1.3 1.7-2.2 1.6-4.4 0-.8-.6-1.5-1.4-1.5z"/>
    <path fill="#73A942" d="M59.6 29.1c-.5.7-.3 1.6.4 2 0 0 2.1 1.5 2.3 3.5.1 1.7-.4 3.3-1.6 4.5-.6.6-.6 1.5 0 2.1.6.5 1.4.6 2 .1 1.8-1.8 2.7-4.4 2.5-7-.4-3.4-3.5-5.6-3.6-5.7-.7-.3-1.6-.2-2 .5z"/>
</symbol><symbol id="icon-house" viewBox="0 0 500 500">
    <g fill="#3092E8">
        <path d="M496 178.1L255.7 1.9c-3.4-2.5-8-2.5-11.5 0L4 178.1C.6 180.6-.8 185 .5 188.9c1.3 4 5 6.7 9.2 6.7H32v252.9h-6.3c-5.3 0-9.7 4.4-9.7 9.7v32c0 5.3 4.4 9.7 9.7 9.7h448.6c5.3 0 9.7-4.4 9.7-9.7v-32c0-5.3-4.4-9.7-9.7-9.7H468V195.6h22.3c4.2 0 7.9-2.7 9.2-6.7 1.3-3.9-.1-8.3-3.5-10.8zM35.4 480.6V468h429.2v12.6H35.4zm236.9-92.7v12.6h-44.7v-12.6h44.7zm-28.6-89.8c0-3.5 2.8-6.3 6.3-6.3s6.3 2.8 6.3 6.3-2.8 6.3-6.3 6.3-6.3-2.8-6.3-6.3zm16 23.7c9.6-3.9 16-13.3 16-23.7 0-14.2-11.5-25.7-25.7-25.7s-25.7 11.5-25.7 25.7c0 10.4 6.4 19.8 16 23.7v46.7h-13.2c-1.8-14.2-8.1-27-18.3-37.2-8.5-8.5-13.2-19.8-13.2-31.8v-10.8c0-12 4.7-23.3 13.2-31.8s19.8-13.2 31.8-13.2h18.8c12 0 23.3 4.7 31.8 13.2s13.2 19.8 13.2 31.8v10.8c0 12-4.7 23.3-13.2 31.8-10.2 10.2-16.5 23-18.3 37.2h-13.2v-46.7zm32 62.7v-7.7c0-12 4.7-23.3 13.2-31.8 12.2-12.2 18.9-28.3 18.9-45.5v-10.8c0-17.2-6.7-33.4-18.9-45.5-12.2-12.2-28.3-18.9-45.5-18.9h-18.8c-17.2 0-33.4 6.7-45.5 18.9-12.2 12.2-18.9 28.3-18.9 45.5v10.8c0 17.2 6.7 33.4 18.9 45.5 8.5 8.5 13.2 19.8 13.2 31.8v7.7h-38.4c-2.6 0-5.1 1-6.9 2.8l-29.2 29.2H51.4V195.6h397.1v220.9h-34.3L385 387.3c-1.8-1.8-4.3-2.8-6.9-2.8h-86.4zm-117.8 19.4h34.3v6.3c0 5.3 4.4 9.7 9.7 9.7H282c5.3 0 9.7-4.4 9.7-9.7v-6.3h82.4l29.2 29.2c1.8 1.8 4.3 2.8 6.9 2.8h38.4v12.6H51.4v-12.6h86.4c2.6 0 5.1-1 6.9-2.8l29.2-29.2zm36-296.4c3.5 0 6.3 2.8 6.3 6.3s-2.8 6.3-6.3 6.3-6.3-2.8-6.3-6.3 2.9-6.3 6.3-6.3zm-9.9 30c3.2 1.4 6.6 2.1 9.9 2.1 14.2 0 25.7-11.5 25.7-25.7s-11.5-25.7-25.7-25.7-25.7 11.5-25.7 25.7c0 3.4.7 6.7 2.1 9.9l-20.4 20.4H83L250 21.7l145.1 106.4h-65.4l-20.4-20.4c1.4-3.2 2.1-6.6 2.1-9.9 0-14.2-11.5-25.7-25.7-25.7S260 83.6 260 97.8s11.5 25.7 25.7 25.7c3.4 0 6.7-.7 9.9-2.1l23.3 23.3c1.8 1.8 4.3 2.8 6.9 2.8h95.9l39.1 28.7H39.3l17.2-12.6h113.3c2.6 0 5.1-1 6.9-2.8l23.3-23.3zm85.7-33.4c-3.5 0-6.3-2.8-6.3-6.3s2.8-6.3 6.3-6.3 6.3 2.8 6.3 6.3-2.8 6.3-6.3 6.3z"/>
        <path d="M161.9 271.7L148.2 258l-5.9 5.9c-9 9-14.2 21.5-14.2 34.2 0 12.7 5.2 25.2 14.2 34.2l5.9 5.9 13.7-13.7-5.9-5.9c-5.4-5.4-8.5-12.9-8.5-20.5s3.1-15.1 8.5-20.5l5.9-5.9z"/>
        <path d="M115.5 298.1c0-18.1 7-35.1 19.8-47.8l2.6-2.6-13.7-13.7-2.6 2.6c-16.4 16.4-25.5 38.3-25.5 61.5 0 23.3 9.1 45.1 25.5 61.5l2.6 2.6 13.7-13.7-2.6-2.6c-12.7-12.8-19.8-29.8-19.8-47.8z"/>
        <path d="M357.7 263.9l-5.9-5.9-13.7 13.7 5.9 5.9c5.4 5.4 8.5 12.9 8.5 20.5s-3.1 15.1-8.5 20.5l-5.9 5.9 13.7 13.7 5.9-5.9c9-9 14.2-21.5 14.2-34.2-.1-12.8-5.2-25.2-14.2-34.2z"/>
        <path d="M378.4 236.5l-2.6-2.6-13.7 13.7 2.6 2.6c12.8 12.8 19.8 29.8 19.8 47.8s-7 35.1-19.8 47.8l-2.6 2.6 13.7 13.7 2.5-2.6c16.4-16.4 25.5-38.3 25.5-61.5.1-23.2-9-45-25.4-61.5z"/>
    </g>
</symbol><symbol id="icon-igs" viewBox="0 0 100 100">
    <path fill="#101010" d="M42.2 94.3c0 3.2 2.6 5.7 5.7 5.7h4.2c3.2 0 5.7-2.6 5.7-5.7V69c0-.8-.7-1.5-1.5-1.5s-1.5.7-1.5 1.5v25.3c0 1.5-1.2 2.7-2.7 2.7h-4.2c-1.5 0-2.7-1.2-2.7-2.7V69c0-.8-.7-1.5-1.5-1.5s-1.5.7-1.5 1.5v25.3z"/>
    <path fill="#101010" d="M90.1 0H9.9C4.5 0 0 4.5 0 9.9v50.6c0 5.5 4.5 9.9 9.9 9.9H90c5.5 0 9.9-4.5 9.9-9.9V9.9C100 4.5 95.5 0 90.1 0zM97 60.5c0 3.8-3.1 6.9-6.9 6.9H9.9c-3.8 0-6.9-3.1-6.9-6.9V9.9C3 6.1 6.1 3 9.9 3H90c3.9 0 7 3.1 7 6.9v50.6z"/>
    <g fill="#73A942">
        <path d="M30.8 43.6V27h-2.3L21 37.6V27h-3v16.6h2.3l7.4-10.5v10.5z"/>
        <path d="M59.7 43.6l-5.3-8.4 5.1-8.2h-3.3l-4.9 8.3 5.1 8.3z"/>
        <path d="M42.4 27h-3.3l5.1 8.2-5.3 8.4h3.3l5.2-8.3z"/>
        <path d="M47.8 27h3v16.6h-3z"/>
        <path d="M78.4 31.6l2.6-1.5c-.7-1-1.6-1.8-2.7-2.4-1.3-.7-2.6-1-4.1-1-2.5 0-4.6.8-6.2 2.5-1.6 1.6-2.5 3.7-2.5 6.2 0 2.4.8 4.5 2.5 6.2 1.6 1.6 3.7 2.5 6.2 2.5 1.5 0 2.9-.3 4.2-1 1.1-.6 2-1.4 2.7-2.4L78.4 39c-.4.6-.9 1-1.6 1.4-.8.4-1.7.6-2.6.6-1.7 0-3-.5-4.1-1.6-1-1-1.5-2.4-1.5-4.1s.5-3.1 1.5-4.1c1-1 2.4-1.6 4.1-1.6 1 0 1.8.2 2.6.6.7.4 1.2.8 1.6 1.4z"/>
    </g>
</symbol><symbol id="icon-lake" viewBox="0 0 89.8 100">
    <path fill="#101010" d="M76.2 65.7c-8.4-3.6-19.5-5.5-31.3-5.5s-22.9 2-31.3 5.5C4.8 69.4 0 74.5 0 80.1s4.8 10.7 13.6 14.4C22 98 33.1 100 44.9 100s22.9-2 31.3-5.5c8.8-3.7 13.6-8.8 13.6-14.4S85 69.4 76.2 65.7zm-1.1 26.1c-8 3.4-18.7 5.3-30.1 5.3-11.4 0-22.1-1.9-30.1-5.3-7.7-3.2-12-7.5-12-11.7 0-4.2 4.3-8.5 11.8-11.7 8-3.4 18.7-5.3 30.1-5.3 11.4 0 22.1 1.9 30.1 5.3 7.5 3.2 11.8 7.5 11.8 11.7.2 4.2-4.1 8.5-11.6 11.7z"/>
    <path fill="#73A942" d="M28.6 30.8h6.8l-5.5 8.1H24v2.9h3.9l-2.5 3.6H39v12.3h2.9V45.5H48v12.3h2.9V45.5h13.5l-9.9-14.7h6.8l-9.1-13.4h4.5L44.9 0 33.2 17.4h4.5l-9.1 13.4zM44.9 5.2l6.2 9.2h-4.5l9.1 13.4h-6.8l9.9 14.7H31l7.9-11.7h7.3v-2.9H34.1l7.1-10.5h2.7v-2.9h-5.2l6.2-9.3z"/>
    <path fill="#101010" d="M19.8 54.3v6.2h2.9v-6.2h4.7v4.6h2.9v-4.6H36v-2.9H13.6L22 38.9h-5.8L24 27.5h-3.8l4.9-7.2 3.5 5.2 2.4-1.6-5.9-8.7-10.4 15.2h3.8l-7.7 11.4h5.8L8.1 54.3h11.7z"/>
    <path fill="#101010" d="M63.8 52.6h-6.4l-3.3 3.3v2.4H57v-1.1l1.5-1.5h4l1.6 1.5v3.4H67V60l1.3-1.3h2.4L72 60v2.2h2.9v-3.4l-3.1-3.1H67v.1l-3.2-3.2z"/>
    <path fill="#101010" d="M54.9 76.6h-.4l.1-2.9h.4c2.3 0 3.3-.3 4.5-.7 1.3-.4 2.7-.9 5.4-.9s4.2.5 5.4.9c1.2.4 2.3.7 4.5.7v2.9c-2.7 0-4.2-.5-5.4-.9-1.2-.4-2.3-.7-4.5-.7s-3.3.3-4.5.7c-1.4.5-2.8.9-5.5.9zm-2.6-.1c-1.2-.2-2.1-.4-2.9-.7l-.2-.1.9-2.8.2.1c.7.2 1.4.5 2.4.6l-.4 2.9zm-4.8-1.3c-.8-.1-1.6-.2-2.6-.2v-2.9c1.2 0 2.2.1 3.2.3l-.6 2.8z"/>
    <path fill="#101010" d="M35.5 86c-2.7 0-4.2-.5-5.4-.9-1.2-.4-2.3-.7-4.5-.7h-.4l-.1-2.9h.4c2.7 0 4.2.5 5.4.9 1.2.4 2.3.7 4.5.7 2.3 0 3.3-.3 4.5-.7 1.3-.4 2.7-.9 5.4-.9v2.9c-2.3 0-3.3.3-4.5.7-1.1.5-2.6.9-5.3.9zm-19.9 0v-2.9c1 0 1.9-.1 2.6-.2l.5 2.9c-.9.1-1.9.2-3.1.2zm5.2-.8l-.9-2.8.2-.1c.8-.3 1.7-.5 2.9-.7l.4 2.9c-1 .1-1.7.4-2.4.6l-.2.1z"/>
</symbol><symbol id="icon-light" viewBox="0 0 83.4 100">
    <path fill="#101010" d="M41.8 21.6C27.6 21.6 16 33.1 16 47.3c0 7.4 3.2 14.5 8.7 19.3 4.1 4.1 3.7 12.8 3.6 12.9 0 .5.1.8.5 1.2.3.3.7.5 1.1.5h23.6c.5 0 .8-.2 1.1-.5.3-.3.5-.7.5-1.2 0-.1-.5-8.8 3.6-12.9l.3-.3c5.4-4.9 8.5-11.8 8.5-19.1 0-14.1-11.6-25.6-25.7-25.6zm14.8 42.6c-.1.1-.3.3-.3.4-3.6 3.9-4.3 10.3-4.3 13.3H31.5c-.1-3.1-.7-9.7-4.6-13.7-4.9-4.3-7.8-10.5-7.8-17 0-12.5 10.1-22.6 22.6-22.6s22.6 10.1 22.6 22.6c-.1 6.5-2.8 12.7-7.7 17z"/>
    <path fill="#73A942" d="M41.7 28.1c-.8 0-1.6.7-1.6 1.6s.7 1.6 1.6 1.6c9.3 0 16.8 7.6 16.8 16.8 0 .8.7 1.6 1.6 1.6.8 0 1.6-.7 1.6-1.6 0-11-8.9-20-20-20z"/>
    <path fill="#101010" d="M51.9 82.9H31.4c-2.1 0-3.9 1.8-3.9 3.9 0 2.1 1.8 3.9 3.9 3.9h20.4c2.2-.1 4-1.8 4-3.9 0-2.2-1.7-3.9-3.9-3.9zm0 4.5H31.4c-.4 0-.7-.3-.7-.7 0-.5.3-.7.7-.7h20.4c.4 0 .7.3.7.7.1.4-.2.7-.6.7z"/>
    <path fill="#101010" d="M48.9 92.2H34.5c-2.1 0-3.9 1.8-3.9 3.9s1.8 3.9 3.9 3.9h14.4c2.1 0 3.9-1.8 3.9-3.9 0-2.2-1.8-3.9-3.9-3.9zm0 4.6H34.5c-.4 0-.7-.3-.7-.7 0-.5.3-.7.7-.7h14.4c.4 0 .7.3.7.7 0 .4-.3.7-.7.7z"/>
    <path fill="#73A942" d="M41.7 13.9c.9 0 1.6-.7 1.6-1.6V1.6c0-.8-.7-1.6-1.6-1.6-.8 0-1.6.7-1.6 1.6v10.7c0 .8.7 1.6 1.6 1.6z"/>
    <path fill="#73A942" d="M67.8 8c-.7-.6-1.7-.3-2.1.4l-5.9 8.9c-.6.7-.4 1.8.4 2.2.3.2.6.3.8.3.6 0 1-.3 1.3-.7l5.9-8.9c.6-.8.4-1.8-.4-2.2z"/>
    <path fill="#73A942" d="M22.9 19.3c.3 0 .6-.1.8-.3.7-.5.9-1.5.5-2.2l-5.7-9c-.5-.7-1.5-.9-2.3-.4s-.9 1.5-.5 2.2l5.7 9c.5.5.9.7 1.5.7z"/>
    <path fill="#73A942" d="M11.7 29.1L2.4 24c-.7-.4-1.8-.1-2.1.6-.5.7-.2 1.8.6 2.1l9.3 5.1c.3.1.5.2.7.2.6 0 1.1-.3 1.4-.8.4-.7.1-1.7-.6-2.1z"/>
    <path fill="#73A942" d="M83.2 24.7c-.4-.7-1.4-1-2.1-.6l-9.4 5.1c-.7.4-1 1.4-.6 2.1.3.6.8.8 1.4.8.3 0 .6-.1.7-.2l9.4-5.1c.7-.3 1-1.4.6-2.1z"/>
</symbol><symbol id="icon-map" viewBox="0 0 485.3 500">
    <path fill="#3092E8" d="M226 165.8l-.1-.1c-3.8-3.8-10-3.8-13.8.1-3.8 3.8-3.8 10 .1 13.8l.1.1c1.9 1.9 4.4 2.8 6.9 2.8s5-1 6.9-2.9c3.8-3.7 3.8-9.9-.1-13.8z"/>
    <path fill="#3092E8" d="M367.4 284.8c-3.2-4.3-9.4-5.2-13.7-2-4.3 3.2-5.2 9.4-2 13.7 6.6 8.7 10 19.2 10 30.1 0 27.7-22.6 50.3-50.3 50.3s-50.3-22.6-50.3-50.3c0-27.7 22.6-50.3 50.3-50.3 5.4 0 9.8-4.4 9.8-9.8s-4.4-9.8-9.8-9.8c-38.5 0-69.9 31.3-69.9 69.9s31.3 69.9 69.9 69.9 69.9-31.3 69.9-69.9c.1-15.1-4.8-29.6-13.9-41.8z"/>
    <path fill="#3092E8" d="M475.7 443.5l-4.7-4.6V309.8 160.1v-148c0-2.9-1.3-5.7-3.5-7.5-2.2-1.9-5.2-2.6-8.1-2.1L310.8 30.8 162.5.2c-1.3-.3-2.6-.3-3.9 0L7.9 30.5c-4.6.9-7.9 4.9-7.9 9.6v447.5c0 2.9 1.3 5.7 3.5 7.5 2.2 1.9 5.2 2.6 8 2.1l148.9-27 147.8 29.5h.2c.3.1.5.1.8.2h.3c.4 0 .7.1 1.1.1h1c.2 0 .4-.1.7-.1h.4l106.4-20.7 10.7 10.5c6.1 6.1 14.3 9.5 22.9 9.5 8.7 0 16.8-3.4 23-9.5 6.1-6.1 9.5-14.3 9.5-23 .1-8.9-3.3-17-9.5-23.2zm-324.9 8.6L19.6 475.8v-128l131.2-25.5v129.8zm0-149.7L19.6 327.9V198l131.2-25.5v129.9zm0-149.9L19.6 178V48.1l131.2-26.4v130.8zM451.4 23.9v128l-131 26.7-.5-129.6 131.5-25.1zm-34.1 284.8c-8-48-48-85-96.8-89.1l-.1-21 130.9-26.7v129.9l-34 6.9zm34.1 13v98l-9.1-8.9c-.3-.3-.6-.5-.9-.8l-34.5-34.3c7.3-14.2 11.6-30.3 11.9-47.3l32.6-6.7zM170.3 172.5l14.9 3c5.3 1.1 10.5-2.4 11.5-7.7 1.1-5.3-2.4-10.5-7.7-11.5l-18.7-3.7V21.8l130 26.8.5 129.9-45.1-9.5c-5.3-1.1-10.5 2.3-11.6 7.6-1.1 5.3 2.3 10.5 7.6 11.6l49.2 10.3.1 21.2c-48.5 4.7-87.9 41.7-95.5 89.7l-35.2-7V172.5zm130.6 305.8l-130.6-26.1V322.4l33.8 6.8c1.3 54.5 43.3 99 96.8 104.3v44.8zm10.6-64c-48.4 0-87.8-39.4-87.8-87.8 0-1.7 0-3.3.1-4.9 2.5-46.5 41-82.9 87.6-82.9 46.3 0 84.7 36.1 87.6 82.3.1 1.9.2 3.7.2 5.5.1 48.5-39.3 87.8-87.7 87.8zm9 64v-44.8c14.5-1.2 28.3-5.3 40.6-11.8l35.6 35.3 5.5 5.4-81.7 15.9zm57.4-67.4c6.8-5.4 12.9-11.5 18.2-18.3l25.5 25.4-18.1 18.3-25.6-25.4zm84 64.8c-2.4 2.4-5.7 3.8-9.1 3.8-3.4 0-6.7-1.3-9.2-3.8L417.4 450l18.2-18.4 26.3 25.8c2.4 2.4 3.8 5.7 3.8 9.1 0 3.5-1.3 6.8-3.8 9.2z"/>
    <path fill="#3092E8" d="M339.1 263.6c-5.4 0-9.8 4.4-9.8 9.8s4.4 9.8 9.8 9.8 9.8-4.4 9.8-9.8c0-5.5-4.4-9.8-9.8-9.8z"/>
</symbol><symbol id="icon-phone" viewBox="0 0 512 512">
    <g fill="#73A942">
        <path d="M172 210.8c17.5-17.5 17.5-46.1 0-63.6l-61.7-61.7c-9.4-9.4-22.5-14.2-35.9-13.1-13.1 1.1-25 7.8-32.5 18.3-1.6 2.2-3.1 4.4-4.6 6.7l124.1 124.1 10.6-10.7z"/>
        <path d="M426.6 401.7L364.9 340c-17.5-17.5-46.1-17.5-63.6 0l-10.6 10.6 124.1 124.1c2.2-1.5 4.5-3 6.7-4.6 10.6-7.6 17.3-19.4 18.3-32.5 1-13.3-3.8-26.4-13.2-35.9z"/>
        <path d="M248.2 374.4c-12 0-23.3-4.7-31.8-13.2l-65.6-65.6c-8.5-8.5-13.2-19.8-13.2-31.8 0-6.8 1.5-13.4 4.4-19.4l-120-120C5.1 159.8-2.4 199.6.7 239.4 4.8 293.1 28 343.6 65.9 381.5l64.6 64.6c37.9 37.9 88.4 61.1 142.1 65.2 5.9.5 11.7.7 17.6.7 33.9 0 67.2-7.6 97.4-21.9l-120-120c-6 2.8-12.6 4.3-19.4 4.3z"/>
        <path d="M302 0c-8.3 0-15 6.7-15 15s6.7 15 15 15c99.3 0 180 80.7 180 180 0 8.3 6.7 15 15 15s15-6.7 15-15C512 94.2 417.8 0 302 0z"/>
        <path d="M302 210c0 8.3 6.7 15 15 15s15-6.7 15-15c0-16.5-13.5-30-30-30-8.3 0-15 6.7-15 15s6.7 15 15 15z"/>
        <path d="M302 150c33.1 0 60 26.9 60 60 0 8.3 6.7 15 15 15s15-6.7 15-15c0-49.6-40.4-90-90-90-8.3 0-15 6.7-15 15s6.7 15 15 15z"/>
        <path d="M302 60c-8.3 0-15 6.7-15 15s6.7 15 15 15c66.2 0 120 53.8 120 120 0 8.3 6.7 15 15 15s15-6.7 15-15c0-82.7-67.3-150-150-150z"/>
    </g>
</symbol><symbol id="icon-road" viewBox="0 0 87.3 100">
    <path fill="#101010" d="M21.2 46.9h-.3c-.3 0-.6.1-.8.2-.3.2-.6.6-.6 1L9.6 98.2c-.1.4 0 .9.3 1.2.3.3.7.5 1.2.5h60.4c.4 0 .9-.2 1.2-.5.3-.3.4-.8.3-1.2l-19.1-97C53.7.5 53.1 0 52.4 0H30.1c-.7 0-1.3.5-1.5 1.2l-6.2 31.6c-.1.4 0 .8.2 1.1.2.3.6.6.9.6.4.1.8 0 1.1-.2.3-.2.6-.6.6-1l6-30.4H51V3l18.5 94H12.9l9.5-48.3c.1-.4 0-.8-.2-1.1-.3-.4-.6-.6-1-.7z"/>
    <g fill="#101010">
        <path d="M41.3 74.8c-.8 0-1.5.7-1.5 1.5v6.4c0 .8.7 1.5 1.5 1.5s1.5-.7 1.5-1.5v-6.4c0-.9-.7-1.5-1.5-1.5z"/>
        <path d="M41.3 62c-.8 0-1.5.7-1.5 1.5v6.4c0 .8.7 1.5 1.5 1.5s1.5-.7 1.5-1.5v-6.4c0-.8-.7-1.5-1.5-1.5z"/>
        <path d="M41.3 49.3c-.8 0-1.5.7-1.5 1.5v6.4c0 .8.7 1.5 1.5 1.5s1.5-.7 1.5-1.5v-6.4c0-.8-.7-1.5-1.5-1.5z"/>
        <path d="M41.3 87.5c-.8 0-1.5.7-1.5 1.5v6.4c0 .8.7 1.5 1.5 1.5s1.5-.7 1.5-1.5V89c0-.9-.7-1.5-1.5-1.5z"/>
        <path d="M41.3 11.1c-.8 0-1.5.7-1.5 1.5V19c0 .8.7 1.5 1.5 1.5s1.5-.7 1.5-1.5v-6.4c0-.8-.7-1.5-1.5-1.5z"/>
        <path d="M41.3 36.6c-.8 0-1.5.7-1.5 1.5v6.4c0 .8.7 1.5 1.5 1.5s1.5-.7 1.5-1.5v-6.4c0-.9-.7-1.5-1.5-1.5z"/>
        <path d="M41.3 3.2c-.8 0-1.5.7-1.5 1.5v1.6c0 .8.7 1.5 1.5 1.5s1.5-.7 1.5-1.5V4.7c0-.9-.7-1.5-1.5-1.5z"/>
        <path d="M41.3 23.9c-.8 0-1.5.7-1.5 1.5v6.4c0 .8.7 1.5 1.5 1.5s1.5-.7 1.5-1.5v-6.4c0-.9-.7-1.5-1.5-1.5z"/>
    </g>
    <path fill="#73A942" d="M73.2 38.2h3v20.5h-3z"/>
    <path fill="#73A942" d="M74.7 0C67 0 62 15.7 62 26.5c0 13 6.7 14.6 12.6 14.6 5.9 0 12.6-1.7 12.6-14.6C87.3 15.7 82.4 0 74.7 0zm0 38.2c-4.9 0-9.6-.9-9.6-11.6C65 15.3 70.1 3 74.7 3s9.6 12.3 9.6 23.6c0 10.7-4.8 11.6-9.6 11.6z"/>
    <path fill="#73A942" d="M11.1 49.3h3v20.5h-3z"/>
    <path fill="#73A942" d="M12.6 11.1C4.9 11.1 0 26.9 0 37.7c0 13 6.7 14.6 12.6 14.6s12.6-1.7 12.6-14.6c.1-10.8-4.9-26.6-12.6-26.6zm0 38.2c-4.8 0-9.6-.9-9.6-11.6 0-11.2 5-23.6 9.6-23.6s9.6 12.3 9.6 23.6c.1 10.7-4.7 11.6-9.6 11.6z"/>
</symbol><symbol id="icon-road_02" viewBox="0 0 100 100">
    <path fill="#101010" d="M33.9 80.6c.9 0 1.6-.7 1.6-1.6 0-.9-.7-1.6-1.6-1.6h-6.5c-.9 0-1.6.7-1.6 1.6 0 .9.7 1.6 1.6 1.6h6.5z"/>
    <path fill="#101010" d="M72.6 80.6c.9 0 1.6-.7 1.6-1.6 0-.9-.7-1.6-1.6-1.6h-6.5c-.9 0-1.6.7-1.6 1.6 0 .9.7 1.6 1.6 1.6h6.5z"/>
    <path fill="#101010" d="M8 77.5c-.9 0-1.6.7-1.6 1.6 0 .9.7 1.6 1.6 1.6h6.5c.9 0 1.6-.7 1.6-1.6 0-.9-.7-1.6-1.6-1.6H8z"/>
    <path fill="#101010" d="M53.2 77.5h-6.5c-.9 0-1.6.7-1.6 1.6 0 .9.7 1.6 1.6 1.6h6.5c.9 0 1.6-.7 1.6-1.6 0-.9-.7-1.6-1.6-1.6z"/>
    <path fill="#101010" d="M92 80.6c.9 0 1.6-.7 1.6-1.6 0-.9-.7-1.6-1.6-1.6h-6.5c-.9 0-1.6.7-1.6 1.6 0 .9.7 1.6 1.6 1.6H92z"/>
    <path fill="#73A942" d="M9.6 3.2C4.3 3.2 0 7.6 0 12.9c0 5.3 4.3 9.6 9.6 9.6h24.2c4.4 0 8-3.6 8-8s-3.6-8-8-8h-1.1l-.4-.8c-2-3.5-5.7-5.7-9.8-5.7-3.1 0-6 1.2-8.1 3.4l-.6.7-.9-.3c-1-.4-2.1-.6-3.3-.6zm5 4.6c.4-.1.8-.4 1-.7 1.5-2.5 4.1-3.9 6.9-3.9 3.6 0 6.7 2.3 7.7 5.7.1.4.4.7.8.9.4.2.8.2 1.2.1.5-.2 1-.3 1.6-.3 2.7 0 4.9 2.2 4.9 4.9s-2.2 4.9-4.9 4.9H9.6c-3.6 0-6.5-2.9-6.5-6.5S6 6.4 9.6 6.4c1.3 0 2.6.4 3.7 1.2.4.2.9.3 1.3.2z"/>
    <path fill="#101010" d="M1.6 61.3h96.9c.9 0 1.6-.7 1.6-1.6 0-.9-.7-1.6-1.6-1.6h-21v-9.8l1.1-.3c1.9-.5 3.7-1.4 5.1-2.8l.6-.5.8.2c.7.2 1.5.3 2.2.3 5.3 0 9.6-4.3 9.6-9.6 0-.7-.1-1.5-.3-2.2l-.2-.8.5-.6c2-2.1 3.1-4.9 3.1-7.8s-1.1-5.7-3.1-7.8l-.5-.6.2-.8c.2-.7.3-1.5.3-2.2 0-5.3-4.3-9.6-9.6-9.6-.7 0-1.5.1-2.2.3l-.8.2-.6-.5c-2.1-2-4.9-3.1-7.8-3.1s-5.7 1.1-7.8 3.1l-.6.5-.8-.2c-.7-.2-1.5-.3-2.2-.3-5.3 0-9.6 4.3-9.6 9.6 0 .7.1 1.5.3 2.2l.2.8-.5.6c-2 2.1-3.1 4.9-3.1 7.8s1.1 5.7 3.1 7.8l.5.6-.2.8c-.2.7-.3 1.5-.3 2.2 0 5.3 4.3 9.6 9.6 9.6.7 0 1.5-.1 2.2-.3l.8-.2.6.5c1.4 1.4 3.2 2.3 5.1 2.8l1.1.3v9.8H1.6c-.9 0-1.6.7-1.6 1.6 0 .9.7 1.6 1.6 1.6zm70.6-17c-1.1-.6-2.2-1.4-2.9-2.5 0 0-.8-1.1-1.9-.5-.9.4-1.8.6-2.8.6-3.6 0-6.5-2.9-6.5-6.5 0-1 .2-1.9.6-2.8.3-.7.1-1.5-.5-1.9-2.1-1.5-3.4-4-3.4-6.6s1.3-5 3.4-6.6c.6-.4.8-1.3.5-1.9-.4-.9-.6-1.8-.6-2.8 0-3.6 2.9-6.5 6.5-6.5 1 0 1.9.2 2.8.6.7.3 1.5.1 1.9-.5 1.5-2.1 4-3.4 6.6-3.4s5 1.3 6.6 3.4c.4.6 1.3.8 1.9.5.9-.4 1.8-.6 2.8-.6 3.6 0 6.5 2.9 6.5 6.5 0 1-.2 1.9-.6 2.8-.3.7-.1 1.5.5 2 2.1 1.5 3.4 4 3.4 6.6s-1.3 5-3.4 6.6c-.6.4-.8 1.3-.5 1.9.4.9.6 1.8.6 2.8 0 3.6-2.9 6.5-6.5 6.5-1 0-1.9-.2-2.8-.6-.7-.3-1.5-.1-1.9.5-.8 1-1.8 1.9-2.9 2.5l-2.1 1.1V31.3l6-6c.6-.6.6-1.6 0-2.2-.6-.6-1.6-.6-2.2 0l-3.8 3.8v-9.1c0-.9-.7-1.6-1.6-1.6s-1.6.7-1.6 1.6v9.1l-3.8-3.8c-.6-.6-1.6-.6-2.2 0-.3.3-.5.7-.5 1.1 0 .4.2.8.5 1.1l6 6v14.1l-2.1-1.1z"/>
    <path fill="#101010" d="M1.6 100h96.9c.9 0 1.6-.7 1.6-1.6s-.7-1.6-1.6-1.6H1.6c-.9 0-1.6.7-1.6 1.6s.7 1.6 1.6 1.6z"/>
    <g>
        <path d="M16.6 68l-.3-.8c-.6-1.8-2-3.2-3.8-3.9-1.8-.7-3.8-.5-5.4.4l-1.4.8c-1.2.7-1.9 2-1.7 3.4.2 1.4 1.1 2.5 2.5 2.9l5.8 1.6c.1 0 .2 0 .3.1.2 0 .5.1.7.1.9 0 1.8-.4 2.5-1.1.9-1 1.2-2.3.8-3.5zm-3.5 1.9l-5.8-1.6c-.5-.1-.6-.5-.6-.7s0-.5.4-.8l1.4-.8c.6-.3 1.2-.5 1.8-.5.2 0 .5 0 .7.1.2 0 .4.1.6.2 1 .4 1.8 1.2 2.2 2.3l.3.8c.1.3 0 .6-.2.8-.2.2-.5.2-.8.2z"/>
        <path d="M44.4 90.2l-.6-.6c-1.4-1.3-3.3-1.9-5.2-1.7-1.9.2-3.6 1.3-4.6 2.9l-.8 1.3c-.8 1.2-.7 2.7.1 3.8.8 1.2 2.2 1.7 3.6 1.4l5.9-1.3c.1 0 .2 0 .2-.1l.6-.3c.8-.4 1.4-1.2 1.7-2.1.5-1.1.1-2.4-.9-3.3zm-2.1 3.3l-5.9 1.3c-.5.1-.7-.2-.8-.3-.1-.1-.3-.5 0-.9l.8-1.3c.3-.5.8-1 1.4-1.3.2-.1.4-.2.7-.3.2-.1.4-.1.6-.1 1.1-.1 2.2.2 3 1l.6.6c.2.2.3.5.2.8-.1.3-.4.5-.6.5z"/>
        <path d="M83.2 65.7l-.2.9c-.3 1.9.2 3.8 1.4 5.2 1.2 1.5 3 2.3 4.9 2.2h1.6c1.4 0 2.6-.9 3.2-2.2.5-1.3.2-2.8-.8-3.7L89 63.9l-.2-.2c-.2-.1-.4-.3-.6-.4-.8-.4-1.8-.5-2.7-.3-1.2.4-2.1 1.4-2.3 2.7zm3.9.1l4.3 4.2c.3.3.2.7.2.9s-.2.5-.7.5h-1.6c-.6 0-1.3-.1-1.8-.5-.2-.1-.4-.3-.6-.4-.2-.1-.3-.3-.4-.4-.7-.8-1-2-.8-3l.2-.9c.1-.3.2-.5.5-.6.2-.1.5 0 .7.2z"/>
        <path d="M64.8 65.2l-2.3-1.4c-.6-.4-1.4-.5-2.1-.2l-2.8 1.2c-.8.3-1.3 1.1-1.4 1.9-.1.8.4 1.6 1.1 2.1l1.4.8c.3.2.7.3 1.1.3h.3l3.7-.6c.9-.1 1.7-.8 1.9-1.8.3-.9-.1-1.8-.9-2.3zm-1.3 1.9l-3.6.6-1.4-.8 2.7-1.2 2.3 1.4z"/>
        <path d="M68.5 89.7l2.7.4c.7.1 1.5-.1 2-.7l2.1-2.2c.6-.6.8-1.5.5-2.3-.3-.8-1-1.4-1.8-1.5l-1.6-.2c-.4-.1-.8 0-1.2.2-.1 0-.2.1-.3.2l-3.2 1.9c-.8.5-1.2 1.4-1 2.3.1 1.1.8 1.8 1.8 1.9zm.4-2.2l3.1-1.9 1.6.2-2.1 2.2-2.6-.5z"/>
        <path d="M10.6 93.1l-1-2.5c-.3-.7-.9-1.2-1.6-1.3l-3-.7c-.8-.2-1.7.1-2.2.8-.5.7-.7 1.6-.3 2.3l.7 1.5c.2.4.4.7.7.9.1.1.2.1.3.2L7.5 96c.8.4 1.8.3 2.5-.3.7-.7.9-1.7.6-2.6zm-2.1.9l-3.3-1.7-.7-1.4 2.9.6L8.5 94z"/>
        <path d="M44.8 65.8l-3-1.2c-1.1-.5-2.4-.3-3.5.3l-4.2 2.8c-1.6 1-2.1 3.1-1.2 4.8l1.5 3c.5 1 1.4 1.7 2.5 1.9.3.1.5.1.8.1.8 0 1.6-.3 2.3-.8l5.6-4.5c.9-.7 1.4-1.8 1.4-3 .1-1.5-.8-2.8-2.2-3.4zm-4 1.3l3 1.2c.4.2.6.5.6 1v.1c0 .3-.1.6-.4.8l-5.6 4.5c-.2.2-.6.3-.9.2-.3-.1-.6-.3-.7-.5l-1.5-3c-.2-.5-.1-1 .4-1.3l4.2-2.8c.1-.3.3-.3.5-.3.1 0 .3 0 .4.1z"/>
        <path d="M97.7 85.1l-3-1.2c-1.1-.5-2.4-.3-3.5.3L87.1 87c-1.6 1-2.1 3.1-1.2 4.8l1.5 3c.5 1 1.4 1.7 2.5 1.9.3.1.5.1.8.1.8 0 1.6-.3 2.3-.8l5.6-4.5c.9-.7 1.4-1.8 1.4-3 0-1.5-.9-2.8-2.3-3.4zm-4 1.2l3 1.2c.4.2.6.5.6 1v.1c0 .3-.1.6-.4.8l-5.6 4.5c-.2.2-.6.3-.9.2-.3-.1-.6-.3-.7-.5l-1.5-3c-.2-.5-.1-1 .4-1.3l4.2-2.8c.2-.1.4-.2.6-.2h.3z"/>
        <path d="M23.8 83.7l-.6-1.7c-.3-.9-1.1-1.5-2-1.5-.9 0-1.8.5-2.2 1.3l-.8 1.7c-.3.7-.3 1.5.1 2.2.4.7 1.1 1.1 1.9 1.1h1.4c.7 0 1.4-.4 1.9-1s.6-1.4.3-2.1zm-1.7 1c-.1.1-.2.3-.4.3h-1.4c-.2 0-.4-.2-.4-.2 0-.1-.1-.3 0-.5l.8-1.7c.1-.3.3-.3.5-.3.1 0 .3 0 .4.3l.6 1.7c0 .2-.1.4-.1.4z"/>
        <path d="M60 86l1.1-1.4c.6-.7.6-1.7.1-2.5s-1.4-1.2-2.3-1.1l-1.9.3c-.8.1-1.4.6-1.8 1.3-.3.7-.3 1.5.2 2.2l.8 1.2c.4.6 1.1 1 1.8 1 .9 0 1.6-.4 2-1zm-1.8-.8c-.1 0-.3 0-.4-.2l-.8-1.2c-.1-.2-.1-.4 0-.5 0-.1.1-.3.4-.3l1.9-.3c.3 0 .4.1.5.2.1.1.1.3 0 .6L58.6 85c-.1.1-.3.2-.4.2z"/>
        <path d="M23.8 64.9l1.1-1.4c.6-.7.6-1.7.1-2.5s-1.4-1.2-2.3-1.1l-1.9.3c-.8.1-1.4.6-1.8 1.3-.3.7-.3 1.5.2 2.2l.8 1.2c.4.6 1.1 1 1.8 1 .9 0 1.6-.4 2-1zm-1.8-.8c-.1 0-.3 0-.4-.2l-.8-1.2c-.1-.2-.1-.4 0-.5 0-.1.1-.3.4-.3l1.9-.3c.3 0 .4.1.5.2.1.1.1.3 0 .6l-1.1 1.4c-.2.2-.4.3-.5.3z"/>
    </g>
</symbol><symbol id="icon-ruble" viewBox="0 0 500 500">
    <path fill="#3092E8" d="M370.8 109.9c4.6 8.4 8.3 17.2 11.6 26.3 58.3 30.5 98.3 91.6 98.3 161.9 0 100.7-82 182.7-182.7 182.7-70.3 0-131.3-40-161.9-98.3-9.1-3.3-17.9-7.1-26.3-11.6C139.2 446.3 212.4 500 298.1 500 409.4 500 500 409.4 500 298.1c0-85.7-53.7-158.9-129.2-188.2z"/>
    <path fill="#3092E8" d="M390.3 163.3c1.8 8.8 2.8 17.9 3.3 27.1 29.8 26.4 48.7 64.9 48.7 107.7 0 79.5-64.7 144.2-144.2 144.2-42.9 0-81.3-18.9-107.7-48.7-9.2-.5-18.3-1.5-27.1-3.3 29.5 42.9 78.9 71.2 134.8 71.2 90.1 0 163.5-73.3 163.5-163.5-.1-55.8-28.3-105.2-71.3-134.7z"/>
    <path fill="#3092E8" d="M201.9 403.8C90.6 403.8 0 313.3 0 201.9S90.6 0 201.9 0s201.9 90.6 201.9 201.9-90.5 201.9-201.9 201.9zm0-384.6c-100.7 0-182.7 82-182.7 182.7s82 182.7 182.7 182.7 182.7-82 182.7-182.7S302.7 19.2 201.9 19.2z"/>
    <path fill="#3092E8" d="M201.9 365.4c-90.1 0-163.5-73.3-163.5-163.5S111.8 38.5 201.9 38.5 365.4 111.8 365.4 202s-73.3 163.4-163.5 163.4zm0-307.7c-79.5 0-144.2 64.7-144.2 144.2s64.7 144.2 144.2 144.2 144.2-64.7 144.2-144.2S281.5 57.7 201.9 57.7z"/>
    <path fill="#3092E8" d="M264.4 143.1c-4.1-7.8-10.5-14.1-18.8-19-8.3-4.8-18.5-7.2-30.3-7.2h-59.6v85.8h-22.3V220h22.3v13.6h-22.3v17.3h22.3V286h19.5v-35.1h66v-17.3h-66V220H212c13.1 0 24.2-2.5 32.9-7.4 8.8-4.9 15.3-11.4 19.5-19.4 4.1-7.9 6.2-16.4 6.2-25.3 0-8.7-2.1-17-6.2-24.8zm-89.1-7.9h39.8c11.1 0 19.9 3.1 26.2 9.2 6.3 6.1 9.6 14 9.6 23.6 0 10.1-3.1 18.5-9.2 25s-16.1 9.8-29.8 9.8h-36.6v-67.6z"/>
</symbol><symbol id="icon-school" viewBox="0 0 100 100">
    <path fill="#73A942" d="M49.4 28.4c-5.5 0-10 4.5-10 10s4.5 10 10 10 10-4.5 10-10-4.5-10-10-10zm0 16.6a6.7 6.7 0 110-13.4 6.7 6.7 0 010 13.4z"/>
    <path fill="#73A942" d="M48.6 36.7V35c0-.9.7-1.6 1.6-1.6.9 0 1.6.7 1.6 1.6v3.3c0 .9-.7 1.6-1.6 1.6h-1.7c-.9 0-1.6-.7-1.6-1.6.1-.9.8-1.6 1.7-1.6z"/>
    <path fill="#101010" d="M61.7 51.7H38.3c-.9 0-1.6.7-1.6 1.6V60c0 .9.7 1.6 1.6 1.6h23.4c.9 0 1.6-.7 1.6-1.6v-6.7c0-.9-.7-1.6-1.6-1.6zm-1.6 6.7H39.9V55H60v3.4z"/>
    <path fill="#101010" d="M23.3 35h-10c-.9 0-1.6.7-1.6 1.6v11.7c-.9 0-1.6.7-1.6 1.6 0 .9.7 1.6 1.6 1.6H25c.9 0 1.6-.7 1.6-1.6 0-.9-.7-1.6-1.6-1.6V36.7c-.1-.9-.8-1.7-1.7-1.7zm-1.6 13.4h-6.8V38.3h6.8v10.1z"/>
    <path fill="#101010" d="M23.3 55.1h-10c-.9 0-1.6.7-1.6 1.6v11.7c-.9 0-1.6.7-1.6 1.6 0 .9.7 1.6 1.6 1.6H25c.9 0 1.6-.7 1.6-1.6 0-.9-.7-1.6-1.6-1.6V56.7c-.1-.9-.8-1.6-1.7-1.6zm-1.6 13.3h-6.8V58.3h6.8v10.1z"/>
    <path fill="#101010" d="M23.3 75.1h-10c-.9 0-1.6.7-1.6 1.6v11.7c-.9 0-1.6.7-1.6 1.6 0 .9.7 1.6 1.6 1.6H25c.9 0 1.6-.7 1.6-1.6 0-.9-.7-1.6-1.6-1.6V76.7c-.1-.9-.8-1.6-1.7-1.6zm-1.6 13.3h-6.8V78.3h6.8v10.1z"/>
    <path fill="#101010" d="M88.4 48.4V36.7c0-.9-.7-1.6-1.6-1.6h-10c-.9 0-1.6.7-1.6 1.6v11.7c-.9 0-1.6.7-1.6 1.6 0 .9.7 1.6 1.6 1.6h13.3c.9 0 1.6-.7 1.6-1.6-.1-.9-.8-1.6-1.7-1.6zm-3.3 0h-6.8V38.3h6.8v10.1z"/>
    <path fill="#101010" d="M88.4 68.4V56.7c0-.9-.7-1.6-1.6-1.6h-10c-.9 0-1.6.7-1.6 1.6v11.7c-.9 0-1.6.7-1.6 1.6 0 .9.7 1.6 1.6 1.6h13.3c.9 0 1.6-.7 1.6-1.6-.1-.9-.8-1.6-1.7-1.6zm-3.3 0h-6.8V58.3h6.8v10.1z"/>
    <path fill="#101010" d="M88.4 88.4V76.7c0-.9-.7-1.6-1.6-1.6h-10c-.9 0-1.6.7-1.6 1.6v11.7c-.9 0-1.6.7-1.6 1.6 0 .9.7 1.6 1.6 1.6h13.3c.9 0 1.6-.7 1.6-1.6-.1-.8-.8-1.6-1.7-1.6zm-3.3 0h-6.8V78.3h6.8v10.1z"/>
    <path fill="#101010" d="M98.4 96.8h-1.7V29.9h1.7c.9 0 1.6-.7 1.6-1.6 0-.9-.7-1.6-1.6-1.6H68.9L51.6 14.1v-4h.1l8.1 1.3c.4.1.8 0 1.2-.3.4-.2.6-.6.7-1V3.3c0-.8-.6-1.5-1.3-1.6L50.3 0h-.1c-.9-.2-1.7.4-1.8 1.3v12.8L31.1 26.7H1.6c-.9 0-1.6.7-1.6 1.6 0 .9.7 1.6 1.6 1.6h1.7v66.9H1.6c-.9 0-1.6.7-1.6 1.6 0 .9.7 1.6 1.6 1.6h96.8c.9 0 1.6-.7 1.6-1.6 0-.9-.7-1.6-1.6-1.6zM51.6 3.5l6.8 1.1V8l-6.8-1.1V3.5zM30 96.8H6.6V29.9H30v66.9zm18.4 0h-6.8V78.4c0-4 2.8-7.4 6.7-8.2h.1v26.6zm10 0h-6.8V70.1h.1c3.9.8 6.7 4.3 6.7 8.2v18.5zm8.3 0h-5.1V78.4c0-6.4-5.2-11.6-11.6-11.6-6.4 0-11.6 5.2-11.6 11.6v18.4h-5.1V29.1L50 16.9l16.7 12.2v67.7zm26.7 0H70V29.9h23.5v66.9z"/>
</symbol><symbol id="icon-shop" viewBox="0 0 94.3 100">
    <path fill="#73A942" d="M28.5 69.5c0-.9-.7-1.5-1.5-1.5-.9 0-1.5.7-1.5 1.5v7.2c0 .9.7 1.5 1.5 1.5.9 0 1.5-.7 1.5-1.5v-7.2z"/>
    <path fill="#73A942" d="M70.7 79.7c.3-.3.4-.8.3-1.2-.1-.4-.3-.7-.6-.9L49.2 60.4c-.3-.2-.6-.3-1-.3s-.9.2-1.2.6c-.5.7-.4 1.6.2 2.1L68.6 80c.5.5 1.5.4 2.1-.3z"/>
    <path fill="#73A942" d="M65.6 87.8c.2-.3.4-.7.3-1.1 0-.4-.2-.7-.6-1L49.9 73.1c-.3-.2-.6-.3-1-.3s-.9.2-1.2.6c-.3.3-.4.7-.3 1.1 0 .4.2.7.6 1L63.5 88c.5.5 1.5.5 2.1-.2z"/>
    <path fill="#101010" d="M94.3 41.1c0-.3 0-.6-.1-.8L84.2 17c-.1-.1-.1-.2-.1-.2l-.1-.1V1.5c0-.8-.7-1.5-1.5-1.5H11.8c-.8 0-1.5.7-1.5 1.5v15.7L.3 40.1c0 .1 0 .3-.1.4v.2c0 4.7 3.6 8.8 8.5 9.9l.4.1V96h.3v1h-.8c-.8 0-1.5.7-1.5 1.5s.7 1.5 1.5 1.5h77c.8 0 1.5-.7 1.5-1.5s-.7-1.5-1.5-1.5h-.9l.1-46.1.4-.1c5.2-.8 9-4.9 9.1-9.7zM13.3 3h67.6v12.9H13.3V3zm55.5 15.9l3.4 21.8c0 4-3.5 7.2-7.8 7.2-4.2 0-7.9-3.2-8-7.1V18.9h12.4zm-15.3 0v21.9c-.1 4-3 7.1-6.6 7.1-3.6 0-6.7-3.3-6.7-7.2V18.9h13.3zm-16.1 0v21.8c0 4-3.3 7.2-7.4 7.2h-.2c-4 0-7.3-3-7.4-6.9l3.4-22.2h11.6zM11 48c-4.1 0-7.6-3-7.9-6.9V41l9.5-22.1h10L19.3 40c0 .1 0 .2-.1.4v.3c0 4-3.6 7.2-8 7.2-.1 0-.1.1-.2.1zm20.8 49.1H12.1V51h.4c3.2-.3 6.2-1.9 7.8-4.4l.4-.5.4.5c1.9 2.8 5.2 4.5 8.8 4.5.5 0 1 0 1.4-.1l.6-.1v46.2zm50 0h-47V49.7l.2-.1c1.2-.6 2.2-1.5 3.4-2.9l.4-.5.3.5c1.9 2.7 4.8 4.4 7.9 4.4 3.1 0 6-1.6 7.8-4.4l.4-.5.4.5c2.1 2.8 5.4 4.4 8.9 4.4 3.6 0 6.9-1.6 9-4.5l.4-.5.4.5c1.7 2.3 4.3 3.9 7.3 4.4l.4.1-.2 46zm9.5-56c-.1 3.8-3.7 7-8 7-4.4 0-8.1-3.3-8.1-7.2v-.2L71.9 19h9.9l9.5 22v.1z"/>
</symbol><symbol id="icon-train" viewBox="0 0 100.1 40">
    <path fill="#101010" d="M2.9 40h94.4c1.6 0 2.9-1.3 2.9-2.9v-1c0-1.6-1.3-2.9-2.9-2.9h-6.9c.7-.8 1.1-1.8 1.2-2.9h1c2.8 0 5.4-1.5 6.7-4 1.3-2.5 1.2-5.5-.4-7.8L88.7 3.4C87.3 1.3 84.9 0 82.4 0H2.9C1.3 0 0 1.3 0 2.9v26.7c0 .5.4 1 1 1h67.8c.1 1 .5 2 1.2 2.9H2.9c-1.6 0-2.9 1.3-2.9 2.9v1C0 38.7 1.3 40 2.9 40zm83.4-6.7c-1.7 0-3.1-1.2-3.3-2.9h6.6c-.2 1.7-1.6 2.9-3.3 2.9zm-5.2-2.8c.1 1 .5 2 1.2 2.9H78c.7-.8 1.1-1.8 1.2-2.9h1.9zm13.2-15.3H81.1c-.5 0-1-.4-1-1V7.6c0-.5.4-1 1-1h7.5l5.7 8.6zM1.9 21.9h45.9v1c0 1.6 1.3 2.9 2.9 2.9h6.7c1.6 0 2.9-1.3 2.9-2.9v-1H82c.5 0 1-.4 1-1 0-.5-.4-1-1-1H60.1V7.6c0-1.6-1.3-2.9-2.9-2.9h-6.7c-1.6 0-2.9 1.3-2.9 2.9V20H1.9V2.9c0-.5.4-1 1-1h79.5c1.9 0 3.7 1 4.8 2.5l.2.3h-6.2c-1.6 0-2.9 1.3-2.9 2.9v6.7c0 1.6 1.3 2.9 2.9 2.9h14.5l1.7 2.5c.1.1.1.2.2.3H86.8c-.5 0-1 .4-1 1 0 .5.4 1 1 1h11.3c.3 1.7-.2 3.4-1.3 4.6-1.1 1.3-2.7 2-4.4 2H1.9v-6.7zm56.3 1c0 .5-.4 1-1 1h-6.7c-.5 0-1-.4-1-1V7.6c0-.5.4-1 1-1h6.7c.5 0 1 .4 1 1v15.3zm12.5 7.6h6.6c-.2 1.6-1.6 2.9-3.3 2.9s-3.1-1.3-3.3-2.9zM1.9 36.2c0-.5.4-1 1-1h94.4c.5 0 1 .4 1 1v1c0 .5-.4 1-1 1H2.9c-.5 0-1-.4-1-1v-1z"/>
    <path fill="#73A942" d="M15.5 4.8H8.9C7.3 4.8 6 6 6 7.6v6.7c0 1.6 1.3 2.9 2.9 2.9h6.7c1.6 0 2.9-1.3 2.9-2.9V7.6c-.1-1.6-1.4-2.8-3-2.8zm1 9.5c0 .5-.4 1-1 1H8.9c-.5 0-1-.4-1-1V7.6c0-.5.4-1 1-1h6.7c.5 0 1 .4 1 1v6.7z"/>
    <path fill="#73A942" d="M41.5 4.8h-6.7C33.3 4.8 32 6 32 7.6v6.7c0 1.6 1.3 2.9 2.9 2.9h6.7c1.6 0 2.9-1.3 2.9-2.9V7.6c-.1-1.6-1.4-2.8-3-2.8zm1 9.5c0 .5-.4 1-1 1h-6.7c-.5 0-1-.4-1-1V7.6c0-.5.4-1 1-1h6.7c.5 0 1 .4 1 1v6.7z"/>
    <path fill="#73A942" d="M72.5 4.8h-6.7C64.3 4.8 63 6 63 7.6v6.7c0 1.6 1.3 2.9 2.9 2.9h6.7c1.6 0 2.9-1.3 2.9-2.9V7.6c-.1-1.6-1.4-2.8-3-2.8zm1 9.5c0 .5-.4 1-1 1h-6.7c-.5 0-1-.4-1-1V7.6c0-.5.4-1 1-1h6.7c.5 0 1 .4 1 1v6.7z"/>
    <path fill="#101010" d="M55.4 8.6h-2.9c-.5 0-1 .4-1 1s.4 1 1 1h2.9c.5 0 1-.4 1-1s-.5-1-1-1z"/>
    <path fill="#101010" d="M55.4 12.4h-2.9c-.5 0-1 .4-1 1s.4 1 1 1h2.9c.5 0 1-.4 1-1s-.5-1-1-1z"/>
</symbol><symbol id="icon-user" viewBox="0 0 86 86">
    <circle fill="#E4E6EE" cx="43" cy="43" r="43"/>
    <path fill="#F3F4F8" d="M63.7 66.4v2.7H22.3v-2.7c0-2.7 1.7-5.1 4.2-6.1l8.8-3.3c1.4-.5 2.3-1.9 2.3-3.4v-1.8c0-1-.4-2-1.2-2.7-2.2-1.9-3.5-4.7-3.3-7.6v-.3h-.9c-1.5 0-2.7-1.2-2.7-2.7v-2.7c0-1.5 1.2-2.7 2.7-2.7-1.7-2.4-2.6-5.2-2.7-8.1 0-4.4 0-5.3 1.8-8.1.6 1.2 1.7 2.1 3 2.6.8.3 1.6.3 2.4.1 3.6-.9 4.5-1.8 9.9-1.8 4.5 0 7.2 1.8 7.2 5.4 2.6 2.8 2.6 7.1 0 9.9 1.5 0 2.7 1.2 2.7 2.7v2.7c0 1.5-1.2 2.7-2.7 2.7h-.9v.3c.1 2.9-1.1 5.7-3.3 7.6-.8.7-1.2 1.7-1.2 2.7v1.8c0 1.5.9 2.8 2.3 3.4l8.8 3.3c2.5 1 4.2 3.4 4.2 6.1z"/>
    <path fill="#D0D2DA" d="M59.5 60.3L50.7 57c-1.4-.5-2.3-1.9-2.3-3.4v-1.8c0-1 .4-2 1.2-2.7 2.2-1.9 3.5-4.7 3.3-7.6v-.3h.9c1.5 0 2.7-1.2 2.7-2.7v-2.7c0-1.5-1.2-2.7-2.7-2.7 2.6-2.8 2.6-7.1 0-9.9 0-3.6-2.7-5.4-7.2-5.4h-1.7c3.9.3 6.2 2 6.2 5.4 2.6 2.8 2.6 7.1 0 9.9 1.5 0 2.7 1.2 2.7 2.7v2.7c0 1.5-1.2 2.7-2.7 2.7h-.9v.3c.1 2.9-1.1 5.7-3.3 7.6-.8.7-1.2 1.7-1.2 2.7v1.8c0 1.5.9 2.8 2.3 3.4l8.8 3.3c2.5 1 4.2 3.4 4.2 6.1v2.7h2.7v-2.7c0-2.7-1.7-5.1-4.2-6.1z"/>
    <path fill="#FFF" d="M25 66.4c0-2.7 1.7-5.1 4.2-6.1L38 57c1.4-.5 2.3-1.9 2.3-3.4v-1.8c0-1-.4-2-1.2-2.7-2.2-1.9-3.5-4.7-3.3-7.6v-.3h-.9c-1.5 0-2.7-1.2-2.7-2.7v-2.7c0-1.5 1.2-2.7 2.7-2.7-1.7-2.4-2.6-5.2-2.7-8.1 0-3.2 0-4.6.7-6.2-.7-.5-1.2-1.2-1.6-1.9-1.8 2.8-1.8 3.7-1.8 8.1.1 2.9 1 5.7 2.7 8.1-1.5 0-2.7 1.2-2.7 2.7v2.7c0 1.5 1.2 2.7 2.7 2.7h.9v.3c-.1 2.9 1.1 5.7 3.3 7.6.8.7 1.2 1.7 1.2 2.7v1.8c0 1.5-.9 2.8-2.3 3.4l-8.8 3.3c-2.5 1-4.2 3.4-4.2 6.1v2.7H25v-2.7z"/>
    <g>
        <path fill="#FFF" d="M30.4 23.7h-1.8c0-3.4.1-4.5 2-7.3l1.5 1c-1.6 2.3-1.7 3.1-1.7 6.3z"/>
        <g fill="#7F8188">
            <path d="M29.8 21c-.5 0-.9-.4-.9-.9s.4-.9.9-.9.9.4.9.9-.4.9-.9.9z"/>
            <path d="M64.6 69.1v-2.7c0-3.1-1.9-5.8-4.8-6.9L51 56.2c-1-.4-1.7-1.4-1.7-2.5v-1.8c0-.8.3-1.5.9-2 2.3-1.9 3.6-4.7 3.6-7.7 1 0 1.9-.4 2.6-1 .7-.7 1.1-1.6 1.1-2.6v-2.7c0-1.3-.7-2.6-1.9-3.2 0 0-.1 0-.1-.1 2-3 1.7-7-.6-9.7-.2-3.8-3.1-6-8.1-6-5.5 0-6.5.9-10.1 1.8-2.8.7-4.3-2.1-4.4-2.2-.2-.4-.8-.6-1.2-.4s-.6.8-.4 1.2c.7 1.5 3 4 6.4 3.2 3.7-.9 4.4-1.8 9.7-1.8 2.9 0 6.3.8 6.3 4.5 0 .2.1.5.3.6.2.2 3.9 4 0 8.7-.2.3-.3.6-.1 1 .1.3.5.5.8.5 1 0 1.8.8 1.8 1.8v2.7c0 1-.8 1.8-1.8 1.8h-.9c-.3 0-.5.1-.7.3-.4.2-.5.4-.5.7v.3c.1 2.6-1 5.2-3 6.9-1 .8-1.5 2.1-1.5 3.4v1.8c0 1.9 1.2 3.5 2.9 4.2l8.8 3.3c2.2.8 3.6 2.9 3.6 5.3v1.8H23.2v-1.8c0-2.3 1.4-4.4 3.6-5.3l8.8-3.3c1.7-.7 2.9-2.3 2.9-4.2v-1.8c0-1.3-.5-2.5-1.5-3.4-2-1.7-3.1-4.2-3-6.9.1-.3 0-.7-.2-1-.3-.3-.6-.3-1.6-.3s-1.8-.8-1.8-1.8v-2.7c0-1 .8-1.8 1.8-1.8.3 0 .7-.2.8-.5.1-.3.1-.7-.1-.9-1.5-2.2-2.4-4.9-2.5-7.6v-1.3c0-.5-.4-.9-.9-.9-.2 0-.5.1-.6.3s-.3.4-.3.6V25c.1 2.6.8 5.2 2.1 7.5-1.3.6-2.2 1.9-2.2 3.3v2.7c0 1 .4 1.9 1.1 2.6.7.7 1.6 1.1 2.6 1 0 3 1.3 5.8 3.6 7.7.6.5.9 1.2.9 2v1.8c0 1.1-.7 2.1-1.7 2.5l-8.8 3.3c-2.9 1.1-4.8 3.9-4.8 7v2.7c0 .5.4.9.9.9h41.4c.5 0 .9-.4.9-.9z"/>
        </g>
    </g>
</symbol><symbol id="icon-video" viewBox="0 0 97 100">
    <path fill="#101010" d="M96.8 33.1c-.2-.3-.4-.5-.7-.7l-.2-.1L12.8.1c-.4-.1-.8-.1-1.2 0-.4.2-.6.5-.8.9L1.2 27.3c-.3.8.1 1.7.9 2l10.7 3.9-2.4 6.7c-.3.8.1 1.7.9 2l20.8 7.6-1.7 4.6c-1.3 3.4-.1 7.1 2.8 9.2l.3.2v12H19.7l-.2-.5c-1.3-3-4-5.2-7.3-5.9l-.5-.1v-5c0-.8-.7-1.5-1.5-1.5H1.5c-.8 0-1.5.7-1.5 1.5v34.5c0 .8.7 1.5 1.5 1.5h8.7c.8 0 1.5-.7 1.5-1.5v-5l.5-.1c3.2-.7 5.9-2.9 7.3-5.9l.2-.4h13.8v2.8c0 3.2 2.6 5.8 5.8 5.8 3.2 0 5.8-2.6 5.8-5.8V65.6l.4-.2c1.8-.9 3.2-2.5 3.9-4.4l1.7-4.7 14.8 7c.1 0 .3.1.5.1.6 0 1.2-.4 1.4-1l1-2.7.5.1c3.2.6 6.5-.1 9.2-1.9 2.7-1.9 4.5-4.6 5.1-7.9.5-2.5.2-5-.9-7.3l-.2-.5 13.6-7c.8-.4 1.1-1.3.7-2.1zM8.7 97H3V65.5h5.6V97zm8.6-13.6c0 3-1.9 5.7-4.7 6.7l-.8.3V72.1l.8.3c2.8 1 4.7 3.7 4.7 6.7v4.3zm24.8 6.5c0 1.5-1.3 2.8-2.8 2.8-1.5 0-2.8-1.2-2.8-2.8v-2.8h5.6v2.8zm0-5.9H20.4v-5.6h21.7V84zm0-8.6h-5.6V64.8l2.6 1c.8.3 1.5.4 2.3.5h.6v9.1zM46.5 60c-.7 2-2.6 3.2-4.6 3.2-.6 0-1.1-.1-1.7-.3l-4.1-1.5c-2.6-.9-3.9-3.8-2.9-6.3l1.7-4.6 13.3 4.9-1.7 4.6zm18.9 0L13.7 39.4l1.9-5.2 33 12.1c.5.2 1.1.1 1.6-.3l6.4-6 13.8 6.7-5 13.3zm14.8-9.1c-1.4 3.7-4.9 6.1-8.7 6.1h-.9l-.8-.1 3.7-10.1 6.3-3.2.3.6c.9 2.1.9 4.5.1 6.7zm-7.8-7h-.2l-.2.1-15.4-7.2c-.5-.2-1.1-.1-1.5.3l-6.3 6L4.5 26.9l8.6-23.4 78.5 30.6-19.2 9.8z"/>
    <path fill="#73A942" d="M23.656 28.167l1.137-3.098 3.098 1.138-1.138 3.097z"/>
    <path fill="#73A942" d="M31.777 31.138l1.136-3.098 3.098 1.136-1.136 3.098z"/>
    <path fill="#73A942" d="M39.8 34.074l1.138-3.097 3.098 1.138-1.138 3.097z"/>
</symbol><symbol id="icon-water" viewBox="0 0 76.2 100">
    <path d="M71.5 45.6L39.4.7c-.3-.4-.8-.7-1.3-.7s-1 .3-1.3.7L4.7 45.6l-.1.1c-6.2 10.7-6.1 23.8.3 34.9 6.9 12 19.6 19.4 33.2 19.4 13.6 0 26.3-7.4 33.2-19.4 6.4-11.1 6.5-24.1.3-34.9 0 0-.1 0-.1-.1zM68.4 79C62.1 89.9 50.5 96.7 38 96.7c-12.3 0-24-6.8-30.3-17.7-5.9-10.2-6-21.6-.4-31.4l.1-.2L38.1 4.5l.1.1 30.7 43c5.5 9.8 5.4 21.2-.5 31.4z"/>
    <path fill="#73A942" d="M57.3 60.5c-.9 0-1.6.7-1.6 1.6 0 9.9-8 17.9-17.9 17.9-.9 0-1.6.7-1.6 1.6 0 .9.7 1.6 1.6 1.6 11.6 0 21-9.4 21-21 0-.4-.2-.8-.5-1.1-.2-.4-.6-.6-1-.6z"/>
</symbol><symbol id="icon-youtube" viewBox="0 0 512 358.5">
    <path fill="red" d="M501.5 56.1c-5.9-21.9-23.2-39.2-45.1-45.1C416.3 0 256 0 256 0S95.7 0 55.7 10.5C34.2 16.4 16.5 34.1 10.6 56 0 96.2 0 179.2 0 179.2s0 83.5 10.5 123.1c5.9 21.9 23.2 39.2 45.1 45.1 40.5 11 200.3 11 200.3 11s160.3 0 200.3-10.5c21.9-5.9 39.2-23.2 45.1-45.1C512 262.7 512 179.7 512 179.7s.4-83.5-10.5-123.6z"/>
    <path fill="#FFF" d="M205 256l133.3-76.8L205 102.5V256z"/>
</symbol></svg>