<?xml version="1.0" encoding="utf-8"?>
<!-- Generator: Adobe Illustrator 24.0.1, SVG Export Plug-In . SVG Version: 6.00 Build 0)  -->
<svg version="1.1" id="Layer_1" xmlns="http://www.w3.org/2000/svg" xmlns:xlink="http://www.w3.org/1999/xlink" x="0px" y="0px"
	 viewBox="0 0 320.2 50.1" style="enable-background:new 0 0 320.2 50.1;" xml:space="preserve">
<style type="text/css">
	.st0{fill:#80A473;}
	.st1{fill:#EDA85D;}
</style>
<g>
	<path class="st0" d="M0.5,16.8c0-1.9-0.1-4.4-0.3-7.4C0.2,8.5,0.1,7.4,0,6.1h30.7c-0.2,2.2-0.4,4.5-0.5,6.9c0,1.3-0.1,2.6-0.1,3.9
		v11.7c0,2.2,0.1,4.6,0.2,7.3l0.2,3.4h-7.3l0.1-1.1c0.1-2.2,0.3-4.4,0.4-6.8c0-1.4,0.1-2.9,0.1-4.3V9.6c-0.3-0.1-1.1-0.3-2.4-0.5
		c-1.3-0.2-3.2-0.3-5.7-0.3h-0.7c-2.1,0-3.9,0.1-5.5,0.3C8.8,9.2,8.2,9.3,7.8,9.4C7.3,9.5,7.1,9.6,6.9,9.6v18.9
		c0,2.8,0.1,5.2,0.3,7.3c0.1,1.5,0.2,2.6,0.3,3.4H0.1c0.2-2.9,0.3-5.1,0.3-6.8c0-1.3,0.1-2.6,0.1-3.9V16.8z"/>
	<path class="st0" d="M111.6,38.7l-0.6,0.2c-0.9,0.4-2.4,0.7-4.4,1c-1.1,0.1-2.3,0.2-3.7,0.2c-2.6,0-5.1-0.4-7.3-1.2
		c-2.2-0.8-4.2-2-5.8-3.5c-1.6-1.5-2.9-3.4-3.8-5.5c-0.9-2.1-1.3-4.5-1.3-7.1c0-3.9,0.9-7.2,2.6-9.9c1.6-2.5,3.8-4.4,6.8-5.7
		c2.7-1.2,5.7-1.8,9.1-1.8c2.2,0,4.2,0.2,6,0.7c0.8,0.2,1.5,0.4,2.2,0.6l-0.7,3.6c-0.5-0.4-1.1-0.8-1.8-1.1
		c-0.7-0.3-1.4-0.6-2.3-0.8c-0.9-0.2-1.8-0.4-2.8-0.4c-1.5,0-3,0.3-4.5,0.9c-1.5,0.6-2.7,1.5-3.8,2.6c-1.2,1.3-2.1,2.8-2.8,4.7
		c-0.7,1.9-1,4-1,6.5c0,2,0.2,3.9,0.7,5.7c0.5,1.8,1.2,3.3,2.2,4.6c1,1.4,2.2,2.5,3.7,3.2c1.5,0.8,3.1,1.1,4.9,1.1
		c1.8,0,3.6-0.4,5.5-1.1c0.7-0.3,1.2-0.5,1.6-0.8l0.6-0.4L111.6,38.7z"/>
	<path class="st0" d="M118,32.5c0-1.3,0.1-2.6,0.1-3.9V16.8c0-1.9-0.1-4.4-0.3-7.4c-0.1-0.9-0.2-2.1-0.3-3.4h17.2v3.6
		C133,9.4,131,9.2,128.9,9c-1-0.1-2.5-0.2-4.4-0.2v11.3c2.8-0.1,4.9-0.2,6.5-0.3l2-0.2v3.6c-1.5-0.1-3-0.2-4.6-0.3l-1.3,0l-2.6-0.1
		v5.7c0,2.8,0.1,5.5,0.2,8c2.6-0.1,5.2-0.3,7.7-0.5c1-0.1,1.8-0.2,2.5-0.4v3.6h-17.3C117.8,36.4,117.9,34.2,118,32.5z"/>
	<path class="st0" d="M141,36.2c0.6-0.4,1.1-1.1,1.7-2c1.2-2,2.1-4.9,2.7-8.7c0.8-4.5,1.1-10.1,1.1-16.7l-2.3,0.1
		c-0.4,0-0.7,0-0.8,0V6.1h25.3l-0.1,1.1c-0.1,1.6-0.2,3.9-0.3,6.9c0,1.5-0.1,2.9-0.1,4.3v10.1c0,2.8,0.1,5.3,0.3,7.4
		c0.1,1.5,0.2,2.6,0.3,3.4h-6.9V16.8c0-2.7-0.1-5.4-0.2-7.9c-1.9-0.1-3.8-0.2-5.8-0.2h-3.1c-0.7,0-1.7,0-2.9,0c0,4.7-0.2,9-0.7,12.9
		c-0.4,3.9-1.1,7.2-2,10c-0.8,2.7-1.8,4.8-3,6.3c-1.2,1.5-2.5,2.2-3.9,2.2c-0.9,0-1.8-0.2-2.6-0.5c-0.2-0.1-0.5-0.2-0.7-0.4
		l-0.3-0.2l0.8-2.7c0,0,0.1,0,0.2,0.1c0.3,0.2,0.7,0.3,1.1,0.4c0.2,0,0.4,0,0.6,0C139.9,36.8,140.4,36.6,141,36.2z"/>
	<path class="st0" d="M177,16.8c0-1.9-0.1-4.4-0.3-7.4c-0.1-0.9-0.2-2.1-0.3-3.4h6.9v22.5c0,2.8,0.1,5.2,0.3,7.3
		c0.1,1.5,0.2,2.6,0.3,3.4h-7.3c0.2-2.9,0.3-5.1,0.3-6.8c0-1.3,0.1-2.6,0.1-3.9V16.8z M205.3,39.1l-0.2,0.1
		c-0.1,0.1-0.3,0.1-0.5,0.1c-0.3,0.1-0.8,0.1-1.3,0.1c-1,0-2-0.1-3.2-0.4c-1.3-0.5-2.6-1.5-3.8-2.8c-1.1-1.2-2.2-2.7-3.2-4.5
		c-0.8-1.5-1.9-3.3-3.2-5.3c-0.8-1.7-1.7-2.8-2.7-3.5c-0.4-0.2-0.7-0.4-1-0.4l-0.5-0.1l-0.7-2.5l4.6-6.1c0.7-1,1.8-2.5,3.2-4.7
		l1.2-2c0.3-0.5,0.5-0.9,0.6-1.1l5.9,0c-0.9,0.9-1.9,2-3.1,3.4c-0.6,0.7-1.4,1.7-2.3,2.9l-6.2,8.3c2.4,0,4.5,1,6.5,3.1
		c1.5,1.6,2.9,3.8,4.2,6.5c1.4,3.1,2.8,5.4,4.2,6.9c0.6,0.7,1.2,1.1,1.7,1.3L205.3,39.1z"/>
	<path class="st0" d="M239.2,35.9l0.2,3.4H232c0.2-2.1,0.3-4.4,0.5-6.8c0-1.3,0.1-2.6,0.1-3.9V12c-1.3,2.2-3.2,5.3-5.8,9.5
		c-0.9,1.5-2.2,3.5-3.8,6.1c-0.2,0.4-0.8,1.3-1.7,2.8l-1.4,2.2L219,34l-1.8,2.8l-0.7,1.1l-0.4,0.7c-0.2,0.4-0.3,0.6-0.3,0.6h-6.9
		c0.2-2.1,0.3-4.4,0.5-6.9c0-1.3,0.1-2.6,0.1-3.9V16.8c0-1.8-0.1-4.3-0.2-7.3L209,6.1h7.3c-0.2,2.1-0.4,4.4-0.5,6.8
		c0,1.3-0.1,2.6-0.1,3.9v16.6l0.7-1.1c0.2-0.3,0.4-0.7,0.7-1l1.7-2.6c0.1-0.1,0.2-0.2,0.3-0.4c0.1-0.2,0.2-0.3,0.3-0.6
		c2.2-3.5,3.4-5.3,3.6-5.5c3-5.1,5.3-8.9,6.9-11.5l2.7-4.5h6.9c-0.2,2.2-0.4,4.5-0.5,6.9c0,1.3-0.1,2.6-0.1,3.9v11.7
		C239,30.8,239,33.2,239.2,35.9z"/>
	<path class="st0" d="M277.3,28.5c0,2.8,0.1,5.3,0.3,7.4c0.1,1.5,0.2,2.6,0.3,3.4h-7c0-1.7,0-3,0-3.8c0-0.8,0-1.8,0-3.2v-1.4v-1.1
		v-6.5c-0.8,0-1.9-0.1-3.3-0.1l-1.4,0c-1.6,0-2.9,0-3.8,0c-1.5,0-3.2,0-5.2,0c-1.2,0-2.2,0-3.1,0.1v5.3c0,2.8,0.1,5.2,0.3,7.3
		c0.1,1.5,0.2,2.6,0.3,3.4h-7.3c0.2-2.9,0.3-5.1,0.3-6.8c0-1.3,0.1-2.6,0.1-3.9V16.8c0-1.9-0.1-4.4-0.3-7.4
		c-0.1-0.9-0.2-2.1-0.3-3.4h7l0,3.8v1.6c0,0.4,0,0.9,0,1.6v1.4v1.2v4.6c1.4,0.1,2.4,0.1,3.1,0.1c2,0,3.7,0,5.3,0c1.3,0,3,0,5.1,0
		c1.4,0,2.5,0,3.3-0.1v-3.6c0-1.9-0.1-4.4-0.3-7.3c0-0.9-0.1-2-0.3-3.4h7.3c-0.1,1.9-0.3,4.2-0.3,6.8c0,1.3-0.1,2.6-0.1,3.9V28.5z"
		/>
	<path class="st0" d="M292.1,37.9c-2.8-1.4-5-3.4-6.6-6c-1.7-2.7-2.5-5.7-2.5-9.2c0-3.9,0.9-7.2,2.7-9.9c1.6-2.5,3.9-4.4,6.8-5.7
		c2.7-1.2,5.7-1.8,9-1.8c2.7,0,5.2,0.4,7.5,1.2c2.3,0.8,4.3,2,5.9,3.5c1.7,1.5,3,3.4,3.9,5.5c0.9,2.1,1.4,4.5,1.4,7.1
		c0,3.9-0.9,7.2-2.7,9.9c-1.7,2.5-3.9,4.4-6.8,5.7c-2.7,1.2-5.7,1.9-9,1.9C298.1,40.1,294.9,39.4,292.1,37.9z M290.7,28.3
		c0.5,1.8,1.3,3.3,2.2,4.7c1,1.4,2.2,2.5,3.6,3.2c1.4,0.8,3,1.1,4.7,1.1c1,0,1.9-0.1,2.9-0.4c1-0.3,1.9-0.6,2.7-1.2
		c1.9-1.1,3.4-2.7,4.6-4.8c1.3-2.3,1.9-5.1,1.9-8.4c0-2-0.3-3.9-0.8-5.7s-1.3-3.3-2.2-4.7c-1-1.4-2.2-2.4-3.6-3.2
		c-1.4-0.8-3-1.1-4.7-1.1c-1.4,0-2.9,0.3-4.3,0.9c-1.4,0.6-2.7,1.5-3.8,2.6c-1.2,1.3-2.2,2.8-2.9,4.7c-0.7,1.9-1,4-1,6.5
		C289.9,24.7,290.2,26.6,290.7,28.3z"/>
</g>
<g>
	<path class="st1" d="M78.6,50.1l3.9-3.9c0,0-2.9-2.5-5-4.7c-0.9-0.9-1.9-2-2.8-3c3.8-4.1,6.2-9.6,6.2-15.7C80.9,10.3,70.6,0,57.9,0
		S35,10.3,35,22.9s10.3,22.9,22.9,22.9c4.7,0,9-1.4,12.7-3.8c1.2,1.1,2.5,2.4,3.3,3.1C75.1,46.5,78.6,50.1,78.6,50.1z M64.6,29.8
		l4.5-4.5l4.9,4.9c-0.8,2-1.9,3.9-3.3,5.6L64.6,29.8z M57.9,4.1c9.6,0,17.4,9.2,17.4,18.8c0,1.4-0.2,2.9-0.5,4.3l-4.2-4.2
		c-0.9-0.9-2.4-0.9-3.3,0l-4.8,4.8l-9.2-9.2c-0.4-0.4-1-0.7-1.6-0.7c-0.6,0-1.2,0.2-1.6,0.7l-9,9c-0.4-1.5-0.6-3.1-0.6-4.6
		C40.5,13.3,48.3,4.1,57.9,4.1z M42.1,30.5l9.6-9.6l17,17c-3,2.8-6.7,4.5-10.8,4.5C50.9,42.4,44.8,37.1,42.1,30.5z"/>
	<path class="st1" d="M54.2,29.9h-1.5c-0.3,0-0.6,0.3-0.6,0.6v1.5c0,0.3,0.3,0.6,0.6,0.6h1.5c0.3,0,0.6-0.3,0.6-0.6v-1.5
		C54.8,30.2,54.5,29.9,54.2,29.9z"/>
	<path class="st1" d="M54.2,33.1h-1.5c-0.3,0-0.6,0.3-0.6,0.6v1.5c0,0.3,0.3,0.6,0.6,0.6h1.5c0.3,0,0.6-0.3,0.6-0.6v-1.5
		C54.8,33.4,54.5,33.1,54.2,33.1z"/>
	<path class="st1" d="M50.9,29.9h-1.5c-0.3,0-0.6,0.3-0.6,0.6v1.5c0,0.3,0.3,0.6,0.6,0.6h1.5c0.3,0,0.6-0.3,0.6-0.6v-1.5
		C51.4,30.2,51.2,29.9,50.9,29.9z"/>
	<path class="st1" d="M50.9,33.1h-1.5c-0.3,0-0.6,0.3-0.6,0.6v1.5c0,0.3,0.3,0.6,0.6,0.6h1.5c0.3,0,0.6-0.3,0.6-0.6v-1.5
		C51.4,33.4,51.2,33.1,50.9,33.1z"/>
</g>
</svg>
