<svg viewBox="0 0 25 25" fill="none" xmlns="http://www.w3.org/2000/svg">
<path d="M14.4778 15.4872C14.1102 15.4872 13.7165 15.5398 13.4013 15.6185L13.0337 13.5969C12.8237 12.3891 11.7736 11.5229 10.5396 11.5229H4.65873C3.42478 11.5229 2.37467 12.3893 2.16463 13.5969L1.79709 15.6185C1.48209 15.566 1.08818 15.4872 0.720622 15.4872C0.510566 15.4872 0.326885 15.5398 0.195586 15.6711C0.116838 15.7499 0.0117188 15.9073 0.0117188 16.1436C0.0117188 16.5373 0.326712 17.1675 0.720626 17.1675H0.930682C0.589323 17.5089 0.405648 17.9813 0.405648 18.4802V24.1248C0.405648 24.5973 0.799384 24.9651 1.24587 24.9651H2.19102C2.6635 24.9651 3.03125 24.5713 3.03125 24.1248V22.8647C4.55398 23.0222 6.07677 23.1009 7.59951 23.1009C9.12224 23.1009 10.645 23.0222 12.1678 22.8647V24.1248C12.1678 24.5973 12.5615 24.9651 13.008 24.9651H13.9531C14.4256 24.9651 14.7934 24.5713 14.7934 24.1248L14.7928 18.4802C14.7928 17.9813 14.5828 17.5088 14.2678 17.1675H14.4778C14.8454 17.1675 15.1867 16.5373 15.1867 16.1436C15.1867 15.7498 14.8979 15.4872 14.4778 15.4872L14.4778 15.4872ZM5.26256 20.2655C5.26256 20.4493 5.10507 20.6068 4.9212 20.633H4.18609C3.68721 20.633 3.10962 20.6068 2.61075 20.5017C2.47944 20.4755 2.3745 20.3704 2.34813 20.2655C2.21682 19.8717 2.26938 19.2941 2.34813 18.9002C2.37432 18.7953 2.42688 18.6902 2.532 18.6376C2.63694 18.585 2.74206 18.585 2.84699 18.6376L5.05229 19.7141C5.1836 19.7666 5.26235 19.8979 5.26235 20.0291L5.26256 20.2655ZM3.42464 16.7737L3.94967 13.9382C4.00223 13.5969 4.31722 13.3607 4.65858 13.3607H10.5132C10.8546 13.3607 11.1434 13.5969 11.2221 13.9382L11.7472 16.7737C9.01685 17.4037 6.18132 17.4037 3.42464 16.7737ZM12.8499 20.2655C12.7973 20.3968 12.7185 20.4755 12.5872 20.5017C12.0884 20.6067 11.5108 20.633 11.0119 20.633C10.7231 20.633 10.4605 20.633 10.2768 20.6068C10.0929 20.6068 9.93543 20.4493 9.93543 20.2393V20.0292C9.93543 19.8979 10.0142 19.7666 10.1455 19.7142L12.3508 18.6378C12.4557 18.5852 12.5608 18.5852 12.6658 18.6378C12.7707 18.6903 12.8233 18.7953 12.8496 18.9004C12.9286 19.294 12.981 19.8716 12.8498 20.2655L12.8499 20.2655Z" fill="#8A6EAC"/>
<path d="M22.0396 14.332H20.9369L9.91021 0.207268C9.75271 -0.00278852 9.43773 -0.0553483 9.22765 0.128519L7.33716 1.59889C7.23223 1.67764 7.17967 1.78276 7.1533 1.91388C7.12711 2.04519 7.17948 2.1765 7.25823 2.28143L18.6 16.7999V24.4924C18.6 24.755 18.8101 24.9913 19.0989 24.9913H22.0395C22.3021 24.9913 22.5384 24.7812 22.5384 24.4924L22.5382 14.8309C22.5382 14.5421 22.3283 14.332 22.0395 14.332L22.0396 14.332ZM11.958 4.40792L12.6406 5.27431L11.8268 6.50825L11.1442 5.64187L11.958 4.40792ZM10.5142 4.85422L9.83163 3.98783L10.6455 2.75389L11.328 3.62028L10.5142 4.85422ZM13.2707 6.11456L13.9533 6.98094L13.1395 8.21489L12.4569 7.3485L13.2707 6.11456ZM14.5834 7.79482L15.266 8.66121L14.4522 9.89515L13.7696 9.02876L14.5834 7.79482ZM15.9225 9.47508L16.605 10.3415L15.7912 11.5754L15.1087 10.709L15.9225 9.47508ZM17.2352 11.1553L17.9178 12.0217L17.0777 13.2819L16.3952 12.4155L17.2352 11.1553ZM18.5479 12.8356L19.2305 13.702L18.4166 14.9359L17.7341 14.0696L18.5479 12.8356ZM9.43773 1.20504L10.0153 1.94016L9.20149 3.1741L8.3351 2.07143L9.43773 1.20504Z" fill="#8A6EAC"/>
</svg>
