<svg viewBox="0 0 25 25" fill="none" xmlns="http://www.w3.org/2000/svg">
<path d="M16.2089 23.3596C16.003 23.0851 15.6943 22.8792 15.4197 22.6389C15.0765 22.3301 14.699 22.0556 14.3561 21.7124C14.4248 21.6437 14.4932 21.6095 14.5619 21.5752C15.4198 21.0262 15.9343 20.237 15.9343 19.2075C15.9686 14.335 15.9343 9.49673 15.9343 4.62418C15.9343 4.41834 15.9343 4.21249 15.8657 4.04088C15.5569 2.66846 14.4245 1.77611 13.0518 1.74186H11.8165C11.9881 1.19279 11.8852 0.712389 11.5077 0.369436C11.096 -0.00802758 10.5812 -0.110945 10.0666 0.129123C9.38035 0.437891 9.20872 1.02122 9.38035 1.77612H7.25296H7.08134C7.04712 1.43289 7.04712 1.1241 6.97842 0.849589C6.90973 0.506353 6.63519 0.300514 6.3609 0.163376C5.84629 -0.0769369 5.33142 0.0262248 4.91972 0.403688C4.50801 0.781151 4.43934 1.26153 4.61095 1.81061H3.4786C3.27275 1.81061 3.10113 1.84484 2.89529 1.84484C1.52287 2.05069 0.493395 3.25176 0.493395 4.65869V19.242C0.493395 19.9627 0.767935 20.6144 1.28255 21.1293C1.52286 21.3697 1.79716 21.541 2.03745 21.7814C1.79714 21.9872 1.52284 22.1931 1.28255 22.4334C0.939314 22.7421 0.527648 23.0509 0.218885 23.3942C0.0130397 23.6 -0.055655 23.8745 0.0472678 24.1833C0.150191 24.5608 0.390503 24.7666 0.699289 24.9382H1.28259C1.62583 24.6979 1.96881 24.4578 2.27757 24.2175C2.86087 23.7371 3.44417 23.2567 4.02751 22.7763C4.23335 22.6047 4.4392 22.3646 4.67953 22.193C4.74822 22.1243 4.88537 22.0901 4.9883 22.0901H11.5422C11.6451 22.0901 11.7481 22.1588 11.851 22.193C12.4001 22.6392 12.9147 23.1196 13.4637 23.5655C13.8754 23.9429 14.3216 24.2862 14.7677 24.6636C14.9049 24.7665 15.0765 24.8695 15.2481 24.9724H15.7972C15.8314 24.9724 15.8659 24.9382 15.9001 24.9382C16.3805 24.6294 16.5863 23.8402 16.2089 23.3596L16.2089 23.3596ZM5.64026 3.01158C5.81188 2.87443 6.01773 2.80573 6.22357 2.77127C6.87559 2.73704 7.52755 2.77127 8.17957 2.77127H10.1356C10.4788 2.77127 10.8905 3.04581 10.9934 3.42329C11.0963 3.83498 10.9247 4.28113 10.5817 4.45276C10.4101 4.55569 10.2043 4.58991 9.99843 4.58991H6.25829C5.88083 4.58991 5.46914 4.31537 5.3662 3.97239C5.26279 3.69785 5.29726 3.32037 5.64026 3.0116L5.64026 3.01158ZM2.41496 6.71746C2.41496 6.27131 2.58658 5.89387 3.03248 5.72249C3.13541 5.68826 3.23833 5.65379 3.34125 5.65379H8.17955H12.9833C13.395 5.65379 13.8754 6.03126 13.9099 6.44295C13.9099 6.82041 13.9441 7.16366 13.9441 7.54111V10.2863C13.9441 10.7324 13.7725 11.0754 13.3608 11.2812C13.2237 11.3499 13.052 11.3842 12.9147 11.3842H3.47838C2.89507 11.3842 2.4489 11.0067 2.41471 10.3547C2.41495 9.15359 2.41495 7.9183 2.41495 6.7175L2.41496 6.71746ZM3.85613 20.1684C3.06698 20.2371 2.31208 19.4477 2.31208 18.6586C2.31208 17.9037 3.03279 17.08 3.92482 17.1487C4.74841 17.2174 5.366 17.8349 5.366 18.6586C5.40023 19.4477 4.74823 20.1684 3.85613 20.1684V20.1684ZM10.4787 14.2322C10.3071 14.2665 10.1012 14.2665 9.92961 14.2665H6.32661C5.94914 14.2665 5.5717 14.1978 5.46876 14.1293C5.36584 14.0606 5.43454 13.9577 5.70908 13.889C5.88069 13.8548 6.08654 13.8203 6.29238 13.8203H8.1797H10.067C10.4102 13.8203 10.8219 13.889 10.9249 13.9919C10.9935 14.0606 10.8219 14.1635 10.4787 14.2322H10.4787ZM10.4787 13.546C10.3071 13.5802 10.1012 13.5802 9.92961 13.5802H6.32661C5.94914 13.5802 5.5717 13.5115 5.46876 13.4431C5.36584 13.3744 5.43454 13.2715 5.70908 13.2028C5.88069 13.1686 6.08654 13.1341 6.29238 13.1341H8.1797H10.067C10.4102 13.1341 10.8219 13.2028 10.9249 13.3057C10.9935 13.3744 10.8219 13.4773 10.4787 13.546H10.4787ZM10.4787 12.8596C10.3071 12.8938 10.1012 12.8938 9.92961 12.8938H6.32661C5.94914 12.8938 5.5717 12.8251 5.46876 12.7566C5.36584 12.6879 5.43454 12.585 5.70908 12.5163C5.88069 12.4821 6.08654 12.4476 6.29238 12.4476H8.1797H10.067C10.4102 12.4476 10.8219 12.5163 10.9249 12.6192C10.9935 12.6882 10.8219 12.7911 10.4787 12.8596H10.4787ZM12.5031 20.1684C11.611 20.2026 10.9591 19.4822 10.9591 18.6585C10.9591 17.8694 11.6111 17.08 12.5718 17.1145C13.258 17.1487 14.0472 17.8352 14.013 18.6585C14.0475 19.4134 13.3268 20.2371 12.5031 20.1684V20.1684Z" fill="#889D9A"/>
</svg>
