<svg version="1.1" id="Слой_1" xmlns="http://www.w3.org/2000/svg" xmlns:xlink="http://www.w3.org/1999/xlink" x="0px" y="0px" viewBox="0 0 25 25" style="enable-background:new 0 0 25 25;" xml:space="preserve">
<g>
	<path fill="#B18066" d="M18.4,12.9h-4.1c-0.3,0-0.6-0.3-0.6-0.6s0.3-0.6,0.6-0.6h4.1c0.3,0,0.6,0.3,0.6,0.6S18.7,12.9,18.4,12.9z"/>
	<path fill="#B18066" d="M9.9,12.9H6.6c-0.3,0-0.6-0.3-0.6-0.6s0.3-0.6,0.6-0.6h3.3c0.3,0,0.6,0.3,0.6,0.6
		C10.4,12.6,10.2,12.9,9.9,12.9z"/>
	<path fill="#B18066" d="M23.1,12.9h-2.5c-0.3,0-0.6-0.3-0.6-0.6s0.3-0.6,0.6-0.6h2.5c0.3,0,0.6,0.3,0.6,0.6S23.4,12.9,23.1,12.9z"/>
	<path fill="#B18066" d="M4.3,12.9H1.8c-0.3,0-0.6-0.3-0.6-0.6s0.3-0.6,0.6-0.6h2.5c0.3,0,0.6,0.3,0.6,0.6S4.6,12.9,4.3,12.9L4.3,12.9z
		"/>
	<path fill="#B18066" d="M20.1,13.9c-0.9,0.3-1.8-0.2-2.2-1c0,0,0-0.1,0-0.1l-0.6-3l-2.4-0.2v4c0.4,0.3,1.1,1,2.9,2.8
		c0.3,0.3,0.5,0.7,0.5,1.2v5.7c0,0.9-0.8,1.7-1.7,1.7s-1.7-0.8-1.7-1.7v-5l-2.1-2.1c0,0,0,0,0,0h-1.4c0,0,0,0,0,0l-2.1,2.1v5
		c0,0.9-0.8,1.7-1.7,1.7C6.7,25,6,24.2,6,23.3v-5.7c0-0.4,0.2-0.9,0.5-1.2c1.7-1.7,2.5-2.4,2.9-2.8v-4L7.6,9.8l-0.6,3
		c0,0,0,0.1,0,0.1c-0.3,0.8-1.3,1.3-2.1,1c-0.4-0.2-0.8-0.5-1-0.9c-0.2-0.4-0.2-0.8-0.1-1.2l0.9-4.1c0,0,0,0,0-0.1
		C5,7,5.6,6.5,6.2,6.5l3.6-0.3h0.1l4.8,0.1l4.1,0.3c0.7,0,1.2,0.5,1.5,1.1c0,0,0,0,0,0.1l0.9,4.1C21.4,12.6,21,13.6,20.1,13.9
		L20.1,13.9z"/>
	<path fill="#B18066" d="M15.3,2.8c0,1.5-1.3,2.8-2.8,2.8S9.7,4.3,9.7,2.8c0-1.5,1.3-2.8,2.8-2.8S15.3,1.3,15.3,2.8"/>
	<path fill="#B18066" d="M2.4,10.1v4.5c0,0.3-0.3,0.6-0.6,0.6H1.1C0.5,15.1,0,14.6,0,14v-3.4C0,10,0.5,9.5,1.1,9.5h0.7
		C2.1,9.5,2.4,9.7,2.4,10.1L2.4,10.1z"/>
	<path fill="#B18066" d="M25,10.6V14c0,0.6-0.5,1.1-1.1,1.1h-0.7c-0.3,0-0.6-0.3-0.6-0.6l0-4.5c0-0.3,0.3-0.6,0.6-0.6h0.7
		C24.5,9.5,25,10,25,10.6L25,10.6z"/>
</g>
</svg>
