<svg viewBox="0 0 25 25" fill="none" xmlns="http://www.w3.org/2000/svg">
<g clip-path="url(#clip0_1797_591)">
<path d="M7.77787 8.52441L0.03125 24.9853H1.46605L9.21267 8.52441H7.77787Z" fill="#84A078"/>
<path d="M10.3501 8.52441L2.60352 24.9853H22.5871L14.8404 8.52441H10.3501ZM13.11 23.9565H12.0812V21.8989H13.11V23.9565ZM13.11 20.8701H12.0812V18.8125H13.11V20.8701ZM13.11 17.7837H12.0812V15.7261H13.11V17.7837ZM13.11 14.6973H12.0812V12.6396H13.11V14.6973ZM13.11 11.6108H12.0812V9.55322H13.11V11.6108Z" fill="#84A078"/>
<path d="M15.9785 8.52441L23.7251 24.9853H25.1599L17.4133 8.52441H15.9785Z" fill="#84A078"/>
<path d="M13.624 3.08642C13.624 3.65457 13.1634 4.11523 12.5952 4.11523C12.0271 4.11523 11.5664 3.65457 11.5664 3.08642C11.5664 2.51828 12.0271 2.05762 12.5952 2.05762C13.1634 2.05762 13.624 2.51828 13.624 3.08642Z" fill="#84A078"/>
<path d="M12.5961 7.90733L15.0756 4.71803C15.4676 4.21189 15.6812 3.59022 15.6826 2.95001C15.6844 2.18552 15.3806 1.45183 14.8384 0.912622L14.7704 0.84465C14.2312 0.302228 13.4973 -0.00161714 12.7326 0.000499264H12.4598C11.695 -0.00156752 10.9611 0.302251 10.4219 0.84465L10.3539 0.912622C9.81173 1.45183 9.50789 2.18552 9.50977 2.95001C9.51092 3.59069 9.72426 4.21303 10.1167 4.71968L12.5961 7.90733ZM12.5961 1.02902C13.1418 1.02902 13.6652 1.24581 14.0512 1.63161C14.437 2.01764 14.6537 2.54102 14.6537 3.08664C14.6537 3.63226 14.437 4.15565 14.0512 4.54166C13.6651 4.92747 13.1418 5.14425 12.5961 5.14425C12.0505 5.14425 11.5271 4.92747 11.1411 4.54166C10.7553 4.15563 10.5385 3.63226 10.5385 3.08664C10.5385 2.54102 10.7553 2.01762 11.1411 1.63161C11.5271 1.24581 12.0505 1.02902 12.5961 1.02902Z" fill="#84A078"/>
</g>
<defs>
<clipPath id="clip0_1797_591">
<rect width="25" height="25" fill="white"/>
</clipPath>
</defs>
</svg>
