<?xml version="1.0" encoding="utf-8"?>
<!-- Generator: Adobe Illustrator 22.1.0, SVG Export Plug-In . SVG Version: 6.00 Build 0)  -->
<svg version="1.1" id="Capa_1__x28_копия_x29_"
	 xmlns="http://www.w3.org/2000/svg" xmlns:xlink="http://www.w3.org/1999/xlink" x="0px" y="0px" viewBox="0 0 30 30"
	 style="enable-background:new 0 0 30 30;" xml:space="preserve">
<style type="text/css">
	.st0{fill:#FFFFFF;}
	.st1{fill:#1AD793;}
</style>
<g id="Capa_1">
</g>
<g>
	<g>
		<g>
			<path class="st0" d="M30,26c0,2.2-1.8,4-4,4H4c-2.2,0-4-1.8-4-4V4c0-2.2,1.8-4,4-4h22c2.2,0,4,1.8,4,4V26z"/>
		</g>
	</g>
	<path id="heart.svg_1_" class="st1" d="M26,12L26,12c0,0.1,0,0.2,0,0.2c0,0,0,0.1,0,0.1c0,1.2-0.3,2.3-0.7,3.4
		c-0.4,1-0.9,2-1.6,2.8c-0.6,0.8-1.4,1.6-2.2,2.2c-0.7,0.6-1.5,1.2-2.3,1.7c-0.7,0.4-1.4,0.8-2.1,1.2c-0.5,0.3-1,0.5-1.5,0.7
		c-0.3,0.1-0.5,0.2-0.6,0.2c-0.1-0.1-0.3-0.1-0.6-0.2c-0.3-0.1-0.8-0.3-1.5-0.7c-0.7-0.3-1.4-0.7-2.1-1.2c-0.8-0.5-1.5-1.1-2.3-1.7
		c-0.8-0.7-1.5-1.4-2.2-2.2c-0.7-0.9-1.2-1.8-1.6-2.8c-0.4-1.1-0.7-2.2-0.7-3.4c0,0,0-0.1,0-0.1c0,0,0-0.1,0-0.1v-0.1
		c0-1.7,0.7-3.3,1.9-4.5C8,5,11.7,4.8,14.1,7c0.4,0.3,0.7,0.7,0.9,1.1c1.8-2.7,5.4-3.4,8.1-1.6c0.4,0.3,0.8,0.6,1.1,0.9
		C25.3,8.6,26,10.2,26,12L26,12L26,12C26,12,26,12,26,12z M24.6,12L24.6,12c0-1.4-0.5-2.7-1.5-3.7c-0.9-1-2.1-1.5-3.4-1.5
		c-1.5,0-2.9,0.7-3.7,2c-0.4,0.6-1.3,0.8-1.9,0.3C14.1,9.1,14,9,13.9,8.9c-0.8-1.2-2.2-2-3.7-2c-1.3,0-2.5,0.5-3.4,1.5
		c-0.9,1-1.5,2.2-1.5,3.6V12c0,0.1,0,0.1,0,0.2c0,1.3,0.3,2.5,0.9,3.6c0.5,1,1.2,2,2,2.9c0.8,0.8,1.6,1.5,2.6,2.1
		c0.8,0.5,1.5,1,2.4,1.4c0.6,0.3,1.2,0.5,1.7,0.8c0.5-0.2,1.1-0.5,1.7-0.8c0.8-0.4,1.6-0.9,2.4-1.4c0.9-0.6,1.8-1.3,2.6-2.1
		c0.8-0.8,1.5-1.8,2-2.9c0.6-1.1,0.9-2.3,0.9-3.6C24.6,12.2,24.6,12.1,24.6,12L24.6,12C24.6,12,24.6,12,24.6,12z"/>
</g>
</svg>
