<?xml version="1.0" encoding="utf-8"?>
<!-- Generator: Adobe Illustrator 24.0.1, SVG Export Plug-In . SVG Version: 6.00 Build 0)  -->
<svg version="1.1" id="Layer_1" xmlns="http://www.w3.org/2000/svg" xmlns:xlink="http://www.w3.org/1999/xlink" x="0px" y="0px"
	 viewBox="0 0 800 800" style="enable-background:new 0 0 800 800;" xml:space="preserve">
<style type="text/css">
	.st0{fill:#EDA85D;}
</style>
<g>
	<path class="st0" d="M717,800l62.3-62.3c0,0-46.3-39.9-79.8-75c-14.4-14.4-30.3-31.9-44.7-47.9c60.7-65.5,99-153.3,99-250.7
		C753.7,164.5,589.2,0,386.4,0S20.8,164.5,20.8,365.7s164.5,365.7,365.7,365.7c75,0,143.7-22.4,202.8-60.7
		c19.2,17.6,39.9,38.3,52.7,49.5C661.1,742.5,717,800,717,800z M493.4,475.8l71.9-71.9l78.2,78.2c-12.8,31.9-30.3,62.3-52.7,89.4
		L493.4,475.8z M386.4,65.5c153.3,0,277.8,146.9,277.8,300.2c0,22.4-3.2,46.3-8,68.7l-67.1-67.1c-14.4-14.4-38.3-14.4-52.7,0
		l-76.6,76.6L313,297c-6.4-6.4-16-11.2-25.5-11.2c-9.6,0-19.2,3.2-25.5,11.2L118.2,440.7c-6.4-24-9.6-49.5-9.6-73.5
		C108.6,212.4,233.1,65.5,386.4,65.5z M134.1,487l153.3-153.3l271.5,271.5C511,649.9,451.9,677,386.4,677
		C274.7,677,177.2,592.4,134.1,487z"/>
	<path class="st0" d="M327.3,477.4h-24c-4.8,0-9.6,4.8-9.6,9.6v24c0,4.8,4.8,9.6,9.6,9.6h24c4.8,0,9.6-4.8,9.6-9.6v-24
		C336.9,482.2,332.1,477.4,327.3,477.4z"/>
	<path class="st0" d="M327.3,528.5h-24c-4.8,0-9.6,4.8-9.6,9.6v24c0,4.8,4.8,9.6,9.6,9.6h24c4.8,0,9.6-4.8,9.6-9.6v-24
		C336.9,533.3,332.1,528.5,327.3,528.5z"/>
	<path class="st0" d="M274.7,477.4h-24c-4.8,0-9.6,4.8-9.6,9.6v24c0,4.8,4.8,9.6,9.6,9.6h24c4.8,0,9.6-4.8,9.6-9.6v-24
		C282.6,482.2,279.4,477.4,274.7,477.4z"/>
	<path class="st0" d="M274.7,528.5h-24c-4.8,0-9.6,4.8-9.6,9.6v24c0,4.8,4.8,9.6,9.6,9.6h24c4.8,0,9.6-4.8,9.6-9.6v-24
		C282.6,533.3,279.4,528.5,274.7,528.5z"/>
</g>
</svg>
