<svg xmlns="http://www.w3.org/2000/svg" width="34" height="34" viewBox="0 0 34 34">
  <metadata><?xpacket begin="﻿" id="W5M0MpCehiHzreSzNTczkc9d"?>
<x:xmpmeta xmlns:x="adobe:ns:meta/" x:xmptk="Adobe XMP Core 5.6-c138 79.159824, 2016/09/14-01:09:01        ">
   <rdf:RDF xmlns:rdf="http://www.w3.org/1999/02/22-rdf-syntax-ns#">
      <rdf:Description rdf:about=""/>
   </rdf:RDF>
</x:xmpmeta>
                                                                                                    
                                                                                                    
                                                                                                    
                                                                                                    
                                                                                                    
                                                                                                    
                                                                                                    
                                                                                                    
                                                                                                    
                                                                                                    
                                                                                                    
                                                                                                    
                                                                                                    
                                                                                                    
                                                                                                    
                                                                                                    
                                                                                                    
                                                                                                    
                                                                                                    
                                                                                                    
                           
<?xpacket end="w"?></metadata>
<defs>
    <style>
      .cls-1 {
        fill: #2f3645;
        fill-rule: evenodd;
      }
    </style>
  </defs>
  <path id="google_" data-name="google+" class="cls-1" d="M512,1243.12a17.02,17.02,0,1,1-4.98-12.01A16.368,16.368,0,0,1,512,1243.12Zm-16.867,9.97a4.309,4.309,0,0,0,1.793-3.39,5.12,5.12,0,0,0-.532-2.49,6.546,6.546,0,0,0-1.859-1.96c-1.2-.84-1.793-1.53-1.793-2.06a1.575,1.575,0,0,1,.266-0.96,6.783,6.783,0,0,1,1.062-1.03,4.309,4.309,0,0,0,1.926-3.52,4.944,4.944,0,0,0-.6-2.42,3.177,3.177,0,0,0-1.593-1.5h2.125l1.527-1.06h-6.773a6.275,6.275,0,0,0-4.118,1.49,4.447,4.447,0,0,0-1.793,3.49,4.713,4.713,0,0,0,1.461,3.49,5.1,5.1,0,0,0,3.719,1.42,2.733,2.733,0,0,0,.6-0.06,2.8,2.8,0,0,0-.332,1.26,2.709,2.709,0,0,0,.929,1.92h-1.2a7.475,7.475,0,0,0-4.682,1.5,4.228,4.228,0,0,0-1.959,3.35,3.258,3.258,0,0,0,2.026,2.89,10.279,10.279,0,0,0,4.947,1.1A7.475,7.475,0,0,0,495.133,1253.09Zm12.617-14.22H503.5v-4.25h-2.125v4.25h-4.25v2.2h4.25v4.18H503.5v-4.18h4.25v-2.2Zm-14.809,8.11c0.266,0.17.454,0.31,0.565,0.39s0.254,0.2.431,0.34a3.478,3.478,0,0,1,.4.33q0.132,0.135.332,0.36a2.172,2.172,0,0,1,.3.44,0.855,0.855,0,0,1,.1.39,2.369,2.369,0,0,1,.133.73q0,3.525-4.98,3.52a4.767,4.767,0,0,1-3.188-1.06,3.268,3.268,0,0,1-1.262-2.59,3.021,3.021,0,0,1,1.5-2.46,5.915,5.915,0,0,1,5.146-.79A4.056,4.056,0,0,0,492.941,1246.98Zm-2.025-5.08a3.316,3.316,0,0,1-2.391-1.3,5.543,5.543,0,0,1-1.328-2.95,4.057,4.057,0,0,1,.531-2.86,2.319,2.319,0,0,1,2.092-1.13,3.35,3.35,0,0,1,2.424,1.23,5.067,5.067,0,0,1,1.295,2.92,4.343,4.343,0,0,1-.564,2.92A2.271,2.271,0,0,1,490.916,1241.9Z" transform="translate(-478 -1226.12)"/>
</svg>
