<svg xmlns="http://www.w3.org/2000/svg" width="34" height="34" viewBox="0 0 34 34">
  <metadata><?xpacket begin="﻿" id="W5M0MpCehiHzreSzNTczkc9d"?>
<x:xmpmeta xmlns:x="adobe:ns:meta/" x:xmptk="Adobe XMP Core 5.6-c138 79.159824, 2016/09/14-01:09:01        ">
   <rdf:RDF xmlns:rdf="http://www.w3.org/1999/02/22-rdf-syntax-ns#">
      <rdf:Description rdf:about=""/>
   </rdf:RDF>
</x:xmpmeta>
                                                                                                    
                                                                                                    
                                                                                                    
                                                                                                    
                                                                                                    
                                                                                                    
                                                                                                    
                                                                                                    
                                                                                                    
                                                                                                    
                                                                                                    
                                                                                                    
                                                                                                    
                                                                                                    
                                                                                                    
                                                                                                    
                                                                                                    
                                                                                                    
                                                                                                    
                                                                                                    
                           
<?xpacket end="w"?></metadata>
<defs>
    <style>
      .cls-1 {
        fill: #2f3645;
        fill-rule: evenodd;
      }
    </style>
  </defs>
  <path id="twitter" class="cls-1" d="M556,1243.12a17.02,17.02,0,1,1-4.98-12.01A16.368,16.368,0,0,1,556,1243.12Zm-6.441-5.97a8.226,8.226,0,0,1-2.391.66,3.939,3.939,0,0,0,1.793-2.32,7.478,7.478,0,0,1-2.656.99,3.939,3.939,0,0,0-3.055-1.32,4.181,4.181,0,0,0-4.184,4.18,3.644,3.644,0,0,0,.133,1,11.351,11.351,0,0,1-8.633-4.39,4.1,4.1,0,0,0-.6,2.13,3.921,3.921,0,0,0,1.925,3.45,3.634,3.634,0,0,1-1.925-.53v0.07a3.935,3.935,0,0,0,.963,2.65,4.324,4.324,0,0,0,2.423,1.46,5.151,5.151,0,0,1-1.129.14,5.349,5.349,0,0,1-.8-0.07,4.028,4.028,0,0,0,1.461,2.06,4.313,4.313,0,0,0,2.457.86,8.249,8.249,0,0,1-5.18,1.79,7.773,7.773,0,0,1-1-.06,11.637,11.637,0,0,0,6.375,1.86,11.023,11.023,0,0,0,8.7-3.69,12.083,12.083,0,0,0,3.254-8.2,2.236,2.236,0,0,0-.066-0.53,9.122,9.122,0,0,0,2.125-2.19h0Z" transform="translate(-522 -1226.12)"/>
</svg>
