<?xml version="1.0" encoding="utf-8"?>
<!-- Generator: Adobe Illustrator 22.1.0, SVG Export Plug-In . SVG Version: 6.00 Build 0)  -->
<svg version="1.1" id="Capa_1__x28_копия_x29_"
	 xmlns="http://www.w3.org/2000/svg" xmlns:xlink="http://www.w3.org/1999/xlink" x="0px" y="0px" viewBox="0 0 23.9 24"
	 style="enable-background:new 0 0 23.9 24;" xml:space="preserve">
<style type="text/css">
	.st0{fill:#FFFFFF;}
	.st1{enable-background:new    ;}
	.st2{fill:#EA3B38;}
</style>
<g>
	<rect x="2.9" y="2" class="st0" width="18.8" height="19.3"/>
</g>
<g class="st1">
	<path class="st2" d="M23.4,0.5c0.3,0.3,0.4,0.6,0.4,1v20.9c0,0.4-0.1,0.8-0.4,1c-0.3,0.3-0.6,0.4-1,0.4H1.5c-0.4,0-0.8-0.1-1-0.4
		c-0.3-0.3-0.4-0.6-0.4-1V1.5c0-0.4,0.1-0.8,0.4-1C0.7,0.2,1.1,0,1.5,0h20.9C22.8,0,23.1,0.2,23.4,0.5z M6.2,8.8l2.7-2.7l-2-2
		C6.5,3.8,6,3.6,5.5,3.6s-1,0.2-1.4,0.6S3.6,5,3.6,5.5s0.2,1,0.6,1.4L6.2,8.8z M19.4,19.4l-1.4-4l-7.7-7.7l-2.7,2.7l7.7,7.7
		L19.4,19.4z"/>
</g>
</svg>
