<svg xmlns="http://www.w3.org/2000/svg" width="10.282" height="10.25" viewBox="0 0 10.282 10.25">
  <metadata><?xpacket begin="﻿" id="W5M0MpCehiHzreSzNTczkc9d"?>
<x:xmpmeta xmlns:x="adobe:ns:meta/" x:xmptk="Adobe XMP Core 5.6-c138 79.159824, 2016/09/14-01:09:01        ">
   <rdf:RDF xmlns:rdf="http://www.w3.org/1999/02/22-rdf-syntax-ns#">
      <rdf:Description rdf:about=""/>
   </rdf:RDF>
</x:xmpmeta>
                                                                                                    
                                                                                                    
                                                                                                    
                                                                                                    
                                                                                                    
                                                                                                    
                                                                                                    
                                                                                                    
                                                                                                    
                                                                                                    
                                                                                                    
                                                                                                    
                                                                                                    
                                                                                                    
                                                                                                    
                                                                                                    
                                                                                                    
                                                                                                    
                                                                                                    
                                                                                                    
                           
<?xpacket end="w"?></metadata>
<defs>
    <style>
      .cls-1 {
        fill: #fff;
        fill-rule: evenodd;
      }
    </style>
  </defs>
  <path id="N" class="cls-1" d="M938.445,1971.42l-3.428-3.34a0.625,0.625,0,0,1-.219-0.46,0.638,0.638,0,0,1,.175-0.48,0.619,0.619,0,0,1,.455-0.2,0.681,0.681,0,0,1,.468.17l2.842,2.79,5.186-8.3a0.686,0.686,0,0,1,.41-0.26,0.589,0.589,0,0,1,.483.09,0.639,0.639,0,0,1,.279.41,0.663,0.663,0,0,1-.088.5l-5.6,8.96a0.158,0.158,0,0,1-.044.07,0.8,0.8,0,0,1-.1.08l-0.029.03a0.638,0.638,0,0,1-.205.09h-0.058a0.361,0.361,0,0,1-.147,0h-0.117a0.323,0.323,0,0,0-.117-0.06,0.229,0.229,0,0,0-.088-0.03c-0.02-.02-0.035-0.04-0.044-0.05a0.027,0.027,0,0,0-.015-0.01h0Z" transform="translate(-934.812 -1961.34)"/>
</svg>
