<svg id="Група_2" data-name="Група 2" xmlns="http://www.w3.org/2000/svg" width="34" height="34" viewBox="0 0 34 34">
  <metadata><?xpacket begin="﻿" id="W5M0MpCehiHzreSzNTczkc9d"?>
<x:xmpmeta xmlns:x="adobe:ns:meta/" x:xmptk="Adobe XMP Core 5.6-c138 79.159824, 2016/09/14-01:09:01        ">
   <rdf:RDF xmlns:rdf="http://www.w3.org/1999/02/22-rdf-syntax-ns#">
      <rdf:Description rdf:about=""/>
   </rdf:RDF>
</x:xmpmeta>
                                                                                                    
                                                                                                    
                                                                                                    
                                                                                                    
                                                                                                    
                                                                                                    
                                                                                                    
                                                                                                    
                                                                                                    
                                                                                                    
                                                                                                    
                                                                                                    
                                                                                                    
                                                                                                    
                                                                                                    
                                                                                                    
                                                                                                    
                                                                                                    
                                                                                                    
                                                                                                    
                           
<?xpacket end="w"?></metadata>
<defs>
    <style>
      .cls-1 {
        fill: #dfe0e2;
      }

      .cls-2, .cls-3 {
        fill: #505560;
      }

      .cls-2, .cls-4 {
        fill-rule: evenodd;
      }

      .cls-4 {
        fill: #fff;
      }
    </style>
  </defs>
  <g id="Група_1" data-name="Група 1">
    <rect id="Прямоугольник_скругл._углы1920" data-name="Прямоугольник, скругл. углы1920" class="cls-1" y="4" width="30" height="30" rx="2" ry="2"/>
    <path id="Нет" class="cls-2" d="M823.541,1607.97v3.43h-4.818v-3.43h-0.814v7.7h0.814v-3.56h4.818v3.56h0.8v-7.7h-0.8Zm8.283,4.8a3.112,3.112,0,0,0-.363-1.52,2.691,2.691,0,0,0-1-1.04,3,3,0,0,0-2.888,0,2.671,2.671,0,0,0-1.012,1.05,3.059,3.059,0,0,0-.368,1.51,2.992,2.992,0,0,0,.385,1.52,2.694,2.694,0,0,0,1.072,1.05,3.244,3.244,0,0,0,1.579.38,3.276,3.276,0,0,0,1.27-.24,2.541,2.541,0,0,0,.963-0.7l-0.44-.51a2.19,2.19,0,0,1-.781.57,2.653,2.653,0,0,1-.99.19,2.3,2.3,0,0,1-1.584-.56,2.053,2.053,0,0,1-.693-1.45h4.84Zm-2.806-2.26a2,2,0,0,1,1.414.53,2.107,2.107,0,0,1,.644,1.39h-4.1a2.1,2.1,0,0,1,.643-1.39,1.989,1.989,0,0,1,1.4-.53h0Zm8.35-.63h-5.159v0.69H834.4v5.1h0.78v-5.1h2.19v-0.69Z" transform="translate(-813 -1593)"/>
    <circle id="Эллипс_1918_копия" data-name="Эллипс 1918 копия" class="cls-3" cx="27" cy="7" r="7"/>
  </g>
  <path id="K" class="cls-4" d="M836.605,1600.39a0.365,0.365,0,0,1-.105-0.27,0.358,0.358,0,0,1,.105-0.26,0.336,0.336,0,0,1,.27-0.11h6a0.334,0.334,0,0,1,.269.11,0.355,0.355,0,0,1,.106.26,0.362,0.362,0,0,1-.106.27,0.369,0.369,0,0,1-.269.11h-6A0.371,0.371,0,0,1,836.605,1600.39Z" transform="translate(-813 -1593)"/>
</svg>
