<svg xmlns="http://www.w3.org/2000/svg" xmlns:xlink="http://www.w3.org/1999/xlink" preserveAspectRatio="xMidYMid" width="22" height="22" viewBox="0 0 22 22">
  <defs>
    <style>
      .cls-1 {
        fill: #101010;
        fill-rule: evenodd;
      }
    </style>
  </defs>
  <path d="M2.823,-0.001 L19.177,-0.001 C20.730,-0.001 22.001,1.149 22.001,2.823 L22.001,19.177 C22.001,20.851 20.730,22.001 19.177,22.001 L2.823,22.001 C1.269,22.001 -0.001,20.851 -0.001,19.177 L-0.001,2.823 C-0.001,1.149 1.269,-0.001 2.823,-0.001 L2.823,-0.001 ZM16.026,2.443 C15.481,2.443 15.036,2.889 15.036,3.434 L15.036,5.805 C15.036,6.350 15.481,6.795 16.026,6.795 L18.513,6.795 C19.058,6.795 19.503,6.350 19.503,5.805 L19.503,3.434 C19.503,2.889 19.058,2.443 18.513,2.443 L16.026,2.443 L16.026,2.443 ZM19.514,9.303 L17.577,9.303 C17.760,9.901 17.860,10.535 17.860,11.191 C17.860,14.850 14.798,17.817 11.021,17.817 C7.244,17.817 4.182,14.850 4.182,11.191 C4.182,10.535 4.281,9.901 4.464,9.303 L2.444,9.303 L2.444,18.597 C2.444,19.078 2.837,19.472 3.319,19.472 L18.640,19.472 C19.121,19.472 19.514,19.078 19.514,18.597 L19.514,9.303 L19.514,9.303 ZM11.020,6.670 C8.580,6.670 6.602,8.587 6.602,10.952 C6.602,13.317 8.580,15.234 11.020,15.234 C13.461,15.234 15.440,13.317 15.440,10.952 C15.440,8.587 13.461,6.670 11.020,6.670 Z" class="cls-1"/>
</svg>
