<svg xmlns="http://www.w3.org/2000/svg" width="22" height="19" viewBox="0 0 22 19">
  <metadata><?xpacket begin="﻿" id="W5M0MpCehiHzreSzNTczkc9d"?>
<x:xmpmeta xmlns:x="adobe:ns:meta/" x:xmptk="Adobe XMP Core 5.6-c138 79.159824, 2016/09/14-01:09:01        ">
   <rdf:RDF xmlns:rdf="http://www.w3.org/1999/02/22-rdf-syntax-ns#">
      <rdf:Description rdf:about=""/>
   </rdf:RDF>
</x:xmpmeta>
                                                                                                    
                                                                                                    
                                                                                                    
                                                                                                    
                                                                                                    
                                                                                                    
                                                                                                    
                                                                                                    
                                                                                                    
                                                                                                    
                                                                                                    
                                                                                                    
                                                                                                    
                                                                                                    
                                                                                                    
                                                                                                    
                                                                                                    
                                                                                                    
                                                                                                    
                                                                                                    
                           
<?xpacket end="w"?></metadata>
<defs>
    <style>
      .cls-1 {
        fill: #fff;
        fill-rule: evenodd;
      }
    </style>
  </defs>
  <path id="_" data-name="" class="cls-1" d="M786,4309.44v0.08a0.547,0.547,0,0,1-.022.13,0.734,0.734,0,0,0-.021.13,9.459,9.459,0,0,1-.709,3.4,11.826,11.826,0,0,1-1.59,2.82,14.036,14.036,0,0,1-2.191,2.23,23.427,23.427,0,0,1-2.3,1.69,22.654,22.654,0,0,1-2.149,1.19,14.685,14.685,0,0,1-1.5.67c-0.257.09-.458,0.16-0.6,0.22-0.144-.06-0.344-0.14-0.6-0.24s-0.752-.33-1.482-0.67a19.74,19.74,0,0,1-2.106-1.17,20.814,20.814,0,0,1-2.256-1.71,15.869,15.869,0,0,1-2.169-2.23,10.953,10.953,0,0,1-1.569-2.8,9.745,9.745,0,0,1-.687-3.4,0.768,0.768,0,0,0-.022-0.13,0.492,0.492,0,0,1-.021-0.13v-0.13a6.488,6.488,0,0,1,1.869-4.48,5.8,5.8,0,0,1,9.131.63,5.8,5.8,0,0,1,9.131-.63,6.5,6.5,0,0,1,1.869,4.48h0v0.05Zm-1.375.08v-0.08a5.193,5.193,0,0,0-1.461-3.58,4.489,4.489,0,0,0-3.352-1.49,4.408,4.408,0,0,0-3.7,1.99,1.379,1.379,0,0,1-2.234,0,4.413,4.413,0,0,0-3.7-1.99,4.487,4.487,0,0,0-3.351,1.49,5.184,5.184,0,0,0-1.461,3.58v0.08a0.424,0.424,0,0,1,.043.18,8.543,8.543,0,0,0,.9,3.64,11.229,11.229,0,0,0,1.955,2.85,16.459,16.459,0,0,0,2.557,2.13,20.064,20.064,0,0,0,2.363,1.43q0.9,0.42,1.719.78,0.816-.36,1.74-0.78a20.046,20.046,0,0,0,2.406-1.43,16.82,16.82,0,0,0,2.6-2.13,11.312,11.312,0,0,0,2-2.85,8.321,8.321,0,0,0,.924-3.6,0.493,0.493,0,0,1,.043-0.22h0Z" transform="translate(-764 -4303)"/>
</svg>
