<svg xmlns="http://www.w3.org/2000/svg" width="18" height="18" viewBox="0 0 18 18">
  <metadata><?xpacket begin="﻿" id="W5M0MpCehiHzreSzNTczkc9d"?>
<x:xmpmeta xmlns:x="adobe:ns:meta/" x:xmptk="Adobe XMP Core 5.6-c138 79.159824, 2016/09/14-01:09:01        ">
   <rdf:RDF xmlns:rdf="http://www.w3.org/1999/02/22-rdf-syntax-ns#">
      <rdf:Description rdf:about=""/>
   </rdf:RDF>
</x:xmpmeta>
                                                                                                    
                                                                                                    
                                                                                                    
                                                                                                    
                                                                                                    
                                                                                                    
                                                                                                    
                                                                                                    
                                                                                                    
                                                                                                    
                                                                                                    
                                                                                                    
                                                                                                    
                                                                                                    
                                                                                                    
                                                                                                    
                                                                                                    
                                                                                                    
                                                                                                    
                                                                                                    
                           
<?xpacket end="w"?></metadata>
<defs>
    <style>
      .cls-1 {
        fill: #a7a7a7;
        fill-rule: evenodd;
      }
    </style>
  </defs>
  <path id="map" class="cls-1" d="M1326.75,383.8a1.088,1.088,0,0,1,.25.7V398a1.1,1.1,0,0,1-.42.879,1.136,1.136,0,0,1-.71.246,0.985,0.985,0,0,1-.24-0.035l-4.82-2.18-5.41,2.18a0.789,0.789,0,0,1-.25.035,0.985,0.985,0,0,1-.24-0.035l-5.03-2.25a0.985,0.985,0,0,1-.63-0.387,1.088,1.088,0,0,1-.25-0.7v-13.5a1.1,1.1,0,0,1,.42-0.879,1.124,1.124,0,0,1,.7-0.246,0.789,0.789,0,0,1,.25.035l4.82,2.18,5.41-2.18a0.67,0.67,0,0,1,.21-0.035,0.789,0.789,0,0,1,.25.035l5.06,2.25A0.985,0.985,0,0,1,1326.75,383.8Zm-11,13.957,4.5-1.793v-13.5l-4.5,1.793v13.5Zm-5.63-2,4.5,2v-13.5l-4.5-2v13.5Zm15.75-11.25-4.5-2V396l4.5,2V384.5Z" transform="translate(-1309 -381.125)"/>
</svg>
