<?xml version="1.0" encoding="utf-8"?>
<!-- Generator: Adobe Illustrator 17.0.0, SVG Export Plug-In . SVG Version: 6.00 Build 0)  -->
<!DOCTYPE svg PUBLIC "-//W3C//DTD SVG 1.1//EN" "http://www.w3.org/Graphics/SVG/1.1/DTD/svg11.dtd">
<svg version="1.1" id="Capa_1__x28_копия_x29_"
	 xmlns="http://www.w3.org/2000/svg" xmlns:xlink="http://www.w3.org/1999/xlink" x="0px" y="0px" width="22.5px" height="24px"
	 viewBox="169.208 236.949 22.5 24" enable-background="new 169.208 236.949 22.5 24" xml:space="preserve">
<g id="Capa_1">
</g>
<g>
	<g>
		<path fill="#EA3B38" d="M191.708,258.949c0,1.1-0.9,2-2,2h-18.5c-1.1,0-2-0.9-2-2v-20c0-1.1,0.9-2,2-2h18.5c1.1,0,2,0.9,2,2
			V258.949z"/>
	</g>
	<g>
		<g>
			<path fill="#FFFFFF" d="M174.961,256.949h11.759c0.088,0,0.177-0.02,0.255-0.059s1.875-0.933,1.875-2.729v-9.188
				c0-0.324-0.265-0.589-0.589-0.589H186.2v-1.178v-1.669c0-0.324-0.265-0.589-0.589-0.589h-12.957
				c-0.324,0-0.589,0.265-0.589,0.589v12.496c0,0.039,0,0.088,0.01,0.128C172.105,254.279,172.723,256.949,174.961,256.949z
				 M173.244,242.127h11.779v1.08v1.767v8.245c0,0.324,0.265,0.589,0.589,0.589s0.589-0.265,0.589-0.589v-7.656h1.472v8.599
				c0,0.864-0.805,1.433-1.109,1.61h-11.602c-1.158,0-1.629-1.502-1.718-1.816C173.244,253.955,173.244,242.127,173.244,242.127z"/>
			<path fill="#FFFFFF" d="M178.937,244.679c0-0.324-0.265-0.589-0.589-0.589H175.6c-0.324,0-0.589,0.265-0.589,0.589v3.141
				c0,0.324,0.265,0.589,0.589,0.589h2.748c0.324,0,0.589-0.265,0.589-0.589C178.937,247.821,178.937,244.679,178.937,244.679z
				 M176.188,245.268h1.571v1.963h-1.571V245.268z"/>
			<path fill="#FFFFFF" d="M175.403,253.906h7.656c0.324,0,0.589-0.265,0.589-0.589s-0.265-0.589-0.589-0.589h-7.656
				c-0.324,0-0.589,0.265-0.589,0.589S175.079,253.906,175.403,253.906z"/>
			<path fill="#FFFFFF" d="M175.501,251.06h7.46c0.324,0,0.589-0.265,0.589-0.589s-0.265-0.589-0.589-0.589h-7.46
				c-0.324,0-0.589,0.265-0.589,0.589S175.177,251.06,175.501,251.06z"/>
			<path fill="#FFFFFF" d="M180.802,245.367h2.258c0.324,0,0.589-0.265,0.589-0.589s-0.265-0.589-0.589-0.589h-2.258
				c-0.324,0-0.589,0.265-0.589,0.589S180.478,245.367,180.802,245.367z"/>
			<path fill="#FFFFFF" d="M180.802,248.213h2.258c0.324,0,0.589-0.265,0.589-0.589s-0.265-0.589-0.589-0.589h-2.258
				c-0.324,0-0.589,0.265-0.589,0.589S180.478,248.213,180.802,248.213z"/>
		</g>
	</g>
</g>
</svg>
