<svg id="Група_1" data-name="Група 1" xmlns="http://www.w3.org/2000/svg" width="30" height="30" viewBox="0 0 30 30">
  <metadata><?xpacket begin="﻿" id="W5M0MpCehiHzreSzNTczkc9d"?>
<x:xmpmeta xmlns:x="adobe:ns:meta/" x:xmptk="Adobe XMP Core 5.6-c138 79.159824, 2016/09/14-01:09:01        ">
   <rdf:RDF xmlns:rdf="http://www.w3.org/1999/02/22-rdf-syntax-ns#">
      <rdf:Description rdf:about=""/>
   </rdf:RDF>
</x:xmpmeta>
                                                                                                    
                                                                                                    
                                                                                                    
                                                                                                    
                                                                                                    
                                                                                                    
                                                                                                    
                                                                                                    
                                                                                                    
                                                                                                    
                                                                                                    
                                                                                                    
                                                                                                    
                                                                                                    
                                                                                                    
                                                                                                    
                                                                                                    
                                                                                                    
                                                                                                    
                                                                                                    
                           
<?xpacket end="w"?></metadata>
<defs>
    <style>
      .cls-1 {
        fill: #1ad793;
      }

      .cls-2 {
        fill: #fff;
        fill-rule: evenodd;
      }
    </style>
  </defs>
  <circle id="Эллипс_5" data-name="Эллипс 5" class="cls-1" cx="15" cy="15" r="15"/>
  <path id="_" data-name="" class="cls-2" d="M957.873,1233.74a10.887,10.887,0,0,0-1.029,1.35,2.479,2.479,0,0,0-.432.88,6.3,6.3,0,0,0,1.461,2.29,10.088,10.088,0,0,0,3.32,2.59,5.737,5.737,0,0,0,2.258-1.43,0.6,0.6,0,0,1,.5-0.1,5.7,5.7,0,0,1,1.245.47,5.412,5.412,0,0,1,.93.58,5.646,5.646,0,0,1,.631.6,5.3,5.3,0,0,1,.365.44c0.055,0.09.094,0.16,0.116,0.2a0.9,0.9,0,0,1,.067.34,5.918,5.918,0,0,1-.4,1.32,5.411,5.411,0,0,1-.514.95,3.168,3.168,0,0,1-.565.61,3.818,3.818,0,0,1-.448.35,0.893,0.893,0,0,1-.233.12,0.337,0.337,0,0,1-.365.03c-0.066-.02-0.21-0.06-0.431-0.13-0.51-.13-0.936-0.25-1.279-0.37s-0.885-.33-1.627-0.66a14.657,14.657,0,0,1-1.975-1.06,20.552,20.552,0,0,1-2.059-1.6,14.69,14.69,0,0,1-2.125-2.25,22.329,22.329,0,0,1-1.892-3.06,25.367,25.367,0,0,1-1.661-3.95,0.688,0.688,0,0,1,0-.3,0.49,0.49,0,0,1,.05-0.21,2.626,2.626,0,0,1,.282-0.44,3.514,3.514,0,0,1,.548-0.58,4.109,4.109,0,0,1,.947-0.53,6.289,6.289,0,0,1,1.427-.4,0.466,0.466,0,0,1,.3.04,1.022,1.022,0,0,1,.316.15c0.121,0.07.326,0.22,0.614,0.43a5.456,5.456,0,0,1,.78.69,5.124,5.124,0,0,1,.664.98,3.009,3.009,0,0,1,.349,1.27,0.434,0.434,0,0,1-.133.39h0Z" transform="translate(-945 -1223)"/>
</svg>
