<svg xmlns="http://www.w3.org/2000/svg" width="19" height="17" viewBox="0 0 19 17">
  <metadata><?xpacket begin="﻿" id="W5M0MpCehiHzreSzNTczkc9d"?>
<x:xmpmeta xmlns:x="adobe:ns:meta/" x:xmptk="Adobe XMP Core 5.6-c138 79.159824, 2016/09/14-01:09:01        ">
   <rdf:RDF xmlns:rdf="http://www.w3.org/1999/02/22-rdf-syntax-ns#">
      <rdf:Description rdf:about=""/>
   </rdf:RDF>
</x:xmpmeta>
                                                                                                    
                                                                                                    
                                                                                                    
                                                                                                    
                                                                                                    
                                                                                                    
                                                                                                    
                                                                                                    
                                                                                                    
                                                                                                    
                                                                                                    
                                                                                                    
                                                                                                    
                                                                                                    
                                                                                                    
                                                                                                    
                                                                                                    
                                                                                                    
                                                                                                    
                                                                                                    
                           
<?xpacket end="w"?></metadata>
<defs>
    <style>
      .cls-1 {
        fill: #a7a7a7;
        fill-rule: evenodd;
      }
    </style>
  </defs>
  <path id="message" class="cls-1" d="M1309.17,463.005a12.026,12.026,0,0,0,1.53-2.514,7.063,7.063,0,0,1,.09-11.163,10.849,10.849,0,0,1,13.42,0,7.05,7.05,0,0,1,0,11.22,10.079,10.079,0,0,1-6.71,2.343,18.512,18.512,0,0,1-3.06-.305,9.285,9.285,0,0,1-4.82,1.41,0.583,0.583,0,0,1-.55-0.343,0.548,0.548,0,0,1,.1-0.648h0Zm2.61-3.2a0.512,0.512,0,0,1,.19.686,12.129,12.129,0,0,1-1.08,2.209,8.963,8.963,0,0,0,3.1-1.257,0.715,0.715,0,0,1,.45-0.076,15.643,15.643,0,0,0,3.06.305,9,9,0,0,0,5.87-1.981,5.863,5.863,0,0,0,0-9.506,9.762,9.762,0,0,0-11.74,0,5.913,5.913,0,0,0-2.43,4.743,6.02,6.02,0,0,0,2.58,4.877h0Z" transform="translate(-1308 -447)"/>
</svg>
