<svg xmlns="http://www.w3.org/2000/svg" width="20" height="19.969" viewBox="0 0 20 19.969">
  <metadata><?xpacket begin="﻿" id="W5M0MpCehiHzreSzNTczkc9d"?>
<x:xmpmeta xmlns:x="adobe:ns:meta/" x:xmptk="Adobe XMP Core 5.6-c138 79.159824, 2016/09/14-01:09:01        ">
   <rdf:RDF xmlns:rdf="http://www.w3.org/1999/02/22-rdf-syntax-ns#">
      <rdf:Description rdf:about=""/>
   </rdf:RDF>
</x:xmpmeta>
                                                                                                    
                                                                                                    
                                                                                                    
                                                                                                    
                                                                                                    
                                                                                                    
                                                                                                    
                                                                                                    
                                                                                                    
                                                                                                    
                                                                                                    
                                                                                                    
                                                                                                    
                                                                                                    
                                                                                                    
                                                                                                    
                                                                                                    
                                                                                                    
                                                                                                    
                                                                                                    
                           
<?xpacket end="w"?></metadata>
<defs>
    <style>
      .cls-1 {
        fill: #a7a7a7;
        fill-rule: evenodd;
      }
    </style>
  </defs>
  <path id="U" class="cls-1" d="M1336.99,177.086a8.112,8.112,0,0,0,8.1,8.088,7.98,7.98,0,0,0,5.1-1.789l5.34,5.326a0.752,0.752,0,0,0,.6.273,0.824,0.824,0,0,0,.62-0.253,0.847,0.847,0,0,0,.26-0.622,0.76,0.76,0,0,0-.27-0.6l-5.34-5.326a8,8,0,0,0,1.79-5.094A8.1,8.1,0,0,0,1336.99,177.086Zm1.25,0a6.832,6.832,0,1,1,2,4.841A6.612,6.612,0,0,1,1338.24,177.086Z" transform="translate(-1337 -169)"/>
</svg>
