<?xml version="1.0" encoding="utf-8"?>
<!-- Generator: Adobe Illustrator 17.0.0, SVG Export Plug-In . SVG Version: 6.00 Build 0)  -->
<!DOCTYPE svg PUBLIC "-//W3C//DTD SVG 1.1//EN" "http://www.w3.org/Graphics/SVG/1.1/DTD/svg11.dtd">
<svg version="1.1" id="Capa_1" xmlns="http://www.w3.org/2000/svg" xmlns:xlink="http://www.w3.org/1999/xlink" x="0px" y="0px"
	 width="15.865px" height="16px" viewBox="142.068 42 15.865 16" enable-background="new 142.068 42 15.865 16"
	 xml:space="preserve">
<g>
	<g>
		<path fill="#19D188" d="M155.015,52.169c-0.926,0-1.743,0.441-2.277,1.117l-4.951-2.532c0.065-0.242,0.111-0.492,0.111-0.754
			c0-0.286-0.055-0.556-0.133-0.818l4.929-2.52c0.531,0.706,1.369,1.168,2.321,1.168c1.612,0,2.917-1.304,2.917-2.915
			c0-1.609-1.304-2.914-2.917-2.914c-1.609,0-2.914,1.305-2.914,2.914c0,0.264,0.047,0.514,0.112,0.757l-4.951,2.532
			c-0.535-0.677-1.353-1.119-2.281-1.119c-1.611,0-2.914,1.306-2.914,2.916c0,1.61,1.304,2.915,2.914,2.915
			c0.953,0,1.791-0.463,2.324-1.17l4.927,2.52c-0.077,0.261-0.133,0.533-0.133,0.82c0,1.61,1.306,2.915,2.914,2.915
			c1.612,0,2.917-1.305,2.917-2.915C157.931,53.473,156.627,52.169,155.015,52.169z"/>
	</g>
</g>
</svg>
