<?xml version="1.0" encoding="utf-8"?>
<!-- Generator: Adobe Illustrator 17.0.0, SVG Export Plug-In . SVG Version: 6.00 Build 0)  -->
<!DOCTYPE svg PUBLIC "-//W3C//DTD SVG 1.1//EN" "http://www.w3.org/Graphics/SVG/1.1/DTD/svg11.dtd">
<svg version="1.1" id="Capa_1__x28_копия_x29_"
	 xmlns="http://www.w3.org/2000/svg" xmlns:xlink="http://www.w3.org/1999/xlink" x="0px" y="0px" width="22.5px" height="22.5px"
	 viewBox="139.417 304.292 22.5 22.5" enable-background="new 139.417 304.292 22.5 22.5" xml:space="preserve">
<g id="Capa_1">
</g>
<g>
	<g>
		<path fill="#19D188" d="M139.974,313.11c-0.372-0.371-0.557-0.811-0.557-1.318v-5.625c0-0.507,0.185-0.946,0.557-1.318
			c0.371-0.371,0.811-0.557,1.318-0.557h5.625c0.507,0,0.946,0.186,1.318,0.557c0.371,0.372,0.557,0.812,0.557,1.318v5.625
			c0,0.508-0.186,0.947-0.557,1.318c-0.372,0.372-0.812,0.557-1.318,0.557h-5.625C140.784,313.667,140.345,313.482,139.974,313.11z
			 M139.417,319.292c0-0.507,0.185-0.946,0.557-1.318c0.371-0.371,0.811-0.557,1.318-0.557h5.625c0.507,0,0.946,0.186,1.318,0.557
			c0.371,0.372,0.557,0.812,0.557,1.318v5.625c0,0.508-0.186,0.947-0.557,1.318c-0.372,0.372-0.812,0.557-1.318,0.557h-5.625
			c-0.508,0-0.947-0.185-1.318-0.557c-0.372-0.371-0.557-0.811-0.557-1.318V319.292z M153.099,313.11
			c-0.372-0.371-0.557-0.811-0.557-1.318v-5.625c0-0.507,0.185-0.946,0.557-1.318c0.371-0.371,0.811-0.557,1.318-0.557h5.625
			c0.507,0,0.946,0.186,1.318,0.557c0.371,0.372,0.557,0.812,0.557,1.318v5.625c0,0.508-0.186,0.947-0.557,1.318
			c-0.372,0.372-0.812,0.557-1.318,0.557h-5.625C153.909,313.667,153.47,313.482,153.099,313.11z M152.542,319.292
			c0-0.507,0.185-0.946,0.557-1.318c0.371-0.371,0.811-0.557,1.318-0.557h5.625c0.507,0,0.946,0.186,1.318,0.557
			c0.371,0.372,0.557,0.812,0.557,1.318v5.625c0,0.508-0.186,0.947-0.557,1.318c-0.372,0.372-0.812,0.557-1.318,0.557h-5.625
			c-0.508,0-0.947-0.185-1.318-0.557c-0.372-0.371-0.557-0.811-0.557-1.318V319.292z"/>
	</g>
</g>
</svg>
