<svg xmlns="http://www.w3.org/2000/svg" xmlns:xlink="http://www.w3.org/1999/xlink" preserveAspectRatio="xMidYMid" width="20" height="11" viewBox="0 0 20 11">
  <defs>
    <style>
      .cls-1 {
        fill: #101010;
        fill-rule: evenodd;
      }
    </style>
  </defs>
  <path d="M17.213,6.994 C17.877,7.624 18.577,8.216 19.172,8.909 C19.435,9.217 19.684,9.535 19.874,9.892 C20.144,10.400 19.899,10.959 19.431,10.990 L16.517,10.989 C15.765,11.049 15.166,10.755 14.662,10.256 C14.258,9.856 13.885,9.431 13.497,9.018 C13.338,8.850 13.172,8.691 12.973,8.566 C12.575,8.314 12.230,8.391 12.002,8.795 C11.771,9.205 11.718,9.659 11.696,10.116 C11.664,10.783 11.457,10.958 10.768,10.989 C9.295,11.056 7.897,10.839 6.599,10.117 C5.454,9.481 4.566,8.582 3.793,7.564 C2.289,5.583 1.136,3.406 0.101,1.168 C-0.132,0.664 0.038,0.393 0.611,0.384 C1.561,0.366 2.512,0.367 3.463,0.383 C3.850,0.388 4.106,0.603 4.255,0.958 C4.769,2.187 5.398,3.356 6.188,4.440 C6.398,4.729 6.613,5.017 6.918,5.220 C7.256,5.445 7.513,5.371 7.672,5.005 C7.773,4.773 7.817,4.523 7.840,4.275 C7.915,3.420 7.925,2.567 7.793,1.715 C7.712,1.183 7.404,0.839 6.858,0.739 C6.580,0.687 6.621,0.587 6.756,0.432 C6.990,0.166 7.211,-0.000 7.650,-0.000 L10.943,-0.000 C11.461,0.099 11.576,0.326 11.647,0.832 L11.650,4.388 C11.644,4.584 11.751,5.166 12.115,5.296 C12.406,5.389 12.598,5.162 12.772,4.983 C13.561,4.170 14.124,3.208 14.626,2.213 C14.849,1.776 15.041,1.321 15.227,0.867 C15.365,0.530 15.581,0.364 15.971,0.372 L19.141,0.374 C19.235,0.374 19.330,0.376 19.421,0.391 C19.955,0.479 20.101,0.702 19.936,1.210 C19.676,2.005 19.171,2.667 18.676,3.333 C18.148,4.044 17.582,4.730 17.058,5.445 C16.577,6.098 16.615,6.427 17.213,6.994 L17.213,6.994 Z" class="cls-1"/>
</svg>
