<svg xmlns="http://www.w3.org/2000/svg" width="22" height="22" viewBox="0 0 22 22">
  <metadata><?xpacket begin="﻿" id="W5M0MpCehiHzreSzNTczkc9d"?>
<x:xmpmeta xmlns:x="adobe:ns:meta/" x:xmptk="Adobe XMP Core 5.6-c138 79.159824, 2016/09/14-01:09:01        ">
   <rdf:RDF xmlns:rdf="http://www.w3.org/1999/02/22-rdf-syntax-ns#">
      <rdf:Description rdf:about=""/>
   </rdf:RDF>
</x:xmpmeta>
                                                                                                    
                                                                                                    
                                                                                                    
                                                                                                    
                                                                                                    
                                                                                                    
                                                                                                    
                                                                                                    
                                                                                                    
                                                                                                    
                                                                                                    
                                                                                                    
                                                                                                    
                                                                                                    
                                                                                                    
                                                                                                    
                                                                                                    
                                                                                                    
                                                                                                    
                                                                                                    
                           
<?xpacket end="w"?></metadata>
<defs>
    <style>
      .cls-1 {
        fill: #fff;
        fill-rule: evenodd;
      }
    </style>
  </defs>
  <path id="T" class="cls-1" d="M824,4606.25a9.731,9.731,0,0,1-15.844,7.59l-4.375,4.33a1.03,1.03,0,0,1-.75.33,1.05,1.05,0,0,1-1.031-1.03,1.035,1.035,0,0,1,.328-0.75l4.328-4.38A9.74,9.74,0,1,1,824,4606.25Zm-1.5,0a8.252,8.252,0,1,0-2.414,5.83A7.964,7.964,0,0,0,822.5,4606.25Zm-3.211-.54a0.75,0.75,0,0,1-.539,1.29H815v3.75a0.75,0.75,0,1,1-1.5,0V4607h-3.75a0.75,0.75,0,1,1,0-1.5h3.75v-3.75a0.75,0.75,0,1,1,1.5,0v3.75h3.75A0.733,0.733,0,0,1,819.289,4605.71Z" transform="translate(-802 -4596.5)"/>
</svg>
