<svg xmlns="http://www.w3.org/2000/svg" width="30" height="30" viewBox="0 0 30 30">
  <metadata><?xpacket begin="﻿" id="W5M0MpCehiHzreSzNTczkc9d"?>
<x:xmpmeta xmlns:x="adobe:ns:meta/" x:xmptk="Adobe XMP Core 5.6-c138 79.159824, 2016/09/14-01:09:01        ">
   <rdf:RDF xmlns:rdf="http://www.w3.org/1999/02/22-rdf-syntax-ns#">
      <rdf:Description rdf:about=""/>
   </rdf:RDF>
</x:xmpmeta>
                                                                                                    
                                                                                                    
                                                                                                    
                                                                                                    
                                                                                                    
                                                                                                    
                                                                                                    
                                                                                                    
                                                                                                    
                                                                                                    
                                                                                                    
                                                                                                    
                                                                                                    
                                                                                                    
                                                                                                    
                                                                                                    
                                                                                                    
                                                                                                    
                                                                                                    
                                                                                                    
                           
<?xpacket end="w"?></metadata>
<defs>
    <style>
      .cls-1 {
        fill: #1ad793;
        fill-rule: evenodd;
      }
    </style>
  </defs>
  <path id="zoom" class="cls-1" d="M596.35,965.562a12.166,12.166,0,0,1-19.8,9.492l-7.969,7.911a1.3,1.3,0,0,1-.937.41,1.3,1.3,0,0,1-1.29-1.289,1.291,1.291,0,0,1,.411-0.938l7.91-7.968A12.176,12.176,0,1,1,596.35,965.562Zm-1.875,0a10.3,10.3,0,1,0-3.017,7.295A9.944,9.944,0,0,0,594.475,965.562Zm-4.013-.674a0.938,0.938,0,0,1-.674,1.612H585.1v4.687a0.938,0.938,0,1,1-1.875,0V966.5h-4.687a0.938,0.938,0,1,1,0-1.875h4.687v-4.688a0.938,0.938,0,1,1,1.875,0v4.688h4.688A0.916,0.916,0,0,1,590.462,964.888Z" transform="translate(-566.344 -953.375)"/>
</svg>
