<svg xmlns="http://www.w3.org/2000/svg" width="22" height="22" viewBox="0 0 22 22">
  <metadata><?xpacket begin="﻿" id="W5M0MpCehiHzreSzNTczkc9d"?>
<x:xmpmeta xmlns:x="adobe:ns:meta/" x:xmptk="Adobe XMP Core 5.6-c138 79.159824, 2016/09/14-01:09:01        ">
   <rdf:RDF xmlns:rdf="http://www.w3.org/1999/02/22-rdf-syntax-ns#">
      <rdf:Description rdf:about=""/>
   </rdf:RDF>
</x:xmpmeta>
                                                                                                    
                                                                                                    
                                                                                                    
                                                                                                    
                                                                                                    
                                                                                                    
                                                                                                    
                                                                                                    
                                                                                                    
                                                                                                    
                                                                                                    
                                                                                                    
                                                                                                    
                                                                                                    
                                                                                                    
                                                                                                    
                                                                                                    
                                                                                                    
                                                                                                    
                                                                                                    
                           
<?xpacket end="w"?></metadata>
<defs>
    <style>
      .cls-1 {
        fill: #fff;
        fill-rule: #fff;
      }
    </style>
  </defs>
  <path id="T" class="cls-1" d="M781,334.248a9.734,9.734,0,0,1-15.844,7.6l-4.375,4.328a1.036,1.036,0,0,1-.75.328A1.042,1.042,0,0,1,759,345.468a1.03,1.03,0,0,1,.328-0.75l4.328-4.376A9.741,9.741,0,1,1,781,334.248Zm-1.5,0a8.242,8.242,0,1,0-2.414,5.837A7.951,7.951,0,0,0,779.5,334.248Zm-3.211-.538A0.75,0.75,0,0,1,775.75,335H772v3.75a0.75,0.75,0,1,1-1.5,0V335h-3.75a0.75,0.75,0,1,1,0-1.5h3.75v-3.75a0.75,0.75,0,1,1,1.5,0v3.75h3.75A0.73,0.73,0,0,1,776.289,333.71Z" transform="translate(-759 -324.5)"/>
</svg>
