<svg xmlns="http://www.w3.org/2000/svg" width="24" height="21"><g transform="translate(.05 -26.655)"><path d="M19.874 30.266a5.986 5.986 0 00-8.466 0l-.591.591-.6-.6a5.981 5.981 0 00-8.466-.009 5.981 5.981 0 00.009 8.466l8.608 8.608a.614.614 0 00.871 0l8.626-8.594a6 6 0 00.009-8.47zm-.88 7.595L10.8 46.019l-8.169-8.172a4.745 4.745 0 116.71-6.71l1.036 1.036a.617.617 0 00.875 0l1.027-1.027a4.748 4.748 0 016.715 6.715z" class="s-1"/><circle cx="4.5" cy="4.5" r="4.5" class="s-2" transform="translate(14.96 26.655)"/><path d="M19.295 29.273v4.297m2.149-2.149h-4.297" class="s-3"/></g></svg>