<svg xmlns="http://www.w3.org/2000/svg" width="13.699" height="12.231"><path id="Path_1602" data-name="Path 1602" d="M13.554 31.467L9.64 27.553a.489.489 0 00-.833.344v1.957H7.094q-5.451 0-6.689 3.081A6.961 6.961 0 000 35.481a9.18 9.18 0 00.971 3.448l.08.183.1.229a.869.869 0 00.1.168.261.261 0 00.214.13.223.223 0 00.18-.076.285.285 0 00.065-.191 1.557 1.557 0 00-.019-.2 1.581 1.581 0 01-.019-.18q-.038-.52-.038-.94a6.507 6.507 0 01.134-1.384 4.155 4.155 0 01.371-1.059 2.659 2.659 0 01.612-.772 3.589 3.589 0 01.806-.531 4.372 4.372 0 011.017-.325 9.694 9.694 0 011.177-.164q.593-.046 1.342-.046h1.714v1.957a.487.487 0 00.833.344l3.914-3.914a.48.48 0 000-.688z" transform="translate(0 -27.408)" fill="#919fa3"/></svg>