<svg xmlns="http://www.w3.org/2000/svg" width="25.494" height="19.831"><path d="M8.791 16.642a3.187 3.187 0 10-3.187 3.187 3.186 3.186 0 003.187-3.187zm-4.239 0a1.053 1.053 0 111.052 1.053 1.052 1.052 0 01-1.052-1.053zM16.389 5.918v6.5a6.276 6.276 0 011.052-.043 3.811 3.811 0 013.426 1.7 1.362 1.362 0 01.985-.423h3.187v-4.78l-1.935-2.959zm7.284 5.008h-3.642V7.284h2.731l.91 1.451z" class="color-fill"/><path d="M1.337 10.471s7.512 1.393 8.508 5.008h3.442s.427-2.276 2.191-2.9V5.008h8.009l1.323-1.821H14.568l-1.252 2.731H0v1.821h1.366zm20.514 4.097a.5.5 0 00-.455.455v.91a.455.455 0 00.455.455h3.187a.456.456 0 00.455-.455v-.91a.456.456 0 00-.455-.455zm-1.223 2.074c0-.043 0-.085-.006-.127a3.106 3.106 0 10.006.127zm-4.239 0a1.053 1.053 0 111.052 1.053 1.052 1.052 0 01-1.052-1.053z" class="color-fill"/><path d="M13.506 2.969l-.475-1.153h-1.363L10.468 0H8.706L6.828 2.276H5.386l-1.29 1.366H3.11L1.593 5.008h10.926z" class="color-fill"/></svg>