<svg xmlns="http://www.w3.org/2000/svg" width="29.999" height="17.912"><path d="M27.4 7.716a3.179 3.179 0 01.032.427.886.886 0 01-.221.6 5.738 5.738 0 00-10.37 1.356H10.58a3.331 3.331 0 00-.318-.707l6.264.007a5.445 5.445 0 012.058-2.836h-2.742L13.724.391a.514.514 0 00-.5-.387H7.739a.514.514 0 00-.514.514v6.387a.507.507 0 00.043.2v.61H6.045a3.391 3.391 0 00-2.426 1.019 4.647 4.647 0 105.676 4.53c0-.093-.008-.184-.014-.276h.453a4.272 4.272 0 01-.534 2.639h8.16a7.193 7.193 0 01-1.4-2.636h.764a5.739 5.739 0 0010.931.924 3.18 3.18 0 00-.257-6.2zM4.648 16.369a3.1 3.1 0 113.1-3.105 3.108 3.108 0 01-3.1 3.105zm3.605-9.982v-5.36h4.573l1.924 5.358zm14.076 1.179a4.193 4.193 0 013.44 1.8 17.969 17.969 0 01-3.345.113 2.462 2.462 0 00-.347-.026h-2.52a2.446 2.446 0 00-.813.14 4.2 4.2 0 013.585-2.027zm0 8.395a4.206 4.206 0 01-4.015-2.973h.786a2.159 2.159 0 00.217-.012c.08.007.16.012.242.012h2.521c.087 0 .174-.006.259-.015a3.165 3.165 0 002.358 1.053h1.163a4.2 4.2 0 01-3.531 1.935z" class="color-fill"/></svg>