<svg xmlns="http://www.w3.org/2000/svg" width="18.201" height="20.801"><path d="M6.067 1.733H5.2v-1.3A.433.433 0 004.767 0H1.3a.433.433 0 00-.433.433v1.3H0v1.734h6.067z" class="color-fill"/><path d="M14.734 0h-1.292a3.481 3.481 0 00-3.333 2.514l-.842 2.947a.433.433 0 01-.477.31l-3.216-.448a.433.433 0 01-.373-.429v-.56H.867v14.3A2.167 2.167 0 003.034 20.8h13a2.167 2.167 0 002.167-2.167V3.467A3.467 3.467 0 0014.734 0zm-1.12 16.721l-1.226 1.226-2.346-2.347H9.026L6.68 17.946 5.454 16.72 7.8 14.374V13.36l-2.346-2.346L6.68 9.788l2.346 2.346h1.015l2.346-2.346 1.226 1.226-2.346 2.346v1.015zm1.492-9.7l-2.525-.365a.433.433 0 01-.361-.523l.713-3.19a.433.433 0 01.423-.339h1.811a.433.433 0 01.433.433v3.551a.433.433 0 01-.5.429z" class="color-fill"/></svg>