<svg xmlns="http://www.w3.org/2000/svg" width="22.013" height="21.96"><g id="bank" opacity=".5" fill="#919fa3"><path d="M89.39 217.275h2.6v5.492h-2.6z" transform="translate(-85.532 -207.923)"/><path d="M179.7 217.275h2.6v5.492h-2.6z" transform="translate(-171.944 -207.923)"/><path d="M270 217.275h2.6v5.492H270z" transform="translate(-258.346 -207.923)"/><path d="M360.3 217.275h2.6v5.492h-2.6z" transform="translate(-344.749 -207.923)"/><path d="M87.745.665L80.43 5.1H95.5L88.184.665a.431.431 0 00-.439 0z" transform="translate(-76.958 -.605)"/><path d="M59.017 136.667v-1.832H40.5v1.832a.432.432 0 00.432.432h17.653a.432.432 0 00.432-.432z" transform="translate(-38.752 -129.042)"/><path d="M58.585 374.505H40.932a.432.432 0 00-.432.432v1.832h18.517v-1.832a.432.432 0 00-.432-.432z" transform="translate(-38.752 -358.367)"/><path d="M0 457.387v1.4a.432.432 0 00.432.432h21.149a.432.432 0 00.432-.432v-1.4a.432.432 0 00-.432-.432H.432a.432.432 0 00-.432.432z" transform="translate(0 -437.258)"/></g></svg>