<svg xmlns="http://www.w3.org/2000/svg" width="26.034" height="16.567"><path d="M8.876 3.55H2.959a.592.592 0 00-.592.592v1.183a.592.592 0 00.592.592h5.917a.592.592 0 00.592-.592V4.142a.592.592 0 00-.592-.592zm8.283 0h-5.917a.592.592 0 00-.592.592v1.183a.592.592 0 00.592.592h5.917a.592.592 0 00.592-.592V4.142a.592.592 0 00-.592-.592zm5.917 3.55h-5.917a.592.592 0 00-.592.592v1.183a.592.592 0 00.592.592h5.917a.592.592 0 00.592-.592V7.692a.592.592 0 00-.592-.592zm2.367 3.55h-5.917a.592.592 0 00-.592.592v1.183a.592.592 0 00.592.592h5.917a.592.592 0 00.592-.592v-1.183a.592.592 0 00-.592-.592zM6.509 14.201H.592a.592.592 0 00-.592.592v1.183a.592.592 0 00.592.592h5.917a.592.592 0 00.592-.592v-1.183a.592.592 0 00-.592-.592zm10.65-3.551h-5.917a.592.592 0 00-.592.592v1.183a.592.592 0 00.592.592h5.917a.592.592 0 00.592-.592v-1.183a.592.592 0 00-.592-.592zm5.917 3.551h-5.917a.592.592 0 00-.592.592v1.183a.592.592 0 00.592.592h5.917a.592.592 0 00.592-.592v-1.183a.592.592 0 00-.592-.592zm-8.283 0H8.876a.592.592 0 00-.592.592v1.183a.592.592 0 00.592.592h5.917a.592.592 0 00.592-.592v-1.183a.592.592 0 00-.592-.592zM8.876 10.65H2.959a.592.592 0 00-.592.592v1.183a.592.592 0 00.592.592h5.917a.592.592 0 00.592-.592v-1.183a.592.592 0 00-.592-.592zm5.917-3.55H8.876a.592.592 0 00-.592.592v1.183a.592.592 0 00.592.592h5.917a.592.592 0 00.592-.592V7.692a.592.592 0 00-.592-.592zm0-7.1H8.876a.592.592 0 00-.592.592v1.183a.592.592 0 00.592.592h5.917a.592.592 0 00.592-.592V.592A.592.592 0 0014.793 0z" class="color-fill"/></svg>