<svg xmlns="http://www.w3.org/2000/svg" width="33.298" height="17.762"><path d="M.555 15.539h2.83a2.765 2.765 0 004.94 1.093 2.766 2.766 0 004.939-1.093h11.21a2.775 2.775 0 005.439 0h2.83a.555.555 0 00.555-.555v-4.213a7.2 7.2 0 00-.2-1.669l-1.212-5.1a2.226 2.226 0 00-2.177-1.785H13.107L12.154.312a.555.555 0 00-.5-.307H3.885a.555.555 0 00-.5.307L2.432 2.22H.555A.555.555 0 000 2.775v12.209a.555.555 0 00.555.555zm5.55 1.11a1.665 1.665 0 111.665-1.665 1.665 1.665 0 01-1.67 1.665zm4.44 0a1.665 1.665 0 111.665-1.665 1.665 1.665 0 01-1.666 1.665zm16.649 0a1.665 1.665 0 111.665-1.665 1.665 1.665 0 01-1.665 1.665zm4.828-7.291c.006.026.008.051.013.077h-4.287V5.55h3.369zM4.228 1.112h7.084l.555 1.11H3.673zM1.11 3.33h28.6a1.119 1.119 0 011.093.912l.05.2H1.11zm25.529 2.22v3.885h-3.33V5.55zm-4.44 0v3.885h-3.33V5.55zm-4.44 0v3.885h-3.33V5.55zm-4.44 0v3.885h-3.33V5.55zm-4.44 0v3.885H5.55V5.55zm-7.77 0H4.44v3.885H1.11zm0 7.215H2.22v-1.11H1.11v-1.11h31.065c0 .075.013.15.013.226v.884h-1.11v1.11h1.11v1.665h-2.275a.147.147 0 00-.009-.029 2.745 2.745 0 00-.144-.462c-.022-.056-.051-.1-.076-.154a2.872 2.872 0 00-.16-.294c-.035-.056-.076-.106-.115-.158a2.862 2.862 0 00-.2-.238c-.047-.049-.095-.1-.145-.142a2.624 2.624 0 00-.234-.193q-.083-.061-.166-.116a2.955 2.955 0 00-.278-.149 15.002 15.002 0 00-.177-.083 2.755 2.755 0 00-.333-.1c-.056-.014-.107-.033-.164-.044a2.631 2.631 0 00-1.054 0c-.056.011-.111.03-.164.044a2.768 2.768 0 00-.333.1c-.061.024-.118.056-.177.083a2.927 2.927 0 00-.278.149q-.083.055-.166.116a2.592 2.592 0 00-.234.193c-.05.046-.1.092-.145.142a2.954 2.954 0 00-.2.238c-.039.052-.079.1-.115.158a2.829 2.829 0 00-.16.294c-.025.052-.056.1-.076.154a2.767 2.767 0 00-.144.462.137.137 0 01-.009.029h-11.2a.147.147 0 00-.009-.029 2.787 2.787 0 00-.144-.462c-.022-.056-.051-.1-.076-.154a2.871 2.871 0 00-.16-.294c-.035-.056-.076-.106-.115-.158a2.907 2.907 0 00-.2-.238c-.047-.049-.095-.1-.145-.142a2.624 2.624 0 00-.234-.193q-.083-.061-.167-.116a2.923 2.923 0 00-.277-.149 15.002 15.002 0 00-.177-.083 2.727 2.727 0 00-.33-.1c-.056-.014-.107-.033-.166-.044a2.583 2.583 0 00-1.033 0l-.086.016a2.767 2.767 0 00-.451.14l-.082.036a2.791 2.791 0 00-.42.228l-.022.017a2.789 2.789 0 00-.357.295l-.056.051a2.778 2.778 0 00-.235.272 2.827 2.827 0 00-.242-.278.917.917 0 00-.056-.051 2.81 2.81 0 00-.357-.295l-.022-.017a2.8 2.8 0 00-.42-.228l-.072-.042a2.792 2.792 0 00-.451-.14l-.086-.016a2.581 2.581 0 00-1.033 0c-.056.011-.111.03-.164.044a2.716 2.716 0 00-.333.1c-.061.024-.118.056-.177.083a2.91 2.91 0 00-.275.149 4.17 4.17 0 00-.166.116 2.627 2.627 0 00-.234.193c-.05.046-.1.092-.145.142a2.832 2.832 0 00-.2.238c-.039.052-.079.1-.115.158a2.809 2.809 0 00-.16.294c-.025.052-.056.1-.076.154a2.732 2.732 0 00-.144.462.147.147 0 01-.009.029H1.11zm0 0" fill="#3c4b5a"/><path d="M13.321 11.655h11.1v1.11h-11.1zm0 0" fill="#3c4b5a"/></svg>