<svg xmlns="http://www.w3.org/2000/svg" width="33.298" height="13.32"><path d="M19.424 4.995h-2.22v1.109h2.22zm0 0" fill="#3c4b5a"/><path d="M.476 3.335l3.77-.538a19.021 19.021 0 012.136-1.132A18.689 18.689 0 0114.114 0h.655a18.864 18.864 0 019.008 2.3l1.9 1.038a13.113 13.113 0 016.346 1.72A2.534 2.534 0 0133.3 7.249v3.3a.555.555 0 01-.555.555H30.88a3.318 3.318 0 01-6.262 0H9.791a3.318 3.318 0 01-6.262 0h-.2a.557.557 0 01-.206-.04l-1.8-.721A2.1 2.1 0 010 8.38v-4.5a.555.555 0 01.476-.545zm25.1 7.1a2.22 2.22 0 10-.045-.444 2.22 2.22 0 00.043.442zm-10.034-.444h8.88a3.33 3.33 0 116.66 0h1.11V7.249a1.42 1.42 0 00-.714-1.23 12 12 0 00-5.945-1.579h-9.994zm0-6.66h7.813l-.107-.058a17.745 17.745 0 00-7.706-2.137zm-1.113-2.223h-.314a17.565 17.565 0 00-6.53 1.251l.969.969h5.875zm-9.944 9.325a2.22 2.22 0 10-.045-.444 2.22 2.22 0 00.045.444zM1.11 4.995h1.665v1.113H1.11V8.38a.993.993 0 00.628.927l1.592.639c0-.051.007-.1.01-.153s0-.111.01-.166.017-.111.026-.166.016-.111.027-.161.027-.107.042-.159.026-.106.042-.158.037-.1.055-.152l.056-.153c.02-.053.046-.1.069-.142s.046-.1.072-.147.056-.088.081-.133.055-.1.087-.14.061-.082.092-.123.065-.089.1-.132.069-.076.1-.111.073-.082.111-.121.076-.07.114-.1.079-.075.122-.111.085-.064.127-.1.084-.065.129-.1.094-.055.142-.086.087-.056.132-.079.1-.049.152-.073.091-.046.138-.066.111-.041.166-.061.092-.036.139-.051c.063-.019.128-.033.193-.049.042-.01.083-.023.125-.032.068-.014.138-.022.208-.032.041-.005.08-.014.121-.018a3.383 3.383 0 01.338-.017 3.333 3.333 0 013.33 3.33h4.441V4.44h-6.1a.554.554 0 01-.392-.163L6.493 2.838a17.8 17.8 0 00-1.759.962.557.557 0 01-.215.079l-3.409.487zm0 0" fill="#3c4b5a"/></svg>