<svg xmlns="http://www.w3.org/2000/svg" xmlns:xlink="http://www.w3.org/1999/xlink" width="60" height="60.182" viewBox="0 0 60 60.182"><defs><clipPath id="a"><rect width="60" height="60.182" fill="none"/></clipPath></defs><g clip-path="url(#a)"><g transform="translate(0 1.55)"><path d="M60,139.6a.91.91,0,0,0-.016-.113v0a.9.9,0,0,0-.031-.108l-.009-.024a.9.9,0,0,0-.041-.093l-.007-.014a.918.918,0,0,0-.062-.1l0-.007-6.151-8.478a5.482,5.482,0,0,0-.776-8.452,3.611,3.611,0,0,0,.54-1.909,3.75,3.75,0,0,0-7.5,0,3.611,3.611,0,0,0,.54,1.909,5.5,5.5,0,0,0-2.335,3.627h-3.83v-1.845a.93.93,0,0,0-.938-.923H34.687V112.922A.93.93,0,0,0,33.75,112h-7.5a.93.93,0,0,0-.937.923v6.458H20.625a.93.93,0,0,0-.937.923v5.536H10.312a.942.942,0,0,0-.763.386l-4.022,5.536h0L.174,139.142h0a.907.907,0,0,0-.175.536v3.69a.93.93,0,0,0,.937.923H25.473a2.715,2.715,0,0,0-.161.923v11.994a.93.93,0,0,0,.937.923h7.5a.93.93,0,0,0,.938-.923v-4.965l3.232-1.59a.936.936,0,0,0,.294-.226l3.152-3.632a.924.924,0,0,0,.091-.124,2.35,2.35,0,0,0,.045-2.378H59.062a.93.93,0,0,0,.937-.923v-3.69c0-.015,0-.031,0-.046s0-.021,0-.031ZM48.3,123.327a.925.925,0,0,0,.579-.73.916.916,0,0,0-.356-.857,1.791,1.791,0,0,1-.713-1.438,1.875,1.875,0,0,1,3.75,0,1.791,1.791,0,0,1-.713,1.438.916.916,0,0,0-.356.857.925.925,0,0,0,.579.73,3.67,3.67,0,0,1,.8,6.436,3.811,3.811,0,0,1-2.187.689,3.685,3.685,0,0,1-1.385-7.125Zm-9.865,1.589v4.613h-3.75v-4.613Zm-11.25-11.071h5.625v15.684H27.187Zm-5.625,7.381h3.75v8.3h-3.75Zm-10.768,6.458h8.893v2.768a.93.93,0,0,0,.938.923h18.75a.93.93,0,0,0,.938-.923v-2.768h3.83a5.593,5.593,0,0,0,4.608,4.535v1a.938.938,0,0,0,1.875,0v-1a5.676,5.676,0,0,0,1.525-.481l5.091,7.017H25.312v-2.768a.93.93,0,0,0-.937-.923H15.937V132.3a.93.93,0,0,0-.937-.923H8.113ZM6.773,133.22h7.289v2.768a.93.93,0,0,0,.938.923h8.437v1.845H2.758Zm26.039,23.065H27.187V154.44h5.625Zm7.063-10.617-2.965,3.417-3.58,1.762a.921.921,0,0,0-.518.825v.923H27.187v-7.381a.938.938,0,0,1,1.875,0v1.845a.93.93,0,0,0,.938.923h5.625a.945.945,0,0,0,.663-.27l2.7-2.654a.559.559,0,0,1,.78,0,.536.536,0,0,1,.111.611Zm-4.639.468h-4.3v-.923a2.715,2.715,0,0,0-.161-.923h6.335Zm22.888-3.69H1.875V140.6h56.25Z" transform="translate(0 -99.498)" fill="#3c4b5a"/><path d="M64.99,82.97a.99.99,0,0,0,.99-.99v-.99a.99.99,0,0,0-1.98,0v.99A.99.99,0,0,0,64.99,82.97Z" transform="translate(-56.08 -72.019)" fill="#3c4b5a"/><path d="M13.948,106.367l.78.609a1,1,0,0,0,1.39-.171.99.99,0,0,0-.171-1.39l-.78-.609a.99.99,0,0,0-1.219,1.56Z" transform="translate(-11.888 -93.737)" fill="#3c4b5a"/><path d="M2.888,159.766a.994.994,0,0,0,.24-.03l.961-.239a.99.99,0,1,0-.479-1.921l-.961.239a.99.99,0,0,0,.239,1.951Z" transform="translate(-1.664 -140.49)" fill="#3c4b5a"/><path d="M38.554,197.956a1,1,0,0,0,1.307-.5l.4-.9a.99.99,0,1,0-1.809-.805l-.4.9a.99.99,0,0,0,.5,1.307Z" transform="translate(-33.269 -173.716)" fill="#3c4b5a"/><path d="M90.814,193.559a.99.99,0,0,0-.409,1.339l.465.874a1,1,0,0,0,1.339.409.99.99,0,0,0,.409-1.339l-.465-.874A.99.99,0,0,0,90.814,193.559Z" transform="translate(-79.732 -172.202)" fill="#3c4b5a"/><path d="M119.966,155.688l.975.172a.99.99,0,0,0,.344-1.95l-.975-.172a.99.99,0,0,0-.344,1.95Z" transform="translate(-105.224 -137.113)" fill="#3c4b5a"/><path d="M107.268,103.564,108,102.9a.99.99,0,0,0-1.325-1.471l-.736.662a.99.99,0,0,0-.073,1.4,1,1,0,0,0,1.4.073Z" transform="translate(-93.27 -90.717)" fill="#3c4b5a"/><path d="M43.96,127.92A3.96,3.96,0,1,0,40,123.96,3.964,3.964,0,0,0,43.96,127.92Zm0-5.94a1.98,1.98,0,1,1-1.98,1.98A1.982,1.982,0,0,1,43.96,121.98Z" transform="translate(-35.05 -107.419)" fill="#3c4b5a"/><path d="M362.27,45.65a.99.99,0,1,0,1.4-1.4l-.29-.29h.34a3.934,3.934,0,0,0,2.8-1.16,1.982,1.982,0,0,1,2.8,0l.75.75a3.964,3.964,0,0,0,5.6,0,1.967,1.967,0,0,1,1.4-.58h.75a.99.99,0,0,0,0-1.98h-.75a3.934,3.934,0,0,0-2.8,1.16,1.982,1.982,0,0,1-2.8,0l-.75-.75a3.96,3.96,0,0,0-5.6,0,1.967,1.967,0,0,1-1.4.58h-.34l.29-.29a.99.99,0,1,0-1.4-1.4l-1.98,1.98a.99.99,0,0,0,0,1.4Z" transform="translate(-318.809 -36.408)" fill="#63b5fc"/><path d="M377.819,96.99h-.75a3.934,3.934,0,0,0-2.8,1.16,1.982,1.982,0,0,1-2.8,0l-.75-.75a3.96,3.96,0,0,0-5.6,0,1.967,1.967,0,0,1-1.4.58h-.34l.29-.29a.99.99,0,1,0-1.4-1.4l-1.98,1.98a.99.99,0,0,0,0,1.4l1.98,1.98a.99.99,0,1,0,1.4-1.4l-.29-.29h.34a3.934,3.934,0,0,0,2.8-1.16,1.982,1.982,0,0,1,2.8,0l.75.75a3.964,3.964,0,0,0,5.6,0,1.967,1.967,0,0,1,1.4-.58h.75a.99.99,0,0,0,0-1.98Z" transform="translate(-318.809 -86.184)" fill="#63b5fc"/><path d="M101.956,8.274a1,1,0,0,0,1.4-.1A21.724,21.724,0,0,1,117.261.824C122,.269,124.54.623,127.9,2.346l-.771.361a.99.99,0,1,0,.841,1.793l2.834-1.329a.99.99,0,0,0,.476-1.317L129.956-.98a.99.99,0,0,0-1.317-.476.99.99,0,0,0-.476,1.317l.246.525c-3.975-1.94-7.016-2.04-11.379-1.528a23.7,23.7,0,0,0-15.173,8.02.99.99,0,0,0,.1,1.4Z" transform="translate(-90.298)" fill="#63b5fc"/><path d="M248.99,144a.99.99,0,0,0-.99.99v.99a.99.99,0,1,0,1.98,0v-.99A.99.99,0,0,0,248.99,144Z" transform="translate(-218.99 -128.54)" fill="#3c4b5a"/><path d="M248.99,184a.99.99,0,0,0-.99.99v.99a.99.99,0,1,0,1.98,0v-.99A.99.99,0,0,0,248.99,184Z" transform="translate(-218.99 -163.865)" fill="#3c4b5a"/><path d="M248.99,224a.99.99,0,0,0-.99.99v.99a.99.99,0,0,0,1.98,0v-.99A.99.99,0,0,0,248.99,224Z" transform="translate(-218.99 -199.191)" fill="#3c4b5a"/><path d="M361.69,291.67l.29-.29v.456a.99.99,0,0,0,1.98,0v-.456l.29.29a.99.99,0,0,0,1.4-1.4l-1.98-1.98a.99.99,0,0,0-1.4,0l-1.98,1.98a.99.99,0,0,0,1.4,1.4Z" transform="translate(-318.057 -255.775)" fill="#63b5fc"/><path d="M297.69,291.67l.29-.29v.58a.99.99,0,1,0,1.98,0v-.58l.29.29a.99.99,0,0,0,1.4-1.4l-1.98-1.98a.99.99,0,0,0-1.4,0l-1.98,1.98a.99.99,0,0,0,1.4,1.4Z" transform="translate(-261.514 -255.779)" fill="#63b5fc"/><path d="M233.69,291.67l.29-.29v.456a.99.99,0,0,0,1.98,0v-.456l.29.29a.99.99,0,0,0,1.4-1.4l-1.98-1.98a.99.99,0,0,0-1.4,0l-1.98,1.98a.99.99,0,0,0,1.4,1.4Z" transform="translate(-204.97 -255.775)" fill="#63b5fc"/></g></g></svg>