<svg xmlns="http://www.w3.org/2000/svg" width="18.455" height="15.821"><path d="M17.22 3.28a8.348 8.348 0 00-3.357-2.4 11.972 11.972 0 00-4.634-.881 12.246 12.246 0 00-3.584.52A10.023 10.023 0 002.7 1.926 7.025 7.025 0 00.731 4.032 4.905 4.905 0 000 6.593a5 5 0 00.932 2.894 7.562 7.562 0 002.549 2.266 6.546 6.546 0 01-.268.782q-.154.371-.278.608a4.184 4.184 0 01-.335.525q-.211.288-.319.407l-.355.391q-.247.273-.319.355a.72.72 0 00-.082.093l-.072.087-.063.092q-.052.077-.046.1a.274.274 0 01-.021.1.136.136 0 00.005.124v.01a.518.518 0 00.18.3.4.4 0 00.314.092A7.73 7.73 0 003 15.593a11.256 11.256 0 004.737-2.492 14.09 14.09 0 001.493.082 11.968 11.968 0 004.634-.881 8.347 8.347 0 003.357-2.4 5.053 5.053 0 000-6.622z" class="cls-2" data-name="Path 7"/></svg>