<svg xmlns="http://www.w3.org/2000/svg" width="44.854" height="44.854"><g id="compass" opacity=".5" fill="#78a86d"><path d="M22.427 0a22.427 22.427 0 1022.427 22.427A22.427 22.427 0 0022.427 0zm0 43.358a20.932 20.932 0 1120.931-20.931 20.932 20.932 0 01-20.931 20.931zm0 0"/><path d="M58.689 40a18.689 18.689 0 1018.689 18.689A18.689 18.689 0 0058.689 40zm0 35.883a17.194 17.194 0 1117.194-17.194 17.194 17.194 0 01-17.194 17.194zm0 0" transform="translate(-36.262 -36.262)"/><path d="M142.076 120.059a.747.747 0 00-.9-.12l-13.346 7.617c-.008.005-.012.014-.02.019a2.238 2.238 0 00-.239.239c0 .008-.014.012-.019.02l-7.619 13.346a.748.748 0 001.02 1.02l13.344-7.617c.008-.005.012-.014.02-.019a2.238 2.238 0 00.239-.239c0-.008.014-.012.019-.02l7.619-13.344a.748.748 0 00-.118-.902zm-19.484 19.484l5.776-10.115 4.343 4.339zm11.173-6.829l-4.336-4.336 10.115-5.776zm0 0" transform="translate(-108.639 -108.643)"/><path d="M75.738 232h-2.99a.748.748 0 100 1.5h2.99a.748.748 0 000-1.5zm0 0" transform="translate(-65.272 -210.321)"/><path d="M363.738 232h-2.99a.748.748 0 100 1.5h2.99a.748.748 0 100-1.5zm0 0" transform="translate(-326.36 -210.321)"/><path d="M232.748 76.485a.748.748 0 00.748-.748v-2.99a.748.748 0 10-1.5 0v2.99a.748.748 0 00.752.748zm0 0" transform="translate(-210.321 -65.272)"/><path d="M232.748 360a.748.748 0 00-.748.748v2.99a.748.748 0 101.5 0v-2.99a.748.748 0 00-.752-.748zm0 0" transform="translate(-210.321 -326.36)"/></g></svg>