<svg xmlns="http://www.w3.org/2000/svg" width="20.767" height="23.632"><g transform="translate(-31.04)"><path d="M46.715 18.538c-1.35 1.35-1.569 3.326-.49 4.406 1.179 1.179 3.207.71 4.406-.49 1.349-1.35 1.569-3.326.49-4.406-1.155-1.156-3.175-.74-4.406.49zm-10.094 4.407c1.08-1.08.86-3.056-.489-4.406-1.224-1.223-3.239-1.658-4.406-.489-1.079 1.08-.859 3.057.489 4.406 1.201 1.197 3.223 1.672 4.406.489zm-3.164-6.965a5.046 5.046 0 012.387.664 13.45 13.45 0 012.237-5.062 7.046 7.046 0 01-1.81-1.446 5.72 5.72 0 00-3.848 5.188 4.976 4.976 0 00.068.786 4.017 4.017 0 01.966-.13zm13.116-5.844a7.045 7.045 0 01-1.81 1.446A13.451 13.451 0 0147 16.644a5.054 5.054 0 012.386-.662 4.035 4.035 0 01.967.13 4.97 4.97 0 00.068-.788 5.72 5.72 0 00-3.848-5.188zm-3.138 2.016a6.682 6.682 0 01-4.022 0 12.035 12.035 0 00-2.353 5.365 4.748 4.748 0 011.136 5.586 10.124 10.124 0 006.455 0 4.75 4.75 0 011.136-5.586 12.033 12.033 0 00-2.352-5.365zm-1.319 7.326h-1.385v-1.385h1.385zm0-2.769h-1.385v-1.385h1.385zm-6.232-11.17a5.539 5.539 0 1011.077 0 2.769 2.769 0 10-2.22-4.41 5.442 5.442 0 00-6.637 0 2.766 2.766 0 10-2.22 4.41zM43.5 3.462h1.385v1.384H43.5zm.692 3.462C44.192 8.088 42.976 9 41.423 9s-2.769-.912-2.769-2.077 1.216-2.077 2.769-2.077 2.769.912 2.769 2.077zm-6.231-3.462h1.385v1.384h-1.385z" class="color-fill"/><ellipse cx="1.385" cy=".692" rx="1.385" ry=".692" transform="translate(40.039 6.231)" class="color-fill"/></g></svg>