<svg xmlns="http://www.w3.org/2000/svg" width="60" height="57.254" viewBox="0 0 60 57.254"><g transform="translate(0 -0.469)"><path d="M179.937,222.977a7.422,7.422,0,1,1-7.422-7.422A7.422,7.422,0,0,1,179.937,222.977Zm0,0" transform="translate(-142.039 -185.098)" fill="#78a86d"/><path d="M166.752,225.694a8.482,8.482,0,1,1,8.482-8.482A8.491,8.491,0,0,1,166.752,225.694Zm0-14.844a6.361,6.361,0,1,0,6.361,6.362A6.369,6.369,0,0,0,166.752,210.851Zm0,0" transform="translate(-136.277 -179.38)" fill="#78a86d"/><path d="M60.531,224.044a33.274,33.274,0,0,1,6.057,2.214l9.1,4.361a12.914,12.914,0,0,0,10.871.178l7.316-3.226,1.311-.361a11.96,11.96,0,0,0,7.794-7.245l7.089-17.759h-.586a7.147,7.147,0,0,0-5.882,3.242l-8.726,11.079" transform="translate(-51.13 -175.238)" fill="#eaf5e7"/><path d="M75.536,227.2a14.012,14.012,0,0,1-6.038-1.369l-9.136-4.361a32.7,32.7,0,0,0-5.915-2.154,1.068,1.068,0,0,1-.72-1.274.966.966,0,0,1,1.161-.791,34.537,34.537,0,0,1,6.245,2.274l9.135,4.361a12.2,12.2,0,0,0,10.17.166l7.343-3.226a.93.93,0,0,1,.125-.044l1.316-.362a11.063,11.063,0,0,0,7.174-6.644l6.491-16.2a6.372,6.372,0,0,0-4.21,2.743l-8.8,11.138a.908.908,0,0,1-1.362.106,1.134,1.134,0,0,1-.1-1.5l8.758-11.079a8.114,8.114,0,0,1,6.633-3.607h.588a.947.947,0,0,1,.809.48,1.153,1.153,0,0,1,.075,1.006l-7.116,17.759a13.07,13.07,0,0,1-8.473,7.847l-1.253.343-7.283,3.2a13.975,13.975,0,0,1-5.619,1.179Zm0,0" transform="translate(-45.361 -169.474)" fill="#3c4b5a"/><path d="M29.372,245.843l.053-.018a17.969,17.969,0,0,1,5.68-.922h14a3.758,3.758,0,1,0,0-7.516H39.069a12.882,12.882,0,0,1-6.792-1.9,37.242,37.242,0,0,0-11.36-4.673c-8.455-1.88-14.092,5.637-14.092,5.637v10.334l3.294.329q.295.029.588.063" transform="translate(-5.764 -198.115)" fill="#eaf5e7"/><path d="M4.944,242.439a1.071,1.071,0,0,1-.124-.007L.955,242.04A1.06,1.06,0,0,1,0,240.986V230.651a1.06,1.06,0,0,1,.212-.636c.246-.329,6.151-8.043,15.169-6.036a38.317,38.317,0,0,1,11.69,4.808,11.8,11.8,0,0,0,6.234,1.743H43.336a4.818,4.818,0,0,1,0,9.637h-14a16.892,16.892,0,0,0-5.344.867l-.389-.988-.329-1.008.053-.018a18.963,18.963,0,0,1,6.009-.974h14a2.7,2.7,0,1,0,0-5.4H33.3a13.918,13.918,0,0,1-7.351-2.062,36.194,36.194,0,0,0-11.031-4.54c-6.83-1.515-11.745,3.727-12.8,4.978v9l2.945.3a1.06,1.06,0,0,1-.121,2.113Zm0,0" transform="translate(0 -193.349)" fill="#3c4b5a"/><path d="M233.429,111.327s-4.7-13.153,12.213-12.213C245.642,99.114,246.582,117.9,233.429,111.327Zm0,0" transform="translate(-200.175 -84.812)" fill="#78a86d" opacity="0.15"/><path d="M232.647,108.018a12.446,12.446,0,0,1-5.472-1.51,1.063,1.063,0,0,1-.524-.592c-.082-.23-1.977-5.679,1.034-9.71,2.188-2.93,6.3-4.249,12.236-3.919a1.059,1.059,0,0,1,1,1.006c.021.422.459,10.359-4.609,13.668A6.554,6.554,0,0,1,232.647,108.018Zm-4.12-3.212c2.785,1.307,5.012,1.434,6.626.38,3-1.963,3.655-7.789,3.67-10.821-4.649-.113-7.814.934-9.439,3.11-1.934,2.589-1.182,6.152-.857,7.331Zm0,0" transform="translate(-194.437 -79.004)" fill="#3c4b5a"/><path d="M118.12,20.626s-14.4,5.293-13.54-13.292C104.58,7.335,125.209,6.112,118.12,20.626Zm0,0" transform="translate(-89.951 -5.777)" fill="#78a86d" opacity="0.15"/><g transform="translate(13.032 0.469)"><path d="M108.083,16.609a9.918,9.918,0,0,1-5.942-1.789c-3.211-2.353-4.686-6.832-4.386-13.312a1.06,1.06,0,0,1,1-1.009c.459-.027,11.315-.606,14.967,4.878,1.7,2.552,1.562,5.894-.413,9.937a1.059,1.059,0,0,1-.587.53,14.642,14.642,0,0,1-4.636.766Zm4.27-1.761h.01ZM99.841,2.585c-.092,5.19,1.1,8.728,3.552,10.524,2.934,2.149,6.94,1.236,8.2.869,1.441-3.127,1.563-5.624.362-7.427-2.233-3.351-8.78-4.007-12.113-3.966Zm0,0" transform="translate(-97.716 -0.469)" fill="#3c4b5a"/><path d="M151.34,76.058c-.033,0-.067,0-.1,0a.977.977,0,0,1-.959-.969c.063-1.089.169-2.124.314-3.1.441-6.557.214-21.826-10.834-26.051a.885.885,0,0,1-.547-1.22,1.126,1.126,0,0,1,1.4-.478c6.51,2.489,10.606,8.686,11.842,17.921.111.828.194,1.643.256,2.438,2.91-6.425,7.361-8.7,7.626-8.825a1.146,1.146,0,0,1,1.444.354.867.867,0,0,1-.4,1.26c-.112.057-6.938,3.637-8.651,14.676-.13,1.888-.318,3.092-.336,3.2a1.024,1.024,0,0,1-1.049.8Zm0,0" transform="translate(-132.694 -37.371)" fill="#3c4b5a"/></g></g></svg>