<svg xmlns="http://www.w3.org/2000/svg" width="65.273" height="48.743"><path d="M62.472 14.056c-4.427 3.982-16.113 13.151-29.833 13.151S7.231 18.038 2.803 14.056c-1.228 1.1-1.9 1.81-1.9 1.81s14.209 14.96 31.734 14.96 31.735-14.96 31.735-14.96-.671-.706-1.9-1.81z" fill="#e2ddcf"/><path d="M32.637 31.734c-17.71 0-31.8-14.62-32.387-15.243a.9.9 0 010-1.246C.841 14.623 14.928.002 32.637.002s31.8 14.62 32.387 15.243a.9.9 0 010 1.246c-.591.62-14.678 15.243-32.387 15.243zM2.191 15.866c2.912 2.8 15.554 14.056 30.446 14.056s27.53-11.257 30.445-14.056C60.167 13.067 47.529 1.81 32.637 1.81S5.103 13.067 2.191 15.866z" fill="#3c4b5a"/><path d="M42.221 10.333a.9.9 0 00-1.236-.331l-8.348 4.816-8.347-4.819a.904.904 0 00-.9 1.567l8.347 4.819v9.639a.905.905 0 001.81 0v-9.635l8.347-4.819a.9.9 0 00.327-1.237z" fill="#e2ddcf"/><path d="M32.637 26.933a.905.905 0 01-.452-.121l-8.8-5.081a.905.905 0 01-.452-.784V10.786a.905.905 0 01.452-.784l8.8-5.081a.906.906 0 01.9 0l8.8 5.081a.905.905 0 01.452.784v10.161a.905.905 0 01-.452.784l-8.8 5.081a.9.9 0 01-.452.122zm-7.893-6.508l7.895 4.558 7.895-4.558v-9.116l-7.895-4.558-7.895 4.558zm16.695.523zm23.569 20.339l-5.912-5.912a.905.905 0 10-1.28 1.28l4.367 4.367H3.089l4.367-4.367a.905.905 0 10-1.28-1.28L.267 41.287a.905.905 0 000 1.28l5.912 5.912a.905.905 0 101.28-1.28l-4.368-4.367h59.094l-4.367 4.367a.905.905 0 001.28 1.28l5.912-5.912a.9.9 0 000-1.28z" fill="#c6ab8a"/></svg>