<svg xmlns="http://www.w3.org/2000/svg" width="139.481" height="18.578"><path d="M10.2.306l2.478 5.865 6.344.545a.5.5 0 01.285.876L14.5 11.761l1.442 6.2a.5.5 0 01-.745.541l-5.456-3.286-5.452 3.288a.5.5 0 01-.745-.541l1.442-6.2L.173 7.591a.5.5 0 01.285-.876L6.8 6.17 9.28.306a.5.5 0 01.921 0zm30 0l2.478 5.865 6.344.545a.5.5 0 01.285.876L44.5 11.761l1.442 6.2a.5.5 0 01-.745.541l-5.456-3.286-5.452 3.288a.5.5 0 01-.745-.541l1.442-6.2-4.813-4.172a.5.5 0 01.285-.876L36.8 6.17 39.28.306a.5.5 0 01.921 0zm30 0l2.478 5.865 6.344.545a.5.5 0 01.285.876L74.5 11.761l1.442 6.2a.5.5 0 01-.745.541l-5.456-3.286-5.452 3.288a.5.5 0 01-.745-.541l1.442-6.2-4.813-4.172a.5.5 0 01.285-.876L66.8 6.17 69.28.306a.5.5 0 01.921 0zm30 0l2.478 5.865 6.344.545a.5.5 0 01.285.876l-4.807 4.169 1.442 6.2a.5.5 0 01-.745.541l-5.456-3.286-5.452 3.288a.5.5 0 01-.745-.541l1.442-6.2-4.813-4.172a.5.5 0 01.285-.876L96.8 6.17 99.28.306a.5.5 0 01.921 0zm30 0l2.478 5.865 6.344.545a.5.5 0 01.285.876l-4.807 4.169 1.442 6.2a.5.5 0 01-.745.541l-5.456-3.286-5.452 3.288a.5.5 0 01-.745-.541l1.442-6.2-4.813-4.172a.5.5 0 01.285-.876l6.342-.545 2.48-5.864a.5.5 0 01.921 0z" fill="#c7ced0"/></svg>