<svg xmlns="http://www.w3.org/2000/svg" width="17.883" height="23.844"><path d="M17.832 13.96c-.273-3.56-1.932-5.784-3.39-7.751-1.352-1.82-2.52-3.392-2.52-5.709a.5.5 0 00-.27-.442.492.492 0 00-.516.038 12.633 12.633 0 00-4.663 6.739 22 22 0 00-.511 5.038c-2.026-.433-2.485-3.463-2.49-3.5A.5.5 0 002.764 8C2.658 8.051.157 9.322.011 14.4c-.01.169-.011.338-.011.507a8.951 8.951 0 008.941 8.941.069.069 0 00.02 0h.006a8.952 8.952 0 008.916-8.948c0-.246-.051-.94-.051-.94zm-8.89 8.889a3.086 3.086 0 01-2.98-3.175v-.194a4.027 4.027 0 01.314-1.577 1.814 1.814 0 001.64 1.188.5.5 0 00.5-.5 9.937 9.937 0 01.191-2.259 4.8 4.8 0 011.006-1.9 6.4 6.4 0 001.024 1.879 5.659 5.659 0 011.273 3.1c.006.085.013.171.013.263a3.086 3.086 0 01-2.982 3.175z" class="color-fill"/></svg>