<svg xmlns="http://www.w3.org/2000/svg" width="18.04" height="18.28"><path d="M7.462 14.601a9.752 9.752 0 01-4.184.271A7.843 7.843 0 010 13.695v4.244c0 .185.119.341.259.341h17.522c.14 0 .259-.156.259-.341v-.926c-.123-.119-1.534-1.416-5.421-2.472a9.364 9.364 0 00-5.157.06z" class="color-fill"/><path d="M7.462 10.448a9.751 9.751 0 01-4.184.271A7.844 7.844 0 010 9.542v2.978c0 .009.009.017.011.026.017.052.375 1.01 3.4 1.549a8.976 8.976 0 003.872-.264 10.145 10.145 0 015.536-.051 16.5 16.5 0 015.215 2.228V12.86c-.125-.12-1.537-1.417-5.421-2.472a9.371 9.371 0 00-5.151.06z" class="color-fill"/><path d="M7.462 5.929a9.757 9.757 0 01-4.184.272A7.845 7.845 0 010 5.024v3.348c0 .009.009.017.011.026.017.052.375 1.01 3.4 1.549a8.982 8.982 0 003.873-.264 10.147 10.147 0 015.536-.052 16.508 16.508 0 015.215 2.228V8.342c-.123-.119-1.534-1.416-5.421-2.472a9.37 9.37 0 00-5.152.059z" class="color-fill"/><path d="M3.416 5.428a8.977 8.977 0 003.872-.264 10.144 10.144 0 015.536-.052 16.5 16.5 0 015.215 2.227v-6.1c-.024-.007-.049-.011-.073-.018L15.515.463a10.353 10.353 0 00-7.278.43l-.769.346a11.134 11.134 0 01-7.465.568v2.047c0 .009.009.017.011.026.014.052.372 1.009 3.402 1.548z" class="color-fill"/></svg>