<svg xmlns="http://www.w3.org/2000/svg" width="16.523" height="16.523"><path d="M16.523 1.614v13.3a1.615 1.615 0 01-1.614 1.614h-1.57a.645.645 0 110-1.291h1.571a.323.323 0 00.323-.323V8.939h-5.7a.645.645 0 010-1.291h5.7V1.614a.323.323 0 00-.323-.323H7.618v1.893a.645.645 0 01-1.291 0V1.291H1.614a.323.323 0 00-.323.323v6h5.036V5.723a.645.645 0 011.291 0V10.8a.645.645 0 11-1.291 0V8.907H1.291v6a.323.323 0 00.323.323h4.713v-1.891a.645.645 0 011.291 0v1.893H10.8a.645.645 0 110 1.291H1.614A1.615 1.615 0 010 14.909V1.614A1.615 1.615 0 011.614 0h13.3a1.615 1.615 0 011.609 1.614zm0 0"/></svg>