<svg xmlns="http://www.w3.org/2000/svg" width="17.323" height="15.8"><path d="M16.674 6.64q-.558 0-1.109.036-.186-.128-.4-.258v-1.35a1.5 1.5 0 001-1.415v-2a1.5 1.5 0 00-3 0v2a1.5 1.5 0 001 1.415v.8a12.065 12.065 0 00-3.009-1V3.265a.5.5 0 00.468-.868l-2.671-2a.5.5 0 00-.6 0l-2.671 2a.5.5 0 00.468.868v1.606a12.066 12.066 0 00-3.009 1v-.8A1.5 1.5 0 004.15 3.655v-2a1.5 1.5 0 10-3 0v2a1.5 1.5 0 001 1.415v1.35q-.209.13-.4.258-.543-.037-1.1-.038a.5.5 0 00-.5.5v8.015a.5.5 0 00.5.5h16.024a.5.5 0 00.5-.5V7.139a.5.5 0 00-.5-.499zm-.5 8.013h-2.253a11 11 0 00-1.816-3.028 12.807 12.807 0 00-2.48-2.26 14.967 14.967 0 016.55-1.72zm-3.335 0H7.782a7.556 7.556 0 00-2.569-3.49A7.524 7.524 0 001.15 9.661V7.646c5.242.168 9.9 2.971 11.693 7.007zm-8.358 0H1.15v-3.992a6.6 6.6 0 015.564 3.994H4.482zm9.686-13a.503.503 0 111.006 0v2a.503.503 0 11-1.006 0zm-7.011.894l1.5-1.128 1.5 1.128v2.176a13.2 13.2 0 00-1.006-.074V3.9a.5.5 0 00-1 0v.749c-.347.013-.682.038-1.006.074zM2.15 1.655a.5.5 0 111 0v2a.5.5 0 11-1 0zm6.512 3.984a11.459 11.459 0 015.272 1.229 15.351 15.351 0 00-5.272 1.884A15.351 15.351 0 003.39 6.868a11.459 11.459 0 015.271-1.234z"/></svg>