<svg xmlns="http://www.w3.org/2000/svg" width="56.477" height="53.849"><g transform="translate(-38.036 -36.319)"><path d="M94.424 41.319a.682.682 0 00-.931-.249l-7.73 4.463-7.73-4.463a.682.682 0 10-.682 1.18l7.73 4.463v8.925a.682.682 0 101.363 0v-8.925l7.73-4.463a.681.681 0 00.25-.931z" fill="#dfecdc"/><path d="M53.79 52.686l-2.328-2.328a.681.681 0 00-.964 0 4.573 4.573 0 01-6.467 0 .681.681 0 00-.964 0l-2.329 2.328a.681.681 0 000 .964 9.229 9.229 0 0013.052 0 .682.682 0 000-.964z" fill="#78a86d" opacity=".402"/><path d="M60 41.255a.752.752 0 10-.752-.752.753.753 0 00.752.752zm0 2.545a.752.752 0 10.752.752A.753.753 0 0060 43.8z" fill="#c1d8bb"/><circle cx=".752" cy=".752" r=".752" transform="translate(59.248 47.849)" fill="#c1d8bb"/><circle cx=".752" cy=".752" r=".752" transform="translate(59.248 51.899)" fill="#c1d8bb"/><path d="M50.632 78.795a.681.681 0 01-.682-.682V59.068a.682.682 0 011.363 0v19.046a.681.681 0 01-.681.681zm8.76-5.387a.681.681 0 01-.682-.682V59.067a.682.682 0 011.363 0v13.66a.681.681 0 01-.681.681zm8.76-7.574a.681.681 0 01-.682-.682v-6.085a.682.682 0 111.363 0v6.085a.681.681 0 01-.681.682zm8.76 12.961a.681.681 0 01-.682-.682V59.068a.682.682 0 111.363 0v19.046a.681.681 0 01-.681.681zm8.76 11.373a.681.681 0 01-.682-.682V59.068a.682.682 0 011.363 0v30.419a.681.681 0 01-.681.681z" fill="#78a86d" opacity=".15"/><path d="M71.011 87.158a.681.681 0 01-.682-.682V65.834h-4.356v20.643a.682.682 0 01-1.363 0V65.153a.681.681 0 01.682-.682h5.72a.681.681 0 01.682.682v21.324a.681.681 0 01-.683.681z" fill="#78a86d"/><g fill="#3c4b5a"><path d="M94.172 41.069l-8.07-4.659a.681.681 0 00-.682 0l-8.07 4.659a.681.681 0 00-.341.59v9.319a.681.681 0 00.341.59l8.07 4.659a.681.681 0 00.682 0l8.07-4.659a.681.681 0 00.341-.59V41.66a.681.681 0 00-.341-.591zm-1.022 9.516l-7.389 4.266-7.389-4.266v-8.532l7.389-4.266 7.389 4.266zM41.221 53.85a.68.68 0 00.482-.2l2.329-2.328a.682.682 0 000-.964 4.573 4.573 0 010-6.467 4.573 4.573 0 016.467 0 4.573 4.573 0 010 6.467.682.682 0 000 .964l2.328 2.328a.682.682 0 00.964 0 9.229 9.229 0 10-13.052 0 .677.677 0 00.482.2zm12.067-1.666l-1.371-1.371a5.94 5.94 0 000-7.377l.651-.652.72-.72a7.869 7.869 0 010 10.119zm-6.023-12.926a7.806 7.806 0 015.06 1.842l-1.371 1.371a5.94 5.94 0 00-7.377 0L42.206 41.1a7.806 7.806 0 015.059-1.842zm-6.024 2.807l.21.21 1.161 1.162a5.94 5.94 0 000 7.377l-1.371 1.371a7.868 7.868 0 010-10.119zm21.996-.881h7.223a.682.682 0 000-1.363h-7.223a.682.682 0 000 1.363zm0 4.05h7.223a.682.682 0 100-1.363h-7.223a.682.682 0 100 1.363zm0 4.049h7.223a.682.682 0 000-1.363h-7.223a.682.682 0 000 1.363zm0 4.05h7.223a.682.682 0 100-1.363h-7.223a.682.682 0 100 1.363zm-9.746 33.825a.681.681 0 00.682-.682v-8.363a.681.681 0 00-.682-.682h-5.719a.681.681 0 00-.682.682v8.363a.682.682 0 001.363 0v-7.681h4.356v7.681a.681.681 0 00.682.682zm2.359-14.431v13.75a.682.682 0 001.363 0V73.408h4.359v13.068a.682.682 0 101.363 0v-13.75a.681.681 0 00-.682-.682h-5.721a.681.681 0 00-.682.682zm18.203 14.431a.681.681 0 00.682-.682v-7.681h4.356v7.681a.682.682 0 101.363 0v-8.363a.681.681 0 00-.682-.682h-5.719a.681.681 0 00-.682.682v8.363a.681.681 0 00.682.682z"/><path d="M85.921 88.805H41.902V59.068a.682.682 0 00-1.363 0v30.419a.681.681 0 00.682.682h44.7a.682.682 0 100-1.363z"/></g></g></svg>