<svg xmlns="http://www.w3.org/2000/svg" width="48" height="48"><defs><linearGradient id="linear-gradient" x1="1" y1=".127" x2=".116" y2=".838" gradientUnits="objectBoundingBox"><stop offset="0" stop-color="#5b58c9"/><stop offset=".286" stop-color="#bf3077"/><stop offset=".534" stop-color="#da5c60"/><stop offset="1" stop-color="#f9d67a"/></linearGradient></defs><g transform="translate(-224 -1135)"><circle cx="24" cy="24" r="24" transform="translate(224 1135)" fill="url(#linear-gradient)"/><g fill="#fff"><path d="M251.589 1150.473h-8.117a5.005 5.005 0 00-5 5v8.118a5.005 5.005 0 005 5h8.118a5.005 5.005 0 005-5v-8.118a5.005 5.005 0 00-5.001-5zm3.392 13.117a3.4 3.4 0 01-3.392 3.392h-8.117a3.4 3.4 0 01-3.392-3.392v-8.117a3.4 3.4 0 013.392-3.393h8.118a3.4 3.4 0 013.391 3.393v8.118z"/><path d="M247.53 1154.863a4.668 4.668 0 104.664 4.668 4.673 4.673 0 00-4.664-4.668zm0 7.729a3.061 3.061 0 113.064-3.061 3.064 3.064 0 01-3.064 3.062zm4.865-9.092a1.178 1.178 0 10.834.345 1.183 1.183 0 00-.834-.345z"/></g></g></svg>