<svg xmlns="http://www.w3.org/2000/svg" width="17.38" height="24.833"><path d="M16.089 7.657a4.88 4.88 0 00-.51-.475 2.01 2.01 0 00-1.871-2.747c-.065 0-.13 0-.194.009a4.838 4.838 0 00-8.9-2.2 3.412 3.412 0 00-3.306 5.4l-.012.013a4.841 4.841 0 003.549 8.133 4.93 4.93 0 00.743-.056l1.787 2.76-.871 5.642a.6.6 0 00.133.486.623.623 0 00.476.211h3.186a.623.623 0 00.476-.211.6.6 0 00.133-.486l-.856-5.547 1.84-2.842a4.932 4.932 0 00.652.044 4.841 4.841 0 003.549-8.133zm-7.349 9.29l-1.254-1.938a4.829 4.829 0 001.2-1.123 4.826 4.826 0 001.275 1.167z" class="color-fill"/></svg>