<svg xmlns="http://www.w3.org/2000/svg" width="50.019" height="60"><g fill="#78a86d"><path d="M25.055 12.932a15.453 15.453 0 00-10.213 27.031c2.442 2.442 2.22 7.66 2.165 7.715a.919.919 0 00.278.722 1.024 1.024 0 00.666.278h14.153a.919.919 0 00.666-.278 1.055 1.055 0 00.278-.722c0-.056-.278-5.273 2.165-7.715l.167-.167a15.407 15.407 0 00-10.325-26.864zm8.88 25.588c-.056.056-.167.167-.167.222-2.165 2.331-2.553 6.161-2.609 7.993H18.894c-.056-1.832-.444-5.828-2.775-8.215a13.515 13.515 0 1117.817 0z"/><path d="M24.999 16.873a.944.944 0 000 1.887 10.1 10.1 0 0110.1 10.1.944.944 0 101.887 0 11.939 11.939 0 00-11.987-11.987z" opacity=".75"/><path d="M31.16 49.732H18.838a2.331 2.331 0 100 4.662h12.271a2.394 2.394 0 002.387-2.331 2.345 2.345 0 00-2.336-2.331zm0 2.72H18.838a.438.438 0 01-.444-.444.409.409 0 01.444-.444h12.271a.438.438 0 01.444.444.4.4 0 01-.393.443z"/><path d="M29.328 55.338H20.67a2.331 2.331 0 100 4.662h8.659a2.345 2.345 0 002.331-2.331 2.31 2.31 0 00-2.332-2.331zm0 2.72H20.67a.438.438 0 01-.444-.444.408.408 0 01.444-.444h8.659a.444.444 0 010 .888z" opacity=".8"/><path d="M24.999 8.326a.936.936 0 00.944-.944V.944a.944.944 0 00-1.887 0v6.438a.973.973 0 00.943.944zm15.71-3.553A.9.9 0 0039.43 5l-3.552 5.328a.914.914 0 00.222 1.332.9.9 0 00.5.167.886.886 0 00.777-.444l3.552-5.333a.86.86 0 00-.22-1.277zM13.732 11.6a.9.9 0 00.5-.167.972.972 0 00.277-1.333l-3.441-5.382a.962.962 0 00-1.61 1.055l3.441 5.384a.921.921 0 00.833.443zm-6.716 5.884l-5.607-3.053a.977.977 0 00-1.277.389.886.886 0 00.39 1.28l5.606 3.053a1.306 1.306 0 00.444.111.916.916 0 00.833-.5.977.977 0 00-.389-1.28zm42.905-2.664a.977.977 0 00-1.277-.389l-5.661 3.053a.977.977 0 00-.389 1.277.916.916 0 00.833.5 1.046 1.046 0 00.444-.111l5.661-3.05a.977.977 0 00.389-1.28z" opacity=".75"/></g></svg>