<svg xmlns="http://www.w3.org/2000/svg" width="20.645" height="20.616"><path d="M19.638 13.808V9.583a2.181 2.181 0 01-1.374.062v4.163h-1.672v-2.65a.452.452 0 00-.452-.452h-1.529a.452.452 0 00-.452.452v2.647h-2.034v-.424a.452.452 0 00-.452-.452H9.944a.452.452 0 00-.452.452v.424H6.886v-1.186a.453.453 0 00-.452-.452H3.857a.452.452 0 00-.452.452v1.186H2.396V9.611a2.354 2.354 0 01-.687.113 2.353 2.353 0 01-.687-.113v4.194a1.006 1.006 0 00-1.008 1.009v4.8a1 1 0 001.005 1.005h18.619a1.006 1.006 0 001.006-1.005v-4.8a1.007 1.007 0 00-1.006-1.006zM4.625 4.663a.324.324 0 00-.325.324v2.359a1.695 1.695 0 003.39 0V4.987a.325.325 0 00-.325-.324zm4.284 0a.325.325 0 00-.325.324v2.359a1.695 1.695 0 003.39 0V4.987a.325.325 0 00-.325-.324zm4.285 0a.325.325 0 00-.325.324v2.359a1.7 1.7 0 003.391 0V4.987a.325.325 0 00-.325-.324zM.324 3.812h20a.325.325 0 00.193-.585L16.264.062A.327.327 0 0016.07 0H4.575a.326.326 0 00-.194.062L.131 3.227a.325.325 0 00.193.585zm1.385 5.229a1.7 1.7 0 001.7-1.7V4.982a.325.325 0 00-.325-.324H.339a.325.325 0 00-.325.324v2.359a1.7 1.7 0 001.695 1.7zM20.22 4.663h-2.74a.324.324 0 00-.325.324v2.359a1.695 1.695 0 003.39 0V4.987a.325.325 0 00-.325-.324z" class="color-fill"/></svg>