<svg xmlns="http://www.w3.org/2000/svg" width="35.562" height="59.337"><g id="navigation"><path d="M70.284 95.477A12.216 12.216 0 0158.2 85.036a12.214 12.214 0 1024.171 0 12.216 12.216 0 01-12.087 10.441z" transform="translate(-52.503 -68.557)" fill="#dbe6f0"/><path d="M58.282 104.216S45.094 88.468 41.907 72.848a17.07 17.07 0 00-.687 4.809c0 17.385 17.062 37.76 17.062 37.76s17.062-20.375 17.062-37.76a17.073 17.073 0 00-.687-4.809c-3.188 15.619-16.375 31.368-16.375 31.368z" transform="translate(-40.5 -59.876)" fill="#dbe6f0"/><g fill="#3c4b5a"><path d="M56.5 27.76a17.8 17.8 0 00-17.781 17.781c0 17.446 16.526 37.381 17.23 38.221a.719.719 0 001.1 0c.7-.84 17.23-20.776 17.23-38.221A17.8 17.8 0 0056.5 27.76zm0 54.4c-2.912-3.68-16.342-21.46-16.342-36.619a16.343 16.343 0 0132.685 0c0 15.159-13.431 32.939-16.343 36.614z" transform="translate(-38.719 -27.76)"/><path d="M68.5 46.248a12.933 12.933 0 1012.936 12.933A12.947 12.947 0 0068.5 46.248zm0 24.427A11.494 11.494 0 1180 59.181a11.507 11.507 0 01-11.5 11.494z" transform="translate(-50.722 -40.929)"/><path d="M71.883 212.206a.719.719 0 10-.106 1.434c4.9.364 7.074 1.2 7.49 1.618-.636.674-4.9 1.773-11.917 1.773s-11.282-1.1-11.918-1.773c.419-.422 2.615-1.264 7.582-1.625a.719.719 0 10-.1-1.435c-4.087.3-8.959 1.068-8.959 3.058 0 3.123 12.028 3.213 13.4 3.213s13.4-.09 13.4-3.213c0-1.978-4.821-2.751-8.865-3.051z" transform="translate(-49.568 -159.134)"/></g><path d="M89.2 75.159a7.24 7.24 0 00.006-5.787c0-.007 0-.015-.007-.022s-.011-.018-.015-.027a7.254 7.254 0 00-13.271 0c0 .01-.012.018-.016.028s0 .016-.007.023a7.24 7.24 0 00.006 5.784 7.255 7.255 0 0013.3 0v-.005zm-6.651 2.919c-.623 0-1.459-1.316-1.823-3.51a16.609 16.609 0 013.647 0c-.361 2.193-1.197 3.51-1.82 3.51zm0-5.05a18.532 18.532 0 00-1.979.11c-.016-.285-.028-.576-.028-.88s.012-.6.028-.886a17.911 17.911 0 003.957 0c.017.287.028.579.028.886s-.012.6-.028.88a18.475 18.475 0 00-1.974-.11zm-5.819-.77a5.791 5.791 0 01.25-1.682 14.564 14.564 0 002.164.585 15.484 15.484 0 000 2.19 14.532 14.532 0 00-2.164.586 5.8 5.8 0 01-.246-1.679zm5.819-5.82c.622 0 1.458 1.314 1.823 3.5a16.592 16.592 0 01-3.645 0c.373-2.186 1.204-3.499 1.826-3.499zm3.406 4.724a14.564 14.564 0 002.164-.585 5.778 5.778 0 010 3.358 14.532 14.532 0 00-2.164-.586 15.9 15.9 0 00.004-2.187zm1.571-1.9a13.024 13.024 0 01-1.741.47 10.366 10.366 0 00-.832-2.764 5.853 5.853 0 012.578 2.29zm-7.381-2.294a10.366 10.366 0 00-.832 2.764 13.11 13.11 0 01-1.741-.47 5.848 5.848 0 012.577-2.297zm-2.576 8.288a13.041 13.041 0 011.743-.471 10.366 10.366 0 00.833 2.769 5.849 5.849 0 01-2.572-2.301zm7.384 2.3a10.38 10.38 0 00.833-2.769 13.052 13.052 0 011.743.471 5.849 5.849 0 01-2.572 2.293z" transform="translate(-64.772 -54.286)" fill="#63b5fc"/></g></svg>