<svg xmlns="http://www.w3.org/2000/svg" width="35.748" height="46.961"><path d="M89.865 30.494a6.2 6.2 0 01-6.247-5.637 10.6 10.6 0 002.441-2.414 14.671 14.671 0 002.643-6.9 1.051 1.051 0 00.265-.373 11.38 11.38 0 00.883-4.429C89.851 4.82 85.383 0 79.89 0a9.248 9.248 0 00-4.147.984 7.287 7.287 0 00-1.466.263 8.238 8.238 0 00-5.17 4.71 11.7 11.7 0 00-.58 7.678 12.371 12.371 0 00.537 1.626 1.051 1.051 0 00.248.361 13.2 13.2 0 005.073 9.225 6.2 6.2 0 01-6.247 5.646 7.266 7.266 0 00-7.01 7.252V45.9a1.057 1.057 0 001.057 1.057h33.633a1.057 1.057 0 001.057-1.057v-8.154a7.266 7.266 0 00-7.01-7.252zm-15-27.215a5.21 5.21 0 011.211-.2 1.056 1.056 0 00.444-.12 7.185 7.185 0 013.37-.848c4.327 0 7.847 3.871 7.847 8.629 0 .143 0 .285-.01.426a4.61 4.61 0 00-3.293-1.382h-7.207A1.968 1.968 0 0175.4 8.553a1.3 1.3 0 00-2.457.162A9.808 9.808 0 0170.549 13c-1.063-4.378.851-8.721 4.315-9.721zm-.92 18.288a12.436 12.436 0 01-2.563-6.436 11.982 11.982 0 003.076-4.31 4.123 4.123 0 00.328.272 4.053 4.053 0 002.442.81h7.207a2.512 2.512 0 012.291 1.487v.022c0 5.969-3.463 10.825-7.721 10.825a6.613 6.613 0 01-5.061-2.67zm2.43 4.319a7.695 7.695 0 005.256.006 8.28 8.28 0 003.069 4.986l-5.552 7.907a.183.183 0 01-.3 0L73.3 30.876a8.281 8.281 0 003.073-4.989zm18.385 18.96H63.242v-7.1a5.149 5.149 0 015.143-5.146 9.064 9.064 0 003.084-.652L77.122 40a2.3 2.3 0 001.88.977A2.3 2.3 0 0080.883 40l5.652-8.049a8.705 8.705 0 003.082.651 5.149 5.149 0 015.144 5.144z" transform="translate(-61.127)" fill="#919fa3" id="user"/></svg>