<svg xmlns="http://www.w3.org/2000/svg" width="22.974" height="21.967"><path class="color-fill" d="M6.206 6.28H8.11v2.188H6.206zm8.658 0h1.904v2.188h-1.904zM6.206 16.781H8.11v2.188H6.206zm8.658 0h1.904v2.188h-1.904zM3.3.269a.547.547 0 00-.942 0L.077 4.125A.537.537 0 000 4.403v17.016a.547.547 0 00.547.547h4.565a.547.547 0 00.546-.547V4.403a.546.546 0 00-.076-.278zm8.657-.001a.568.568 0 00-.941 0L8.733 4.125a.546.546 0 00-.076.278v17.016a.547.547 0 00.546.547h4.567a.547.547 0 00.546-.547V4.403a.542.542 0 00-.076-.278zm10.94 3.857L20.613.268a.569.569 0 00-.942 0l-2.282 3.857a.545.545 0 00-.076.278v17.016a.547.547 0 00.546.547h4.565a.548.548 0 00.547-.547V4.403a.538.538 0 00-.074-.278z"/></svg>