<svg xmlns="http://www.w3.org/2000/svg" width="19.974" height="23.456"><path d="M9.987 7.259a4.469 4.469 0 104.469 4.469 4.474 4.474 0 00-4.469-4.469zm2.653 3.627l-3.2 3.2a.688.688 0 01-.973 0l-1.224-1.224a.688.688 0 01.973-.973l.737.737 2.715-2.715a.688.688 0 01.973.973zm0 0" class="color-fill"/><path d="M19.951 6.364v-.018c-.01-.225-.017-.464-.021-.729a2.486 2.486 0 00-2.341-2.435A9.647 9.647 0 0111.023.414l-.015-.013a1.5 1.5 0 00-2.04 0l-.016.013a9.648 9.648 0 01-6.565 2.768A2.486 2.486 0 00.046 5.617c0 .263-.011.5-.021.729v.042c-.052 2.75-.118 6.173 1.027 9.279a11.812 11.812 0 002.833 4.414 14.824 14.824 0 005.545 3.28 1.715 1.715 0 00.227.062 1.679 1.679 0 00.66 0 1.716 1.716 0 00.228-.062 14.833 14.833 0 005.54-3.282 11.829 11.829 0 002.834-4.415c1.149-3.116 1.081-6.545 1.032-9.3zm-9.964 11.21a5.846 5.846 0 115.846-5.846 5.852 5.852 0 01-5.846 5.846zm0 0" class="color-fill"/></svg>