<svg xmlns="http://www.w3.org/2000/svg" width="10.516" height="17.513"><path d="M4.396 12.336a6.8 6.8 0 01-3.63-1.3c-.13-.1-.264-.2-.383-.314a1.088 1.088 0 011.232-1.774 2.122 2.122 0 01.3.178 5.951 5.951 0 006.6.06 1.789 1.789 0 01.642-.332 1.009 1.009 0 011.155.461.978.978 0 01-.07 1.287 5.329 5.329 0 01-1.919 1.24 9.005 9.005 0 01-2.178.488c.112.122.165.182.235.252 1.008 1.013 2.021 2.022 3.026 3.038a1 1 0 01.225 1.178 1.2 1.2 0 01-1.12.7 1.091 1.091 0 01-.709-.363c-.761-.766-1.536-1.517-2.282-2.3-.217-.227-.321-.184-.513.013-.766.788-1.544 1.564-2.326 2.336a.975.975 0 01-1.177.211 1.191 1.191 0 01-.688-1.1 1.1 1.1 0 01.369-.736q1.5-1.495 2.989-2.994c.064-.057.126-.129.222-.229z" fill="#f69428"/><path d="M5.222 8.864a4.432 4.432 0 114.459-4.375 4.435 4.435 0 01-4.459 4.375zm2.2-4.436A2.168 2.168 0 105.269 6.6a2.159 2.159 0 002.155-2.172z" fill="#f69428"/></svg>