<svg xmlns="http://www.w3.org/2000/svg" width="102" height="102" viewBox="0 0 102 102">
  <g transform="translate(-314 -1783)">
    <g>
      <circle cx="31" cy="31" r="31" transform="translate(334 1803)" class="circle-main-stroke"/>
      <circle cx="27" cy="27" r="27" transform="translate(338 1807)" class="circle-main"/>
      <g>
        <g transform="translate(324 1793)" fill="none" class="circle-line" stroke-linecap="round" stroke-width="1" stroke-dasharray="45">
          <circle cx="41" cy="41" r="41" stroke="none"/>
          <circle cx="41" cy="41" r="40.5" fill="none"/>
        </g>
        <g transform="translate(314 1783)" fill="none" class="circle-line" stroke-linecap="round" stroke-width="1" stroke-dasharray="45 10">
          <circle cx="51" cy="51" r="51" stroke="none"/>
          <circle cx="51" cy="51" r="50.5" fill="none"/>
        </g>
      </g>
      <path class="triangle" d="M17.779,8.1,6.13.071A.4.4,0,0,0,5.5.4V16.47a.4.4,0,0,0,.63.331l11.65-8.034a.4.4,0,0,0,0-.661Z" transform="translate(354.774 1826.564)"/>
    </g>
  </g>
</svg>
