<svg xmlns="http://www.w3.org/2000/svg" width="21.889" height="21.799" viewBox="0 0 21.889 21.799">
  <g transform="translate(0 -0.093)">
    <path d="M21.565,18.948a.947.947,0,0,0-.744-.229,25.544,25.544,0,0,1-4.17.2,11.6,11.6,0,0,1-3-.558L10.325,8.835a37.7,37.7,0,0,1,7.317-1.6.943.943,0,0,0,.734-1.372A9.638,9.638,0,0,0,7.571.953L7.491.725A.942.942,0,0,0,6.29.146L6.274.151a.943.943,0,0,0-.579,1.2l.079.228A9.636,9.636,0,0,0,.368,12.113a.943.943,0,0,0,1.44.615A34.44,34.44,0,0,1,8.528,9.46l2.8,8.012c-2.261-.958-4.424-1.961-7.28-1.526A6.96,6.96,0,0,0,.237,18.28.95.95,0,0,0,0,18.9V20.95a.946.946,0,0,0,.947.943H20.942a.947.947,0,0,0,.948-.943v-1.3A.952.952,0,0,0,21.565,18.948Z" class="color-fill"/>
  </g>
</svg>
