<svg xmlns="http://www.w3.org/2000/svg" width="9.694" height="13.151" viewBox="0 0 9.694 13.151">
  <path d="M.322-3.562H1.881V-9.8H5.376a5.858,5.858,0,0,1,2.142.348,4,4,0,0,1,1.437.921A3.475,3.475,0,0,1,9.763-7.2a4.929,4.929,0,0,1,.254,1.569A4.734,4.734,0,0,1,9.763-4.07a3.429,3.429,0,0,1-.808,1.3,3.876,3.876,0,0,1-1.437.892,6.16,6.16,0,0,1-2.142.329H4.324V-.124H7.63V1.811H4.324V3.351H1.881V1.811H.322V-.124H1.881V-1.552H.322Zm4.81,0a5.045,5.045,0,0,0,.949-.085,2.1,2.1,0,0,0,.78-.31,1.492,1.492,0,0,0,.526-.629,2.485,2.485,0,0,0,.188-1.043A2.689,2.689,0,0,0,7.386-6.7a1.666,1.666,0,0,0-.526-.686,2.068,2.068,0,0,0-.78-.357,4.157,4.157,0,0,0-.949-.1H4.324v4.284Z" transform="translate(-0.322 9.8)" fill="#3c4b5a"/>
</svg>
