<svg xmlns="http://www.w3.org/2000/svg" width="45.65" height="45.427" viewBox="0 0 45.65 45.427">
  <path d="M157.177,0,156.1,1.076,157.623,2.6a.76.76,0,0,0,1.075,0l1.522-1.522L159.145,0l-.984.984Zm0,0" transform="translate(-142.184)" fill="#a86d6d"/>
  <path d="M310.775,0,309.7,1.076,311.221,2.6a.761.761,0,0,0,1.076,0l1.522-1.522L312.743,0l-.984.984Zm0,0" transform="translate(-282.087)" fill="#a86d6d"/>
  <path d="M145.066,219.367h1.522v1.522h-1.522Zm0,0" transform="translate(-132.132 -199.808)" fill="#a86d6d"/>
  <path d="M162.133,202.3h1.522v1.522h-1.522Zm0,0" transform="translate(-147.677 -184.264)" fill="#a86d6d"/>
  <path d="M349.867,219.367h1.522v1.522h-1.522Zm0,0" transform="translate(-318.673 -199.808)" fill="#a86d6d"/>
  <path d="M332.8,202.3h1.522v1.522H332.8Zm0,0" transform="translate(-303.128 -184.264)" fill="#a86d6d"/>
  <path d="M247.465,244.965h1.522v1.522h-1.522Zm0,0" transform="translate(-225.401 -223.124)" fill="#a86d6d"/>
  <path d="M264.535,262.031h1.522v1.522h-1.522Zm0,0" transform="translate(-240.949 -238.669)" fill="#a86d6d"/>
  <path d="M230.4,262.031h1.522v1.522H230.4Zm0,0" transform="translate(-209.856 -238.669)" fill="#a86d6d"/>
  <path d="M42.606,26.74a3.048,3.048,0,0,0-2.947,2.282h-4.3L33.9,26.23l2.473.495.3-1.491-3.043-.608,1.607-1.607,2.625.657.368-1.476-1.739-.435,1.109-1.11h4.25a.761.761,0,0,0,.538-1.3l-4.565-4.565a.761.761,0,0,0-1.3.538v4.25l-1.109,1.11-.435-1.741-1.476.37.657,2.625L32.51,23.588l-.1-.182a10.831,10.831,0,0,0-19.179,0l-.1.182-1.646-1.646.657-2.625-1.476-.37-.435,1.741-1.11-1.11v-4.25a.761.761,0,0,0-1.3-.538L3.266,19.354a.761.761,0,0,0,.538,1.3h4.25l1.11,1.109L7.424,22.2l.368,1.476,2.626-.657,1.607,1.607-3.044.609.3,1.491,2.473-.495-1.467,2.793H5.99A3.043,3.043,0,0,0,0,29.783,3,3,0,0,0,.415,31.3,3,3,0,0,0,0,32.826a3.043,3.043,0,0,0,5.99.761h1.9L2.206,44.408A19.352,19.352,0,0,0,0,53.369a.761.761,0,0,0,.761.761H3.8v.142a4.427,4.427,0,0,0,4.422,4.423h4.849a4.421,4.421,0,0,0,3.662-1.945A4.421,4.421,0,0,0,20.4,58.695H25.25a4.421,4.421,0,0,0,3.662-1.945,4.421,4.421,0,0,0,3.662,1.945h4.85a4.427,4.427,0,0,0,4.422-4.423V54.13h3.043a.761.761,0,0,0,.761-.761,19.357,19.357,0,0,0-2.206-8.96L37.76,33.587h1.9a3.043,3.043,0,0,0,5.988-.761,3,3,0,0,0-.416-1.522,3,3,0,0,0,.416-1.522A3.043,3.043,0,0,0,42.606,26.74Zm-4.565-9.576,1.967,1.967H38.042ZM7.608,19.131H5.641l1.967-1.967ZM5.326,32.065a.761.761,0,0,0-.761.761,1.522,1.522,0,0,1-3.043,0,1.5,1.5,0,0,1,.4-1.013.761.761,0,0,0,0-1.018,1.5,1.5,0,0,1-.4-1.012,1.522,1.522,0,1,1,3.043,0,.761.761,0,0,0,.761.761H9.487l-.8,1.522ZM15.977,54.272a2.9,2.9,0,0,1-2.9,2.9H8.227a2.9,2.9,0,0,1-2.9-2.9V50.944a2.9,2.9,0,0,1,2.9-2.9h.841L7.014,50.611l1.189.951,1.688-2.111v2.4h1.522v-2.4L13.1,51.562l1.188-.951-2.054-2.568h.841a2.9,2.9,0,0,1,2.9,2.9Zm-8.2-9.881.064-.064a1.086,1.086,0,0,1,1.369-.135,2.6,2.6,0,0,0,2.891,0,1.089,1.089,0,0,1,1.37.135l.064.064-1.065,2.13H8.839Zm20.378,9.881a2.9,2.9,0,0,1-2.9,2.9H20.4a2.9,2.9,0,0,1-2.9-2.9V50.944a2.905,2.905,0,0,1,2.9-2.9h.841l-2.054,2.568,1.188.951,1.688-2.111v2.4h1.522v-2.4l1.688,2.111,1.188-.951-2.054-2.568h.841a2.9,2.9,0,0,1,2.9,2.9Zm-8.2-9.881.064-.064a1.086,1.086,0,0,1,1.37-.135,2.6,2.6,0,0,0,2.891,0,1.088,1.088,0,0,1,1.369.135l.064.064-1.065,2.13H21.013Zm20.377,9.881a2.9,2.9,0,0,1-2.9,2.9h-4.85a2.9,2.9,0,0,1-2.9-2.9V50.944a2.905,2.905,0,0,1,2.9-2.9h.842l-2.055,2.568,1.188.951,1.688-2.111v2.4h1.522v-2.4l1.688,2.111,1.189-.951-2.054-2.568h.841a2.9,2.9,0,0,1,2.9,2.9Zm-8.2-9.881.064-.064a1.086,1.086,0,0,1,1.369-.135,2.6,2.6,0,0,0,2.891,0,1.089,1.089,0,0,1,1.37.135l.064.064-1.065,2.13H33.186Zm9.973.727a17.83,17.83,0,0,1,2.019,7.49H41.846V50.944a4.427,4.427,0,0,0-3.4-4.3l1.038-2.067a.761.761,0,0,0-.143-.878l-.452-.452a2.611,2.611,0,0,0-3.288-.326,1.084,1.084,0,0,1-1.2,0,2.612,2.612,0,0,0-3.288.326l-.452.452a.761.761,0,0,0-.143.878l1.034,2.067a4.435,4.435,0,0,0-2.639,1.82,4.437,4.437,0,0,0-2.636-1.82l1.038-2.067a.761.761,0,0,0-.143-.878l-.452-.452a2.612,2.612,0,0,0-3.288-.326,1.084,1.084,0,0,1-1.2,0,2.611,2.611,0,0,0-3.288.326l-.452.452a.761.761,0,0,0-.143.878l1.034,2.067a4.437,4.437,0,0,0-2.639,1.82,4.436,4.436,0,0,0-2.635-1.82l1.038-2.067A.761.761,0,0,0,15,43.7l-.452-.452a2.611,2.611,0,0,0-3.288-.326,1.084,1.084,0,0,1-1.2,0,2.612,2.612,0,0,0-3.288.326l-.452.452a.761.761,0,0,0-.143.878L7.2,46.646a4.427,4.427,0,0,0-3.4,4.3v1.664H1.538a17.831,17.831,0,0,1,2.019-7.493l11.026-21a9.309,9.309,0,0,1,16.484,0Zm1.639-13.3a1.5,1.5,0,0,1,.4,1.01,1.522,1.522,0,0,1-3.043,0,.761.761,0,0,0-.761-.761H36.961l-.8-1.522h4.162a.761.761,0,0,0,.761-.761,1.522,1.522,0,1,1,3.043,0,1.5,1.5,0,0,1-.4,1.012.761.761,0,0,0,0,1.018Zm0,0" transform="translate(0 -13.268)" fill="#a86d6d"/>
  <path d="M232.681,125.5a2.282,2.282,0,1,0,2.282,2.283A2.282,2.282,0,0,0,232.681,125.5Zm0,3.043a.761.761,0,1,1,.761-.761A.761.761,0,0,1,232.681,128.543Zm0,0" transform="translate(-209.856 -114.31)" fill="#a86d6d"/>
  <path d="M201.592,91.367a5.326,5.326,0,1,0,5.326,5.326A5.326,5.326,0,0,0,201.592,91.367Zm0,9.13a3.8,3.8,0,1,1,3.8-3.8A3.8,3.8,0,0,1,201.592,100.5Zm0,0" transform="translate(-178.767 -83.221)" fill="#a86d6d"/>
</svg>
