<svg id="shooting" xmlns="http://www.w3.org/2000/svg" width="53.787" height="53.787" viewBox="0 0 53.787 53.787">
  <path d="M83.134,65.5a17.634,17.634,0,1,0,17.634,17.634A17.634,17.634,0,0,0,83.134,65.5Zm0,30.19A12.556,12.556,0,1,1,95.69,83.134,12.555,12.555,0,0,1,83.134,95.69Z" transform="translate(-56.241 -56.241)" fill="#e9e5f5"/>
  <path d="M85.764,58.871H83.4A23.862,23.862,0,0,0,60.281,35.753V33.388a.705.705,0,0,0-1.411,0v2.364A23.862,23.862,0,0,0,35.753,58.871H33.388a.705.705,0,1,0,0,1.411h2.364A23.862,23.862,0,0,0,58.871,83.4v2.364a.705.705,0,0,0,1.411,0V83.4A23.862,23.862,0,0,0,83.4,60.282h2.364a.705.705,0,1,0,0-1.411ZM60.282,81.989V76.321a.705.705,0,1,0-1.411,0v5.668A22.45,22.45,0,0,1,37.163,60.282h5.668a.705.705,0,1,0,0-1.411H37.163A22.45,22.45,0,0,1,58.871,37.163v5.668a.705.705,0,0,0,1.411,0V37.163A22.45,22.45,0,0,1,81.989,58.871H76.321a.705.705,0,1,0,0,1.411h5.668A22.451,22.451,0,0,1,60.282,81.989Z" transform="translate(-32.683 -32.683)" fill="#3c4b5a"/>
  <path d="M113.66,96.236l-8.352-4.822a.706.706,0,0,0-.705,0l-8.352,4.822a.706.706,0,0,0-.353.611v9.644a.706.706,0,0,0,.353.611l8.352,4.822a.705.705,0,0,0,.705,0l8.352-4.822a.706.706,0,0,0,.353-.611V96.847A.706.706,0,0,0,113.66,96.236Zm-1.058,9.847-7.647,4.415-7.647-4.415V97.254l7.647-4.415,7.647,4.415Z" transform="translate(-78.062 -74.775)" fill="#8e80c6"/>
</svg>
