<svg xmlns="http://www.w3.org/2000/svg" width="15.275" height="10.988" viewBox="0 0 15.275 10.988">
  <g id="speaker-symbol-of-voice-volume" transform="translate(0 -78.721)">
    <path d="M10.178,79.068v9.385a.344.344,0,0,1-.632.191c-1.054-1.643-2.1-2.5-5.752-2.687l1.154,3.752H3.224L2.057,85.914a2.158,2.158,0,0,1,.1-4.313c5.014,0,6.193-.858,7.39-2.724A.345.345,0,0,1,10.178,79.068Zm2.97,5.147a4.019,4.019,0,0,1-.758,2.35.652.652,0,0,1-.485.25.6.6,0,0,1-.587-.59.661.661,0,0,1,.116-.351,2.843,2.843,0,0,0,0-3.317.661.661,0,0,1-.116-.351.6.6,0,0,1,.587-.59.652.652,0,0,1,.485.25A4.019,4.019,0,0,1,13.148,84.215Zm-.438-3.4a.667.667,0,0,1-.266-.489.593.593,0,0,1,.59-.592.738.738,0,0,1,.388.142,6.014,6.014,0,0,1,0,8.685.738.738,0,0,1-.388.142.593.593,0,0,1-.59-.592.667.667,0,0,1,.266-.489,4.876,4.876,0,0,0,0-6.809Z" fill="#78a86d"/>
  </g>
</svg>
