<svg xmlns="http://www.w3.org/2000/svg" width="33.298" height="13.319" viewBox="0 0 33.298 13.319">
  <path d="M250.156,139.33h2.22a.555.555,0,0,0,.555-.555v-3.33a.555.555,0,0,0-.555-.555h-2.22a.555.555,0,0,0-.555.555v3.33A.555.555,0,0,0,250.156,139.33Zm.555-3.33h1.11v2.22h-1.11Zm0,0" transform="translate(-235.172 -132.671)" fill="#3c4b5a"/>
  <path d="M137.173,139.33a.555.555,0,0,0,.555-.555v-3.33a.555.555,0,0,0-.555-.555h-2.22a.555.555,0,0,0-.555.555v3.33a.555.555,0,0,0,.555.555ZM135.509,136h1.11v2.22h-1.11Zm0,0" transform="translate(-126.629 -132.671)" fill="#3c4b5a"/>
  <path d="M60.376,139.33a.555.555,0,0,0,.555-.555v-3.33a.555.555,0,0,0-.555-.555h-2.22a.555.555,0,0,0-.555.555v3.33a.555.555,0,0,0,.555.555ZM58.711,136h1.11v2.22h-1.11Zm0,0" transform="translate(-54.272 -132.671)" fill="#3c4b5a"/>
  <path d="M2.22,138.775v-3.33a.555.555,0,0,0-.555-.555H0V136H1.11v2.22H0v1.11H1.665A.555.555,0,0,0,2.22,138.775Zm0,0" transform="translate(0 -132.671)" fill="#3c4b5a"/>
  <path d="M364.8,192.488h2.22v1.11H364.8Zm0,0" transform="translate(-343.712 -186.939)" fill="#3c4b5a"/>
  <path d="M460.8,230.887h1.11V232H460.8Zm0,0" transform="translate(-434.162 -223.117)" fill="#3c4b5a"/>
  <path d="M518.4,230.887h1.11V232H518.4Zm0,0" transform="translate(-488.43 -223.117)" fill="#3c4b5a"/>
  <path d="M15.242,96.488H0V97.6H12.209v6.66H0v1.11H12.209v1.11H0v1.11H2.775a2.2,2.2,0,0,0,.308,1.11H0v1.11H33.3V108.7H26.885a2.2,2.2,0,0,0,.308-1.11H29.72a3.578,3.578,0,0,0,2.291-6.327l-3.718-3.1a7.23,7.23,0,0,0-4.62-1.673h-8.43ZM4.995,108.7a1.11,1.11,0,0,1-1.11-1.11H6.1A1.11,1.11,0,0,1,4.995,108.7Zm3.33,0a1.11,1.11,0,0,1-1.11-1.11h2.22A1.11,1.11,0,0,1,8.325,108.7Zm4.995-3.33h5.55v1.11h-5.55Zm-3.083,3.33a2.2,2.2,0,0,0,.308-1.11H22.754a2.2,2.2,0,0,0,.309,1.11Zm14.738,0a1.11,1.11,0,0,1-1.11-1.11h2.22A1.11,1.11,0,0,1,24.974,108.7Zm3.573-8.879,2.664,2.22H25.973a.555.555,0,0,1-.427-.2l-1.682-2.02h4.683Zm-8.567,5.55h5.55v-1.11h-5.55V97.6h3.693a6.118,6.118,0,0,1,3.508,1.11H23.864a1.11,1.11,0,0,0-.852,1.82l1.685,2.02a1.661,1.661,0,0,0,1.277.6h6.049a2.439,2.439,0,0,1-2.3,3.33H19.979Zm-1.11-7.77v6.66h-5.55V97.6Z" transform="translate(0 -96.488)" fill="#3c4b5a"/>
</svg>
