<svg xmlns="http://www.w3.org/2000/svg" width="23.032" height="24" viewBox="0 0 23.032 24">
  <g  transform="translate(-9.8)">
    <path  d="M24.052,20.973v.7a1.112,1.112,0,0,1-.943,1.1l-.173.637A.793.793,0,0,1,22.17,24H20.457a.793.793,0,0,1-.765-.588l-.168-.637a1.117,1.117,0,0,1-.948-1.106v-.7a.674.674,0,0,1,.677-.677h4.123A.682.682,0,0,1,24.052,20.973Zm3.175-9.452a5.883,5.883,0,0,1-1.659,4.1,5.422,5.422,0,0,0-1.452,2.943.978.978,0,0,1-.968.825H19.479a.968.968,0,0,1-.963-.82,5.482,5.482,0,0,0-1.462-2.953,5.912,5.912,0,1,1,10.173-4.1Zm-5.244-3.58a.667.667,0,0,0-.667-.667,4.271,4.271,0,0,0-4.267,4.267.667.667,0,1,0,1.333,0,2.937,2.937,0,0,1,2.933-2.933A.664.664,0,0,0,21.983,7.941Zm-.667-4.272A.667.667,0,0,0,21.983,3V.667a.667.667,0,0,0-1.333,0V3A.667.667,0,0,0,21.316,3.669Zm-7.847,7.847a.667.667,0,0,0-.667-.667H10.467a.667.667,0,1,0,0,1.333H12.8A.664.664,0,0,0,13.469,11.516Zm18.7-.667H29.83a.667.667,0,1,0,0,1.333h2.336a.667.667,0,1,0,0-1.333ZM14.827,17.067l-1.654,1.654a.665.665,0,0,0,.938.943l1.654-1.654a.665.665,0,0,0-.938-.943Zm12.509-10.9A.666.666,0,0,0,27.8,5.97l1.654-1.654a.667.667,0,1,0-.943-.943L26.862,5.027a.665.665,0,0,0,0,.943A.677.677,0,0,0,27.336,6.163Zm-12.509-.2a.665.665,0,0,0,.938-.943L14.111,3.368a.667.667,0,1,0-.943.943ZM27.8,17.067a.667.667,0,1,0-.943.943l1.654,1.654a.665.665,0,1,0,.938-.943Z" class="color-fill" />
  </g>
</svg>
