<svg xmlns="http://www.w3.org/2000/svg" width="16.58" height="13.471" viewBox="0 0 16.58 13.471">
  <path d="M16.58,49.595a7.086,7.086,0,0,1-1.958.537,3.38,3.38,0,0,0,1.5-1.879,6.793,6.793,0,0,1-2.155.823A3.4,3.4,0,0,0,8.082,51.4a3.5,3.5,0,0,0,.079.775A9.621,9.621,0,0,1,1.154,48.62,3.4,3.4,0,0,0,2.2,53.162a3.357,3.357,0,0,1-1.536-.419v.037a3.415,3.415,0,0,0,2.723,3.34,3.393,3.393,0,0,1-.891.112,3.005,3.005,0,0,1-.643-.058,3.431,3.431,0,0,0,3.176,2.368,6.83,6.83,0,0,1-4.214,1.45A6.367,6.367,0,0,1,0,59.946a9.569,9.569,0,0,0,5.214,1.525A9.608,9.608,0,0,0,14.889,51.8c0-.15-.005-.3-.012-.439A6.781,6.781,0,0,0,16.58,49.595Z" transform="translate(0 -48)" fill="#03a9f4"/>
</svg>
