<svg xmlns="http://www.w3.org/2000/svg" width="44.627" height="44.627" viewBox="0 0 44.627 44.627">
  <g id="verified" transform="translate(0.35 0.35)" opacity="0.5">
    <g>
      <g>
        <path d="M37.494,6.433A21.963,21.963,0,0,0,6.433,37.494,21.963,21.963,0,1,0,37.494,6.433Zm-15.53,34.92a19.39,19.39,0,1,1,19.39-19.39A19.411,19.411,0,0,1,21.963,41.353Z" fill="#78a86d" stroke="#fff" stroke-width="0.7"/>
      </g>
    </g>
    <g transform="translate(11.093 14.539)">
      <g>
        <path d="M150.664,169.844a1.287,1.287,0,0,0-1.82,0L137.48,181.208l-5.982-5.982a1.287,1.287,0,0,0-1.82,1.82l6.892,6.892a1.287,1.287,0,0,0,1.82,0l12.274-12.274A1.287,1.287,0,0,0,150.664,169.844Z" transform="translate(-129.301 -169.467)" fill="#78a86d" stroke="#fff" stroke-width="0.7"/>
      </g>
    </g>
  </g>
</svg>
