<svg xmlns="http://www.w3.org/2000/svg" width="15.782" height="22.051" viewBox="0 0 15.782 22.051">
  <g transform="translate(-35.275 0)">
    <g transform="translate(35.275 0)">
      <path d="M44.09.76c-.6-1.031-1.244-1-1.848,0-2.772,4.123-6.967,10.308-6.967,13.4a7.891,7.891,0,1,0,15.782,0C51.057,11.033,46.862,4.883,44.09.76Zm4.763,16.919a6.749,6.749,0,0,1-2.381,2.31.955.955,0,0,1-.924-1.671,4.705,4.705,0,0,0,1.706-1.635,4.634,4.634,0,0,0,.711-2.275.943.943,0,0,1,1.884.107A7.042,7.042,0,0,1,48.853,17.679Z" transform="translate(-35.275 0)" class="color-fill"/>
    </g>
  </g>
</svg>
