<svg xmlns="http://www.w3.org/2000/svg" width="23.111" height="14.182" viewBox="0 0 23.111 14.182">
  <g transform="translate(0 -98.909)">
    <g transform="translate(0 98.909)">
      <g>
        <path d="M20.686,100.11a5.278,5.278,0,0,0-6.7,0,3.561,3.561,0,0,1-2.425.9,3.561,3.561,0,0,1-2.426-.9,5.078,5.078,0,0,0-3.352-1.2,5.078,5.078,0,0,0-3.352,1.2,3.561,3.561,0,0,1-2.426.9V103.9a3.561,3.561,0,0,0,2.426-.9,5.078,5.078,0,0,1,3.352-1.2A5.078,5.078,0,0,1,9.13,103a3.561,3.561,0,0,0,2.426.9,3.561,3.561,0,0,0,2.425-.9,5.278,5.278,0,0,1,6.7,0,3.561,3.561,0,0,0,2.425.9V101.01A3.561,3.561,0,0,1,20.686,100.11Z" transform="translate(0 -98.909)" class="color-fill"/>
      </g>
    </g>
    <g transform="translate(0 108.101)">
      <g>
        <path d="M19.759,303.446a3.719,3.719,0,0,0-4.851,0,5.077,5.077,0,0,1-3.352,1.2,5.078,5.078,0,0,1-3.352-1.2,3.562,3.562,0,0,0-2.426-.9,3.561,3.561,0,0,0-2.426.9A5.078,5.078,0,0,1,0,304.647v2.889a5.078,5.078,0,0,0,3.352-1.2,3.561,3.561,0,0,1,2.426-.9,3.561,3.561,0,0,1,2.426.9,5.078,5.078,0,0,0,3.352,1.2,5.077,5.077,0,0,0,3.352-1.2,3.719,3.719,0,0,1,4.851,0,5.077,5.077,0,0,0,3.352,1.2v-2.889A5.077,5.077,0,0,1,19.759,303.446Z" transform="translate(0 -302.546)" class="color-fill"/>
      </g>
    </g>
    <g transform="translate(0 103.374)">
      <g>
        <path d="M19.759,198.718a3.719,3.719,0,0,0-4.851,0,5.077,5.077,0,0,1-3.352,1.2,5.078,5.078,0,0,1-3.352-1.2,3.561,3.561,0,0,0-2.426-.9,3.561,3.561,0,0,0-2.426.9A5.077,5.077,0,0,1,0,199.919v3.152a3.561,3.561,0,0,0,2.426-.9,5.078,5.078,0,0,1,3.352-1.2,5.078,5.078,0,0,1,3.352,1.2,3.561,3.561,0,0,0,2.426.9,3.561,3.561,0,0,0,2.425-.9,5.278,5.278,0,0,1,6.7,0,3.561,3.561,0,0,0,2.425.9v-3.152A5.077,5.077,0,0,1,19.759,198.718Z" transform="translate(0 -197.818)" class="color-fill"/>
      </g>
    </g>
  </g>
</svg>
