<svg xmlns="http://www.w3.org/2000/svg" xmlns:xlink="http://www.w3.org/1999/xlink" width="55" height="60" viewBox="0 0 55 60">
  <g transform="translate(-688 -1843)">
    <g transform="translate(688 1846.417)">
      <path d="M5.621,38.958c-.388.682-3.788,6.716-3.788,9.625a4.583,4.583,0,0,0,9.167,0c0-2.909-3.4-8.943-3.788-9.625a.953.953,0,0,0-1.592,0Zm.8,12.375a2.75,2.75,0,0,1-2.75-2.75c0-1.621,1.593-5.031,2.75-7.247,1.157,2.216,2.75,5.626,2.75,7.247A2.75,2.75,0,0,1,6.417,51.333Zm0,0" fill="#919fa3"/>
      <path d="M54.083,11h-5.5a.917.917,0,0,0-.917.917v2.75H35.348L33.985,9.835a.917.917,0,0,0-.883-.668H30.25V5.5h6.417a2.75,2.75,0,0,0,0-5.5H18.333a2.75,2.75,0,0,0,0,5.5H24.75V9.167H21.9a.917.917,0,0,0-.883.668l-1.363,4.832H11.917A11.93,11.93,0,0,0,0,26.583v7.333a.917.917,0,0,0,.917.917h11a.917.917,0,0,0,.917-.917V30.25a2.75,2.75,0,0,1,2.75-2.75h1.074c.811,4.159,4.859,7.333,9.722,7.333H28.62c4.865,0,8.911-3.174,9.722-7.333h9.324v2.75a.917.917,0,0,0,.917.917h5.5A.917.917,0,0,0,55,30.25V11.917A.917.917,0,0,0,54.083,11ZM17.417,2.75a.917.917,0,0,1,.917-.917H36.667a.917.917,0,1,1,0,1.833H18.333A.917.917,0,0,1,17.417,2.75ZM26.583,5.5h1.833V9.167H26.583ZM11,30.25V33H1.833V26.583A10.1,10.1,0,0,1,11.917,16.5h7.219l-2.585,9.167h-.967A4.589,4.589,0,0,0,11,30.25ZM28.62,33H26.38c-4.39,0-7.97-3.087-8.045-6.905L22.592,11h9.816l4.259,15.095C36.591,29.913,33.01,33,28.62,33Zm9.829-7.333L35.865,16.5h11.8v9.167Zm14.717,3.667H49.5v-16.5h3.667Zm0,0" fill="#919fa3"/>
    </g>
  </g>
</svg>
