<?xml version="1.0" encoding="utf-8"?>
<!-- Generator: Adobe Illustrator 24.0.1, SVG Export Plug-In . SVG Version: 6.00 Build 0)  -->
<svg version="1.1" id="Слой_1" xmlns="http://www.w3.org/2000/svg" xmlns:xlink="http://www.w3.org/1999/xlink" x="0px" y="0px"
	 viewBox="0 0 220.9 16" style="enable-background:new 0 0 220.9 16;" xml:space="preserve">
<style type="text/css">
	.st0{fill:#73A942;}
	.st1{fill:#FFFFFF;}
</style>
<g>
	<path class="st0" d="M11.8,13.6H7.5L3.7,7.8v5.9H0V0.3h3.7v5.6l3.5-5.6h4.2L7.2,6.8L11.8,13.6z"/>
	<path class="st0" d="M22.6,13.6l-0.7-2.2h-4.7l-0.7,2.2h-3.9l5.2-13.3h3.6l5.3,13.3H22.6z M21,8.6l-1.5-4.1l-1.5,4.1H21z"/>
	<path class="st0" d="M31.5,0.3h9.5v13.3h-3.7v-10h-2.6l-0.5,4.6c-0.4,3.6-2.1,5.4-5.1,5.4H28v-3.4h0.6c0.6,0,1-0.2,1.3-0.5
		c0.3-0.3,0.5-0.9,0.6-1.6L31.5,0.3z"/>
	<path class="st0" d="M53.3,0.3h2.9v13.3h-3.6V6.6l-5.3,7.1h-2.8V0.3h3.6v7.1L53.3,0.3z"/>
	<path class="st0" d="M59.7,0.3h11.1v13.3h-3.7v-10h-3.7v10h-3.7V0.3z"/>
	<path class="st0" d="M80.7,14c-2,0-3.7-0.7-5-2c-1.3-1.3-2-3-2-5c0-2,0.7-3.7,2-5c1.3-1.3,3-2,5-2c1.7,0,3.2,0.5,4.5,1.6
		c1.2,1.1,2,2.4,2.3,4.1h-3.7C83.5,5,83.1,4.4,82.6,4s-1.2-0.6-1.9-0.6c-1,0-1.7,0.3-2.3,1C77.8,5.1,77.5,6,77.5,7
		c0,1,0.3,1.9,0.9,2.5s1.4,1,2.3,1c0.7,0,1.4-0.2,1.9-0.7c0.5-0.4,0.9-1,1.1-1.8h3.7c-0.3,1.7-1,3.2-2.2,4.2S82.5,14,80.7,14z"/>
	<path class="st0" d="M96.8,14c-2.1,0-3.9-0.7-5.3-2s-2.1-3-2.1-5s0.7-3.7,2.1-5s3.1-2,5.3-2c2.1,0,3.9,0.7,5.2,2s2.1,3,2.1,5
		s-0.7,3.7-2.1,5S99,14,96.8,14z M94.3,9.6c0.7,0.7,1.5,1,2.5,1s1.8-0.3,2.5-1c0.7-0.7,1-1.5,1-2.6s-0.3-1.9-1-2.6
		c-0.7-0.7-1.5-1-2.5-1s-1.9,0.3-2.5,1s-1,1.5-1,2.6S93.7,8.9,94.3,9.6z"/>
	<path class="st1" d="M120.4,6.6c0.6,0.3,1.1,0.7,1.5,1.3c0.4,0.6,0.5,1.2,0.5,1.9c0,1.1-0.4,2-1.2,2.7c-0.8,0.7-1.8,1.1-3.1,1.1
		H112V0.3h6c1.2,0,2.2,0.3,2.9,1s1.2,1.5,1.2,2.4c0,0.6-0.2,1.1-0.5,1.6C121.4,5.9,121,6.3,120.4,6.6z M118.3,5.2
		c0.2-0.2,0.3-0.5,0.3-0.8c0-0.3-0.1-0.6-0.3-0.8c-0.2-0.2-0.5-0.3-0.9-0.3h-1.8v2.3h1.8C117.8,5.5,118.1,5.4,118.3,5.2z
		 M117.6,10.6c0.4,0,0.7-0.1,1-0.3c0.2-0.2,0.4-0.5,0.4-0.9s-0.1-0.6-0.4-0.9s-0.6-0.3-1-0.3h-2v2.4H117.6z"/>
	<path class="st1" d="M134.2,0.3h2.9v13.3h-3.6V6.6l-5.3,7.1h-2.8V0.3h3.6v7.1L134.2,0.3z"/>
	<path class="st1" d="M143.2,0.3h9.5v13.3H149v-10h-2.6l-0.5,4.6c-0.4,3.6-2.1,5.4-5.1,5.4h-1.1v-3.4h0.6c0.6,0,1-0.2,1.3-0.5
		c0.3-0.3,0.5-0.9,0.6-1.6L143.2,0.3z"/>
	<path class="st1" d="M158.7,0.3h9.5v13.3h-3.7v-10H162l-0.5,4.6c-0.4,3.6-2.1,5.4-5.1,5.4h-1.1v-3.4h0.6c0.6,0,1-0.2,1.3-0.5
		c0.3-0.3,0.5-0.9,0.6-1.6L158.7,0.3z"/>
	<path class="st1" d="M180.6,13.6l-0.7-2.2h-4.7l-0.7,2.2h-3.9l5.2-13.3h3.6l5.3,13.3H180.6z M178.9,8.6l-1.5-4.1L176,8.6H178.9z"/>
	<path class="st1" d="M198.4,10.3h1.3V16h-3.4v-2.4h-7V16H186v-5.8h1.2c0.4-0.4,0.7-1.2,0.8-2.3c0.2-1.1,0.4-3.6,0.7-7.6h9.7V10.3z
		 M192,3.7c-0.1,1.8-0.2,3.2-0.4,4.3c-0.2,1-0.4,1.8-0.7,2.3h4V3.7H192z"/>
	<path class="st1" d="M220.9,13.6h-4.3l-3.7-6v6h-3.6v-6l-3.7,6h-4.3l4.6-6.9l-4.2-6.4h4.2l3.4,5.7V0.3h3.6V6l3.4-5.7h4.2l-4.2,6.4
		L220.9,13.6z"/>
</g>
</svg>
