<?xml version="1.0" encoding="utf-8"?>
<!-- Generator: Adobe Illustrator 24.0.1, SVG Export Plug-In . SVG Version: 6.00 Build 0)  -->
<svg version="1.1" xmlns="http://www.w3.org/2000/svg" xmlns:xlink="http://www.w3.org/1999/xlink" x="0px" y="0px"
	 viewBox="0 0 90.7 40" style="enable-background:new 0 0 90.7 40;" xml:space="preserve">

<g id="Capa_1">
	<path d="M21.4,28.7c-3.1,0-5.7,2.5-5.7,5.7c0,3.1,2.5,5.7,5.7,5.7s5.7-2.5,5.7-5.7C27.1,31.2,24.5,28.7,21.4,28.7z M21.4,38.1
		c-2.1,0-3.8-1.7-3.8-3.8c0-2.1,1.7-3.8,3.8-3.8s3.8,1.7,3.8,3.8C25.2,36.4,23.5,38.1,21.4,38.1z"/>
	<path d="M31.9,35.3h40.9l0.1,0.4c0.6,2.6,2.9,4.3,5.5,4.3c2.6,0,4.9-1.8,5.5-4.3l0.1-0.4h5.8c0.5,0,0.9-0.4,0.9-0.9V7.2
		c0-3.9-3.2-7.2-7.2-7.2H64.2c-0.5,0-0.9,0.4-0.9,0.9s0.4,0.9,0.9,0.9h19.4c2.4,0,4.5,1.6,5.1,3.9l0.2,0.6H76.5
		c-0.5,0-0.9,0.4-0.9,0.9v12.5c0,0.5,0.4,0.9,0.9,0.9h12.4v12.7H84l-0.1-0.4c-0.6-2.5-2.9-4.4-5.5-4.4s-4.9,1.8-5.5,4.4l-0.1,0.4h-1
		V7.3c0-0.5-0.4-0.9-0.9-0.9H59.8c-0.5,0-0.9,0.4-0.9,0.9v11.6H12.1c-0.5,0-0.9,0.4-0.9,0.9c0,0.5,0.4,0.9,0.9,0.9h46.7v12.7h-27
		c-0.5,0-0.9,0.4-0.9,0.9S31.3,35.3,31.9,35.3z M77.4,18.8V8.2h11.5v10.6H77.4z M78.4,30.5c2.1,0,3.8,1.7,3.8,3.8
		c0,2.1-1.7,3.8-3.8,3.8s-3.8-1.7-3.8-3.8C74.6,32.2,76.3,30.5,78.4,30.5z M60.7,8.2H70v11.7h-1.3c-0.5,0-0.9,0.4-0.9,0.9
		c0,0.5,0.4,0.9,0.9,0.9H70v11.7h-9.3V8.2z"/>
	<path d="M71.6,1.6c0.2-0.2,0.3-0.4,0.3-0.7s-0.1-0.5-0.3-0.7C71.4,0.1,71.1,0,70.9,0s-0.5,0.1-0.7,0.3C70.1,0.4,70,0.7,70,0.9
		s0.1,0.5,0.3,0.7C70.6,1.9,71.2,1.9,71.6,1.6z"/>
	<path d="M65.3,0H7.2C3.6,0,0.6,2.6,0.1,6.1C0,6.3,0,6.4,0,6.5v27.9c0,0.5,0.4,0.9,0.9,0.9h10.5c0.5,0,0.9-0.4,0.9-0.9
		s-0.4-0.9-0.9-0.9H1.9V15.2H7c0.5,0,0.9-0.4,0.9-0.9V6.5C8,6,7.6,5.6,7,5.6h-5l0.3-0.7c0.9-1.8,2.8-3,4.8-3h58.2
		c0.5,0,0.9-0.4,0.9-0.9S65.9,0,65.3,0z M6.1,7.4v5.9H1.9V7.4H6.1z"/>
	<path d="M7,18.9c-0.2,0-0.5,0.1-0.7,0.3c-0.2,0.2-0.3,0.4-0.3,0.7c0,0.2,0.1,0.5,0.3,0.7c0.3,0.3,1,0.3,1.3,0
		C7.9,20.3,8,20.1,8,19.8c0-0.2-0.1-0.5-0.3-0.7C7.5,19,7.3,18.9,7,18.9z"/>
	<path fill="#73A942" d="M54.2,15.2c0.5,0,0.9-0.4,0.9-0.9V6.5c0-0.5-0.4-0.9-0.9-0.9H26C25.5,5.6,25,6,25,6.5v7.8
		c0,0.5,0.4,0.9,0.9,0.9H54.2z M26.9,7.4h26.4v5.9H26.9V7.4z"/>
	<path d="M20.4,5.6h-7.8c-0.5,0-0.9,0.4-0.9,0.9v7.8c0,0.5,0.4,0.9,0.9,0.9h7.8c0.5,0,0.9-0.4,0.9-0.9V6.5C21.3,6,20.9,5.6,20.4,5.6
		z M19.5,13.4h-5.9V7.4h5.9V13.4z"/>
</g>
<g id="Слой_2">
</g>
</svg>
