<?xml version="1.0" encoding="utf-8"?>
<!-- Generator: Adobe Illustrator 24.0.1, SVG Export Plug-In . SVG Version: 6.00 Build 0)  -->
<svg version="1.1" id="Capa_1" xmlns="http://www.w3.org/2000/svg" xmlns:xlink="http://www.w3.org/1999/xlink" x="0px" y="0px"
	 viewBox="0 0 512 512" style="enable-background:new 0 0 512 512;" xml:space="preserve">
<g>
	<g>
		<path fill="#FFFFFF" d="M323,0.6c-3.8-1.6-8.2,0.2-9.8,4.1L276.7,93L142.6,57.5v-50c0-4.2-3.4-7.5-7.5-7.5s-7.5,3.4-7.5,7.5v55.8
			c0,3.4,2.3,6.4,5.6,7.3l146,38.6c3.6,1,7.4-1,8.9-4.4l39-94.4C328.6,6.5,326.8,2.2,323,0.6z"/>
	</g>
</g>
<g>
	<g>
		<path fill="#FFFFFF" d="M95,0c-4.2,0-7.5,3.4-7.5,7.5V43L9.4,22.3c-4-1.1-8.1,1.3-9.2,5.3c-1.1,4,1.3,8.1,5.3,9.2L93.1,60
			c4.7,1.2,9.4-2.4,9.4-7.3V7.5C102.5,3.4,99.2,0,95,0z"/>
	</g>
</g>
<g>
	<g>
		<path fill="#FFFFFF" d="M506.4,407.7l-87.2-23.1c-3.6-1-7.4,0.9-8.9,4.4l-46.5,112.6c-1.6,3.8,0.2,8.2,4.1,9.8
			c0.9,0.4,1.9,0.6,2.9,0.6c3,0,5.8-1.8,7-4.6l44-106.5l80.9,21.4c4,1.1,8.1-1.3,9.2-5.3C512.8,412.9,510.4,408.8,506.4,407.7z"/>
	</g>
</g>
<g>
	<g>
		<path fill="#FFFFFF" d="M507.4,68.5c-3.8-1.6-8.2,0.2-9.8,4.1l-29.3,71.1l-137.8-36.4l40-96.8c1.6-3.8-0.2-8.2-4.1-9.8
			c-3.8-1.6-8.2,0.2-9.8,4.1l-43.2,104.8c-0.8,2-0.7,4.3,0.2,6.2c1,1.9,2.7,3.4,4.8,3.9l152.4,40.3c3.6,1,7.4-1,8.9-4.4l31.8-77.2
			C513,74.5,511.2,70.1,507.4,68.5z"/>
	</g>
</g>
<g>
	<path fill="#73A942" d="M133.2,283.1l88.4,23.4l6.9-6.5l-2.8-7.9l-83.1-22V114.5l229,60.6c4,1.1,8.1-1.3,9.2-5.3
		c1.1-4-1.3-8.1-5.3-9.2L137,97.5c-4.7-1.2-9.4,2.4-9.4,7.3v171C127.6,279.2,129.9,282.2,133.2,283.1z"/>
	<polygon fill="#73A942" points="224.3,289.6 224.3,289.6 224.3,289.6 	"/>
	<path fill="#73A942" d="M459.1,182.7l-48.8-12.9c-4-1.1-8.1,1.3-9.2,5.3c-1.1,4,1.3,8.1,5.3,9.2l40.5,10.7l-57.8,140.2l-165-43.6
		c-0.1,0-0.2,0-0.3-0.1l-3.7,16.3h0l0.4-1.6l171.1,45.3c3.6,1,7.4-1,8.9-4.4l63.6-154.2C465.9,188.7,463.5,183.9,459.1,182.7z"/>
</g>
<g>
	<path fill="#FFFFFF" d="M226.8,278.7c1.3-5.8-4.7-10.9-10.2-8.6L188,282l35.9,9.5L226.8,278.7z"/>
	<path fill="#FFFFFF" d="M380.1,374.3l-164.8-43.6c-0.1,0-0.2,0-0.3-0.1l5.2-22.8h0l0.4-1.6l-14.5-3.8l-31.8,140.3L134.9,381
		c-0.8-1.3-2-2.3-3.4-2.9L64.1,350l125-52.1l-23.9-6.3l-62.6,26.1v-11c0-3.4-2.3-6.4-5.6-7.3L9.4,276.2c-4-1.1-8.1,1.3-9.2,5.3
		c-1.1,4,1.3,8.1,5.3,9.2l81.9,21.7v11.5L41.7,343c-6,2.5-6,11.3,0,13.9l45.9,19.2c0,0.2,0,0.4,0,0.7v127.7c0,4.1,3.4,7.5,7.5,7.5
		s7.5-3.4,7.5-7.5V382.3l20.9,8.8l4.1,6.4v106.9c0,4.2,3.4,7.5,7.5,7.5s7.5-3.4,7.5-7.5v-83.4l28.6,44.8c3.5,5.5,12.2,4,13.7-2.4
		l26.8-118.2l156.3,41.3l-47.5,115c-1.6,3.8,0.2,8.2,4.1,9.8c0.9,0.4,1.9,0.6,2.9,0.6c3,0,5.8-1.8,7-4.6l50.7-122.9
		c0.8-2,0.7-4.3-0.2-6.2C383.9,376.3,382.2,374.8,380.1,374.3z"/>
</g>
<g id="Слой_2">
	<polyline fill="#FFFFFF" points="165.2,291.5 188,282 223.9,291.5 220.5,306.2 164.2,291.3 	"/>
</g>
<g>
	<g>
		<path fill="#FFFFFF" d="M97,86.9L9.4,63.8c-4-1.1-8.1,1.3-9.2,5.3c-1.1,4,1.3,8.1,5.3,9.2L87.5,100v155.5L9.4,234.8
			c-4-1.1-8.1,1.3-9.2,5.3c-1.1,4,1.3,8.1,5.3,9.2l87.5,23.1c4.7,1.2,9.4-2.4,9.4-7.3v-171C102.5,90.8,100.3,87.8,97,86.9z"/>
	</g>
</g>
<g>
	<g>
		<path fill="#FFFFFF" d="M506.4,366.2l-63.5-16.8l60.4-146.3c1.6-3.8-0.2-8.2-4.1-9.8c-3.8-1.6-8.2,0.2-9.8,4.1l-63.6,154.2
			c-1.7,4.1,0.7,9,5,10.1l71.8,19c0.6,0.2,1.3,0.3,1.9,0.3c3.3,0,6.4-2.2,7.3-5.6C512.8,371.4,510.4,367.3,506.4,366.2z"/>
	</g>
</g>
</svg>
