<?xml version="1.0" encoding="utf-8"?>
<!-- Generator: Adobe Illustrator 24.0.1, SVG Export Plug-In . SVG Version: 6.00 Build 0)  -->
<svg version="1.1" xmlns="http://www.w3.org/2000/svg" xmlns:xlink="http://www.w3.org/1999/xlink" x="0px" y="0px"
	 viewBox="0 0 512 512" style="enable-background:new 0 0 512 512;" xml:space="preserve">
<g id="Capa_1">
	<g>
		<g>
			<path fill="#73A942" d="M151.8,224.4h-8c-4.1,0-7.5,3.4-7.5,7.5s3.4,7.5,7.5,7.5h8c4.1,0,7.5-3.4,7.5-7.5
				C159.3,227.8,155.9,224.4,151.8,224.4z"/>
		</g>
	</g>
	<g>
		<g>
			<path fill="#73A942" d="M76.4,360.7h-0.8c-5.8,0-11.6,0.7-17.2,2c-3.9,0.9-6.5,4.9-5.7,8.9c0.9,4.1,5,6.7,9,5.8
				c4.5-1,9.1-1.6,13.8-1.6h0.8c4.2,0,7.5-3.4,7.5-7.5S80.6,360.7,76.4,360.7z"/>
		</g>
	</g>
	<g>
		<g>
			<path fill="#73A942" d="M9.2,419.4c-4.1-0.6-7.9,2.3-8.5,6.4c-0.5,3.5-0.7,7.1-0.7,10.6c0,2.5,0.1,5,0.4,7.5
				c0.4,3.9,3.7,6.8,7.5,6.8c0.2,0,0.5,0,0.7,0c4.1-0.4,7.1-4.1,6.7-8.2c-0.2-2-0.3-4-0.3-6c0-2.9,0.2-5.7,0.6-8.5
				C16.2,423.7,13.3,419.9,9.2,419.4z"/>
		</g>
	</g>
	<g>
		<g>
			<path fill="#73A942" d="M273.1,343.4c-2.9-3-7.7-3-10.6-0.1c-3.5,3.4-7.3,6.4-11.5,8.9c-3.6,2.1-4.7,6.7-2.6,10.3
				c1.4,2.4,3.9,3.7,6.5,3.7c1.3,0,2.6-0.3,3.8-1.1c5.2-3.1,10-6.8,14.3-11.1C276,351.1,276,346.3,273.1,343.4z"/>
		</g>
	</g>
	<g>
		<g>
			<path fill="#73A942" d="M73.8,496.9c-4.9-0.1-9.7-0.9-14.4-2.2c-4-1.1-8.1,1.2-9.2,5.2s1.2,8.1,5.2,9.2c5.8,1.6,11.9,2.5,17.9,2.7
				c0.1,0,0.1,0,0.2,0c4,0,7.4-3.2,7.5-7.3C81.3,500.5,78,497.1,73.8,496.9z"/>
		</g>
	</g>
	<g>
		<g>
			<path fill="#73A942" d="M122.8,497h-16.4c-4.2,0-7.5,3.4-7.5,7.5c0,4.1,3.4,7.5,7.5,7.5h16.4c4.2,0,7.5-3.4,7.5-7.5
				C130.3,500.3,126.9,497,122.8,497z"/>
		</g>
	</g>
	<g>
		<g>
			<path fill="#73A942" d="M34.3,480.7c-3.6-3.3-6.7-7.1-9.4-11.1c-2.3-3.5-6.9-4.4-10.4-2.2c-3.5,2.3-4.4,6.9-2.2,10.4
				c3.3,5.1,7.3,9.7,11.7,13.9c1.4,1.4,3.3,2,5.1,2C35.9,493.7,39.2,485.2,34.3,480.7z"/>
		</g>
	</g>
	<g>
		<g>
			<path fill="#73A942" d="M37,379.8c-2.7-3.1-7.4-3.5-10.6-0.8c-4.6,3.9-8.7,8.4-12.2,13.4c-2.2,3.1-1.7,7.4,1.1,10
				c3.3,3,8.6,2.4,11.1-1.2c2.8-3.9,6.1-7.6,9.8-10.7C39.3,387.6,39.7,382.9,37,379.8z"/>
		</g>
	</g>
	<g>
		<g>
			<path fill="#73A942" d="M319.3,497h-16.4c-4.1,0-7.5,3.4-7.5,7.5c0,4.1,3.4,7.5,7.5,7.5h16.4c4.1,0,7.5-3.4,7.5-7.5
				C326.8,500.3,323.4,497,319.3,497z"/>
		</g>
	</g>
	<g>
		<g>
			<path fill="#73A942" d="M231.3,367.7c-0.2-4.1-3.8-7.3-7.9-7.1c-1.1,0.1-2.3,0.1-3.5,0.1h-12.5c-4.1,0-7.5,3.4-7.5,7.5
				s3.4,7.5,7.5,7.5h12.5c1.4,0,2.9,0,4.3-0.1C228.4,375.4,231.5,371.8,231.3,367.7z"/>
		</g>
	</g>
	<g>
		<g>
			<path fill="#73A942" d="M252.3,231.7c-5.5-2.6-11.3-4.5-17.2-5.7c-4.1-0.8-8,1.8-8.9,5.9c-0.8,4.1,1.8,8,5.9,8.9
				c4.8,1,9.4,2.5,13.8,4.6c3.7,1.8,8.3,0.1,10-3.6C257.6,238,256,233.5,252.3,231.7z"/>
		</g>
	</g>
	<g>
		<g>
			<path fill="#73A942" d="M125.6,360.7h-16.4c-4.2,0-7.5,3.4-7.5,7.5s3.4,7.5,7.5,7.5h16.4c4.2,0,7.5-3.4,7.5-7.5
				S129.7,360.7,125.6,360.7z"/>
		</g>
	</g>
	<g>
		<g>
			<path fill="#73A942" d="M289.4,270.1c-2.4-5.6-5.5-10.8-9.1-15.7c-2.5-3.3-7.2-4-10.5-1.4c-3.3,2.5-4,7.2-1.4,10.5
				c2.9,3.9,5.4,8.1,7.3,12.5c1.7,4,6.6,5.7,10.4,3.7C289.4,277.9,290.9,273.6,289.4,270.1z"/>
		</g>
	</g>
	<g>
		<g>
			<path fill="#73A942" d="M288.4,297.5c-4.1-0.3-7.7,2.8-8,7c-0.3,4.9-1.3,9.7-2.8,14.3c-1.2,3.7,0.8,7.9,4.4,9.3
				c4,1.5,8.5-0.7,9.9-4.7c1.9-5.8,3-11.7,3.5-17.8C295.7,301.4,292.6,297.8,288.4,297.5z"/>
		</g>
	</g>
	<g>
		<g>
			<path fill="#73A942" d="M270.1,497h-16.4c-4.1,0-7.5,3.4-7.5,7.5c0,4.1,3.4,7.5,7.5,7.5h16.4c4.1,0,7.5-3.4,7.5-7.5
				C277.7,500.3,274.3,497,270.1,497z"/>
		</g>
	</g>
	<g>
		<g>
			<path fill="#73A942" d="M174.7,360.7h-16.4c-4.1,0-7.5,3.4-7.5,7.5s3.4,7.5,7.5,7.5h16.4c4.1,0,7.5-3.4,7.5-7.5
				S178.8,360.7,174.7,360.7z"/>
		</g>
	</g>
	<g>
		<g>
			<path fill="#73A942" d="M221,497h-16.4c-4.1,0-7.5,3.4-7.5,7.5c0,4.1,3.4,7.5,7.5,7.5H221c4.1,0,7.5-3.4,7.5-7.5
				C228.5,500.3,225.2,497,221,497z"/>
		</g>
	</g>
	<g>
		<g>
			<path fill="#73A942" d="M171.9,497h-16.4c-4.1,0-7.5,3.4-7.5,7.5c0,4.1,3.4,7.5,7.5,7.5h16.4c4.1,0,7.5-3.4,7.5-7.5
				C179.4,500.3,176,497,171.9,497z"/>
		</g>
	</g>
	<g>
		<g>
			<path fill="#73A942" d="M200.9,224.4h-16.4c-4.1,0-7.5,3.4-7.5,7.5s3.4,7.5,7.5,7.5h16.4c4.1,0,7.5-3.4,7.5-7.5
				C208.4,227.8,205.1,224.4,200.9,224.4z"/>
		</g>
	</g>
	<g>
		<g>
			<path fill="#73A942" d="M360.2,497h-8c-4.1,0-7.5,3.4-7.5,7.5c0,4.1,3.4,7.5,7.5,7.5h8c4.1,0,7.5-3.4,7.5-7.5
				C367.7,500.3,364.4,497,360.2,497z"/>
		</g>
	</g>
</g>
<g id="Слой_2">
	<g>
		<g>
			<g>
				<path fill="#FFFFFF" d="M95.7,0C42.9,0,0,42.9,0,95.7C0,170.8,87.5,235.3,91.3,238c2.6,1.9,6.2,1.9,8.8,0
					c3.7-2.7,91.3-67.2,91.3-142.3C191.4,42.9,148.4,0,95.7,0z M95.7,222.5C78.2,208.5,15,154.1,15,95.7C15,51.2,51.2,15,95.7,15
					s80.7,36.2,80.7,80.7C176.3,154.1,113.2,208.5,95.7,222.5z"/>
			</g>
		</g>
		<g>
			<g>
				<path fill="#FFFFFF" d="M149.1,80.2c-1.2-4-5.3-6.3-9.3-5.1c-4,1.2-6.3,5.3-5.1,9.3c1.1,3.7,1.6,7.5,1.6,11.3
					c0,22.4-18.2,40.6-40.6,40.6c-22.4,0-40.6-18.2-40.6-40.6c0-22.4,18.2-40.6,40.6-40.6c6.6,0,12.8,1.5,18.6,4.5
					c3.7,1.9,8.2,0.5,10.1-3.2c1.9-3.7,0.5-8.2-3.2-10.1c-7.8-4-16.6-6.2-25.5-6.2C65,40.1,40.1,65,40.1,95.7s24.9,55.6,55.6,55.6
					s55.6-24.9,55.6-55.6C151.3,90.4,150.6,85.2,149.1,80.2z"/>
			</g>
		</g>
		<g>
			<g>
				<path fill="#FFFFFF" d="M416.3,272.5c-52.8,0-95.7,42.9-95.7,95.7c0,75.1,87.5,139.6,91.3,142.3c2.6,1.9,6.2,1.9,8.8,0
					c3.7-2.7,91.3-67.2,91.3-142.3C512,315.5,469.1,272.5,416.3,272.5z M416.3,495c-17.5-13.9-80.7-68.4-80.7-126.8
					c0-44.5,36.2-80.7,80.7-80.7s80.7,36.2,80.7,80.7C497,426.6,433.8,481.1,416.3,495z"/>
			</g>
		</g>
		<g>
			<g>
				<path fill="#FFFFFF" d="M416.3,312.6c-6.1,0-12.2,1-17.9,3c-3.9,1.3-6,5.7-4.7,9.5c1.3,3.9,5.7,6,9.5,4.7c4.2-1.4,8.6-2.2,13.1-2.2
					c22.4,0,40.6,18.2,40.6,40.6c0,22.4-18.2,40.6-40.6,40.6c-22.4,0-40.6-18.2-40.6-40.6c0-7.1,1.9-14.1,5.4-20.2
					c2.1-3.6,0.8-8.2-2.8-10.3c-3.6-2.1-8.2-0.8-10.3,2.8c-4.8,8.4-7.4,18-7.4,27.7c0,30.7,24.9,55.6,55.6,55.6s55.6-24.9,55.6-55.6
					S447,312.6,416.3,312.6z"/>
			</g>
		</g>
	</g>
</g>
</svg>
