<?xml version="1.0" encoding="utf-8"?>
<!-- Generator: Adobe Illustrator 24.0.1, SVG Export Plug-In . SVG Version: 6.00 Build 0)  -->
<svg version="1.1" xmlns="http://www.w3.org/2000/svg" xmlns:xlink="http://www.w3.org/1999/xlink" x="0px" y="0px"
	 viewBox="0 0 100 100" style="enable-background:new 0 0 100 100;" xml:space="preserve">
<g id="Capa_1">
	<g>
		<g>
			<g>
				<path fill="#73A942" d="M46.7,58.8l4,4c0.4,0.4,0.9,0.5,1.4,0.4c0.5-0.1,0.9-0.5,1.1-1.1c0.1-0.5,0-1.1-0.4-1.4l-4-4l4-4
					c0.3-0.3,0.4-0.7,0.4-1c0-0.4-0.2-0.8-0.4-1c-0.6-0.6-1.5-0.6-2.1,0l-4,4l-4-4c-0.6-0.6-1.5-0.6-2.1,0c-0.6,0.6-0.6,1.5,0,2.1
					l4,4l-4,4c-0.4,0.4-0.5,0.9-0.4,1.4c0.1,0.5,0.5,0.9,1.1,1.1c0.5,0.1,1.1,0,1.4-0.4L46.7,58.8z"/>
				<path fill="#101010" d="M100,9.8c0-5.4-4.4-9.8-9.8-9.8c-5.4,0-9.8,4.4-9.8,9.8l0,0.2H19.7V9.8c0-5.4-4.4-9.8-9.8-9.8S0,4.4,0,9.8
					v80.3c0,5.4,4.4,9.8,9.8,9.8h80.3c5.4,0,9.8-4.4,9.8-9.8V9.8z M80.3,13v15.2l-0.2,0C70.5,26,65.6,17,64,13.3L63.9,13H80.3z
					 M60.7,13l0,0.1c1.4,3.7,6.8,15.8,19.4,18.1l0.2,0v15.2l-0.2-0.1c-30.9-8.4-40.7-27.4-42.9-33.1L37,13H60.7z M3,9.8
					C3,6.1,6.1,3,9.8,3c3.8,0,6.9,3.1,6.9,6.9v73.3l-0.3-0.3c-3.7-3.4-9.4-3.4-13.1,0L3,83.1L3,9.8z M9.8,97C6.1,97,3,93.9,3,90.2
					c0-3.8,3.1-6.9,6.9-6.9s6.9,3.1,6.9,6.9c0,0.8,0.7,1.5,1.5,1.5c0.8,0,1.5-0.7,1.5-1.5V70l0.2,0c17.5,2.6,33.4,12.3,43.8,26.7
					l0.2,0.3H9.8z M95,95c-1.3,1.3-3,2-4.9,2H67.5L67.5,97C56.6,80.6,39.3,69.7,19.9,67.1l-0.2,0v-29l0.5,1.2
					c0.1,0.3,0.3,0.6,0.4,0.9c2.5,5.5,6.5,10.2,11.6,13.5c0.7,0.4,1.4,0.8,2.1,1.2c0.7,0.4,1.6,0.1,2-0.6c0.4-0.7,0.1-1.6-0.6-2
					c-0.6-0.3-1.3-0.7-1.8-1.1c-4.6-3-8.3-7.2-10.5-12.2c-2.2-5-3.5-10.3-3.6-15.7V13h14.1l0,0.1c0.9,2.6,3.7,9.4,10.7,16.7
					c8.7,9.1,20.7,15.6,35.6,19.6l0.1,0v19.1L80,68.3c-5.3-4.9-13-8.5-22.9-10.9c-0.8-0.2-1.6,0.3-1.8,1.1c-0.2,0.8,0.3,1.6,1.1,1.8
					c11.1,2.6,19.1,6.8,23.9,12.5l0,0.1v17.3c0,0.8,0.7,1.5,1.5,1.5c0.8,0,1.5-0.7,1.5-1.5c0-3.8,3.1-6.9,6.9-6.9
					c3.8,0,6.9,3.1,6.9,6.9C97,92,96.3,93.7,95,95z M96.7,82.9v-0.1c-3.7-3.3-9.3-3.3-13.1,0.1l-0.3,0.3V9.8c0-3.8,3.1-6.9,6.9-6.9
					C93.9,3,97,6.1,97,9.8v72.8l0.3,0.3H96.7z"/>
			</g>
		</g>
	</g>
</g>
<g id="Слой_2">
</g>
</svg>
