<?xml version="1.0" encoding="utf-8"?>
<!-- Generator: Adobe Illustrator 24.0.1, SVG Export Plug-In . SVG Version: 6.00 Build 0)  -->
<svg version="1.1" xmlns="http://www.w3.org/2000/svg" xmlns:xlink="http://www.w3.org/1999/xlink" x="0px" y="0px"
	 viewBox="0 0 94.3 100" style="enable-background:new 0 0 94.3 100;" xml:space="preserve">

<g id="Capa_1">
	<path fill="#73A942" d="M28.5,69.5c0-0.9-0.7-1.5-1.5-1.5c-0.9,0-1.5,0.7-1.5,1.5v7.2c0,0.9,0.7,1.5,1.5,1.5c0.9,0,1.5-0.7,1.5-1.5
		V69.5z"/>
	<path fill="#73A942" d="M70.7,79.7c0.3-0.3,0.4-0.8,0.3-1.2c-0.1-0.4-0.3-0.7-0.6-0.9l0,0L49.2,60.4c-0.3-0.2-0.6-0.3-1-0.3
		c-0.4,0-0.9,0.2-1.2,0.6c-0.5,0.7-0.4,1.6,0.2,2.1L68.6,80C69.1,80.5,70.1,80.4,70.7,79.7z"/>
	<path fill="#73A942" d="M65.6,87.8c0.2-0.3,0.4-0.7,0.3-1.1c0-0.4-0.2-0.7-0.6-1l0,0L49.9,73.1c-0.3-0.2-0.6-0.3-1-0.3
		c-0.4,0-0.9,0.2-1.2,0.6c-0.3,0.3-0.4,0.7-0.3,1.1c0,0.4,0.2,0.7,0.6,1L63.5,88C64,88.5,65,88.5,65.6,87.8z"/>
	<path fill="#101010" d="M94.3,41.1c0-0.3,0-0.6-0.1-0.8L84.2,17c-0.1-0.1-0.1-0.2-0.1-0.2l-0.1-0.1l0-0.2V1.5c0-0.8-0.7-1.5-1.5-1.5
		H11.8c-0.8,0-1.5,0.7-1.5,1.5l0,15.7l-10,22.9c0,0.1,0,0.3-0.1,0.4c0,0,0,0.1,0,0.1c0,0.1,0,0.1,0,0.1c0,4.7,3.6,8.8,8.5,9.9
		l0.4,0.1V96h0.3v1H8.6c-0.8,0-1.5,0.7-1.5,1.5c0,0.8,0.7,1.5,1.5,1.5h77c0.8,0,1.5-0.7,1.5-1.5c0-0.8-0.7-1.5-1.5-1.5h-0.9
		l0.1-46.1l0.4-0.1C90.4,50,94.2,45.9,94.3,41.1z M13.3,3h67.6v12.9H13.3V3z M68.8,18.9l3.4,21.8c0,4-3.5,7.2-7.8,7.2
		c-4.2,0-7.9-3.2-8-7.1V18.9H68.8z M53.5,18.9v21.9c-0.1,4-3,7.1-6.6,7.1c-3.6,0-6.7-3.3-6.7-7.2V18.9H53.5z M37.4,18.9v21.8
		c0,4-3.3,7.2-7.4,7.2c-0.1,0-0.1,0-0.2,0c-4,0-7.3-3-7.4-6.9l3.4-22.2H37.4z M11,48c-4.1,0-7.6-3-7.9-6.9l0-0.1l9.5-22.1h10
		L19.3,40c0,0.1,0,0.2-0.1,0.4c0,0.1,0,0.2,0,0.3c0,4-3.6,7.2-8,7.2C11.1,47.9,11.1,48,11,48z M31.8,97.1H12.1V51l0.4,0
		c3.2-0.3,6.2-1.9,7.8-4.4l0.4-0.5l0.4,0.5c1.9,2.8,5.2,4.5,8.8,4.5c0.5,0,1,0,1.4-0.1l0.6-0.1V97.1z M81.8,97.1h-47V49.7l0.2-0.1
		c1.2-0.6,2.2-1.5,3.4-2.9l0.4-0.5l0.3,0.5c1.9,2.7,4.8,4.4,7.9,4.4c3.1,0,6-1.6,7.8-4.4l0.4-0.5l0.4,0.5c2.1,2.8,5.4,4.4,8.9,4.4
		c3.6,0,6.9-1.6,9-4.5l0.4-0.5l0.4,0.5c1.7,2.3,4.3,3.9,7.3,4.4l0.4,0.1L81.8,97.1z M91.3,41.1c-0.1,3.8-3.7,7-8,7
		c-4.4,0-8.1-3.3-8.1-7.2v-0.2L71.9,19h9.9L91.3,41L91.3,41.1z"/>
</g>
<g id="Слой_2">
</g>
</svg>
