<?xml version="1.0" encoding="utf-8"?>
<!-- Generator: Adobe Illustrator 24.0.1, SVG Export Plug-In . SVG Version: 6.00 Build 0)  -->
<svg version="1.1" id="Capa_1" xmlns="http://www.w3.org/2000/svg" xmlns:xlink="http://www.w3.org/1999/xlink" x="0px" y="0px"
	 viewBox="0 0 500 500" style="enable-background:new 0 0 500 500;" xml:space="preserve">
<path fill="#3092E8" d="M370.8,109.9c4.6,8.4,8.3,17.2,11.6,26.3c58.3,30.5,98.3,91.6,98.3,161.9c0,100.7-82,182.7-182.7,182.7
	c-70.3,0-131.3-40-161.9-98.3c-9.1-3.3-17.9-7.1-26.3-11.6C139.2,446.3,212.4,500,298.1,500C409.4,500,500,409.4,500,298.1
	C500,212.4,446.3,139.2,370.8,109.9z"/>
<path fill="#3092E8" d="M390.3,163.3c1.8,8.8,2.8,17.9,3.3,27.1c29.8,26.4,48.7,64.9,48.7,107.7c0,79.5-64.7,144.2-144.2,144.2
	c-42.9,0-81.3-18.9-107.7-48.7c-9.2-0.5-18.3-1.5-27.1-3.3c29.5,42.9,78.9,71.2,134.8,71.2c90.1,0,163.5-73.3,163.5-163.5
	C461.5,242.2,433.3,192.8,390.3,163.3z"/>
<g>
	<path fill="#3092E8" d="M201.9,403.8C90.6,403.8,0,313.3,0,201.9S90.6,0,201.9,0s201.9,90.6,201.9,201.9S313.3,403.8,201.9,403.8z
		 M201.9,19.2c-100.7,0-182.7,82-182.7,182.7s82,182.7,182.7,182.7s182.7-82,182.7-182.7S302.7,19.2,201.9,19.2z"/>
</g>
<g>
	<path fill="#3092E8" d="M201.9,365.4c-90.1,0-163.5-73.3-163.5-163.5S111.8,38.5,201.9,38.5s163.5,73.3,163.5,163.5
		S292.1,365.4,201.9,365.4z M201.9,57.7c-79.5,0-144.2,64.7-144.2,144.2s64.7,144.2,144.2,144.2s144.2-64.7,144.2-144.2
		S281.5,57.7,201.9,57.7z"/>
</g>
<path fill="#3092E8" d="M264.4,143.1c-4.1-7.8-10.5-14.1-18.8-19c-8.3-4.8-18.5-7.2-30.3-7.2h-59.6v85.8h-22.3V220h22.3v13.6h-22.3
	v17.3h22.3v35.1h19.5v-35.1h66v-17.3h-66V220h36.8c13.1,0,24.2-2.5,32.9-7.4c8.8-4.9,15.3-11.4,19.5-19.4c4.1-7.9,6.2-16.4,6.2-25.3
	C270.6,159.2,268.5,150.9,264.4,143.1z M175.3,135.2h39.8c11.1,0,19.9,3.1,26.2,9.2c6.3,6.1,9.6,14,9.6,23.6c0,10.1-3.1,18.5-9.2,25
	c-6.1,6.5-16.1,9.8-29.8,9.8h-36.6V135.2z"/>
</svg>
