<?xml version="1.0" encoding="utf-8"?>
<!-- Generator: Adobe Illustrator 24.0.1, SVG Export Plug-In . SVG Version: 6.00 Build 0)  -->
<svg version="1.1" id="Слой_1" xmlns="http://www.w3.org/2000/svg" xmlns:xlink="http://www.w3.org/1999/xlink" x="0px" y="0px"
	 viewBox="0 0 102.4 40" style="enable-background:new 0 0 102.4 40;" xml:space="preserve">

<g id="surface1">
	<rect x="53.7" y="15.6" fill="#73A942" width="5.3" height="1.9"/>
	<path fill="#101010" d="M29,33.6l0.2-0.5h47.5l0.2,0.5c1,2.8,3.1,4.9,5.9,5.9c2.4,0.8,5,0.7,7.3-0.4c2.3-1.1,4-3,4.9-5.5l0.2-0.5h6.4
		c0.5,0,0.9-0.4,0.9-0.9V21.8c0-2.5-1.4-4.9-3.6-6.2c-5.9-3.4-12.6-5.2-19.4-5.3l-0.2,0L79,10.3l-5.9-3.2C64.6,2.5,55,0,45.3,0h-2
		C35,0,27,1.7,19.5,5.1c-2.3,1-4.5,2.2-6.6,3.5l-0.3,0.1L0.8,10.4C0.3,10.5,0,10.9,0,11.3v14c0,2.4,1.4,4.5,3.6,5.4L9.3,33
		c0.1,0,0.2,0.1,0.3,0.1h1.2l0.2,0.5c1,2.8,3.1,4.9,5.9,5.9c2.4,0.8,5,0.7,7.3-0.4C26.4,37.9,28.2,36,29,33.6z M92.3,34.7
		c-1.1,1.7-2.9,2.9-4.9,3.3c-0.5,0.1-1,0.2-1.5,0.2c-3.7,0-6.8-2.6-7.6-6.2c-0.1-0.5-0.2-1-0.2-1.5c0-3.7,2.6-6.9,6.2-7.6
		c2-0.4,4.1,0,5.8,1.1c1.7,1.1,2.9,2.9,3.3,4.9C93.9,30.9,93.5,32.9,92.3,34.7z M46.9,1.9l0.8,0c8.5,0.4,16.9,2.7,24.4,6.8l3.1,1.7
		H46.9V1.9z M46.9,12.3h32c6.6,0,13.2,1.7,19,5c1.6,0.9,2.6,2.7,2.6,4.5v9.4h-5.1v-0.8c0-5.3-4.3-9.6-9.6-9.6
		c-5.3,0-9.6,4.3-9.6,9.6v0.8H46.9V12.3z M22.6,5.8c6.6-2.6,13.5-4,20.6-4h1.8v8.5H25.6l-4.1-4.1L22.6,5.8z M11.8,25.4
		c0,0.1-0.1,0.2-0.1,0.2c0,0.1-0.1,0.1-0.1,0.2c0,0.1-0.1,0.2-0.1,0.2l-0.2,0.3c0,0.1-0.1,0.2-0.1,0.2L11,27.2
		c-0.1,0.1-0.1,0.2-0.1,0.3c0,0.1,0,0.2-0.1,0.3L10.7,28c0,0.2-0.1,0.3-0.1,0.4c0,0.1,0,0.2,0,0.3L10.5,29c0,0.1,0,0.2,0,0.3
		c0,0.1,0,0.2,0,0.3l0,0.4c0,0.1,0,0.2,0,0.3v1.2L4.3,29c-1.5-0.6-2.5-2-2.5-3.6v-7.9h5.2v-1.9H1.9v-3.5l11.3-1.6
		c0.1,0,0.2-0.1,0.4-0.1c1.8-1.1,3.7-2.1,5.6-3l0.5-0.2l4.9,4.9c0.2,0.2,0.4,0.3,0.7,0.3h19.9v18.9H29.6v-0.8c0-5.3-4.3-9.6-9.6-9.6
		c-0.3,0-0.6,0-1,0.1c-0.1,0-0.1,0-0.2,0l-0.4,0.1c-0.2,0-0.3,0-0.4,0.1c-0.1,0-0.1,0-0.2,0l-0.4,0.1c-0.2,0-0.3,0.1-0.4,0.1
		c-0.1,0-0.1,0-0.2,0.1l-0.3,0.1c-0.1,0-0.2,0.1-0.3,0.1c-0.1,0-0.2,0.1-0.2,0.1l-0.3,0.1c-0.1,0.1-0.2,0.1-0.3,0.1
		c-0.1,0.1-0.2,0.1-0.4,0.2c-0.1,0.1-0.2,0.1-0.3,0.2c-0.1,0-0.1,0.1-0.2,0.1c-0.1,0.1-0.2,0.1-0.2,0.2l-0.3,0.2
		c-0.1,0.1-0.1,0.1-0.2,0.2c-0.1,0.1-0.1,0.1-0.2,0.2l-0.3,0.3c-0.1,0.1-0.1,0.1-0.2,0.2c0,0-0.1,0.1-0.1,0.2
		c-0.1,0.1-0.1,0.2-0.2,0.2c-0.1,0.1-0.2,0.2-0.3,0.3c-0.1,0.1-0.2,0.2-0.2,0.3L12.1,25C12,25.1,11.9,25.3,11.8,25.4z M21.5,38
		L21.5,38c-0.5,0.1-1,0.2-1.6,0.2c-3.7,0-6.8-2.6-7.6-6.2c-0.1-0.5-0.2-1-0.2-1.5c0-3.7,2.6-6.9,6.2-7.6c2-0.4,4.1,0,5.8,1.1
		c1.7,1.1,2.9,2.9,3.3,4.9C28.4,33,25.7,37.1,21.5,38z"/>
</g>
<g>
	<path fill="#73A942" d="M86,35.4c-2.7,0-4.9-2.2-4.9-4.9s2.2-4.9,4.9-4.9s4.9,2.2,4.9,4.9S88.7,35.4,86,35.4z M86,27.4
		c-1.7,0-3.1,1.4-3.1,3.1c0,1.7,1.4,3.1,3.1,3.1s3.1-1.4,3.1-3.1C89.1,28.8,87.7,27.4,86,27.4z"/>
</g>
<g>
	<path fill="#73A942" d="M20,35.4c-2.7,0-4.9-2.2-4.9-4.9s2.2-4.9,4.9-4.9s4.9,2.2,4.9,4.9S22.7,35.4,20,35.4z M20,27.4
		c-1.7,0-3.1,1.4-3.1,3.1c0,1.7,1.4,3.1,3.1,3.1s3.1-1.4,3.1-3.1C23.1,28.8,21.7,27.4,20,27.4z"/>
</g>
</svg>
