<?xml version="1.0" encoding="utf-8"?>
<!-- Generator: Adobe Illustrator 24.0.1, SVG Export Plug-In . SVG Version: 6.00 Build 0)  -->
<svg version="1.1" xmlns="http://www.w3.org/2000/svg" xmlns:xlink="http://www.w3.org/1999/xlink" x="0px" y="0px"
	 viewBox="0 0 97.5 100" style="enable-background:new 0 0 97.5 100;" xml:space="preserve">
<g id="Слой_3__x28_копия_x29_">
	<path fill="#101010" d="M92.4,96.8H78.7c0.3-1.1,0.3-2.2-0.2-3.2l-4.6-10.2l19.3-19.4c0.5-0.5,0.7-1.3,0.6-2c-0.2-0.8-0.7-1.3-1.4-1.6
		l-4.5-1.5c-4-1.3-8.5-0.3-11.5,2.8L65.9,72.2c-0.4,0.4-1,0.7-1.7,0.7l-11.9,0l8-29.7l0-0.1l-3.1-0.8L49,72.9l-13.7,0
		c-0.9,0-1.6,0.7-1.6,1.6c0,0.4,0.2,0.8,0.5,1.1c0.3,0.3,0.7,0.5,1.1,0.5l28.9,0.1c1.5,0,2.9-0.6,4-1.7l10.4-10.6
		c2.1-2.2,5.3-2.9,8.2-2l3,1L70.2,82.6c-0.8,0.8-1.9,1.3-3.1,1.3h-57c-0.1-2.3,0.6-4.4,2.1-5.8c1.3-1.3,3.1-2,4.9-2l11.3,0
		c0.9,0,1.6-0.7,1.6-1.6c0-0.9-0.7-1.6-1.6-1.6l-11.3,0c0,0,0,0,0,0c-2.7,0-5.3,1.1-7.2,3c-2.1,2.1-3,4.9-3,9.1c0,1.2,1,2.2,2.2,2.2
		h3.4l-3,6.5c-0.5,1-0.5,2.2-0.2,3.2H1.6c-0.9,0-1.6,0.7-1.6,1.6c0,0.9,0.7,1.6,1.6,1.6h90.8c0.9,0,1.6-0.7,1.6-1.6
		C94,97.5,93.3,96.8,92.4,96.8z M18.9,87l-4.1,9c-0.2,0.5-0.7,0.8-1.2,0.8c-0.2,0-0.4,0-0.6-0.1c-0.7-0.3-1-1.1-0.7-1.8L16,87H18.9z
		 M45.2,87l-2.6,9.8H18l4.5-9.8H45.2z M48.5,87h17l4.5,9.8H45.9L48.5,87z M75,96.7c-0.2,0.1-0.4,0.1-0.6,0.1c-0.5,0-1-0.3-1.2-0.8
		L69,86.8c0.9-0.2,1.7-0.6,2.5-1.1l4.2,9.2C75.9,95.6,75.6,96.4,75,96.7z"/>
</g>
<g id="Слой_3">
	<path fill="#73A942" d="M89.4,18.9c-0.5-0.7-1.5-0.8-2.2-0.3c-0.7,0.5-0.8,1.5-0.3,2.2c4.5,5.7,7.1,12.9,7.4,20.1l-19.6-5.2
		c0.8-5.2,1.1-10.5,1-15.8c-0.1-3-0.4-6-0.8-9c2.7,1.4,5.2,3.1,7.5,5.1c0.7,0.6,1.7,0.5,2.3-0.1c0.6-0.7,0.5-1.7-0.1-2.3
		c-3.8-3.4-8.2-5.9-13.2-7.6l1.4-3.9c0.1-0.4,0.1-0.8-0.1-1.2c-0.2-0.4-0.5-0.7-0.9-0.8C71.3,0,70.9,0,70.5,0.2
		c-0.4,0.2-0.7,0.5-0.8,0.9l-1.4,4.1C51.5,1,34,8.7,25.5,23.8c-0.1,0.2-0.2,0.5-0.2,0.9l0.5,7.7c0.1,1.5,1.2,2.8,2.6,3.2l14.6,3.9
		c1.5,0.4,3-0.2,3.9-1.5l1.7-2.5l0.2,3c0.1,1.5,1.2,2.8,2.6,3.2l14.6,3.9c1.5,0.4,3-0.2,3.9-1.5l1.7-2.5l0.2,3
		c0.1,1.5,1.2,2.8,2.6,3.2l14.6,3.9c0.3,0.1,0.6,0.1,0.9,0.1c1.2,0,2.3-0.6,3-1.6l4.3-6.4c0.1-0.2,0.3-0.5,0.3-0.9
		C97.6,34.4,94.7,25.8,89.4,18.9z M47.4,31.7l-3.1,4.5c-0.1,0.1-0.3,0.2-0.4,0.2l-14.6-3.9c-0.2,0-0.3-0.2-0.3-0.3l-0.4-5.5
		L47.4,31.7z M62,7.3c-2.2,2.5-4.3,5.1-6.1,7.8c-2.8,4.2-5.2,8.8-7,13.6l-19.5-5.2C36.5,12.5,48.9,6.3,62,7.3z M58.5,16.9
		c2.1-3.2,4.6-6.3,7.4-9.1c1.9,0.4,3.7,0.9,5.5,1.6c0.6,3.5,1,7.1,1.1,10.6c0.2,4.9-0.1,9.9-0.9,14.9L52,29.6
		C53.7,25.2,55.9,20.9,58.5,16.9z M70.3,37.8l-3.1,4.5c-0.1,0.1-0.3,0.2-0.4,0.2l-14.6-3.9c-0.2,0-0.3-0.2-0.3-0.3l-0.4-5.5
		L70.3,37.8z M93.3,44l-3.1,4.5c-0.1,0.1-0.3,0.2-0.4,0.2l-14.6-3.9c-0.2,0-0.3-0.2-0.3-0.3L74.7,39L93.3,44z"/>
</g>
</svg>
