<?xml version="1.0" encoding="utf-8"?>
<!-- Generator: Adobe Illustrator 24.0.1, SVG Export Plug-In . SVG Version: 6.00 Build 0)  -->
<svg version="1.1" id="Layer_3" xmlns="http://www.w3.org/2000/svg" xmlns:xlink="http://www.w3.org/1999/xlink" x="0px" y="0px"
	 viewBox="0 0 500 500" style="enable-background:new 0 0 500 500;" xml:space="preserve">
<g>
	<path fill="#3092E8" d="M496,178.1L255.7,1.9c-3.4-2.5-8-2.5-11.5,0L4,178.1c-3.4,2.5-4.8,6.9-3.5,10.8c1.3,4,5,6.7,9.2,6.7H32v252.9
		h-6.3c-5.3,0-9.7,4.4-9.7,9.7v32c0,5.3,4.4,9.7,9.7,9.7h448.6c5.3,0,9.7-4.4,9.7-9.7v-32c0-5.3-4.4-9.7-9.7-9.7h-6.3V195.6h22.3
		c4.2,0,7.9-2.7,9.2-6.7C500.8,185,499.4,180.6,496,178.1z M35.4,480.6V468h429.2v12.6H35.4z M272.3,387.9v12.6h-44.7v-12.6H272.3z
		 M243.7,298.1c0-3.5,2.8-6.3,6.3-6.3c3.5,0,6.3,2.8,6.3,6.3s-2.8,6.3-6.3,6.3C246.5,304.4,243.7,301.6,243.7,298.1z M259.7,321.8
		c9.6-3.9,16-13.3,16-23.7c0-14.2-11.5-25.7-25.7-25.7c-14.2,0-25.7,11.5-25.7,25.7c0,10.4,6.4,19.8,16,23.7v46.7h-13.2
		c-1.8-14.2-8.1-27-18.3-37.2c-8.5-8.5-13.2-19.8-13.2-31.8v-10.8c0-12,4.7-23.3,13.2-31.8c8.5-8.5,19.8-13.2,31.8-13.2h18.8
		c12,0,23.3,4.7,31.8,13.2c8.5,8.5,13.2,19.8,13.2,31.8v10.8c0,12-4.7,23.3-13.2,31.8c-10.2,10.2-16.5,23-18.3,37.2h-13.2V321.8z
		 M291.7,384.5v-7.7c0-12,4.7-23.3,13.2-31.8c12.2-12.2,18.9-28.3,18.9-45.5v-10.8c0-17.2-6.7-33.4-18.9-45.5
		c-12.2-12.2-28.3-18.9-45.5-18.9h-18.8c-17.2,0-33.4,6.7-45.5,18.9c-12.2,12.2-18.9,28.3-18.9,45.5v10.8c0,17.2,6.7,33.4,18.9,45.5
		c8.5,8.5,13.2,19.8,13.2,31.8v7.7h-38.4c-2.6,0-5.1,1-6.9,2.8l-29.2,29.2H51.4V195.6h397.1v220.9h-34.3L385,387.3
		c-1.8-1.8-4.3-2.8-6.9-2.8H291.7z M173.9,403.9h34.3v6.3c0,5.3,4.4,9.7,9.7,9.7H282c5.3,0,9.7-4.4,9.7-9.7v-6.3h82.4l29.2,29.2
		c1.8,1.8,4.3,2.8,6.9,2.8h38.4v12.6H51.4v-12.6h86.4c2.6,0,5.1-1,6.9-2.8L173.9,403.9z M209.9,107.5c3.5,0,6.3,2.8,6.3,6.3
		s-2.8,6.3-6.3,6.3s-6.3-2.8-6.3-6.3S206.5,107.5,209.9,107.5z M200,137.5c3.2,1.4,6.6,2.1,9.9,2.1c14.2,0,25.7-11.5,25.7-25.7
		s-11.5-25.7-25.7-25.7s-25.7,11.5-25.7,25.7c0,3.4,0.7,6.7,2.1,9.9l-20.4,20.4H83L250,21.7l145.1,106.4h-65.4l-20.4-20.4
		c1.4-3.2,2.1-6.6,2.1-9.9c0-14.2-11.5-25.7-25.7-25.7S260,83.6,260,97.8s11.5,25.7,25.7,25.7c3.4,0,6.7-0.7,9.9-2.1l23.3,23.3
		c1.8,1.8,4.3,2.8,6.9,2.8h95.9l39.1,28.7H39.3l17.2-12.6h113.3c2.6,0,5.1-1,6.9-2.8L200,137.5z M285.7,104.1
		c-3.5,0-6.3-2.8-6.3-6.3s2.8-6.3,6.3-6.3s6.3,2.8,6.3,6.3S289.2,104.1,285.7,104.1z"/>
	<path fill="#3092E8" d="M161.9,271.7L148.2,258l-5.9,5.9c-9,9-14.2,21.5-14.2,34.2c0,12.7,5.2,25.2,14.2,34.2l5.9,5.9l13.7-13.7
		l-5.9-5.9c-5.4-5.4-8.5-12.9-8.5-20.5c0-7.6,3.1-15.1,8.5-20.5L161.9,271.7z"/>
	<path fill="#3092E8" d="M115.5,298.1c0-18.1,7-35.1,19.8-47.8l2.6-2.6L124.2,234l-2.6,2.6c-16.4,16.4-25.5,38.3-25.5,61.5
		c0,23.3,9.1,45.1,25.5,61.5l2.6,2.6l13.7-13.7l-2.6-2.6C122.6,333.1,115.5,316.1,115.5,298.1z"/>
	<path fill="#3092E8" d="M357.7,263.9l-5.9-5.9l-13.7,13.7l5.9,5.9c5.4,5.4,8.5,12.9,8.5,20.5s-3.1,15.1-8.5,20.5l-5.9,5.9l13.7,13.7
		l5.9-5.9c9-9,14.2-21.5,14.2-34.2C371.8,285.3,366.7,272.9,357.7,263.9z"/>
	<path fill="#3092E8" d="M378.4,236.5l-2.6-2.6l-13.7,13.7l2.6,2.6c12.8,12.8,19.8,29.8,19.8,47.8s-7,35.1-19.8,47.8l-2.6,2.6
		l13.7,13.7l2.5-2.6c16.4-16.4,25.5-38.3,25.5-61.5C403.9,274.8,394.8,253,378.4,236.5z"/>
</g>
</svg>
