<?xml version="1.0" encoding="utf-8"?>
<!-- Generator: Adobe Illustrator 24.0.1, SVG Export Plug-In . SVG Version: 6.00 Build 0)  -->
<svg version="1.1" id="Слой_1" xmlns="http://www.w3.org/2000/svg" xmlns:xlink="http://www.w3.org/1999/xlink" x="0px" y="0px"
	 viewBox="0 0 100.1 40" style="enable-background:new 0 0 100.1 40;" xml:space="preserve">

<g id="Page-1">
	<g id="_x30_20---Train">
		<path id="Shape" fill="#101010" d="M2.9,40h94.4c1.6,0,2.9-1.3,2.9-2.9v-1c0-1.6-1.3-2.9-2.9-2.9h-6.9c0.7-0.8,1.1-1.8,1.2-2.9h1
			c2.8,0,5.4-1.5,6.7-4c1.3-2.5,1.2-5.5-0.4-7.8L88.7,3.4C87.3,1.3,84.9,0,82.4,0H2.9C1.3,0,0,1.3,0,2.9v26.7c0,0.5,0.4,1,1,1h67.8
			c0.1,1,0.5,2,1.2,2.9H2.9c-1.6,0-2.9,1.3-2.9,2.9v1C0,38.7,1.3,40,2.9,40L2.9,40z M86.3,33.3c-1.7,0-3.1-1.2-3.3-2.9h6.6
			C89.4,32.1,88,33.3,86.3,33.3z M81.1,30.5c0.1,1,0.5,2,1.2,2.9H78c0.7-0.8,1.1-1.8,1.2-2.9H81.1z M94.3,15.2H81.1
			c-0.5,0-1-0.4-1-1V7.6c0-0.5,0.4-1,1-1h7.5L94.3,15.2z M1.9,21.9h45.9v1c0,1.6,1.3,2.9,2.9,2.9h6.7c1.6,0,2.9-1.3,2.9-2.9v-1H82
			c0.5,0,1-0.4,1-1c0-0.5-0.4-1-1-1H60.1V7.6c0-1.6-1.3-2.9-2.9-2.9h-6.7c-1.6,0-2.9,1.3-2.9,2.9V20H1.9V2.9c0-0.5,0.4-1,1-1h79.5
			c1.9,0,3.7,1,4.8,2.5l0.2,0.3h-6.2c-1.6,0-2.9,1.3-2.9,2.9v6.7c0,1.6,1.3,2.9,2.9,2.9h14.5l1.7,2.5c0.1,0.1,0.1,0.2,0.2,0.3H86.8
			c-0.5,0-1,0.4-1,1c0,0.5,0.4,1,1,1h11.3c0.3,1.7-0.2,3.4-1.3,4.6c-1.1,1.3-2.7,2-4.4,2H1.9V21.9z M58.2,22.9c0,0.5-0.4,1-1,1h-6.7
			c-0.5,0-1-0.4-1-1V7.6c0-0.5,0.4-1,1-1h6.7c0.5,0,1,0.4,1,1V22.9z M70.7,30.5h6.6c-0.2,1.6-1.6,2.9-3.3,2.9S70.9,32.1,70.7,30.5z
			 M1.9,36.2c0-0.5,0.4-1,1-1h94.4c0.5,0,1,0.4,1,1v1c0,0.5-0.4,1-1,1H2.9c-0.5,0-1-0.4-1-1L1.9,36.2z"/>
		<path id="Shape_5_" fill="#73A942" d="M15.5,4.8H8.9C7.3,4.8,6,6,6,7.6v6.7c0,1.6,1.3,2.9,2.9,2.9h6.7c1.6,0,2.9-1.3,2.9-2.9V7.6
			C18.4,6,17.1,4.8,15.5,4.8z M16.5,14.3c0,0.5-0.4,1-1,1H8.9c-0.5,0-1-0.4-1-1V7.6c0-0.5,0.4-1,1-1h6.7c0.5,0,1,0.4,1,1V14.3z"/>
		<path id="Shape_4_" fill="#73A942" d="M41.5,4.8h-6.7C33.3,4.8,32,6,32,7.6v6.7c0,1.6,1.3,2.9,2.9,2.9h6.7c1.6,0,2.9-1.3,2.9-2.9V7.6
			C44.4,6,43.1,4.8,41.5,4.8z M42.5,14.3c0,0.5-0.4,1-1,1h-6.7c-0.5,0-1-0.4-1-1V7.6c0-0.5,0.4-1,1-1h6.7c0.5,0,1,0.4,1,1V14.3z"/>
		<path id="Shape_1_" fill="#73A942" d="M72.5,4.8h-6.7C64.3,4.8,63,6,63,7.6v6.7c0,1.6,1.3,2.9,2.9,2.9h6.7c1.6,0,2.9-1.3,2.9-2.9V7.6
			C75.4,6,74.1,4.8,72.5,4.8z M73.5,14.3c0,0.5-0.4,1-1,1h-6.7c-0.5,0-1-0.4-1-1V7.6c0-0.5,0.4-1,1-1h6.7c0.5,0,1,0.4,1,1V14.3z"/>
		<path id="Shape_2_" fill="#101010" d="M55.4,8.6h-2.9c-0.5,0-1,0.4-1,1s0.4,1,1,1h2.9c0.5,0,1-0.4,1-1S55.9,8.6,55.4,8.6z"/>
		<path id="Shape_3_" fill="#101010" d="M55.4,12.4h-2.9c-0.5,0-1,0.4-1,1s0.4,1,1,1h2.9c0.5,0,1-0.4,1-1S55.9,12.4,55.4,12.4z"/>
	</g>
</g>
</svg>
