<?xml version="1.0" encoding="utf-8"?>
<!-- Generator: Adobe Illustrator 24.0.1, SVG Export Plug-In . SVG Version: 6.00 Build 0)  -->
<svg version="1.1" id="Outline" xmlns="http://www.w3.org/2000/svg" xmlns:xlink="http://www.w3.org/1999/xlink" x="0px" y="0px"
	 viewBox="0 0 100 100" style="enable-background:new 0 0 100 100;" xml:space="preserve">
<path fill="#73A942" d="M49.4,28.4c-5.5,0-10,4.5-10,10c0,5.5,4.5,10,10,10c5.5,0,10-4.5,10-10S54.9,28.4,49.4,28.4z M49.4,45
	c-3.7,0-6.7-3-6.7-6.7c0-3.7,3-6.7,6.7-6.7c3.7,0,6.7,3,6.7,6.7C56.1,42,53.1,45,49.4,45z"/>
<path fill="#73A942" d="M48.6,36.7L48.6,36.7l0-1.7c0-0.9,0.7-1.6,1.6-1.6c0.9,0,1.6,0.7,1.6,1.6v3.3c0,0.9-0.7,1.6-1.6,1.6h-1.7
	c-0.9,0-1.6-0.7-1.6-1.6C47,37.4,47.7,36.7,48.6,36.7z"/>
<path fill="#101010" d="M61.7,51.7H38.3c-0.9,0-1.6,0.7-1.6,1.6V60c0,0.9,0.7,1.6,1.6,1.6h23.4c0.9,0,1.6-0.7,1.6-1.6v-6.7
	C63.3,52.4,62.6,51.7,61.7,51.7z M60.1,58.4H39.9V55h20.1V58.4z"/>
<path fill="#101010" d="M23.3,35h-10c-0.9,0-1.6,0.7-1.6,1.6v11.7h0c-0.9,0-1.6,0.7-1.6,1.6c0,0.9,0.7,1.6,1.6,1.6H25
	c0.9,0,1.6-0.7,1.6-1.6c0-0.9-0.7-1.6-1.6-1.6h0V36.7C24.9,35.8,24.2,35,23.3,35z M21.7,48.4h-6.8V38.3h6.8V48.4z"/>
<path fill="#101010" d="M23.3,55.1h-10c-0.9,0-1.6,0.7-1.6,1.6v11.7h0c-0.9,0-1.6,0.7-1.6,1.6c0,0.9,0.7,1.6,1.6,1.6H25
	c0.9,0,1.6-0.7,1.6-1.6c0-0.9-0.7-1.6-1.6-1.6h0V56.7C24.9,55.8,24.2,55.1,23.3,55.1z M21.7,68.4h-6.8V58.3h6.8V68.4z"/>
<path fill="#101010" d="M23.3,75.1h-10c-0.9,0-1.6,0.7-1.6,1.6v11.7h0c-0.9,0-1.6,0.7-1.6,1.6c0,0.9,0.7,1.6,1.6,1.6H25
	c0.9,0,1.6-0.7,1.6-1.6c0-0.9-0.7-1.6-1.6-1.6h0V76.7C24.9,75.8,24.2,75.1,23.3,75.1z M21.7,88.4h-6.8V78.3h6.8V88.4z"/>
<path fill="#101010" d="M88.4,48.4L88.4,48.4l0-11.7c0-0.9-0.7-1.6-1.6-1.6h-10c-0.9,0-1.6,0.7-1.6,1.6v11.7h0c-0.9,0-1.6,0.7-1.6,1.6
	c0,0.9,0.7,1.6,1.6,1.6h13.3c0.9,0,1.6-0.7,1.6-1.6C90,49.1,89.3,48.4,88.4,48.4z M85.1,48.4h-6.8V38.3h6.8V48.4z"/>
<path fill="#101010" d="M88.4,68.4L88.4,68.4l0-11.7c0-0.9-0.7-1.6-1.6-1.6h-10c-0.9,0-1.6,0.7-1.6,1.6v11.7h0c-0.9,0-1.6,0.7-1.6,1.6
	c0,0.9,0.7,1.6,1.6,1.6h13.3c0.9,0,1.6-0.7,1.6-1.6C90,69.1,89.3,68.4,88.4,68.4z M85.1,68.4h-6.8V58.3h6.8V68.4z"/>
<path fill="#101010" d="M88.4,88.4L88.4,88.4l0-11.7c0-0.9-0.7-1.6-1.6-1.6h-10c-0.9,0-1.6,0.7-1.6,1.6v11.7h0c-0.9,0-1.6,0.7-1.6,1.6
	c0,0.9,0.7,1.6,1.6,1.6h13.3c0.9,0,1.6-0.7,1.6-1.6C90,89.2,89.3,88.4,88.4,88.4z M85.1,88.4h-6.8V78.3h6.8V88.4z"/>
<path fill="#101010" d="M98.4,96.8h-1.7V29.9h1.7c0.9,0,1.6-0.7,1.6-1.6c0-0.9-0.7-1.6-1.6-1.6H68.9l0,0L51.6,14.1v-4l0.1,0l8.1,1.3
	c0.4,0.1,0.8,0,1.2-0.3c0.4-0.2,0.6-0.6,0.7-1c0-0.1,0-0.2,0-0.3V3.3c0-0.8-0.6-1.5-1.3-1.6L50.3,0v0l-0.1,0
	c-0.9-0.2-1.7,0.4-1.8,1.3c0,0.1,0,0.2,0,0.3v12.5l0,0L31.1,26.7H1.6c-0.9,0-1.6,0.7-1.6,1.6c0,0.9,0.7,1.6,1.6,1.6h1.7v66.9H1.6
	c-0.9,0-1.6,0.7-1.6,1.6c0,0.9,0.7,1.6,1.6,1.6h96.8c0.9,0,1.6-0.7,1.6-1.6C100,97.5,99.3,96.8,98.4,96.8z M51.6,3.5l6.8,1.1v3.4
	l-6.8-1.1V3.5z M30,96.8H6.6V29.9H30V96.8z M48.4,96.8h-6.8V78.4c0-4,2.8-7.4,6.7-8.2l0.1,0V96.8z M58.4,96.8h-6.8V70.1l0.1,0
	c3.9,0.8,6.7,4.3,6.7,8.2V96.8z M66.7,96.8h-5.1V78.4c0-6.4-5.2-11.6-11.6-11.6c-6.4,0-11.6,5.2-11.6,11.6v18.4h-5.1V29.1l0,0
	L50,16.9l0,0l16.7,12.2V96.8z M93.4,96.8H70V29.9h23.5V96.8z"/>
</svg>
