<?xml version="1.0" encoding="utf-8"?>
<!-- Generator: Adobe Illustrator 24.0.1, SVG Export Plug-In . SVG Version: 6.00 Build 0)  -->
<svg version="1.1" id="Capa_1" xmlns="http://www.w3.org/2000/svg" xmlns:xlink="http://www.w3.org/1999/xlink" x="0px" y="0px"
	 viewBox="0 0 83.4 100" style="enable-background:new 0 0 83.4 100;" xml:space="preserve">
<g>
	<g>
		<g>
			<path fill="#101010" d="M41.8,21.6C27.6,21.6,16,33.1,16,47.3c0,7.4,3.2,14.5,8.7,19.3c4.1,4.1,3.7,12.8,3.6,12.9
				c0,0.5,0.1,0.8,0.5,1.2c0.3,0.3,0.7,0.5,1.1,0.5h23.6c0.5,0,0.8-0.2,1.1-0.5c0.3-0.3,0.5-0.7,0.5-1.2c0-0.1-0.5-8.8,3.6-12.9
				c0.1-0.1,0.2-0.2,0.3-0.3c5.4-4.9,8.5-11.8,8.5-19.1C67.5,33.1,55.9,21.6,41.8,21.6z M56.6,64.2c-0.1,0.1-0.3,0.3-0.3,0.4
				c-3.6,3.9-4.3,10.3-4.3,13.3H31.5c-0.1-3.1-0.7-9.7-4.6-13.7c-4.9-4.3-7.8-10.5-7.8-17c0-12.5,10.1-22.6,22.6-22.6
				s22.6,10.1,22.6,22.6C64.2,53.7,61.5,59.9,56.6,64.2z"/>
			<path fill="#73A942" d="M41.7,28.1c-0.8,0-1.6,0.7-1.6,1.6s0.7,1.6,1.6,1.6c9.3,0,16.8,7.6,16.8,16.8c0,0.8,0.7,1.6,1.6,1.6
				c0.8,0,1.6-0.7,1.6-1.6C61.7,37.1,52.8,28.1,41.7,28.1z"/>
			<path fill="#101010" d="M51.9,82.9H31.4c-2.1,0-3.9,1.8-3.9,3.9c0,2.1,1.8,3.9,3.9,3.9h20.4c2.2-0.1,4-1.8,4-3.9
				C55.8,84.6,54.1,82.9,51.9,82.9z M51.9,87.4H31.4c-0.4,0-0.7-0.3-0.7-0.7c0-0.5,0.3-0.7,0.7-0.7h20.4c0.4,0,0.7,0.3,0.7,0.7
				C52.6,87.1,52.3,87.4,51.9,87.4z"/>
			<path fill="#101010" d="M48.9,92.2H34.5c-2.1,0-3.9,1.8-3.9,3.9s1.8,3.9,3.9,3.9h14.4c2.1,0,3.9-1.8,3.9-3.9
				C52.8,93.9,51,92.2,48.9,92.2z M48.9,96.8H34.5c-0.4,0-0.7-0.3-0.7-0.7c0-0.5,0.3-0.7,0.7-0.7h14.4c0.4,0,0.7,0.3,0.7,0.7
				C49.6,96.5,49.3,96.8,48.9,96.8z"/>
			<path fill="#73A942" d="M41.7,13.9c0.9,0,1.6-0.7,1.6-1.6V1.6c0-0.8-0.7-1.6-1.6-1.6c-0.8,0-1.6,0.7-1.6,1.6v10.7
				C40.1,13.1,40.8,13.9,41.7,13.9z"/>
			<path fill="#73A942" d="M67.8,8c-0.7-0.6-1.7-0.3-2.1,0.4l-5.9,8.9c-0.6,0.7-0.4,1.8,0.4,2.2c0.3,0.2,0.6,0.3,0.8,0.3
				c0.6,0,1-0.3,1.3-0.7l5.9-8.9C68.8,9.4,68.6,8.4,67.8,8z"/>
			<path fill="#73A942" d="M22.9,19.3c0.3,0,0.6-0.1,0.8-0.3c0.7-0.5,0.9-1.5,0.5-2.2l-5.7-9C18,7.1,17,6.9,16.2,7.4s-0.9,1.5-0.5,2.2
				l5.7,9C21.9,19.1,22.3,19.3,22.9,19.3z"/>
			<path fill="#73A942" d="M11.7,29.1l-9.3-5.1c-0.7-0.4-1.8-0.1-2.1,0.6c-0.5,0.7-0.2,1.8,0.6,2.1l9.3,5.1c0.3,0.1,0.5,0.2,0.7,0.2
				c0.6,0,1.1-0.3,1.4-0.8C12.7,30.5,12.4,29.5,11.7,29.1z"/>
			<path fill="#73A942" d="M83.2,24.7c-0.4-0.7-1.4-1-2.1-0.6l-9.4,5.1c-0.7,0.4-1,1.4-0.6,2.1c0.3,0.6,0.8,0.8,1.4,0.8
				c0.3,0,0.6-0.1,0.7-0.2l9.4-5.1C83.3,26.5,83.6,25.4,83.2,24.7z"/>
		</g>
	</g>
</g>
</svg>
