<?xml version="1.0" encoding="utf-8"?>
<!-- Generator: Adobe Illustrator 24.0.1, SVG Export Plug-In . SVG Version: 6.00 Build 0)  -->
<svg version="1.1" id="Слой_1" xmlns="http://www.w3.org/2000/svg" xmlns:xlink="http://www.w3.org/1999/xlink" x="0px" y="0px"
	 viewBox="0 0 512 512" style="enable-background:new 0 0 512 512;" xml:space="preserve">
<style type="text/css">
	.st0{fill:#101010;}
	.st1{fill:#73A942;}
</style>
<circle class="st0" cx="256" cy="256" r="256"/>
<g>
	<path class="st1" d="M385,197.2c8.5,17.2,12.8,35.9,12.8,56.2c0,20.3-4.3,39-12.8,56.2c-8.5,17.2-21.3,31.5-38.3,42.9
		c-17,11.4-36.8,18.1-59.3,20V406h-62.4v-33.5c-22.6-2-42.3-8.7-59.3-20c-17-11.4-29.8-25.6-38.4-42.7c-8.7-17.1-13-35.7-13-55.9
		c0-20.2,4.3-38.9,13-56.2c8.7-17.3,21.5-31.7,38.4-43c17-11.4,36.7-18.1,59.3-20V106h62.4v28.6c22.6,2,42.3,8.6,59.3,19.9
		C363.7,165.8,376.4,180,385,197.2z M191.1,212.6c-9,11.9-13.5,25.6-13.5,41.1c0,15.4,4.5,29.1,13.5,41.1
		c9,11.9,21.1,19.1,36.5,21.5V191.1C212.2,193.5,200.1,200.7,191.1,212.6z M284.8,316.3c15.3-2.4,27.5-9.6,36.5-21.5
		c9-11.9,13.5-25.6,13.5-41.1c0-15.4-4.5-29.1-13.5-41.1c-9-11.9-21.1-19.1-36.5-21.5V316.3z"/>
</g>
</svg>
