<?xml version="1.0" encoding="utf-8"?>
<!-- Generator: Adobe Illustrator 24.0.1, SVG Export Plug-In . SVG Version: 6.00 Build 0)  -->
<svg version="1.1" id="Слой_1" xmlns="http://www.w3.org/2000/svg" xmlns:xlink="http://www.w3.org/1999/xlink" x="0px" y="0px"
	 viewBox="0 0 139.6 17.6" style="enable-background:new 0 0 139.6 17.6;" xml:space="preserve">
<style type="text/css">
	.st0{fill:#73A942;}
	.st1{fill:#FFFFFF;}
</style>
<g>
	<path class="st0" d="M11.8,15.2H7.5L3.7,9.3v5.9H0V1.9h3.7v5.6l3.5-5.6h4.2L7.2,8.3L11.8,15.2z"/>
	<path class="st0" d="M14.3,1.9h11.1v13.3h-3.7v-10H18v10h-3.7V1.9z"/>
	<path class="st1" d="M49.9,5.3c0.5,1,0.7,2.1,0.7,3.2c0,1.2-0.2,2.3-0.7,3.2c-0.5,1-1.2,1.8-2.2,2.5c-1,0.7-2.1,1-3.4,1.2v1.9h-3.6
		v-1.9c-1.3-0.1-2.4-0.5-3.4-1.2c-1-0.7-1.7-1.5-2.2-2.5c-0.5-1-0.8-2.1-0.8-3.2s0.3-2.2,0.8-3.2s1.2-1.8,2.2-2.5
		c1-0.7,2.1-1,3.4-1.2V0h3.6v1.7c1.3,0.1,2.4,0.5,3.4,1.1C48.7,3.5,49.4,4.3,49.9,5.3z M38.7,6.2c-0.5,0.7-0.8,1.5-0.8,2.4
		s0.3,1.7,0.8,2.4c0.5,0.7,1.2,1.1,2.1,1.2V4.9C39.9,5.1,39.2,5.5,38.7,6.2z M44.1,12.2c0.9-0.1,1.6-0.6,2.1-1.2
		c0.5-0.7,0.8-1.5,0.8-2.4s-0.3-1.7-0.8-2.4c-0.5-0.7-1.2-1.1-2.1-1.2V12.2z"/>
	<path class="st1" d="M60.6,15.5c-2.1,0-3.9-0.7-5.3-2s-2.1-3-2.1-5s0.7-3.7,2.1-5s3.1-2,5.3-2c2.1,0,3.9,0.7,5.2,2s2.1,3,2.1,5
		s-0.7,3.7-2.1,5S62.7,15.5,60.6,15.5z M58.1,11.1c0.7,0.7,1.5,1,2.5,1s1.8-0.3,2.5-1s1-1.5,1-2.6s-0.3-1.9-1-2.6s-1.5-1-2.5-1
		s-1.9,0.3-2.5,1c-0.7,0.7-1,1.5-1,2.6S57.4,10.4,58.1,11.1z"/>
	<path class="st1" d="M76.9,1.9c1.4,0,2.6,0.5,3.5,1.4s1.4,2.1,1.4,3.4c0,1.4-0.5,2.5-1.4,3.5c-0.9,0.9-2.1,1.4-3.5,1.4h-2v3.7h-3.7
		V1.9H76.9z M76.4,8.3c0.5,0,0.9-0.1,1.1-0.4C77.9,7.6,78,7.2,78,6.7s-0.1-0.9-0.4-1.2c-0.3-0.3-0.7-0.5-1.1-0.5h-1.6v3.2H76.4z"/>
	<path class="st1" d="M93.3,8.2c0.6,0.3,1.1,0.7,1.5,1.3c0.4,0.6,0.5,1.2,0.5,1.9c0,1.1-0.4,2-1.2,2.7s-1.8,1.1-3.1,1.1h-6.1V1.9h6
		c1.2,0,2.2,0.3,2.9,1C94.6,3.5,95,4.3,95,5.3c0,0.6-0.2,1.1-0.5,1.6C94.2,7.4,93.8,7.8,93.3,8.2z M91.1,6.7
		c0.2-0.2,0.3-0.5,0.3-0.8c0-0.3-0.1-0.6-0.3-0.8s-0.5-0.3-0.9-0.3h-1.8V7h1.8C90.6,7,90.9,6.9,91.1,6.7z M90.4,12.2
		c0.4,0,0.7-0.1,1-0.3c0.2-0.2,0.4-0.5,0.4-0.9s-0.1-0.6-0.4-0.9s-0.6-0.3-1-0.3h-2v2.4H90.4z"/>
	<path class="st1" d="M107.1,15.2l-0.7-2.2h-4.7l-0.7,2.2H97l5.2-13.3h3.6l5.3,13.3H107.1z M105.5,10.1L104,6l-1.5,4.1H105.5z"/>
	<path class="st1" d="M119.5,1.9c1.4,0,2.6,0.5,3.5,1.4s1.4,2.1,1.4,3.4c0,1.4-0.5,2.5-1.4,3.5c-0.9,0.9-2.1,1.4-3.5,1.4h-2v3.7
		h-3.7V1.9H119.5z M119.1,8.3c0.5,0,0.9-0.1,1.1-0.4c0.3-0.3,0.4-0.7,0.4-1.2s-0.1-0.9-0.4-1.2c-0.3-0.3-0.7-0.5-1.1-0.5h-1.6v3.2
		H119.1z"/>
	<path class="st1" d="M138.3,11.8h1.3v5.8h-3.4v-2.4h-7v2.4h-3.4v-5.8h1.2c0.4-0.4,0.7-1.2,0.8-2.3c0.2-1.1,0.4-3.6,0.7-7.6h9.7
		V11.8z M131.8,5.2c-0.1,1.8-0.2,3.2-0.4,4.3c-0.2,1-0.4,1.8-0.7,2.3h4V5.2H131.8z"/>
</g>
</svg>
