<?xml version="1.0" encoding="utf-8"?>
<!-- Generator: Adobe Illustrator 24.0.1, SVG Export Plug-In . SVG Version: 6.00 Build 0)  -->
<svg version="1.1" id="Слой_1" xmlns="http://www.w3.org/2000/svg" xmlns:xlink="http://www.w3.org/1999/xlink" x="0px" y="0px"
	 viewBox="0 0 99.8 100" style="enable-background:new 0 0 99.8 100;" xml:space="preserve">
<g id="Page-1">
	<g id="_x30_08---Coffee-and-Beans">
		<path fill="#101010" d="M7.1,86.7h0.3l0,0l0.7,8.8c0.2,2.6,2.4,4.5,4.9,4.5c0,0,0,0,0,0h27.2c0,0,0,0,0,0c2.6,0,4.7-2,4.9-4.6
			l0.7-8.8h0.3c1.7,0,3.1-1.3,3.3-3l2.6-33.4c0.1-0.9-0.2-1.7-0.8-2.4c-0.6-0.7-1.4-1.1-2.2-1.1l-0.1,0l0-0.1l0.8-10.3l0,0
			c2-0.7,3.4-2.5,3.4-4.7v-3.6c0-2.6-2-4.8-4.6-4.9l-0.4,0v-4.8c0-2.7-2.2-5-5-5H10c-2.7,0-5,2.2-5,5v2l-0.1,0c0,0,0,0,0,0
			c-1.3,0-2.6,0.5-3.5,1.4C0.6,22.7,0,24,0,25.3v6.4c0,2.1,1.4,4,3.4,4.7l0,0l0,0l0.8,10.4l-0.1,0c-0.9,0.1-1.7,0.5-2.2,1.1
			c-0.6,0.7-0.8,1.5-0.8,2.4l2.6,33.4C4,85.4,5.4,86.7,7.1,86.7z M42.7,86.8L42,95.2c-0.1,0.9-0.8,1.6-1.7,1.6c0,0,0,0,0,0H13.1
			c0,0,0,0,0,0c-0.9,0-1.6-0.7-1.7-1.6l-0.7-8.5L42.7,86.8L42.7,86.8z M48.9,50.1l-2.6,33.4H7.1l0,0L4.5,50L48.9,50.1L48.9,50.1z
			 M6.8,36.7h39.9l0,0.1l-0.8,10.1H7.6l0,0L6.8,36.7z M8.3,18.4c0-0.9,0.8-1.7,1.7-1.7h33.4c0.9,0,1.7,0.8,1.7,1.7V23L45,23
			L8.3,20.5V18.4z M3.3,31.7v-6.4c0-0.9,0.8-1.7,1.7-1.7h0.1l1.6,0.1l41.8,2.8c0.9,0.1,1.6,0.8,1.6,1.7v3.6c0,0.9-0.8,1.7-1.7,1.7H5
			C4.1,33.4,3.3,32.6,3.3,31.7z"/>
		<path fill="#73A942" d="M16.2,77.2c1.9,1.8,4.4,2.8,6.9,2.8c0.1,0,0.2,0,0.3,0c4.4-0.2,8.4-2,11.4-5.1c2.8-2.8,4.6-6.3,5-9.8
			c0.4-3.5-0.5-6.7-2.7-8.8c-1.8-1.8-4.3-2.8-7.2-2.8c0,0,0,0,0,0c-4,0-8.2,1.9-11.4,5.1l0,0c-2.8,2.8-4.6,6.3-5,9.8
			C13.1,71.9,14,75.1,16.2,77.2z M36.4,61.1L36.4,61.1c1,3.6-0.5,8-3.9,11.4l0,0c-2.1,2.1-4.7,3.6-7.3,4c-0.6,0.1-1.2,0.2-1.8,0.2
			c-1.9,0-3.5-0.6-4.7-1.7l-0.1-0.1l0.1,0c0.6-0.3,1.3-0.4,2-0.5c4.1-0.3,7.3-3.5,7.6-7.6c0.1-2.6,2.2-4.7,4.9-4.9
			C34.3,62,35.4,61.7,36.4,61.1L36.4,61.1z M20.8,60.9L20.8,60.9L20.8,60.9c2.4-2.6,5.7-4,9.1-4.2c1.7,0,3.4,0.6,4.7,1.7l0.1,0.1
			l-0.1,0c-0.6,0.3-1.3,0.4-2,0.5c-4.1,0.3-7.3,3.5-7.6,7.6c-0.1,2.6-2.2,4.7-4.9,4.9c-1.1,0.1-2.2,0.4-3.2,0.9l-0.1,0l0-0.1
			C15.9,68.7,17.4,64.3,20.8,60.9z"/>
		<path fill="#101010" d="M54.9,81.7h23.5c0.2,0,0.4,0,0.5-0.1c0,0,0.1,0,0.1-0.1c0,0,0,0,0,0c0.1,0,0.1-0.1,0.2-0.1l9.8-6.6l8.5-2.8
			c1.5-0.5,2.4-2,2.2-3.6L90,1.4c0,0,0-0.1,0-0.1c0-0.1-0.1-0.2-0.1-0.3c0-0.1-0.1-0.2-0.2-0.3c0,0,0,0,0-0.1c0,0,0,0,0-0.1
			c0,0,0,0-0.1,0c0,0,0,0-0.1,0c-0.1-0.1-0.2-0.2-0.3-0.2c-0.1,0-0.2-0.1-0.2-0.1c-0.1,0-0.2-0.1-0.4-0.1c-0.1,0-0.1,0-0.2,0L29.8,0
			c-1.6,0-3,1.2-3.3,2.9l-0.7,5.2c-0.1,0.9,0.5,1.7,1.4,1.8l0,0c0.4,0.1,0.9-0.1,1.2-0.3c0.3-0.3,0.6-0.7,0.6-1.1l0.7-5.3h56.8
			l0,0.1l-1.3,10.1h-1.9c-0.9,0-1.6,0.7-1.6,1.6c0,0.9,0.7,1.6,1.6,1.6h1.5l0,0.1L77,78.5H54.9c-0.9,0-1.6,0.7-1.6,1.6
			S54,81.7,54.9,81.7z M80.5,76.7l8.1-63.1l0.1,0.4l8,55l0,0L90,71.2V50c0-0.9-0.7-1.6-1.6-1.6c-0.9,0-1.6,0.7-1.6,1.6v22.5
			l-6.3,4.2L80.5,76.7z"/>
		<path fill="#101010" d="M76.7,13.4h-3.3c-0.9,0-1.6,0.7-1.6,1.6c0,0.9,0.7,1.6,1.6,1.6h3.3c0.9,0,1.6-0.7,1.6-1.6
			C78.4,14.1,77.6,13.4,76.7,13.4z"/>
		<path fill="#101010" d="M66.7,13.4h-3.3c-0.9,0-1.6,0.7-1.6,1.6c0,0.9,0.7,1.6,1.6,1.6h3.3c0.9,0,1.6-0.7,1.6-1.6
			C68.4,14.1,67.6,13.4,66.7,13.4z"/>
		<path fill="#101010" d="M56.7,13.4h-3.3c-0.9,0-1.6,0.7-1.6,1.6c0,0.9,0.7,1.6,1.6,1.6h3.3c0.9,0,1.6-0.7,1.6-1.6
			C58.3,14.1,57.6,13.4,56.7,13.4z"/>
		<path fill="#101010" d="M57,55h10c1.6,0,3-1.2,3.3-2.8l2.9-20c0.1-0.9-0.2-1.9-0.8-2.6c-0.6-0.7-1.5-1.1-2.5-1.1H58.4
			c-0.9,0-1.6,0.7-1.6,1.6c0,0.9,0.7,1.6,1.6,1.6h11.5l0,0.1L67,51.8H57c-0.9,0-1.6,0.7-1.6,1.6C55.4,54.3,56.1,55,57,55z"/>
	</g>
</g>
</svg>
