<?xml version="1.0" encoding="utf-8"?>
<!-- Generator: Adobe Illustrator 24.0.1, SVG Export Plug-In . SVG Version: 6.00 Build 0)  -->
<svg version="1.1" id="Слой_1" xmlns="http://www.w3.org/2000/svg" xmlns:xlink="http://www.w3.org/1999/xlink" x="0px" y="0px"
	 viewBox="0 0 100 100" style="enable-background:new 0 0 100 100;" xml:space="preserve">

<path fill="#73A942" d="M88.6,0c-6.3,0-11.4,5.1-11.4,11.4s5.1,11.4,11.4,11.4c6.3,0,11.4-5.1,11.4-11.4S94.9,0,88.6,0z M88.6,19.7
	c-4.6,0-8.3-3.7-8.3-8.3s3.7-8.3,8.3-8.3c4.6,0,8.3,3.7,8.3,8.3S93.2,19.7,88.6,19.7z"/>
<path fill="#73A942" d="M25.7,0c-5.5,0-10.4,2.8-13.3,7.4l-0.1,0.2l-0.2,0c-0.1,0-0.2,0-0.4,0c-3,0-5.9,1.2-8.1,3.3
	C1.2,13.2,0,16.1,0,19.3c0,0.9,0.7,1.5,1.5,1.5h50.8c0.8,0,1.4-0.6,1.5-1.4c0.1-0.5,0.1-1,0.1-1.5c0-7.2-5.8-13-13-13
	c-1.1,0-2.1,0.1-3.1,0.4l-0.3,0.1l-0.2-0.2C34.4,1.9,30.2,0,25.7,0z M37.5,8.8c1.1-0.4,2.2-0.6,3.4-0.6c5.2,0,9.5,4,9.9,9.2l0,0.5
	H3.2l0.1-0.5c1.1-4.3,5.2-7.1,9.6-6.5c0.7,0.1,1.3-0.2,1.6-0.8c2.1-4.3,6.4-6.9,11.1-6.9c4,0,7.7,1.9,10.1,5.1
	C36.2,8.8,36.9,9,37.5,8.8z"/>
<path fill="#73A942" d="M89.2,89.3c0-0.1-0.1-0.2-0.1-0.3c-0.1-0.1-0.1-0.2-0.2-0.2c-0.1-0.1-0.2-0.1-0.2-0.2c-0.1-0.1-0.2-0.1-0.3-0.1
	c-0.1,0-0.2-0.1-0.3-0.1c-0.1,0-0.2,0-0.3,0s-0.2,0-0.3,0c-0.1,0-0.2,0-0.3,0.1c-0.1,0-0.2,0.1-0.3,0.1c-0.1,0.1-0.2,0.1-0.2,0.2
	c-0.1,0.1-0.1,0.1-0.2,0.2c-0.1,0.1-0.1,0.2-0.1,0.3c0,0.1-0.1,0.2-0.1,0.3c0,0.1,0,0.2,0,0.3c0,0.1,0,0.2,0,0.3
	c0,0.1,0,0.2,0.1,0.3c0,0.1,0.1,0.2,0.1,0.3c0.1,0.1,0.1,0.2,0.2,0.2c0.1,0.1,0.2,0.1,0.2,0.2c0.1,0.1,0.2,0.1,0.3,0.1
	c0.1,0,0.2,0.1,0.3,0.1c0.2,0,0.4,0,0.6,0c0.1,0,0.2,0,0.3-0.1c0.1,0,0.2-0.1,0.3-0.1c0.1-0.1,0.2-0.1,0.2-0.2
	c0.1-0.1,0.1-0.1,0.2-0.2c0.1-0.1,0.1-0.2,0.1-0.3c0-0.1,0.1-0.2,0.1-0.3c0-0.1,0-0.2,0-0.3c0-0.1,0-0.2,0-0.3
	C89.2,89.5,89.2,89.4,89.2,89.3z"/>
<path fill="#101010" d="M100,81.4c0-0.8-0.7-1.5-1.5-1.5h-4.1V56.5l1.3,1c0.4,0.3,1.1,0.4,1.6,0.1c0.5-0.3,0.8-0.8,0.8-1.3V45.5
	c0-0.5-0.2-0.9-0.6-1.2l-27-19.8c-0.5-0.4-1.2-0.4-1.8,0l-12.1,8.9l-5.7-4.2c-0.5-0.4-1.2-0.4-1.8,0l-5.7,4.2l-12.1-8.9
	c-0.5-0.4-1.2-0.4-1.8,0l-27,19.8c-0.4,0.3-0.6,0.7-0.6,1.2v10.8c0,0.6,0.3,1.1,0.8,1.3c0.5,0.3,1.1,0.2,1.6-0.1l1.3-1v23.4H1.5
	c-0.8,0-1.5,0.7-1.5,1.5v17.1c0,0.8,0.7,1.5,1.5,1.5h97c0.8,0,1.5-0.7,1.5-1.5V81.4z M69.6,27.6l25.5,18.7v7.1l-24.6-18
	c-0.5-0.4-1.1-0.4-1.6-0.1c0,0-0.1,0.1-0.1,0.1L64,38.8l-4.8-3.5L69.6,27.6z M77.8,49l-11.3-8.3l3.1-2.3l21.7,16v25.6H74.7l0-18.7
	l1.6,1.2c0.3,0.1,0.7,0.2,1,0.1l0.1-0.1l0.3-0.1c0.5-0.3,0.8-0.8,0.8-1.3V50.2C78.4,49.7,78.2,49.3,77.8,49z M50,32.3L75.5,51V58
	L50.9,40c0,0-0.1-0.1-0.1-0.1c-0.5-0.3-1.1-0.3-1.5,0c0,0-0.1,0.1-0.1,0.1L24.5,58V51L50,32.3z M56.4,72.7H43.6
	c-0.8,0-1.5,0.7-1.5,1.5v14.2H28.3V59L50,43l21.7,16l0,29.4H57.9V74.2C57.9,73.4,57.3,72.7,56.4,72.7z M54.9,75.7v12.7h-9.9V75.7
	H54.9z M22.4,62.3c0.2,0.1,0.4,0.1,0.6,0.2c0.4,0,0.7-0.1,1-0.3l1.3-1v18.7H8.6l0-25.6l21.7-16l3.1,2.3L22.2,49
	c-0.3,0.2-0.5,0.6-0.6,1c0,0.1,0,0.2,0,0.2V61C21.6,61.6,21.9,62.1,22.4,62.3z M4.9,53.3v-7.1l25.5-18.7l10.5,7.7L36,38.8l-4.8-3.5
	c-0.5-0.4-1.2-0.4-1.8,0L4.9,53.3z M3,82.9h22.3v5.6H3V82.9z M97,97H3v-5.6h76.7c0.8,0,1.5-0.7,1.5-1.5s-0.7-1.5-1.5-1.5h-5v-5.6H97
	V97z"/>
<path fill="#73A942" d="M50,51.5c-4.5,0-8.1,3.6-8.1,8.1s3.6,8.1,8.1,8.1s8.1-3.6,8.1-8.1S54.5,51.5,50,51.5z M50,64.6
	c-2.8,0-5-2.2-5-5s2.2-5,5-5c2.8,0,5,2.2,5,5S52.8,64.6,50,64.6z"/>
</svg>
