<?xml version="1.0" encoding="utf-8"?>
<!-- Generator: Adobe Illustrator 24.0.1, SVG Export Plug-In . SVG Version: 6.00 Build 0)  -->
<svg version="1.1" id="Слой_1" xmlns="http://www.w3.org/2000/svg" xmlns:xlink="http://www.w3.org/1999/xlink" x="0px" y="0px"
	 viewBox="0 0 99.9 100" style="enable-background:new 0 0 99.9 100;" xml:space="preserve">
<g>
	<path fill="#101010" d="M98.5,97.1H82.2V74.4c0.3,0,0.6,0.1,0.9,0.1c4.5,0,8.2-3.7,8.2-8.2v-0.1c4.5-0.6,7.7-4.8,7-9.3
		c-0.2-1.2-0.6-2.4-1.3-3.4c3.4-3,3.7-8.2,0.7-11.6c-0.5-0.5-1-1-1.6-1.4c1.4-3.9-0.3-8.2-4-10.1c0.1-0.5,0.1-0.9,0.1-1.4
		c0-4-2.8-7.4-6.7-8.1c-0.2-4.5-4-8.1-8.5-7.9c-4.3,0.1-7.8,3.6-7.9,7.9c-0.5,0.1-0.9,0.2-1.4,0.4l0,0c0.1-0.6,0.2-1.3,0.2-1.9
		c0-4.8-3.5-8.9-8.3-9.7C59.8,4.4,55.4,0,50,0s-9.8,4.4-9.8,9.8c-4.8,0.8-8.3,4.9-8.3,9.7c0,0.6,0.1,1.3,0.2,1.9l0,0
		c-0.4-0.2-0.9-0.3-1.4-0.4c-0.2-4.5-4-8.1-8.5-7.9c-4.3,0.2-7.8,3.6-7.9,7.9c-3.9,0.7-6.7,4.1-6.7,8.1c0,0.5,0,0.9,0.1,1.4
		c-3.7,1.9-5.4,6.2-4,10.1c-3.8,2.5-4.8,7.6-2.2,11.4c0.4,0.6,0.9,1.1,1.4,1.6c-2.5,3.8-1.4,8.9,2.4,11.4c1,0.7,2.2,1.1,3.4,1.3v0.1
		c0,4.5,3.7,8.2,8.2,8.2c0.3,0,0.6,0,0.9-0.1v22.7H1.5c-0.8,0-1.5,0.7-1.5,1.5s0.7,1.5,1.5,1.5h97c0.8,0,1.5-0.7,1.5-1.5
		S99.3,97.1,98.5,97.1L98.5,97.1z M71.9,23.3c0.3-0.3,0.4-0.8,0.3-1.2c0-0.3-0.1-0.5-0.1-0.8c0-2.9,2.4-5.3,5.3-5.3s5.3,2.4,5.3,5.3
		c0,0.3,0,0.5-0.1,0.8c-0.1,0.4,0.1,0.9,0.4,1.2c0.3,0.3,0.7,0.5,1.1,0.5c2.9,0,5.3,2.3,5.3,5.2c0,0.6-0.1,1.2-0.3,1.8
		c-0.3,0.8,0.1,1.6,0.9,1.9c0,0,0,0,0.1,0c2.8,0.9,4.3,3.8,3.5,6.6c-0.1,0.4-0.3,0.7-0.5,1.1c-0.4,0.7-0.2,1.6,0.5,2
		c0,0,0.1,0.1,0.1,0.1c2.7,1.2,3.9,4.3,2.7,6.9c-0.5,1.1-1.3,1.9-2.3,2.5c-0.7,0.4-1,1.3-0.6,2c0.1,0.1,0.1,0.2,0.2,0.3
		c2.1,2.1,2.1,5.4,0,7.5c-1,1-2.3,1.6-3.8,1.6c-0.1,0-0.3,0-0.4,0c-0.8-0.1-1.5,0.5-1.6,1.3c0,0.1,0,0.3,0,0.4
		c0.1,0.4,0.1,0.8,0.1,1.2c0,2.9-2.4,5.3-5.3,5.3c-1.8,0-3.5-0.9-4.5-2.5c-0.4-0.7-1.3-0.9-2-0.4c-0.2,0.1-0.3,0.3-0.4,0.4
		c-1.6,2.5-4.8,3.2-7.3,1.6c-1.2-0.8-2.1-2-2.4-3.5c0.1-0.6,0.2-1.3,0.2-1.9c0-0.1,0-0.3,0-0.4c5.4-0.6,9.3-5.4,8.7-10.7
		c-0.2-1.7-0.8-3.2-1.7-4.6c4.2-3.4,4.7-9.6,1.3-13.8c-0.7-0.8-1.4-1.5-2.3-2c1.3-3.4,0.6-7.2-1.8-9.9
		C71.3,23.7,71.7,23.5,71.9,23.3z M57,75.1c3.2,0,6.2-1.6,8-4.2c1.5,2.2,4.1,3.6,6.8,3.6c0.3,0,0.6,0,0.9-0.1v22.7H55.5V74.9
		C56,75,56.5,75.1,57,75.1z M35.2,22.9c0.2-0.4,0.2-0.8,0.1-1.2c-1.3-3.5,0.6-7.5,4.1-8.7c0.7-0.3,1.5-0.4,2.3-0.4
		c0.5,0,0.9-0.2,1.3-0.5c0.3-0.3,0.4-0.8,0.3-1.2c-0.1-0.3-0.1-0.7-0.1-1.1C43.1,6.1,46.2,3,50,3c3.8,0,6.8,3.1,6.8,6.8
		c0,0.4,0,0.7-0.1,1.1c-0.1,0.4,0.1,0.9,0.4,1.2c0.3,0.3,0.7,0.5,1.2,0.5c3.8,0,6.8,3,6.8,6.8c0,0.8-0.1,1.6-0.4,2.3
		c-0.3,0.8,0.1,1.6,0.9,1.9c0,0,0,0,0.1,0c3.6,1.1,5.6,4.9,4.5,8.5c-0.2,0.5-0.4,1-0.6,1.4c-0.4,0.7-0.2,1.6,0.5,2
		c0,0,0.1,0.1,0.1,0.1c3.5,1.5,5.1,5.5,3.6,9c-0.6,1.4-1.6,2.5-2.9,3.3c-0.7,0.4-1,1.3-0.6,2c0.1,0.1,0.1,0.2,0.2,0.3
		c2.7,2.7,2.7,7,0,9.7c-1.3,1.3-3,2-4.9,2c-0.2,0-0.4,0-0.6,0c-0.8-0.1-1.5,0.5-1.6,1.3c0,0.1,0,0.3,0,0.4c0.8,3.7-1.5,7.4-5.1,8.2
		c-2.8,0.7-5.8-0.6-7.3-3c-0.4-0.7-1.3-0.9-2-0.5c-0.2,0.1-0.3,0.3-0.5,0.5c-2,3.2-6.2,4.2-9.4,2.1c-2.5-1.6-3.7-4.5-3-7.3
		c0.2-0.8-0.3-1.6-1.1-1.8c-0.1,0-0.3,0-0.4,0c-0.2,0-0.4,0-0.6,0c-3.8,0-6.8-3.1-6.8-6.8c0-1.8,0.7-3.6,2-4.9
		c0.6-0.6,0.6-1.5,0-2.1c-0.1-0.1-0.2-0.2-0.3-0.2c-3.3-1.9-4.5-6-2.6-9.3c0.7-1.3,1.9-2.3,3.2-2.9c0.7-0.3,1.1-1.2,0.8-1.9
		c0-0.1,0-0.1-0.1-0.1c-1.9-3.3-0.8-7.5,2.5-9.3c0.4-0.3,0.9-0.5,1.4-0.6C34.7,23.6,35,23.3,35.2,22.9z M28.2,74.5
		c2.7,0,5.2-1.3,6.8-3.6c2.1,3.1,5.8,4.6,9.5,4v22.1H27.2V74.4C27.5,74.4,27.9,74.5,28.2,74.5z M11.5,66.2c0-0.4,0-0.8,0.1-1.2
		c0.2-0.8-0.3-1.6-1.1-1.8c-0.1,0-0.3,0-0.4,0c-0.1,0-0.3,0-0.4,0c-2.9,0-5.3-2.4-5.3-5.3c0-1.4,0.6-2.8,1.6-3.8
		c0.6-0.6,0.6-1.5,0-2.1c-0.1-0.1-0.2-0.2-0.3-0.2c-2.5-1.4-3.4-4.6-2-7.2c0.6-1,1.4-1.8,2.5-2.3c0.7-0.3,1.1-1.2,0.8-1.9
		c0-0.1,0-0.1-0.1-0.1c-1.5-2.5-0.6-5.7,1.9-7.2c0.3-0.2,0.7-0.4,1.1-0.5c0.8-0.2,1.2-1.1,1-1.8c0,0,0,0,0-0.1
		c-1-2.7,0.4-5.8,3.2-6.7c0.6-0.2,1.1-0.3,1.7-0.3c0.5,0,0.9-0.2,1.2-0.5c0.3-0.3,0.4-0.8,0.3-1.2c0-0.3-0.1-0.5-0.1-0.8
		c0-2.9,2.4-5.3,5.3-5.3c2.9,0,5.3,2.4,5.3,5.3c0,0.3,0,0.5-0.1,0.8c-0.1,0.4,0.1,0.9,0.4,1.2c0.2,0.3,0.5,0.4,0.9,0.5
		c-2.4,2.7-3.1,6.6-1.8,10c-4.6,2.9-5.9,8.9-3,13.5c0.6,0.9,1.2,1.7,2,2.3c-3.1,4.4-2,10.5,2.4,13.6c1.4,1,3,1.6,4.6,1.7
		c0,0.1,0,0.3,0,0.4c0,0.7,0.1,1.3,0.2,1.9c-0.5,2.9-3.3,4.7-6.1,4.2c-1.4-0.3-2.7-1.1-3.5-2.4c-0.4-0.7-1.3-0.9-2-0.4
		c-0.2,0.1-0.3,0.3-0.4,0.4c-1.6,2.5-4.8,3.2-7.3,1.6C12.4,69.7,11.5,68,11.5,66.2L11.5,66.2z M20.7,97.1V73.5
		c0.7-0.4,1.3-0.8,1.8-1.3c0.5,0.5,1.2,1,1.8,1.3v23.6L20.7,97.1z M47.4,97.1V74c1-0.5,1.8-1.1,2.6-1.9c0.7,0.8,1.6,1.4,2.6,1.9
		v23.1L47.4,97.1z M75.6,97.1V73.5c0.7-0.4,1.3-0.8,1.8-1.3c0.5,0.5,1.2,1,1.8,1.3v23.6L75.6,97.1z"/>
	<path fill="#73A942" d="M56.7,24.1c-0.2,0.8,0.2,1.6,0.9,1.8c0.1,0,0.3,0.1,0.5,0.1c0.6,0,1.2-0.4,1.4-1c0.7-1.8,0.1-3.8-1.4-5
		c-0.6-0.6-1.5-0.5-2.1,0.1c-0.6,0.6-0.5,1.5,0.1,2.1C56.8,22.6,57,23.4,56.7,24.1z"/>
	<path fill="#73A942" d="M59.6,56.2L59.6,56.2c-0.8,0-1.5,0.7-1.5,1.5c0,0,0,0,0,0c0,1.5-0.1,1.6-0.9,2.4c-0.6,0.6-0.5,1.5,0.1,2.1
		c0.6,0.6,1.5,0.5,2.1-0.1c1.2-1.3,1.7-2.2,1.6-4.4C61,56.9,60.4,56.2,59.6,56.2z"/>
	<path fill="#73A942" d="M59.6,29.1c-0.5,0.7-0.3,1.6,0.4,2c0,0,2.1,1.5,2.3,3.5c0.1,1.7-0.4,3.3-1.6,4.5c-0.6,0.6-0.6,1.5,0,2.1
		c0.6,0.5,1.4,0.6,2,0.1c1.8-1.8,2.7-4.4,2.5-7c-0.4-3.4-3.5-5.6-3.6-5.7C60.9,28.3,60,28.4,59.6,29.1z"/>
</g>
</svg>
