<?xml version="1.0" encoding="utf-8"?>
<!-- Generator: Adobe Illustrator 24.0.1, SVG Export Plug-In . SVG Version: 6.00 Build 0)  -->
<svg version="1.1" id="Слой_1" xmlns="http://www.w3.org/2000/svg" xmlns:xlink="http://www.w3.org/1999/xlink" x="0px" y="0px"
	 viewBox="0 0 97 100" style="enable-background:new 0 0 97 100;" xml:space="preserve">
<path fill="#101010" d="M96.8,33.1c-0.2-0.3-0.4-0.5-0.7-0.7l-0.2-0.1L12.8,0.1C12.4,0,12,0,11.6,0.1C11.2,0.3,11,0.6,10.8,1L1.2,27.3
	c-0.3,0.8,0.1,1.7,0.9,2l10.7,3.9l-2.4,6.7c-0.3,0.8,0.1,1.7,0.9,2l20.8,7.6l-1.7,4.6c-1.3,3.4-0.1,7.1,2.8,9.2l0.3,0.2v12H19.7
	L19.5,75c-1.3-3-4-5.2-7.3-5.9L11.7,69v-5c0-0.8-0.7-1.5-1.5-1.5H1.5C0.7,62.5,0,63.2,0,64v34.5c0,0.8,0.7,1.5,1.5,1.5h8.7
	c0.8,0,1.5-0.7,1.5-1.5v-5l0.5-0.1c3.2-0.7,5.9-2.9,7.3-5.9l0.2-0.4h13.8v2.8c0,3.2,2.6,5.8,5.8,5.8c3.2,0,5.8-2.6,5.8-5.8V65.6
	l0.4-0.2c1.8-0.9,3.2-2.5,3.9-4.4l1.7-4.7l14.8,7c0.1,0,0.3,0.1,0.5,0.1c0.6,0,1.2-0.4,1.4-1l1-2.7l0.5,0.1c3.2,0.6,6.5-0.1,9.2-1.9
	c2.7-1.9,4.5-4.6,5.1-7.9c0.5-2.5,0.2-5-0.9-7.3l-0.2-0.5l13.6-7C96.9,34.8,97.2,33.9,96.8,33.1z M8.7,97H3V65.5h5.6V97z M17.3,83.4
	c0,3-1.9,5.7-4.7,6.7l-0.8,0.3V72.1l0.8,0.3c2.8,1,4.7,3.7,4.7,6.7V83.4z M42.1,89.9c0,1.5-1.3,2.8-2.8,2.8c-1.5,0-2.8-1.2-2.8-2.8
	v-2.8h5.6V89.9z M42.1,84H20.4v-5.6h21.7V84z M42.1,75.4h-5.6V64.8l2.6,1c0.8,0.3,1.5,0.4,2.3,0.5l0.6,0V75.4z M46.5,60
	c-0.7,2-2.6,3.2-4.6,3.2c-0.6,0-1.1-0.1-1.7-0.3l-4.1-1.5c-2.6-0.9-3.9-3.8-2.9-6.3l1.7-4.6l13.3,4.9L46.5,60z M65.4,60L13.7,39.4
	l1.9-5.2l33,12.1c0.5,0.2,1.1,0.1,1.6-0.3l6.4-6l13.8,6.7L65.4,60z M80.2,50.9L80.2,50.9c-1.4,3.7-4.9,6.1-8.7,6.1
	c-0.3,0-0.6,0-0.9,0l-0.8-0.1l3.7-10.1l6.3-3.2l0.3,0.6C81,46.3,81,48.7,80.2,50.9z M72.4,43.9c-0.1,0-0.2,0-0.2,0L72,44l-15.4-7.2
	c-0.5-0.2-1.1-0.1-1.5,0.3l-6.3,6L4.5,26.9l8.6-23.4l78.5,30.6L72.4,43.9z"/>
<rect x="24.1" y="25.5" transform="matrix(0.3447 -0.9387 0.9387 0.3447 -8.5885 41.9998)" fill="#73A942" width="3.3" height="3.3"/>
<rect x="32.2" y="28.5" transform="matrix(0.3444 -0.9388 0.9388 0.3444 -6.0688 51.5518)" fill="#73A942" width="3.3" height="3.3"/>
<rect x="40.3" y="31.4" transform="matrix(0.3449 -0.9386 0.9386 0.3449 -3.5713 61.0698)" fill="#73A942" width="3.3" height="3.3"/>
</svg>
