<?xml version="1.0" encoding="utf-8"?>
<!-- Generator: Adobe Illustrator 22.1.0, SVG Export Plug-In . SVG Version: 6.00 Build 0)  -->
<svg version="1.1" id="Слой_1" xmlns="http://www.w3.org/2000/svg" xmlns:xlink="http://www.w3.org/1999/xlink" x="0px" y="0px"
	 viewBox="0 0 86 86" style="enable-background:new 0 0 86 86;" xml:space="preserve">
<circle fill="#E4E6EE" cx="43" cy="43" r="43"/>
<g id="User">
	<g id="Icons" transform="translate(1 1)">
		<path id="Shape" fill="#F3F4F8" d="M62.7,65.4v2.7H21.3v-2.7c0-2.7,1.7-5.1,4.2-6.1l8.8-3.3c1.4-0.5,2.3-1.9,2.3-3.4v-1.8
			c0-1-0.4-2-1.2-2.7c-2.2-1.9-3.5-4.7-3.3-7.6c0-0.1,0-0.2,0-0.3h-0.9c-1.5,0-2.7-1.2-2.7-2.7v-2.7c0-1.5,1.2-2.7,2.7-2.7
			c-1.7-2.4-2.6-5.2-2.7-8.1c0-4.4,0-5.3,1.8-8.1c0.6,1.2,1.7,2.1,3,2.6c0.8,0.3,1.6,0.3,2.4,0.1c3.6-0.9,4.5-1.8,9.9-1.8
			c4.5,0,7.2,1.8,7.2,5.4c2.6,2.8,2.6,7.1,0,9.9c1.5,0,2.7,1.2,2.7,2.7v2.7c0,1.5-1.2,2.7-2.7,2.7h-0.9c0,0.1,0,0.2,0,0.3
			c0.1,2.9-1.1,5.7-3.3,7.6c-0.8,0.7-1.2,1.7-1.2,2.7v1.8c0,1.5,0.9,2.8,2.3,3.4l8.8,3.3C61,60.3,62.7,62.7,62.7,65.4L62.7,65.4z"/>
		<path id="Shape_1_" fill="#D0D2DA" d="M58.5,59.3l-8.8-3.3c-1.4-0.5-2.3-1.9-2.3-3.4v-1.8c0-1,0.4-2,1.2-2.7c2.2-1.9,3.5-4.7,3.3-7.6
			c0-0.1,0-0.2,0-0.3h0.9c1.5,0,2.7-1.2,2.7-2.7v-2.7c0-1.5-1.2-2.7-2.7-2.7c2.6-2.8,2.6-7.1,0-9.9c0-3.6-2.7-5.4-7.2-5.4
			c-1.4,0-1.6,0-1.7,0c3.9,0.3,6.2,2,6.2,5.4c2.6,2.8,2.6,7.1,0,9.9c1.5,0,2.7,1.2,2.7,2.7v2.7c0,1.5-1.2,2.7-2.7,2.7h-0.9
			c0,0.1,0,0.2,0,0.3c0.1,2.9-1.1,5.7-3.3,7.6c-0.8,0.7-1.2,1.7-1.2,2.7v1.8c0,1.5,0.9,2.8,2.3,3.4l8.8,3.3c2.5,1,4.2,3.4,4.2,6.1
			v2.7h2.7v-2.7C62.7,62.7,61,60.3,58.5,59.3z"/>
	</g>
	<path id="Shape_2_" fill="#FFFFFF" d="M25,66.4c0-2.7,1.7-5.1,4.2-6.1l8.8-3.3c1.4-0.5,2.3-1.9,2.3-3.4v-1.8c0-1-0.4-2-1.2-2.7
		c-2.2-1.9-3.5-4.7-3.3-7.6c0-0.1,0-0.2,0-0.3h-0.9c-1.5,0-2.7-1.2-2.7-2.7v-2.7c0-1.5,1.2-2.7,2.7-2.7c-1.7-2.4-2.6-5.2-2.7-8.1
		c0-3.2,0-4.6,0.7-6.2c-0.7-0.5-1.2-1.2-1.6-1.9c-1.8,2.8-1.8,3.7-1.8,8.1c0.1,2.9,1,5.7,2.7,8.1c-1.5,0-2.7,1.2-2.7,2.7v2.7
		c0,1.5,1.2,2.7,2.7,2.7h0.9c0,0.1,0,0.2,0,0.3c-0.1,2.9,1.1,5.7,3.3,7.6c0.8,0.7,1.2,1.7,1.2,2.7v1.8c0,1.5-0.9,2.8-2.3,3.4
		l-8.8,3.3c-2.5,1-4.2,3.4-4.2,6.1v2.7H25C25,69.1,25,66.4,25,66.4z"/>
	<g id="Layer_10" transform="translate(0 -1)">
		<path id="Shape_3_" fill="#FFFFFF" d="M30.4,24.7l-1.8,0c0-3.4,0.1-4.5,2-7.3l1.5,1C30.5,20.7,30.4,21.5,30.4,24.7z"/>
		<g>
			<path id="Shape_4_" fill="#7F8188" d="M29.8,22c-0.5,0-0.9-0.4-0.9-0.9c0-0.5,0.4-0.9,0.9-0.9c0.5,0,0.9,0.4,0.9,0.9
				C30.7,21.6,30.3,22,29.8,22z"/>
			<path id="Shape_5_" fill="#7F8188" d="M64.6,70.1v-2.7c0-3.1-1.9-5.8-4.8-6.9l-8.8-3.3c-1-0.4-1.7-1.4-1.7-2.5v-1.8
				c0-0.8,0.3-1.5,0.9-2c2.3-1.9,3.6-4.7,3.6-7.7c1,0,1.9-0.4,2.6-1c0.7-0.7,1.1-1.6,1.1-2.6v-2.7c0-1.3-0.7-2.6-1.9-3.2
				c0,0-0.1,0-0.1-0.1c2-3,1.7-7-0.6-9.7c-0.2-3.8-3.1-6-8.1-6c-5.5,0-6.5,0.9-10.1,1.8c-2.8,0.7-4.3-2.1-4.4-2.2
				c-0.2-0.4-0.8-0.6-1.2-0.4s-0.6,0.8-0.4,1.2c0.7,1.5,3,4,6.4,3.2c3.7-0.9,4.4-1.8,9.7-1.8c2.9,0,6.3,0.8,6.3,4.5
				c0,0.2,0.1,0.5,0.3,0.6c0.2,0.2,3.9,4,0,8.7c-0.2,0.3-0.3,0.6-0.1,1c0.1,0.3,0.5,0.5,0.8,0.5c1,0,1.8,0.8,1.8,1.8v2.7
				c0,1-0.8,1.8-1.8,1.8h-0.9c-0.3,0-0.5,0.1-0.7,0.3C52.1,41.8,52,42,52,42.3c0,0.1,0,0.2,0,0.3c0.1,2.6-1,5.2-3,6.9
				c-1,0.8-1.5,2.1-1.5,3.4v1.8c0,1.9,1.2,3.5,2.9,4.2l8.8,3.3c2.2,0.8,3.6,2.9,3.6,5.3v1.8H23.2v-1.8c0-2.3,1.4-4.4,3.6-5.3
				l8.8-3.3c1.7-0.7,2.9-2.3,2.9-4.2v-1.8c0-1.3-0.5-2.5-1.5-3.4c-2-1.7-3.1-4.2-3-6.9c0.1-0.3,0-0.7-0.2-1
				c-0.3-0.3-0.6-0.3-1.6-0.3c-1,0-1.8-0.8-1.8-1.8v-2.7c0-1,0.8-1.8,1.8-1.8c0.3,0,0.7-0.2,0.8-0.5c0.1-0.3,0.1-0.7-0.1-0.9
				c-1.5-2.2-2.4-4.9-2.5-7.6v-1.3c0-0.5-0.4-0.9-0.9-0.9c-0.2,0-0.5,0.1-0.6,0.3s-0.3,0.4-0.3,0.6V26c0.1,2.6,0.8,5.2,2.1,7.5
				c-1.3,0.6-2.2,1.9-2.2,3.3v2.7c0,1,0.4,1.9,1.1,2.6c0.7,0.7,1.6,1.1,2.6,1c0,3,1.3,5.8,3.6,7.7c0.6,0.5,0.9,1.2,0.9,2v1.8
				c0,1.1-0.7,2.1-1.7,2.5l-8.8,3.3c-2.9,1.1-4.8,3.9-4.8,7v2.7c0,0.5,0.4,0.9,0.9,0.9h41.4C64.2,71,64.6,70.6,64.6,70.1L64.6,70.1z
				"/>
		</g>
	</g>
</g>
</svg>
