<?xml version="1.0" encoding="utf-8"?>
<!-- Generator: Adobe Illustrator 24.0.1, SVG Export Plug-In . SVG Version: 6.00 Build 0)  -->
<svg version="1.1" id="Layer_1" xmlns="http://www.w3.org/2000/svg" xmlns:xlink="http://www.w3.org/1999/xlink" x="0px" y="0px"
	 viewBox="0 0 74.7 100" style="enable-background:new 0 0 74.7 100;" xml:space="preserve">
<path fill="#101010" d="M27.4,28.6c-1.9,7.3-2.1,15.6-2.1,21.2l0,0.6l-0.6-0.1c-8.9-1.9-10.9-14.7-10.9-15.2c-0.1-0.5-0.4-1-0.8-1.2
	c-0.2-0.1-0.5-0.2-0.8-0.2c-0.2,0-0.5,0.1-0.7,0.2C11,34,0.7,39.3,0,60.5c0,0.7,0,1.4,0,2.1C0,83.2,16.8,100,37.4,100
	c20.6,0,37.4-16.8,37.4-37.4c0-1-0.1-2-0.1-3v0l-0.1-1c-1.1-14.9-8.1-24.3-14.3-32.6c-5.8-7.8-10.8-14.5-10.8-24.5
	c0-0.6-0.3-1.1-0.9-1.4c-0.5-0.3-1.2-0.2-1.7,0.1C37.8,6.9,30.1,18,27.4,28.6z M37.4,96.8c-7.2,0-13.1-6.3-13.1-14
	c0-0.3,0-0.6,0-0.8c0.1-2.7,0.5-5,1.4-6.9l0.5-1l0.5,1c1,2.2,3,4.7,6.5,4.7c0.9,0,1.6-0.7,1.6-1.6c0-3,0.1-6.5,0.8-9.7
	c0.7-2.8,2.3-5.8,4.4-8.3l0.6-0.7l0.3,0.9c0.9,3,2.6,5.4,4.3,7.8c2.5,3.5,5,7.2,5.5,13.4c0,0.4,0.1,0.7,0.1,1.2
	C50.5,90.5,44.6,96.8,37.4,96.8z M57.7,28c6.2,8.3,12.6,16.9,13.6,30.9l0.1,1c0.1,0.9,0.1,1.8,0.1,2.7c0,13.6-8.1,26-20.7,31.4
	l-1.7,0.7l1.1-1.5c2.2-3.1,3.4-6.7,3.4-10.4c0-0.5,0-0.9-0.1-1.8c-0.5-6.7-3.4-10.9-6-14.6c-2.3-3.3-4.3-6.1-4.3-10.1
	c0-0.6-0.3-1.2-0.9-1.4c-0.5-0.3-1.2-0.2-1.7,0.2c-3.9,3-7.2,8-8.4,12.8c-0.5,2-0.8,4.5-0.9,7.4l0,1.2l-0.8-0.9
	c-1.6-1.7-2-4.8-2-4.8c-0.1-0.5-0.4-0.9-0.8-1.2c-0.5-0.2-1-0.2-1.5,0c-0.5,0.3-4.9,2.8-5.2,12.3c0,0.3,0,0.7,0,1
	c0,3.7,1.2,7.3,3.4,10.4l1.1,1.5L23.9,94C11.3,88.6,3.2,76.3,3.2,62.6c0-0.7,0-1.3,0-2c0.4-12.9,4.7-19.3,7.2-21.9L11,38l0.2,0.9
	c1,3.5,5,14.8,15.6,14.8c0.9,0,1.6-0.7,1.6-1.6c0-7.1,0.2-15.2,2.1-22.8c2.1-8.5,8-17.7,15.2-24l0.7-0.6l0.1,0.9
	C47.7,14.6,52.6,21.1,57.7,28z"/>
<path fill="#73A942" d="M62.2,45.5c-0.5-0.6-1.6-0.7-2.3-0.1c-0.7,0.6-0.7,1.6-0.1,2.3c6.2,6.9,5.5,17.6-1.3,23.7
	c-0.6,0.5-0.7,1.6-0.1,2.3c0.5,0.6,1.6,0.7,2.3,0.1C68.8,66.4,69.6,53.8,62.2,45.5z"/>
</svg>
