<?xml version="1.0" encoding="utf-8"?>
<!-- Generator: Adobe Illustrator 24.0.1, SVG Export Plug-In . SVG Version: 6.00 Build 0)  -->
<svg version="1.1" xmlns="http://www.w3.org/2000/svg" xmlns:xlink="http://www.w3.org/1999/xlink" x="0px" y="0px"
	 viewBox="0 0 93 100" style="enable-background:new 0 0 93 100;" xml:space="preserve">
<g id="Capa_1">
	<path fill="#73A942" d="M46.5,42.4c-4.8,0-8.7,3.9-8.7,8.7s3.9,8.7,8.7,8.7s8.7-3.9,8.7-8.7S51.3,42.4,46.5,42.4z M46.5,56.5
		c-3,0-5.4-2.4-5.4-5.4c0-3,2.4-5.4,5.4-5.4c3,0,5.4,2.4,5.4,5.4C51.9,54.1,49.5,56.5,46.5,56.5z"/>
	<path fill="#101010" d="M92.9,72c-0.1-0.4-0.4-0.7-0.8-0.9L64.7,58.3V39c0-0.4-0.2-0.8-0.4-1.1L48.1,20.8V9.4h3.2
		c0.9,0,1.6-0.7,1.6-1.6c0-0.9-0.7-1.6-1.6-1.6h-3.2V1.6c0-0.9-0.7-1.6-1.6-1.6c-0.9,0-1.6,0.7-1.6,1.6v4.5h-3.2
		c-0.9,0-1.6,0.7-1.6,1.6c0,0.9,0.7,1.6,1.6,1.6h3.2v11.4l-0.1,0.1l-16.1,17c-0.3,0.3-0.4,0.7-0.4,1.1v19.3L0.9,71.1
		c-0.8,0.4-1.2,1.3-0.8,2.1C0.5,74,1.5,74.4,2.3,74l4.3-2v26.4c0,0.9,0.7,1.6,1.6,1.6h76.5c0.9,0,1.6-0.7,1.6-1.6V72l4.3,2
		c0.8,0.4,1.8,0,2.1-0.8C93,72.8,93,72.4,92.9,72z M28.2,96.8h-7.6V83.9c0-0.9-0.7-1.6-1.6-1.6c-0.9,0-1.6,0.7-1.6,1.6v12.9H9.8
		V70.5l18.4-8.6V96.8z M51.9,96.8H41.1V79.5c0-3,2.4-5.4,5.4-5.4c1.5,0,2.8,0.6,3.8,1.6c1,1,1.6,2.4,1.6,3.8V96.8z M61.5,96.8h-6.4
		V79.5c0-2.3-0.9-4.5-2.5-6.1c-1.6-1.6-3.8-2.5-6.1-2.5c-4.8,0-8.6,3.9-8.6,8.7v17.3h-6.4V39.6l0.1-0.1l14.9-15.8l15,15.9V96.8z
		 M83.1,96.8h-7.6v-8.7c0-0.9-0.7-1.6-1.6-1.6c-0.9,0-1.6,0.7-1.6,1.6v8.7h-7.6V61.9l18.4,8.6V96.8z"/>
</g>
<g id="Слой_2">
</g>
</svg>
