<?xml version="1.0" encoding="utf-8"?>
<!-- Generator: Adobe Illustrator 24.0.1, SVG Export Plug-In . SVG Version: 6.00 Build 0)  -->
<svg version="1.1" id="Capa_1" xmlns="http://www.w3.org/2000/svg" xmlns:xlink="http://www.w3.org/1999/xlink" x="0px" y="0px"
	 viewBox="0 0 512 512" style="enable-background:new 0 0 512 512;" xml:space="preserve">
<g>
	<g>
		<path fill="#73A942" d="M172,210.8c17.5-17.5,17.5-46.1,0-63.6l-61.7-61.7c-9.4-9.4-22.5-14.2-35.9-13.1c-13.1,1.1-25,7.8-32.5,18.3
			c-1.6,2.2-3.1,4.4-4.6,6.7l124.1,124.1L172,210.8z"/>
		<path fill="#73A942" d="M426.6,401.7L364.9,340c-17.5-17.5-46.1-17.5-63.6,0l-10.6,10.6l124.1,124.1c2.2-1.5,4.5-3,6.7-4.6
			c10.6-7.6,17.3-19.4,18.3-32.5C440.8,424.3,436,411.2,426.6,401.7z"/>
		<path fill="#73A942" d="M248.2,374.4c-12,0-23.3-4.7-31.8-13.2l-65.6-65.6c-8.5-8.5-13.2-19.8-13.2-31.8c0-6.8,1.5-13.4,4.4-19.4
			l-120-120c-16.9,35.4-24.4,75.2-21.3,115C4.8,293.1,28,343.6,65.9,381.5l64.6,64.6c37.9,37.9,88.4,61.1,142.1,65.2
			c5.9,0.5,11.7,0.7,17.6,0.7c33.9,0,67.2-7.6,97.4-21.9l-120-120C261.6,372.9,255,374.4,248.2,374.4L248.2,374.4z"/>
		<path fill="#73A942" d="M302,0c-8.3,0-15,6.7-15,15s6.7,15,15,15c99.3,0,180,80.7,180,180c0,8.3,6.7,15,15,15s15-6.7,15-15
			C512,94.2,417.8,0,302,0z"/>
		<path fill="#73A942" d="M302,210C302,210,302,210,302,210c0,8.3,6.7,15,15,15s15-6.7,15-15c0-16.5-13.5-30-30-30c-8.3,0-15,6.7-15,15
			S293.7,210,302,210z"/>
		<path fill="#73A942" d="M302,150c33.1,0,60,26.9,60,60c0,8.3,6.7,15,15,15s15-6.7,15-15c0-49.6-40.4-90-90-90c-8.3,0-15,6.7-15,15
			S293.7,150,302,150z"/>
		<path fill="#73A942" d="M302,60c-8.3,0-15,6.7-15,15s6.7,15,15,15c66.2,0,120,53.8,120,120c0,8.3,6.7,15,15,15s15-6.7,15-15
			C452,127.3,384.7,60,302,60z"/>
	</g>
</g>
</svg>
