<?xml version="1.0" encoding="utf-8"?>
<!-- Generator: Adobe Illustrator 24.0.1, SVG Export Plug-In . SVG Version: 6.00 Build 0)  -->
<svg version="1.1" id="Capa_1" xmlns="http://www.w3.org/2000/svg" xmlns:xlink="http://www.w3.org/1999/xlink" x="0px" y="0px"
	 viewBox="0 0 87.3 100" style="enable-background:new 0 0 87.3 100;" xml:space="preserve">

<path fill="#101010" d="M21.2,46.9c-0.1,0-0.2,0-0.3,0c-0.3,0-0.6,0.1-0.8,0.2c-0.3,0.2-0.6,0.6-0.6,1L9.6,98.2c-0.1,0.4,0,0.9,0.3,1.2
	c0.3,0.3,0.7,0.5,1.2,0.5h60.4c0.4,0,0.9-0.2,1.2-0.5c0.3-0.3,0.4-0.8,0.3-1.2l-19.1-97C53.7,0.5,53.1,0,52.4,0H30.1
	c-0.7,0-1.3,0.5-1.5,1.2l-6.2,31.6c-0.1,0.4,0,0.8,0.2,1.1c0.2,0.3,0.6,0.6,0.9,0.6c0.4,0.1,0.8,0,1.1-0.2c0.3-0.2,0.6-0.6,0.6-1
	l6-30.4h19.8l0,0.1l18.5,94H12.9l9.5-48.3c0.1-0.4,0-0.8-0.2-1.1C21.9,47.2,21.6,47,21.2,46.9z"/>
<g>
	<g>
		<g>
			<path fill="#101010" d="M41.3,74.8c-0.8,0-1.5,0.7-1.5,1.5v6.4c0,0.8,0.7,1.5,1.5,1.5s1.5-0.7,1.5-1.5v-6.4
				C42.8,75.4,42.1,74.8,41.3,74.8z"/>
			<path fill="#101010" d="M41.3,62c-0.8,0-1.5,0.7-1.5,1.5v6.4c0,0.8,0.7,1.5,1.5,1.5s1.5-0.7,1.5-1.5v-6.4C42.8,62.7,42.1,62,41.3,62
				z"/>
			<path fill="#101010" d="M41.3,49.3c-0.8,0-1.5,0.7-1.5,1.5v6.4c0,0.8,0.7,1.5,1.5,1.5s1.5-0.7,1.5-1.5v-6.4
				C42.8,50,42.1,49.3,41.3,49.3z"/>
			<path fill="#101010" d="M41.3,87.5c-0.8,0-1.5,0.7-1.5,1.5v6.4c0,0.8,0.7,1.5,1.5,1.5s1.5-0.7,1.5-1.5V89
				C42.8,88.1,42.1,87.5,41.3,87.5z"/>
			<path fill="#101010" d="M41.3,11.1c-0.8,0-1.5,0.7-1.5,1.5V19c0,0.8,0.7,1.5,1.5,1.5s1.5-0.7,1.5-1.5v-6.4
				C42.8,11.8,42.1,11.1,41.3,11.1z"/>
			<path fill="#101010" d="M41.3,36.6c-0.8,0-1.5,0.7-1.5,1.5v6.4c0,0.8,0.7,1.5,1.5,1.5s1.5-0.7,1.5-1.5v-6.4
				C42.8,37.2,42.1,36.6,41.3,36.6z"/>
			<path fill="#101010" d="M41.3,3.2c-0.8,0-1.5,0.7-1.5,1.5v1.6c0,0.8,0.7,1.5,1.5,1.5s1.5-0.7,1.5-1.5V4.7
				C42.8,3.8,42.1,3.2,41.3,3.2z"/>
			<path fill="#101010" d="M41.3,23.9c-0.8,0-1.5,0.7-1.5,1.5v6.4c0,0.8,0.7,1.5,1.5,1.5s1.5-0.7,1.5-1.5v-6.4
				C42.8,24.5,42.1,23.9,41.3,23.9z"/>
		</g>
	</g>
</g>
<rect x="73.2" y="38.2" fill="#73A942" width="3" height="20.5"/>
<path fill="#73A942" d="M74.7,0C67,0,62,15.7,62,26.5c0,13,6.7,14.6,12.6,14.6c5.9,0,12.6-1.7,12.6-14.6C87.3,15.7,82.4,0,74.7,0z
	 M74.7,38.2c-4.9,0-9.6-0.9-9.6-11.6C65,15.3,70.1,3,74.7,3s9.6,12.3,9.6,23.6C84.3,37.3,79.5,38.2,74.7,38.2z"/>
<rect x="11.1" y="49.3" fill="#73A942" width="3" height="20.5"/>
<path fill="#73A942" d="M12.6,11.1C4.9,11.1,0,26.9,0,37.7c0,13,6.7,14.6,12.6,14.6s12.6-1.7,12.6-14.6C25.3,26.9,20.3,11.1,12.6,11.1z
	 M12.6,49.3C7.8,49.3,3,48.4,3,37.7c0-11.2,5-23.6,9.6-23.6s9.6,12.3,9.6,23.6C22.3,48.4,17.5,49.3,12.6,49.3z"/>
</svg>
