<?xml version="1.0" encoding="utf-8"?>
<!-- Generator: Adobe Illustrator 24.0.1, SVG Export Plug-In . SVG Version: 6.00 Build 0)  -->
<svg version="1.1" id="Capa_1" xmlns="http://www.w3.org/2000/svg" xmlns:xlink="http://www.w3.org/1999/xlink" x="0px" y="0px"
	 viewBox="0 0 100 100" style="enable-background:new 0 0 100 100;" xml:space="preserve">

<path fill="#73A942" d="M70.3,54.6c2.7-4.1,4.7-8.9,4.7-14c0-4.7-1.8-9.1-4.7-12.4l-2.9-2.7c-3.1-2.3-6.9-3.6-11.1-3.6
	c-10.3,0-18.7,8.4-18.7,18.7c0,14.7,17.1,27.3,17.8,27.8c0.5,0.4,1.2,0.4,1.7,0c0.4-0.3,5.5-4.1,10.2-9.8L70.3,54.6
	C70.3,54.7,70.3,54.6,70.3,54.6z M56.3,65.4C52.8,62.6,40.5,52,40.5,40.6c0-8.7,7.1-15.8,15.8-15.8S72,31.9,72,40.6
	C72,52,59.7,62.6,56.3,65.4z"/>
<path fill="#101010" d="M99,11l-29.7-11C69,0,68.7,0,68.4,0.1L31.3,10.9L2,0.1C1-0.3,0,0.5,0,1.5v86.1c0,0.6,0.4,1.2,1,1.4l29.7,11
	c0.3,0.1,0.6,0.1,0.9,0l37.1-10.3L98,99.9c0.9,0.3,2-0.4,2-1.4V12.4C100,11.8,99.6,11.3,99,11z M32.7,13.5L67.3,3.4v3.2L32.7,16.7
	V13.5z M29.7,96.4L2.9,86.5v-83l26.8,9.9v3.2l-21.6-7C7.2,9.3,6.3,10.1,6.3,11v72.8c0,0.6,0.4,1.2,1,1.4l22.5,8.1L29.7,96.4
	L29.7,96.4z M67.3,87l-34.6,9.6v-3.2l34.6-10.1V87z M67.3,58.6v21.6L32.7,90.3v-52c0-0.8-0.7-1.5-1.5-1.5c-0.8,0-1.5,0.7-1.5,1.5
	v51.9L9.2,82.7V13.1l20.5,6.7v11.8c0,0.8,0.7,1.5,1.5,1.5c0.8,0,1.5-0.7,1.5-1.5V19.8L67.3,9.7v15.9l2.9,2.7V9.9l20.5,8.4V88
	l-20.5-7.7V54.7L67.3,58.6z M97.1,96.5l-26.8-9.4v-3.7l21.5,8.1c0.9,0.4,2-0.4,2-1.4V17.4c0-0.6-0.4-1.1-0.9-1.4L70.3,6.7V3.6
	l26.8,9.9V96.5z"/>
<g>
	<g>
		<path fill="#73A942" d="M56.3,29.7c-6,0-10.9,4.9-10.9,10.9s4.9,10.9,10.9,10.9s10.9-4.9,10.9-10.9S62.2,29.7,56.3,29.7z M56.3,48.5
			c-4.4,0-7.9-3.6-7.9-7.9s3.6-7.9,7.9-7.9s7.9,3.6,7.9,7.9C64.2,45,60.6,48.5,56.3,48.5z"/>
	</g>
</g>
<g>
	<g>
		<path fill="#73A942" d="M61.6,73.7l-2.1-1l2.1-1c0.7-0.4,1-1.2,0.7-2c-0.4-0.7-1.2-1-2-0.7l-4,2l-4-2c-0.7-0.4-1.6-0.1-2,0.7
			c-0.4,0.7-0.1,1.6,0.7,2l2.1,1l-2.1,1c-0.7,0.4-1,1.2-0.7,2c0.4,0.7,1.2,1,2,0.7l4-2l4,2c0.8,0.4,1.7,0,2-0.8
			C62.6,74.9,62.3,74.1,61.6,73.7z"/>
	</g>
</g>
</svg>
