<?xml version="1.0" encoding="utf-8"?>
<!-- Generator: Adobe Illustrator 24.0.1, SVG Export Plug-In . SVG Version: 6.00 Build 0)  -->
<svg version="1.1" id="Capa_1" xmlns="http://www.w3.org/2000/svg" xmlns:xlink="http://www.w3.org/1999/xlink" x="0px" y="0px"
	 viewBox="0 0 485.3 500" style="enable-background:new 0 0 485.3 500;" xml:space="preserve">
<g>
	<g>
		<path fill="#3092E8" d="M226,165.8l-0.1-0.1c-3.8-3.8-10-3.8-13.8,0.1c-3.8,3.8-3.8,10,0.1,13.8l0.1,0.1c1.9,1.9,4.4,2.8,6.9,2.8
			c2.5,0,5-1,6.9-2.9C229.9,175.9,229.9,169.7,226,165.8z"/>
	</g>
</g>
<g>
	<g>
		<path fill="#3092E8" d="M367.4,284.8c-3.2-4.3-9.4-5.2-13.7-2c-4.3,3.2-5.2,9.4-2,13.7c6.6,8.7,10,19.2,10,30.1
			c0,27.7-22.6,50.3-50.3,50.3s-50.3-22.6-50.3-50.3c0-27.7,22.6-50.3,50.3-50.3c5.4,0,9.8-4.4,9.8-9.8c0-5.4-4.4-9.8-9.8-9.8
			c-38.5,0-69.9,31.3-69.9,69.9s31.3,69.9,69.9,69.9s69.9-31.3,69.9-69.9C381.4,311.5,376.5,297,367.4,284.8z"/>
	</g>
</g>
<g>
	<g>
		<path fill="#3092E8" d="M475.7,443.5l-4.7-4.6V309.8c0,0,0-0.1,0-0.1V160.1c0-0.1,0-0.2,0-0.2V12.1c0-2.9-1.3-5.7-3.5-7.5
			c-2.2-1.9-5.2-2.6-8.1-2.1L310.8,30.8L162.5,0.2c-1.3-0.3-2.6-0.3-3.9,0L7.9,30.5C3.3,31.4,0,35.4,0,40.1v149.6c0,0.1,0,0.1,0,0.2
			v149.7c0,0,0,0,0,0.1v147.9c0,2.9,1.3,5.7,3.5,7.5c2.2,1.9,5.2,2.6,8,2.1l148.9-27l147.8,29.5c0.1,0,0.1,0,0.2,0
			c0.3,0.1,0.5,0.1,0.8,0.2c0.1,0,0.2,0,0.3,0c0.4,0,0.7,0.1,1.1,0.1c0,0,0,0,0,0c0,0,0,0,0,0c0,0,0,0,0,0c0,0,0.1,0,0.1,0
			c0.3,0,0.6,0,0.9,0c0.2,0,0.4-0.1,0.7-0.1c0.1,0,0.2,0,0.3,0l0,0c0,0,0.1,0,0.1,0l106.4-20.7l10.7,10.5c6.1,6.1,14.3,9.5,22.9,9.5
			c8.7,0,16.8-3.4,23-9.5c6.1-6.1,9.5-14.3,9.5-23C485.3,457.8,481.9,449.7,475.7,443.5z M150.8,452.1L19.6,475.8v-128l131.2-25.5
			V452.1z M150.8,302.4L19.6,327.9V198l131.2-25.5V302.4z M150.8,152.5L19.6,178V48.1l131.2-26.4V152.5z M451.4,23.9v128l-131,26.7
			L319.9,49L451.4,23.9z M417.3,308.7c-8-48-48-85-96.8-89.1l-0.1-21l130.9-26.7v129.9L417.3,308.7z M451.4,321.7v98l-9.1-8.9
			c-0.3-0.3-0.6-0.5-0.9-0.8l-34.5-34.3c7.3-14.2,11.6-30.3,11.9-47.3L451.4,321.7z M170.3,172.5l14.9,3c5.3,1.1,10.5-2.4,11.5-7.7
			c1.1-5.3-2.4-10.5-7.7-11.5l-18.7-3.7V21.8l130,26.8l0.5,129.9l-45.1-9.5c-5.3-1.1-10.5,2.3-11.6,7.6c-1.1,5.3,2.3,10.5,7.6,11.6
			l49.2,10.3l0.1,21.2c-48.5,4.7-87.9,41.7-95.5,89.7l-35.2-7L170.3,172.5L170.3,172.5z M300.9,478.3l-130.6-26.1V322.4l33.8,6.8
			c1.3,54.5,43.3,99,96.8,104.3V478.3z M311.5,414.3c-48.4,0-87.8-39.4-87.8-87.8c0-1.7,0-3.3,0.1-4.9c2.5-46.5,41-82.9,87.6-82.9
			c46.3,0,84.7,36.1,87.6,82.3c0.1,1.9,0.2,3.7,0.2,5.5C399.3,375,359.9,414.3,311.5,414.3z M320.5,478.3v-44.8
			c14.5-1.2,28.3-5.3,40.6-11.8l35.6,35.3l0,0c0,0,0,0,0,0l5.5,5.4L320.5,478.3z M377.9,410.9c6.8-5.4,12.9-11.5,18.2-18.3
			l25.5,25.4l-18.1,18.3L377.9,410.9z M461.9,475.7c-2.4,2.4-5.7,3.8-9.1,3.8c-3.4,0-6.7-1.3-9.2-3.8L417.4,450l18.2-18.4l26.3,25.8
			c2.4,2.4,3.8,5.7,3.8,9.1C465.7,470,464.4,473.3,461.9,475.7z"/>
	</g>
</g>
<g>
	<g>
		<path fill="#3092E8" d="M339.1,263.6c-5.4,0-9.8,4.4-9.8,9.8c0,5.4,4.4,9.8,9.8,9.8c5.4,0,9.8-4.4,9.8-9.8v0
			C348.9,267.9,344.5,263.6,339.1,263.6z"/>
	</g>
</g>
</svg>
